M48
; DRILL file {KiCad 5.1.2} date Fri 24 May 2019 08:55:26 AM CDT
; FORMAT={-:-/ absolute / inch / decimal}
; #@! TF.CreationDate,2019-05-24T08:55:26-05:00
; #@! TF.GenerationSoftware,Kicad,Pcbnew,5.1.2
; #@! TF.FileFunction,Plated,1,2,PTH
FMAT,2
INCH
T1C0.0157
T2C0.0197
T3C0.0394
T4C0.0512
T5C0.1772
%
G90
G05
T1
X5.7087Y-2.9331
X5.7087Y-3.3858
X5.9055Y-4.3307
X5.9449Y-4.6063
X5.9843Y-3.7598
X6.0236Y-4.5472
X6.1378Y-3.9173
X6.2058Y-4.9145
X6.2402Y-4.5669
X6.2593Y-4.6058
X6.2598Y-4.4882
X6.3583Y-4.748
X6.4085Y-4.6189
X6.4764Y-4.3307
X6.4882Y-3.9764
X6.5Y-4.2608
X6.5551Y-4.0945
X6.5748Y-3.7992
X6.5846Y-2.687
X6.5945Y-4.1339
X6.623Y-4.7244
X6.625Y-4.6102
X6.6535Y-4.1535
X6.6535Y-4.4587
X6.6929Y-4.5669
X6.7145Y-4.534
X6.7323Y-4.8228
X6.7421Y-5.0689
X6.7815Y-2.7559
X6.8307Y-4.626
X6.8504Y-4.2913
X6.9094Y-3.9961
X6.9094Y-4.1142
X6.9094Y-4.1929
X6.9685Y-3.9173
X6.9783Y-5.0492
X7.0177Y-2.687
X7.0866Y-4.0551
X7.1654Y-4.1535
X7.2146Y-2.7559
X7.2441Y-3.189
X7.3819Y-3.189
X7.4508Y-2.687
X7.6673Y-2.7559
X7.7008Y-3.5157
X7.9134Y-2.687
X7.9409Y-3.0591
X8.0709Y-3.376
X8.1398Y-2.7461
X8.2087Y-4.2323
X8.2283Y-3.937
X8.3071Y-2.7559
X8.3661Y-2.687
X8.3661Y-3.2185
X8.4252Y-3.4055
X8.622Y-3.5236
T2
X7.7913Y-3.0709
X7.7913Y-3.1102
X7.7913Y-3.1496
X7.7913Y-3.189
X7.7913Y-3.2283
X7.7913Y-3.2677
X7.7913Y-3.3071
X7.7913Y-3.3465
X7.7913Y-3.3858
X7.7913Y-3.4252
X7.7913Y-3.4646
X7.7913Y-3.5039
X7.7913Y-3.5433
X7.7913Y-3.5827
X7.7913Y-3.622
X7.7913Y-3.6614
X7.7913Y-3.7008
X7.7913Y-3.7402
X7.7913Y-3.7795
X7.7913Y-3.8189
X7.7913Y-3.8583
X7.7913Y-3.8976
X7.7913Y-3.937
X7.7913Y-3.9764
X7.7913Y-4.0157
X7.7913Y-4.0551
X7.7913Y-4.0945
X7.7913Y-4.1339
X7.7913Y-4.1732
X7.7913Y-4.2126
X7.7913Y-4.252
X7.7913Y-4.2913
X7.7913Y-4.3307
X7.7913Y-4.3701
X7.7913Y-4.4094
X7.7913Y-4.4488
X7.7913Y-4.4882
X7.7913Y-4.5276
X7.7913Y-4.5669
X7.7913Y-4.6063
T3
X7.3228Y-4.3504
X7.3228Y-4.4504
X7.3228Y-4.5504
X5.7323Y-3.4685
X5.7323Y-3.5685
X5.7323Y-3.6685
X5.7323Y-3.7685
X5.7323Y-3.8685
X5.7323Y-3.9685
X5.7323Y-4.0685
X5.7323Y-4.1685
X6.1339Y-3.4646
X7.3228Y-3.8976
X7.3228Y-3.9976
X7.3228Y-4.0976
X7.0669Y-4.2717
X7.1669Y-4.2717
X7.5945Y-4.3504
X7.5945Y-4.4504
X7.5945Y-4.5504
X7.4803Y-3.1496
X5.7323Y-4.3126
X5.7323Y-4.4126
X5.7323Y-4.5126
X5.7323Y-4.6126
X5.7323Y-4.7126
X5.7323Y-4.8126
X7.6181Y-3.8976
X7.6181Y-3.9976
X7.6181Y-4.0976
X5.9646Y-4.9646
X6.0646Y-4.9646
X6.1646Y-4.9646
X6.2646Y-4.9646
X6.3646Y-4.9646
X6.4646Y-4.9646
T4
X5.878Y-5.1535
X6.0748Y-5.1535
X6.2717Y-5.1535
X6.4685Y-5.1535
X6.6654Y-5.1535
X6.8622Y-5.1535
X7.0591Y-5.1535
X7.2559Y-5.1535
X7.4528Y-5.1535
X7.6496Y-5.1535
X7.8465Y-5.1535
X6.0512Y-2.8268
X6.248Y-2.8268
X7.4035Y-4.8366
X7.6004Y-4.8366
T5
X9.4882Y-2.7756
X5.8071Y-2.7756
X9.4882Y-5.4331
X5.8071Y-5.4331
T0
M30
