G04 #@! TF.GenerationSoftware,KiCad,Pcbnew,5.1.2*
G04 #@! TF.CreationDate,2019-05-24T08:55:17-05:00*
G04 #@! TF.ProjectId,Cluster,436c7573-7465-4722-9e6b-696361645f70,rev?*
G04 #@! TF.SameCoordinates,Original*
G04 #@! TF.FileFunction,Legend,Top*
G04 #@! TF.FilePolarity,Positive*
%FSLAX46Y46*%
G04 Gerber Fmt 4.6, Leading zero omitted, Abs format (unit mm)*
G04 Created by KiCad (PCBNEW 5.1.2) date 2019-05-24 08:55:17*
%MOMM*%
%LPD*%
G04 APERTURE LIST*
%ADD10C,0.150000*%
%ADD11C,0.300000*%
%ADD12C,0.120000*%
%ADD13C,0.100000*%
%ADD14C,0.127000*%
%ADD15C,0.050000*%
G04 APERTURE END LIST*
D10*
X151638095Y-76171428D02*
X152400000Y-76171428D01*
X152019047Y-76552380D02*
X152019047Y-75790476D01*
X153400000Y-76552380D02*
X152828571Y-76552380D01*
X153114285Y-76552380D02*
X153114285Y-75552380D01*
X153019047Y-75695238D01*
X152923809Y-75790476D01*
X152828571Y-75838095D01*
X153780952Y-75647619D02*
X153828571Y-75600000D01*
X153923809Y-75552380D01*
X154161904Y-75552380D01*
X154257142Y-75600000D01*
X154304761Y-75647619D01*
X154352380Y-75742857D01*
X154352380Y-75838095D01*
X154304761Y-75980952D01*
X153733333Y-76552380D01*
X154352380Y-76552380D01*
X154638095Y-75552380D02*
X154971428Y-76552380D01*
X155304761Y-75552380D01*
X152890476Y-138852380D02*
X153223809Y-139852380D01*
X153557142Y-138852380D01*
X153842857Y-138947619D02*
X153890476Y-138900000D01*
X153985714Y-138852380D01*
X154223809Y-138852380D01*
X154319047Y-138900000D01*
X154366666Y-138947619D01*
X154414285Y-139042857D01*
X154414285Y-139138095D01*
X154366666Y-139280952D01*
X153795238Y-139852380D01*
X154414285Y-139852380D01*
D11*
X164571428Y-69300000D02*
X164285714Y-69157142D01*
X163857142Y-69157142D01*
X163428571Y-69300000D01*
X163142857Y-69585714D01*
X162999999Y-69871428D01*
X162857142Y-70442857D01*
X162857142Y-70871428D01*
X162999999Y-71442857D01*
X163142857Y-71728571D01*
X163428571Y-72014285D01*
X163857142Y-72157142D01*
X164142857Y-72157142D01*
X164571428Y-72014285D01*
X164714285Y-71871428D01*
X164714285Y-70871428D01*
X164142857Y-70871428D01*
X167428571Y-72157142D02*
X165999999Y-72157142D01*
X165999999Y-69157142D01*
X169999999Y-72157142D02*
X168285714Y-72157142D01*
X169142857Y-72157142D02*
X169142857Y-69157142D01*
X168857142Y-69585714D01*
X168571428Y-69871428D01*
X168285714Y-70014285D01*
X171142857Y-69442857D02*
X171285714Y-69300000D01*
X171571428Y-69157142D01*
X172285714Y-69157142D01*
X172571428Y-69300000D01*
X172714285Y-69442857D01*
X172857142Y-69728571D01*
X172857142Y-70014285D01*
X172714285Y-70442857D01*
X170999999Y-72157142D01*
X172857142Y-72157142D01*
X174714285Y-69157142D02*
X174999999Y-69157142D01*
X175285714Y-69300000D01*
X175428571Y-69442857D01*
X175571428Y-69728571D01*
X175714285Y-70300000D01*
X175714285Y-71014285D01*
X175571428Y-71585714D01*
X175428571Y-71871428D01*
X175285714Y-72014285D01*
X174999999Y-72157142D01*
X174714285Y-72157142D01*
X174428571Y-72014285D01*
X174285714Y-71871428D01*
X174142857Y-71585714D01*
X173999999Y-71014285D01*
X173999999Y-70300000D01*
X174142857Y-69728571D01*
X174285714Y-69442857D01*
X174428571Y-69300000D01*
X174714285Y-69157142D01*
X177571428Y-69157142D02*
X177857142Y-69157142D01*
X178142857Y-69300000D01*
X178285714Y-69442857D01*
X178428571Y-69728571D01*
X178571428Y-70300000D01*
X178571428Y-71014285D01*
X178428571Y-71585714D01*
X178285714Y-71871428D01*
X178142857Y-72014285D01*
X177857142Y-72157142D01*
X177571428Y-72157142D01*
X177285714Y-72014285D01*
X177142857Y-71871428D01*
X176999999Y-71585714D01*
X176857142Y-71014285D01*
X176857142Y-70300000D01*
X176999999Y-69728571D01*
X177142857Y-69442857D01*
X177285714Y-69300000D01*
X177571428Y-69157142D01*
X183857142Y-72157142D02*
X182857142Y-70728571D01*
X182142857Y-72157142D02*
X182142857Y-69157142D01*
X183285714Y-69157142D01*
X183571428Y-69300000D01*
X183714285Y-69442857D01*
X183857142Y-69728571D01*
X183857142Y-70157142D01*
X183714285Y-70442857D01*
X183571428Y-70585714D01*
X183285714Y-70728571D01*
X182142857Y-70728571D01*
X186285714Y-72014285D02*
X185999999Y-72157142D01*
X185428571Y-72157142D01*
X185142857Y-72014285D01*
X184999999Y-71728571D01*
X184999999Y-70585714D01*
X185142857Y-70300000D01*
X185428571Y-70157142D01*
X185999999Y-70157142D01*
X186285714Y-70300000D01*
X186428571Y-70585714D01*
X186428571Y-70871428D01*
X184999999Y-71157142D01*
X187714285Y-70157142D02*
X187714285Y-73157142D01*
X187714285Y-70300000D02*
X187999999Y-70157142D01*
X188571428Y-70157142D01*
X188857142Y-70300000D01*
X188999999Y-70442857D01*
X189142857Y-70728571D01*
X189142857Y-71585714D01*
X188999999Y-71871428D01*
X188857142Y-72014285D01*
X188571428Y-72157142D01*
X187999999Y-72157142D01*
X187714285Y-72014285D01*
X190857142Y-72157142D02*
X190571428Y-72014285D01*
X190428571Y-71728571D01*
X190428571Y-69157142D01*
X193285714Y-72157142D02*
X193285714Y-70585714D01*
X193142857Y-70300000D01*
X192857142Y-70157142D01*
X192285714Y-70157142D01*
X191999999Y-70300000D01*
X193285714Y-72014285D02*
X192999999Y-72157142D01*
X192285714Y-72157142D01*
X191999999Y-72014285D01*
X191857142Y-71728571D01*
X191857142Y-71442857D01*
X191999999Y-71157142D01*
X192285714Y-71014285D01*
X192999999Y-71014285D01*
X193285714Y-70871428D01*
X195999999Y-72014285D02*
X195714285Y-72157142D01*
X195142857Y-72157142D01*
X194857142Y-72014285D01*
X194714285Y-71871428D01*
X194571428Y-71585714D01*
X194571428Y-70728571D01*
X194714285Y-70442857D01*
X194857142Y-70300000D01*
X195142857Y-70157142D01*
X195714285Y-70157142D01*
X195999999Y-70300000D01*
X198428571Y-72014285D02*
X198142857Y-72157142D01*
X197571428Y-72157142D01*
X197285714Y-72014285D01*
X197142857Y-71728571D01*
X197142857Y-70585714D01*
X197285714Y-70300000D01*
X197571428Y-70157142D01*
X198142857Y-70157142D01*
X198428571Y-70300000D01*
X198571428Y-70585714D01*
X198571428Y-70871428D01*
X197142857Y-71157142D01*
X199857142Y-72157142D02*
X199857142Y-70157142D01*
X199857142Y-70442857D02*
X200000000Y-70300000D01*
X200285714Y-70157142D01*
X200714285Y-70157142D01*
X201000000Y-70300000D01*
X201142857Y-70585714D01*
X201142857Y-72157142D01*
X201142857Y-70585714D02*
X201285714Y-70300000D01*
X201571428Y-70157142D01*
X202000000Y-70157142D01*
X202285714Y-70300000D01*
X202428571Y-70585714D01*
X202428571Y-72157142D01*
X205000000Y-72014285D02*
X204714285Y-72157142D01*
X204142857Y-72157142D01*
X203857142Y-72014285D01*
X203714285Y-71728571D01*
X203714285Y-70585714D01*
X203857142Y-70300000D01*
X204142857Y-70157142D01*
X204714285Y-70157142D01*
X205000000Y-70300000D01*
X205142857Y-70585714D01*
X205142857Y-70871428D01*
X203714285Y-71157142D01*
X206428571Y-70157142D02*
X206428571Y-72157142D01*
X206428571Y-70442857D02*
X206571428Y-70300000D01*
X206857142Y-70157142D01*
X207285714Y-70157142D01*
X207571428Y-70300000D01*
X207714285Y-70585714D01*
X207714285Y-72157142D01*
X208714285Y-70157142D02*
X209857142Y-70157142D01*
X209142857Y-69157142D02*
X209142857Y-71728571D01*
X209285714Y-72014285D01*
X209571428Y-72157142D01*
X209857142Y-72157142D01*
X214857142Y-71871428D02*
X214714285Y-72014285D01*
X214285714Y-72157142D01*
X214000000Y-72157142D01*
X213571428Y-72014285D01*
X213285714Y-71728571D01*
X213142857Y-71442857D01*
X213000000Y-70871428D01*
X213000000Y-70442857D01*
X213142857Y-69871428D01*
X213285714Y-69585714D01*
X213571428Y-69300000D01*
X214000000Y-69157142D01*
X214285714Y-69157142D01*
X214714285Y-69300000D01*
X214857142Y-69442857D01*
X216571428Y-72157142D02*
X216285714Y-72014285D01*
X216142857Y-71728571D01*
X216142857Y-69157142D01*
X219000000Y-70157142D02*
X219000000Y-72157142D01*
X217714285Y-70157142D02*
X217714285Y-71728571D01*
X217857142Y-72014285D01*
X218142857Y-72157142D01*
X218571428Y-72157142D01*
X218857142Y-72014285D01*
X219000000Y-71871428D01*
X220285714Y-72014285D02*
X220571428Y-72157142D01*
X221142857Y-72157142D01*
X221428571Y-72014285D01*
X221571428Y-71728571D01*
X221571428Y-71585714D01*
X221428571Y-71300000D01*
X221142857Y-71157142D01*
X220714285Y-71157142D01*
X220428571Y-71014285D01*
X220285714Y-70728571D01*
X220285714Y-70585714D01*
X220428571Y-70300000D01*
X220714285Y-70157142D01*
X221142857Y-70157142D01*
X221428571Y-70300000D01*
X222428571Y-70157142D02*
X223571428Y-70157142D01*
X222857142Y-69157142D02*
X222857142Y-71728571D01*
X223000000Y-72014285D01*
X223285714Y-72157142D01*
X223571428Y-72157142D01*
X225714285Y-72014285D02*
X225428571Y-72157142D01*
X224857142Y-72157142D01*
X224571428Y-72014285D01*
X224428571Y-71728571D01*
X224428571Y-70585714D01*
X224571428Y-70300000D01*
X224857142Y-70157142D01*
X225428571Y-70157142D01*
X225714285Y-70300000D01*
X225857142Y-70585714D01*
X225857142Y-70871428D01*
X224428571Y-71157142D01*
X227142857Y-72157142D02*
X227142857Y-70157142D01*
X227142857Y-70728571D02*
X227285714Y-70442857D01*
X227428571Y-70300000D01*
X227714285Y-70157142D01*
X228000000Y-70157142D01*
X229000000Y-71871428D02*
X229142857Y-72014285D01*
X229000000Y-72157142D01*
X228857142Y-72014285D01*
X229000000Y-71871428D01*
X229000000Y-72157142D01*
X229000000Y-71014285D02*
X228857142Y-69300000D01*
X229000000Y-69157142D01*
X229142857Y-69300000D01*
X229000000Y-71014285D01*
X229000000Y-69157142D01*
D10*
X187714285Y-98452380D02*
X188047619Y-99452380D01*
X188380952Y-98452380D01*
X188666666Y-99404761D02*
X188809523Y-99452380D01*
X189047619Y-99452380D01*
X189142857Y-99404761D01*
X189190476Y-99357142D01*
X189238095Y-99261904D01*
X189238095Y-99166666D01*
X189190476Y-99071428D01*
X189142857Y-99023809D01*
X189047619Y-98976190D01*
X188857142Y-98928571D01*
X188761904Y-98880952D01*
X188714285Y-98833333D01*
X188666666Y-98738095D01*
X188666666Y-98642857D01*
X188714285Y-98547619D01*
X188761904Y-98500000D01*
X188857142Y-98452380D01*
X189095238Y-98452380D01*
X189238095Y-98500000D01*
X189619047Y-99404761D02*
X189761904Y-99452380D01*
X190000000Y-99452380D01*
X190095238Y-99404761D01*
X190142857Y-99357142D01*
X190190476Y-99261904D01*
X190190476Y-99166666D01*
X190142857Y-99071428D01*
X190095238Y-99023809D01*
X190000000Y-98976190D01*
X189809523Y-98928571D01*
X189714285Y-98880952D01*
X189666666Y-98833333D01*
X189619047Y-98738095D01*
X189619047Y-98642857D01*
X189666666Y-98547619D01*
X189714285Y-98500000D01*
X189809523Y-98452380D01*
X190047619Y-98452380D01*
X190190476Y-98500000D01*
X187785714Y-101904761D02*
X187928571Y-101952380D01*
X188166666Y-101952380D01*
X188261904Y-101904761D01*
X188309523Y-101857142D01*
X188357142Y-101761904D01*
X188357142Y-101666666D01*
X188309523Y-101571428D01*
X188261904Y-101523809D01*
X188166666Y-101476190D01*
X187976190Y-101428571D01*
X187880952Y-101380952D01*
X187833333Y-101333333D01*
X187785714Y-101238095D01*
X187785714Y-101142857D01*
X187833333Y-101047619D01*
X187880952Y-101000000D01*
X187976190Y-100952380D01*
X188214285Y-100952380D01*
X188357142Y-101000000D01*
X188785714Y-101952380D02*
X188785714Y-100952380D01*
X189023809Y-100952380D01*
X189166666Y-101000000D01*
X189261904Y-101095238D01*
X189309523Y-101190476D01*
X189357142Y-101380952D01*
X189357142Y-101523809D01*
X189309523Y-101714285D01*
X189261904Y-101809523D01*
X189166666Y-101904761D01*
X189023809Y-101952380D01*
X188785714Y-101952380D01*
X189738095Y-101666666D02*
X190214285Y-101666666D01*
X189642857Y-101952380D02*
X189976190Y-100952380D01*
X190309523Y-101952380D01*
X187809523Y-104404761D02*
X187952380Y-104452380D01*
X188190476Y-104452380D01*
X188285714Y-104404761D01*
X188333333Y-104357142D01*
X188380952Y-104261904D01*
X188380952Y-104166666D01*
X188333333Y-104071428D01*
X188285714Y-104023809D01*
X188190476Y-103976190D01*
X188000000Y-103928571D01*
X187904761Y-103880952D01*
X187857142Y-103833333D01*
X187809523Y-103738095D01*
X187809523Y-103642857D01*
X187857142Y-103547619D01*
X187904761Y-103500000D01*
X188000000Y-103452380D01*
X188238095Y-103452380D01*
X188380952Y-103500000D01*
X189380952Y-104357142D02*
X189333333Y-104404761D01*
X189190476Y-104452380D01*
X189095238Y-104452380D01*
X188952380Y-104404761D01*
X188857142Y-104309523D01*
X188809523Y-104214285D01*
X188761904Y-104023809D01*
X188761904Y-103880952D01*
X188809523Y-103690476D01*
X188857142Y-103595238D01*
X188952380Y-103500000D01*
X189095238Y-103452380D01*
X189190476Y-103452380D01*
X189333333Y-103500000D01*
X189380952Y-103547619D01*
X190285714Y-104452380D02*
X189809523Y-104452380D01*
X189809523Y-103452380D01*
X187214285Y-109952380D02*
X187547619Y-110952380D01*
X187880952Y-109952380D01*
X188166666Y-110904761D02*
X188309523Y-110952380D01*
X188547619Y-110952380D01*
X188642857Y-110904761D01*
X188690476Y-110857142D01*
X188738095Y-110761904D01*
X188738095Y-110666666D01*
X188690476Y-110571428D01*
X188642857Y-110523809D01*
X188547619Y-110476190D01*
X188357142Y-110428571D01*
X188261904Y-110380952D01*
X188214285Y-110333333D01*
X188166666Y-110238095D01*
X188166666Y-110142857D01*
X188214285Y-110047619D01*
X188261904Y-110000000D01*
X188357142Y-109952380D01*
X188595238Y-109952380D01*
X188738095Y-110000000D01*
X189119047Y-110904761D02*
X189261904Y-110952380D01*
X189500000Y-110952380D01*
X189595238Y-110904761D01*
X189642857Y-110857142D01*
X189690476Y-110761904D01*
X189690476Y-110666666D01*
X189642857Y-110571428D01*
X189595238Y-110523809D01*
X189500000Y-110476190D01*
X189309523Y-110428571D01*
X189214285Y-110380952D01*
X189166666Y-110333333D01*
X189119047Y-110238095D01*
X189119047Y-110142857D01*
X189166666Y-110047619D01*
X189214285Y-110000000D01*
X189309523Y-109952380D01*
X189547619Y-109952380D01*
X189690476Y-110000000D01*
X188333333Y-113452380D02*
X188000000Y-112976190D01*
X187761904Y-113452380D02*
X187761904Y-112452380D01*
X188142857Y-112452380D01*
X188238095Y-112500000D01*
X188285714Y-112547619D01*
X188333333Y-112642857D01*
X188333333Y-112785714D01*
X188285714Y-112880952D01*
X188238095Y-112928571D01*
X188142857Y-112976190D01*
X187761904Y-112976190D01*
X188666666Y-112452380D02*
X189333333Y-113452380D01*
X189333333Y-112452380D02*
X188666666Y-113452380D01*
X187738095Y-114952380D02*
X188309523Y-114952380D01*
X188023809Y-115952380D02*
X188023809Y-114952380D01*
X188547619Y-114952380D02*
X189214285Y-115952380D01*
X189214285Y-114952380D02*
X188547619Y-115952380D01*
X147547619Y-104452380D02*
X147214285Y-103976190D01*
X146976190Y-104452380D02*
X146976190Y-103452380D01*
X147357142Y-103452380D01*
X147452380Y-103500000D01*
X147500000Y-103547619D01*
X147547619Y-103642857D01*
X147547619Y-103785714D01*
X147500000Y-103880952D01*
X147452380Y-103928571D01*
X147357142Y-103976190D01*
X146976190Y-103976190D01*
X147976190Y-103928571D02*
X148309523Y-103928571D01*
X148452380Y-104452380D02*
X147976190Y-104452380D01*
X147976190Y-103452380D01*
X148452380Y-103452380D01*
X148833333Y-104404761D02*
X148976190Y-104452380D01*
X149214285Y-104452380D01*
X149309523Y-104404761D01*
X149357142Y-104357142D01*
X149404761Y-104261904D01*
X149404761Y-104166666D01*
X149357142Y-104071428D01*
X149309523Y-104023809D01*
X149214285Y-103976190D01*
X149023809Y-103928571D01*
X148928571Y-103880952D01*
X148880952Y-103833333D01*
X148833333Y-103738095D01*
X148833333Y-103642857D01*
X148880952Y-103547619D01*
X148928571Y-103500000D01*
X149023809Y-103452380D01*
X149261904Y-103452380D01*
X149404761Y-103500000D01*
X149833333Y-103928571D02*
X150166666Y-103928571D01*
X150309523Y-104452380D02*
X149833333Y-104452380D01*
X149833333Y-103452380D01*
X150309523Y-103452380D01*
X150595238Y-103452380D02*
X151166666Y-103452380D01*
X150880952Y-104452380D02*
X150880952Y-103452380D01*
X147380952Y-100904761D02*
X147523809Y-100952380D01*
X147761904Y-100952380D01*
X147857142Y-100904761D01*
X147904761Y-100857142D01*
X147952380Y-100761904D01*
X147952380Y-100666666D01*
X147904761Y-100571428D01*
X147857142Y-100523809D01*
X147761904Y-100476190D01*
X147571428Y-100428571D01*
X147476190Y-100380952D01*
X147428571Y-100333333D01*
X147380952Y-100238095D01*
X147380952Y-100142857D01*
X147428571Y-100047619D01*
X147476190Y-100000000D01*
X147571428Y-99952380D01*
X147809523Y-99952380D01*
X147952380Y-100000000D01*
X148285714Y-99952380D02*
X148523809Y-100952380D01*
X148714285Y-100238095D01*
X148904761Y-100952380D01*
X149142857Y-99952380D01*
X149523809Y-100952380D02*
X149523809Y-99952380D01*
X149761904Y-99952380D01*
X149904761Y-100000000D01*
X150000000Y-100095238D01*
X150047619Y-100190476D01*
X150095238Y-100380952D01*
X150095238Y-100523809D01*
X150047619Y-100714285D01*
X150000000Y-100809523D01*
X149904761Y-100904761D01*
X149761904Y-100952380D01*
X149523809Y-100952380D01*
X150523809Y-100952380D02*
X150523809Y-99952380D01*
X151190476Y-99952380D02*
X151380952Y-99952380D01*
X151476190Y-100000000D01*
X151571428Y-100095238D01*
X151619047Y-100285714D01*
X151619047Y-100619047D01*
X151571428Y-100809523D01*
X151476190Y-100904761D01*
X151380952Y-100952380D01*
X151190476Y-100952380D01*
X151095238Y-100904761D01*
X151000000Y-100809523D01*
X150952380Y-100619047D01*
X150952380Y-100285714D01*
X151000000Y-100095238D01*
X151095238Y-100000000D01*
X151190476Y-99952380D01*
X147238095Y-98404761D02*
X147380952Y-98452380D01*
X147619047Y-98452380D01*
X147714285Y-98404761D01*
X147761904Y-98357142D01*
X147809523Y-98261904D01*
X147809523Y-98166666D01*
X147761904Y-98071428D01*
X147714285Y-98023809D01*
X147619047Y-97976190D01*
X147428571Y-97928571D01*
X147333333Y-97880952D01*
X147285714Y-97833333D01*
X147238095Y-97738095D01*
X147238095Y-97642857D01*
X147285714Y-97547619D01*
X147333333Y-97500000D01*
X147428571Y-97452380D01*
X147666666Y-97452380D01*
X147809523Y-97500000D01*
X148142857Y-97452380D02*
X148380952Y-98452380D01*
X148571428Y-97738095D01*
X148761904Y-98452380D01*
X149000000Y-97452380D01*
X149952380Y-98357142D02*
X149904761Y-98404761D01*
X149761904Y-98452380D01*
X149666666Y-98452380D01*
X149523809Y-98404761D01*
X149428571Y-98309523D01*
X149380952Y-98214285D01*
X149333333Y-98023809D01*
X149333333Y-97880952D01*
X149380952Y-97690476D01*
X149428571Y-97595238D01*
X149523809Y-97500000D01*
X149666666Y-97452380D01*
X149761904Y-97452380D01*
X149904761Y-97500000D01*
X149952380Y-97547619D01*
X150857142Y-98452380D02*
X150380952Y-98452380D01*
X150380952Y-97452380D01*
X151190476Y-98452380D02*
X151190476Y-97452380D01*
X151761904Y-98452380D02*
X151333333Y-97880952D01*
X151761904Y-97452380D02*
X151190476Y-98023809D01*
X147119047Y-95904761D02*
X147261904Y-95952380D01*
X147500000Y-95952380D01*
X147595238Y-95904761D01*
X147642857Y-95857142D01*
X147690476Y-95761904D01*
X147690476Y-95666666D01*
X147642857Y-95571428D01*
X147595238Y-95523809D01*
X147500000Y-95476190D01*
X147309523Y-95428571D01*
X147214285Y-95380952D01*
X147166666Y-95333333D01*
X147119047Y-95238095D01*
X147119047Y-95142857D01*
X147166666Y-95047619D01*
X147214285Y-95000000D01*
X147309523Y-94952380D01*
X147547619Y-94952380D01*
X147690476Y-95000000D01*
X148023809Y-94952380D02*
X148261904Y-95952380D01*
X148452380Y-95238095D01*
X148642857Y-95952380D01*
X148880952Y-94952380D01*
X149452380Y-94952380D02*
X149642857Y-94952380D01*
X149738095Y-95000000D01*
X149833333Y-95095238D01*
X149880952Y-95285714D01*
X149880952Y-95619047D01*
X149833333Y-95809523D01*
X149738095Y-95904761D01*
X149642857Y-95952380D01*
X149452380Y-95952380D01*
X149357142Y-95904761D01*
X149261904Y-95809523D01*
X149214285Y-95619047D01*
X149214285Y-95285714D01*
X149261904Y-95095238D01*
X149357142Y-95000000D01*
X149452380Y-94952380D01*
X147285714Y-92452380D02*
X147285714Y-93166666D01*
X147238095Y-93309523D01*
X147142857Y-93404761D01*
X147000000Y-93452380D01*
X146904761Y-93452380D01*
X148333333Y-93452380D02*
X148000000Y-92976190D01*
X147761904Y-93452380D02*
X147761904Y-92452380D01*
X148142857Y-92452380D01*
X148238095Y-92500000D01*
X148285714Y-92547619D01*
X148333333Y-92642857D01*
X148333333Y-92785714D01*
X148285714Y-92880952D01*
X148238095Y-92928571D01*
X148142857Y-92976190D01*
X147761904Y-92976190D01*
X148714285Y-93404761D02*
X148857142Y-93452380D01*
X149095238Y-93452380D01*
X149190476Y-93404761D01*
X149238095Y-93357142D01*
X149285714Y-93261904D01*
X149285714Y-93166666D01*
X149238095Y-93071428D01*
X149190476Y-93023809D01*
X149095238Y-92976190D01*
X148904761Y-92928571D01*
X148809523Y-92880952D01*
X148761904Y-92833333D01*
X148714285Y-92738095D01*
X148714285Y-92642857D01*
X148761904Y-92547619D01*
X148809523Y-92500000D01*
X148904761Y-92452380D01*
X149142857Y-92452380D01*
X149285714Y-92500000D01*
X149571428Y-92452380D02*
X150142857Y-92452380D01*
X149857142Y-93452380D02*
X149857142Y-92452380D01*
X147214285Y-89952380D02*
X147547619Y-90952380D01*
X147880952Y-89952380D01*
X148166666Y-90904761D02*
X148309523Y-90952380D01*
X148547619Y-90952380D01*
X148642857Y-90904761D01*
X148690476Y-90857142D01*
X148738095Y-90761904D01*
X148738095Y-90666666D01*
X148690476Y-90571428D01*
X148642857Y-90523809D01*
X148547619Y-90476190D01*
X148357142Y-90428571D01*
X148261904Y-90380952D01*
X148214285Y-90333333D01*
X148166666Y-90238095D01*
X148166666Y-90142857D01*
X148214285Y-90047619D01*
X148261904Y-90000000D01*
X148357142Y-89952380D01*
X148595238Y-89952380D01*
X148738095Y-90000000D01*
X149119047Y-90904761D02*
X149261904Y-90952380D01*
X149500000Y-90952380D01*
X149595238Y-90904761D01*
X149642857Y-90857142D01*
X149690476Y-90761904D01*
X149690476Y-90666666D01*
X149642857Y-90571428D01*
X149595238Y-90523809D01*
X149500000Y-90476190D01*
X149309523Y-90428571D01*
X149214285Y-90380952D01*
X149166666Y-90333333D01*
X149119047Y-90238095D01*
X149119047Y-90142857D01*
X149166666Y-90047619D01*
X149214285Y-90000000D01*
X149309523Y-89952380D01*
X149547619Y-89952380D01*
X149690476Y-90000000D01*
X147166666Y-87452380D02*
X147500000Y-88452380D01*
X147833333Y-87452380D01*
X148738095Y-88357142D02*
X148690476Y-88404761D01*
X148547619Y-88452380D01*
X148452380Y-88452380D01*
X148309523Y-88404761D01*
X148214285Y-88309523D01*
X148166666Y-88214285D01*
X148119047Y-88023809D01*
X148119047Y-87880952D01*
X148166666Y-87690476D01*
X148214285Y-87595238D01*
X148309523Y-87500000D01*
X148452380Y-87452380D01*
X148547619Y-87452380D01*
X148690476Y-87500000D01*
X148738095Y-87547619D01*
X149738095Y-88357142D02*
X149690476Y-88404761D01*
X149547619Y-88452380D01*
X149452380Y-88452380D01*
X149309523Y-88404761D01*
X149214285Y-88309523D01*
X149166666Y-88214285D01*
X149119047Y-88023809D01*
X149119047Y-87880952D01*
X149166666Y-87690476D01*
X149214285Y-87595238D01*
X149309523Y-87500000D01*
X149452380Y-87452380D01*
X149547619Y-87452380D01*
X149690476Y-87500000D01*
X149738095Y-87547619D01*
X147523809Y-115500000D02*
X147428571Y-115452380D01*
X147285714Y-115452380D01*
X147142857Y-115500000D01*
X147047619Y-115595238D01*
X147000000Y-115690476D01*
X146952380Y-115880952D01*
X146952380Y-116023809D01*
X147000000Y-116214285D01*
X147047619Y-116309523D01*
X147142857Y-116404761D01*
X147285714Y-116452380D01*
X147380952Y-116452380D01*
X147523809Y-116404761D01*
X147571428Y-116357142D01*
X147571428Y-116023809D01*
X147380952Y-116023809D01*
X148000000Y-116452380D02*
X148000000Y-115452380D01*
X148380952Y-115452380D01*
X148476190Y-115500000D01*
X148523809Y-115547619D01*
X148571428Y-115642857D01*
X148571428Y-115785714D01*
X148523809Y-115880952D01*
X148476190Y-115928571D01*
X148380952Y-115976190D01*
X148000000Y-115976190D01*
X149000000Y-116452380D02*
X149000000Y-115452380D01*
X149666666Y-115452380D02*
X149857142Y-115452380D01*
X149952380Y-115500000D01*
X150047619Y-115595238D01*
X150095238Y-115785714D01*
X150095238Y-116119047D01*
X150047619Y-116309523D01*
X149952380Y-116404761D01*
X149857142Y-116452380D01*
X149666666Y-116452380D01*
X149571428Y-116404761D01*
X149476190Y-116309523D01*
X149428571Y-116119047D01*
X149428571Y-115785714D01*
X149476190Y-115595238D01*
X149571428Y-115500000D01*
X149666666Y-115452380D01*
X150952380Y-115785714D02*
X150952380Y-116452380D01*
X150714285Y-115404761D02*
X150476190Y-116119047D01*
X151095238Y-116119047D01*
X147523809Y-113000000D02*
X147428571Y-112952380D01*
X147285714Y-112952380D01*
X147142857Y-113000000D01*
X147047619Y-113095238D01*
X147000000Y-113190476D01*
X146952380Y-113380952D01*
X146952380Y-113523809D01*
X147000000Y-113714285D01*
X147047619Y-113809523D01*
X147142857Y-113904761D01*
X147285714Y-113952380D01*
X147380952Y-113952380D01*
X147523809Y-113904761D01*
X147571428Y-113857142D01*
X147571428Y-113523809D01*
X147380952Y-113523809D01*
X148000000Y-113952380D02*
X148000000Y-112952380D01*
X148380952Y-112952380D01*
X148476190Y-113000000D01*
X148523809Y-113047619D01*
X148571428Y-113142857D01*
X148571428Y-113285714D01*
X148523809Y-113380952D01*
X148476190Y-113428571D01*
X148380952Y-113476190D01*
X148000000Y-113476190D01*
X149000000Y-113952380D02*
X149000000Y-112952380D01*
X149666666Y-112952380D02*
X149857142Y-112952380D01*
X149952380Y-113000000D01*
X150047619Y-113095238D01*
X150095238Y-113285714D01*
X150095238Y-113619047D01*
X150047619Y-113809523D01*
X149952380Y-113904761D01*
X149857142Y-113952380D01*
X149666666Y-113952380D01*
X149571428Y-113904761D01*
X149476190Y-113809523D01*
X149428571Y-113619047D01*
X149428571Y-113285714D01*
X149476190Y-113095238D01*
X149571428Y-113000000D01*
X149666666Y-112952380D01*
X150428571Y-112952380D02*
X151047619Y-112952380D01*
X150714285Y-113333333D01*
X150857142Y-113333333D01*
X150952380Y-113380952D01*
X151000000Y-113428571D01*
X151047619Y-113523809D01*
X151047619Y-113761904D01*
X151000000Y-113857142D01*
X150952380Y-113904761D01*
X150857142Y-113952380D01*
X150571428Y-113952380D01*
X150476190Y-113904761D01*
X150428571Y-113857142D01*
X147523809Y-110500000D02*
X147428571Y-110452380D01*
X147285714Y-110452380D01*
X147142857Y-110500000D01*
X147047619Y-110595238D01*
X147000000Y-110690476D01*
X146952380Y-110880952D01*
X146952380Y-111023809D01*
X147000000Y-111214285D01*
X147047619Y-111309523D01*
X147142857Y-111404761D01*
X147285714Y-111452380D01*
X147380952Y-111452380D01*
X147523809Y-111404761D01*
X147571428Y-111357142D01*
X147571428Y-111023809D01*
X147380952Y-111023809D01*
X148000000Y-111452380D02*
X148000000Y-110452380D01*
X148380952Y-110452380D01*
X148476190Y-110500000D01*
X148523809Y-110547619D01*
X148571428Y-110642857D01*
X148571428Y-110785714D01*
X148523809Y-110880952D01*
X148476190Y-110928571D01*
X148380952Y-110976190D01*
X148000000Y-110976190D01*
X149000000Y-111452380D02*
X149000000Y-110452380D01*
X149666666Y-110452380D02*
X149857142Y-110452380D01*
X149952380Y-110500000D01*
X150047619Y-110595238D01*
X150095238Y-110785714D01*
X150095238Y-111119047D01*
X150047619Y-111309523D01*
X149952380Y-111404761D01*
X149857142Y-111452380D01*
X149666666Y-111452380D01*
X149571428Y-111404761D01*
X149476190Y-111309523D01*
X149428571Y-111119047D01*
X149428571Y-110785714D01*
X149476190Y-110595238D01*
X149571428Y-110500000D01*
X149666666Y-110452380D01*
X150476190Y-110547619D02*
X150523809Y-110500000D01*
X150619047Y-110452380D01*
X150857142Y-110452380D01*
X150952380Y-110500000D01*
X151000000Y-110547619D01*
X151047619Y-110642857D01*
X151047619Y-110738095D01*
X151000000Y-110880952D01*
X150428571Y-111452380D01*
X151047619Y-111452380D01*
X147523809Y-108000000D02*
X147428571Y-107952380D01*
X147285714Y-107952380D01*
X147142857Y-108000000D01*
X147047619Y-108095238D01*
X147000000Y-108190476D01*
X146952380Y-108380952D01*
X146952380Y-108523809D01*
X147000000Y-108714285D01*
X147047619Y-108809523D01*
X147142857Y-108904761D01*
X147285714Y-108952380D01*
X147380952Y-108952380D01*
X147523809Y-108904761D01*
X147571428Y-108857142D01*
X147571428Y-108523809D01*
X147380952Y-108523809D01*
X148000000Y-108952380D02*
X148000000Y-107952380D01*
X148380952Y-107952380D01*
X148476190Y-108000000D01*
X148523809Y-108047619D01*
X148571428Y-108142857D01*
X148571428Y-108285714D01*
X148523809Y-108380952D01*
X148476190Y-108428571D01*
X148380952Y-108476190D01*
X148000000Y-108476190D01*
X149000000Y-108952380D02*
X149000000Y-107952380D01*
X149666666Y-107952380D02*
X149857142Y-107952380D01*
X149952380Y-108000000D01*
X150047619Y-108095238D01*
X150095238Y-108285714D01*
X150095238Y-108619047D01*
X150047619Y-108809523D01*
X149952380Y-108904761D01*
X149857142Y-108952380D01*
X149666666Y-108952380D01*
X149571428Y-108904761D01*
X149476190Y-108809523D01*
X149428571Y-108619047D01*
X149428571Y-108285714D01*
X149476190Y-108095238D01*
X149571428Y-108000000D01*
X149666666Y-107952380D01*
X151047619Y-108952380D02*
X150476190Y-108952380D01*
X150761904Y-108952380D02*
X150761904Y-107952380D01*
X150666666Y-108095238D01*
X150571428Y-108190476D01*
X150476190Y-108238095D01*
X201738095Y-128071428D02*
X202500000Y-128071428D01*
X202119047Y-128452380D02*
X202119047Y-127690476D01*
X203500000Y-128452380D02*
X202928571Y-128452380D01*
X203214285Y-128452380D02*
X203214285Y-127452380D01*
X203119047Y-127595238D01*
X203023809Y-127690476D01*
X202928571Y-127738095D01*
X203880952Y-127547619D02*
X203928571Y-127500000D01*
X204023809Y-127452380D01*
X204261904Y-127452380D01*
X204357142Y-127500000D01*
X204404761Y-127547619D01*
X204452380Y-127642857D01*
X204452380Y-127738095D01*
X204404761Y-127880952D01*
X203833333Y-128452380D01*
X204452380Y-128452380D01*
X204738095Y-127452380D02*
X205071428Y-128452380D01*
X205404761Y-127452380D01*
X197666666Y-127452380D02*
X198000000Y-128452380D01*
X198333333Y-127452380D01*
X199238095Y-128357142D02*
X199190476Y-128404761D01*
X199047619Y-128452380D01*
X198952380Y-128452380D01*
X198809523Y-128404761D01*
X198714285Y-128309523D01*
X198666666Y-128214285D01*
X198619047Y-128023809D01*
X198619047Y-127880952D01*
X198666666Y-127690476D01*
X198714285Y-127595238D01*
X198809523Y-127500000D01*
X198952380Y-127452380D01*
X199047619Y-127452380D01*
X199190476Y-127500000D01*
X199238095Y-127547619D01*
X200238095Y-128357142D02*
X200190476Y-128404761D01*
X200047619Y-128452380D01*
X199952380Y-128452380D01*
X199809523Y-128404761D01*
X199714285Y-128309523D01*
X199666666Y-128214285D01*
X199619047Y-128023809D01*
X199619047Y-127880952D01*
X199666666Y-127690476D01*
X199714285Y-127595238D01*
X199809523Y-127500000D01*
X199952380Y-127452380D01*
X200047619Y-127452380D01*
X200190476Y-127500000D01*
X200238095Y-127547619D01*
X192714285Y-127452380D02*
X193047619Y-128452380D01*
X193380952Y-127452380D01*
X193666666Y-128404761D02*
X193809523Y-128452380D01*
X194047619Y-128452380D01*
X194142857Y-128404761D01*
X194190476Y-128357142D01*
X194238095Y-128261904D01*
X194238095Y-128166666D01*
X194190476Y-128071428D01*
X194142857Y-128023809D01*
X194047619Y-127976190D01*
X193857142Y-127928571D01*
X193761904Y-127880952D01*
X193714285Y-127833333D01*
X193666666Y-127738095D01*
X193666666Y-127642857D01*
X193714285Y-127547619D01*
X193761904Y-127500000D01*
X193857142Y-127452380D01*
X194095238Y-127452380D01*
X194238095Y-127500000D01*
X194619047Y-128404761D02*
X194761904Y-128452380D01*
X195000000Y-128452380D01*
X195095238Y-128404761D01*
X195142857Y-128357142D01*
X195190476Y-128261904D01*
X195190476Y-128166666D01*
X195142857Y-128071428D01*
X195095238Y-128023809D01*
X195000000Y-127976190D01*
X194809523Y-127928571D01*
X194714285Y-127880952D01*
X194666666Y-127833333D01*
X194619047Y-127738095D01*
X194619047Y-127642857D01*
X194666666Y-127547619D01*
X194714285Y-127500000D01*
X194809523Y-127452380D01*
X195047619Y-127452380D01*
X195190476Y-127500000D01*
X187571428Y-128452380D02*
X187571428Y-127452380D01*
X187571428Y-127928571D02*
X188142857Y-127928571D01*
X188142857Y-128452380D02*
X188142857Y-127452380D01*
X188619047Y-128452380D02*
X188619047Y-127785714D01*
X188619047Y-127452380D02*
X188571428Y-127500000D01*
X188619047Y-127547619D01*
X188666666Y-127500000D01*
X188619047Y-127452380D01*
X188619047Y-127547619D01*
X189523809Y-127785714D02*
X189523809Y-128595238D01*
X189476190Y-128690476D01*
X189428571Y-128738095D01*
X189333333Y-128785714D01*
X189190476Y-128785714D01*
X189095238Y-128738095D01*
X189523809Y-128404761D02*
X189428571Y-128452380D01*
X189238095Y-128452380D01*
X189142857Y-128404761D01*
X189095238Y-128357142D01*
X189047619Y-128261904D01*
X189047619Y-127976190D01*
X189095238Y-127880952D01*
X189142857Y-127833333D01*
X189238095Y-127785714D01*
X189428571Y-127785714D01*
X189523809Y-127833333D01*
X190000000Y-128452380D02*
X190000000Y-127452380D01*
X190428571Y-128452380D02*
X190428571Y-127928571D01*
X190380952Y-127833333D01*
X190285714Y-127785714D01*
X190142857Y-127785714D01*
X190047619Y-127833333D01*
X190000000Y-127880952D01*
X182428571Y-128452380D02*
X182095238Y-127976190D01*
X181857142Y-128452380D02*
X181857142Y-127452380D01*
X182238095Y-127452380D01*
X182333333Y-127500000D01*
X182380952Y-127547619D01*
X182428571Y-127642857D01*
X182428571Y-127785714D01*
X182380952Y-127880952D01*
X182333333Y-127928571D01*
X182238095Y-127976190D01*
X181857142Y-127976190D01*
X182714285Y-127785714D02*
X183095238Y-127785714D01*
X182857142Y-127452380D02*
X182857142Y-128309523D01*
X182904761Y-128404761D01*
X183000000Y-128452380D01*
X183095238Y-128452380D01*
X183285714Y-127452380D02*
X183857142Y-127452380D01*
X183571428Y-128452380D02*
X183571428Y-127452380D01*
X184619047Y-127785714D02*
X184619047Y-128452380D01*
X184190476Y-127785714D02*
X184190476Y-128309523D01*
X184238095Y-128404761D01*
X184333333Y-128452380D01*
X184476190Y-128452380D01*
X184571428Y-128404761D01*
X184619047Y-128357142D01*
X185095238Y-128452380D02*
X185095238Y-127785714D01*
X185095238Y-127976190D02*
X185142857Y-127880952D01*
X185190476Y-127833333D01*
X185285714Y-127785714D01*
X185380952Y-127785714D01*
X185714285Y-127785714D02*
X185714285Y-128452380D01*
X185714285Y-127880952D02*
X185761904Y-127833333D01*
X185857142Y-127785714D01*
X186000000Y-127785714D01*
X186095238Y-127833333D01*
X186142857Y-127928571D01*
X186142857Y-128452380D01*
X177171428Y-128452380D02*
X176790476Y-128452380D01*
X176790476Y-127452380D01*
X177742857Y-128404761D02*
X177666666Y-128452380D01*
X177514285Y-128452380D01*
X177438095Y-128404761D01*
X177400000Y-128309523D01*
X177400000Y-127928571D01*
X177438095Y-127833333D01*
X177514285Y-127785714D01*
X177666666Y-127785714D01*
X177742857Y-127833333D01*
X177780952Y-127928571D01*
X177780952Y-128023809D01*
X177400000Y-128119047D01*
X178009523Y-127785714D02*
X178314285Y-127785714D01*
X178123809Y-128452380D02*
X178123809Y-127595238D01*
X178161904Y-127500000D01*
X178238095Y-127452380D01*
X178314285Y-127452380D01*
X178466666Y-127785714D02*
X178771428Y-127785714D01*
X178580952Y-127452380D02*
X178580952Y-128309523D01*
X178619047Y-128404761D01*
X178695238Y-128452380D01*
X178771428Y-128452380D01*
X178923809Y-127452380D02*
X179380952Y-127452380D01*
X179152380Y-128452380D02*
X179152380Y-127452380D01*
X179990476Y-127785714D02*
X179990476Y-128452380D01*
X179647619Y-127785714D02*
X179647619Y-128309523D01*
X179685714Y-128404761D01*
X179761904Y-128452380D01*
X179876190Y-128452380D01*
X179952380Y-128404761D01*
X179990476Y-128357142D01*
X180371428Y-128452380D02*
X180371428Y-127785714D01*
X180371428Y-127976190D02*
X180409523Y-127880952D01*
X180447619Y-127833333D01*
X180523809Y-127785714D01*
X180600000Y-127785714D01*
X180866666Y-127785714D02*
X180866666Y-128452380D01*
X180866666Y-127880952D02*
X180904761Y-127833333D01*
X180980952Y-127785714D01*
X181095238Y-127785714D01*
X181171428Y-127833333D01*
X181209523Y-127928571D01*
X181209523Y-128452380D01*
X172928571Y-127452380D02*
X173119047Y-127452380D01*
X173214285Y-127500000D01*
X173309523Y-127595238D01*
X173357142Y-127785714D01*
X173357142Y-128119047D01*
X173309523Y-128309523D01*
X173214285Y-128404761D01*
X173119047Y-128452380D01*
X172928571Y-128452380D01*
X172833333Y-128404761D01*
X172738095Y-128309523D01*
X172690476Y-128119047D01*
X172690476Y-127785714D01*
X172738095Y-127595238D01*
X172833333Y-127500000D01*
X172928571Y-127452380D01*
X173785714Y-128357142D02*
X173833333Y-128404761D01*
X173785714Y-128452380D01*
X173738095Y-128404761D01*
X173785714Y-128357142D01*
X173785714Y-128452380D01*
X174261904Y-128452380D02*
X174261904Y-127452380D01*
X174500000Y-127452380D01*
X174642857Y-127500000D01*
X174738095Y-127595238D01*
X174785714Y-127690476D01*
X174833333Y-127880952D01*
X174833333Y-128023809D01*
X174785714Y-128214285D01*
X174738095Y-128309523D01*
X174642857Y-128404761D01*
X174500000Y-128452380D01*
X174261904Y-128452380D01*
X175261904Y-128357142D02*
X175309523Y-128404761D01*
X175261904Y-128452380D01*
X175214285Y-128404761D01*
X175261904Y-128357142D01*
X175261904Y-128452380D01*
X166761904Y-128452380D02*
X166285714Y-128452380D01*
X166285714Y-127452380D01*
X167238095Y-128452380D02*
X167142857Y-128404761D01*
X167095238Y-128357142D01*
X167047619Y-128261904D01*
X167047619Y-127976190D01*
X167095238Y-127880952D01*
X167142857Y-127833333D01*
X167238095Y-127785714D01*
X167380952Y-127785714D01*
X167476190Y-127833333D01*
X167523809Y-127880952D01*
X167571428Y-127976190D01*
X167571428Y-128261904D01*
X167523809Y-128357142D01*
X167476190Y-128404761D01*
X167380952Y-128452380D01*
X167238095Y-128452380D01*
X167904761Y-127785714D02*
X168095238Y-128452380D01*
X168285714Y-127976190D01*
X168476190Y-128452380D01*
X168666666Y-127785714D01*
X169380952Y-127928571D02*
X169047619Y-127928571D01*
X169047619Y-128452380D02*
X169047619Y-127452380D01*
X169523809Y-127452380D01*
X170333333Y-127785714D02*
X170333333Y-128452380D01*
X169904761Y-127785714D02*
X169904761Y-128309523D01*
X169952380Y-128404761D01*
X170047619Y-128452380D01*
X170190476Y-128452380D01*
X170285714Y-128404761D01*
X170333333Y-128357142D01*
X171190476Y-128404761D02*
X171095238Y-128452380D01*
X170904761Y-128452380D01*
X170809523Y-128404761D01*
X170761904Y-128309523D01*
X170761904Y-127928571D01*
X170809523Y-127833333D01*
X170904761Y-127785714D01*
X171095238Y-127785714D01*
X171190476Y-127833333D01*
X171238095Y-127928571D01*
X171238095Y-128023809D01*
X170761904Y-128119047D01*
X171809523Y-128452380D02*
X171714285Y-128404761D01*
X171666666Y-128309523D01*
X171666666Y-127452380D01*
X162166666Y-127452380D02*
X162738095Y-127452380D01*
X162452380Y-128452380D02*
X162452380Y-127452380D01*
X163452380Y-128404761D02*
X163357142Y-128452380D01*
X163166666Y-128452380D01*
X163071428Y-128404761D01*
X163023809Y-128309523D01*
X163023809Y-127928571D01*
X163071428Y-127833333D01*
X163166666Y-127785714D01*
X163357142Y-127785714D01*
X163452380Y-127833333D01*
X163500000Y-127928571D01*
X163500000Y-128023809D01*
X163023809Y-128119047D01*
X163928571Y-128452380D02*
X163928571Y-127785714D01*
X163928571Y-127880952D02*
X163976190Y-127833333D01*
X164071428Y-127785714D01*
X164214285Y-127785714D01*
X164309523Y-127833333D01*
X164357142Y-127928571D01*
X164357142Y-128452380D01*
X164357142Y-127928571D02*
X164404761Y-127833333D01*
X164500000Y-127785714D01*
X164642857Y-127785714D01*
X164738095Y-127833333D01*
X164785714Y-127928571D01*
X164785714Y-128452380D01*
X165261904Y-127785714D02*
X165261904Y-128785714D01*
X165261904Y-127833333D02*
X165357142Y-127785714D01*
X165547619Y-127785714D01*
X165642857Y-127833333D01*
X165690476Y-127880952D01*
X165738095Y-127976190D01*
X165738095Y-128261904D01*
X165690476Y-128357142D01*
X165642857Y-128404761D01*
X165547619Y-128452380D01*
X165357142Y-128452380D01*
X165261904Y-128404761D01*
X158404761Y-127452380D02*
X158595238Y-127452380D01*
X158690476Y-127500000D01*
X158785714Y-127595238D01*
X158833333Y-127785714D01*
X158833333Y-128119047D01*
X158785714Y-128309523D01*
X158690476Y-128404761D01*
X158595238Y-128452380D01*
X158404761Y-128452380D01*
X158309523Y-128404761D01*
X158214285Y-128309523D01*
X158166666Y-128119047D01*
X158166666Y-127785714D01*
X158214285Y-127595238D01*
X158309523Y-127500000D01*
X158404761Y-127452380D01*
X159261904Y-128452380D02*
X159261904Y-127785714D01*
X159261904Y-127452380D02*
X159214285Y-127500000D01*
X159261904Y-127547619D01*
X159309523Y-127500000D01*
X159261904Y-127452380D01*
X159261904Y-127547619D01*
X159880952Y-128452380D02*
X159785714Y-128404761D01*
X159738095Y-128309523D01*
X159738095Y-127452380D01*
X153000000Y-127928571D02*
X152666666Y-127928571D01*
X152666666Y-128452380D02*
X152666666Y-127452380D01*
X153142857Y-127452380D01*
X153952380Y-127785714D02*
X153952380Y-128452380D01*
X153523809Y-127785714D02*
X153523809Y-128309523D01*
X153571428Y-128404761D01*
X153666666Y-128452380D01*
X153809523Y-128452380D01*
X153904761Y-128404761D01*
X153952380Y-128357142D01*
X154809523Y-128404761D02*
X154714285Y-128452380D01*
X154523809Y-128452380D01*
X154428571Y-128404761D01*
X154380952Y-128309523D01*
X154380952Y-127928571D01*
X154428571Y-127833333D01*
X154523809Y-127785714D01*
X154714285Y-127785714D01*
X154809523Y-127833333D01*
X154857142Y-127928571D01*
X154857142Y-128023809D01*
X154380952Y-128119047D01*
X155428571Y-128452380D02*
X155333333Y-128404761D01*
X155285714Y-128309523D01*
X155285714Y-127452380D01*
X146023809Y-128452380D02*
X146023809Y-127452380D01*
X146595238Y-128452380D01*
X146595238Y-127452380D01*
X147452380Y-128404761D02*
X147357142Y-128452380D01*
X147166666Y-128452380D01*
X147071428Y-128404761D01*
X147023809Y-128309523D01*
X147023809Y-127928571D01*
X147071428Y-127833333D01*
X147166666Y-127785714D01*
X147357142Y-127785714D01*
X147452380Y-127833333D01*
X147500000Y-127928571D01*
X147500000Y-128023809D01*
X147023809Y-128119047D01*
X148357142Y-127785714D02*
X148357142Y-128452380D01*
X147928571Y-127785714D02*
X147928571Y-128309523D01*
X147976190Y-128404761D01*
X148071428Y-128452380D01*
X148214285Y-128452380D01*
X148309523Y-128404761D01*
X148357142Y-128357142D01*
X148690476Y-127785714D02*
X149071428Y-127785714D01*
X148833333Y-127452380D02*
X148833333Y-128309523D01*
X148880952Y-128404761D01*
X148976190Y-128452380D01*
X149071428Y-128452380D01*
X149404761Y-128452380D02*
X149404761Y-127785714D01*
X149404761Y-127976190D02*
X149452380Y-127880952D01*
X149500000Y-127833333D01*
X149595238Y-127785714D01*
X149690476Y-127785714D01*
X150452380Y-128452380D02*
X150452380Y-127928571D01*
X150404761Y-127833333D01*
X150309523Y-127785714D01*
X150119047Y-127785714D01*
X150023809Y-127833333D01*
X150452380Y-128404761D02*
X150357142Y-128452380D01*
X150119047Y-128452380D01*
X150023809Y-128404761D01*
X149976190Y-128309523D01*
X149976190Y-128214285D01*
X150023809Y-128119047D01*
X150119047Y-128071428D01*
X150357142Y-128071428D01*
X150452380Y-128023809D01*
X151071428Y-128452380D02*
X150976190Y-128404761D01*
X150928571Y-128309523D01*
X150928571Y-127452380D01*
D12*
X149786000Y-138000000D02*
G75*
G03X149786000Y-138000000I-2286000J0D01*
G01*
X243286000Y-138000000D02*
G75*
G03X243286000Y-138000000I-2286000J0D01*
G01*
X243286000Y-70500000D02*
G75*
G03X243286000Y-70500000I-2286000J0D01*
G01*
X149786000Y-70500000D02*
G75*
G03X149786000Y-70500000I-2286000J0D01*
G01*
X152190000Y-77020000D02*
X152190000Y-84640000D01*
X151430000Y-76260000D02*
X152190000Y-77020000D01*
X143810000Y-77020000D02*
X144570000Y-76260000D01*
X143810000Y-84640000D02*
X143810000Y-77020000D01*
X152190000Y-84640000D02*
X149510000Y-84640000D01*
X143810000Y-84640000D02*
X146490000Y-84640000D01*
X151430000Y-76260000D02*
X149510000Y-76260000D01*
X144570000Y-76260000D02*
X146490000Y-76260000D01*
X187430000Y-91640000D02*
X185510000Y-91640000D01*
X180570000Y-91640000D02*
X182490000Y-91640000D01*
X188190000Y-83260000D02*
X185510000Y-83260000D01*
X179810000Y-83260000D02*
X182490000Y-83260000D01*
X188190000Y-83260000D02*
X188190000Y-90880000D01*
X188190000Y-90880000D02*
X187430000Y-91640000D01*
X180570000Y-91640000D02*
X179810000Y-90880000D01*
X179810000Y-90880000D02*
X179810000Y-83260000D01*
X158850000Y-91700000D02*
X158850000Y-92700000D01*
X160550000Y-92700000D02*
X160550000Y-91700000D01*
X148500000Y-103350000D02*
X149500000Y-103350000D01*
X149500000Y-101650000D02*
X148500000Y-101650000D01*
X149500000Y-104650000D02*
X148500000Y-104650000D01*
X148500000Y-106350000D02*
X149500000Y-106350000D01*
X154400000Y-114550000D02*
X155400000Y-114550000D01*
X155400000Y-112850000D02*
X154400000Y-112850000D01*
X168150000Y-123000000D02*
X168150000Y-124000000D01*
X169850000Y-124000000D02*
X169850000Y-123000000D01*
X184670000Y-109170000D02*
X186000000Y-109170000D01*
X184670000Y-110500000D02*
X184670000Y-109170000D01*
X184670000Y-111770000D02*
X187330000Y-111770000D01*
X187330000Y-111770000D02*
X187330000Y-116910000D01*
X184670000Y-111770000D02*
X184670000Y-116910000D01*
X184670000Y-116910000D02*
X187330000Y-116910000D01*
X184670000Y-105410000D02*
X187330000Y-105410000D01*
X184670000Y-100270000D02*
X184670000Y-105410000D01*
X187330000Y-100270000D02*
X187330000Y-105410000D01*
X184670000Y-100270000D02*
X187330000Y-100270000D01*
X184670000Y-99000000D02*
X184670000Y-97670000D01*
X184670000Y-97670000D02*
X186000000Y-97670000D01*
X194230000Y-109169999D02*
X191570000Y-109169999D01*
X194230000Y-114309999D02*
X194230000Y-109169999D01*
X191570000Y-114309999D02*
X191570000Y-109169999D01*
X194230000Y-114309999D02*
X191570000Y-114309999D01*
X194230000Y-115579999D02*
X194230000Y-116909999D01*
X194230000Y-116909999D02*
X192900000Y-116909999D01*
X154470000Y-86670000D02*
X154470000Y-89330000D01*
X154530000Y-86670000D02*
X154470000Y-86670000D01*
X154530000Y-89330000D02*
X154470000Y-89330000D01*
X154530000Y-86670000D02*
X154530000Y-89330000D01*
X155800000Y-86670000D02*
X157130000Y-86670000D01*
X157130000Y-86670000D02*
X157130000Y-88000000D01*
X183370000Y-109830000D02*
X183370000Y-107170000D01*
X180770000Y-109830000D02*
X183370000Y-109830000D01*
X180770000Y-107170000D02*
X183370000Y-107170000D01*
X180770000Y-109830000D02*
X180770000Y-107170000D01*
X179500000Y-109830000D02*
X178170000Y-109830000D01*
X178170000Y-109830000D02*
X178170000Y-108500000D01*
X192170000Y-97670000D02*
X193500000Y-97670000D01*
X192170000Y-99000000D02*
X192170000Y-97670000D01*
X192170000Y-100270000D02*
X194830000Y-100270000D01*
X194830000Y-100270000D02*
X194830000Y-105410000D01*
X192170000Y-100270000D02*
X192170000Y-105410000D01*
X192170000Y-105410000D02*
X194830000Y-105410000D01*
X177050000Y-91500000D02*
X177050000Y-93200000D01*
X177050000Y-93200000D02*
X170450000Y-93200000D01*
X170450000Y-93200000D02*
X170450000Y-91500000D01*
X170450000Y-88500000D02*
X170450000Y-86800000D01*
X170450000Y-86800000D02*
X177050000Y-86800000D01*
X177050000Y-86800000D02*
X177050000Y-88500000D01*
X167580000Y-91650000D02*
X167580000Y-92850000D01*
X165820000Y-92850000D02*
X165820000Y-91650000D01*
X164080000Y-91550000D02*
X164080000Y-92750000D01*
X162320000Y-92750000D02*
X162320000Y-91550000D01*
X174620000Y-100150000D02*
X174620000Y-98950000D01*
X176380000Y-98950000D02*
X176380000Y-100150000D01*
X171120000Y-100150000D02*
X171120000Y-98950000D01*
X172880000Y-98950000D02*
X172880000Y-100150000D01*
X152150000Y-107300000D02*
X157900000Y-107300000D01*
X157900000Y-107300000D02*
X157900000Y-103700000D01*
X157900000Y-103700000D02*
X152150000Y-103700000D01*
X169350000Y-84900000D02*
X172650000Y-84900000D01*
X172650000Y-84900000D02*
X172650000Y-79500000D01*
X169350000Y-84900000D02*
X169350000Y-79500000D01*
D13*
X178325800Y-102000000D02*
G75*
G03X178325800Y-102000000I-125800J0D01*
G01*
D14*
X178500000Y-101700000D02*
X178500000Y-101500000D01*
X179100000Y-101500000D02*
X178500000Y-101500000D01*
X180900000Y-101500000D02*
X181500000Y-101500000D01*
X181500000Y-101500000D02*
X181500000Y-101700000D01*
X180800000Y-104500000D02*
X181500000Y-104500000D01*
X181500000Y-104500000D02*
X181500000Y-104300000D01*
X178500000Y-104300000D02*
X178500000Y-104500000D01*
X178500000Y-104500000D02*
X179200000Y-104500000D01*
D12*
X159375001Y-76600000D02*
X157875001Y-76600000D01*
X157875001Y-76600000D02*
X157875001Y-77550000D01*
X157875001Y-77550000D02*
X152750001Y-77550000D01*
X159375001Y-87000000D02*
X157875001Y-87000000D01*
X157875001Y-87000000D02*
X157875001Y-86050000D01*
X157875001Y-86050000D02*
X156775001Y-86050000D01*
D10*
X161075000Y-107525000D02*
X161075000Y-108525000D01*
X171425000Y-107525000D02*
X171425000Y-108600000D01*
X171425000Y-117875000D02*
X171425000Y-116800000D01*
X161075000Y-117875000D02*
X161075000Y-116800000D01*
X161075000Y-107525000D02*
X162150000Y-107525000D01*
X161075000Y-117875000D02*
X162150000Y-117875000D01*
X171425000Y-117875000D02*
X170350000Y-117875000D01*
X171425000Y-107525000D02*
X170350000Y-107525000D01*
X161075000Y-108525000D02*
X160050000Y-108525000D01*
D12*
X176050000Y-75000000D02*
X175050000Y-75000000D01*
X175050000Y-76700000D02*
X176050000Y-76700000D01*
X175100000Y-79550000D02*
X176100000Y-79550000D01*
X176100000Y-77850000D02*
X175100000Y-77850000D01*
X207350000Y-79500000D02*
X207350000Y-78500000D01*
X205650000Y-78500000D02*
X205650000Y-79500000D01*
X192239999Y-74175001D02*
X192239999Y-75175001D01*
X193939999Y-75175001D02*
X193939999Y-74175001D01*
X218650000Y-77500000D02*
X218650000Y-78500000D01*
X220350000Y-78500000D02*
X220350000Y-77500000D01*
X191119999Y-75175001D02*
X191119999Y-74175001D01*
X189419999Y-74175001D02*
X189419999Y-75175001D01*
X188670000Y-81330000D02*
X191330000Y-81330000D01*
X188670000Y-81270000D02*
X188670000Y-81330000D01*
X191330000Y-81270000D02*
X191330000Y-81330000D01*
X188670000Y-81270000D02*
X191330000Y-81270000D01*
X188670000Y-80000000D02*
X188670000Y-78670000D01*
X188670000Y-78670000D02*
X190000000Y-78670000D01*
X207380000Y-74350000D02*
X207380000Y-75550000D01*
X205620000Y-75550000D02*
X205620000Y-74350000D01*
X232240444Y-141438071D02*
G75*
G03X213250000Y-141530000I-9440444J-11361929D01*
G01*
X232278249Y-141471751D02*
G75*
G03X232950000Y-141750000I671751J671751D01*
G01*
X213321751Y-141471751D02*
G75*
G02X212650000Y-141750000I-671751J671751D01*
G01*
X209950000Y-139050000D02*
G75*
G03X212650000Y-141750000I2700000J0D01*
G01*
X235650000Y-139050000D02*
G75*
G02X232950000Y-141750000I-2700000J0D01*
G01*
X235650000Y-134900000D02*
X235650000Y-139100000D01*
X209950000Y-134900000D02*
X209950000Y-139100000D01*
X235650000Y-125400000D02*
X235650000Y-128700000D01*
X226750000Y-119550000D02*
X235650000Y-125400000D01*
X226750000Y-118750000D02*
X226750000Y-119550000D01*
X218850000Y-118750000D02*
X226750000Y-118750000D01*
X218850000Y-118750000D02*
X218850000Y-119550000D01*
X218850000Y-119550000D02*
X209950000Y-125400000D01*
X209950000Y-125400000D02*
X209950000Y-128700000D01*
X200570000Y-73550000D02*
X200570000Y-75650000D01*
X199430000Y-73550000D02*
X199430000Y-75650000D01*
X200570000Y-73550000D02*
X199430000Y-73550000D01*
X204070000Y-73550000D02*
X202930000Y-73550000D01*
X202930000Y-73550000D02*
X202930000Y-75650000D01*
X204070000Y-73550000D02*
X204070000Y-75650000D01*
X192261288Y-121366648D02*
G75*
G02X193050000Y-121170000I788712J-1483352D01*
G01*
X191566047Y-123639088D02*
G75*
G02X191566000Y-122061000I1483953J789088D01*
G01*
X193839088Y-124333953D02*
G75*
G02X192261000Y-124334000I-789088J1483953D01*
G01*
X194533953Y-122060912D02*
G75*
G02X194534000Y-123639000I-1483953J-789088D01*
G01*
X193020617Y-121169550D02*
G75*
G02X193839000Y-121366000I29383J-1680450D01*
G01*
X193950000Y-125850000D02*
G75*
G03X193950000Y-125850000I-900000J0D01*
G01*
X189730000Y-122850000D02*
G75*
G03X189730000Y-122850000I-1680000J0D01*
G01*
X188950000Y-125850000D02*
G75*
G03X188950000Y-125850000I-900000J0D01*
G01*
X195610000Y-120350000D02*
X185490000Y-120350000D01*
X195610000Y-127910000D02*
X195610000Y-118790000D01*
X195610000Y-118790000D02*
X185490000Y-118790000D01*
X185490000Y-118790000D02*
X185490000Y-127910000D01*
X185490000Y-127910000D02*
X195610000Y-127910000D01*
X186775000Y-123919000D02*
X186869000Y-123826000D01*
X189060000Y-121634000D02*
X189119000Y-121576000D01*
X186980000Y-124125000D02*
X187039000Y-124066000D01*
X189230000Y-121874000D02*
X189324000Y-121781000D01*
X195850000Y-120290000D02*
X195850000Y-118550000D01*
X195850000Y-118550000D02*
X194350000Y-118550000D01*
X202620000Y-79650000D02*
X202620000Y-78450000D01*
X204380000Y-78450000D02*
X204380000Y-79650000D01*
D10*
X183075000Y-76675000D02*
X183075000Y-76850000D01*
X186425000Y-76675000D02*
X186425000Y-76925000D01*
X186425000Y-80025000D02*
X186425000Y-79775000D01*
X183075000Y-80025000D02*
X183075000Y-79775000D01*
X183075000Y-76675000D02*
X186425000Y-76675000D01*
X183075000Y-80025000D02*
X186425000Y-80025000D01*
X183075000Y-76850000D02*
X181825000Y-76850000D01*
X210600000Y-75350000D02*
X214450000Y-75350000D01*
X210600000Y-75350000D02*
X210600000Y-80150000D01*
X214450000Y-75350000D02*
X214450000Y-80150000D01*
X214450000Y-80150000D02*
X210600000Y-80150000D01*
X210400000Y-74850000D02*
G75*
G03X210400000Y-74850000I-150000J0D01*
G01*
D12*
X179975000Y-78475000D02*
X179975000Y-77125000D01*
X178225000Y-78475000D02*
X178225000Y-77125000D01*
X160603922Y-104490000D02*
X161121078Y-104490000D01*
X160603922Y-105910000D02*
X161121078Y-105910000D01*
X155121078Y-119910000D02*
X154603922Y-119910000D01*
X155121078Y-118490000D02*
X154603922Y-118490000D01*
X164210000Y-104596078D02*
X164210000Y-104078922D01*
X162790000Y-104596078D02*
X162790000Y-104078922D01*
X155121077Y-116490000D02*
X154603921Y-116490000D01*
X155121077Y-117910000D02*
X154603921Y-117910000D01*
X172078922Y-105590000D02*
X172596078Y-105590000D01*
X172078922Y-107010000D02*
X172596078Y-107010000D01*
X171790000Y-123303922D02*
X171790000Y-123821078D01*
X173210000Y-123303922D02*
X173210000Y-123821078D01*
X163910000Y-121103921D02*
X163910000Y-121621077D01*
X162490000Y-121103921D02*
X162490000Y-121621077D01*
X172078922Y-104010000D02*
X172596078Y-104010000D01*
X172078922Y-102590000D02*
X172596078Y-102590000D01*
X160578922Y-102490000D02*
X161096078Y-102490000D01*
X160578922Y-103910000D02*
X161096078Y-103910000D01*
X160778922Y-101910000D02*
X161296078Y-101910000D01*
X160778922Y-100490000D02*
X161296078Y-100490000D01*
X192735000Y-86287501D02*
X192735000Y-84002501D01*
X192735000Y-84002501D02*
X191265000Y-84002501D01*
X191265000Y-84002501D02*
X191265000Y-86287501D01*
X144270000Y-107210000D02*
X146930000Y-107210000D01*
X144270000Y-89370000D02*
X144270000Y-107210000D01*
X146930000Y-89370000D02*
X146930000Y-107210000D01*
X144270000Y-89370000D02*
X146930000Y-89370000D01*
X144270000Y-88100000D02*
X144270000Y-86770000D01*
X144270000Y-86770000D02*
X145600000Y-86770000D01*
X154975279Y-115910000D02*
X154649721Y-115910000D01*
X154975279Y-114890000D02*
X154649721Y-114890000D01*
X191490000Y-89250280D02*
X191490000Y-88924722D01*
X192510000Y-89250280D02*
X192510000Y-88924722D01*
X156600000Y-102900000D02*
X159000000Y-102900000D01*
X159000000Y-102900000D02*
X159000000Y-101300000D01*
X159000000Y-101300000D02*
X156600000Y-101300000D01*
X178903922Y-94090000D02*
X179421078Y-94090000D01*
X178903922Y-95510000D02*
X179421078Y-95510000D01*
X178878922Y-98510000D02*
X179396078Y-98510000D01*
X178878922Y-97090000D02*
X179396078Y-97090000D01*
X198511288Y-129416648D02*
G75*
G02X199300000Y-129220000I788712J-1483352D01*
G01*
X197816047Y-131689088D02*
G75*
G02X197816000Y-130111000I1483953J789088D01*
G01*
X200089088Y-132383953D02*
G75*
G02X198511000Y-132384000I-789088J1483953D01*
G01*
X200783953Y-130110912D02*
G75*
G02X200784000Y-131689000I-1483953J-789088D01*
G01*
X199270617Y-129219550D02*
G75*
G02X200089000Y-129416000I29383J-1680450D01*
G01*
X199850000Y-133900000D02*
G75*
G03X199850000Y-133900000I-550000J0D01*
G01*
X195980000Y-130900000D02*
G75*
G03X195980000Y-130900000I-1680000J0D01*
G01*
X194850000Y-133900000D02*
G75*
G03X194850000Y-133900000I-550000J0D01*
G01*
X190980000Y-130900000D02*
G75*
G03X190980000Y-130900000I-1680000J0D01*
G01*
X189850000Y-133900000D02*
G75*
G03X189850000Y-133900000I-550000J0D01*
G01*
X185980000Y-130900000D02*
G75*
G03X185980000Y-130900000I-1680000J0D01*
G01*
X184850000Y-133900000D02*
G75*
G03X184850000Y-133900000I-550000J0D01*
G01*
X180980000Y-130900000D02*
G75*
G03X180980000Y-130900000I-1680000J0D01*
G01*
X179850000Y-133900000D02*
G75*
G03X179850000Y-133900000I-550000J0D01*
G01*
X175980000Y-130900000D02*
G75*
G03X175980000Y-130900000I-1680000J0D01*
G01*
X174850000Y-133900000D02*
G75*
G03X174850000Y-133900000I-550000J0D01*
G01*
X170980000Y-130900000D02*
G75*
G03X170980000Y-130900000I-1680000J0D01*
G01*
X169850000Y-133900000D02*
G75*
G03X169850000Y-133900000I-550000J0D01*
G01*
X165980000Y-130900000D02*
G75*
G03X165980000Y-130900000I-1680000J0D01*
G01*
X164850000Y-133900000D02*
G75*
G03X164850000Y-133900000I-550000J0D01*
G01*
X160980000Y-130900000D02*
G75*
G03X160980000Y-130900000I-1680000J0D01*
G01*
X159850000Y-133900000D02*
G75*
G03X159850000Y-133900000I-550000J0D01*
G01*
X155980000Y-130900000D02*
G75*
G03X155980000Y-130900000I-1680000J0D01*
G01*
X154850000Y-133900000D02*
G75*
G03X154850000Y-133900000I-550000J0D01*
G01*
X150980000Y-130900000D02*
G75*
G03X150980000Y-130900000I-1680000J0D01*
G01*
X149850000Y-133900000D02*
G75*
G03X149850000Y-133900000I-550000J0D01*
G01*
X201860000Y-128000000D02*
X146740000Y-128000000D01*
X201860000Y-128600000D02*
X146740000Y-128600000D01*
X201860000Y-133300000D02*
X146740000Y-133300000D01*
X201860000Y-135060000D02*
X146740000Y-135060000D01*
X201860000Y-127339000D02*
X146740000Y-127339000D01*
X201860000Y-135060000D02*
X201860000Y-127339000D01*
X146740000Y-135060000D02*
X146740000Y-127339000D01*
X193025000Y-131969000D02*
X193119000Y-131876000D01*
X195310000Y-129684000D02*
X195369000Y-129626000D01*
X193230000Y-132175000D02*
X193289000Y-132116000D01*
X195480000Y-129924000D02*
X195574000Y-129831000D01*
X188025000Y-131969000D02*
X188119000Y-131876000D01*
X190310000Y-129684000D02*
X190369000Y-129626000D01*
X188230000Y-132175000D02*
X188289000Y-132116000D01*
X190480000Y-129924000D02*
X190574000Y-129831000D01*
X183025000Y-131969000D02*
X183119000Y-131876000D01*
X185310000Y-129684000D02*
X185369000Y-129626000D01*
X183230000Y-132175000D02*
X183289000Y-132116000D01*
X185480000Y-129924000D02*
X185574000Y-129831000D01*
X178025000Y-131969000D02*
X178119000Y-131876000D01*
X180310000Y-129684000D02*
X180369000Y-129626000D01*
X178230000Y-132175000D02*
X178289000Y-132116000D01*
X180480000Y-129924000D02*
X180574000Y-129831000D01*
X173025000Y-131969000D02*
X173119000Y-131876000D01*
X175310000Y-129684000D02*
X175369000Y-129626000D01*
X173230000Y-132175000D02*
X173289000Y-132116000D01*
X175480000Y-129924000D02*
X175574000Y-129831000D01*
X168025000Y-131969000D02*
X168119000Y-131876000D01*
X170310000Y-129684000D02*
X170369000Y-129626000D01*
X168230000Y-132175000D02*
X168289000Y-132116000D01*
X170480000Y-129924000D02*
X170574000Y-129831000D01*
X163025000Y-131969000D02*
X163119000Y-131876000D01*
X165310000Y-129684000D02*
X165369000Y-129626000D01*
X163230000Y-132175000D02*
X163289000Y-132116000D01*
X165480000Y-129924000D02*
X165574000Y-129831000D01*
X158025000Y-131969000D02*
X158119000Y-131876000D01*
X160310000Y-129684000D02*
X160369000Y-129626000D01*
X158230000Y-132175000D02*
X158289000Y-132116000D01*
X160480000Y-129924000D02*
X160574000Y-129831000D01*
X153025000Y-131969000D02*
X153119000Y-131876000D01*
X155310000Y-129684000D02*
X155369000Y-129626000D01*
X153230000Y-132175000D02*
X153289000Y-132116000D01*
X155480000Y-129924000D02*
X155574000Y-129831000D01*
X148025000Y-131969000D02*
X148119000Y-131876000D01*
X150310000Y-129684000D02*
X150369000Y-129626000D01*
X148230000Y-132175000D02*
X148289000Y-132116000D01*
X150480000Y-129924000D02*
X150574000Y-129831000D01*
X202100000Y-127940000D02*
X202100000Y-127100000D01*
X202100000Y-127100000D02*
X201500000Y-127100000D01*
X146930000Y-123570000D02*
X145600000Y-123570000D01*
X146930000Y-122240000D02*
X146930000Y-123570000D01*
X146930000Y-120970000D02*
X144270000Y-120970000D01*
X144270000Y-120970000D02*
X144270000Y-108210000D01*
X146930000Y-120970000D02*
X146930000Y-108210000D01*
X146930000Y-108210000D02*
X144270000Y-108210000D01*
X165530000Y-127430000D02*
X165530000Y-124770000D01*
X152770000Y-127430000D02*
X165530000Y-127430000D01*
X152770000Y-124770000D02*
X165530000Y-124770000D01*
X152770000Y-127430000D02*
X152770000Y-124770000D01*
X151500000Y-127430000D02*
X150170000Y-127430000D01*
X150170000Y-127430000D02*
X150170000Y-126100000D01*
X154488712Y-73283352D02*
G75*
G02X153700000Y-73480000I-788712J1483352D01*
G01*
X155183953Y-71010912D02*
G75*
G02X155184000Y-72589000I-1483953J-789088D01*
G01*
X152910912Y-70316047D02*
G75*
G02X154489000Y-70316000I789088J-1483953D01*
G01*
X152216047Y-72589088D02*
G75*
G02X152216000Y-71011000I1483953J789088D01*
G01*
X153729383Y-73480450D02*
G75*
G02X152911000Y-73284000I-29383J1680450D01*
G01*
X154250000Y-68800000D02*
G75*
G03X154250000Y-68800000I-550000J0D01*
G01*
X160380000Y-71800000D02*
G75*
G03X160380000Y-71800000I-1680000J0D01*
G01*
X159250000Y-68800000D02*
G75*
G03X159250000Y-68800000I-550000J0D01*
G01*
X151140000Y-74700000D02*
X161260000Y-74700000D01*
X151140000Y-74100000D02*
X161260000Y-74100000D01*
X151140000Y-69400000D02*
X161260000Y-69400000D01*
X151140000Y-67640000D02*
X161260000Y-67640000D01*
X151140000Y-75361000D02*
X161260000Y-75361000D01*
X151140000Y-67640000D02*
X151140000Y-75361000D01*
X161260000Y-67640000D02*
X161260000Y-75361000D01*
X159975000Y-70731000D02*
X159881000Y-70824000D01*
X157690000Y-73016000D02*
X157631000Y-73074000D01*
X159770000Y-70525000D02*
X159711000Y-70584000D01*
X157520000Y-72776000D02*
X157426000Y-72869000D01*
X150900000Y-74760000D02*
X150900000Y-75600000D01*
X150900000Y-75600000D02*
X151500000Y-75600000D01*
D10*
X142907142Y-80616666D02*
X142954761Y-80664285D01*
X143002380Y-80807142D01*
X143002380Y-80902380D01*
X142954761Y-81045238D01*
X142859523Y-81140476D01*
X142764285Y-81188095D01*
X142573809Y-81235714D01*
X142430952Y-81235714D01*
X142240476Y-81188095D01*
X142145238Y-81140476D01*
X142050000Y-81045238D01*
X142002380Y-80902380D01*
X142002380Y-80807142D01*
X142050000Y-80664285D01*
X142097619Y-80616666D01*
X143002380Y-79664285D02*
X143002380Y-80235714D01*
X143002380Y-79950000D02*
X142002380Y-79950000D01*
X142145238Y-80045238D01*
X142240476Y-80140476D01*
X142288095Y-80235714D01*
X144161428Y-76050952D02*
X144161428Y-75289047D01*
X144542380Y-75670000D02*
X143780476Y-75670000D01*
X189807142Y-88092857D02*
X189854761Y-88140476D01*
X189902380Y-88283333D01*
X189902380Y-88378571D01*
X189854761Y-88521428D01*
X189759523Y-88616666D01*
X189664285Y-88664285D01*
X189473809Y-88711904D01*
X189330952Y-88711904D01*
X189140476Y-88664285D01*
X189045238Y-88616666D01*
X188950000Y-88521428D01*
X188902380Y-88378571D01*
X188902380Y-88283333D01*
X188950000Y-88140476D01*
X188997619Y-88092857D01*
X189902380Y-87140476D02*
X189902380Y-87711904D01*
X189902380Y-87426190D02*
X188902380Y-87426190D01*
X189045238Y-87521428D01*
X189140476Y-87616666D01*
X189188095Y-87711904D01*
X189330952Y-86569047D02*
X189283333Y-86664285D01*
X189235714Y-86711904D01*
X189140476Y-86759523D01*
X189092857Y-86759523D01*
X188997619Y-86711904D01*
X188950000Y-86664285D01*
X188902380Y-86569047D01*
X188902380Y-86378571D01*
X188950000Y-86283333D01*
X188997619Y-86235714D01*
X189092857Y-86188095D01*
X189140476Y-86188095D01*
X189235714Y-86235714D01*
X189283333Y-86283333D01*
X189330952Y-86378571D01*
X189330952Y-86569047D01*
X189378571Y-86664285D01*
X189426190Y-86711904D01*
X189521428Y-86759523D01*
X189711904Y-86759523D01*
X189807142Y-86711904D01*
X189854761Y-86664285D01*
X189902380Y-86569047D01*
X189902380Y-86378571D01*
X189854761Y-86283333D01*
X189807142Y-86235714D01*
X189711904Y-86188095D01*
X189521428Y-86188095D01*
X189426190Y-86235714D01*
X189378571Y-86283333D01*
X189330952Y-86378571D01*
X187981428Y-92610952D02*
X187981428Y-91849047D01*
X188362380Y-92230000D02*
X187600476Y-92230000D01*
X160057142Y-90342857D02*
X160104761Y-90390476D01*
X160152380Y-90533333D01*
X160152380Y-90628571D01*
X160104761Y-90771428D01*
X160009523Y-90866666D01*
X159914285Y-90914285D01*
X159723809Y-90961904D01*
X159580952Y-90961904D01*
X159390476Y-90914285D01*
X159295238Y-90866666D01*
X159200000Y-90771428D01*
X159152380Y-90628571D01*
X159152380Y-90533333D01*
X159200000Y-90390476D01*
X159247619Y-90342857D01*
X160152380Y-89390476D02*
X160152380Y-89961904D01*
X160152380Y-89676190D02*
X159152380Y-89676190D01*
X159295238Y-89771428D01*
X159390476Y-89866666D01*
X159438095Y-89961904D01*
X160152380Y-88914285D02*
X160152380Y-88723809D01*
X160104761Y-88628571D01*
X160057142Y-88580952D01*
X159914285Y-88485714D01*
X159723809Y-88438095D01*
X159342857Y-88438095D01*
X159247619Y-88485714D01*
X159200000Y-88533333D01*
X159152380Y-88628571D01*
X159152380Y-88819047D01*
X159200000Y-88914285D01*
X159247619Y-88961904D01*
X159342857Y-89009523D01*
X159580952Y-89009523D01*
X159676190Y-88961904D01*
X159723809Y-88914285D01*
X159771428Y-88819047D01*
X159771428Y-88628571D01*
X159723809Y-88533333D01*
X159676190Y-88485714D01*
X159580952Y-88438095D01*
X151357142Y-102857142D02*
X151309523Y-102904761D01*
X151166666Y-102952380D01*
X151071428Y-102952380D01*
X150928571Y-102904761D01*
X150833333Y-102809523D01*
X150785714Y-102714285D01*
X150738095Y-102523809D01*
X150738095Y-102380952D01*
X150785714Y-102190476D01*
X150833333Y-102095238D01*
X150928571Y-102000000D01*
X151071428Y-101952380D01*
X151166666Y-101952380D01*
X151309523Y-102000000D01*
X151357142Y-102047619D01*
X151738095Y-102047619D02*
X151785714Y-102000000D01*
X151880952Y-101952380D01*
X152119047Y-101952380D01*
X152214285Y-102000000D01*
X152261904Y-102047619D01*
X152309523Y-102142857D01*
X152309523Y-102238095D01*
X152261904Y-102380952D01*
X151690476Y-102952380D01*
X152309523Y-102952380D01*
X153261904Y-102952380D02*
X152690476Y-102952380D01*
X152976190Y-102952380D02*
X152976190Y-101952380D01*
X152880952Y-102095238D01*
X152785714Y-102190476D01*
X152690476Y-102238095D01*
X148357142Y-107357142D02*
X148309523Y-107404761D01*
X148166666Y-107452380D01*
X148071428Y-107452380D01*
X147928571Y-107404761D01*
X147833333Y-107309523D01*
X147785714Y-107214285D01*
X147738095Y-107023809D01*
X147738095Y-106880952D01*
X147785714Y-106690476D01*
X147833333Y-106595238D01*
X147928571Y-106500000D01*
X148071428Y-106452380D01*
X148166666Y-106452380D01*
X148309523Y-106500000D01*
X148357142Y-106547619D01*
X148738095Y-106547619D02*
X148785714Y-106500000D01*
X148880952Y-106452380D01*
X149119047Y-106452380D01*
X149214285Y-106500000D01*
X149261904Y-106547619D01*
X149309523Y-106642857D01*
X149309523Y-106738095D01*
X149261904Y-106880952D01*
X148690476Y-107452380D01*
X149309523Y-107452380D01*
X149690476Y-106547619D02*
X149738095Y-106500000D01*
X149833333Y-106452380D01*
X150071428Y-106452380D01*
X150166666Y-106500000D01*
X150214285Y-106547619D01*
X150261904Y-106642857D01*
X150261904Y-106738095D01*
X150214285Y-106880952D01*
X149642857Y-107452380D01*
X150261904Y-107452380D01*
X151057142Y-114157142D02*
X151009523Y-114204761D01*
X150866666Y-114252380D01*
X150771428Y-114252380D01*
X150628571Y-114204761D01*
X150533333Y-114109523D01*
X150485714Y-114014285D01*
X150438095Y-113823809D01*
X150438095Y-113680952D01*
X150485714Y-113490476D01*
X150533333Y-113395238D01*
X150628571Y-113300000D01*
X150771428Y-113252380D01*
X150866666Y-113252380D01*
X151009523Y-113300000D01*
X151057142Y-113347619D01*
X151438095Y-113347619D02*
X151485714Y-113300000D01*
X151580952Y-113252380D01*
X151819047Y-113252380D01*
X151914285Y-113300000D01*
X151961904Y-113347619D01*
X152009523Y-113442857D01*
X152009523Y-113538095D01*
X151961904Y-113680952D01*
X151390476Y-114252380D01*
X152009523Y-114252380D01*
X152914285Y-113252380D02*
X152438095Y-113252380D01*
X152390476Y-113728571D01*
X152438095Y-113680952D01*
X152533333Y-113633333D01*
X152771428Y-113633333D01*
X152866666Y-113680952D01*
X152914285Y-113728571D01*
X152961904Y-113823809D01*
X152961904Y-114061904D01*
X152914285Y-114157142D01*
X152866666Y-114204761D01*
X152771428Y-114252380D01*
X152533333Y-114252380D01*
X152438095Y-114204761D01*
X152390476Y-114157142D01*
X170857142Y-124142857D02*
X170904761Y-124190476D01*
X170952380Y-124333333D01*
X170952380Y-124428571D01*
X170904761Y-124571428D01*
X170809523Y-124666666D01*
X170714285Y-124714285D01*
X170523809Y-124761904D01*
X170380952Y-124761904D01*
X170190476Y-124714285D01*
X170095238Y-124666666D01*
X170000000Y-124571428D01*
X169952380Y-124428571D01*
X169952380Y-124333333D01*
X170000000Y-124190476D01*
X170047619Y-124142857D01*
X170047619Y-123761904D02*
X170000000Y-123714285D01*
X169952380Y-123619047D01*
X169952380Y-123380952D01*
X170000000Y-123285714D01*
X170047619Y-123238095D01*
X170142857Y-123190476D01*
X170238095Y-123190476D01*
X170380952Y-123238095D01*
X170952380Y-123809523D01*
X170952380Y-123190476D01*
X169952380Y-122333333D02*
X169952380Y-122523809D01*
X170000000Y-122619047D01*
X170047619Y-122666666D01*
X170190476Y-122761904D01*
X170380952Y-122809523D01*
X170761904Y-122809523D01*
X170857142Y-122761904D01*
X170904761Y-122714285D01*
X170952380Y-122619047D01*
X170952380Y-122428571D01*
X170904761Y-122333333D01*
X170857142Y-122285714D01*
X170761904Y-122238095D01*
X170523809Y-122238095D01*
X170428571Y-122285714D01*
X170380952Y-122333333D01*
X170333333Y-122428571D01*
X170333333Y-122619047D01*
X170380952Y-122714285D01*
X170428571Y-122761904D01*
X170523809Y-122809523D01*
X185666666Y-107622380D02*
X185666666Y-108336666D01*
X185619047Y-108479523D01*
X185523809Y-108574761D01*
X185380952Y-108622380D01*
X185285714Y-108622380D01*
X186095238Y-107717619D02*
X186142857Y-107670000D01*
X186238095Y-107622380D01*
X186476190Y-107622380D01*
X186571428Y-107670000D01*
X186619047Y-107717619D01*
X186666666Y-107812857D01*
X186666666Y-107908095D01*
X186619047Y-108050952D01*
X186047619Y-108622380D01*
X186666666Y-108622380D01*
X185666666Y-96122380D02*
X185666666Y-96836666D01*
X185619047Y-96979523D01*
X185523809Y-97074761D01*
X185380952Y-97122380D01*
X185285714Y-97122380D01*
X186047619Y-96122380D02*
X186666666Y-96122380D01*
X186333333Y-96503333D01*
X186476190Y-96503333D01*
X186571428Y-96550952D01*
X186619047Y-96598571D01*
X186666666Y-96693809D01*
X186666666Y-96931904D01*
X186619047Y-97027142D01*
X186571428Y-97074761D01*
X186476190Y-97122380D01*
X186190476Y-97122380D01*
X186095238Y-97074761D01*
X186047619Y-97027142D01*
X192090476Y-117362379D02*
X192090476Y-118076665D01*
X192042857Y-118219522D01*
X191947619Y-118314760D01*
X191804761Y-118362379D01*
X191709523Y-118362379D01*
X193090476Y-118362379D02*
X192519047Y-118362379D01*
X192804761Y-118362379D02*
X192804761Y-117362379D01*
X192709523Y-117505237D01*
X192614285Y-117600475D01*
X192519047Y-117648094D01*
X193709523Y-117362379D02*
X193804761Y-117362379D01*
X193900000Y-117409999D01*
X193947619Y-117457618D01*
X193995238Y-117552856D01*
X194042857Y-117743332D01*
X194042857Y-117981427D01*
X193995238Y-118171903D01*
X193947619Y-118267141D01*
X193900000Y-118314760D01*
X193804761Y-118362379D01*
X193709523Y-118362379D01*
X193614285Y-118314760D01*
X193566666Y-118267141D01*
X193519047Y-118171903D01*
X193471428Y-117981427D01*
X193471428Y-117743332D01*
X193519047Y-117552856D01*
X193566666Y-117457618D01*
X193614285Y-117409999D01*
X193709523Y-117362379D01*
X157582380Y-88809523D02*
X158296666Y-88809523D01*
X158439523Y-88857142D01*
X158534761Y-88952380D01*
X158582380Y-89095238D01*
X158582380Y-89190476D01*
X158582380Y-87809523D02*
X158582380Y-88380952D01*
X158582380Y-88095238D02*
X157582380Y-88095238D01*
X157725238Y-88190476D01*
X157820476Y-88285714D01*
X157868095Y-88380952D01*
X157677619Y-87428571D02*
X157630000Y-87380952D01*
X157582380Y-87285714D01*
X157582380Y-87047619D01*
X157630000Y-86952380D01*
X157677619Y-86904761D01*
X157772857Y-86857142D01*
X157868095Y-86857142D01*
X158010952Y-86904761D01*
X158582380Y-87476190D01*
X158582380Y-86857142D01*
X176622380Y-109309523D02*
X177336666Y-109309523D01*
X177479523Y-109357142D01*
X177574761Y-109452380D01*
X177622380Y-109595238D01*
X177622380Y-109690476D01*
X177622380Y-108309523D02*
X177622380Y-108880952D01*
X177622380Y-108595238D02*
X176622380Y-108595238D01*
X176765238Y-108690476D01*
X176860476Y-108785714D01*
X176908095Y-108880952D01*
X177622380Y-107357142D02*
X177622380Y-107928571D01*
X177622380Y-107642857D02*
X176622380Y-107642857D01*
X176765238Y-107738095D01*
X176860476Y-107833333D01*
X176908095Y-107928571D01*
X192690476Y-96122380D02*
X192690476Y-96836666D01*
X192642857Y-96979523D01*
X192547619Y-97074761D01*
X192404761Y-97122380D01*
X192309523Y-97122380D01*
X193690476Y-97122380D02*
X193119047Y-97122380D01*
X193404761Y-97122380D02*
X193404761Y-96122380D01*
X193309523Y-96265238D01*
X193214285Y-96360476D01*
X193119047Y-96408095D01*
X194023809Y-96122380D02*
X194642857Y-96122380D01*
X194309523Y-96503333D01*
X194452380Y-96503333D01*
X194547619Y-96550952D01*
X194595238Y-96598571D01*
X194642857Y-96693809D01*
X194642857Y-96931904D01*
X194595238Y-97027142D01*
X194547619Y-97074761D01*
X194452380Y-97122380D01*
X194166666Y-97122380D01*
X194071428Y-97074761D01*
X194023809Y-97027142D01*
X173583333Y-86002380D02*
X173107142Y-86002380D01*
X173107142Y-85002380D01*
X174440476Y-86002380D02*
X173869047Y-86002380D01*
X174154761Y-86002380D02*
X174154761Y-85002380D01*
X174059523Y-85145238D01*
X173964285Y-85240476D01*
X173869047Y-85288095D01*
X167152380Y-89866666D02*
X166676190Y-90200000D01*
X167152380Y-90438095D02*
X166152380Y-90438095D01*
X166152380Y-90057142D01*
X166200000Y-89961904D01*
X166247619Y-89914285D01*
X166342857Y-89866666D01*
X166485714Y-89866666D01*
X166580952Y-89914285D01*
X166628571Y-89961904D01*
X166676190Y-90057142D01*
X166676190Y-90438095D01*
X166485714Y-89009523D02*
X167152380Y-89009523D01*
X166104761Y-89247619D02*
X166819047Y-89485714D01*
X166819047Y-88866666D01*
X163652380Y-89866666D02*
X163176190Y-90200000D01*
X163652380Y-90438095D02*
X162652380Y-90438095D01*
X162652380Y-90057142D01*
X162700000Y-89961904D01*
X162747619Y-89914285D01*
X162842857Y-89866666D01*
X162985714Y-89866666D01*
X163080952Y-89914285D01*
X163128571Y-89961904D01*
X163176190Y-90057142D01*
X163176190Y-90438095D01*
X162652380Y-88961904D02*
X162652380Y-89438095D01*
X163128571Y-89485714D01*
X163080952Y-89438095D01*
X163033333Y-89342857D01*
X163033333Y-89104761D01*
X163080952Y-89009523D01*
X163128571Y-88961904D01*
X163223809Y-88914285D01*
X163461904Y-88914285D01*
X163557142Y-88961904D01*
X163604761Y-89009523D01*
X163652380Y-89104761D01*
X163652380Y-89342857D01*
X163604761Y-89438095D01*
X163557142Y-89485714D01*
X174302380Y-99716666D02*
X173826190Y-100050000D01*
X174302380Y-100288095D02*
X173302380Y-100288095D01*
X173302380Y-99907142D01*
X173350000Y-99811904D01*
X173397619Y-99764285D01*
X173492857Y-99716666D01*
X173635714Y-99716666D01*
X173730952Y-99764285D01*
X173778571Y-99811904D01*
X173826190Y-99907142D01*
X173826190Y-100288095D01*
X173397619Y-99335714D02*
X173350000Y-99288095D01*
X173302380Y-99192857D01*
X173302380Y-98954761D01*
X173350000Y-98859523D01*
X173397619Y-98811904D01*
X173492857Y-98764285D01*
X173588095Y-98764285D01*
X173730952Y-98811904D01*
X174302380Y-99383333D01*
X174302380Y-98764285D01*
X170952380Y-99716666D02*
X170476190Y-100050000D01*
X170952380Y-100288095D02*
X169952380Y-100288095D01*
X169952380Y-99907142D01*
X170000000Y-99811904D01*
X170047619Y-99764285D01*
X170142857Y-99716666D01*
X170285714Y-99716666D01*
X170380952Y-99764285D01*
X170428571Y-99811904D01*
X170476190Y-99907142D01*
X170476190Y-100288095D01*
X169952380Y-98859523D02*
X169952380Y-99050000D01*
X170000000Y-99145238D01*
X170047619Y-99192857D01*
X170190476Y-99288095D01*
X170380952Y-99335714D01*
X170761904Y-99335714D01*
X170857142Y-99288095D01*
X170904761Y-99240476D01*
X170952380Y-99145238D01*
X170952380Y-98954761D01*
X170904761Y-98859523D01*
X170857142Y-98811904D01*
X170761904Y-98764285D01*
X170523809Y-98764285D01*
X170428571Y-98811904D01*
X170380952Y-98859523D01*
X170333333Y-98954761D01*
X170333333Y-99145238D01*
X170380952Y-99240476D01*
X170428571Y-99288095D01*
X170523809Y-99335714D01*
X154373809Y-108276190D02*
X154373809Y-108752380D01*
X154040476Y-107752380D02*
X154373809Y-108276190D01*
X154707142Y-107752380D01*
X154992857Y-107847619D02*
X155040476Y-107800000D01*
X155135714Y-107752380D01*
X155373809Y-107752380D01*
X155469047Y-107800000D01*
X155516666Y-107847619D01*
X155564285Y-107942857D01*
X155564285Y-108038095D01*
X155516666Y-108180952D01*
X154945238Y-108752380D01*
X155564285Y-108752380D01*
X168952380Y-82238095D02*
X167952380Y-82238095D01*
X167952380Y-82000000D01*
X168000000Y-81857142D01*
X168095238Y-81761904D01*
X168190476Y-81714285D01*
X168380952Y-81666666D01*
X168523809Y-81666666D01*
X168714285Y-81714285D01*
X168809523Y-81761904D01*
X168904761Y-81857142D01*
X168952380Y-82000000D01*
X168952380Y-82238095D01*
X168952380Y-80714285D02*
X168952380Y-81285714D01*
X168952380Y-81000000D02*
X167952380Y-81000000D01*
X168095238Y-81095238D01*
X168190476Y-81190476D01*
X168238095Y-81285714D01*
D15*
X179102995Y-100430927D02*
X179102995Y-100819713D01*
X179125865Y-100865453D01*
X179148735Y-100888322D01*
X179194474Y-100911192D01*
X179285953Y-100911192D01*
X179331693Y-100888322D01*
X179354563Y-100865453D01*
X179377432Y-100819713D01*
X179377432Y-100430927D01*
X179857697Y-100911192D02*
X179583260Y-100911192D01*
X179720479Y-100911192D02*
X179720479Y-100430927D01*
X179674739Y-100499537D01*
X179629000Y-100545276D01*
X179583260Y-100568146D01*
X178435070Y-105415101D02*
X178206236Y-105415101D01*
X178206236Y-104934551D01*
X178595253Y-105415101D02*
X178595253Y-104934551D01*
X178801203Y-105392218D02*
X178869853Y-105415101D01*
X178984270Y-105415101D01*
X179030036Y-105392218D01*
X179052920Y-105369335D01*
X179075803Y-105323568D01*
X179075803Y-105277801D01*
X179052920Y-105232035D01*
X179030036Y-105209151D01*
X178984270Y-105186268D01*
X178892736Y-105163385D01*
X178846970Y-105140501D01*
X178824086Y-105117618D01*
X178801203Y-105071851D01*
X178801203Y-105026085D01*
X178824086Y-104980318D01*
X178846970Y-104957435D01*
X178892736Y-104934551D01*
X179007153Y-104934551D01*
X179075803Y-104957435D01*
X179235986Y-104934551D02*
X179533470Y-104934551D01*
X179373286Y-105117618D01*
X179441936Y-105117618D01*
X179487703Y-105140501D01*
X179510586Y-105163385D01*
X179533470Y-105209151D01*
X179533470Y-105323568D01*
X179510586Y-105369335D01*
X179487703Y-105392218D01*
X179441936Y-105415101D01*
X179304636Y-105415101D01*
X179258870Y-105392218D01*
X179235986Y-105369335D01*
X179739420Y-105415101D02*
X179739420Y-104934551D01*
X179853836Y-104934551D01*
X179922486Y-104957435D01*
X179968253Y-105003201D01*
X179991136Y-105048968D01*
X180014020Y-105140501D01*
X180014020Y-105209151D01*
X179991136Y-105300685D01*
X179968253Y-105346451D01*
X179922486Y-105392218D01*
X179853836Y-105415101D01*
X179739420Y-105415101D01*
X180219970Y-105415101D02*
X180219970Y-104934551D01*
X180219970Y-105163385D02*
X180494570Y-105163385D01*
X180494570Y-105415101D02*
X180494570Y-104934551D01*
X180654753Y-104934551D02*
X180929353Y-104934551D01*
X180792053Y-105415101D02*
X180792053Y-104934551D01*
X181364136Y-105415101D02*
X181203953Y-105186268D01*
X181089536Y-105415101D02*
X181089536Y-104934551D01*
X181272603Y-104934551D01*
X181318370Y-104957435D01*
X181341253Y-104980318D01*
X181364136Y-105026085D01*
X181364136Y-105094735D01*
X181341253Y-105140501D01*
X181318370Y-105163385D01*
X181272603Y-105186268D01*
X181089536Y-105186268D01*
D10*
X160063096Y-74602380D02*
X160063096Y-75411904D01*
X160110715Y-75507142D01*
X160158334Y-75554761D01*
X160253572Y-75602380D01*
X160444048Y-75602380D01*
X160539286Y-75554761D01*
X160586905Y-75507142D01*
X160634524Y-75411904D01*
X160634524Y-74602380D01*
X161063096Y-74697619D02*
X161110715Y-74650000D01*
X161205953Y-74602380D01*
X161444048Y-74602380D01*
X161539286Y-74650000D01*
X161586905Y-74697619D01*
X161634524Y-74792857D01*
X161634524Y-74888095D01*
X161586905Y-75030952D01*
X161015477Y-75602380D01*
X161634524Y-75602380D01*
X160038095Y-118152380D02*
X160038095Y-118961904D01*
X160085714Y-119057142D01*
X160133333Y-119104761D01*
X160228571Y-119152380D01*
X160419047Y-119152380D01*
X160514285Y-119104761D01*
X160561904Y-119057142D01*
X160609523Y-118961904D01*
X160609523Y-118152380D01*
X161561904Y-118152380D02*
X161085714Y-118152380D01*
X161038095Y-118628571D01*
X161085714Y-118580952D01*
X161180952Y-118533333D01*
X161419047Y-118533333D01*
X161514285Y-118580952D01*
X161561904Y-118628571D01*
X161609523Y-118723809D01*
X161609523Y-118961904D01*
X161561904Y-119057142D01*
X161514285Y-119104761D01*
X161419047Y-119152380D01*
X161180952Y-119152380D01*
X161085714Y-119104761D01*
X161038095Y-119057142D01*
X175383333Y-77707142D02*
X175335714Y-77754761D01*
X175192857Y-77802380D01*
X175097619Y-77802380D01*
X174954761Y-77754761D01*
X174859523Y-77659523D01*
X174811904Y-77564285D01*
X174764285Y-77373809D01*
X174764285Y-77230952D01*
X174811904Y-77040476D01*
X174859523Y-76945238D01*
X174954761Y-76850000D01*
X175097619Y-76802380D01*
X175192857Y-76802380D01*
X175335714Y-76850000D01*
X175383333Y-76897619D01*
X175764285Y-76897619D02*
X175811904Y-76850000D01*
X175907142Y-76802380D01*
X176145238Y-76802380D01*
X176240476Y-76850000D01*
X176288095Y-76897619D01*
X176335714Y-76992857D01*
X176335714Y-77088095D01*
X176288095Y-77230952D01*
X175716666Y-77802380D01*
X176335714Y-77802380D01*
X175433333Y-80557142D02*
X175385714Y-80604761D01*
X175242857Y-80652380D01*
X175147619Y-80652380D01*
X175004761Y-80604761D01*
X174909523Y-80509523D01*
X174861904Y-80414285D01*
X174814285Y-80223809D01*
X174814285Y-80080952D01*
X174861904Y-79890476D01*
X174909523Y-79795238D01*
X175004761Y-79700000D01*
X175147619Y-79652380D01*
X175242857Y-79652380D01*
X175385714Y-79700000D01*
X175433333Y-79747619D01*
X175766666Y-79652380D02*
X176385714Y-79652380D01*
X176052380Y-80033333D01*
X176195238Y-80033333D01*
X176290476Y-80080952D01*
X176338095Y-80128571D01*
X176385714Y-80223809D01*
X176385714Y-80461904D01*
X176338095Y-80557142D01*
X176290476Y-80604761D01*
X176195238Y-80652380D01*
X175909523Y-80652380D01*
X175814285Y-80604761D01*
X175766666Y-80557142D01*
X208357142Y-79166666D02*
X208404761Y-79214285D01*
X208452380Y-79357142D01*
X208452380Y-79452380D01*
X208404761Y-79595238D01*
X208309523Y-79690476D01*
X208214285Y-79738095D01*
X208023809Y-79785714D01*
X207880952Y-79785714D01*
X207690476Y-79738095D01*
X207595238Y-79690476D01*
X207500000Y-79595238D01*
X207452380Y-79452380D01*
X207452380Y-79357142D01*
X207500000Y-79214285D01*
X207547619Y-79166666D01*
X207452380Y-78309523D02*
X207452380Y-78500000D01*
X207500000Y-78595238D01*
X207547619Y-78642857D01*
X207690476Y-78738095D01*
X207880952Y-78785714D01*
X208261904Y-78785714D01*
X208357142Y-78738095D01*
X208404761Y-78690476D01*
X208452380Y-78595238D01*
X208452380Y-78404761D01*
X208404761Y-78309523D01*
X208357142Y-78261904D01*
X208261904Y-78214285D01*
X208023809Y-78214285D01*
X207928571Y-78261904D01*
X207880952Y-78309523D01*
X207833333Y-78404761D01*
X207833333Y-78595238D01*
X207880952Y-78690476D01*
X207928571Y-78738095D01*
X208023809Y-78785714D01*
X194947141Y-75317858D02*
X194994760Y-75365477D01*
X195042379Y-75508334D01*
X195042379Y-75603572D01*
X194994760Y-75746429D01*
X194899522Y-75841667D01*
X194804284Y-75889286D01*
X194613808Y-75936905D01*
X194470951Y-75936905D01*
X194280475Y-75889286D01*
X194185237Y-75841667D01*
X194089999Y-75746429D01*
X194042379Y-75603572D01*
X194042379Y-75508334D01*
X194089999Y-75365477D01*
X194137618Y-75317858D01*
X195042379Y-74365477D02*
X195042379Y-74936905D01*
X195042379Y-74651191D02*
X194042379Y-74651191D01*
X194185237Y-74746429D01*
X194280475Y-74841667D01*
X194328094Y-74936905D01*
X194042379Y-74032143D02*
X194042379Y-73413096D01*
X194423332Y-73746429D01*
X194423332Y-73603572D01*
X194470951Y-73508334D01*
X194518570Y-73460715D01*
X194613808Y-73413096D01*
X194851903Y-73413096D01*
X194947141Y-73460715D01*
X194994760Y-73508334D01*
X195042379Y-73603572D01*
X195042379Y-73889286D01*
X194994760Y-73984524D01*
X194947141Y-74032143D01*
X221357142Y-78642857D02*
X221404761Y-78690476D01*
X221452380Y-78833333D01*
X221452380Y-78928571D01*
X221404761Y-79071428D01*
X221309523Y-79166666D01*
X221214285Y-79214285D01*
X221023809Y-79261904D01*
X220880952Y-79261904D01*
X220690476Y-79214285D01*
X220595238Y-79166666D01*
X220500000Y-79071428D01*
X220452380Y-78928571D01*
X220452380Y-78833333D01*
X220500000Y-78690476D01*
X220547619Y-78642857D01*
X221452380Y-77690476D02*
X221452380Y-78261904D01*
X221452380Y-77976190D02*
X220452380Y-77976190D01*
X220595238Y-78071428D01*
X220690476Y-78166666D01*
X220738095Y-78261904D01*
X220452380Y-76785714D02*
X220452380Y-77261904D01*
X220928571Y-77309523D01*
X220880952Y-77261904D01*
X220833333Y-77166666D01*
X220833333Y-76928571D01*
X220880952Y-76833333D01*
X220928571Y-76785714D01*
X221023809Y-76738095D01*
X221261904Y-76738095D01*
X221357142Y-76785714D01*
X221404761Y-76833333D01*
X221452380Y-76928571D01*
X221452380Y-77166666D01*
X221404761Y-77261904D01*
X221357142Y-77309523D01*
X192127141Y-75317858D02*
X192174760Y-75365477D01*
X192222379Y-75508334D01*
X192222379Y-75603572D01*
X192174760Y-75746429D01*
X192079522Y-75841667D01*
X191984284Y-75889286D01*
X191793808Y-75936905D01*
X191650951Y-75936905D01*
X191460475Y-75889286D01*
X191365237Y-75841667D01*
X191269999Y-75746429D01*
X191222379Y-75603572D01*
X191222379Y-75508334D01*
X191269999Y-75365477D01*
X191317618Y-75317858D01*
X192222379Y-74365477D02*
X192222379Y-74936905D01*
X192222379Y-74651191D02*
X191222379Y-74651191D01*
X191365237Y-74746429D01*
X191460475Y-74841667D01*
X191508094Y-74936905D01*
X191222379Y-73508334D02*
X191222379Y-73698810D01*
X191269999Y-73794048D01*
X191317618Y-73841667D01*
X191460475Y-73936905D01*
X191650951Y-73984524D01*
X192031903Y-73984524D01*
X192127141Y-73936905D01*
X192174760Y-73889286D01*
X192222379Y-73794048D01*
X192222379Y-73603572D01*
X192174760Y-73508334D01*
X192127141Y-73460715D01*
X192031903Y-73413096D01*
X191793808Y-73413096D01*
X191698570Y-73460715D01*
X191650951Y-73508334D01*
X191603332Y-73603572D01*
X191603332Y-73794048D01*
X191650951Y-73889286D01*
X191698570Y-73936905D01*
X191793808Y-73984524D01*
X189190476Y-77122380D02*
X189190476Y-77836666D01*
X189142857Y-77979523D01*
X189047619Y-78074761D01*
X188904761Y-78122380D01*
X188809523Y-78122380D01*
X190190476Y-78122380D02*
X189619047Y-78122380D01*
X189904761Y-78122380D02*
X189904761Y-77122380D01*
X189809523Y-77265238D01*
X189714285Y-77360476D01*
X189619047Y-77408095D01*
X191047619Y-77455714D02*
X191047619Y-78122380D01*
X190809523Y-77074761D02*
X190571428Y-77789047D01*
X191190476Y-77789047D01*
X205302380Y-75116666D02*
X204826190Y-75450000D01*
X205302380Y-75688095D02*
X204302380Y-75688095D01*
X204302380Y-75307142D01*
X204350000Y-75211904D01*
X204397619Y-75164285D01*
X204492857Y-75116666D01*
X204635714Y-75116666D01*
X204730952Y-75164285D01*
X204778571Y-75211904D01*
X204826190Y-75307142D01*
X204826190Y-75688095D01*
X204302380Y-74783333D02*
X204302380Y-74164285D01*
X204683333Y-74497619D01*
X204683333Y-74354761D01*
X204730952Y-74259523D01*
X204778571Y-74211904D01*
X204873809Y-74164285D01*
X205111904Y-74164285D01*
X205207142Y-74211904D01*
X205254761Y-74259523D01*
X205302380Y-74354761D01*
X205302380Y-74640476D01*
X205254761Y-74735714D01*
X205207142Y-74783333D01*
X222014285Y-117328571D02*
X222157142Y-117376190D01*
X222204761Y-117423809D01*
X222252380Y-117519047D01*
X222252380Y-117661904D01*
X222204761Y-117757142D01*
X222157142Y-117804761D01*
X222061904Y-117852380D01*
X221680952Y-117852380D01*
X221680952Y-116852380D01*
X222014285Y-116852380D01*
X222109523Y-116900000D01*
X222157142Y-116947619D01*
X222204761Y-117042857D01*
X222204761Y-117138095D01*
X222157142Y-117233333D01*
X222109523Y-117280952D01*
X222014285Y-117328571D01*
X221680952Y-117328571D01*
X222538095Y-116852380D02*
X223109523Y-116852380D01*
X222823809Y-117852380D02*
X222823809Y-116852380D01*
X223966666Y-117852380D02*
X223395238Y-117852380D01*
X223680952Y-117852380D02*
X223680952Y-116852380D01*
X223585714Y-116995238D01*
X223490476Y-117090476D01*
X223395238Y-117138095D01*
X201852380Y-75588095D02*
X200852380Y-75588095D01*
X200852380Y-75350000D01*
X200900000Y-75207142D01*
X200995238Y-75111904D01*
X201090476Y-75064285D01*
X201280952Y-75016666D01*
X201423809Y-75016666D01*
X201614285Y-75064285D01*
X201709523Y-75111904D01*
X201804761Y-75207142D01*
X201852380Y-75350000D01*
X201852380Y-75588095D01*
X200947619Y-74635714D02*
X200900000Y-74588095D01*
X200852380Y-74492857D01*
X200852380Y-74254761D01*
X200900000Y-74159523D01*
X200947619Y-74111904D01*
X201042857Y-74064285D01*
X201138095Y-74064285D01*
X201280952Y-74111904D01*
X201852380Y-74683333D01*
X201852380Y-74064285D01*
X205352380Y-75588095D02*
X204352380Y-75588095D01*
X204352380Y-75350000D01*
X204400000Y-75207142D01*
X204495238Y-75111904D01*
X204590476Y-75064285D01*
X204780952Y-75016666D01*
X204923809Y-75016666D01*
X205114285Y-75064285D01*
X205209523Y-75111904D01*
X205304761Y-75207142D01*
X205352380Y-75350000D01*
X205352380Y-75588095D01*
X204352380Y-74683333D02*
X204352380Y-74064285D01*
X204733333Y-74397619D01*
X204733333Y-74254761D01*
X204780952Y-74159523D01*
X204828571Y-74111904D01*
X204923809Y-74064285D01*
X205161904Y-74064285D01*
X205257142Y-74111904D01*
X205304761Y-74159523D01*
X205352380Y-74254761D01*
X205352380Y-74540476D01*
X205304761Y-74635714D01*
X205257142Y-74683333D01*
X190216666Y-128362380D02*
X190216666Y-129076666D01*
X190169047Y-129219523D01*
X190073809Y-129314761D01*
X189930952Y-129362380D01*
X189835714Y-129362380D01*
X190835714Y-128790952D02*
X190740476Y-128743333D01*
X190692857Y-128695714D01*
X190645238Y-128600476D01*
X190645238Y-128552857D01*
X190692857Y-128457619D01*
X190740476Y-128410000D01*
X190835714Y-128362380D01*
X191026190Y-128362380D01*
X191121428Y-128410000D01*
X191169047Y-128457619D01*
X191216666Y-128552857D01*
X191216666Y-128600476D01*
X191169047Y-128695714D01*
X191121428Y-128743333D01*
X191026190Y-128790952D01*
X190835714Y-128790952D01*
X190740476Y-128838571D01*
X190692857Y-128886190D01*
X190645238Y-128981428D01*
X190645238Y-129171904D01*
X190692857Y-129267142D01*
X190740476Y-129314761D01*
X190835714Y-129362380D01*
X191026190Y-129362380D01*
X191121428Y-129314761D01*
X191169047Y-129267142D01*
X191216666Y-129171904D01*
X191216666Y-128981428D01*
X191169047Y-128886190D01*
X191121428Y-128838571D01*
X191026190Y-128790952D01*
X205602380Y-79216666D02*
X205126190Y-79550000D01*
X205602380Y-79788095D02*
X204602380Y-79788095D01*
X204602380Y-79407142D01*
X204650000Y-79311904D01*
X204697619Y-79264285D01*
X204792857Y-79216666D01*
X204935714Y-79216666D01*
X205030952Y-79264285D01*
X205078571Y-79311904D01*
X205126190Y-79407142D01*
X205126190Y-79788095D01*
X205602380Y-78264285D02*
X205602380Y-78835714D01*
X205602380Y-78550000D02*
X204602380Y-78550000D01*
X204745238Y-78645238D01*
X204840476Y-78740476D01*
X204888095Y-78835714D01*
X183988095Y-75202380D02*
X183988095Y-76011904D01*
X184035714Y-76107142D01*
X184083333Y-76154761D01*
X184178571Y-76202380D01*
X184369047Y-76202380D01*
X184464285Y-76154761D01*
X184511904Y-76107142D01*
X184559523Y-76011904D01*
X184559523Y-75202380D01*
X184940476Y-75202380D02*
X185559523Y-75202380D01*
X185226190Y-75583333D01*
X185369047Y-75583333D01*
X185464285Y-75630952D01*
X185511904Y-75678571D01*
X185559523Y-75773809D01*
X185559523Y-76011904D01*
X185511904Y-76107142D01*
X185464285Y-76154761D01*
X185369047Y-76202380D01*
X185083333Y-76202380D01*
X184988095Y-76154761D01*
X184940476Y-76107142D01*
X211738095Y-80452380D02*
X211738095Y-81261904D01*
X211785714Y-81357142D01*
X211833333Y-81404761D01*
X211928571Y-81452380D01*
X212119047Y-81452380D01*
X212214285Y-81404761D01*
X212261904Y-81357142D01*
X212309523Y-81261904D01*
X212309523Y-80452380D01*
X213214285Y-80785714D02*
X213214285Y-81452380D01*
X212976190Y-80404761D02*
X212738095Y-81119047D01*
X213357142Y-81119047D01*
X178976190Y-75276190D02*
X179452380Y-75276190D01*
X178452380Y-75609523D02*
X178976190Y-75276190D01*
X178452380Y-74942857D01*
X179452380Y-74085714D02*
X179452380Y-74657142D01*
X179452380Y-74371428D02*
X178452380Y-74371428D01*
X178595238Y-74466666D01*
X178690476Y-74561904D01*
X178738095Y-74657142D01*
X160558333Y-107057142D02*
X160510714Y-107104761D01*
X160367857Y-107152380D01*
X160272619Y-107152380D01*
X160129761Y-107104761D01*
X160034523Y-107009523D01*
X159986904Y-106914285D01*
X159939285Y-106723809D01*
X159939285Y-106580952D01*
X159986904Y-106390476D01*
X160034523Y-106295238D01*
X160129761Y-106200000D01*
X160272619Y-106152380D01*
X160367857Y-106152380D01*
X160510714Y-106200000D01*
X160558333Y-106247619D01*
X161415476Y-106485714D02*
X161415476Y-107152380D01*
X161177380Y-106104761D02*
X160939285Y-106819047D01*
X161558333Y-106819047D01*
X152158332Y-119657142D02*
X152110713Y-119704761D01*
X151967856Y-119752380D01*
X151872618Y-119752380D01*
X151729760Y-119704761D01*
X151634522Y-119609523D01*
X151586903Y-119514285D01*
X151539284Y-119323809D01*
X151539284Y-119180952D01*
X151586903Y-118990476D01*
X151634522Y-118895238D01*
X151729760Y-118800000D01*
X151872618Y-118752380D01*
X151967856Y-118752380D01*
X152110713Y-118800000D01*
X152158332Y-118847619D01*
X153063094Y-118752380D02*
X152586903Y-118752380D01*
X152539284Y-119228571D01*
X152586903Y-119180952D01*
X152682141Y-119133333D01*
X152920237Y-119133333D01*
X153015475Y-119180952D01*
X153063094Y-119228571D01*
X153110713Y-119323809D01*
X153110713Y-119561904D01*
X153063094Y-119657142D01*
X153015475Y-119704761D01*
X152920237Y-119752380D01*
X152682141Y-119752380D01*
X152586903Y-119704761D01*
X152539284Y-119657142D01*
X165257142Y-104441667D02*
X165304761Y-104489286D01*
X165352380Y-104632143D01*
X165352380Y-104727381D01*
X165304761Y-104870239D01*
X165209523Y-104965477D01*
X165114285Y-105013096D01*
X164923809Y-105060715D01*
X164780952Y-105060715D01*
X164590476Y-105013096D01*
X164495238Y-104965477D01*
X164400000Y-104870239D01*
X164352380Y-104727381D01*
X164352380Y-104632143D01*
X164400000Y-104489286D01*
X164447619Y-104441667D01*
X164352380Y-104108334D02*
X164352380Y-103441667D01*
X165352380Y-103870239D01*
X152033333Y-117357142D02*
X151985714Y-117404761D01*
X151842857Y-117452380D01*
X151747619Y-117452380D01*
X151604761Y-117404761D01*
X151509523Y-117309523D01*
X151461904Y-117214285D01*
X151414285Y-117023809D01*
X151414285Y-116880952D01*
X151461904Y-116690476D01*
X151509523Y-116595238D01*
X151604761Y-116500000D01*
X151747619Y-116452380D01*
X151842857Y-116452380D01*
X151985714Y-116500000D01*
X152033333Y-116547619D01*
X152604761Y-116880952D02*
X152509523Y-116833333D01*
X152461904Y-116785714D01*
X152414285Y-116690476D01*
X152414285Y-116642857D01*
X152461904Y-116547619D01*
X152509523Y-116500000D01*
X152604761Y-116452380D01*
X152795238Y-116452380D01*
X152890476Y-116500000D01*
X152938095Y-116547619D01*
X152985714Y-116642857D01*
X152985714Y-116690476D01*
X152938095Y-116785714D01*
X152890476Y-116833333D01*
X152795238Y-116880952D01*
X152604761Y-116880952D01*
X152509523Y-116928571D01*
X152461904Y-116976190D01*
X152414285Y-117071428D01*
X152414285Y-117261904D01*
X152461904Y-117357142D01*
X152509523Y-117404761D01*
X152604761Y-117452380D01*
X152795238Y-117452380D01*
X152890476Y-117404761D01*
X152938095Y-117357142D01*
X152985714Y-117261904D01*
X152985714Y-117071428D01*
X152938095Y-116976190D01*
X152890476Y-116928571D01*
X152795238Y-116880952D01*
X172170833Y-105257142D02*
X172123214Y-105304761D01*
X171980357Y-105352380D01*
X171885119Y-105352380D01*
X171742261Y-105304761D01*
X171647023Y-105209523D01*
X171599404Y-105114285D01*
X171551785Y-104923809D01*
X171551785Y-104780952D01*
X171599404Y-104590476D01*
X171647023Y-104495238D01*
X171742261Y-104400000D01*
X171885119Y-104352380D01*
X171980357Y-104352380D01*
X172123214Y-104400000D01*
X172170833Y-104447619D01*
X172647023Y-105352380D02*
X172837500Y-105352380D01*
X172932738Y-105304761D01*
X172980357Y-105257142D01*
X173075595Y-105114285D01*
X173123214Y-104923809D01*
X173123214Y-104542857D01*
X173075595Y-104447619D01*
X173027976Y-104400000D01*
X172932738Y-104352380D01*
X172742261Y-104352380D01*
X172647023Y-104400000D01*
X172599404Y-104447619D01*
X172551785Y-104542857D01*
X172551785Y-104780952D01*
X172599404Y-104876190D01*
X172647023Y-104923809D01*
X172742261Y-104971428D01*
X172932738Y-104971428D01*
X173027976Y-104923809D01*
X173075595Y-104876190D01*
X173123214Y-104780952D01*
X174507142Y-124205357D02*
X174554761Y-124252976D01*
X174602380Y-124395833D01*
X174602380Y-124491071D01*
X174554761Y-124633928D01*
X174459523Y-124729166D01*
X174364285Y-124776785D01*
X174173809Y-124824404D01*
X174030952Y-124824404D01*
X173840476Y-124776785D01*
X173745238Y-124729166D01*
X173650000Y-124633928D01*
X173602380Y-124491071D01*
X173602380Y-124395833D01*
X173650000Y-124252976D01*
X173697619Y-124205357D01*
X174602380Y-123252976D02*
X174602380Y-123824404D01*
X174602380Y-123538690D02*
X173602380Y-123538690D01*
X173745238Y-123633928D01*
X173840476Y-123729166D01*
X173888095Y-123824404D01*
X174602380Y-122300595D02*
X174602380Y-122872023D01*
X174602380Y-122586309D02*
X173602380Y-122586309D01*
X173745238Y-122681547D01*
X173840476Y-122776785D01*
X173888095Y-122872023D01*
X165207142Y-122005356D02*
X165254761Y-122052975D01*
X165302380Y-122195832D01*
X165302380Y-122291070D01*
X165254761Y-122433927D01*
X165159523Y-122529165D01*
X165064285Y-122576784D01*
X164873809Y-122624403D01*
X164730952Y-122624403D01*
X164540476Y-122576784D01*
X164445238Y-122529165D01*
X164350000Y-122433927D01*
X164302380Y-122291070D01*
X164302380Y-122195832D01*
X164350000Y-122052975D01*
X164397619Y-122005356D01*
X165302380Y-121052975D02*
X165302380Y-121624403D01*
X165302380Y-121338689D02*
X164302380Y-121338689D01*
X164445238Y-121433927D01*
X164540476Y-121529165D01*
X164588095Y-121624403D01*
X164635714Y-120195832D02*
X165302380Y-120195832D01*
X164254761Y-120433927D02*
X164969047Y-120672022D01*
X164969047Y-120052975D01*
X171694642Y-102257142D02*
X171647023Y-102304761D01*
X171504166Y-102352380D01*
X171408928Y-102352380D01*
X171266071Y-102304761D01*
X171170833Y-102209523D01*
X171123214Y-102114285D01*
X171075595Y-101923809D01*
X171075595Y-101780952D01*
X171123214Y-101590476D01*
X171170833Y-101495238D01*
X171266071Y-101400000D01*
X171408928Y-101352380D01*
X171504166Y-101352380D01*
X171647023Y-101400000D01*
X171694642Y-101447619D01*
X172647023Y-102352380D02*
X172075595Y-102352380D01*
X172361309Y-102352380D02*
X172361309Y-101352380D01*
X172266071Y-101495238D01*
X172170833Y-101590476D01*
X172075595Y-101638095D01*
X172980357Y-101352380D02*
X173647023Y-101352380D01*
X173218452Y-102352380D01*
X163332142Y-102857142D02*
X163284523Y-102904761D01*
X163141666Y-102952380D01*
X163046428Y-102952380D01*
X162903571Y-102904761D01*
X162808333Y-102809523D01*
X162760714Y-102714285D01*
X162713095Y-102523809D01*
X162713095Y-102380952D01*
X162760714Y-102190476D01*
X162808333Y-102095238D01*
X162903571Y-102000000D01*
X163046428Y-101952380D01*
X163141666Y-101952380D01*
X163284523Y-102000000D01*
X163332142Y-102047619D01*
X163713095Y-102047619D02*
X163760714Y-102000000D01*
X163855952Y-101952380D01*
X164094047Y-101952380D01*
X164189285Y-102000000D01*
X164236904Y-102047619D01*
X164284523Y-102142857D01*
X164284523Y-102238095D01*
X164236904Y-102380952D01*
X163665476Y-102952380D01*
X164284523Y-102952380D01*
X164617857Y-101952380D02*
X165236904Y-101952380D01*
X164903571Y-102333333D01*
X165046428Y-102333333D01*
X165141666Y-102380952D01*
X165189285Y-102428571D01*
X165236904Y-102523809D01*
X165236904Y-102761904D01*
X165189285Y-102857142D01*
X165141666Y-102904761D01*
X165046428Y-102952380D01*
X164760714Y-102952380D01*
X164665476Y-102904761D01*
X164617857Y-102857142D01*
X163532142Y-101557142D02*
X163484523Y-101604761D01*
X163341666Y-101652380D01*
X163246428Y-101652380D01*
X163103571Y-101604761D01*
X163008333Y-101509523D01*
X162960714Y-101414285D01*
X162913095Y-101223809D01*
X162913095Y-101080952D01*
X162960714Y-100890476D01*
X163008333Y-100795238D01*
X163103571Y-100700000D01*
X163246428Y-100652380D01*
X163341666Y-100652380D01*
X163484523Y-100700000D01*
X163532142Y-100747619D01*
X163913095Y-100747619D02*
X163960714Y-100700000D01*
X164055952Y-100652380D01*
X164294047Y-100652380D01*
X164389285Y-100700000D01*
X164436904Y-100747619D01*
X164484523Y-100842857D01*
X164484523Y-100938095D01*
X164436904Y-101080952D01*
X163865476Y-101652380D01*
X164484523Y-101652380D01*
X165341666Y-100985714D02*
X165341666Y-101652380D01*
X165103571Y-100604761D02*
X164865476Y-101319047D01*
X165484523Y-101319047D01*
X193882380Y-86225596D02*
X192882380Y-86225596D01*
X192882380Y-85987501D01*
X192930000Y-85844643D01*
X193025238Y-85749405D01*
X193120476Y-85701786D01*
X193310952Y-85654167D01*
X193453809Y-85654167D01*
X193644285Y-85701786D01*
X193739523Y-85749405D01*
X193834761Y-85844643D01*
X193882380Y-85987501D01*
X193882380Y-86225596D01*
X193215714Y-84797024D02*
X193882380Y-84797024D01*
X192834761Y-85035120D02*
X193549047Y-85273215D01*
X193549047Y-84654167D01*
X145266666Y-85222380D02*
X145266666Y-85936666D01*
X145219047Y-86079523D01*
X145123809Y-86174761D01*
X144980952Y-86222380D01*
X144885714Y-86222380D01*
X146171428Y-85555714D02*
X146171428Y-86222380D01*
X145933333Y-85174761D02*
X145695238Y-85889047D01*
X146314285Y-85889047D01*
X208202380Y-101283333D02*
X208916666Y-101283333D01*
X209059523Y-101330952D01*
X209154761Y-101426190D01*
X209202380Y-101569047D01*
X209202380Y-101664285D01*
X208202380Y-100902380D02*
X208202380Y-100235714D01*
X209202380Y-100664285D01*
X152133333Y-115852380D02*
X151657142Y-115852380D01*
X151657142Y-114852380D01*
X152419047Y-114947619D02*
X152466666Y-114900000D01*
X152561904Y-114852380D01*
X152800000Y-114852380D01*
X152895238Y-114900000D01*
X152942857Y-114947619D01*
X152990476Y-115042857D01*
X152990476Y-115138095D01*
X152942857Y-115280952D01*
X152371428Y-115852380D01*
X152990476Y-115852380D01*
X191022380Y-89254167D02*
X190546190Y-89587501D01*
X191022380Y-89825596D02*
X190022380Y-89825596D01*
X190022380Y-89444643D01*
X190070000Y-89349405D01*
X190117619Y-89301786D01*
X190212857Y-89254167D01*
X190355714Y-89254167D01*
X190450952Y-89301786D01*
X190498571Y-89349405D01*
X190546190Y-89444643D01*
X190546190Y-89825596D01*
X190022380Y-88920834D02*
X190022380Y-88254167D01*
X191022380Y-88682739D01*
X155123809Y-102076190D02*
X155123809Y-102552380D01*
X154790476Y-101552380D02*
X155123809Y-102076190D01*
X155457142Y-101552380D01*
X155695238Y-101552380D02*
X156314285Y-101552380D01*
X155980952Y-101933333D01*
X156123809Y-101933333D01*
X156219047Y-101980952D01*
X156266666Y-102028571D01*
X156314285Y-102123809D01*
X156314285Y-102361904D01*
X156266666Y-102457142D01*
X156219047Y-102504761D01*
X156123809Y-102552380D01*
X155838095Y-102552380D01*
X155742857Y-102504761D01*
X155695238Y-102457142D01*
X178519642Y-93757142D02*
X178472023Y-93804761D01*
X178329166Y-93852380D01*
X178233928Y-93852380D01*
X178091071Y-93804761D01*
X177995833Y-93709523D01*
X177948214Y-93614285D01*
X177900595Y-93423809D01*
X177900595Y-93280952D01*
X177948214Y-93090476D01*
X177995833Y-92995238D01*
X178091071Y-92900000D01*
X178233928Y-92852380D01*
X178329166Y-92852380D01*
X178472023Y-92900000D01*
X178519642Y-92947619D01*
X179472023Y-93852380D02*
X178900595Y-93852380D01*
X179186309Y-93852380D02*
X179186309Y-92852380D01*
X179091071Y-92995238D01*
X178995833Y-93090476D01*
X178900595Y-93138095D01*
X180091071Y-92852380D02*
X180186309Y-92852380D01*
X180281547Y-92900000D01*
X180329166Y-92947619D01*
X180376785Y-93042857D01*
X180424404Y-93233333D01*
X180424404Y-93471428D01*
X180376785Y-93661904D01*
X180329166Y-93757142D01*
X180281547Y-93804761D01*
X180186309Y-93852380D01*
X180091071Y-93852380D01*
X179995833Y-93804761D01*
X179948214Y-93757142D01*
X179900595Y-93661904D01*
X179852976Y-93471428D01*
X179852976Y-93233333D01*
X179900595Y-93042857D01*
X179948214Y-92947619D01*
X179995833Y-92900000D01*
X180091071Y-92852380D01*
X178494642Y-96757142D02*
X178447023Y-96804761D01*
X178304166Y-96852380D01*
X178208928Y-96852380D01*
X178066071Y-96804761D01*
X177970833Y-96709523D01*
X177923214Y-96614285D01*
X177875595Y-96423809D01*
X177875595Y-96280952D01*
X177923214Y-96090476D01*
X177970833Y-95995238D01*
X178066071Y-95900000D01*
X178208928Y-95852380D01*
X178304166Y-95852380D01*
X178447023Y-95900000D01*
X178494642Y-95947619D01*
X179447023Y-96852380D02*
X178875595Y-96852380D01*
X179161309Y-96852380D02*
X179161309Y-95852380D01*
X179066071Y-95995238D01*
X178970833Y-96090476D01*
X178875595Y-96138095D01*
X179827976Y-95947619D02*
X179875595Y-95900000D01*
X179970833Y-95852380D01*
X180208928Y-95852380D01*
X180304166Y-95900000D01*
X180351785Y-95947619D01*
X180399404Y-96042857D01*
X180399404Y-96138095D01*
X180351785Y-96280952D01*
X179780357Y-96852380D01*
X180399404Y-96852380D01*
X173966666Y-135512380D02*
X173966666Y-136226666D01*
X173919047Y-136369523D01*
X173823809Y-136464761D01*
X173680952Y-136512380D01*
X173585714Y-136512380D01*
X174966666Y-136512380D02*
X174395238Y-136512380D01*
X174680952Y-136512380D02*
X174680952Y-135512380D01*
X174585714Y-135655238D01*
X174490476Y-135750476D01*
X174395238Y-135798095D01*
X145266666Y-124022380D02*
X145266666Y-124736666D01*
X145219047Y-124879523D01*
X145123809Y-124974761D01*
X144980952Y-125022380D01*
X144885714Y-125022380D01*
X146219047Y-124022380D02*
X145742857Y-124022380D01*
X145695238Y-124498571D01*
X145742857Y-124450952D01*
X145838095Y-124403333D01*
X146076190Y-124403333D01*
X146171428Y-124450952D01*
X146219047Y-124498571D01*
X146266666Y-124593809D01*
X146266666Y-124831904D01*
X146219047Y-124927142D01*
X146171428Y-124974761D01*
X146076190Y-125022380D01*
X145838095Y-125022380D01*
X145742857Y-124974761D01*
X145695238Y-124927142D01*
X148622380Y-126433333D02*
X149336666Y-126433333D01*
X149479523Y-126480952D01*
X149574761Y-126576190D01*
X149622380Y-126719047D01*
X149622380Y-126814285D01*
X148622380Y-125528571D02*
X148622380Y-125719047D01*
X148670000Y-125814285D01*
X148717619Y-125861904D01*
X148860476Y-125957142D01*
X149050952Y-126004761D01*
X149431904Y-126004761D01*
X149527142Y-125957142D01*
X149574761Y-125909523D01*
X149622380Y-125814285D01*
X149622380Y-125623809D01*
X149574761Y-125528571D01*
X149527142Y-125480952D01*
X149431904Y-125433333D01*
X149193809Y-125433333D01*
X149098571Y-125480952D01*
X149050952Y-125528571D01*
X149003333Y-125623809D01*
X149003333Y-125814285D01*
X149050952Y-125909523D01*
X149098571Y-125957142D01*
X149193809Y-126004761D01*
X155390476Y-66092380D02*
X155390476Y-66806666D01*
X155342857Y-66949523D01*
X155247619Y-67044761D01*
X155104761Y-67092380D01*
X155009523Y-67092380D01*
X156390476Y-67092380D02*
X155819047Y-67092380D01*
X156104761Y-67092380D02*
X156104761Y-66092380D01*
X156009523Y-66235238D01*
X155914285Y-66330476D01*
X155819047Y-66378095D01*
X157295238Y-66092380D02*
X156819047Y-66092380D01*
X156771428Y-66568571D01*
X156819047Y-66520952D01*
X156914285Y-66473333D01*
X157152380Y-66473333D01*
X157247619Y-66520952D01*
X157295238Y-66568571D01*
X157342857Y-66663809D01*
X157342857Y-66901904D01*
X157295238Y-66997142D01*
X157247619Y-67044761D01*
X157152380Y-67092380D01*
X156914285Y-67092380D01*
X156819047Y-67044761D01*
X156771428Y-66997142D01*
M02*
