G04 #@! TF.GenerationSoftware,KiCad,Pcbnew,5.1.2*
G04 #@! TF.CreationDate,2019-05-24T08:55:17-05:00*
G04 #@! TF.ProjectId,Cluster,436c7573-7465-4722-9e6b-696361645f70,rev?*
G04 #@! TF.SameCoordinates,Original*
G04 #@! TF.FileFunction,Copper,L2,Bot*
G04 #@! TF.FilePolarity,Positive*
%FSLAX46Y46*%
G04 Gerber Fmt 4.6, Leading zero omitted, Abs format (unit mm)*
G04 Created by KiCad (PCBNEW 5.1.2) date 2019-05-24 08:55:17*
%MOMM*%
%LPD*%
G04 APERTURE LIST*
%ADD10C,4.700000*%
%ADD11O,1.700000X1.700000*%
%ADD12R,1.700000X1.700000*%
%ADD13R,0.850000X0.850000*%
%ADD14O,0.850000X0.850000*%
%ADD15R,1.000000X1.250000*%
%ADD16R,1.600000X1.000000*%
%ADD17R,2.500000X2.500000*%
%ADD18C,2.500000*%
%ADD19C,0.800000*%
%ADD20C,0.250000*%
%ADD21C,0.254000*%
G04 APERTURE END LIST*
D10*
X147500000Y-138000000D03*
X241000000Y-138000000D03*
X241000000Y-70500000D03*
X147500000Y-70500000D03*
D11*
X186000000Y-115580000D03*
X186000000Y-113040000D03*
D12*
X186000000Y-110500000D03*
X186000000Y-99000000D03*
D11*
X186000000Y-101540000D03*
X186000000Y-104080000D03*
D13*
X197900000Y-78000000D03*
D14*
X197900000Y-79000000D03*
X197900000Y-80000000D03*
X197900000Y-81000000D03*
X197900000Y-82000000D03*
X197900000Y-83000000D03*
X197900000Y-84000000D03*
X197900000Y-85000000D03*
X197900000Y-86000000D03*
X197900000Y-87000000D03*
X197900000Y-88000000D03*
X197900000Y-89000000D03*
X197900000Y-90000000D03*
X197900000Y-91000000D03*
X197900000Y-92000000D03*
X197900000Y-93000000D03*
X197900000Y-94000000D03*
X197900000Y-95000000D03*
X197900000Y-96000000D03*
X197900000Y-97000000D03*
X197900000Y-98000000D03*
X197900000Y-99000000D03*
X197900000Y-100000000D03*
X197900000Y-101000000D03*
X197900000Y-102000000D03*
X197900000Y-103000000D03*
X197900000Y-104000000D03*
X197900000Y-105000000D03*
X197900000Y-106000000D03*
X197900000Y-107000000D03*
X197900000Y-108000000D03*
X197900000Y-109000000D03*
X197900000Y-110000000D03*
X197900000Y-111000000D03*
X197900000Y-112000000D03*
X197900000Y-113000000D03*
X197900000Y-114000000D03*
X197900000Y-115000000D03*
X197900000Y-116000000D03*
X197900000Y-117000000D03*
D12*
X192900000Y-115579999D03*
D11*
X192900000Y-113039999D03*
X192900000Y-110499999D03*
D12*
X155800000Y-88000000D03*
X179500000Y-108500000D03*
D11*
X182040000Y-108500000D03*
X193500000Y-104080000D03*
X193500000Y-101540000D03*
D12*
X193500000Y-99000000D03*
X190000000Y-80000000D03*
D15*
X216000000Y-68250000D03*
X214000000Y-68250000D03*
X202500000Y-68250000D03*
X204500000Y-68250000D03*
X193000000Y-68250000D03*
X191000000Y-68250000D03*
X179500000Y-68250000D03*
X181500000Y-68250000D03*
X170000000Y-68250000D03*
X168000000Y-68250000D03*
D16*
X213500000Y-70300000D03*
X213500000Y-73500000D03*
X208500000Y-70300000D03*
X208500000Y-73500000D03*
X197000000Y-73500000D03*
X197000000Y-70300000D03*
X202000000Y-73500000D03*
X202000000Y-70300000D03*
X190500000Y-70300000D03*
X190500000Y-73500000D03*
X185500000Y-70300000D03*
X185500000Y-73500000D03*
X174000000Y-73500000D03*
X174000000Y-70300000D03*
X179000000Y-73500000D03*
X179000000Y-70300000D03*
X167500000Y-70300000D03*
X167500000Y-73500000D03*
X162500000Y-70300000D03*
X162500000Y-73500000D03*
D17*
X193050000Y-122850000D03*
D18*
X188050000Y-122850000D03*
D12*
X145600000Y-88100000D03*
D11*
X145600000Y-90640000D03*
X145600000Y-93180000D03*
X145600000Y-95720000D03*
X145600000Y-98260000D03*
X145600000Y-100800000D03*
X145600000Y-103340000D03*
X145600000Y-105880000D03*
D17*
X199300000Y-130900000D03*
D18*
X194300000Y-130900000D03*
X189300000Y-130900000D03*
X184300000Y-130900000D03*
X179300000Y-130900000D03*
X174300000Y-130900000D03*
X169300000Y-130900000D03*
X164300000Y-130900000D03*
X159300000Y-130900000D03*
X154300000Y-130900000D03*
X149300000Y-130900000D03*
D11*
X145600000Y-109540000D03*
X145600000Y-112080000D03*
X145600000Y-114620000D03*
X145600000Y-117160000D03*
X145600000Y-119700000D03*
D12*
X145600000Y-122240000D03*
X151500000Y-126100000D03*
D11*
X154040000Y-126100000D03*
X156580000Y-126100000D03*
X159120000Y-126100000D03*
X161660000Y-126100000D03*
X164200000Y-126100000D03*
D17*
X153700000Y-71800000D03*
D18*
X158700000Y-71800000D03*
D19*
X150000000Y-110000000D03*
X151000000Y-117000000D03*
X145000000Y-74500000D03*
X145000000Y-86000000D03*
X152000000Y-95500000D03*
X167000000Y-96500000D03*
X162775000Y-117319051D03*
X171000000Y-122500000D03*
X182000000Y-105500000D03*
X175500000Y-104500000D03*
X169000000Y-113250000D03*
X159000000Y-114000000D03*
X212500000Y-81750000D03*
X205000000Y-85750000D03*
X183250000Y-70000000D03*
X172250000Y-70000000D03*
X194750000Y-70000000D03*
X206750000Y-69750000D03*
X164500000Y-110000000D03*
X177250000Y-128250000D03*
X171250000Y-128750000D03*
X195600000Y-89300000D03*
X180000000Y-103000000D03*
X177000000Y-99500000D03*
X209000000Y-100000000D03*
X208500000Y-107500000D03*
X167250000Y-68250000D03*
X178250000Y-68250000D03*
X189250000Y-68250000D03*
X201000000Y-68250000D03*
X212500000Y-68250000D03*
X153000000Y-115500000D03*
X161500000Y-120600001D03*
X157627846Y-124827846D03*
X170547063Y-115162906D03*
X173500000Y-117500000D03*
X170000000Y-116000000D03*
X158987347Y-116987347D03*
X158500000Y-116000000D03*
X175500000Y-106500000D03*
X187500000Y-81000000D03*
X175500000Y-101500000D03*
X184000000Y-81000000D03*
X166500000Y-104000000D03*
X167500000Y-105000000D03*
X169000000Y-105500000D03*
X174000000Y-109000000D03*
X201700000Y-77700000D03*
X214000000Y-86500000D03*
X165100000Y-108225000D03*
X168275000Y-117100000D03*
X168225000Y-120000000D03*
X211000000Y-70000000D03*
X219000000Y-89500000D03*
X155900000Y-99500000D03*
X164800000Y-101000000D03*
D20*
X180000000Y-103000000D02*
X177000000Y-100000000D01*
X177000000Y-100000000D02*
X177000000Y-99500000D01*
X209000000Y-100000000D02*
X209000000Y-107000000D01*
X209000000Y-107000000D02*
X208500000Y-107500000D01*
X153000000Y-117250000D02*
X153000000Y-115500000D01*
X153000000Y-123880000D02*
X151380000Y-125500000D01*
X153000000Y-117250000D02*
X153000000Y-123880000D01*
X167500000Y-68500000D02*
X168000000Y-68000000D01*
X167500000Y-70300000D02*
X167500000Y-68500000D01*
X179000000Y-68500000D02*
X179500000Y-68000000D01*
X179000000Y-70300000D02*
X179000000Y-68500000D01*
X190500000Y-68500000D02*
X191000000Y-68000000D01*
X190500000Y-70300000D02*
X190500000Y-68500000D01*
X202000000Y-68500000D02*
X202500000Y-68000000D01*
X202000000Y-70300000D02*
X202000000Y-68500000D01*
X213500000Y-68500000D02*
X214000000Y-68000000D01*
X213500000Y-70300000D02*
X213500000Y-68500000D01*
X168000000Y-68250000D02*
X167250000Y-68250000D01*
X178250000Y-68250000D02*
X179500000Y-68250000D01*
X189250000Y-68250000D02*
X191000000Y-68250000D01*
X201000000Y-68250000D02*
X202500000Y-68250000D01*
X212500000Y-68250000D02*
X214000000Y-68250000D01*
X161500000Y-121165686D02*
X162399991Y-122065677D01*
X161500000Y-120600001D02*
X161500000Y-121165686D01*
X162399991Y-122065677D02*
X162399991Y-124100009D01*
X162399991Y-124100009D02*
X161800000Y-124700000D01*
X161800000Y-124700000D02*
X157900000Y-124700000D01*
X157900000Y-124700000D02*
X157755692Y-124700000D01*
X157755692Y-124700000D02*
X157627846Y-124827846D01*
X173789251Y-115162906D02*
X170547063Y-115162906D01*
X189000000Y-132000000D02*
X189000000Y-130373655D01*
X189000000Y-130373655D02*
X173789251Y-115162906D01*
X174000000Y-132000000D02*
X174000000Y-118000000D01*
X174000000Y-118000000D02*
X173500000Y-117500000D01*
X169000000Y-132000000D02*
X169000000Y-117000000D01*
X169000000Y-117000000D02*
X170000000Y-116000000D01*
X162850001Y-120850001D02*
X158987347Y-116987347D01*
X164000000Y-132000000D02*
X162850001Y-130850001D01*
X162850001Y-130850001D02*
X162850001Y-120850001D01*
X155149999Y-119350001D02*
X158500000Y-116000000D01*
X154000000Y-132000000D02*
X155149999Y-130850001D01*
X155149999Y-130850001D02*
X155149999Y-119350001D01*
X187175001Y-102715001D02*
X187175001Y-104644001D01*
X186000000Y-101540000D02*
X187175001Y-102715001D01*
X187175001Y-104644001D02*
X185319002Y-106500000D01*
X185319002Y-106500000D02*
X175500000Y-106500000D01*
X185150001Y-100690001D02*
X186000000Y-101540000D01*
X184824999Y-100364999D02*
X185150001Y-100690001D01*
X184824999Y-83675001D02*
X184824999Y-100364999D01*
X187500000Y-81000000D02*
X184824999Y-83675001D01*
X186000000Y-104080000D02*
X178080000Y-104080000D01*
X178080000Y-104080000D02*
X175500000Y-101500000D01*
X175500000Y-89500000D02*
X175500000Y-101500000D01*
X184000000Y-81000000D02*
X175500000Y-89500000D01*
X156420000Y-104000000D02*
X145500000Y-93080000D01*
X166500000Y-104000000D02*
X156420000Y-104000000D01*
X167225001Y-104725001D02*
X167500000Y-105000000D01*
X145500000Y-95620000D02*
X154380000Y-104500000D01*
X166934315Y-105000000D02*
X167500000Y-105000000D01*
X166709314Y-104774999D02*
X166934315Y-105000000D01*
X160774999Y-104774999D02*
X166709314Y-104774999D01*
X160500000Y-104500000D02*
X160774999Y-104774999D01*
X154380000Y-104500000D02*
X160500000Y-104500000D01*
X167000000Y-107500000D02*
X168274999Y-106225001D01*
X155136410Y-107500000D02*
X167000000Y-107500000D01*
X146646409Y-99009999D02*
X155136410Y-107500000D01*
X168274999Y-106225001D02*
X169000000Y-105500000D01*
X145500000Y-98160000D02*
X146349999Y-99009999D01*
X146349999Y-99009999D02*
X146646409Y-99009999D01*
X146349999Y-101549999D02*
X148549999Y-101549999D01*
X145500000Y-100700000D02*
X146349999Y-101549999D01*
X148549999Y-101549999D02*
X156000000Y-109000000D01*
X156000000Y-109000000D02*
X174000000Y-109000000D01*
X210500000Y-86500000D02*
X214000000Y-86500000D01*
X174049990Y-107950010D02*
X175100001Y-106899999D01*
X165940675Y-107950010D02*
X174049990Y-107950010D01*
X175100001Y-106899999D02*
X175500000Y-106500000D01*
X165665685Y-108225000D02*
X165940675Y-107950010D01*
X165100000Y-108225000D02*
X165665685Y-108225000D01*
X197298960Y-87000000D02*
X197900000Y-87000000D01*
X197149999Y-87148961D02*
X197298960Y-87000000D01*
X194064001Y-102715001D02*
X197149999Y-99629003D01*
X193125997Y-102715001D02*
X194064001Y-102715001D01*
X188540998Y-107300000D02*
X193125997Y-102715001D01*
X177336967Y-107300000D02*
X188540998Y-107300000D01*
X168549990Y-116825010D02*
X168549990Y-116086977D01*
X197149999Y-99629003D02*
X197149999Y-87148961D01*
X168549990Y-116086977D02*
X177336967Y-107300000D01*
X168275000Y-117100000D02*
X168549990Y-116825010D01*
X201700000Y-77700000D02*
X210500000Y-86500000D01*
X198050000Y-70300000D02*
X197000000Y-70300000D01*
X198875001Y-71125001D02*
X198050000Y-70300000D01*
X210075001Y-71125001D02*
X198875001Y-71125001D01*
X212450000Y-73500000D02*
X210075001Y-71125001D01*
X213500000Y-73500000D02*
X212450000Y-73500000D01*
X211000000Y-70000000D02*
X208800000Y-70000000D01*
X208800000Y-70000000D02*
X208500000Y-70300000D01*
X202974990Y-104952008D02*
X217426998Y-90500000D01*
X167524999Y-120700001D02*
X167524999Y-132708001D01*
X167524999Y-132708001D02*
X168291999Y-133475001D01*
X168291999Y-133475001D02*
X199708001Y-133475001D01*
X168225000Y-120000000D02*
X167524999Y-120700001D01*
X199708001Y-133475001D02*
X202974990Y-130208012D01*
X202974990Y-130208012D02*
X202974990Y-104952008D01*
X217426998Y-90500000D02*
X218000000Y-90500000D01*
X218000000Y-90500000D02*
X219000000Y-89500000D01*
X186550000Y-70300000D02*
X185500000Y-70300000D01*
X187375001Y-71125001D02*
X186550000Y-70300000D01*
X198238591Y-71125001D02*
X187375001Y-71125001D01*
X200613590Y-73500000D02*
X198238591Y-71125001D01*
X202000000Y-73500000D02*
X200613590Y-73500000D01*
X175875001Y-71125001D02*
X175050000Y-70300000D01*
X186738591Y-71125001D02*
X175875001Y-71125001D01*
X175050000Y-70300000D02*
X174000000Y-70300000D01*
X189113590Y-73500000D02*
X186738591Y-71125001D01*
X190500000Y-73500000D02*
X189113590Y-73500000D01*
X175238591Y-71125001D02*
X164375001Y-71125001D01*
X177613590Y-73500000D02*
X175238591Y-71125001D01*
X163550000Y-70300000D02*
X162500000Y-70300000D01*
X164375001Y-71125001D02*
X163550000Y-70300000D01*
X179000000Y-73500000D02*
X177613590Y-73500000D01*
X155900000Y-99500000D02*
X163300000Y-99500000D01*
X163300000Y-99500000D02*
X164800000Y-101000000D01*
D21*
G36*
X166215000Y-68351939D02*
G01*
X166254774Y-68551898D01*
X166332795Y-68740256D01*
X166446063Y-68909774D01*
X166590226Y-69053937D01*
X166740001Y-69154013D01*
X166740001Y-69161928D01*
X166700000Y-69161928D01*
X166575518Y-69174188D01*
X166455820Y-69210498D01*
X166345506Y-69269463D01*
X166248815Y-69348815D01*
X166169463Y-69445506D01*
X166110498Y-69555820D01*
X166074188Y-69675518D01*
X166061928Y-69800000D01*
X166061928Y-70365001D01*
X164689803Y-70365001D01*
X164113803Y-69789002D01*
X164090001Y-69759999D01*
X163974276Y-69665026D01*
X163912634Y-69632077D01*
X163889502Y-69555820D01*
X163830537Y-69445506D01*
X163751185Y-69348815D01*
X163654494Y-69269463D01*
X163544180Y-69210498D01*
X163424482Y-69174188D01*
X163300000Y-69161928D01*
X161700000Y-69161928D01*
X161575518Y-69174188D01*
X161455820Y-69210498D01*
X161345506Y-69269463D01*
X161248815Y-69348815D01*
X161169463Y-69445506D01*
X161110498Y-69555820D01*
X161074188Y-69675518D01*
X161061928Y-69800000D01*
X161061928Y-70800000D01*
X161074188Y-70924482D01*
X161110498Y-71044180D01*
X161169463Y-71154494D01*
X161248815Y-71251185D01*
X161345506Y-71330537D01*
X161455820Y-71389502D01*
X161575518Y-71425812D01*
X161700000Y-71438072D01*
X163300000Y-71438072D01*
X163424482Y-71425812D01*
X163544180Y-71389502D01*
X163557552Y-71382354D01*
X163811202Y-71636003D01*
X163835000Y-71665002D01*
X163863998Y-71688800D01*
X163950725Y-71759975D01*
X164082754Y-71830547D01*
X164226015Y-71874004D01*
X164375001Y-71888678D01*
X164412334Y-71885001D01*
X174923790Y-71885001D01*
X177049791Y-74011003D01*
X177073589Y-74040001D01*
X177189314Y-74134974D01*
X177321343Y-74205546D01*
X177464604Y-74249003D01*
X177576257Y-74260000D01*
X177576265Y-74260000D01*
X177613590Y-74263676D01*
X177620552Y-74262990D01*
X177669463Y-74354494D01*
X177748815Y-74451185D01*
X177845506Y-74530537D01*
X177955820Y-74589502D01*
X178075518Y-74625812D01*
X178200000Y-74638072D01*
X179800000Y-74638072D01*
X179924482Y-74625812D01*
X180044180Y-74589502D01*
X180154494Y-74530537D01*
X180251185Y-74451185D01*
X180330537Y-74354494D01*
X180389502Y-74244180D01*
X180425812Y-74124482D01*
X180438072Y-74000000D01*
X184061928Y-74000000D01*
X184074188Y-74124482D01*
X184110498Y-74244180D01*
X184169463Y-74354494D01*
X184248815Y-74451185D01*
X184345506Y-74530537D01*
X184455820Y-74589502D01*
X184575518Y-74625812D01*
X184700000Y-74638072D01*
X185214250Y-74635000D01*
X185373000Y-74476250D01*
X185373000Y-73627000D01*
X185627000Y-73627000D01*
X185627000Y-74476250D01*
X185785750Y-74635000D01*
X186300000Y-74638072D01*
X186424482Y-74625812D01*
X186544180Y-74589502D01*
X186654494Y-74530537D01*
X186751185Y-74451185D01*
X186830537Y-74354494D01*
X186889502Y-74244180D01*
X186925812Y-74124482D01*
X186938072Y-74000000D01*
X186935000Y-73785750D01*
X186776250Y-73627000D01*
X185627000Y-73627000D01*
X185373000Y-73627000D01*
X184223750Y-73627000D01*
X184065000Y-73785750D01*
X184061928Y-74000000D01*
X180438072Y-74000000D01*
X180438072Y-73000000D01*
X184061928Y-73000000D01*
X184065000Y-73214250D01*
X184223750Y-73373000D01*
X185373000Y-73373000D01*
X185373000Y-72523750D01*
X185627000Y-72523750D01*
X185627000Y-73373000D01*
X186776250Y-73373000D01*
X186935000Y-73214250D01*
X186938072Y-73000000D01*
X186925812Y-72875518D01*
X186889502Y-72755820D01*
X186830537Y-72645506D01*
X186751185Y-72548815D01*
X186654494Y-72469463D01*
X186544180Y-72410498D01*
X186424482Y-72374188D01*
X186300000Y-72361928D01*
X185785750Y-72365000D01*
X185627000Y-72523750D01*
X185373000Y-72523750D01*
X185214250Y-72365000D01*
X184700000Y-72361928D01*
X184575518Y-72374188D01*
X184455820Y-72410498D01*
X184345506Y-72469463D01*
X184248815Y-72548815D01*
X184169463Y-72645506D01*
X184110498Y-72755820D01*
X184074188Y-72875518D01*
X184061928Y-73000000D01*
X180438072Y-73000000D01*
X180425812Y-72875518D01*
X180389502Y-72755820D01*
X180330537Y-72645506D01*
X180251185Y-72548815D01*
X180154494Y-72469463D01*
X180044180Y-72410498D01*
X179924482Y-72374188D01*
X179800000Y-72361928D01*
X178200000Y-72361928D01*
X178075518Y-72374188D01*
X177955820Y-72410498D01*
X177845506Y-72469463D01*
X177748815Y-72548815D01*
X177743583Y-72555191D01*
X177073393Y-71885001D01*
X186423790Y-71885001D01*
X188549791Y-74011003D01*
X188573589Y-74040001D01*
X188689314Y-74134974D01*
X188821343Y-74205546D01*
X188964604Y-74249003D01*
X189076257Y-74260000D01*
X189076265Y-74260000D01*
X189113590Y-74263676D01*
X189120552Y-74262990D01*
X189169463Y-74354494D01*
X189248815Y-74451185D01*
X189345506Y-74530537D01*
X189455820Y-74589502D01*
X189575518Y-74625812D01*
X189700000Y-74638072D01*
X191300000Y-74638072D01*
X191424482Y-74625812D01*
X191544180Y-74589502D01*
X191654494Y-74530537D01*
X191751185Y-74451185D01*
X191830537Y-74354494D01*
X191889502Y-74244180D01*
X191925812Y-74124482D01*
X191938072Y-74000000D01*
X195561928Y-74000000D01*
X195574188Y-74124482D01*
X195610498Y-74244180D01*
X195669463Y-74354494D01*
X195748815Y-74451185D01*
X195845506Y-74530537D01*
X195955820Y-74589502D01*
X196075518Y-74625812D01*
X196200000Y-74638072D01*
X196714250Y-74635000D01*
X196873000Y-74476250D01*
X196873000Y-73627000D01*
X197127000Y-73627000D01*
X197127000Y-74476250D01*
X197285750Y-74635000D01*
X197800000Y-74638072D01*
X197924482Y-74625812D01*
X198044180Y-74589502D01*
X198154494Y-74530537D01*
X198251185Y-74451185D01*
X198330537Y-74354494D01*
X198389502Y-74244180D01*
X198425812Y-74124482D01*
X198438072Y-74000000D01*
X198435000Y-73785750D01*
X198276250Y-73627000D01*
X197127000Y-73627000D01*
X196873000Y-73627000D01*
X195723750Y-73627000D01*
X195565000Y-73785750D01*
X195561928Y-74000000D01*
X191938072Y-74000000D01*
X191938072Y-73000000D01*
X195561928Y-73000000D01*
X195565000Y-73214250D01*
X195723750Y-73373000D01*
X196873000Y-73373000D01*
X196873000Y-72523750D01*
X197127000Y-72523750D01*
X197127000Y-73373000D01*
X198276250Y-73373000D01*
X198435000Y-73214250D01*
X198438072Y-73000000D01*
X198425812Y-72875518D01*
X198389502Y-72755820D01*
X198330537Y-72645506D01*
X198251185Y-72548815D01*
X198154494Y-72469463D01*
X198044180Y-72410498D01*
X197924482Y-72374188D01*
X197800000Y-72361928D01*
X197285750Y-72365000D01*
X197127000Y-72523750D01*
X196873000Y-72523750D01*
X196714250Y-72365000D01*
X196200000Y-72361928D01*
X196075518Y-72374188D01*
X195955820Y-72410498D01*
X195845506Y-72469463D01*
X195748815Y-72548815D01*
X195669463Y-72645506D01*
X195610498Y-72755820D01*
X195574188Y-72875518D01*
X195561928Y-73000000D01*
X191938072Y-73000000D01*
X191925812Y-72875518D01*
X191889502Y-72755820D01*
X191830537Y-72645506D01*
X191751185Y-72548815D01*
X191654494Y-72469463D01*
X191544180Y-72410498D01*
X191424482Y-72374188D01*
X191300000Y-72361928D01*
X189700000Y-72361928D01*
X189575518Y-72374188D01*
X189455820Y-72410498D01*
X189345506Y-72469463D01*
X189248815Y-72548815D01*
X189243583Y-72555191D01*
X188573393Y-71885001D01*
X197923790Y-71885001D01*
X200049791Y-74011003D01*
X200073589Y-74040001D01*
X200189314Y-74134974D01*
X200321343Y-74205546D01*
X200464604Y-74249003D01*
X200576257Y-74260000D01*
X200576265Y-74260000D01*
X200613590Y-74263676D01*
X200620552Y-74262990D01*
X200669463Y-74354494D01*
X200748815Y-74451185D01*
X200845506Y-74530537D01*
X200955820Y-74589502D01*
X201075518Y-74625812D01*
X201200000Y-74638072D01*
X202800000Y-74638072D01*
X202924482Y-74625812D01*
X203044180Y-74589502D01*
X203154494Y-74530537D01*
X203251185Y-74451185D01*
X203330537Y-74354494D01*
X203389502Y-74244180D01*
X203425812Y-74124482D01*
X203438072Y-74000000D01*
X207061928Y-74000000D01*
X207074188Y-74124482D01*
X207110498Y-74244180D01*
X207169463Y-74354494D01*
X207248815Y-74451185D01*
X207345506Y-74530537D01*
X207455820Y-74589502D01*
X207575518Y-74625812D01*
X207700000Y-74638072D01*
X208214250Y-74635000D01*
X208373000Y-74476250D01*
X208373000Y-73627000D01*
X208627000Y-73627000D01*
X208627000Y-74476250D01*
X208785750Y-74635000D01*
X209300000Y-74638072D01*
X209424482Y-74625812D01*
X209544180Y-74589502D01*
X209654494Y-74530537D01*
X209751185Y-74451185D01*
X209830537Y-74354494D01*
X209889502Y-74244180D01*
X209925812Y-74124482D01*
X209938072Y-74000000D01*
X209935000Y-73785750D01*
X209776250Y-73627000D01*
X208627000Y-73627000D01*
X208373000Y-73627000D01*
X207223750Y-73627000D01*
X207065000Y-73785750D01*
X207061928Y-74000000D01*
X203438072Y-74000000D01*
X203438072Y-73000000D01*
X207061928Y-73000000D01*
X207065000Y-73214250D01*
X207223750Y-73373000D01*
X208373000Y-73373000D01*
X208373000Y-72523750D01*
X208627000Y-72523750D01*
X208627000Y-73373000D01*
X209776250Y-73373000D01*
X209935000Y-73214250D01*
X209938072Y-73000000D01*
X209925812Y-72875518D01*
X209889502Y-72755820D01*
X209830537Y-72645506D01*
X209751185Y-72548815D01*
X209654494Y-72469463D01*
X209544180Y-72410498D01*
X209424482Y-72374188D01*
X209300000Y-72361928D01*
X208785750Y-72365000D01*
X208627000Y-72523750D01*
X208373000Y-72523750D01*
X208214250Y-72365000D01*
X207700000Y-72361928D01*
X207575518Y-72374188D01*
X207455820Y-72410498D01*
X207345506Y-72469463D01*
X207248815Y-72548815D01*
X207169463Y-72645506D01*
X207110498Y-72755820D01*
X207074188Y-72875518D01*
X207061928Y-73000000D01*
X203438072Y-73000000D01*
X203425812Y-72875518D01*
X203389502Y-72755820D01*
X203330537Y-72645506D01*
X203251185Y-72548815D01*
X203154494Y-72469463D01*
X203044180Y-72410498D01*
X202924482Y-72374188D01*
X202800000Y-72361928D01*
X201200000Y-72361928D01*
X201075518Y-72374188D01*
X200955820Y-72410498D01*
X200845506Y-72469463D01*
X200748815Y-72548815D01*
X200743583Y-72555191D01*
X200073393Y-71885001D01*
X209760200Y-71885001D01*
X211886201Y-74011003D01*
X211909999Y-74040001D01*
X212025724Y-74134974D01*
X212087366Y-74167923D01*
X212110498Y-74244180D01*
X212169463Y-74354494D01*
X212248815Y-74451185D01*
X212345506Y-74530537D01*
X212455820Y-74589502D01*
X212575518Y-74625812D01*
X212700000Y-74638072D01*
X214300000Y-74638072D01*
X214424482Y-74625812D01*
X214544180Y-74589502D01*
X214654494Y-74530537D01*
X214751185Y-74451185D01*
X214830537Y-74354494D01*
X214889502Y-74244180D01*
X214925812Y-74124482D01*
X214938072Y-74000000D01*
X214938072Y-73000000D01*
X214925812Y-72875518D01*
X214889502Y-72755820D01*
X214830537Y-72645506D01*
X214751185Y-72548815D01*
X214654494Y-72469463D01*
X214544180Y-72410498D01*
X214424482Y-72374188D01*
X214300000Y-72361928D01*
X212700000Y-72361928D01*
X212575518Y-72374188D01*
X212455820Y-72410498D01*
X212442448Y-72417646D01*
X211059801Y-71035000D01*
X211101939Y-71035000D01*
X211301898Y-70995226D01*
X211490256Y-70917205D01*
X211659774Y-70803937D01*
X211803937Y-70659774D01*
X211917205Y-70490256D01*
X211995226Y-70301898D01*
X212035000Y-70101939D01*
X212035000Y-69898061D01*
X211995226Y-69698102D01*
X211917205Y-69509744D01*
X211803937Y-69340226D01*
X211659774Y-69196063D01*
X211490256Y-69082795D01*
X211301898Y-69004774D01*
X211101939Y-68965000D01*
X210898061Y-68965000D01*
X210698102Y-69004774D01*
X210509744Y-69082795D01*
X210340226Y-69196063D01*
X210296289Y-69240000D01*
X209599373Y-69240000D01*
X209544180Y-69210498D01*
X209424482Y-69174188D01*
X209300000Y-69161928D01*
X207700000Y-69161928D01*
X207575518Y-69174188D01*
X207455820Y-69210498D01*
X207345506Y-69269463D01*
X207248815Y-69348815D01*
X207169463Y-69445506D01*
X207110498Y-69555820D01*
X207074188Y-69675518D01*
X207061928Y-69800000D01*
X207061928Y-70365001D01*
X203438072Y-70365001D01*
X203438072Y-69800000D01*
X203425812Y-69675518D01*
X203389502Y-69555820D01*
X203330537Y-69445506D01*
X203315042Y-69426625D01*
X203354494Y-69405537D01*
X203451185Y-69326185D01*
X203500000Y-69266704D01*
X203548815Y-69326185D01*
X203645506Y-69405537D01*
X203755820Y-69464502D01*
X203875518Y-69500812D01*
X204000000Y-69513072D01*
X204214250Y-69510000D01*
X204373000Y-69351250D01*
X204373000Y-68377000D01*
X204627000Y-68377000D01*
X204627000Y-69351250D01*
X204785750Y-69510000D01*
X205000000Y-69513072D01*
X205124482Y-69500812D01*
X205244180Y-69464502D01*
X205354494Y-69405537D01*
X205451185Y-69326185D01*
X205530537Y-69229494D01*
X205589502Y-69119180D01*
X205625812Y-68999482D01*
X205638072Y-68875000D01*
X205635000Y-68535750D01*
X205476250Y-68377000D01*
X204627000Y-68377000D01*
X204373000Y-68377000D01*
X204353000Y-68377000D01*
X204353000Y-68210000D01*
X211465000Y-68210000D01*
X211465000Y-68351939D01*
X211504774Y-68551898D01*
X211582795Y-68740256D01*
X211696063Y-68909774D01*
X211840226Y-69053937D01*
X212009744Y-69167205D01*
X212198102Y-69245226D01*
X212340520Y-69273555D01*
X212248815Y-69348815D01*
X212169463Y-69445506D01*
X212110498Y-69555820D01*
X212074188Y-69675518D01*
X212061928Y-69800000D01*
X212061928Y-70800000D01*
X212074188Y-70924482D01*
X212110498Y-71044180D01*
X212169463Y-71154494D01*
X212248815Y-71251185D01*
X212345506Y-71330537D01*
X212455820Y-71389502D01*
X212575518Y-71425812D01*
X212700000Y-71438072D01*
X214300000Y-71438072D01*
X214424482Y-71425812D01*
X214544180Y-71389502D01*
X214654494Y-71330537D01*
X214751185Y-71251185D01*
X214830537Y-71154494D01*
X214889502Y-71044180D01*
X214925812Y-70924482D01*
X214938072Y-70800000D01*
X214938072Y-69800000D01*
X214925812Y-69675518D01*
X214889502Y-69555820D01*
X214830537Y-69445506D01*
X214815042Y-69426625D01*
X214854494Y-69405537D01*
X214951185Y-69326185D01*
X215000000Y-69266704D01*
X215048815Y-69326185D01*
X215145506Y-69405537D01*
X215255820Y-69464502D01*
X215375518Y-69500812D01*
X215500000Y-69513072D01*
X215714250Y-69510000D01*
X215873000Y-69351250D01*
X215873000Y-68377000D01*
X216127000Y-68377000D01*
X216127000Y-69351250D01*
X216285750Y-69510000D01*
X216500000Y-69513072D01*
X216624482Y-69500812D01*
X216744180Y-69464502D01*
X216854494Y-69405537D01*
X216951185Y-69326185D01*
X217030537Y-69229494D01*
X217089502Y-69119180D01*
X217125812Y-68999482D01*
X217138072Y-68875000D01*
X217135000Y-68535750D01*
X216976250Y-68377000D01*
X216127000Y-68377000D01*
X215873000Y-68377000D01*
X215853000Y-68377000D01*
X215853000Y-68210000D01*
X239068573Y-68210000D01*
X238681399Y-68597174D01*
X238354727Y-69086072D01*
X238129712Y-69629308D01*
X238015000Y-70206003D01*
X238015000Y-70793997D01*
X238129712Y-71370692D01*
X238354727Y-71913928D01*
X238681399Y-72402826D01*
X239097174Y-72818601D01*
X239586072Y-73145273D01*
X240129308Y-73370288D01*
X240706003Y-73485000D01*
X241293997Y-73485000D01*
X241870692Y-73370288D01*
X242413928Y-73145273D01*
X242902826Y-72818601D01*
X243290000Y-72431427D01*
X243290001Y-136068574D01*
X242902826Y-135681399D01*
X242413928Y-135354727D01*
X241870692Y-135129712D01*
X241293997Y-135015000D01*
X240706003Y-135015000D01*
X240129308Y-135129712D01*
X239586072Y-135354727D01*
X239097174Y-135681399D01*
X238681399Y-136097174D01*
X238354727Y-136586072D01*
X238235878Y-136873000D01*
X150264122Y-136873000D01*
X150145273Y-136586072D01*
X149818601Y-136097174D01*
X149402826Y-135681399D01*
X148913928Y-135354727D01*
X148370692Y-135129712D01*
X147793997Y-135015000D01*
X147206003Y-135015000D01*
X146629308Y-135129712D01*
X146086072Y-135354727D01*
X145597174Y-135681399D01*
X145181399Y-136097174D01*
X144854727Y-136586072D01*
X144735878Y-136873000D01*
X144710000Y-136873000D01*
X144710000Y-130714344D01*
X147415000Y-130714344D01*
X147415000Y-131085656D01*
X147487439Y-131449834D01*
X147629534Y-131792882D01*
X147835825Y-132101618D01*
X148098382Y-132364175D01*
X148407118Y-132570466D01*
X148750166Y-132712561D01*
X149114344Y-132785000D01*
X149485656Y-132785000D01*
X149849834Y-132712561D01*
X150192882Y-132570466D01*
X150501618Y-132364175D01*
X150764175Y-132101618D01*
X150970466Y-131792882D01*
X151112561Y-131449834D01*
X151185000Y-131085656D01*
X151185000Y-130714344D01*
X152415000Y-130714344D01*
X152415000Y-131085656D01*
X152487439Y-131449834D01*
X152629534Y-131792882D01*
X152835825Y-132101618D01*
X153098382Y-132364175D01*
X153407118Y-132570466D01*
X153620036Y-132658659D01*
X153707754Y-132705546D01*
X153851015Y-132749002D01*
X154000000Y-132763676D01*
X154004776Y-132763206D01*
X154114344Y-132785000D01*
X154485656Y-132785000D01*
X154849834Y-132712561D01*
X155192882Y-132570466D01*
X155501618Y-132364175D01*
X155764175Y-132101618D01*
X155970466Y-131792882D01*
X156112561Y-131449834D01*
X156185000Y-131085656D01*
X156185000Y-130714344D01*
X157415000Y-130714344D01*
X157415000Y-131085656D01*
X157487439Y-131449834D01*
X157629534Y-131792882D01*
X157835825Y-132101618D01*
X158098382Y-132364175D01*
X158407118Y-132570466D01*
X158750166Y-132712561D01*
X159114344Y-132785000D01*
X159485656Y-132785000D01*
X159849834Y-132712561D01*
X160192882Y-132570466D01*
X160501618Y-132364175D01*
X160764175Y-132101618D01*
X160970466Y-131792882D01*
X161112561Y-131449834D01*
X161185000Y-131085656D01*
X161185000Y-130714344D01*
X161112561Y-130350166D01*
X160970466Y-130007118D01*
X160764175Y-129698382D01*
X160501618Y-129435825D01*
X160192882Y-129229534D01*
X159849834Y-129087439D01*
X159485656Y-129015000D01*
X159114344Y-129015000D01*
X158750166Y-129087439D01*
X158407118Y-129229534D01*
X158098382Y-129435825D01*
X157835825Y-129698382D01*
X157629534Y-130007118D01*
X157487439Y-130350166D01*
X157415000Y-130714344D01*
X156185000Y-130714344D01*
X156112561Y-130350166D01*
X155970466Y-130007118D01*
X155909999Y-129916623D01*
X155909999Y-127425700D01*
X156008966Y-127478599D01*
X156288889Y-127563513D01*
X156507050Y-127585000D01*
X156652950Y-127585000D01*
X156871111Y-127563513D01*
X157151034Y-127478599D01*
X157409014Y-127340706D01*
X157635134Y-127155134D01*
X157820706Y-126929014D01*
X157850000Y-126874209D01*
X157879294Y-126929014D01*
X158064866Y-127155134D01*
X158290986Y-127340706D01*
X158548966Y-127478599D01*
X158828889Y-127563513D01*
X159047050Y-127585000D01*
X159192950Y-127585000D01*
X159411111Y-127563513D01*
X159691034Y-127478599D01*
X159949014Y-127340706D01*
X160175134Y-127155134D01*
X160360706Y-126929014D01*
X160390000Y-126874209D01*
X160419294Y-126929014D01*
X160604866Y-127155134D01*
X160830986Y-127340706D01*
X161088966Y-127478599D01*
X161368889Y-127563513D01*
X161587050Y-127585000D01*
X161732950Y-127585000D01*
X161951111Y-127563513D01*
X162090001Y-127521381D01*
X162090001Y-130812679D01*
X162086325Y-130850001D01*
X162090001Y-130887323D01*
X162090001Y-130887333D01*
X162100998Y-130998986D01*
X162127289Y-131085656D01*
X162144455Y-131142247D01*
X162215027Y-131274277D01*
X162253434Y-131321075D01*
X162310000Y-131390002D01*
X162339004Y-131413805D01*
X162566922Y-131641723D01*
X162629534Y-131792882D01*
X162835825Y-132101618D01*
X163098382Y-132364175D01*
X163407118Y-132570466D01*
X163620037Y-132658660D01*
X163707753Y-132705546D01*
X163851013Y-132749002D01*
X163999999Y-132763676D01*
X164004775Y-132763206D01*
X164114344Y-132785000D01*
X164485656Y-132785000D01*
X164849834Y-132712561D01*
X165192882Y-132570466D01*
X165501618Y-132364175D01*
X165764175Y-132101618D01*
X165970466Y-131792882D01*
X166112561Y-131449834D01*
X166185000Y-131085656D01*
X166185000Y-130714344D01*
X166112561Y-130350166D01*
X165970466Y-130007118D01*
X165764175Y-129698382D01*
X165501618Y-129435825D01*
X165192882Y-129229534D01*
X164849834Y-129087439D01*
X164485656Y-129015000D01*
X164114344Y-129015000D01*
X163750166Y-129087439D01*
X163610001Y-129145497D01*
X163610001Y-127468462D01*
X163628966Y-127478599D01*
X163908889Y-127563513D01*
X164127050Y-127585000D01*
X164272950Y-127585000D01*
X164491111Y-127563513D01*
X164771034Y-127478599D01*
X165029014Y-127340706D01*
X165255134Y-127155134D01*
X165440706Y-126929014D01*
X165578599Y-126671034D01*
X165663513Y-126391111D01*
X165692185Y-126100000D01*
X165663513Y-125808889D01*
X165578599Y-125528966D01*
X165440706Y-125270986D01*
X165255134Y-125044866D01*
X165029014Y-124859294D01*
X164771034Y-124721401D01*
X164491111Y-124636487D01*
X164272950Y-124615000D01*
X164127050Y-124615000D01*
X163908889Y-124636487D01*
X163628966Y-124721401D01*
X163610001Y-124731538D01*
X163610001Y-120887326D01*
X163613677Y-120850001D01*
X163610001Y-120812676D01*
X163610001Y-120812668D01*
X163599004Y-120701015D01*
X163555547Y-120557754D01*
X163484975Y-120425725D01*
X163390002Y-120310000D01*
X163361004Y-120286202D01*
X160022347Y-116947546D01*
X160022347Y-116885408D01*
X159982573Y-116685449D01*
X159904552Y-116497091D01*
X159791284Y-116327573D01*
X159647121Y-116183410D01*
X159533849Y-116107724D01*
X159535000Y-116101939D01*
X159535000Y-115898061D01*
X159495226Y-115698102D01*
X159417205Y-115509744D01*
X159303937Y-115340226D01*
X159159774Y-115196063D01*
X158990256Y-115082795D01*
X158801898Y-115004774D01*
X158601939Y-114965000D01*
X158398061Y-114965000D01*
X158198102Y-115004774D01*
X158009744Y-115082795D01*
X157840226Y-115196063D01*
X157696063Y-115340226D01*
X157582795Y-115509744D01*
X157504774Y-115698102D01*
X157465000Y-115898061D01*
X157465000Y-115960198D01*
X154638997Y-118786202D01*
X154609999Y-118810000D01*
X154586201Y-118838998D01*
X154586200Y-118838999D01*
X154515025Y-118925725D01*
X154444453Y-119057755D01*
X154400997Y-119201016D01*
X154386323Y-119350001D01*
X154390000Y-119387333D01*
X154390000Y-124662160D01*
X154167000Y-124779845D01*
X154167000Y-125973000D01*
X154187000Y-125973000D01*
X154187000Y-126227000D01*
X154167000Y-126227000D01*
X154167000Y-127420155D01*
X154389999Y-127537840D01*
X154389999Y-129015000D01*
X154114344Y-129015000D01*
X153750166Y-129087439D01*
X153407118Y-129229534D01*
X153098382Y-129435825D01*
X152835825Y-129698382D01*
X152629534Y-130007118D01*
X152487439Y-130350166D01*
X152415000Y-130714344D01*
X151185000Y-130714344D01*
X151112561Y-130350166D01*
X150970466Y-130007118D01*
X150764175Y-129698382D01*
X150501618Y-129435825D01*
X150192882Y-129229534D01*
X149849834Y-129087439D01*
X149485656Y-129015000D01*
X149114344Y-129015000D01*
X148750166Y-129087439D01*
X148407118Y-129229534D01*
X148098382Y-129435825D01*
X147835825Y-129698382D01*
X147629534Y-130007118D01*
X147487439Y-130350166D01*
X147415000Y-130714344D01*
X144710000Y-130714344D01*
X144710000Y-125250000D01*
X150011928Y-125250000D01*
X150011928Y-126950000D01*
X150024188Y-127074482D01*
X150060498Y-127194180D01*
X150119463Y-127304494D01*
X150198815Y-127401185D01*
X150295506Y-127480537D01*
X150405820Y-127539502D01*
X150525518Y-127575812D01*
X150650000Y-127588072D01*
X152350000Y-127588072D01*
X152474482Y-127575812D01*
X152594180Y-127539502D01*
X152704494Y-127480537D01*
X152801185Y-127401185D01*
X152880537Y-127304494D01*
X152939502Y-127194180D01*
X152963966Y-127113534D01*
X153039731Y-127197588D01*
X153273080Y-127371641D01*
X153535901Y-127496825D01*
X153683110Y-127541476D01*
X153913000Y-127420155D01*
X153913000Y-126227000D01*
X153893000Y-126227000D01*
X153893000Y-125973000D01*
X153913000Y-125973000D01*
X153913000Y-124779845D01*
X153683110Y-124658524D01*
X153535901Y-124703175D01*
X153273080Y-124828359D01*
X153039731Y-125002412D01*
X152963966Y-125086466D01*
X152941708Y-125013093D01*
X153511003Y-124443799D01*
X153540001Y-124420001D01*
X153624660Y-124316844D01*
X153634974Y-124304277D01*
X153705546Y-124172247D01*
X153727458Y-124100010D01*
X153749003Y-124028986D01*
X153760000Y-123917333D01*
X153760000Y-123917323D01*
X153763676Y-123880000D01*
X153760000Y-123842677D01*
X153760000Y-116203711D01*
X153803937Y-116159774D01*
X153917205Y-115990256D01*
X153995226Y-115801898D01*
X154035000Y-115601939D01*
X154035000Y-115398061D01*
X153995226Y-115198102D01*
X153917205Y-115009744D01*
X153803937Y-114840226D01*
X153659774Y-114696063D01*
X153490256Y-114582795D01*
X153301898Y-114504774D01*
X153101939Y-114465000D01*
X152898061Y-114465000D01*
X152698102Y-114504774D01*
X152509744Y-114582795D01*
X152340226Y-114696063D01*
X152196063Y-114840226D01*
X152082795Y-115009744D01*
X152004774Y-115198102D01*
X151965000Y-115398061D01*
X151965000Y-115601939D01*
X152004774Y-115801898D01*
X152082795Y-115990256D01*
X152196063Y-116159774D01*
X152240001Y-116203712D01*
X152240000Y-117212667D01*
X152240000Y-117212668D01*
X152240001Y-123565197D01*
X151193271Y-124611928D01*
X150650000Y-124611928D01*
X150525518Y-124624188D01*
X150405820Y-124660498D01*
X150295506Y-124719463D01*
X150198815Y-124798815D01*
X150119463Y-124895506D01*
X150060498Y-125005820D01*
X150024188Y-125125518D01*
X150011928Y-125250000D01*
X144710000Y-125250000D01*
X144710000Y-123724132D01*
X144750000Y-123728072D01*
X146450000Y-123728072D01*
X146574482Y-123715812D01*
X146694180Y-123679502D01*
X146804494Y-123620537D01*
X146901185Y-123541185D01*
X146980537Y-123444494D01*
X147039502Y-123334180D01*
X147075812Y-123214482D01*
X147088072Y-123090000D01*
X147088072Y-121390000D01*
X147075812Y-121265518D01*
X147039502Y-121145820D01*
X146980537Y-121035506D01*
X146901185Y-120938815D01*
X146804494Y-120859463D01*
X146694180Y-120800498D01*
X146625313Y-120779607D01*
X146655134Y-120755134D01*
X146840706Y-120529014D01*
X146978599Y-120271034D01*
X147063513Y-119991111D01*
X147092185Y-119700000D01*
X147063513Y-119408889D01*
X146978599Y-119128966D01*
X146840706Y-118870986D01*
X146655134Y-118644866D01*
X146429014Y-118459294D01*
X146374209Y-118430000D01*
X146429014Y-118400706D01*
X146655134Y-118215134D01*
X146840706Y-117989014D01*
X146978599Y-117731034D01*
X147063513Y-117451111D01*
X147092185Y-117160000D01*
X147063513Y-116868889D01*
X146978599Y-116588966D01*
X146840706Y-116330986D01*
X146655134Y-116104866D01*
X146429014Y-115919294D01*
X146374209Y-115890000D01*
X146429014Y-115860706D01*
X146655134Y-115675134D01*
X146840706Y-115449014D01*
X146978599Y-115191034D01*
X147063513Y-114911111D01*
X147092185Y-114620000D01*
X147063513Y-114328889D01*
X146978599Y-114048966D01*
X146840706Y-113790986D01*
X146655134Y-113564866D01*
X146429014Y-113379294D01*
X146374209Y-113350000D01*
X146429014Y-113320706D01*
X146655134Y-113135134D01*
X146840706Y-112909014D01*
X146978599Y-112651034D01*
X147063513Y-112371111D01*
X147092185Y-112080000D01*
X147063513Y-111788889D01*
X146978599Y-111508966D01*
X146840706Y-111250986D01*
X146655134Y-111024866D01*
X146429014Y-110839294D01*
X146374209Y-110810000D01*
X146429014Y-110780706D01*
X146655134Y-110595134D01*
X146840706Y-110369014D01*
X146978599Y-110111034D01*
X147063513Y-109831111D01*
X147092185Y-109540000D01*
X147063513Y-109248889D01*
X146978599Y-108968966D01*
X146840706Y-108710986D01*
X146655134Y-108484866D01*
X146429014Y-108299294D01*
X146171034Y-108161401D01*
X145891111Y-108076487D01*
X145672950Y-108055000D01*
X145527050Y-108055000D01*
X145308889Y-108076487D01*
X145028966Y-108161401D01*
X144770986Y-108299294D01*
X144710000Y-108349344D01*
X144710000Y-107070656D01*
X144770986Y-107120706D01*
X145028966Y-107258599D01*
X145308889Y-107343513D01*
X145527050Y-107365000D01*
X145672950Y-107365000D01*
X145891111Y-107343513D01*
X146171034Y-107258599D01*
X146429014Y-107120706D01*
X146655134Y-106935134D01*
X146840706Y-106709014D01*
X146978599Y-106451034D01*
X147063513Y-106171111D01*
X147092185Y-105880000D01*
X147063513Y-105588889D01*
X146978599Y-105308966D01*
X146840706Y-105050986D01*
X146655134Y-104824866D01*
X146429014Y-104639294D01*
X146374209Y-104610000D01*
X146429014Y-104580706D01*
X146655134Y-104395134D01*
X146840706Y-104169014D01*
X146978599Y-103911034D01*
X147063513Y-103631111D01*
X147092185Y-103340000D01*
X147063513Y-103048889D01*
X146978599Y-102768966D01*
X146840706Y-102510986D01*
X146675760Y-102309999D01*
X148235198Y-102309999D01*
X155436205Y-109511008D01*
X155459999Y-109540001D01*
X155488992Y-109563795D01*
X155488996Y-109563799D01*
X155526016Y-109594180D01*
X155575724Y-109634974D01*
X155707753Y-109705546D01*
X155851014Y-109749003D01*
X155962667Y-109760000D01*
X155962676Y-109760000D01*
X155999999Y-109763676D01*
X156037322Y-109760000D01*
X173296289Y-109760000D01*
X173340226Y-109803937D01*
X173509744Y-109917205D01*
X173605356Y-109956809D01*
X168038988Y-115523178D01*
X168009990Y-115546976D01*
X167986192Y-115575974D01*
X167986191Y-115575975D01*
X167915016Y-115662701D01*
X167844444Y-115794731D01*
X167835966Y-115822680D01*
X167800987Y-115937991D01*
X167789990Y-116049644D01*
X167789990Y-116049655D01*
X167786314Y-116086977D01*
X167789990Y-116124299D01*
X167789990Y-116180622D01*
X167784744Y-116182795D01*
X167615226Y-116296063D01*
X167471063Y-116440226D01*
X167357795Y-116609744D01*
X167279774Y-116798102D01*
X167240000Y-116998061D01*
X167240000Y-117201939D01*
X167279774Y-117401898D01*
X167357795Y-117590256D01*
X167471063Y-117759774D01*
X167615226Y-117903937D01*
X167784744Y-118017205D01*
X167973102Y-118095226D01*
X168173061Y-118135000D01*
X168240001Y-118135000D01*
X168240001Y-118965000D01*
X168123061Y-118965000D01*
X167923102Y-119004774D01*
X167734744Y-119082795D01*
X167565226Y-119196063D01*
X167421063Y-119340226D01*
X167307795Y-119509744D01*
X167229774Y-119698102D01*
X167190000Y-119898061D01*
X167190000Y-119960199D01*
X167014001Y-120136198D01*
X166984998Y-120160000D01*
X166939839Y-120215027D01*
X166890025Y-120275725D01*
X166871705Y-120310000D01*
X166819453Y-120407755D01*
X166775996Y-120551016D01*
X166764999Y-120662669D01*
X166764999Y-120662679D01*
X166761323Y-120700001D01*
X166764999Y-120737323D01*
X166765000Y-132670669D01*
X166761323Y-132708001D01*
X166775997Y-132856986D01*
X166819453Y-133000247D01*
X166890025Y-133132277D01*
X166931451Y-133182754D01*
X166984999Y-133248002D01*
X167013997Y-133271800D01*
X167728200Y-133986003D01*
X167751998Y-134015002D01*
X167867723Y-134109975D01*
X167999752Y-134180547D01*
X168143013Y-134224004D01*
X168254666Y-134235001D01*
X168254676Y-134235001D01*
X168291999Y-134238677D01*
X168329322Y-134235001D01*
X199670679Y-134235001D01*
X199708001Y-134238677D01*
X199745323Y-134235001D01*
X199745334Y-134235001D01*
X199856987Y-134224004D01*
X200000248Y-134180547D01*
X200132277Y-134109975D01*
X200248002Y-134015002D01*
X200271805Y-133985998D01*
X203485994Y-130771810D01*
X203514991Y-130748013D01*
X203542622Y-130714344D01*
X203609964Y-130632289D01*
X203680536Y-130500259D01*
X203718940Y-130373655D01*
X203723993Y-130356998D01*
X203734990Y-130245345D01*
X203734990Y-130245336D01*
X203738666Y-130208013D01*
X203734990Y-130170690D01*
X203734990Y-105266809D01*
X208240000Y-100761799D01*
X208240001Y-106496440D01*
X208198102Y-106504774D01*
X208009744Y-106582795D01*
X207840226Y-106696063D01*
X207696063Y-106840226D01*
X207582795Y-107009744D01*
X207504774Y-107198102D01*
X207465000Y-107398061D01*
X207465000Y-107601939D01*
X207504774Y-107801898D01*
X207582795Y-107990256D01*
X207696063Y-108159774D01*
X207840226Y-108303937D01*
X208009744Y-108417205D01*
X208198102Y-108495226D01*
X208398061Y-108535000D01*
X208601939Y-108535000D01*
X208801898Y-108495226D01*
X208990256Y-108417205D01*
X209159774Y-108303937D01*
X209303937Y-108159774D01*
X209417205Y-107990256D01*
X209495226Y-107801898D01*
X209535000Y-107601939D01*
X209535000Y-107544105D01*
X209540001Y-107540001D01*
X209634974Y-107424276D01*
X209705546Y-107292247D01*
X209749003Y-107148986D01*
X209760000Y-107037333D01*
X209760000Y-107037325D01*
X209763676Y-107000000D01*
X209760000Y-106962675D01*
X209760000Y-100703711D01*
X209803937Y-100659774D01*
X209917205Y-100490256D01*
X209995226Y-100301898D01*
X210035000Y-100101939D01*
X210035000Y-99898061D01*
X209995226Y-99698102D01*
X209917205Y-99509744D01*
X209803937Y-99340226D01*
X209732755Y-99269044D01*
X217741800Y-91260000D01*
X217962678Y-91260000D01*
X218000000Y-91263676D01*
X218037322Y-91260000D01*
X218037333Y-91260000D01*
X218148986Y-91249003D01*
X218292247Y-91205546D01*
X218424276Y-91134974D01*
X218540001Y-91040001D01*
X218563804Y-91010998D01*
X219039802Y-90535000D01*
X219101939Y-90535000D01*
X219301898Y-90495226D01*
X219490256Y-90417205D01*
X219659774Y-90303937D01*
X219803937Y-90159774D01*
X219917205Y-89990256D01*
X219995226Y-89801898D01*
X220035000Y-89601939D01*
X220035000Y-89398061D01*
X219995226Y-89198102D01*
X219917205Y-89009744D01*
X219803937Y-88840226D01*
X219659774Y-88696063D01*
X219490256Y-88582795D01*
X219301898Y-88504774D01*
X219101939Y-88465000D01*
X218898061Y-88465000D01*
X218698102Y-88504774D01*
X218509744Y-88582795D01*
X218340226Y-88696063D01*
X218196063Y-88840226D01*
X218082795Y-89009744D01*
X218004774Y-89198102D01*
X217965000Y-89398061D01*
X217965000Y-89460198D01*
X217685199Y-89740000D01*
X217464323Y-89740000D01*
X217426998Y-89736324D01*
X217389673Y-89740000D01*
X217389665Y-89740000D01*
X217278012Y-89750997D01*
X217134751Y-89794454D01*
X217002722Y-89865026D01*
X216886997Y-89959999D01*
X216863199Y-89988997D01*
X202463988Y-104388209D01*
X202434990Y-104412007D01*
X202411192Y-104441005D01*
X202411191Y-104441006D01*
X202340016Y-104527732D01*
X202269444Y-104659762D01*
X202225988Y-104803023D01*
X202211314Y-104952008D01*
X202214991Y-104989341D01*
X202214990Y-129893210D01*
X201188072Y-130920128D01*
X201188072Y-129650000D01*
X201175812Y-129525518D01*
X201139502Y-129405820D01*
X201080537Y-129295506D01*
X201001185Y-129198815D01*
X200904494Y-129119463D01*
X200794180Y-129060498D01*
X200674482Y-129024188D01*
X200550000Y-129011928D01*
X198050000Y-129011928D01*
X197925518Y-129024188D01*
X197805820Y-129060498D01*
X197695506Y-129119463D01*
X197598815Y-129198815D01*
X197519463Y-129295506D01*
X197460498Y-129405820D01*
X197424188Y-129525518D01*
X197411928Y-129650000D01*
X197411928Y-132150000D01*
X197424188Y-132274482D01*
X197460498Y-132394180D01*
X197519463Y-132504494D01*
X197598815Y-132601185D01*
X197695506Y-132680537D01*
X197759983Y-132715001D01*
X194816057Y-132715001D01*
X195073262Y-132629094D01*
X195308086Y-132503577D01*
X195434000Y-132213605D01*
X194300000Y-131079605D01*
X193166000Y-132213605D01*
X193291914Y-132503577D01*
X193624126Y-132669433D01*
X193790919Y-132715001D01*
X189837567Y-132715001D01*
X189849834Y-132712561D01*
X190192882Y-132570466D01*
X190501618Y-132364175D01*
X190764175Y-132101618D01*
X190970466Y-131792882D01*
X191112561Y-131449834D01*
X191185000Y-131085656D01*
X191185000Y-130952706D01*
X192406611Y-130952706D01*
X192453275Y-131321075D01*
X192570906Y-131673262D01*
X192696423Y-131908086D01*
X192986395Y-132034000D01*
X194120395Y-130900000D01*
X194479605Y-130900000D01*
X195613605Y-132034000D01*
X195903577Y-131908086D01*
X196069433Y-131575874D01*
X196167290Y-131217688D01*
X196193389Y-130847294D01*
X196146725Y-130478925D01*
X196029094Y-130126738D01*
X195903577Y-129891914D01*
X195613605Y-129766000D01*
X194479605Y-130900000D01*
X194120395Y-130900000D01*
X192986395Y-129766000D01*
X192696423Y-129891914D01*
X192530567Y-130224126D01*
X192432710Y-130582312D01*
X192406611Y-130952706D01*
X191185000Y-130952706D01*
X191185000Y-130714344D01*
X191112561Y-130350166D01*
X190970466Y-130007118D01*
X190764175Y-129698382D01*
X190652188Y-129586395D01*
X193166000Y-129586395D01*
X194300000Y-130720395D01*
X195434000Y-129586395D01*
X195308086Y-129296423D01*
X194975874Y-129130567D01*
X194617688Y-129032710D01*
X194247294Y-129006611D01*
X193878925Y-129053275D01*
X193526738Y-129170906D01*
X193291914Y-129296423D01*
X193166000Y-129586395D01*
X190652188Y-129586395D01*
X190501618Y-129435825D01*
X190192882Y-129229534D01*
X189849834Y-129087439D01*
X189485656Y-129015000D01*
X189114344Y-129015000D01*
X188782212Y-129081065D01*
X182365491Y-122664344D01*
X186165000Y-122664344D01*
X186165000Y-123035656D01*
X186237439Y-123399834D01*
X186379534Y-123742882D01*
X186585825Y-124051618D01*
X186848382Y-124314175D01*
X187157118Y-124520466D01*
X187500166Y-124662561D01*
X187864344Y-124735000D01*
X188235656Y-124735000D01*
X188599834Y-124662561D01*
X188942882Y-124520466D01*
X189251618Y-124314175D01*
X189514175Y-124051618D01*
X189720466Y-123742882D01*
X189862561Y-123399834D01*
X189935000Y-123035656D01*
X189935000Y-122664344D01*
X189862561Y-122300166D01*
X189720466Y-121957118D01*
X189514175Y-121648382D01*
X189465793Y-121600000D01*
X191161928Y-121600000D01*
X191161928Y-124100000D01*
X191174188Y-124224482D01*
X191210498Y-124344180D01*
X191269463Y-124454494D01*
X191348815Y-124551185D01*
X191445506Y-124630537D01*
X191555820Y-124689502D01*
X191675518Y-124725812D01*
X191800000Y-124738072D01*
X194300000Y-124738072D01*
X194424482Y-124725812D01*
X194544180Y-124689502D01*
X194654494Y-124630537D01*
X194751185Y-124551185D01*
X194830537Y-124454494D01*
X194889502Y-124344180D01*
X194925812Y-124224482D01*
X194938072Y-124100000D01*
X194938072Y-121600000D01*
X194925812Y-121475518D01*
X194889502Y-121355820D01*
X194830537Y-121245506D01*
X194751185Y-121148815D01*
X194654494Y-121069463D01*
X194544180Y-121010498D01*
X194424482Y-120974188D01*
X194300000Y-120961928D01*
X191800000Y-120961928D01*
X191675518Y-120974188D01*
X191555820Y-121010498D01*
X191445506Y-121069463D01*
X191348815Y-121148815D01*
X191269463Y-121245506D01*
X191210498Y-121355820D01*
X191174188Y-121475518D01*
X191161928Y-121600000D01*
X189465793Y-121600000D01*
X189251618Y-121385825D01*
X188942882Y-121179534D01*
X188599834Y-121037439D01*
X188235656Y-120965000D01*
X187864344Y-120965000D01*
X187500166Y-121037439D01*
X187157118Y-121179534D01*
X186848382Y-121385825D01*
X186585825Y-121648382D01*
X186379534Y-121957118D01*
X186237439Y-122300166D01*
X186165000Y-122664344D01*
X182365491Y-122664344D01*
X174353055Y-114651909D01*
X174329252Y-114622905D01*
X174213527Y-114527932D01*
X174081498Y-114457360D01*
X173938237Y-114413903D01*
X173826584Y-114402906D01*
X173826573Y-114402906D01*
X173789251Y-114399230D01*
X173751929Y-114402906D01*
X171308862Y-114402906D01*
X172671768Y-113040000D01*
X184507815Y-113040000D01*
X184536487Y-113331111D01*
X184621401Y-113611034D01*
X184759294Y-113869014D01*
X184944866Y-114095134D01*
X185170986Y-114280706D01*
X185225791Y-114310000D01*
X185170986Y-114339294D01*
X184944866Y-114524866D01*
X184759294Y-114750986D01*
X184621401Y-115008966D01*
X184536487Y-115288889D01*
X184507815Y-115580000D01*
X184536487Y-115871111D01*
X184621401Y-116151034D01*
X184759294Y-116409014D01*
X184944866Y-116635134D01*
X185170986Y-116820706D01*
X185428966Y-116958599D01*
X185708889Y-117043513D01*
X185927050Y-117065000D01*
X186072950Y-117065000D01*
X186291111Y-117043513D01*
X186571034Y-116958599D01*
X186829014Y-116820706D01*
X187055134Y-116635134D01*
X187240706Y-116409014D01*
X187378599Y-116151034D01*
X187463513Y-115871111D01*
X187492185Y-115580000D01*
X187463513Y-115288889D01*
X187378599Y-115008966D01*
X187240706Y-114750986D01*
X187223483Y-114729999D01*
X191411928Y-114729999D01*
X191411928Y-116429999D01*
X191424188Y-116554481D01*
X191460498Y-116674179D01*
X191519463Y-116784493D01*
X191598815Y-116881184D01*
X191695506Y-116960536D01*
X191805820Y-117019501D01*
X191925518Y-117055811D01*
X192050000Y-117068071D01*
X193750000Y-117068071D01*
X193874482Y-117055811D01*
X193994180Y-117019501D01*
X194104494Y-116960536D01*
X194201185Y-116881184D01*
X194280537Y-116784493D01*
X194339502Y-116674179D01*
X194375812Y-116554481D01*
X194388072Y-116429999D01*
X194388072Y-114729999D01*
X194375812Y-114605517D01*
X194339502Y-114485819D01*
X194280537Y-114375505D01*
X194201185Y-114278814D01*
X194104494Y-114199462D01*
X193994180Y-114140497D01*
X193913534Y-114116033D01*
X193997588Y-114040268D01*
X194171641Y-113806919D01*
X194296825Y-113544098D01*
X194341476Y-113396889D01*
X194220155Y-113166999D01*
X193027000Y-113166999D01*
X193027000Y-113186999D01*
X192773000Y-113186999D01*
X192773000Y-113166999D01*
X191579845Y-113166999D01*
X191458524Y-113396889D01*
X191503175Y-113544098D01*
X191628359Y-113806919D01*
X191802412Y-114040268D01*
X191886466Y-114116033D01*
X191805820Y-114140497D01*
X191695506Y-114199462D01*
X191598815Y-114278814D01*
X191519463Y-114375505D01*
X191460498Y-114485819D01*
X191424188Y-114605517D01*
X191411928Y-114729999D01*
X187223483Y-114729999D01*
X187055134Y-114524866D01*
X186829014Y-114339294D01*
X186774209Y-114310000D01*
X186829014Y-114280706D01*
X187055134Y-114095134D01*
X187240706Y-113869014D01*
X187378599Y-113611034D01*
X187463513Y-113331111D01*
X187492185Y-113040000D01*
X187463513Y-112748889D01*
X187378599Y-112468966D01*
X187240706Y-112210986D01*
X187055134Y-111984866D01*
X187025313Y-111960393D01*
X187094180Y-111939502D01*
X187204494Y-111880537D01*
X187301185Y-111801185D01*
X187380537Y-111704494D01*
X187439502Y-111594180D01*
X187475812Y-111474482D01*
X187488072Y-111350000D01*
X187485000Y-110785750D01*
X187326250Y-110627000D01*
X186127000Y-110627000D01*
X186127000Y-110647000D01*
X185873000Y-110647000D01*
X185873000Y-110627000D01*
X184673750Y-110627000D01*
X184515000Y-110785750D01*
X184511928Y-111350000D01*
X184524188Y-111474482D01*
X184560498Y-111594180D01*
X184619463Y-111704494D01*
X184698815Y-111801185D01*
X184795506Y-111880537D01*
X184905820Y-111939502D01*
X184974687Y-111960393D01*
X184944866Y-111984866D01*
X184759294Y-112210986D01*
X184621401Y-112468966D01*
X184536487Y-112748889D01*
X184507815Y-113040000D01*
X172671768Y-113040000D01*
X175211769Y-110499999D01*
X191407815Y-110499999D01*
X191436487Y-110791110D01*
X191521401Y-111071033D01*
X191659294Y-111329013D01*
X191844866Y-111555133D01*
X192070986Y-111740705D01*
X192135523Y-111775200D01*
X192018645Y-111844821D01*
X191802412Y-112039730D01*
X191628359Y-112273079D01*
X191503175Y-112535900D01*
X191458524Y-112683109D01*
X191579845Y-112912999D01*
X192773000Y-112912999D01*
X192773000Y-112892999D01*
X193027000Y-112892999D01*
X193027000Y-112912999D01*
X194220155Y-112912999D01*
X194341476Y-112683109D01*
X194296825Y-112535900D01*
X194171641Y-112273079D01*
X193997588Y-112039730D01*
X193781355Y-111844821D01*
X193664477Y-111775200D01*
X193729014Y-111740705D01*
X193955134Y-111555133D01*
X194140706Y-111329013D01*
X194278599Y-111071033D01*
X194363513Y-110791110D01*
X194392185Y-110499999D01*
X194363513Y-110208888D01*
X194278599Y-109928965D01*
X194140706Y-109670985D01*
X193955134Y-109444865D01*
X193729014Y-109259293D01*
X193471034Y-109121400D01*
X193191111Y-109036486D01*
X192972950Y-109014999D01*
X192827050Y-109014999D01*
X192608889Y-109036486D01*
X192328966Y-109121400D01*
X192070986Y-109259293D01*
X191844866Y-109444865D01*
X191659294Y-109670985D01*
X191521401Y-109928965D01*
X191436487Y-110208888D01*
X191407815Y-110499999D01*
X175211769Y-110499999D01*
X177651769Y-108060000D01*
X178011928Y-108060000D01*
X178011928Y-109350000D01*
X178024188Y-109474482D01*
X178060498Y-109594180D01*
X178119463Y-109704494D01*
X178198815Y-109801185D01*
X178295506Y-109880537D01*
X178405820Y-109939502D01*
X178525518Y-109975812D01*
X178650000Y-109988072D01*
X180350000Y-109988072D01*
X180474482Y-109975812D01*
X180594180Y-109939502D01*
X180704494Y-109880537D01*
X180801185Y-109801185D01*
X180880537Y-109704494D01*
X180939502Y-109594180D01*
X180960393Y-109525313D01*
X180984866Y-109555134D01*
X181210986Y-109740706D01*
X181468966Y-109878599D01*
X181748889Y-109963513D01*
X181967050Y-109985000D01*
X182112950Y-109985000D01*
X182331111Y-109963513D01*
X182611034Y-109878599D01*
X182869014Y-109740706D01*
X182979539Y-109650000D01*
X184511928Y-109650000D01*
X184515000Y-110214250D01*
X184673750Y-110373000D01*
X185873000Y-110373000D01*
X185873000Y-109173750D01*
X186127000Y-109173750D01*
X186127000Y-110373000D01*
X187326250Y-110373000D01*
X187485000Y-110214250D01*
X187488072Y-109650000D01*
X187475812Y-109525518D01*
X187439502Y-109405820D01*
X187380537Y-109295506D01*
X187301185Y-109198815D01*
X187204494Y-109119463D01*
X187094180Y-109060498D01*
X186974482Y-109024188D01*
X186850000Y-109011928D01*
X186285750Y-109015000D01*
X186127000Y-109173750D01*
X185873000Y-109173750D01*
X185714250Y-109015000D01*
X185150000Y-109011928D01*
X185025518Y-109024188D01*
X184905820Y-109060498D01*
X184795506Y-109119463D01*
X184698815Y-109198815D01*
X184619463Y-109295506D01*
X184560498Y-109405820D01*
X184524188Y-109525518D01*
X184511928Y-109650000D01*
X182979539Y-109650000D01*
X183095134Y-109555134D01*
X183280706Y-109329014D01*
X183418599Y-109071034D01*
X183503513Y-108791111D01*
X183532185Y-108500000D01*
X183503513Y-108208889D01*
X183458348Y-108060000D01*
X188503676Y-108060000D01*
X188540998Y-108063676D01*
X188578320Y-108060000D01*
X188578331Y-108060000D01*
X188689984Y-108049003D01*
X188833245Y-108005546D01*
X188965274Y-107934974D01*
X189080999Y-107840001D01*
X189104802Y-107810997D01*
X192171339Y-104744461D01*
X192259294Y-104909014D01*
X192444866Y-105135134D01*
X192670986Y-105320706D01*
X192928966Y-105458599D01*
X193208889Y-105543513D01*
X193427050Y-105565000D01*
X193572950Y-105565000D01*
X193791111Y-105543513D01*
X194071034Y-105458599D01*
X194329014Y-105320706D01*
X194555134Y-105135134D01*
X194740706Y-104909014D01*
X194878599Y-104651034D01*
X194963513Y-104371111D01*
X194992185Y-104080000D01*
X194963513Y-103788889D01*
X194878599Y-103508966D01*
X194740706Y-103250986D01*
X194678552Y-103175251D01*
X196836569Y-101017234D01*
X196855338Y-101207796D01*
X196915950Y-101407607D01*
X196965335Y-101500000D01*
X196915950Y-101592393D01*
X196855338Y-101792204D01*
X196834872Y-102000000D01*
X196855338Y-102207796D01*
X196915950Y-102407607D01*
X196965335Y-102500000D01*
X196915950Y-102592393D01*
X196855338Y-102792204D01*
X196834872Y-103000000D01*
X196855338Y-103207796D01*
X196915950Y-103407607D01*
X196965335Y-103500000D01*
X196915950Y-103592393D01*
X196855338Y-103792204D01*
X196834872Y-104000000D01*
X196855338Y-104207796D01*
X196915950Y-104407607D01*
X196965335Y-104500000D01*
X196915950Y-104592393D01*
X196855338Y-104792204D01*
X196834872Y-105000000D01*
X196855338Y-105207796D01*
X196915950Y-105407607D01*
X196965335Y-105500000D01*
X196915950Y-105592393D01*
X196855338Y-105792204D01*
X196834872Y-106000000D01*
X196855338Y-106207796D01*
X196915950Y-106407607D01*
X196965335Y-106500000D01*
X196915950Y-106592393D01*
X196855338Y-106792204D01*
X196834872Y-107000000D01*
X196855338Y-107207796D01*
X196915950Y-107407607D01*
X196965335Y-107500000D01*
X196915950Y-107592393D01*
X196855338Y-107792204D01*
X196834872Y-108000000D01*
X196855338Y-108207796D01*
X196915950Y-108407607D01*
X196965335Y-108500000D01*
X196915950Y-108592393D01*
X196855338Y-108792204D01*
X196834872Y-109000000D01*
X196855338Y-109207796D01*
X196915950Y-109407607D01*
X196965335Y-109500000D01*
X196915950Y-109592393D01*
X196855338Y-109792204D01*
X196834872Y-110000000D01*
X196855338Y-110207796D01*
X196915950Y-110407607D01*
X196965335Y-110500000D01*
X196915950Y-110592393D01*
X196855338Y-110792204D01*
X196834872Y-111000000D01*
X196855338Y-111207796D01*
X196915950Y-111407607D01*
X196965335Y-111500000D01*
X196915950Y-111592393D01*
X196855338Y-111792204D01*
X196834872Y-112000000D01*
X196855338Y-112207796D01*
X196915950Y-112407607D01*
X196966302Y-112501809D01*
X196891128Y-112674750D01*
X196880460Y-112709938D01*
X197007743Y-112873000D01*
X197292867Y-112873000D01*
X197308247Y-112885622D01*
X197492393Y-112984050D01*
X197544973Y-113000000D01*
X197492393Y-113015950D01*
X197308247Y-113114378D01*
X197292867Y-113127000D01*
X197007743Y-113127000D01*
X196880460Y-113290062D01*
X196891128Y-113325250D01*
X196966302Y-113498191D01*
X196915950Y-113592393D01*
X196855338Y-113792204D01*
X196834872Y-114000000D01*
X196855338Y-114207796D01*
X196915950Y-114407607D01*
X196965335Y-114500000D01*
X196915950Y-114592393D01*
X196855338Y-114792204D01*
X196834872Y-115000000D01*
X196855338Y-115207796D01*
X196915950Y-115407607D01*
X196966302Y-115501809D01*
X196891128Y-115674750D01*
X196880460Y-115709938D01*
X197007743Y-115873000D01*
X197292867Y-115873000D01*
X197308247Y-115885622D01*
X197492393Y-115984050D01*
X197544973Y-116000000D01*
X197492393Y-116015950D01*
X197308247Y-116114378D01*
X197292867Y-116127000D01*
X197007743Y-116127000D01*
X196880460Y-116290062D01*
X196891128Y-116325250D01*
X196966302Y-116498191D01*
X196915950Y-116592393D01*
X196855338Y-116792204D01*
X196834872Y-117000000D01*
X196855338Y-117207796D01*
X196915950Y-117407607D01*
X197014378Y-117591753D01*
X197146841Y-117753159D01*
X197308247Y-117885622D01*
X197492393Y-117984050D01*
X197692204Y-118044662D01*
X197847934Y-118060000D01*
X197952066Y-118060000D01*
X198107796Y-118044662D01*
X198307607Y-117984050D01*
X198491753Y-117885622D01*
X198653159Y-117753159D01*
X198785622Y-117591753D01*
X198884050Y-117407607D01*
X198944662Y-117207796D01*
X198965128Y-117000000D01*
X198944662Y-116792204D01*
X198884050Y-116592393D01*
X198833698Y-116498191D01*
X198908872Y-116325250D01*
X198919540Y-116290062D01*
X198792257Y-116127000D01*
X198507133Y-116127000D01*
X198491753Y-116114378D01*
X198307607Y-116015950D01*
X198255027Y-116000000D01*
X198307607Y-115984050D01*
X198491753Y-115885622D01*
X198507133Y-115873000D01*
X198792257Y-115873000D01*
X198919540Y-115709938D01*
X198908872Y-115674750D01*
X198833698Y-115501809D01*
X198884050Y-115407607D01*
X198944662Y-115207796D01*
X198965128Y-115000000D01*
X198944662Y-114792204D01*
X198884050Y-114592393D01*
X198834665Y-114500000D01*
X198884050Y-114407607D01*
X198944662Y-114207796D01*
X198965128Y-114000000D01*
X198944662Y-113792204D01*
X198884050Y-113592393D01*
X198833698Y-113498191D01*
X198908872Y-113325250D01*
X198919540Y-113290062D01*
X198792257Y-113127000D01*
X198507133Y-113127000D01*
X198491753Y-113114378D01*
X198307607Y-113015950D01*
X198255027Y-113000000D01*
X198307607Y-112984050D01*
X198491753Y-112885622D01*
X198507133Y-112873000D01*
X198792257Y-112873000D01*
X198919540Y-112709938D01*
X198908872Y-112674750D01*
X198833698Y-112501809D01*
X198884050Y-112407607D01*
X198944662Y-112207796D01*
X198965128Y-112000000D01*
X198944662Y-111792204D01*
X198884050Y-111592393D01*
X198834665Y-111500000D01*
X198884050Y-111407607D01*
X198944662Y-111207796D01*
X198965128Y-111000000D01*
X198944662Y-110792204D01*
X198884050Y-110592393D01*
X198834665Y-110500000D01*
X198884050Y-110407607D01*
X198944662Y-110207796D01*
X198965128Y-110000000D01*
X198944662Y-109792204D01*
X198884050Y-109592393D01*
X198834665Y-109500000D01*
X198884050Y-109407607D01*
X198944662Y-109207796D01*
X198965128Y-109000000D01*
X198944662Y-108792204D01*
X198884050Y-108592393D01*
X198834665Y-108500000D01*
X198884050Y-108407607D01*
X198944662Y-108207796D01*
X198965128Y-108000000D01*
X198944662Y-107792204D01*
X198884050Y-107592393D01*
X198834665Y-107500000D01*
X198884050Y-107407607D01*
X198944662Y-107207796D01*
X198965128Y-107000000D01*
X198944662Y-106792204D01*
X198884050Y-106592393D01*
X198834665Y-106500000D01*
X198884050Y-106407607D01*
X198944662Y-106207796D01*
X198965128Y-106000000D01*
X198944662Y-105792204D01*
X198884050Y-105592393D01*
X198834665Y-105500000D01*
X198884050Y-105407607D01*
X198944662Y-105207796D01*
X198965128Y-105000000D01*
X198944662Y-104792204D01*
X198884050Y-104592393D01*
X198834665Y-104500000D01*
X198884050Y-104407607D01*
X198944662Y-104207796D01*
X198965128Y-104000000D01*
X198944662Y-103792204D01*
X198884050Y-103592393D01*
X198834665Y-103500000D01*
X198884050Y-103407607D01*
X198944662Y-103207796D01*
X198965128Y-103000000D01*
X198944662Y-102792204D01*
X198884050Y-102592393D01*
X198834665Y-102500000D01*
X198884050Y-102407607D01*
X198944662Y-102207796D01*
X198965128Y-102000000D01*
X198944662Y-101792204D01*
X198884050Y-101592393D01*
X198834665Y-101500000D01*
X198884050Y-101407607D01*
X198944662Y-101207796D01*
X198965128Y-101000000D01*
X198944662Y-100792204D01*
X198884050Y-100592393D01*
X198834665Y-100500000D01*
X198884050Y-100407607D01*
X198944662Y-100207796D01*
X198965128Y-100000000D01*
X198944662Y-99792204D01*
X198884050Y-99592393D01*
X198834665Y-99500000D01*
X198884050Y-99407607D01*
X198944662Y-99207796D01*
X198965128Y-99000000D01*
X198944662Y-98792204D01*
X198884050Y-98592393D01*
X198834665Y-98500000D01*
X198884050Y-98407607D01*
X198944662Y-98207796D01*
X198965128Y-98000000D01*
X198944662Y-97792204D01*
X198884050Y-97592393D01*
X198834665Y-97500000D01*
X198884050Y-97407607D01*
X198944662Y-97207796D01*
X198965128Y-97000000D01*
X198944662Y-96792204D01*
X198884050Y-96592393D01*
X198834665Y-96500000D01*
X198884050Y-96407607D01*
X198944662Y-96207796D01*
X198965128Y-96000000D01*
X198944662Y-95792204D01*
X198884050Y-95592393D01*
X198834665Y-95500000D01*
X198884050Y-95407607D01*
X198944662Y-95207796D01*
X198965128Y-95000000D01*
X198944662Y-94792204D01*
X198884050Y-94592393D01*
X198834665Y-94500000D01*
X198884050Y-94407607D01*
X198944662Y-94207796D01*
X198965128Y-94000000D01*
X198944662Y-93792204D01*
X198884050Y-93592393D01*
X198833698Y-93498191D01*
X198908872Y-93325250D01*
X198919540Y-93290062D01*
X198792257Y-93127000D01*
X198507133Y-93127000D01*
X198491753Y-93114378D01*
X198307607Y-93015950D01*
X198255027Y-93000000D01*
X198307607Y-92984050D01*
X198491753Y-92885622D01*
X198507133Y-92873000D01*
X198792257Y-92873000D01*
X198919540Y-92709938D01*
X198908872Y-92674750D01*
X198833698Y-92501809D01*
X198884050Y-92407607D01*
X198944662Y-92207796D01*
X198965128Y-92000000D01*
X198944662Y-91792204D01*
X198884050Y-91592393D01*
X198834665Y-91500000D01*
X198884050Y-91407607D01*
X198944662Y-91207796D01*
X198965128Y-91000000D01*
X198944662Y-90792204D01*
X198884050Y-90592393D01*
X198834665Y-90500000D01*
X198884050Y-90407607D01*
X198944662Y-90207796D01*
X198965128Y-90000000D01*
X198944662Y-89792204D01*
X198884050Y-89592393D01*
X198834665Y-89500000D01*
X198884050Y-89407607D01*
X198944662Y-89207796D01*
X198965128Y-89000000D01*
X198944662Y-88792204D01*
X198884050Y-88592393D01*
X198834665Y-88500000D01*
X198884050Y-88407607D01*
X198944662Y-88207796D01*
X198965128Y-88000000D01*
X198944662Y-87792204D01*
X198884050Y-87592393D01*
X198834665Y-87500000D01*
X198884050Y-87407607D01*
X198944662Y-87207796D01*
X198965128Y-87000000D01*
X198944662Y-86792204D01*
X198884050Y-86592393D01*
X198833698Y-86498191D01*
X198908872Y-86325250D01*
X198919540Y-86290062D01*
X198792257Y-86127000D01*
X198507133Y-86127000D01*
X198491753Y-86114378D01*
X198307607Y-86015950D01*
X198255027Y-86000000D01*
X198307607Y-85984050D01*
X198491753Y-85885622D01*
X198507133Y-85873000D01*
X198792257Y-85873000D01*
X198919540Y-85709938D01*
X198908872Y-85674750D01*
X198833698Y-85501809D01*
X198884050Y-85407607D01*
X198944662Y-85207796D01*
X198965128Y-85000000D01*
X198944662Y-84792204D01*
X198884050Y-84592393D01*
X198834665Y-84500000D01*
X198884050Y-84407607D01*
X198944662Y-84207796D01*
X198965128Y-84000000D01*
X198944662Y-83792204D01*
X198884050Y-83592393D01*
X198834665Y-83500000D01*
X198884050Y-83407607D01*
X198944662Y-83207796D01*
X198965128Y-83000000D01*
X198944662Y-82792204D01*
X198884050Y-82592393D01*
X198833698Y-82498191D01*
X198908872Y-82325250D01*
X198919540Y-82290062D01*
X198792257Y-82127000D01*
X198507133Y-82127000D01*
X198491753Y-82114378D01*
X198307607Y-82015950D01*
X198255027Y-82000000D01*
X198307607Y-81984050D01*
X198491753Y-81885622D01*
X198507133Y-81873000D01*
X198792257Y-81873000D01*
X198919540Y-81709938D01*
X198908872Y-81674750D01*
X198833698Y-81501809D01*
X198884050Y-81407607D01*
X198944662Y-81207796D01*
X198965128Y-81000000D01*
X198944662Y-80792204D01*
X198884050Y-80592393D01*
X198834665Y-80500000D01*
X198884050Y-80407607D01*
X198944662Y-80207796D01*
X198965128Y-80000000D01*
X198944662Y-79792204D01*
X198884050Y-79592393D01*
X198834665Y-79500000D01*
X198884050Y-79407607D01*
X198944662Y-79207796D01*
X198965128Y-79000000D01*
X198944662Y-78792204D01*
X198909935Y-78677724D01*
X198914502Y-78669180D01*
X198950812Y-78549482D01*
X198963072Y-78425000D01*
X198963072Y-77598061D01*
X200665000Y-77598061D01*
X200665000Y-77801939D01*
X200704774Y-78001898D01*
X200782795Y-78190256D01*
X200896063Y-78359774D01*
X201040226Y-78503937D01*
X201209744Y-78617205D01*
X201398102Y-78695226D01*
X201598061Y-78735000D01*
X201660199Y-78735000D01*
X209936201Y-87011003D01*
X209959999Y-87040001D01*
X210075724Y-87134974D01*
X210207753Y-87205546D01*
X210351014Y-87249003D01*
X210462667Y-87260000D01*
X210462676Y-87260000D01*
X210499999Y-87263676D01*
X210537322Y-87260000D01*
X213296289Y-87260000D01*
X213340226Y-87303937D01*
X213509744Y-87417205D01*
X213698102Y-87495226D01*
X213898061Y-87535000D01*
X214101939Y-87535000D01*
X214301898Y-87495226D01*
X214490256Y-87417205D01*
X214659774Y-87303937D01*
X214803937Y-87159774D01*
X214917205Y-86990256D01*
X214995226Y-86801898D01*
X215035000Y-86601939D01*
X215035000Y-86398061D01*
X214995226Y-86198102D01*
X214917205Y-86009744D01*
X214803937Y-85840226D01*
X214659774Y-85696063D01*
X214490256Y-85582795D01*
X214301898Y-85504774D01*
X214101939Y-85465000D01*
X213898061Y-85465000D01*
X213698102Y-85504774D01*
X213509744Y-85582795D01*
X213340226Y-85696063D01*
X213296289Y-85740000D01*
X210814802Y-85740000D01*
X202735000Y-77660199D01*
X202735000Y-77598061D01*
X202695226Y-77398102D01*
X202617205Y-77209744D01*
X202503937Y-77040226D01*
X202359774Y-76896063D01*
X202190256Y-76782795D01*
X202001898Y-76704774D01*
X201801939Y-76665000D01*
X201598061Y-76665000D01*
X201398102Y-76704774D01*
X201209744Y-76782795D01*
X201040226Y-76896063D01*
X200896063Y-77040226D01*
X200782795Y-77209744D01*
X200704774Y-77398102D01*
X200665000Y-77598061D01*
X198963072Y-77598061D01*
X198963072Y-77575000D01*
X198950812Y-77450518D01*
X198914502Y-77330820D01*
X198855537Y-77220506D01*
X198776185Y-77123815D01*
X198679494Y-77044463D01*
X198569180Y-76985498D01*
X198449482Y-76949188D01*
X198325000Y-76936928D01*
X197475000Y-76936928D01*
X197350518Y-76949188D01*
X197230820Y-76985498D01*
X197120506Y-77044463D01*
X197023815Y-77123815D01*
X196944463Y-77220506D01*
X196885498Y-77330820D01*
X196849188Y-77450518D01*
X196836928Y-77575000D01*
X196836928Y-78425000D01*
X196849188Y-78549482D01*
X196885498Y-78669180D01*
X196890065Y-78677724D01*
X196855338Y-78792204D01*
X196834872Y-79000000D01*
X196855338Y-79207796D01*
X196915950Y-79407607D01*
X196965335Y-79500000D01*
X196915950Y-79592393D01*
X196855338Y-79792204D01*
X196834872Y-80000000D01*
X196855338Y-80207796D01*
X196915950Y-80407607D01*
X196965335Y-80500000D01*
X196915950Y-80592393D01*
X196855338Y-80792204D01*
X196834872Y-81000000D01*
X196855338Y-81207796D01*
X196915950Y-81407607D01*
X196966302Y-81501809D01*
X196891128Y-81674750D01*
X196880460Y-81709938D01*
X197007743Y-81873000D01*
X197292867Y-81873000D01*
X197308247Y-81885622D01*
X197492393Y-81984050D01*
X197544973Y-82000000D01*
X197492393Y-82015950D01*
X197308247Y-82114378D01*
X197292867Y-82127000D01*
X197007743Y-82127000D01*
X196880460Y-82290062D01*
X196891128Y-82325250D01*
X196966302Y-82498191D01*
X196915950Y-82592393D01*
X196855338Y-82792204D01*
X196834872Y-83000000D01*
X196855338Y-83207796D01*
X196915950Y-83407607D01*
X196965335Y-83500000D01*
X196915950Y-83592393D01*
X196855338Y-83792204D01*
X196834872Y-84000000D01*
X196855338Y-84207796D01*
X196915950Y-84407607D01*
X196965335Y-84500000D01*
X196915950Y-84592393D01*
X196855338Y-84792204D01*
X196834872Y-85000000D01*
X196855338Y-85207796D01*
X196915950Y-85407607D01*
X196966302Y-85501809D01*
X196891128Y-85674750D01*
X196880460Y-85709938D01*
X197007743Y-85873000D01*
X197292867Y-85873000D01*
X197308247Y-85885622D01*
X197492393Y-85984050D01*
X197544973Y-86000000D01*
X197492393Y-86015950D01*
X197308247Y-86114378D01*
X197292867Y-86127000D01*
X197007743Y-86127000D01*
X196880460Y-86290062D01*
X196891128Y-86325250D01*
X196902058Y-86350394D01*
X196874684Y-86365026D01*
X196758959Y-86459999D01*
X196735156Y-86489003D01*
X196638997Y-86585162D01*
X196609999Y-86608960D01*
X196586201Y-86637958D01*
X196586200Y-86637959D01*
X196515025Y-86724685D01*
X196444453Y-86856715D01*
X196400997Y-86999976D01*
X196386323Y-87148961D01*
X196390000Y-87186293D01*
X196389999Y-99314201D01*
X194828661Y-100875539D01*
X194740706Y-100710986D01*
X194555134Y-100484866D01*
X194525313Y-100460393D01*
X194594180Y-100439502D01*
X194704494Y-100380537D01*
X194801185Y-100301185D01*
X194880537Y-100204494D01*
X194939502Y-100094180D01*
X194975812Y-99974482D01*
X194988072Y-99850000D01*
X194988072Y-98150000D01*
X194975812Y-98025518D01*
X194939502Y-97905820D01*
X194880537Y-97795506D01*
X194801185Y-97698815D01*
X194704494Y-97619463D01*
X194594180Y-97560498D01*
X194474482Y-97524188D01*
X194350000Y-97511928D01*
X192650000Y-97511928D01*
X192525518Y-97524188D01*
X192405820Y-97560498D01*
X192295506Y-97619463D01*
X192198815Y-97698815D01*
X192119463Y-97795506D01*
X192060498Y-97905820D01*
X192024188Y-98025518D01*
X192011928Y-98150000D01*
X192011928Y-99850000D01*
X192024188Y-99974482D01*
X192060498Y-100094180D01*
X192119463Y-100204494D01*
X192198815Y-100301185D01*
X192295506Y-100380537D01*
X192405820Y-100439502D01*
X192474687Y-100460393D01*
X192444866Y-100484866D01*
X192259294Y-100710986D01*
X192121401Y-100968966D01*
X192036487Y-101248889D01*
X192007815Y-101540000D01*
X192036487Y-101831111D01*
X192121401Y-102111034D01*
X192259294Y-102369014D01*
X192321448Y-102444748D01*
X188226197Y-106540000D01*
X186353803Y-106540000D01*
X187686004Y-105207800D01*
X187715002Y-105184002D01*
X187772141Y-105114378D01*
X187809975Y-105068278D01*
X187880547Y-104936248D01*
X187884267Y-104923984D01*
X187924004Y-104792987D01*
X187935001Y-104681334D01*
X187935001Y-104681324D01*
X187938677Y-104644001D01*
X187935001Y-104606678D01*
X187935001Y-102752323D01*
X187938677Y-102715000D01*
X187935001Y-102677677D01*
X187935001Y-102677668D01*
X187924004Y-102566015D01*
X187880547Y-102422754D01*
X187809975Y-102290725D01*
X187715002Y-102175000D01*
X187686004Y-102151202D01*
X187440797Y-101905995D01*
X187463513Y-101831111D01*
X187492185Y-101540000D01*
X187463513Y-101248889D01*
X187378599Y-100968966D01*
X187240706Y-100710986D01*
X187055134Y-100484866D01*
X187025313Y-100460393D01*
X187094180Y-100439502D01*
X187204494Y-100380537D01*
X187301185Y-100301185D01*
X187380537Y-100204494D01*
X187439502Y-100094180D01*
X187475812Y-99974482D01*
X187488072Y-99850000D01*
X187485000Y-99285750D01*
X187326250Y-99127000D01*
X186127000Y-99127000D01*
X186127000Y-99147000D01*
X185873000Y-99147000D01*
X185873000Y-99127000D01*
X185853000Y-99127000D01*
X185853000Y-98873000D01*
X185873000Y-98873000D01*
X185873000Y-97673750D01*
X186127000Y-97673750D01*
X186127000Y-98873000D01*
X187326250Y-98873000D01*
X187485000Y-98714250D01*
X187488072Y-98150000D01*
X187475812Y-98025518D01*
X187439502Y-97905820D01*
X187380537Y-97795506D01*
X187301185Y-97698815D01*
X187204494Y-97619463D01*
X187094180Y-97560498D01*
X186974482Y-97524188D01*
X186850000Y-97511928D01*
X186285750Y-97515000D01*
X186127000Y-97673750D01*
X185873000Y-97673750D01*
X185714250Y-97515000D01*
X185584999Y-97514296D01*
X185584999Y-83989802D01*
X187539802Y-82035000D01*
X187601939Y-82035000D01*
X187801898Y-81995226D01*
X187990256Y-81917205D01*
X188159774Y-81803937D01*
X188303937Y-81659774D01*
X188417205Y-81490256D01*
X188495226Y-81301898D01*
X188535000Y-81101939D01*
X188535000Y-81010124D01*
X188560498Y-81094180D01*
X188619463Y-81204494D01*
X188698815Y-81301185D01*
X188795506Y-81380537D01*
X188905820Y-81439502D01*
X189025518Y-81475812D01*
X189150000Y-81488072D01*
X190850000Y-81488072D01*
X190974482Y-81475812D01*
X191094180Y-81439502D01*
X191204494Y-81380537D01*
X191301185Y-81301185D01*
X191380537Y-81204494D01*
X191439502Y-81094180D01*
X191475812Y-80974482D01*
X191488072Y-80850000D01*
X191488072Y-79150000D01*
X191475812Y-79025518D01*
X191439502Y-78905820D01*
X191380537Y-78795506D01*
X191301185Y-78698815D01*
X191204494Y-78619463D01*
X191094180Y-78560498D01*
X190974482Y-78524188D01*
X190850000Y-78511928D01*
X189150000Y-78511928D01*
X189025518Y-78524188D01*
X188905820Y-78560498D01*
X188795506Y-78619463D01*
X188698815Y-78698815D01*
X188619463Y-78795506D01*
X188560498Y-78905820D01*
X188524188Y-79025518D01*
X188511928Y-79150000D01*
X188511928Y-80782069D01*
X188495226Y-80698102D01*
X188417205Y-80509744D01*
X188303937Y-80340226D01*
X188159774Y-80196063D01*
X187990256Y-80082795D01*
X187801898Y-80004774D01*
X187601939Y-79965000D01*
X187398061Y-79965000D01*
X187198102Y-80004774D01*
X187009744Y-80082795D01*
X186840226Y-80196063D01*
X186696063Y-80340226D01*
X186582795Y-80509744D01*
X186504774Y-80698102D01*
X186465000Y-80898061D01*
X186465000Y-80960198D01*
X184314002Y-83111197D01*
X184284998Y-83135000D01*
X184229870Y-83202175D01*
X184190025Y-83250725D01*
X184119454Y-83382754D01*
X184119453Y-83382755D01*
X184075996Y-83526016D01*
X184064999Y-83637669D01*
X184064999Y-83637679D01*
X184061323Y-83675001D01*
X184064999Y-83712323D01*
X184065000Y-100327666D01*
X184061323Y-100364999D01*
X184075997Y-100513984D01*
X184119453Y-100657245D01*
X184190025Y-100789275D01*
X184240693Y-100851013D01*
X184284999Y-100905000D01*
X184313997Y-100928798D01*
X184559203Y-101174004D01*
X184536487Y-101248889D01*
X184507815Y-101540000D01*
X184536487Y-101831111D01*
X184621401Y-102111034D01*
X184759294Y-102369014D01*
X184944866Y-102595134D01*
X185170986Y-102780706D01*
X185225791Y-102810000D01*
X185170986Y-102839294D01*
X184944866Y-103024866D01*
X184759294Y-103250986D01*
X184722405Y-103320000D01*
X180987728Y-103320000D01*
X180995226Y-103301898D01*
X181035000Y-103101939D01*
X181035000Y-102898061D01*
X180995226Y-102698102D01*
X180917205Y-102509744D01*
X180803937Y-102340226D01*
X180659774Y-102196063D01*
X180490256Y-102082795D01*
X180301898Y-102004774D01*
X180101939Y-101965000D01*
X180039802Y-101965000D01*
X177960510Y-99885709D01*
X177995226Y-99801898D01*
X178035000Y-99601939D01*
X178035000Y-99398061D01*
X177995226Y-99198102D01*
X177917205Y-99009744D01*
X177803937Y-98840226D01*
X177659774Y-98696063D01*
X177490256Y-98582795D01*
X177301898Y-98504774D01*
X177101939Y-98465000D01*
X176898061Y-98465000D01*
X176698102Y-98504774D01*
X176509744Y-98582795D01*
X176340226Y-98696063D01*
X176260000Y-98776289D01*
X176260000Y-89814801D01*
X184039802Y-82035000D01*
X184101939Y-82035000D01*
X184301898Y-81995226D01*
X184490256Y-81917205D01*
X184659774Y-81803937D01*
X184803937Y-81659774D01*
X184917205Y-81490256D01*
X184995226Y-81301898D01*
X185035000Y-81101939D01*
X185035000Y-80898061D01*
X184995226Y-80698102D01*
X184917205Y-80509744D01*
X184803937Y-80340226D01*
X184659774Y-80196063D01*
X184490256Y-80082795D01*
X184301898Y-80004774D01*
X184101939Y-79965000D01*
X183898061Y-79965000D01*
X183698102Y-80004774D01*
X183509744Y-80082795D01*
X183340226Y-80196063D01*
X183196063Y-80340226D01*
X183082795Y-80509744D01*
X183004774Y-80698102D01*
X182965000Y-80898061D01*
X182965000Y-80960198D01*
X174989003Y-88936196D01*
X174959999Y-88959999D01*
X174919175Y-89009744D01*
X174865026Y-89075724D01*
X174855161Y-89094180D01*
X174794454Y-89207754D01*
X174750997Y-89351015D01*
X174740000Y-89462668D01*
X174740000Y-89462678D01*
X174736324Y-89500000D01*
X174740000Y-89537322D01*
X174740001Y-100796288D01*
X174696063Y-100840226D01*
X174582795Y-101009744D01*
X174504774Y-101198102D01*
X174465000Y-101398061D01*
X174465000Y-101601939D01*
X174504774Y-101801898D01*
X174582795Y-101990256D01*
X174696063Y-102159774D01*
X174840226Y-102303937D01*
X175009744Y-102417205D01*
X175198102Y-102495226D01*
X175398061Y-102535000D01*
X175460199Y-102535000D01*
X177516201Y-104591003D01*
X177539999Y-104620001D01*
X177568997Y-104643799D01*
X177655723Y-104714974D01*
X177768019Y-104774998D01*
X177787753Y-104785546D01*
X177931014Y-104829003D01*
X178042667Y-104840000D01*
X178042677Y-104840000D01*
X178080000Y-104843676D01*
X178117322Y-104840000D01*
X184722405Y-104840000D01*
X184759294Y-104909014D01*
X184944866Y-105135134D01*
X185170986Y-105320706D01*
X185335539Y-105408661D01*
X185004201Y-105740000D01*
X176203711Y-105740000D01*
X176159774Y-105696063D01*
X175990256Y-105582795D01*
X175801898Y-105504774D01*
X175601939Y-105465000D01*
X175398061Y-105465000D01*
X175198102Y-105504774D01*
X175009744Y-105582795D01*
X174840226Y-105696063D01*
X174696063Y-105840226D01*
X174582795Y-106009744D01*
X174504774Y-106198102D01*
X174465000Y-106398061D01*
X174465000Y-106460198D01*
X173735189Y-107190010D01*
X168384792Y-107190010D01*
X168838798Y-106736004D01*
X168838802Y-106735999D01*
X169039801Y-106535000D01*
X169101939Y-106535000D01*
X169301898Y-106495226D01*
X169490256Y-106417205D01*
X169659774Y-106303937D01*
X169803937Y-106159774D01*
X169917205Y-105990256D01*
X169995226Y-105801898D01*
X170035000Y-105601939D01*
X170035000Y-105398061D01*
X169995226Y-105198102D01*
X169917205Y-105009744D01*
X169803937Y-104840226D01*
X169659774Y-104696063D01*
X169490256Y-104582795D01*
X169301898Y-104504774D01*
X169101939Y-104465000D01*
X168898061Y-104465000D01*
X168698102Y-104504774D01*
X168509744Y-104582795D01*
X168460965Y-104615388D01*
X168417205Y-104509744D01*
X168303937Y-104340226D01*
X168159774Y-104196063D01*
X167990256Y-104082795D01*
X167801898Y-104004774D01*
X167601939Y-103965000D01*
X167535000Y-103965000D01*
X167535000Y-103898061D01*
X167495226Y-103698102D01*
X167417205Y-103509744D01*
X167303937Y-103340226D01*
X167159774Y-103196063D01*
X166990256Y-103082795D01*
X166801898Y-103004774D01*
X166601939Y-102965000D01*
X166398061Y-102965000D01*
X166198102Y-103004774D01*
X166009744Y-103082795D01*
X165840226Y-103196063D01*
X165796289Y-103240000D01*
X156734802Y-103240000D01*
X152892863Y-99398061D01*
X154865000Y-99398061D01*
X154865000Y-99601939D01*
X154904774Y-99801898D01*
X154982795Y-99990256D01*
X155096063Y-100159774D01*
X155240226Y-100303937D01*
X155409744Y-100417205D01*
X155598102Y-100495226D01*
X155798061Y-100535000D01*
X156001939Y-100535000D01*
X156201898Y-100495226D01*
X156390256Y-100417205D01*
X156559774Y-100303937D01*
X156603711Y-100260000D01*
X162985199Y-100260000D01*
X163765000Y-101039802D01*
X163765000Y-101101939D01*
X163804774Y-101301898D01*
X163882795Y-101490256D01*
X163996063Y-101659774D01*
X164140226Y-101803937D01*
X164309744Y-101917205D01*
X164498102Y-101995226D01*
X164698061Y-102035000D01*
X164901939Y-102035000D01*
X165101898Y-101995226D01*
X165290256Y-101917205D01*
X165459774Y-101803937D01*
X165603937Y-101659774D01*
X165717205Y-101490256D01*
X165795226Y-101301898D01*
X165835000Y-101101939D01*
X165835000Y-100898061D01*
X165795226Y-100698102D01*
X165717205Y-100509744D01*
X165603937Y-100340226D01*
X165459774Y-100196063D01*
X165290256Y-100082795D01*
X165101898Y-100004774D01*
X164901939Y-99965000D01*
X164839802Y-99965000D01*
X163863804Y-98989003D01*
X163840001Y-98959999D01*
X163724276Y-98865026D01*
X163592247Y-98794454D01*
X163448986Y-98750997D01*
X163337333Y-98740000D01*
X163337322Y-98740000D01*
X163300000Y-98736324D01*
X163262678Y-98740000D01*
X156603711Y-98740000D01*
X156559774Y-98696063D01*
X156390256Y-98582795D01*
X156201898Y-98504774D01*
X156001939Y-98465000D01*
X155798061Y-98465000D01*
X155598102Y-98504774D01*
X155409744Y-98582795D01*
X155240226Y-98696063D01*
X155096063Y-98840226D01*
X154982795Y-99009744D01*
X154904774Y-99198102D01*
X154865000Y-99398061D01*
X152892863Y-99398061D01*
X147040797Y-93545996D01*
X147063513Y-93471111D01*
X147092185Y-93180000D01*
X147063513Y-92888889D01*
X146978599Y-92608966D01*
X146840706Y-92350986D01*
X146655134Y-92124866D01*
X146429014Y-91939294D01*
X146364477Y-91904799D01*
X146481355Y-91835178D01*
X146697588Y-91640269D01*
X146871641Y-91406920D01*
X146996825Y-91144099D01*
X147041476Y-90996890D01*
X146920155Y-90767000D01*
X145727000Y-90767000D01*
X145727000Y-90787000D01*
X145473000Y-90787000D01*
X145473000Y-90767000D01*
X145453000Y-90767000D01*
X145453000Y-90513000D01*
X145473000Y-90513000D01*
X145473000Y-90493000D01*
X145727000Y-90493000D01*
X145727000Y-90513000D01*
X146920155Y-90513000D01*
X147041476Y-90283110D01*
X146996825Y-90135901D01*
X146871641Y-89873080D01*
X146697588Y-89639731D01*
X146613534Y-89563966D01*
X146694180Y-89539502D01*
X146804494Y-89480537D01*
X146901185Y-89401185D01*
X146980537Y-89304494D01*
X147039502Y-89194180D01*
X147075812Y-89074482D01*
X147088072Y-88950000D01*
X147088072Y-87250000D01*
X147078224Y-87150000D01*
X154311928Y-87150000D01*
X154311928Y-88850000D01*
X154324188Y-88974482D01*
X154360498Y-89094180D01*
X154419463Y-89204494D01*
X154498815Y-89301185D01*
X154595506Y-89380537D01*
X154705820Y-89439502D01*
X154825518Y-89475812D01*
X154950000Y-89488072D01*
X156650000Y-89488072D01*
X156774482Y-89475812D01*
X156894180Y-89439502D01*
X157004494Y-89380537D01*
X157101185Y-89301185D01*
X157180537Y-89204494D01*
X157239502Y-89094180D01*
X157275812Y-88974482D01*
X157288072Y-88850000D01*
X157288072Y-87150000D01*
X157275812Y-87025518D01*
X157239502Y-86905820D01*
X157180537Y-86795506D01*
X157101185Y-86698815D01*
X157004494Y-86619463D01*
X156894180Y-86560498D01*
X156774482Y-86524188D01*
X156650000Y-86511928D01*
X154950000Y-86511928D01*
X154825518Y-86524188D01*
X154705820Y-86560498D01*
X154595506Y-86619463D01*
X154498815Y-86698815D01*
X154419463Y-86795506D01*
X154360498Y-86905820D01*
X154324188Y-87025518D01*
X154311928Y-87150000D01*
X147078224Y-87150000D01*
X147075812Y-87125518D01*
X147039502Y-87005820D01*
X146980537Y-86895506D01*
X146901185Y-86798815D01*
X146804494Y-86719463D01*
X146694180Y-86660498D01*
X146574482Y-86624188D01*
X146450000Y-86611928D01*
X144750000Y-86611928D01*
X144710000Y-86615868D01*
X144710000Y-74000000D01*
X161061928Y-74000000D01*
X161074188Y-74124482D01*
X161110498Y-74244180D01*
X161169463Y-74354494D01*
X161248815Y-74451185D01*
X161345506Y-74530537D01*
X161455820Y-74589502D01*
X161575518Y-74625812D01*
X161700000Y-74638072D01*
X162214250Y-74635000D01*
X162373000Y-74476250D01*
X162373000Y-73627000D01*
X162627000Y-73627000D01*
X162627000Y-74476250D01*
X162785750Y-74635000D01*
X163300000Y-74638072D01*
X163424482Y-74625812D01*
X163544180Y-74589502D01*
X163654494Y-74530537D01*
X163751185Y-74451185D01*
X163830537Y-74354494D01*
X163889502Y-74244180D01*
X163925812Y-74124482D01*
X163938072Y-74000000D01*
X163935000Y-73785750D01*
X163776250Y-73627000D01*
X162627000Y-73627000D01*
X162373000Y-73627000D01*
X161223750Y-73627000D01*
X161065000Y-73785750D01*
X161061928Y-74000000D01*
X144710000Y-74000000D01*
X144710000Y-71564525D01*
X144854727Y-71913928D01*
X145181399Y-72402826D01*
X145597174Y-72818601D01*
X146086072Y-73145273D01*
X146629308Y-73370288D01*
X147206003Y-73485000D01*
X147793997Y-73485000D01*
X148370692Y-73370288D01*
X148913928Y-73145273D01*
X149402826Y-72818601D01*
X149818601Y-72402826D01*
X150145273Y-71913928D01*
X150370288Y-71370692D01*
X150485000Y-70793997D01*
X150485000Y-70550000D01*
X151811928Y-70550000D01*
X151811928Y-73050000D01*
X151824188Y-73174482D01*
X151860498Y-73294180D01*
X151919463Y-73404494D01*
X151998815Y-73501185D01*
X152095506Y-73580537D01*
X152205820Y-73639502D01*
X152325518Y-73675812D01*
X152450000Y-73688072D01*
X154950000Y-73688072D01*
X155074482Y-73675812D01*
X155194180Y-73639502D01*
X155304494Y-73580537D01*
X155401185Y-73501185D01*
X155480537Y-73404494D01*
X155539502Y-73294180D01*
X155575812Y-73174482D01*
X155581807Y-73113605D01*
X157566000Y-73113605D01*
X157691914Y-73403577D01*
X158024126Y-73569433D01*
X158382312Y-73667290D01*
X158752706Y-73693389D01*
X159121075Y-73646725D01*
X159473262Y-73529094D01*
X159708086Y-73403577D01*
X159834000Y-73113605D01*
X159720395Y-73000000D01*
X161061928Y-73000000D01*
X161065000Y-73214250D01*
X161223750Y-73373000D01*
X162373000Y-73373000D01*
X162373000Y-72523750D01*
X162627000Y-72523750D01*
X162627000Y-73373000D01*
X163776250Y-73373000D01*
X163935000Y-73214250D01*
X163938072Y-73000000D01*
X166061928Y-73000000D01*
X166061928Y-74000000D01*
X166074188Y-74124482D01*
X166110498Y-74244180D01*
X166169463Y-74354494D01*
X166248815Y-74451185D01*
X166345506Y-74530537D01*
X166455820Y-74589502D01*
X166575518Y-74625812D01*
X166700000Y-74638072D01*
X168300000Y-74638072D01*
X168424482Y-74625812D01*
X168544180Y-74589502D01*
X168654494Y-74530537D01*
X168751185Y-74451185D01*
X168830537Y-74354494D01*
X168889502Y-74244180D01*
X168925812Y-74124482D01*
X168938072Y-74000000D01*
X172561928Y-74000000D01*
X172574188Y-74124482D01*
X172610498Y-74244180D01*
X172669463Y-74354494D01*
X172748815Y-74451185D01*
X172845506Y-74530537D01*
X172955820Y-74589502D01*
X173075518Y-74625812D01*
X173200000Y-74638072D01*
X173714250Y-74635000D01*
X173873000Y-74476250D01*
X173873000Y-73627000D01*
X174127000Y-73627000D01*
X174127000Y-74476250D01*
X174285750Y-74635000D01*
X174800000Y-74638072D01*
X174924482Y-74625812D01*
X175044180Y-74589502D01*
X175154494Y-74530537D01*
X175251185Y-74451185D01*
X175330537Y-74354494D01*
X175389502Y-74244180D01*
X175425812Y-74124482D01*
X175438072Y-74000000D01*
X175435000Y-73785750D01*
X175276250Y-73627000D01*
X174127000Y-73627000D01*
X173873000Y-73627000D01*
X172723750Y-73627000D01*
X172565000Y-73785750D01*
X172561928Y-74000000D01*
X168938072Y-74000000D01*
X168938072Y-73000000D01*
X172561928Y-73000000D01*
X172565000Y-73214250D01*
X172723750Y-73373000D01*
X173873000Y-73373000D01*
X173873000Y-72523750D01*
X174127000Y-72523750D01*
X174127000Y-73373000D01*
X175276250Y-73373000D01*
X175435000Y-73214250D01*
X175438072Y-73000000D01*
X175425812Y-72875518D01*
X175389502Y-72755820D01*
X175330537Y-72645506D01*
X175251185Y-72548815D01*
X175154494Y-72469463D01*
X175044180Y-72410498D01*
X174924482Y-72374188D01*
X174800000Y-72361928D01*
X174285750Y-72365000D01*
X174127000Y-72523750D01*
X173873000Y-72523750D01*
X173714250Y-72365000D01*
X173200000Y-72361928D01*
X173075518Y-72374188D01*
X172955820Y-72410498D01*
X172845506Y-72469463D01*
X172748815Y-72548815D01*
X172669463Y-72645506D01*
X172610498Y-72755820D01*
X172574188Y-72875518D01*
X172561928Y-73000000D01*
X168938072Y-73000000D01*
X168925812Y-72875518D01*
X168889502Y-72755820D01*
X168830537Y-72645506D01*
X168751185Y-72548815D01*
X168654494Y-72469463D01*
X168544180Y-72410498D01*
X168424482Y-72374188D01*
X168300000Y-72361928D01*
X166700000Y-72361928D01*
X166575518Y-72374188D01*
X166455820Y-72410498D01*
X166345506Y-72469463D01*
X166248815Y-72548815D01*
X166169463Y-72645506D01*
X166110498Y-72755820D01*
X166074188Y-72875518D01*
X166061928Y-73000000D01*
X163938072Y-73000000D01*
X163925812Y-72875518D01*
X163889502Y-72755820D01*
X163830537Y-72645506D01*
X163751185Y-72548815D01*
X163654494Y-72469463D01*
X163544180Y-72410498D01*
X163424482Y-72374188D01*
X163300000Y-72361928D01*
X162785750Y-72365000D01*
X162627000Y-72523750D01*
X162373000Y-72523750D01*
X162214250Y-72365000D01*
X161700000Y-72361928D01*
X161575518Y-72374188D01*
X161455820Y-72410498D01*
X161345506Y-72469463D01*
X161248815Y-72548815D01*
X161169463Y-72645506D01*
X161110498Y-72755820D01*
X161074188Y-72875518D01*
X161061928Y-73000000D01*
X159720395Y-73000000D01*
X158700000Y-71979605D01*
X157566000Y-73113605D01*
X155581807Y-73113605D01*
X155588072Y-73050000D01*
X155588072Y-71852706D01*
X156806611Y-71852706D01*
X156853275Y-72221075D01*
X156970906Y-72573262D01*
X157096423Y-72808086D01*
X157386395Y-72934000D01*
X158520395Y-71800000D01*
X158879605Y-71800000D01*
X160013605Y-72934000D01*
X160303577Y-72808086D01*
X160469433Y-72475874D01*
X160567290Y-72117688D01*
X160593389Y-71747294D01*
X160546725Y-71378925D01*
X160429094Y-71026738D01*
X160303577Y-70791914D01*
X160013605Y-70666000D01*
X158879605Y-71800000D01*
X158520395Y-71800000D01*
X157386395Y-70666000D01*
X157096423Y-70791914D01*
X156930567Y-71124126D01*
X156832710Y-71482312D01*
X156806611Y-71852706D01*
X155588072Y-71852706D01*
X155588072Y-70550000D01*
X155581808Y-70486395D01*
X157566000Y-70486395D01*
X158700000Y-71620395D01*
X159834000Y-70486395D01*
X159708086Y-70196423D01*
X159375874Y-70030567D01*
X159017688Y-69932710D01*
X158647294Y-69906611D01*
X158278925Y-69953275D01*
X157926738Y-70070906D01*
X157691914Y-70196423D01*
X157566000Y-70486395D01*
X155581808Y-70486395D01*
X155575812Y-70425518D01*
X155539502Y-70305820D01*
X155480537Y-70195506D01*
X155401185Y-70098815D01*
X155304494Y-70019463D01*
X155194180Y-69960498D01*
X155074482Y-69924188D01*
X154950000Y-69911928D01*
X152450000Y-69911928D01*
X152325518Y-69924188D01*
X152205820Y-69960498D01*
X152095506Y-70019463D01*
X151998815Y-70098815D01*
X151919463Y-70195506D01*
X151860498Y-70305820D01*
X151824188Y-70425518D01*
X151811928Y-70550000D01*
X150485000Y-70550000D01*
X150485000Y-70206003D01*
X150370288Y-69629308D01*
X150145273Y-69086072D01*
X149818601Y-68597174D01*
X149431427Y-68210000D01*
X166215000Y-68210000D01*
X166215000Y-68351939D01*
X166215000Y-68351939D01*
G37*
X166215000Y-68351939D02*
X166254774Y-68551898D01*
X166332795Y-68740256D01*
X166446063Y-68909774D01*
X166590226Y-69053937D01*
X166740001Y-69154013D01*
X166740001Y-69161928D01*
X166700000Y-69161928D01*
X166575518Y-69174188D01*
X166455820Y-69210498D01*
X166345506Y-69269463D01*
X166248815Y-69348815D01*
X166169463Y-69445506D01*
X166110498Y-69555820D01*
X166074188Y-69675518D01*
X166061928Y-69800000D01*
X166061928Y-70365001D01*
X164689803Y-70365001D01*
X164113803Y-69789002D01*
X164090001Y-69759999D01*
X163974276Y-69665026D01*
X163912634Y-69632077D01*
X163889502Y-69555820D01*
X163830537Y-69445506D01*
X163751185Y-69348815D01*
X163654494Y-69269463D01*
X163544180Y-69210498D01*
X163424482Y-69174188D01*
X163300000Y-69161928D01*
X161700000Y-69161928D01*
X161575518Y-69174188D01*
X161455820Y-69210498D01*
X161345506Y-69269463D01*
X161248815Y-69348815D01*
X161169463Y-69445506D01*
X161110498Y-69555820D01*
X161074188Y-69675518D01*
X161061928Y-69800000D01*
X161061928Y-70800000D01*
X161074188Y-70924482D01*
X161110498Y-71044180D01*
X161169463Y-71154494D01*
X161248815Y-71251185D01*
X161345506Y-71330537D01*
X161455820Y-71389502D01*
X161575518Y-71425812D01*
X161700000Y-71438072D01*
X163300000Y-71438072D01*
X163424482Y-71425812D01*
X163544180Y-71389502D01*
X163557552Y-71382354D01*
X163811202Y-71636003D01*
X163835000Y-71665002D01*
X163863998Y-71688800D01*
X163950725Y-71759975D01*
X164082754Y-71830547D01*
X164226015Y-71874004D01*
X164375001Y-71888678D01*
X164412334Y-71885001D01*
X174923790Y-71885001D01*
X177049791Y-74011003D01*
X177073589Y-74040001D01*
X177189314Y-74134974D01*
X177321343Y-74205546D01*
X177464604Y-74249003D01*
X177576257Y-74260000D01*
X177576265Y-74260000D01*
X177613590Y-74263676D01*
X177620552Y-74262990D01*
X177669463Y-74354494D01*
X177748815Y-74451185D01*
X177845506Y-74530537D01*
X177955820Y-74589502D01*
X178075518Y-74625812D01*
X178200000Y-74638072D01*
X179800000Y-74638072D01*
X179924482Y-74625812D01*
X180044180Y-74589502D01*
X180154494Y-74530537D01*
X180251185Y-74451185D01*
X180330537Y-74354494D01*
X180389502Y-74244180D01*
X180425812Y-74124482D01*
X180438072Y-74000000D01*
X184061928Y-74000000D01*
X184074188Y-74124482D01*
X184110498Y-74244180D01*
X184169463Y-74354494D01*
X184248815Y-74451185D01*
X184345506Y-74530537D01*
X184455820Y-74589502D01*
X184575518Y-74625812D01*
X184700000Y-74638072D01*
X185214250Y-74635000D01*
X185373000Y-74476250D01*
X185373000Y-73627000D01*
X185627000Y-73627000D01*
X185627000Y-74476250D01*
X185785750Y-74635000D01*
X186300000Y-74638072D01*
X186424482Y-74625812D01*
X186544180Y-74589502D01*
X186654494Y-74530537D01*
X186751185Y-74451185D01*
X186830537Y-74354494D01*
X186889502Y-74244180D01*
X186925812Y-74124482D01*
X186938072Y-74000000D01*
X186935000Y-73785750D01*
X186776250Y-73627000D01*
X185627000Y-73627000D01*
X185373000Y-73627000D01*
X184223750Y-73627000D01*
X184065000Y-73785750D01*
X184061928Y-74000000D01*
X180438072Y-74000000D01*
X180438072Y-73000000D01*
X184061928Y-73000000D01*
X184065000Y-73214250D01*
X184223750Y-73373000D01*
X185373000Y-73373000D01*
X185373000Y-72523750D01*
X185627000Y-72523750D01*
X185627000Y-73373000D01*
X186776250Y-73373000D01*
X186935000Y-73214250D01*
X186938072Y-73000000D01*
X186925812Y-72875518D01*
X186889502Y-72755820D01*
X186830537Y-72645506D01*
X186751185Y-72548815D01*
X186654494Y-72469463D01*
X186544180Y-72410498D01*
X186424482Y-72374188D01*
X186300000Y-72361928D01*
X185785750Y-72365000D01*
X185627000Y-72523750D01*
X185373000Y-72523750D01*
X185214250Y-72365000D01*
X184700000Y-72361928D01*
X184575518Y-72374188D01*
X184455820Y-72410498D01*
X184345506Y-72469463D01*
X184248815Y-72548815D01*
X184169463Y-72645506D01*
X184110498Y-72755820D01*
X184074188Y-72875518D01*
X184061928Y-73000000D01*
X180438072Y-73000000D01*
X180425812Y-72875518D01*
X180389502Y-72755820D01*
X180330537Y-72645506D01*
X180251185Y-72548815D01*
X180154494Y-72469463D01*
X180044180Y-72410498D01*
X179924482Y-72374188D01*
X179800000Y-72361928D01*
X178200000Y-72361928D01*
X178075518Y-72374188D01*
X177955820Y-72410498D01*
X177845506Y-72469463D01*
X177748815Y-72548815D01*
X177743583Y-72555191D01*
X177073393Y-71885001D01*
X186423790Y-71885001D01*
X188549791Y-74011003D01*
X188573589Y-74040001D01*
X188689314Y-74134974D01*
X188821343Y-74205546D01*
X188964604Y-74249003D01*
X189076257Y-74260000D01*
X189076265Y-74260000D01*
X189113590Y-74263676D01*
X189120552Y-74262990D01*
X189169463Y-74354494D01*
X189248815Y-74451185D01*
X189345506Y-74530537D01*
X189455820Y-74589502D01*
X189575518Y-74625812D01*
X189700000Y-74638072D01*
X191300000Y-74638072D01*
X191424482Y-74625812D01*
X191544180Y-74589502D01*
X191654494Y-74530537D01*
X191751185Y-74451185D01*
X191830537Y-74354494D01*
X191889502Y-74244180D01*
X191925812Y-74124482D01*
X191938072Y-74000000D01*
X195561928Y-74000000D01*
X195574188Y-74124482D01*
X195610498Y-74244180D01*
X195669463Y-74354494D01*
X195748815Y-74451185D01*
X195845506Y-74530537D01*
X195955820Y-74589502D01*
X196075518Y-74625812D01*
X196200000Y-74638072D01*
X196714250Y-74635000D01*
X196873000Y-74476250D01*
X196873000Y-73627000D01*
X197127000Y-73627000D01*
X197127000Y-74476250D01*
X197285750Y-74635000D01*
X197800000Y-74638072D01*
X197924482Y-74625812D01*
X198044180Y-74589502D01*
X198154494Y-74530537D01*
X198251185Y-74451185D01*
X198330537Y-74354494D01*
X198389502Y-74244180D01*
X198425812Y-74124482D01*
X198438072Y-74000000D01*
X198435000Y-73785750D01*
X198276250Y-73627000D01*
X197127000Y-73627000D01*
X196873000Y-73627000D01*
X195723750Y-73627000D01*
X195565000Y-73785750D01*
X195561928Y-74000000D01*
X191938072Y-74000000D01*
X191938072Y-73000000D01*
X195561928Y-73000000D01*
X195565000Y-73214250D01*
X195723750Y-73373000D01*
X196873000Y-73373000D01*
X196873000Y-72523750D01*
X197127000Y-72523750D01*
X197127000Y-73373000D01*
X198276250Y-73373000D01*
X198435000Y-73214250D01*
X198438072Y-73000000D01*
X198425812Y-72875518D01*
X198389502Y-72755820D01*
X198330537Y-72645506D01*
X198251185Y-72548815D01*
X198154494Y-72469463D01*
X198044180Y-72410498D01*
X197924482Y-72374188D01*
X197800000Y-72361928D01*
X197285750Y-72365000D01*
X197127000Y-72523750D01*
X196873000Y-72523750D01*
X196714250Y-72365000D01*
X196200000Y-72361928D01*
X196075518Y-72374188D01*
X195955820Y-72410498D01*
X195845506Y-72469463D01*
X195748815Y-72548815D01*
X195669463Y-72645506D01*
X195610498Y-72755820D01*
X195574188Y-72875518D01*
X195561928Y-73000000D01*
X191938072Y-73000000D01*
X191925812Y-72875518D01*
X191889502Y-72755820D01*
X191830537Y-72645506D01*
X191751185Y-72548815D01*
X191654494Y-72469463D01*
X191544180Y-72410498D01*
X191424482Y-72374188D01*
X191300000Y-72361928D01*
X189700000Y-72361928D01*
X189575518Y-72374188D01*
X189455820Y-72410498D01*
X189345506Y-72469463D01*
X189248815Y-72548815D01*
X189243583Y-72555191D01*
X188573393Y-71885001D01*
X197923790Y-71885001D01*
X200049791Y-74011003D01*
X200073589Y-74040001D01*
X200189314Y-74134974D01*
X200321343Y-74205546D01*
X200464604Y-74249003D01*
X200576257Y-74260000D01*
X200576265Y-74260000D01*
X200613590Y-74263676D01*
X200620552Y-74262990D01*
X200669463Y-74354494D01*
X200748815Y-74451185D01*
X200845506Y-74530537D01*
X200955820Y-74589502D01*
X201075518Y-74625812D01*
X201200000Y-74638072D01*
X202800000Y-74638072D01*
X202924482Y-74625812D01*
X203044180Y-74589502D01*
X203154494Y-74530537D01*
X203251185Y-74451185D01*
X203330537Y-74354494D01*
X203389502Y-74244180D01*
X203425812Y-74124482D01*
X203438072Y-74000000D01*
X207061928Y-74000000D01*
X207074188Y-74124482D01*
X207110498Y-74244180D01*
X207169463Y-74354494D01*
X207248815Y-74451185D01*
X207345506Y-74530537D01*
X207455820Y-74589502D01*
X207575518Y-74625812D01*
X207700000Y-74638072D01*
X208214250Y-74635000D01*
X208373000Y-74476250D01*
X208373000Y-73627000D01*
X208627000Y-73627000D01*
X208627000Y-74476250D01*
X208785750Y-74635000D01*
X209300000Y-74638072D01*
X209424482Y-74625812D01*
X209544180Y-74589502D01*
X209654494Y-74530537D01*
X209751185Y-74451185D01*
X209830537Y-74354494D01*
X209889502Y-74244180D01*
X209925812Y-74124482D01*
X209938072Y-74000000D01*
X209935000Y-73785750D01*
X209776250Y-73627000D01*
X208627000Y-73627000D01*
X208373000Y-73627000D01*
X207223750Y-73627000D01*
X207065000Y-73785750D01*
X207061928Y-74000000D01*
X203438072Y-74000000D01*
X203438072Y-73000000D01*
X207061928Y-73000000D01*
X207065000Y-73214250D01*
X207223750Y-73373000D01*
X208373000Y-73373000D01*
X208373000Y-72523750D01*
X208627000Y-72523750D01*
X208627000Y-73373000D01*
X209776250Y-73373000D01*
X209935000Y-73214250D01*
X209938072Y-73000000D01*
X209925812Y-72875518D01*
X209889502Y-72755820D01*
X209830537Y-72645506D01*
X209751185Y-72548815D01*
X209654494Y-72469463D01*
X209544180Y-72410498D01*
X209424482Y-72374188D01*
X209300000Y-72361928D01*
X208785750Y-72365000D01*
X208627000Y-72523750D01*
X208373000Y-72523750D01*
X208214250Y-72365000D01*
X207700000Y-72361928D01*
X207575518Y-72374188D01*
X207455820Y-72410498D01*
X207345506Y-72469463D01*
X207248815Y-72548815D01*
X207169463Y-72645506D01*
X207110498Y-72755820D01*
X207074188Y-72875518D01*
X207061928Y-73000000D01*
X203438072Y-73000000D01*
X203425812Y-72875518D01*
X203389502Y-72755820D01*
X203330537Y-72645506D01*
X203251185Y-72548815D01*
X203154494Y-72469463D01*
X203044180Y-72410498D01*
X202924482Y-72374188D01*
X202800000Y-72361928D01*
X201200000Y-72361928D01*
X201075518Y-72374188D01*
X200955820Y-72410498D01*
X200845506Y-72469463D01*
X200748815Y-72548815D01*
X200743583Y-72555191D01*
X200073393Y-71885001D01*
X209760200Y-71885001D01*
X211886201Y-74011003D01*
X211909999Y-74040001D01*
X212025724Y-74134974D01*
X212087366Y-74167923D01*
X212110498Y-74244180D01*
X212169463Y-74354494D01*
X212248815Y-74451185D01*
X212345506Y-74530537D01*
X212455820Y-74589502D01*
X212575518Y-74625812D01*
X212700000Y-74638072D01*
X214300000Y-74638072D01*
X214424482Y-74625812D01*
X214544180Y-74589502D01*
X214654494Y-74530537D01*
X214751185Y-74451185D01*
X214830537Y-74354494D01*
X214889502Y-74244180D01*
X214925812Y-74124482D01*
X214938072Y-74000000D01*
X214938072Y-73000000D01*
X214925812Y-72875518D01*
X214889502Y-72755820D01*
X214830537Y-72645506D01*
X214751185Y-72548815D01*
X214654494Y-72469463D01*
X214544180Y-72410498D01*
X214424482Y-72374188D01*
X214300000Y-72361928D01*
X212700000Y-72361928D01*
X212575518Y-72374188D01*
X212455820Y-72410498D01*
X212442448Y-72417646D01*
X211059801Y-71035000D01*
X211101939Y-71035000D01*
X211301898Y-70995226D01*
X211490256Y-70917205D01*
X211659774Y-70803937D01*
X211803937Y-70659774D01*
X211917205Y-70490256D01*
X211995226Y-70301898D01*
X212035000Y-70101939D01*
X212035000Y-69898061D01*
X211995226Y-69698102D01*
X211917205Y-69509744D01*
X211803937Y-69340226D01*
X211659774Y-69196063D01*
X211490256Y-69082795D01*
X211301898Y-69004774D01*
X211101939Y-68965000D01*
X210898061Y-68965000D01*
X210698102Y-69004774D01*
X210509744Y-69082795D01*
X210340226Y-69196063D01*
X210296289Y-69240000D01*
X209599373Y-69240000D01*
X209544180Y-69210498D01*
X209424482Y-69174188D01*
X209300000Y-69161928D01*
X207700000Y-69161928D01*
X207575518Y-69174188D01*
X207455820Y-69210498D01*
X207345506Y-69269463D01*
X207248815Y-69348815D01*
X207169463Y-69445506D01*
X207110498Y-69555820D01*
X207074188Y-69675518D01*
X207061928Y-69800000D01*
X207061928Y-70365001D01*
X203438072Y-70365001D01*
X203438072Y-69800000D01*
X203425812Y-69675518D01*
X203389502Y-69555820D01*
X203330537Y-69445506D01*
X203315042Y-69426625D01*
X203354494Y-69405537D01*
X203451185Y-69326185D01*
X203500000Y-69266704D01*
X203548815Y-69326185D01*
X203645506Y-69405537D01*
X203755820Y-69464502D01*
X203875518Y-69500812D01*
X204000000Y-69513072D01*
X204214250Y-69510000D01*
X204373000Y-69351250D01*
X204373000Y-68377000D01*
X204627000Y-68377000D01*
X204627000Y-69351250D01*
X204785750Y-69510000D01*
X205000000Y-69513072D01*
X205124482Y-69500812D01*
X205244180Y-69464502D01*
X205354494Y-69405537D01*
X205451185Y-69326185D01*
X205530537Y-69229494D01*
X205589502Y-69119180D01*
X205625812Y-68999482D01*
X205638072Y-68875000D01*
X205635000Y-68535750D01*
X205476250Y-68377000D01*
X204627000Y-68377000D01*
X204373000Y-68377000D01*
X204353000Y-68377000D01*
X204353000Y-68210000D01*
X211465000Y-68210000D01*
X211465000Y-68351939D01*
X211504774Y-68551898D01*
X211582795Y-68740256D01*
X211696063Y-68909774D01*
X211840226Y-69053937D01*
X212009744Y-69167205D01*
X212198102Y-69245226D01*
X212340520Y-69273555D01*
X212248815Y-69348815D01*
X212169463Y-69445506D01*
X212110498Y-69555820D01*
X212074188Y-69675518D01*
X212061928Y-69800000D01*
X212061928Y-70800000D01*
X212074188Y-70924482D01*
X212110498Y-71044180D01*
X212169463Y-71154494D01*
X212248815Y-71251185D01*
X212345506Y-71330537D01*
X212455820Y-71389502D01*
X212575518Y-71425812D01*
X212700000Y-71438072D01*
X214300000Y-71438072D01*
X214424482Y-71425812D01*
X214544180Y-71389502D01*
X214654494Y-71330537D01*
X214751185Y-71251185D01*
X214830537Y-71154494D01*
X214889502Y-71044180D01*
X214925812Y-70924482D01*
X214938072Y-70800000D01*
X214938072Y-69800000D01*
X214925812Y-69675518D01*
X214889502Y-69555820D01*
X214830537Y-69445506D01*
X214815042Y-69426625D01*
X214854494Y-69405537D01*
X214951185Y-69326185D01*
X215000000Y-69266704D01*
X215048815Y-69326185D01*
X215145506Y-69405537D01*
X215255820Y-69464502D01*
X215375518Y-69500812D01*
X215500000Y-69513072D01*
X215714250Y-69510000D01*
X215873000Y-69351250D01*
X215873000Y-68377000D01*
X216127000Y-68377000D01*
X216127000Y-69351250D01*
X216285750Y-69510000D01*
X216500000Y-69513072D01*
X216624482Y-69500812D01*
X216744180Y-69464502D01*
X216854494Y-69405537D01*
X216951185Y-69326185D01*
X217030537Y-69229494D01*
X217089502Y-69119180D01*
X217125812Y-68999482D01*
X217138072Y-68875000D01*
X217135000Y-68535750D01*
X216976250Y-68377000D01*
X216127000Y-68377000D01*
X215873000Y-68377000D01*
X215853000Y-68377000D01*
X215853000Y-68210000D01*
X239068573Y-68210000D01*
X238681399Y-68597174D01*
X238354727Y-69086072D01*
X238129712Y-69629308D01*
X238015000Y-70206003D01*
X238015000Y-70793997D01*
X238129712Y-71370692D01*
X238354727Y-71913928D01*
X238681399Y-72402826D01*
X239097174Y-72818601D01*
X239586072Y-73145273D01*
X240129308Y-73370288D01*
X240706003Y-73485000D01*
X241293997Y-73485000D01*
X241870692Y-73370288D01*
X242413928Y-73145273D01*
X242902826Y-72818601D01*
X243290000Y-72431427D01*
X243290001Y-136068574D01*
X242902826Y-135681399D01*
X242413928Y-135354727D01*
X241870692Y-135129712D01*
X241293997Y-135015000D01*
X240706003Y-135015000D01*
X240129308Y-135129712D01*
X239586072Y-135354727D01*
X239097174Y-135681399D01*
X238681399Y-136097174D01*
X238354727Y-136586072D01*
X238235878Y-136873000D01*
X150264122Y-136873000D01*
X150145273Y-136586072D01*
X149818601Y-136097174D01*
X149402826Y-135681399D01*
X148913928Y-135354727D01*
X148370692Y-135129712D01*
X147793997Y-135015000D01*
X147206003Y-135015000D01*
X146629308Y-135129712D01*
X146086072Y-135354727D01*
X145597174Y-135681399D01*
X145181399Y-136097174D01*
X144854727Y-136586072D01*
X144735878Y-136873000D01*
X144710000Y-136873000D01*
X144710000Y-130714344D01*
X147415000Y-130714344D01*
X147415000Y-131085656D01*
X147487439Y-131449834D01*
X147629534Y-131792882D01*
X147835825Y-132101618D01*
X148098382Y-132364175D01*
X148407118Y-132570466D01*
X148750166Y-132712561D01*
X149114344Y-132785000D01*
X149485656Y-132785000D01*
X149849834Y-132712561D01*
X150192882Y-132570466D01*
X150501618Y-132364175D01*
X150764175Y-132101618D01*
X150970466Y-131792882D01*
X151112561Y-131449834D01*
X151185000Y-131085656D01*
X151185000Y-130714344D01*
X152415000Y-130714344D01*
X152415000Y-131085656D01*
X152487439Y-131449834D01*
X152629534Y-131792882D01*
X152835825Y-132101618D01*
X153098382Y-132364175D01*
X153407118Y-132570466D01*
X153620036Y-132658659D01*
X153707754Y-132705546D01*
X153851015Y-132749002D01*
X154000000Y-132763676D01*
X154004776Y-132763206D01*
X154114344Y-132785000D01*
X154485656Y-132785000D01*
X154849834Y-132712561D01*
X155192882Y-132570466D01*
X155501618Y-132364175D01*
X155764175Y-132101618D01*
X155970466Y-131792882D01*
X156112561Y-131449834D01*
X156185000Y-131085656D01*
X156185000Y-130714344D01*
X157415000Y-130714344D01*
X157415000Y-131085656D01*
X157487439Y-131449834D01*
X157629534Y-131792882D01*
X157835825Y-132101618D01*
X158098382Y-132364175D01*
X158407118Y-132570466D01*
X158750166Y-132712561D01*
X159114344Y-132785000D01*
X159485656Y-132785000D01*
X159849834Y-132712561D01*
X160192882Y-132570466D01*
X160501618Y-132364175D01*
X160764175Y-132101618D01*
X160970466Y-131792882D01*
X161112561Y-131449834D01*
X161185000Y-131085656D01*
X161185000Y-130714344D01*
X161112561Y-130350166D01*
X160970466Y-130007118D01*
X160764175Y-129698382D01*
X160501618Y-129435825D01*
X160192882Y-129229534D01*
X159849834Y-129087439D01*
X159485656Y-129015000D01*
X159114344Y-129015000D01*
X158750166Y-129087439D01*
X158407118Y-129229534D01*
X158098382Y-129435825D01*
X157835825Y-129698382D01*
X157629534Y-130007118D01*
X157487439Y-130350166D01*
X157415000Y-130714344D01*
X156185000Y-130714344D01*
X156112561Y-130350166D01*
X155970466Y-130007118D01*
X155909999Y-129916623D01*
X155909999Y-127425700D01*
X156008966Y-127478599D01*
X156288889Y-127563513D01*
X156507050Y-127585000D01*
X156652950Y-127585000D01*
X156871111Y-127563513D01*
X157151034Y-127478599D01*
X157409014Y-127340706D01*
X157635134Y-127155134D01*
X157820706Y-126929014D01*
X157850000Y-126874209D01*
X157879294Y-126929014D01*
X158064866Y-127155134D01*
X158290986Y-127340706D01*
X158548966Y-127478599D01*
X158828889Y-127563513D01*
X159047050Y-127585000D01*
X159192950Y-127585000D01*
X159411111Y-127563513D01*
X159691034Y-127478599D01*
X159949014Y-127340706D01*
X160175134Y-127155134D01*
X160360706Y-126929014D01*
X160390000Y-126874209D01*
X160419294Y-126929014D01*
X160604866Y-127155134D01*
X160830986Y-127340706D01*
X161088966Y-127478599D01*
X161368889Y-127563513D01*
X161587050Y-127585000D01*
X161732950Y-127585000D01*
X161951111Y-127563513D01*
X162090001Y-127521381D01*
X162090001Y-130812679D01*
X162086325Y-130850001D01*
X162090001Y-130887323D01*
X162090001Y-130887333D01*
X162100998Y-130998986D01*
X162127289Y-131085656D01*
X162144455Y-131142247D01*
X162215027Y-131274277D01*
X162253434Y-131321075D01*
X162310000Y-131390002D01*
X162339004Y-131413805D01*
X162566922Y-131641723D01*
X162629534Y-131792882D01*
X162835825Y-132101618D01*
X163098382Y-132364175D01*
X163407118Y-132570466D01*
X163620037Y-132658660D01*
X163707753Y-132705546D01*
X163851013Y-132749002D01*
X163999999Y-132763676D01*
X164004775Y-132763206D01*
X164114344Y-132785000D01*
X164485656Y-132785000D01*
X164849834Y-132712561D01*
X165192882Y-132570466D01*
X165501618Y-132364175D01*
X165764175Y-132101618D01*
X165970466Y-131792882D01*
X166112561Y-131449834D01*
X166185000Y-131085656D01*
X166185000Y-130714344D01*
X166112561Y-130350166D01*
X165970466Y-130007118D01*
X165764175Y-129698382D01*
X165501618Y-129435825D01*
X165192882Y-129229534D01*
X164849834Y-129087439D01*
X164485656Y-129015000D01*
X164114344Y-129015000D01*
X163750166Y-129087439D01*
X163610001Y-129145497D01*
X163610001Y-127468462D01*
X163628966Y-127478599D01*
X163908889Y-127563513D01*
X164127050Y-127585000D01*
X164272950Y-127585000D01*
X164491111Y-127563513D01*
X164771034Y-127478599D01*
X165029014Y-127340706D01*
X165255134Y-127155134D01*
X165440706Y-126929014D01*
X165578599Y-126671034D01*
X165663513Y-126391111D01*
X165692185Y-126100000D01*
X165663513Y-125808889D01*
X165578599Y-125528966D01*
X165440706Y-125270986D01*
X165255134Y-125044866D01*
X165029014Y-124859294D01*
X164771034Y-124721401D01*
X164491111Y-124636487D01*
X164272950Y-124615000D01*
X164127050Y-124615000D01*
X163908889Y-124636487D01*
X163628966Y-124721401D01*
X163610001Y-124731538D01*
X163610001Y-120887326D01*
X163613677Y-120850001D01*
X163610001Y-120812676D01*
X163610001Y-120812668D01*
X163599004Y-120701015D01*
X163555547Y-120557754D01*
X163484975Y-120425725D01*
X163390002Y-120310000D01*
X163361004Y-120286202D01*
X160022347Y-116947546D01*
X160022347Y-116885408D01*
X159982573Y-116685449D01*
X159904552Y-116497091D01*
X159791284Y-116327573D01*
X159647121Y-116183410D01*
X159533849Y-116107724D01*
X159535000Y-116101939D01*
X159535000Y-115898061D01*
X159495226Y-115698102D01*
X159417205Y-115509744D01*
X159303937Y-115340226D01*
X159159774Y-115196063D01*
X158990256Y-115082795D01*
X158801898Y-115004774D01*
X158601939Y-114965000D01*
X158398061Y-114965000D01*
X158198102Y-115004774D01*
X158009744Y-115082795D01*
X157840226Y-115196063D01*
X157696063Y-115340226D01*
X157582795Y-115509744D01*
X157504774Y-115698102D01*
X157465000Y-115898061D01*
X157465000Y-115960198D01*
X154638997Y-118786202D01*
X154609999Y-118810000D01*
X154586201Y-118838998D01*
X154586200Y-118838999D01*
X154515025Y-118925725D01*
X154444453Y-119057755D01*
X154400997Y-119201016D01*
X154386323Y-119350001D01*
X154390000Y-119387333D01*
X154390000Y-124662160D01*
X154167000Y-124779845D01*
X154167000Y-125973000D01*
X154187000Y-125973000D01*
X154187000Y-126227000D01*
X154167000Y-126227000D01*
X154167000Y-127420155D01*
X154389999Y-127537840D01*
X154389999Y-129015000D01*
X154114344Y-129015000D01*
X153750166Y-129087439D01*
X153407118Y-129229534D01*
X153098382Y-129435825D01*
X152835825Y-129698382D01*
X152629534Y-130007118D01*
X152487439Y-130350166D01*
X152415000Y-130714344D01*
X151185000Y-130714344D01*
X151112561Y-130350166D01*
X150970466Y-130007118D01*
X150764175Y-129698382D01*
X150501618Y-129435825D01*
X150192882Y-129229534D01*
X149849834Y-129087439D01*
X149485656Y-129015000D01*
X149114344Y-129015000D01*
X148750166Y-129087439D01*
X148407118Y-129229534D01*
X148098382Y-129435825D01*
X147835825Y-129698382D01*
X147629534Y-130007118D01*
X147487439Y-130350166D01*
X147415000Y-130714344D01*
X144710000Y-130714344D01*
X144710000Y-125250000D01*
X150011928Y-125250000D01*
X150011928Y-126950000D01*
X150024188Y-127074482D01*
X150060498Y-127194180D01*
X150119463Y-127304494D01*
X150198815Y-127401185D01*
X150295506Y-127480537D01*
X150405820Y-127539502D01*
X150525518Y-127575812D01*
X150650000Y-127588072D01*
X152350000Y-127588072D01*
X152474482Y-127575812D01*
X152594180Y-127539502D01*
X152704494Y-127480537D01*
X152801185Y-127401185D01*
X152880537Y-127304494D01*
X152939502Y-127194180D01*
X152963966Y-127113534D01*
X153039731Y-127197588D01*
X153273080Y-127371641D01*
X153535901Y-127496825D01*
X153683110Y-127541476D01*
X153913000Y-127420155D01*
X153913000Y-126227000D01*
X153893000Y-126227000D01*
X153893000Y-125973000D01*
X153913000Y-125973000D01*
X153913000Y-124779845D01*
X153683110Y-124658524D01*
X153535901Y-124703175D01*
X153273080Y-124828359D01*
X153039731Y-125002412D01*
X152963966Y-125086466D01*
X152941708Y-125013093D01*
X153511003Y-124443799D01*
X153540001Y-124420001D01*
X153624660Y-124316844D01*
X153634974Y-124304277D01*
X153705546Y-124172247D01*
X153727458Y-124100010D01*
X153749003Y-124028986D01*
X153760000Y-123917333D01*
X153760000Y-123917323D01*
X153763676Y-123880000D01*
X153760000Y-123842677D01*
X153760000Y-116203711D01*
X153803937Y-116159774D01*
X153917205Y-115990256D01*
X153995226Y-115801898D01*
X154035000Y-115601939D01*
X154035000Y-115398061D01*
X153995226Y-115198102D01*
X153917205Y-115009744D01*
X153803937Y-114840226D01*
X153659774Y-114696063D01*
X153490256Y-114582795D01*
X153301898Y-114504774D01*
X153101939Y-114465000D01*
X152898061Y-114465000D01*
X152698102Y-114504774D01*
X152509744Y-114582795D01*
X152340226Y-114696063D01*
X152196063Y-114840226D01*
X152082795Y-115009744D01*
X152004774Y-115198102D01*
X151965000Y-115398061D01*
X151965000Y-115601939D01*
X152004774Y-115801898D01*
X152082795Y-115990256D01*
X152196063Y-116159774D01*
X152240001Y-116203712D01*
X152240000Y-117212667D01*
X152240000Y-117212668D01*
X152240001Y-123565197D01*
X151193271Y-124611928D01*
X150650000Y-124611928D01*
X150525518Y-124624188D01*
X150405820Y-124660498D01*
X150295506Y-124719463D01*
X150198815Y-124798815D01*
X150119463Y-124895506D01*
X150060498Y-125005820D01*
X150024188Y-125125518D01*
X150011928Y-125250000D01*
X144710000Y-125250000D01*
X144710000Y-123724132D01*
X144750000Y-123728072D01*
X146450000Y-123728072D01*
X146574482Y-123715812D01*
X146694180Y-123679502D01*
X146804494Y-123620537D01*
X146901185Y-123541185D01*
X146980537Y-123444494D01*
X147039502Y-123334180D01*
X147075812Y-123214482D01*
X147088072Y-123090000D01*
X147088072Y-121390000D01*
X147075812Y-121265518D01*
X147039502Y-121145820D01*
X146980537Y-121035506D01*
X146901185Y-120938815D01*
X146804494Y-120859463D01*
X146694180Y-120800498D01*
X146625313Y-120779607D01*
X146655134Y-120755134D01*
X146840706Y-120529014D01*
X146978599Y-120271034D01*
X147063513Y-119991111D01*
X147092185Y-119700000D01*
X147063513Y-119408889D01*
X146978599Y-119128966D01*
X146840706Y-118870986D01*
X146655134Y-118644866D01*
X146429014Y-118459294D01*
X146374209Y-118430000D01*
X146429014Y-118400706D01*
X146655134Y-118215134D01*
X146840706Y-117989014D01*
X146978599Y-117731034D01*
X147063513Y-117451111D01*
X147092185Y-117160000D01*
X147063513Y-116868889D01*
X146978599Y-116588966D01*
X146840706Y-116330986D01*
X146655134Y-116104866D01*
X146429014Y-115919294D01*
X146374209Y-115890000D01*
X146429014Y-115860706D01*
X146655134Y-115675134D01*
X146840706Y-115449014D01*
X146978599Y-115191034D01*
X147063513Y-114911111D01*
X147092185Y-114620000D01*
X147063513Y-114328889D01*
X146978599Y-114048966D01*
X146840706Y-113790986D01*
X146655134Y-113564866D01*
X146429014Y-113379294D01*
X146374209Y-113350000D01*
X146429014Y-113320706D01*
X146655134Y-113135134D01*
X146840706Y-112909014D01*
X146978599Y-112651034D01*
X147063513Y-112371111D01*
X147092185Y-112080000D01*
X147063513Y-111788889D01*
X146978599Y-111508966D01*
X146840706Y-111250986D01*
X146655134Y-111024866D01*
X146429014Y-110839294D01*
X146374209Y-110810000D01*
X146429014Y-110780706D01*
X146655134Y-110595134D01*
X146840706Y-110369014D01*
X146978599Y-110111034D01*
X147063513Y-109831111D01*
X147092185Y-109540000D01*
X147063513Y-109248889D01*
X146978599Y-108968966D01*
X146840706Y-108710986D01*
X146655134Y-108484866D01*
X146429014Y-108299294D01*
X146171034Y-108161401D01*
X145891111Y-108076487D01*
X145672950Y-108055000D01*
X145527050Y-108055000D01*
X145308889Y-108076487D01*
X145028966Y-108161401D01*
X144770986Y-108299294D01*
X144710000Y-108349344D01*
X144710000Y-107070656D01*
X144770986Y-107120706D01*
X145028966Y-107258599D01*
X145308889Y-107343513D01*
X145527050Y-107365000D01*
X145672950Y-107365000D01*
X145891111Y-107343513D01*
X146171034Y-107258599D01*
X146429014Y-107120706D01*
X146655134Y-106935134D01*
X146840706Y-106709014D01*
X146978599Y-106451034D01*
X147063513Y-106171111D01*
X147092185Y-105880000D01*
X147063513Y-105588889D01*
X146978599Y-105308966D01*
X146840706Y-105050986D01*
X146655134Y-104824866D01*
X146429014Y-104639294D01*
X146374209Y-104610000D01*
X146429014Y-104580706D01*
X146655134Y-104395134D01*
X146840706Y-104169014D01*
X146978599Y-103911034D01*
X147063513Y-103631111D01*
X147092185Y-103340000D01*
X147063513Y-103048889D01*
X146978599Y-102768966D01*
X146840706Y-102510986D01*
X146675760Y-102309999D01*
X148235198Y-102309999D01*
X155436205Y-109511008D01*
X155459999Y-109540001D01*
X155488992Y-109563795D01*
X155488996Y-109563799D01*
X155526016Y-109594180D01*
X155575724Y-109634974D01*
X155707753Y-109705546D01*
X155851014Y-109749003D01*
X155962667Y-109760000D01*
X155962676Y-109760000D01*
X155999999Y-109763676D01*
X156037322Y-109760000D01*
X173296289Y-109760000D01*
X173340226Y-109803937D01*
X173509744Y-109917205D01*
X173605356Y-109956809D01*
X168038988Y-115523178D01*
X168009990Y-115546976D01*
X167986192Y-115575974D01*
X167986191Y-115575975D01*
X167915016Y-115662701D01*
X167844444Y-115794731D01*
X167835966Y-115822680D01*
X167800987Y-115937991D01*
X167789990Y-116049644D01*
X167789990Y-116049655D01*
X167786314Y-116086977D01*
X167789990Y-116124299D01*
X167789990Y-116180622D01*
X167784744Y-116182795D01*
X167615226Y-116296063D01*
X167471063Y-116440226D01*
X167357795Y-116609744D01*
X167279774Y-116798102D01*
X167240000Y-116998061D01*
X167240000Y-117201939D01*
X167279774Y-117401898D01*
X167357795Y-117590256D01*
X167471063Y-117759774D01*
X167615226Y-117903937D01*
X167784744Y-118017205D01*
X167973102Y-118095226D01*
X168173061Y-118135000D01*
X168240001Y-118135000D01*
X168240001Y-118965000D01*
X168123061Y-118965000D01*
X167923102Y-119004774D01*
X167734744Y-119082795D01*
X167565226Y-119196063D01*
X167421063Y-119340226D01*
X167307795Y-119509744D01*
X167229774Y-119698102D01*
X167190000Y-119898061D01*
X167190000Y-119960199D01*
X167014001Y-120136198D01*
X166984998Y-120160000D01*
X166939839Y-120215027D01*
X166890025Y-120275725D01*
X166871705Y-120310000D01*
X166819453Y-120407755D01*
X166775996Y-120551016D01*
X166764999Y-120662669D01*
X166764999Y-120662679D01*
X166761323Y-120700001D01*
X166764999Y-120737323D01*
X166765000Y-132670669D01*
X166761323Y-132708001D01*
X166775997Y-132856986D01*
X166819453Y-133000247D01*
X166890025Y-133132277D01*
X166931451Y-133182754D01*
X166984999Y-133248002D01*
X167013997Y-133271800D01*
X167728200Y-133986003D01*
X167751998Y-134015002D01*
X167867723Y-134109975D01*
X167999752Y-134180547D01*
X168143013Y-134224004D01*
X168254666Y-134235001D01*
X168254676Y-134235001D01*
X168291999Y-134238677D01*
X168329322Y-134235001D01*
X199670679Y-134235001D01*
X199708001Y-134238677D01*
X199745323Y-134235001D01*
X199745334Y-134235001D01*
X199856987Y-134224004D01*
X200000248Y-134180547D01*
X200132277Y-134109975D01*
X200248002Y-134015002D01*
X200271805Y-133985998D01*
X203485994Y-130771810D01*
X203514991Y-130748013D01*
X203542622Y-130714344D01*
X203609964Y-130632289D01*
X203680536Y-130500259D01*
X203718940Y-130373655D01*
X203723993Y-130356998D01*
X203734990Y-130245345D01*
X203734990Y-130245336D01*
X203738666Y-130208013D01*
X203734990Y-130170690D01*
X203734990Y-105266809D01*
X208240000Y-100761799D01*
X208240001Y-106496440D01*
X208198102Y-106504774D01*
X208009744Y-106582795D01*
X207840226Y-106696063D01*
X207696063Y-106840226D01*
X207582795Y-107009744D01*
X207504774Y-107198102D01*
X207465000Y-107398061D01*
X207465000Y-107601939D01*
X207504774Y-107801898D01*
X207582795Y-107990256D01*
X207696063Y-108159774D01*
X207840226Y-108303937D01*
X208009744Y-108417205D01*
X208198102Y-108495226D01*
X208398061Y-108535000D01*
X208601939Y-108535000D01*
X208801898Y-108495226D01*
X208990256Y-108417205D01*
X209159774Y-108303937D01*
X209303937Y-108159774D01*
X209417205Y-107990256D01*
X209495226Y-107801898D01*
X209535000Y-107601939D01*
X209535000Y-107544105D01*
X209540001Y-107540001D01*
X209634974Y-107424276D01*
X209705546Y-107292247D01*
X209749003Y-107148986D01*
X209760000Y-107037333D01*
X209760000Y-107037325D01*
X209763676Y-107000000D01*
X209760000Y-106962675D01*
X209760000Y-100703711D01*
X209803937Y-100659774D01*
X209917205Y-100490256D01*
X209995226Y-100301898D01*
X210035000Y-100101939D01*
X210035000Y-99898061D01*
X209995226Y-99698102D01*
X209917205Y-99509744D01*
X209803937Y-99340226D01*
X209732755Y-99269044D01*
X217741800Y-91260000D01*
X217962678Y-91260000D01*
X218000000Y-91263676D01*
X218037322Y-91260000D01*
X218037333Y-91260000D01*
X218148986Y-91249003D01*
X218292247Y-91205546D01*
X218424276Y-91134974D01*
X218540001Y-91040001D01*
X218563804Y-91010998D01*
X219039802Y-90535000D01*
X219101939Y-90535000D01*
X219301898Y-90495226D01*
X219490256Y-90417205D01*
X219659774Y-90303937D01*
X219803937Y-90159774D01*
X219917205Y-89990256D01*
X219995226Y-89801898D01*
X220035000Y-89601939D01*
X220035000Y-89398061D01*
X219995226Y-89198102D01*
X219917205Y-89009744D01*
X219803937Y-88840226D01*
X219659774Y-88696063D01*
X219490256Y-88582795D01*
X219301898Y-88504774D01*
X219101939Y-88465000D01*
X218898061Y-88465000D01*
X218698102Y-88504774D01*
X218509744Y-88582795D01*
X218340226Y-88696063D01*
X218196063Y-88840226D01*
X218082795Y-89009744D01*
X218004774Y-89198102D01*
X217965000Y-89398061D01*
X217965000Y-89460198D01*
X217685199Y-89740000D01*
X217464323Y-89740000D01*
X217426998Y-89736324D01*
X217389673Y-89740000D01*
X217389665Y-89740000D01*
X217278012Y-89750997D01*
X217134751Y-89794454D01*
X217002722Y-89865026D01*
X216886997Y-89959999D01*
X216863199Y-89988997D01*
X202463988Y-104388209D01*
X202434990Y-104412007D01*
X202411192Y-104441005D01*
X202411191Y-104441006D01*
X202340016Y-104527732D01*
X202269444Y-104659762D01*
X202225988Y-104803023D01*
X202211314Y-104952008D01*
X202214991Y-104989341D01*
X202214990Y-129893210D01*
X201188072Y-130920128D01*
X201188072Y-129650000D01*
X201175812Y-129525518D01*
X201139502Y-129405820D01*
X201080537Y-129295506D01*
X201001185Y-129198815D01*
X200904494Y-129119463D01*
X200794180Y-129060498D01*
X200674482Y-129024188D01*
X200550000Y-129011928D01*
X198050000Y-129011928D01*
X197925518Y-129024188D01*
X197805820Y-129060498D01*
X197695506Y-129119463D01*
X197598815Y-129198815D01*
X197519463Y-129295506D01*
X197460498Y-129405820D01*
X197424188Y-129525518D01*
X197411928Y-129650000D01*
X197411928Y-132150000D01*
X197424188Y-132274482D01*
X197460498Y-132394180D01*
X197519463Y-132504494D01*
X197598815Y-132601185D01*
X197695506Y-132680537D01*
X197759983Y-132715001D01*
X194816057Y-132715001D01*
X195073262Y-132629094D01*
X195308086Y-132503577D01*
X195434000Y-132213605D01*
X194300000Y-131079605D01*
X193166000Y-132213605D01*
X193291914Y-132503577D01*
X193624126Y-132669433D01*
X193790919Y-132715001D01*
X189837567Y-132715001D01*
X189849834Y-132712561D01*
X190192882Y-132570466D01*
X190501618Y-132364175D01*
X190764175Y-132101618D01*
X190970466Y-131792882D01*
X191112561Y-131449834D01*
X191185000Y-131085656D01*
X191185000Y-130952706D01*
X192406611Y-130952706D01*
X192453275Y-131321075D01*
X192570906Y-131673262D01*
X192696423Y-131908086D01*
X192986395Y-132034000D01*
X194120395Y-130900000D01*
X194479605Y-130900000D01*
X195613605Y-132034000D01*
X195903577Y-131908086D01*
X196069433Y-131575874D01*
X196167290Y-131217688D01*
X196193389Y-130847294D01*
X196146725Y-130478925D01*
X196029094Y-130126738D01*
X195903577Y-129891914D01*
X195613605Y-129766000D01*
X194479605Y-130900000D01*
X194120395Y-130900000D01*
X192986395Y-129766000D01*
X192696423Y-129891914D01*
X192530567Y-130224126D01*
X192432710Y-130582312D01*
X192406611Y-130952706D01*
X191185000Y-130952706D01*
X191185000Y-130714344D01*
X191112561Y-130350166D01*
X190970466Y-130007118D01*
X190764175Y-129698382D01*
X190652188Y-129586395D01*
X193166000Y-129586395D01*
X194300000Y-130720395D01*
X195434000Y-129586395D01*
X195308086Y-129296423D01*
X194975874Y-129130567D01*
X194617688Y-129032710D01*
X194247294Y-129006611D01*
X193878925Y-129053275D01*
X193526738Y-129170906D01*
X193291914Y-129296423D01*
X193166000Y-129586395D01*
X190652188Y-129586395D01*
X190501618Y-129435825D01*
X190192882Y-129229534D01*
X189849834Y-129087439D01*
X189485656Y-129015000D01*
X189114344Y-129015000D01*
X188782212Y-129081065D01*
X182365491Y-122664344D01*
X186165000Y-122664344D01*
X186165000Y-123035656D01*
X186237439Y-123399834D01*
X186379534Y-123742882D01*
X186585825Y-124051618D01*
X186848382Y-124314175D01*
X187157118Y-124520466D01*
X187500166Y-124662561D01*
X187864344Y-124735000D01*
X188235656Y-124735000D01*
X188599834Y-124662561D01*
X188942882Y-124520466D01*
X189251618Y-124314175D01*
X189514175Y-124051618D01*
X189720466Y-123742882D01*
X189862561Y-123399834D01*
X189935000Y-123035656D01*
X189935000Y-122664344D01*
X189862561Y-122300166D01*
X189720466Y-121957118D01*
X189514175Y-121648382D01*
X189465793Y-121600000D01*
X191161928Y-121600000D01*
X191161928Y-124100000D01*
X191174188Y-124224482D01*
X191210498Y-124344180D01*
X191269463Y-124454494D01*
X191348815Y-124551185D01*
X191445506Y-124630537D01*
X191555820Y-124689502D01*
X191675518Y-124725812D01*
X191800000Y-124738072D01*
X194300000Y-124738072D01*
X194424482Y-124725812D01*
X194544180Y-124689502D01*
X194654494Y-124630537D01*
X194751185Y-124551185D01*
X194830537Y-124454494D01*
X194889502Y-124344180D01*
X194925812Y-124224482D01*
X194938072Y-124100000D01*
X194938072Y-121600000D01*
X194925812Y-121475518D01*
X194889502Y-121355820D01*
X194830537Y-121245506D01*
X194751185Y-121148815D01*
X194654494Y-121069463D01*
X194544180Y-121010498D01*
X194424482Y-120974188D01*
X194300000Y-120961928D01*
X191800000Y-120961928D01*
X191675518Y-120974188D01*
X191555820Y-121010498D01*
X191445506Y-121069463D01*
X191348815Y-121148815D01*
X191269463Y-121245506D01*
X191210498Y-121355820D01*
X191174188Y-121475518D01*
X191161928Y-121600000D01*
X189465793Y-121600000D01*
X189251618Y-121385825D01*
X188942882Y-121179534D01*
X188599834Y-121037439D01*
X188235656Y-120965000D01*
X187864344Y-120965000D01*
X187500166Y-121037439D01*
X187157118Y-121179534D01*
X186848382Y-121385825D01*
X186585825Y-121648382D01*
X186379534Y-121957118D01*
X186237439Y-122300166D01*
X186165000Y-122664344D01*
X182365491Y-122664344D01*
X174353055Y-114651909D01*
X174329252Y-114622905D01*
X174213527Y-114527932D01*
X174081498Y-114457360D01*
X173938237Y-114413903D01*
X173826584Y-114402906D01*
X173826573Y-114402906D01*
X173789251Y-114399230D01*
X173751929Y-114402906D01*
X171308862Y-114402906D01*
X172671768Y-113040000D01*
X184507815Y-113040000D01*
X184536487Y-113331111D01*
X184621401Y-113611034D01*
X184759294Y-113869014D01*
X184944866Y-114095134D01*
X185170986Y-114280706D01*
X185225791Y-114310000D01*
X185170986Y-114339294D01*
X184944866Y-114524866D01*
X184759294Y-114750986D01*
X184621401Y-115008966D01*
X184536487Y-115288889D01*
X184507815Y-115580000D01*
X184536487Y-115871111D01*
X184621401Y-116151034D01*
X184759294Y-116409014D01*
X184944866Y-116635134D01*
X185170986Y-116820706D01*
X185428966Y-116958599D01*
X185708889Y-117043513D01*
X185927050Y-117065000D01*
X186072950Y-117065000D01*
X186291111Y-117043513D01*
X186571034Y-116958599D01*
X186829014Y-116820706D01*
X187055134Y-116635134D01*
X187240706Y-116409014D01*
X187378599Y-116151034D01*
X187463513Y-115871111D01*
X187492185Y-115580000D01*
X187463513Y-115288889D01*
X187378599Y-115008966D01*
X187240706Y-114750986D01*
X187223483Y-114729999D01*
X191411928Y-114729999D01*
X191411928Y-116429999D01*
X191424188Y-116554481D01*
X191460498Y-116674179D01*
X191519463Y-116784493D01*
X191598815Y-116881184D01*
X191695506Y-116960536D01*
X191805820Y-117019501D01*
X191925518Y-117055811D01*
X192050000Y-117068071D01*
X193750000Y-117068071D01*
X193874482Y-117055811D01*
X193994180Y-117019501D01*
X194104494Y-116960536D01*
X194201185Y-116881184D01*
X194280537Y-116784493D01*
X194339502Y-116674179D01*
X194375812Y-116554481D01*
X194388072Y-116429999D01*
X194388072Y-114729999D01*
X194375812Y-114605517D01*
X194339502Y-114485819D01*
X194280537Y-114375505D01*
X194201185Y-114278814D01*
X194104494Y-114199462D01*
X193994180Y-114140497D01*
X193913534Y-114116033D01*
X193997588Y-114040268D01*
X194171641Y-113806919D01*
X194296825Y-113544098D01*
X194341476Y-113396889D01*
X194220155Y-113166999D01*
X193027000Y-113166999D01*
X193027000Y-113186999D01*
X192773000Y-113186999D01*
X192773000Y-113166999D01*
X191579845Y-113166999D01*
X191458524Y-113396889D01*
X191503175Y-113544098D01*
X191628359Y-113806919D01*
X191802412Y-114040268D01*
X191886466Y-114116033D01*
X191805820Y-114140497D01*
X191695506Y-114199462D01*
X191598815Y-114278814D01*
X191519463Y-114375505D01*
X191460498Y-114485819D01*
X191424188Y-114605517D01*
X191411928Y-114729999D01*
X187223483Y-114729999D01*
X187055134Y-114524866D01*
X186829014Y-114339294D01*
X186774209Y-114310000D01*
X186829014Y-114280706D01*
X187055134Y-114095134D01*
X187240706Y-113869014D01*
X187378599Y-113611034D01*
X187463513Y-113331111D01*
X187492185Y-113040000D01*
X187463513Y-112748889D01*
X187378599Y-112468966D01*
X187240706Y-112210986D01*
X187055134Y-111984866D01*
X187025313Y-111960393D01*
X187094180Y-111939502D01*
X187204494Y-111880537D01*
X187301185Y-111801185D01*
X187380537Y-111704494D01*
X187439502Y-111594180D01*
X187475812Y-111474482D01*
X187488072Y-111350000D01*
X187485000Y-110785750D01*
X187326250Y-110627000D01*
X186127000Y-110627000D01*
X186127000Y-110647000D01*
X185873000Y-110647000D01*
X185873000Y-110627000D01*
X184673750Y-110627000D01*
X184515000Y-110785750D01*
X184511928Y-111350000D01*
X184524188Y-111474482D01*
X184560498Y-111594180D01*
X184619463Y-111704494D01*
X184698815Y-111801185D01*
X184795506Y-111880537D01*
X184905820Y-111939502D01*
X184974687Y-111960393D01*
X184944866Y-111984866D01*
X184759294Y-112210986D01*
X184621401Y-112468966D01*
X184536487Y-112748889D01*
X184507815Y-113040000D01*
X172671768Y-113040000D01*
X175211769Y-110499999D01*
X191407815Y-110499999D01*
X191436487Y-110791110D01*
X191521401Y-111071033D01*
X191659294Y-111329013D01*
X191844866Y-111555133D01*
X192070986Y-111740705D01*
X192135523Y-111775200D01*
X192018645Y-111844821D01*
X191802412Y-112039730D01*
X191628359Y-112273079D01*
X191503175Y-112535900D01*
X191458524Y-112683109D01*
X191579845Y-112912999D01*
X192773000Y-112912999D01*
X192773000Y-112892999D01*
X193027000Y-112892999D01*
X193027000Y-112912999D01*
X194220155Y-112912999D01*
X194341476Y-112683109D01*
X194296825Y-112535900D01*
X194171641Y-112273079D01*
X193997588Y-112039730D01*
X193781355Y-111844821D01*
X193664477Y-111775200D01*
X193729014Y-111740705D01*
X193955134Y-111555133D01*
X194140706Y-111329013D01*
X194278599Y-111071033D01*
X194363513Y-110791110D01*
X194392185Y-110499999D01*
X194363513Y-110208888D01*
X194278599Y-109928965D01*
X194140706Y-109670985D01*
X193955134Y-109444865D01*
X193729014Y-109259293D01*
X193471034Y-109121400D01*
X193191111Y-109036486D01*
X192972950Y-109014999D01*
X192827050Y-109014999D01*
X192608889Y-109036486D01*
X192328966Y-109121400D01*
X192070986Y-109259293D01*
X191844866Y-109444865D01*
X191659294Y-109670985D01*
X191521401Y-109928965D01*
X191436487Y-110208888D01*
X191407815Y-110499999D01*
X175211769Y-110499999D01*
X177651769Y-108060000D01*
X178011928Y-108060000D01*
X178011928Y-109350000D01*
X178024188Y-109474482D01*
X178060498Y-109594180D01*
X178119463Y-109704494D01*
X178198815Y-109801185D01*
X178295506Y-109880537D01*
X178405820Y-109939502D01*
X178525518Y-109975812D01*
X178650000Y-109988072D01*
X180350000Y-109988072D01*
X180474482Y-109975812D01*
X180594180Y-109939502D01*
X180704494Y-109880537D01*
X180801185Y-109801185D01*
X180880537Y-109704494D01*
X180939502Y-109594180D01*
X180960393Y-109525313D01*
X180984866Y-109555134D01*
X181210986Y-109740706D01*
X181468966Y-109878599D01*
X181748889Y-109963513D01*
X181967050Y-109985000D01*
X182112950Y-109985000D01*
X182331111Y-109963513D01*
X182611034Y-109878599D01*
X182869014Y-109740706D01*
X182979539Y-109650000D01*
X184511928Y-109650000D01*
X184515000Y-110214250D01*
X184673750Y-110373000D01*
X185873000Y-110373000D01*
X185873000Y-109173750D01*
X186127000Y-109173750D01*
X186127000Y-110373000D01*
X187326250Y-110373000D01*
X187485000Y-110214250D01*
X187488072Y-109650000D01*
X187475812Y-109525518D01*
X187439502Y-109405820D01*
X187380537Y-109295506D01*
X187301185Y-109198815D01*
X187204494Y-109119463D01*
X187094180Y-109060498D01*
X186974482Y-109024188D01*
X186850000Y-109011928D01*
X186285750Y-109015000D01*
X186127000Y-109173750D01*
X185873000Y-109173750D01*
X185714250Y-109015000D01*
X185150000Y-109011928D01*
X185025518Y-109024188D01*
X184905820Y-109060498D01*
X184795506Y-109119463D01*
X184698815Y-109198815D01*
X184619463Y-109295506D01*
X184560498Y-109405820D01*
X184524188Y-109525518D01*
X184511928Y-109650000D01*
X182979539Y-109650000D01*
X183095134Y-109555134D01*
X183280706Y-109329014D01*
X183418599Y-109071034D01*
X183503513Y-108791111D01*
X183532185Y-108500000D01*
X183503513Y-108208889D01*
X183458348Y-108060000D01*
X188503676Y-108060000D01*
X188540998Y-108063676D01*
X188578320Y-108060000D01*
X188578331Y-108060000D01*
X188689984Y-108049003D01*
X188833245Y-108005546D01*
X188965274Y-107934974D01*
X189080999Y-107840001D01*
X189104802Y-107810997D01*
X192171339Y-104744461D01*
X192259294Y-104909014D01*
X192444866Y-105135134D01*
X192670986Y-105320706D01*
X192928966Y-105458599D01*
X193208889Y-105543513D01*
X193427050Y-105565000D01*
X193572950Y-105565000D01*
X193791111Y-105543513D01*
X194071034Y-105458599D01*
X194329014Y-105320706D01*
X194555134Y-105135134D01*
X194740706Y-104909014D01*
X194878599Y-104651034D01*
X194963513Y-104371111D01*
X194992185Y-104080000D01*
X194963513Y-103788889D01*
X194878599Y-103508966D01*
X194740706Y-103250986D01*
X194678552Y-103175251D01*
X196836569Y-101017234D01*
X196855338Y-101207796D01*
X196915950Y-101407607D01*
X196965335Y-101500000D01*
X196915950Y-101592393D01*
X196855338Y-101792204D01*
X196834872Y-102000000D01*
X196855338Y-102207796D01*
X196915950Y-102407607D01*
X196965335Y-102500000D01*
X196915950Y-102592393D01*
X196855338Y-102792204D01*
X196834872Y-103000000D01*
X196855338Y-103207796D01*
X196915950Y-103407607D01*
X196965335Y-103500000D01*
X196915950Y-103592393D01*
X196855338Y-103792204D01*
X196834872Y-104000000D01*
X196855338Y-104207796D01*
X196915950Y-104407607D01*
X196965335Y-104500000D01*
X196915950Y-104592393D01*
X196855338Y-104792204D01*
X196834872Y-105000000D01*
X196855338Y-105207796D01*
X196915950Y-105407607D01*
X196965335Y-105500000D01*
X196915950Y-105592393D01*
X196855338Y-105792204D01*
X196834872Y-106000000D01*
X196855338Y-106207796D01*
X196915950Y-106407607D01*
X196965335Y-106500000D01*
X196915950Y-106592393D01*
X196855338Y-106792204D01*
X196834872Y-107000000D01*
X196855338Y-107207796D01*
X196915950Y-107407607D01*
X196965335Y-107500000D01*
X196915950Y-107592393D01*
X196855338Y-107792204D01*
X196834872Y-108000000D01*
X196855338Y-108207796D01*
X196915950Y-108407607D01*
X196965335Y-108500000D01*
X196915950Y-108592393D01*
X196855338Y-108792204D01*
X196834872Y-109000000D01*
X196855338Y-109207796D01*
X196915950Y-109407607D01*
X196965335Y-109500000D01*
X196915950Y-109592393D01*
X196855338Y-109792204D01*
X196834872Y-110000000D01*
X196855338Y-110207796D01*
X196915950Y-110407607D01*
X196965335Y-110500000D01*
X196915950Y-110592393D01*
X196855338Y-110792204D01*
X196834872Y-111000000D01*
X196855338Y-111207796D01*
X196915950Y-111407607D01*
X196965335Y-111500000D01*
X196915950Y-111592393D01*
X196855338Y-111792204D01*
X196834872Y-112000000D01*
X196855338Y-112207796D01*
X196915950Y-112407607D01*
X196966302Y-112501809D01*
X196891128Y-112674750D01*
X196880460Y-112709938D01*
X197007743Y-112873000D01*
X197292867Y-112873000D01*
X197308247Y-112885622D01*
X197492393Y-112984050D01*
X197544973Y-113000000D01*
X197492393Y-113015950D01*
X197308247Y-113114378D01*
X197292867Y-113127000D01*
X197007743Y-113127000D01*
X196880460Y-113290062D01*
X196891128Y-113325250D01*
X196966302Y-113498191D01*
X196915950Y-113592393D01*
X196855338Y-113792204D01*
X196834872Y-114000000D01*
X196855338Y-114207796D01*
X196915950Y-114407607D01*
X196965335Y-114500000D01*
X196915950Y-114592393D01*
X196855338Y-114792204D01*
X196834872Y-115000000D01*
X196855338Y-115207796D01*
X196915950Y-115407607D01*
X196966302Y-115501809D01*
X196891128Y-115674750D01*
X196880460Y-115709938D01*
X197007743Y-115873000D01*
X197292867Y-115873000D01*
X197308247Y-115885622D01*
X197492393Y-115984050D01*
X197544973Y-116000000D01*
X197492393Y-116015950D01*
X197308247Y-116114378D01*
X197292867Y-116127000D01*
X197007743Y-116127000D01*
X196880460Y-116290062D01*
X196891128Y-116325250D01*
X196966302Y-116498191D01*
X196915950Y-116592393D01*
X196855338Y-116792204D01*
X196834872Y-117000000D01*
X196855338Y-117207796D01*
X196915950Y-117407607D01*
X197014378Y-117591753D01*
X197146841Y-117753159D01*
X197308247Y-117885622D01*
X197492393Y-117984050D01*
X197692204Y-118044662D01*
X197847934Y-118060000D01*
X197952066Y-118060000D01*
X198107796Y-118044662D01*
X198307607Y-117984050D01*
X198491753Y-117885622D01*
X198653159Y-117753159D01*
X198785622Y-117591753D01*
X198884050Y-117407607D01*
X198944662Y-117207796D01*
X198965128Y-117000000D01*
X198944662Y-116792204D01*
X198884050Y-116592393D01*
X198833698Y-116498191D01*
X198908872Y-116325250D01*
X198919540Y-116290062D01*
X198792257Y-116127000D01*
X198507133Y-116127000D01*
X198491753Y-116114378D01*
X198307607Y-116015950D01*
X198255027Y-116000000D01*
X198307607Y-115984050D01*
X198491753Y-115885622D01*
X198507133Y-115873000D01*
X198792257Y-115873000D01*
X198919540Y-115709938D01*
X198908872Y-115674750D01*
X198833698Y-115501809D01*
X198884050Y-115407607D01*
X198944662Y-115207796D01*
X198965128Y-115000000D01*
X198944662Y-114792204D01*
X198884050Y-114592393D01*
X198834665Y-114500000D01*
X198884050Y-114407607D01*
X198944662Y-114207796D01*
X198965128Y-114000000D01*
X198944662Y-113792204D01*
X198884050Y-113592393D01*
X198833698Y-113498191D01*
X198908872Y-113325250D01*
X198919540Y-113290062D01*
X198792257Y-113127000D01*
X198507133Y-113127000D01*
X198491753Y-113114378D01*
X198307607Y-113015950D01*
X198255027Y-113000000D01*
X198307607Y-112984050D01*
X198491753Y-112885622D01*
X198507133Y-112873000D01*
X198792257Y-112873000D01*
X198919540Y-112709938D01*
X198908872Y-112674750D01*
X198833698Y-112501809D01*
X198884050Y-112407607D01*
X198944662Y-112207796D01*
X198965128Y-112000000D01*
X198944662Y-111792204D01*
X198884050Y-111592393D01*
X198834665Y-111500000D01*
X198884050Y-111407607D01*
X198944662Y-111207796D01*
X198965128Y-111000000D01*
X198944662Y-110792204D01*
X198884050Y-110592393D01*
X198834665Y-110500000D01*
X198884050Y-110407607D01*
X198944662Y-110207796D01*
X198965128Y-110000000D01*
X198944662Y-109792204D01*
X198884050Y-109592393D01*
X198834665Y-109500000D01*
X198884050Y-109407607D01*
X198944662Y-109207796D01*
X198965128Y-109000000D01*
X198944662Y-108792204D01*
X198884050Y-108592393D01*
X198834665Y-108500000D01*
X198884050Y-108407607D01*
X198944662Y-108207796D01*
X198965128Y-108000000D01*
X198944662Y-107792204D01*
X198884050Y-107592393D01*
X198834665Y-107500000D01*
X198884050Y-107407607D01*
X198944662Y-107207796D01*
X198965128Y-107000000D01*
X198944662Y-106792204D01*
X198884050Y-106592393D01*
X198834665Y-106500000D01*
X198884050Y-106407607D01*
X198944662Y-106207796D01*
X198965128Y-106000000D01*
X198944662Y-105792204D01*
X198884050Y-105592393D01*
X198834665Y-105500000D01*
X198884050Y-105407607D01*
X198944662Y-105207796D01*
X198965128Y-105000000D01*
X198944662Y-104792204D01*
X198884050Y-104592393D01*
X198834665Y-104500000D01*
X198884050Y-104407607D01*
X198944662Y-104207796D01*
X198965128Y-104000000D01*
X198944662Y-103792204D01*
X198884050Y-103592393D01*
X198834665Y-103500000D01*
X198884050Y-103407607D01*
X198944662Y-103207796D01*
X198965128Y-103000000D01*
X198944662Y-102792204D01*
X198884050Y-102592393D01*
X198834665Y-102500000D01*
X198884050Y-102407607D01*
X198944662Y-102207796D01*
X198965128Y-102000000D01*
X198944662Y-101792204D01*
X198884050Y-101592393D01*
X198834665Y-101500000D01*
X198884050Y-101407607D01*
X198944662Y-101207796D01*
X198965128Y-101000000D01*
X198944662Y-100792204D01*
X198884050Y-100592393D01*
X198834665Y-100500000D01*
X198884050Y-100407607D01*
X198944662Y-100207796D01*
X198965128Y-100000000D01*
X198944662Y-99792204D01*
X198884050Y-99592393D01*
X198834665Y-99500000D01*
X198884050Y-99407607D01*
X198944662Y-99207796D01*
X198965128Y-99000000D01*
X198944662Y-98792204D01*
X198884050Y-98592393D01*
X198834665Y-98500000D01*
X198884050Y-98407607D01*
X198944662Y-98207796D01*
X198965128Y-98000000D01*
X198944662Y-97792204D01*
X198884050Y-97592393D01*
X198834665Y-97500000D01*
X198884050Y-97407607D01*
X198944662Y-97207796D01*
X198965128Y-97000000D01*
X198944662Y-96792204D01*
X198884050Y-96592393D01*
X198834665Y-96500000D01*
X198884050Y-96407607D01*
X198944662Y-96207796D01*
X198965128Y-96000000D01*
X198944662Y-95792204D01*
X198884050Y-95592393D01*
X198834665Y-95500000D01*
X198884050Y-95407607D01*
X198944662Y-95207796D01*
X198965128Y-95000000D01*
X198944662Y-94792204D01*
X198884050Y-94592393D01*
X198834665Y-94500000D01*
X198884050Y-94407607D01*
X198944662Y-94207796D01*
X198965128Y-94000000D01*
X198944662Y-93792204D01*
X198884050Y-93592393D01*
X198833698Y-93498191D01*
X198908872Y-93325250D01*
X198919540Y-93290062D01*
X198792257Y-93127000D01*
X198507133Y-93127000D01*
X198491753Y-93114378D01*
X198307607Y-93015950D01*
X198255027Y-93000000D01*
X198307607Y-92984050D01*
X198491753Y-92885622D01*
X198507133Y-92873000D01*
X198792257Y-92873000D01*
X198919540Y-92709938D01*
X198908872Y-92674750D01*
X198833698Y-92501809D01*
X198884050Y-92407607D01*
X198944662Y-92207796D01*
X198965128Y-92000000D01*
X198944662Y-91792204D01*
X198884050Y-91592393D01*
X198834665Y-91500000D01*
X198884050Y-91407607D01*
X198944662Y-91207796D01*
X198965128Y-91000000D01*
X198944662Y-90792204D01*
X198884050Y-90592393D01*
X198834665Y-90500000D01*
X198884050Y-90407607D01*
X198944662Y-90207796D01*
X198965128Y-90000000D01*
X198944662Y-89792204D01*
X198884050Y-89592393D01*
X198834665Y-89500000D01*
X198884050Y-89407607D01*
X198944662Y-89207796D01*
X198965128Y-89000000D01*
X198944662Y-88792204D01*
X198884050Y-88592393D01*
X198834665Y-88500000D01*
X198884050Y-88407607D01*
X198944662Y-88207796D01*
X198965128Y-88000000D01*
X198944662Y-87792204D01*
X198884050Y-87592393D01*
X198834665Y-87500000D01*
X198884050Y-87407607D01*
X198944662Y-87207796D01*
X198965128Y-87000000D01*
X198944662Y-86792204D01*
X198884050Y-86592393D01*
X198833698Y-86498191D01*
X198908872Y-86325250D01*
X198919540Y-86290062D01*
X198792257Y-86127000D01*
X198507133Y-86127000D01*
X198491753Y-86114378D01*
X198307607Y-86015950D01*
X198255027Y-86000000D01*
X198307607Y-85984050D01*
X198491753Y-85885622D01*
X198507133Y-85873000D01*
X198792257Y-85873000D01*
X198919540Y-85709938D01*
X198908872Y-85674750D01*
X198833698Y-85501809D01*
X198884050Y-85407607D01*
X198944662Y-85207796D01*
X198965128Y-85000000D01*
X198944662Y-84792204D01*
X198884050Y-84592393D01*
X198834665Y-84500000D01*
X198884050Y-84407607D01*
X198944662Y-84207796D01*
X198965128Y-84000000D01*
X198944662Y-83792204D01*
X198884050Y-83592393D01*
X198834665Y-83500000D01*
X198884050Y-83407607D01*
X198944662Y-83207796D01*
X198965128Y-83000000D01*
X198944662Y-82792204D01*
X198884050Y-82592393D01*
X198833698Y-82498191D01*
X198908872Y-82325250D01*
X198919540Y-82290062D01*
X198792257Y-82127000D01*
X198507133Y-82127000D01*
X198491753Y-82114378D01*
X198307607Y-82015950D01*
X198255027Y-82000000D01*
X198307607Y-81984050D01*
X198491753Y-81885622D01*
X198507133Y-81873000D01*
X198792257Y-81873000D01*
X198919540Y-81709938D01*
X198908872Y-81674750D01*
X198833698Y-81501809D01*
X198884050Y-81407607D01*
X198944662Y-81207796D01*
X198965128Y-81000000D01*
X198944662Y-80792204D01*
X198884050Y-80592393D01*
X198834665Y-80500000D01*
X198884050Y-80407607D01*
X198944662Y-80207796D01*
X198965128Y-80000000D01*
X198944662Y-79792204D01*
X198884050Y-79592393D01*
X198834665Y-79500000D01*
X198884050Y-79407607D01*
X198944662Y-79207796D01*
X198965128Y-79000000D01*
X198944662Y-78792204D01*
X198909935Y-78677724D01*
X198914502Y-78669180D01*
X198950812Y-78549482D01*
X198963072Y-78425000D01*
X198963072Y-77598061D01*
X200665000Y-77598061D01*
X200665000Y-77801939D01*
X200704774Y-78001898D01*
X200782795Y-78190256D01*
X200896063Y-78359774D01*
X201040226Y-78503937D01*
X201209744Y-78617205D01*
X201398102Y-78695226D01*
X201598061Y-78735000D01*
X201660199Y-78735000D01*
X209936201Y-87011003D01*
X209959999Y-87040001D01*
X210075724Y-87134974D01*
X210207753Y-87205546D01*
X210351014Y-87249003D01*
X210462667Y-87260000D01*
X210462676Y-87260000D01*
X210499999Y-87263676D01*
X210537322Y-87260000D01*
X213296289Y-87260000D01*
X213340226Y-87303937D01*
X213509744Y-87417205D01*
X213698102Y-87495226D01*
X213898061Y-87535000D01*
X214101939Y-87535000D01*
X214301898Y-87495226D01*
X214490256Y-87417205D01*
X214659774Y-87303937D01*
X214803937Y-87159774D01*
X214917205Y-86990256D01*
X214995226Y-86801898D01*
X215035000Y-86601939D01*
X215035000Y-86398061D01*
X214995226Y-86198102D01*
X214917205Y-86009744D01*
X214803937Y-85840226D01*
X214659774Y-85696063D01*
X214490256Y-85582795D01*
X214301898Y-85504774D01*
X214101939Y-85465000D01*
X213898061Y-85465000D01*
X213698102Y-85504774D01*
X213509744Y-85582795D01*
X213340226Y-85696063D01*
X213296289Y-85740000D01*
X210814802Y-85740000D01*
X202735000Y-77660199D01*
X202735000Y-77598061D01*
X202695226Y-77398102D01*
X202617205Y-77209744D01*
X202503937Y-77040226D01*
X202359774Y-76896063D01*
X202190256Y-76782795D01*
X202001898Y-76704774D01*
X201801939Y-76665000D01*
X201598061Y-76665000D01*
X201398102Y-76704774D01*
X201209744Y-76782795D01*
X201040226Y-76896063D01*
X200896063Y-77040226D01*
X200782795Y-77209744D01*
X200704774Y-77398102D01*
X200665000Y-77598061D01*
X198963072Y-77598061D01*
X198963072Y-77575000D01*
X198950812Y-77450518D01*
X198914502Y-77330820D01*
X198855537Y-77220506D01*
X198776185Y-77123815D01*
X198679494Y-77044463D01*
X198569180Y-76985498D01*
X198449482Y-76949188D01*
X198325000Y-76936928D01*
X197475000Y-76936928D01*
X197350518Y-76949188D01*
X197230820Y-76985498D01*
X197120506Y-77044463D01*
X197023815Y-77123815D01*
X196944463Y-77220506D01*
X196885498Y-77330820D01*
X196849188Y-77450518D01*
X196836928Y-77575000D01*
X196836928Y-78425000D01*
X196849188Y-78549482D01*
X196885498Y-78669180D01*
X196890065Y-78677724D01*
X196855338Y-78792204D01*
X196834872Y-79000000D01*
X196855338Y-79207796D01*
X196915950Y-79407607D01*
X196965335Y-79500000D01*
X196915950Y-79592393D01*
X196855338Y-79792204D01*
X196834872Y-80000000D01*
X196855338Y-80207796D01*
X196915950Y-80407607D01*
X196965335Y-80500000D01*
X196915950Y-80592393D01*
X196855338Y-80792204D01*
X196834872Y-81000000D01*
X196855338Y-81207796D01*
X196915950Y-81407607D01*
X196966302Y-81501809D01*
X196891128Y-81674750D01*
X196880460Y-81709938D01*
X197007743Y-81873000D01*
X197292867Y-81873000D01*
X197308247Y-81885622D01*
X197492393Y-81984050D01*
X197544973Y-82000000D01*
X197492393Y-82015950D01*
X197308247Y-82114378D01*
X197292867Y-82127000D01*
X197007743Y-82127000D01*
X196880460Y-82290062D01*
X196891128Y-82325250D01*
X196966302Y-82498191D01*
X196915950Y-82592393D01*
X196855338Y-82792204D01*
X196834872Y-83000000D01*
X196855338Y-83207796D01*
X196915950Y-83407607D01*
X196965335Y-83500000D01*
X196915950Y-83592393D01*
X196855338Y-83792204D01*
X196834872Y-84000000D01*
X196855338Y-84207796D01*
X196915950Y-84407607D01*
X196965335Y-84500000D01*
X196915950Y-84592393D01*
X196855338Y-84792204D01*
X196834872Y-85000000D01*
X196855338Y-85207796D01*
X196915950Y-85407607D01*
X196966302Y-85501809D01*
X196891128Y-85674750D01*
X196880460Y-85709938D01*
X197007743Y-85873000D01*
X197292867Y-85873000D01*
X197308247Y-85885622D01*
X197492393Y-85984050D01*
X197544973Y-86000000D01*
X197492393Y-86015950D01*
X197308247Y-86114378D01*
X197292867Y-86127000D01*
X197007743Y-86127000D01*
X196880460Y-86290062D01*
X196891128Y-86325250D01*
X196902058Y-86350394D01*
X196874684Y-86365026D01*
X196758959Y-86459999D01*
X196735156Y-86489003D01*
X196638997Y-86585162D01*
X196609999Y-86608960D01*
X196586201Y-86637958D01*
X196586200Y-86637959D01*
X196515025Y-86724685D01*
X196444453Y-86856715D01*
X196400997Y-86999976D01*
X196386323Y-87148961D01*
X196390000Y-87186293D01*
X196389999Y-99314201D01*
X194828661Y-100875539D01*
X194740706Y-100710986D01*
X194555134Y-100484866D01*
X194525313Y-100460393D01*
X194594180Y-100439502D01*
X194704494Y-100380537D01*
X194801185Y-100301185D01*
X194880537Y-100204494D01*
X194939502Y-100094180D01*
X194975812Y-99974482D01*
X194988072Y-99850000D01*
X194988072Y-98150000D01*
X194975812Y-98025518D01*
X194939502Y-97905820D01*
X194880537Y-97795506D01*
X194801185Y-97698815D01*
X194704494Y-97619463D01*
X194594180Y-97560498D01*
X194474482Y-97524188D01*
X194350000Y-97511928D01*
X192650000Y-97511928D01*
X192525518Y-97524188D01*
X192405820Y-97560498D01*
X192295506Y-97619463D01*
X192198815Y-97698815D01*
X192119463Y-97795506D01*
X192060498Y-97905820D01*
X192024188Y-98025518D01*
X192011928Y-98150000D01*
X192011928Y-99850000D01*
X192024188Y-99974482D01*
X192060498Y-100094180D01*
X192119463Y-100204494D01*
X192198815Y-100301185D01*
X192295506Y-100380537D01*
X192405820Y-100439502D01*
X192474687Y-100460393D01*
X192444866Y-100484866D01*
X192259294Y-100710986D01*
X192121401Y-100968966D01*
X192036487Y-101248889D01*
X192007815Y-101540000D01*
X192036487Y-101831111D01*
X192121401Y-102111034D01*
X192259294Y-102369014D01*
X192321448Y-102444748D01*
X188226197Y-106540000D01*
X186353803Y-106540000D01*
X187686004Y-105207800D01*
X187715002Y-105184002D01*
X187772141Y-105114378D01*
X187809975Y-105068278D01*
X187880547Y-104936248D01*
X187884267Y-104923984D01*
X187924004Y-104792987D01*
X187935001Y-104681334D01*
X187935001Y-104681324D01*
X187938677Y-104644001D01*
X187935001Y-104606678D01*
X187935001Y-102752323D01*
X187938677Y-102715000D01*
X187935001Y-102677677D01*
X187935001Y-102677668D01*
X187924004Y-102566015D01*
X187880547Y-102422754D01*
X187809975Y-102290725D01*
X187715002Y-102175000D01*
X187686004Y-102151202D01*
X187440797Y-101905995D01*
X187463513Y-101831111D01*
X187492185Y-101540000D01*
X187463513Y-101248889D01*
X187378599Y-100968966D01*
X187240706Y-100710986D01*
X187055134Y-100484866D01*
X187025313Y-100460393D01*
X187094180Y-100439502D01*
X187204494Y-100380537D01*
X187301185Y-100301185D01*
X187380537Y-100204494D01*
X187439502Y-100094180D01*
X187475812Y-99974482D01*
X187488072Y-99850000D01*
X187485000Y-99285750D01*
X187326250Y-99127000D01*
X186127000Y-99127000D01*
X186127000Y-99147000D01*
X185873000Y-99147000D01*
X185873000Y-99127000D01*
X185853000Y-99127000D01*
X185853000Y-98873000D01*
X185873000Y-98873000D01*
X185873000Y-97673750D01*
X186127000Y-97673750D01*
X186127000Y-98873000D01*
X187326250Y-98873000D01*
X187485000Y-98714250D01*
X187488072Y-98150000D01*
X187475812Y-98025518D01*
X187439502Y-97905820D01*
X187380537Y-97795506D01*
X187301185Y-97698815D01*
X187204494Y-97619463D01*
X187094180Y-97560498D01*
X186974482Y-97524188D01*
X186850000Y-97511928D01*
X186285750Y-97515000D01*
X186127000Y-97673750D01*
X185873000Y-97673750D01*
X185714250Y-97515000D01*
X185584999Y-97514296D01*
X185584999Y-83989802D01*
X187539802Y-82035000D01*
X187601939Y-82035000D01*
X187801898Y-81995226D01*
X187990256Y-81917205D01*
X188159774Y-81803937D01*
X188303937Y-81659774D01*
X188417205Y-81490256D01*
X188495226Y-81301898D01*
X188535000Y-81101939D01*
X188535000Y-81010124D01*
X188560498Y-81094180D01*
X188619463Y-81204494D01*
X188698815Y-81301185D01*
X188795506Y-81380537D01*
X188905820Y-81439502D01*
X189025518Y-81475812D01*
X189150000Y-81488072D01*
X190850000Y-81488072D01*
X190974482Y-81475812D01*
X191094180Y-81439502D01*
X191204494Y-81380537D01*
X191301185Y-81301185D01*
X191380537Y-81204494D01*
X191439502Y-81094180D01*
X191475812Y-80974482D01*
X191488072Y-80850000D01*
X191488072Y-79150000D01*
X191475812Y-79025518D01*
X191439502Y-78905820D01*
X191380537Y-78795506D01*
X191301185Y-78698815D01*
X191204494Y-78619463D01*
X191094180Y-78560498D01*
X190974482Y-78524188D01*
X190850000Y-78511928D01*
X189150000Y-78511928D01*
X189025518Y-78524188D01*
X188905820Y-78560498D01*
X188795506Y-78619463D01*
X188698815Y-78698815D01*
X188619463Y-78795506D01*
X188560498Y-78905820D01*
X188524188Y-79025518D01*
X188511928Y-79150000D01*
X188511928Y-80782069D01*
X188495226Y-80698102D01*
X188417205Y-80509744D01*
X188303937Y-80340226D01*
X188159774Y-80196063D01*
X187990256Y-80082795D01*
X187801898Y-80004774D01*
X187601939Y-79965000D01*
X187398061Y-79965000D01*
X187198102Y-80004774D01*
X187009744Y-80082795D01*
X186840226Y-80196063D01*
X186696063Y-80340226D01*
X186582795Y-80509744D01*
X186504774Y-80698102D01*
X186465000Y-80898061D01*
X186465000Y-80960198D01*
X184314002Y-83111197D01*
X184284998Y-83135000D01*
X184229870Y-83202175D01*
X184190025Y-83250725D01*
X184119454Y-83382754D01*
X184119453Y-83382755D01*
X184075996Y-83526016D01*
X184064999Y-83637669D01*
X184064999Y-83637679D01*
X184061323Y-83675001D01*
X184064999Y-83712323D01*
X184065000Y-100327666D01*
X184061323Y-100364999D01*
X184075997Y-100513984D01*
X184119453Y-100657245D01*
X184190025Y-100789275D01*
X184240693Y-100851013D01*
X184284999Y-100905000D01*
X184313997Y-100928798D01*
X184559203Y-101174004D01*
X184536487Y-101248889D01*
X184507815Y-101540000D01*
X184536487Y-101831111D01*
X184621401Y-102111034D01*
X184759294Y-102369014D01*
X184944866Y-102595134D01*
X185170986Y-102780706D01*
X185225791Y-102810000D01*
X185170986Y-102839294D01*
X184944866Y-103024866D01*
X184759294Y-103250986D01*
X184722405Y-103320000D01*
X180987728Y-103320000D01*
X180995226Y-103301898D01*
X181035000Y-103101939D01*
X181035000Y-102898061D01*
X180995226Y-102698102D01*
X180917205Y-102509744D01*
X180803937Y-102340226D01*
X180659774Y-102196063D01*
X180490256Y-102082795D01*
X180301898Y-102004774D01*
X180101939Y-101965000D01*
X180039802Y-101965000D01*
X177960510Y-99885709D01*
X177995226Y-99801898D01*
X178035000Y-99601939D01*
X178035000Y-99398061D01*
X177995226Y-99198102D01*
X177917205Y-99009744D01*
X177803937Y-98840226D01*
X177659774Y-98696063D01*
X177490256Y-98582795D01*
X177301898Y-98504774D01*
X177101939Y-98465000D01*
X176898061Y-98465000D01*
X176698102Y-98504774D01*
X176509744Y-98582795D01*
X176340226Y-98696063D01*
X176260000Y-98776289D01*
X176260000Y-89814801D01*
X184039802Y-82035000D01*
X184101939Y-82035000D01*
X184301898Y-81995226D01*
X184490256Y-81917205D01*
X184659774Y-81803937D01*
X184803937Y-81659774D01*
X184917205Y-81490256D01*
X184995226Y-81301898D01*
X185035000Y-81101939D01*
X185035000Y-80898061D01*
X184995226Y-80698102D01*
X184917205Y-80509744D01*
X184803937Y-80340226D01*
X184659774Y-80196063D01*
X184490256Y-80082795D01*
X184301898Y-80004774D01*
X184101939Y-79965000D01*
X183898061Y-79965000D01*
X183698102Y-80004774D01*
X183509744Y-80082795D01*
X183340226Y-80196063D01*
X183196063Y-80340226D01*
X183082795Y-80509744D01*
X183004774Y-80698102D01*
X182965000Y-80898061D01*
X182965000Y-80960198D01*
X174989003Y-88936196D01*
X174959999Y-88959999D01*
X174919175Y-89009744D01*
X174865026Y-89075724D01*
X174855161Y-89094180D01*
X174794454Y-89207754D01*
X174750997Y-89351015D01*
X174740000Y-89462668D01*
X174740000Y-89462678D01*
X174736324Y-89500000D01*
X174740000Y-89537322D01*
X174740001Y-100796288D01*
X174696063Y-100840226D01*
X174582795Y-101009744D01*
X174504774Y-101198102D01*
X174465000Y-101398061D01*
X174465000Y-101601939D01*
X174504774Y-101801898D01*
X174582795Y-101990256D01*
X174696063Y-102159774D01*
X174840226Y-102303937D01*
X175009744Y-102417205D01*
X175198102Y-102495226D01*
X175398061Y-102535000D01*
X175460199Y-102535000D01*
X177516201Y-104591003D01*
X177539999Y-104620001D01*
X177568997Y-104643799D01*
X177655723Y-104714974D01*
X177768019Y-104774998D01*
X177787753Y-104785546D01*
X177931014Y-104829003D01*
X178042667Y-104840000D01*
X178042677Y-104840000D01*
X178080000Y-104843676D01*
X178117322Y-104840000D01*
X184722405Y-104840000D01*
X184759294Y-104909014D01*
X184944866Y-105135134D01*
X185170986Y-105320706D01*
X185335539Y-105408661D01*
X185004201Y-105740000D01*
X176203711Y-105740000D01*
X176159774Y-105696063D01*
X175990256Y-105582795D01*
X175801898Y-105504774D01*
X175601939Y-105465000D01*
X175398061Y-105465000D01*
X175198102Y-105504774D01*
X175009744Y-105582795D01*
X174840226Y-105696063D01*
X174696063Y-105840226D01*
X174582795Y-106009744D01*
X174504774Y-106198102D01*
X174465000Y-106398061D01*
X174465000Y-106460198D01*
X173735189Y-107190010D01*
X168384792Y-107190010D01*
X168838798Y-106736004D01*
X168838802Y-106735999D01*
X169039801Y-106535000D01*
X169101939Y-106535000D01*
X169301898Y-106495226D01*
X169490256Y-106417205D01*
X169659774Y-106303937D01*
X169803937Y-106159774D01*
X169917205Y-105990256D01*
X169995226Y-105801898D01*
X170035000Y-105601939D01*
X170035000Y-105398061D01*
X169995226Y-105198102D01*
X169917205Y-105009744D01*
X169803937Y-104840226D01*
X169659774Y-104696063D01*
X169490256Y-104582795D01*
X169301898Y-104504774D01*
X169101939Y-104465000D01*
X168898061Y-104465000D01*
X168698102Y-104504774D01*
X168509744Y-104582795D01*
X168460965Y-104615388D01*
X168417205Y-104509744D01*
X168303937Y-104340226D01*
X168159774Y-104196063D01*
X167990256Y-104082795D01*
X167801898Y-104004774D01*
X167601939Y-103965000D01*
X167535000Y-103965000D01*
X167535000Y-103898061D01*
X167495226Y-103698102D01*
X167417205Y-103509744D01*
X167303937Y-103340226D01*
X167159774Y-103196063D01*
X166990256Y-103082795D01*
X166801898Y-103004774D01*
X166601939Y-102965000D01*
X166398061Y-102965000D01*
X166198102Y-103004774D01*
X166009744Y-103082795D01*
X165840226Y-103196063D01*
X165796289Y-103240000D01*
X156734802Y-103240000D01*
X152892863Y-99398061D01*
X154865000Y-99398061D01*
X154865000Y-99601939D01*
X154904774Y-99801898D01*
X154982795Y-99990256D01*
X155096063Y-100159774D01*
X155240226Y-100303937D01*
X155409744Y-100417205D01*
X155598102Y-100495226D01*
X155798061Y-100535000D01*
X156001939Y-100535000D01*
X156201898Y-100495226D01*
X156390256Y-100417205D01*
X156559774Y-100303937D01*
X156603711Y-100260000D01*
X162985199Y-100260000D01*
X163765000Y-101039802D01*
X163765000Y-101101939D01*
X163804774Y-101301898D01*
X163882795Y-101490256D01*
X163996063Y-101659774D01*
X164140226Y-101803937D01*
X164309744Y-101917205D01*
X164498102Y-101995226D01*
X164698061Y-102035000D01*
X164901939Y-102035000D01*
X165101898Y-101995226D01*
X165290256Y-101917205D01*
X165459774Y-101803937D01*
X165603937Y-101659774D01*
X165717205Y-101490256D01*
X165795226Y-101301898D01*
X165835000Y-101101939D01*
X165835000Y-100898061D01*
X165795226Y-100698102D01*
X165717205Y-100509744D01*
X165603937Y-100340226D01*
X165459774Y-100196063D01*
X165290256Y-100082795D01*
X165101898Y-100004774D01*
X164901939Y-99965000D01*
X164839802Y-99965000D01*
X163863804Y-98989003D01*
X163840001Y-98959999D01*
X163724276Y-98865026D01*
X163592247Y-98794454D01*
X163448986Y-98750997D01*
X163337333Y-98740000D01*
X163337322Y-98740000D01*
X163300000Y-98736324D01*
X163262678Y-98740000D01*
X156603711Y-98740000D01*
X156559774Y-98696063D01*
X156390256Y-98582795D01*
X156201898Y-98504774D01*
X156001939Y-98465000D01*
X155798061Y-98465000D01*
X155598102Y-98504774D01*
X155409744Y-98582795D01*
X155240226Y-98696063D01*
X155096063Y-98840226D01*
X154982795Y-99009744D01*
X154904774Y-99198102D01*
X154865000Y-99398061D01*
X152892863Y-99398061D01*
X147040797Y-93545996D01*
X147063513Y-93471111D01*
X147092185Y-93180000D01*
X147063513Y-92888889D01*
X146978599Y-92608966D01*
X146840706Y-92350986D01*
X146655134Y-92124866D01*
X146429014Y-91939294D01*
X146364477Y-91904799D01*
X146481355Y-91835178D01*
X146697588Y-91640269D01*
X146871641Y-91406920D01*
X146996825Y-91144099D01*
X147041476Y-90996890D01*
X146920155Y-90767000D01*
X145727000Y-90767000D01*
X145727000Y-90787000D01*
X145473000Y-90787000D01*
X145473000Y-90767000D01*
X145453000Y-90767000D01*
X145453000Y-90513000D01*
X145473000Y-90513000D01*
X145473000Y-90493000D01*
X145727000Y-90493000D01*
X145727000Y-90513000D01*
X146920155Y-90513000D01*
X147041476Y-90283110D01*
X146996825Y-90135901D01*
X146871641Y-89873080D01*
X146697588Y-89639731D01*
X146613534Y-89563966D01*
X146694180Y-89539502D01*
X146804494Y-89480537D01*
X146901185Y-89401185D01*
X146980537Y-89304494D01*
X147039502Y-89194180D01*
X147075812Y-89074482D01*
X147088072Y-88950000D01*
X147088072Y-87250000D01*
X147078224Y-87150000D01*
X154311928Y-87150000D01*
X154311928Y-88850000D01*
X154324188Y-88974482D01*
X154360498Y-89094180D01*
X154419463Y-89204494D01*
X154498815Y-89301185D01*
X154595506Y-89380537D01*
X154705820Y-89439502D01*
X154825518Y-89475812D01*
X154950000Y-89488072D01*
X156650000Y-89488072D01*
X156774482Y-89475812D01*
X156894180Y-89439502D01*
X157004494Y-89380537D01*
X157101185Y-89301185D01*
X157180537Y-89204494D01*
X157239502Y-89094180D01*
X157275812Y-88974482D01*
X157288072Y-88850000D01*
X157288072Y-87150000D01*
X157275812Y-87025518D01*
X157239502Y-86905820D01*
X157180537Y-86795506D01*
X157101185Y-86698815D01*
X157004494Y-86619463D01*
X156894180Y-86560498D01*
X156774482Y-86524188D01*
X156650000Y-86511928D01*
X154950000Y-86511928D01*
X154825518Y-86524188D01*
X154705820Y-86560498D01*
X154595506Y-86619463D01*
X154498815Y-86698815D01*
X154419463Y-86795506D01*
X154360498Y-86905820D01*
X154324188Y-87025518D01*
X154311928Y-87150000D01*
X147078224Y-87150000D01*
X147075812Y-87125518D01*
X147039502Y-87005820D01*
X146980537Y-86895506D01*
X146901185Y-86798815D01*
X146804494Y-86719463D01*
X146694180Y-86660498D01*
X146574482Y-86624188D01*
X146450000Y-86611928D01*
X144750000Y-86611928D01*
X144710000Y-86615868D01*
X144710000Y-74000000D01*
X161061928Y-74000000D01*
X161074188Y-74124482D01*
X161110498Y-74244180D01*
X161169463Y-74354494D01*
X161248815Y-74451185D01*
X161345506Y-74530537D01*
X161455820Y-74589502D01*
X161575518Y-74625812D01*
X161700000Y-74638072D01*
X162214250Y-74635000D01*
X162373000Y-74476250D01*
X162373000Y-73627000D01*
X162627000Y-73627000D01*
X162627000Y-74476250D01*
X162785750Y-74635000D01*
X163300000Y-74638072D01*
X163424482Y-74625812D01*
X163544180Y-74589502D01*
X163654494Y-74530537D01*
X163751185Y-74451185D01*
X163830537Y-74354494D01*
X163889502Y-74244180D01*
X163925812Y-74124482D01*
X163938072Y-74000000D01*
X163935000Y-73785750D01*
X163776250Y-73627000D01*
X162627000Y-73627000D01*
X162373000Y-73627000D01*
X161223750Y-73627000D01*
X161065000Y-73785750D01*
X161061928Y-74000000D01*
X144710000Y-74000000D01*
X144710000Y-71564525D01*
X144854727Y-71913928D01*
X145181399Y-72402826D01*
X145597174Y-72818601D01*
X146086072Y-73145273D01*
X146629308Y-73370288D01*
X147206003Y-73485000D01*
X147793997Y-73485000D01*
X148370692Y-73370288D01*
X148913928Y-73145273D01*
X149402826Y-72818601D01*
X149818601Y-72402826D01*
X150145273Y-71913928D01*
X150370288Y-71370692D01*
X150485000Y-70793997D01*
X150485000Y-70550000D01*
X151811928Y-70550000D01*
X151811928Y-73050000D01*
X151824188Y-73174482D01*
X151860498Y-73294180D01*
X151919463Y-73404494D01*
X151998815Y-73501185D01*
X152095506Y-73580537D01*
X152205820Y-73639502D01*
X152325518Y-73675812D01*
X152450000Y-73688072D01*
X154950000Y-73688072D01*
X155074482Y-73675812D01*
X155194180Y-73639502D01*
X155304494Y-73580537D01*
X155401185Y-73501185D01*
X155480537Y-73404494D01*
X155539502Y-73294180D01*
X155575812Y-73174482D01*
X155581807Y-73113605D01*
X157566000Y-73113605D01*
X157691914Y-73403577D01*
X158024126Y-73569433D01*
X158382312Y-73667290D01*
X158752706Y-73693389D01*
X159121075Y-73646725D01*
X159473262Y-73529094D01*
X159708086Y-73403577D01*
X159834000Y-73113605D01*
X159720395Y-73000000D01*
X161061928Y-73000000D01*
X161065000Y-73214250D01*
X161223750Y-73373000D01*
X162373000Y-73373000D01*
X162373000Y-72523750D01*
X162627000Y-72523750D01*
X162627000Y-73373000D01*
X163776250Y-73373000D01*
X163935000Y-73214250D01*
X163938072Y-73000000D01*
X166061928Y-73000000D01*
X166061928Y-74000000D01*
X166074188Y-74124482D01*
X166110498Y-74244180D01*
X166169463Y-74354494D01*
X166248815Y-74451185D01*
X166345506Y-74530537D01*
X166455820Y-74589502D01*
X166575518Y-74625812D01*
X166700000Y-74638072D01*
X168300000Y-74638072D01*
X168424482Y-74625812D01*
X168544180Y-74589502D01*
X168654494Y-74530537D01*
X168751185Y-74451185D01*
X168830537Y-74354494D01*
X168889502Y-74244180D01*
X168925812Y-74124482D01*
X168938072Y-74000000D01*
X172561928Y-74000000D01*
X172574188Y-74124482D01*
X172610498Y-74244180D01*
X172669463Y-74354494D01*
X172748815Y-74451185D01*
X172845506Y-74530537D01*
X172955820Y-74589502D01*
X173075518Y-74625812D01*
X173200000Y-74638072D01*
X173714250Y-74635000D01*
X173873000Y-74476250D01*
X173873000Y-73627000D01*
X174127000Y-73627000D01*
X174127000Y-74476250D01*
X174285750Y-74635000D01*
X174800000Y-74638072D01*
X174924482Y-74625812D01*
X175044180Y-74589502D01*
X175154494Y-74530537D01*
X175251185Y-74451185D01*
X175330537Y-74354494D01*
X175389502Y-74244180D01*
X175425812Y-74124482D01*
X175438072Y-74000000D01*
X175435000Y-73785750D01*
X175276250Y-73627000D01*
X174127000Y-73627000D01*
X173873000Y-73627000D01*
X172723750Y-73627000D01*
X172565000Y-73785750D01*
X172561928Y-74000000D01*
X168938072Y-74000000D01*
X168938072Y-73000000D01*
X172561928Y-73000000D01*
X172565000Y-73214250D01*
X172723750Y-73373000D01*
X173873000Y-73373000D01*
X173873000Y-72523750D01*
X174127000Y-72523750D01*
X174127000Y-73373000D01*
X175276250Y-73373000D01*
X175435000Y-73214250D01*
X175438072Y-73000000D01*
X175425812Y-72875518D01*
X175389502Y-72755820D01*
X175330537Y-72645506D01*
X175251185Y-72548815D01*
X175154494Y-72469463D01*
X175044180Y-72410498D01*
X174924482Y-72374188D01*
X174800000Y-72361928D01*
X174285750Y-72365000D01*
X174127000Y-72523750D01*
X173873000Y-72523750D01*
X173714250Y-72365000D01*
X173200000Y-72361928D01*
X173075518Y-72374188D01*
X172955820Y-72410498D01*
X172845506Y-72469463D01*
X172748815Y-72548815D01*
X172669463Y-72645506D01*
X172610498Y-72755820D01*
X172574188Y-72875518D01*
X172561928Y-73000000D01*
X168938072Y-73000000D01*
X168925812Y-72875518D01*
X168889502Y-72755820D01*
X168830537Y-72645506D01*
X168751185Y-72548815D01*
X168654494Y-72469463D01*
X168544180Y-72410498D01*
X168424482Y-72374188D01*
X168300000Y-72361928D01*
X166700000Y-72361928D01*
X166575518Y-72374188D01*
X166455820Y-72410498D01*
X166345506Y-72469463D01*
X166248815Y-72548815D01*
X166169463Y-72645506D01*
X166110498Y-72755820D01*
X166074188Y-72875518D01*
X166061928Y-73000000D01*
X163938072Y-73000000D01*
X163925812Y-72875518D01*
X163889502Y-72755820D01*
X163830537Y-72645506D01*
X163751185Y-72548815D01*
X163654494Y-72469463D01*
X163544180Y-72410498D01*
X163424482Y-72374188D01*
X163300000Y-72361928D01*
X162785750Y-72365000D01*
X162627000Y-72523750D01*
X162373000Y-72523750D01*
X162214250Y-72365000D01*
X161700000Y-72361928D01*
X161575518Y-72374188D01*
X161455820Y-72410498D01*
X161345506Y-72469463D01*
X161248815Y-72548815D01*
X161169463Y-72645506D01*
X161110498Y-72755820D01*
X161074188Y-72875518D01*
X161061928Y-73000000D01*
X159720395Y-73000000D01*
X158700000Y-71979605D01*
X157566000Y-73113605D01*
X155581807Y-73113605D01*
X155588072Y-73050000D01*
X155588072Y-71852706D01*
X156806611Y-71852706D01*
X156853275Y-72221075D01*
X156970906Y-72573262D01*
X157096423Y-72808086D01*
X157386395Y-72934000D01*
X158520395Y-71800000D01*
X158879605Y-71800000D01*
X160013605Y-72934000D01*
X160303577Y-72808086D01*
X160469433Y-72475874D01*
X160567290Y-72117688D01*
X160593389Y-71747294D01*
X160546725Y-71378925D01*
X160429094Y-71026738D01*
X160303577Y-70791914D01*
X160013605Y-70666000D01*
X158879605Y-71800000D01*
X158520395Y-71800000D01*
X157386395Y-70666000D01*
X157096423Y-70791914D01*
X156930567Y-71124126D01*
X156832710Y-71482312D01*
X156806611Y-71852706D01*
X155588072Y-71852706D01*
X155588072Y-70550000D01*
X155581808Y-70486395D01*
X157566000Y-70486395D01*
X158700000Y-71620395D01*
X159834000Y-70486395D01*
X159708086Y-70196423D01*
X159375874Y-70030567D01*
X159017688Y-69932710D01*
X158647294Y-69906611D01*
X158278925Y-69953275D01*
X157926738Y-70070906D01*
X157691914Y-70196423D01*
X157566000Y-70486395D01*
X155581808Y-70486395D01*
X155575812Y-70425518D01*
X155539502Y-70305820D01*
X155480537Y-70195506D01*
X155401185Y-70098815D01*
X155304494Y-70019463D01*
X155194180Y-69960498D01*
X155074482Y-69924188D01*
X154950000Y-69911928D01*
X152450000Y-69911928D01*
X152325518Y-69924188D01*
X152205820Y-69960498D01*
X152095506Y-70019463D01*
X151998815Y-70098815D01*
X151919463Y-70195506D01*
X151860498Y-70305820D01*
X151824188Y-70425518D01*
X151811928Y-70550000D01*
X150485000Y-70550000D01*
X150485000Y-70206003D01*
X150370288Y-69629308D01*
X150145273Y-69086072D01*
X149818601Y-68597174D01*
X149431427Y-68210000D01*
X166215000Y-68210000D01*
X166215000Y-68351939D01*
G36*
X187608776Y-130057233D02*
G01*
X187487439Y-130350166D01*
X187415000Y-130714344D01*
X187415000Y-131085656D01*
X187487439Y-131449834D01*
X187629534Y-131792882D01*
X187835825Y-132101618D01*
X188098382Y-132364175D01*
X188407118Y-132570466D01*
X188620035Y-132658659D01*
X188707753Y-132705546D01*
X188738922Y-132715001D01*
X184837567Y-132715001D01*
X184849834Y-132712561D01*
X185192882Y-132570466D01*
X185501618Y-132364175D01*
X185764175Y-132101618D01*
X185970466Y-131792882D01*
X186112561Y-131449834D01*
X186185000Y-131085656D01*
X186185000Y-130714344D01*
X186112561Y-130350166D01*
X185970466Y-130007118D01*
X185764175Y-129698382D01*
X185501618Y-129435825D01*
X185192882Y-129229534D01*
X184849834Y-129087439D01*
X184485656Y-129015000D01*
X184114344Y-129015000D01*
X183750166Y-129087439D01*
X183407118Y-129229534D01*
X183098382Y-129435825D01*
X182835825Y-129698382D01*
X182629534Y-130007118D01*
X182487439Y-130350166D01*
X182415000Y-130714344D01*
X182415000Y-131085656D01*
X182487439Y-131449834D01*
X182629534Y-131792882D01*
X182835825Y-132101618D01*
X183098382Y-132364175D01*
X183407118Y-132570466D01*
X183750166Y-132712561D01*
X183762433Y-132715001D01*
X179837567Y-132715001D01*
X179849834Y-132712561D01*
X180192882Y-132570466D01*
X180501618Y-132364175D01*
X180764175Y-132101618D01*
X180970466Y-131792882D01*
X181112561Y-131449834D01*
X181185000Y-131085656D01*
X181185000Y-130714344D01*
X181112561Y-130350166D01*
X180970466Y-130007118D01*
X180764175Y-129698382D01*
X180501618Y-129435825D01*
X180192882Y-129229534D01*
X179849834Y-129087439D01*
X179485656Y-129015000D01*
X179114344Y-129015000D01*
X178750166Y-129087439D01*
X178407118Y-129229534D01*
X178098382Y-129435825D01*
X177835825Y-129698382D01*
X177629534Y-130007118D01*
X177487439Y-130350166D01*
X177415000Y-130714344D01*
X177415000Y-131085656D01*
X177487439Y-131449834D01*
X177629534Y-131792882D01*
X177835825Y-132101618D01*
X178098382Y-132364175D01*
X178407118Y-132570466D01*
X178750166Y-132712561D01*
X178762433Y-132715001D01*
X174837567Y-132715001D01*
X174849834Y-132712561D01*
X175192882Y-132570466D01*
X175501618Y-132364175D01*
X175764175Y-132101618D01*
X175970466Y-131792882D01*
X176112561Y-131449834D01*
X176185000Y-131085656D01*
X176185000Y-130714344D01*
X176112561Y-130350166D01*
X175970466Y-130007118D01*
X175764175Y-129698382D01*
X175501618Y-129435825D01*
X175192882Y-129229534D01*
X174849834Y-129087439D01*
X174760000Y-129069570D01*
X174760000Y-118037325D01*
X174763676Y-118000000D01*
X174760000Y-117962675D01*
X174760000Y-117962667D01*
X174749003Y-117851014D01*
X174705546Y-117707753D01*
X174634974Y-117575724D01*
X174540001Y-117459999D01*
X174535000Y-117455895D01*
X174535000Y-117398061D01*
X174495226Y-117198102D01*
X174417205Y-117009744D01*
X174303937Y-116840226D01*
X174159774Y-116696063D01*
X173990256Y-116582795D01*
X173801898Y-116504774D01*
X173601939Y-116465000D01*
X173398061Y-116465000D01*
X173198102Y-116504774D01*
X173009744Y-116582795D01*
X172840226Y-116696063D01*
X172696063Y-116840226D01*
X172582795Y-117009744D01*
X172504774Y-117198102D01*
X172465000Y-117398061D01*
X172465000Y-117601939D01*
X172504774Y-117801898D01*
X172582795Y-117990256D01*
X172696063Y-118159774D01*
X172840226Y-118303937D01*
X173009744Y-118417205D01*
X173198102Y-118495226D01*
X173240001Y-118503560D01*
X173240000Y-129341199D01*
X173098382Y-129435825D01*
X172835825Y-129698382D01*
X172629534Y-130007118D01*
X172487439Y-130350166D01*
X172415000Y-130714344D01*
X172415000Y-131085656D01*
X172487439Y-131449834D01*
X172629534Y-131792882D01*
X172835825Y-132101618D01*
X173098382Y-132364175D01*
X173407118Y-132570466D01*
X173620035Y-132658659D01*
X173707753Y-132705546D01*
X173738922Y-132715001D01*
X169837567Y-132715001D01*
X169849834Y-132712561D01*
X170192882Y-132570466D01*
X170501618Y-132364175D01*
X170764175Y-132101618D01*
X170970466Y-131792882D01*
X171112561Y-131449834D01*
X171185000Y-131085656D01*
X171185000Y-130714344D01*
X171112561Y-130350166D01*
X170970466Y-130007118D01*
X170764175Y-129698382D01*
X170501618Y-129435825D01*
X170192882Y-129229534D01*
X169849834Y-129087439D01*
X169760000Y-129069570D01*
X169760000Y-117314801D01*
X170039802Y-117035000D01*
X170101939Y-117035000D01*
X170301898Y-116995226D01*
X170490256Y-116917205D01*
X170659774Y-116803937D01*
X170803937Y-116659774D01*
X170917205Y-116490256D01*
X170995226Y-116301898D01*
X171035000Y-116101939D01*
X171035000Y-116081072D01*
X171037319Y-116080111D01*
X171206837Y-115966843D01*
X171250774Y-115922906D01*
X173474450Y-115922906D01*
X187608776Y-130057233D01*
X187608776Y-130057233D01*
G37*
X187608776Y-130057233D02*
X187487439Y-130350166D01*
X187415000Y-130714344D01*
X187415000Y-131085656D01*
X187487439Y-131449834D01*
X187629534Y-131792882D01*
X187835825Y-132101618D01*
X188098382Y-132364175D01*
X188407118Y-132570466D01*
X188620035Y-132658659D01*
X188707753Y-132705546D01*
X188738922Y-132715001D01*
X184837567Y-132715001D01*
X184849834Y-132712561D01*
X185192882Y-132570466D01*
X185501618Y-132364175D01*
X185764175Y-132101618D01*
X185970466Y-131792882D01*
X186112561Y-131449834D01*
X186185000Y-131085656D01*
X186185000Y-130714344D01*
X186112561Y-130350166D01*
X185970466Y-130007118D01*
X185764175Y-129698382D01*
X185501618Y-129435825D01*
X185192882Y-129229534D01*
X184849834Y-129087439D01*
X184485656Y-129015000D01*
X184114344Y-129015000D01*
X183750166Y-129087439D01*
X183407118Y-129229534D01*
X183098382Y-129435825D01*
X182835825Y-129698382D01*
X182629534Y-130007118D01*
X182487439Y-130350166D01*
X182415000Y-130714344D01*
X182415000Y-131085656D01*
X182487439Y-131449834D01*
X182629534Y-131792882D01*
X182835825Y-132101618D01*
X183098382Y-132364175D01*
X183407118Y-132570466D01*
X183750166Y-132712561D01*
X183762433Y-132715001D01*
X179837567Y-132715001D01*
X179849834Y-132712561D01*
X180192882Y-132570466D01*
X180501618Y-132364175D01*
X180764175Y-132101618D01*
X180970466Y-131792882D01*
X181112561Y-131449834D01*
X181185000Y-131085656D01*
X181185000Y-130714344D01*
X181112561Y-130350166D01*
X180970466Y-130007118D01*
X180764175Y-129698382D01*
X180501618Y-129435825D01*
X180192882Y-129229534D01*
X179849834Y-129087439D01*
X179485656Y-129015000D01*
X179114344Y-129015000D01*
X178750166Y-129087439D01*
X178407118Y-129229534D01*
X178098382Y-129435825D01*
X177835825Y-129698382D01*
X177629534Y-130007118D01*
X177487439Y-130350166D01*
X177415000Y-130714344D01*
X177415000Y-131085656D01*
X177487439Y-131449834D01*
X177629534Y-131792882D01*
X177835825Y-132101618D01*
X178098382Y-132364175D01*
X178407118Y-132570466D01*
X178750166Y-132712561D01*
X178762433Y-132715001D01*
X174837567Y-132715001D01*
X174849834Y-132712561D01*
X175192882Y-132570466D01*
X175501618Y-132364175D01*
X175764175Y-132101618D01*
X175970466Y-131792882D01*
X176112561Y-131449834D01*
X176185000Y-131085656D01*
X176185000Y-130714344D01*
X176112561Y-130350166D01*
X175970466Y-130007118D01*
X175764175Y-129698382D01*
X175501618Y-129435825D01*
X175192882Y-129229534D01*
X174849834Y-129087439D01*
X174760000Y-129069570D01*
X174760000Y-118037325D01*
X174763676Y-118000000D01*
X174760000Y-117962675D01*
X174760000Y-117962667D01*
X174749003Y-117851014D01*
X174705546Y-117707753D01*
X174634974Y-117575724D01*
X174540001Y-117459999D01*
X174535000Y-117455895D01*
X174535000Y-117398061D01*
X174495226Y-117198102D01*
X174417205Y-117009744D01*
X174303937Y-116840226D01*
X174159774Y-116696063D01*
X173990256Y-116582795D01*
X173801898Y-116504774D01*
X173601939Y-116465000D01*
X173398061Y-116465000D01*
X173198102Y-116504774D01*
X173009744Y-116582795D01*
X172840226Y-116696063D01*
X172696063Y-116840226D01*
X172582795Y-117009744D01*
X172504774Y-117198102D01*
X172465000Y-117398061D01*
X172465000Y-117601939D01*
X172504774Y-117801898D01*
X172582795Y-117990256D01*
X172696063Y-118159774D01*
X172840226Y-118303937D01*
X173009744Y-118417205D01*
X173198102Y-118495226D01*
X173240001Y-118503560D01*
X173240000Y-129341199D01*
X173098382Y-129435825D01*
X172835825Y-129698382D01*
X172629534Y-130007118D01*
X172487439Y-130350166D01*
X172415000Y-130714344D01*
X172415000Y-131085656D01*
X172487439Y-131449834D01*
X172629534Y-131792882D01*
X172835825Y-132101618D01*
X173098382Y-132364175D01*
X173407118Y-132570466D01*
X173620035Y-132658659D01*
X173707753Y-132705546D01*
X173738922Y-132715001D01*
X169837567Y-132715001D01*
X169849834Y-132712561D01*
X170192882Y-132570466D01*
X170501618Y-132364175D01*
X170764175Y-132101618D01*
X170970466Y-131792882D01*
X171112561Y-131449834D01*
X171185000Y-131085656D01*
X171185000Y-130714344D01*
X171112561Y-130350166D01*
X170970466Y-130007118D01*
X170764175Y-129698382D01*
X170501618Y-129435825D01*
X170192882Y-129229534D01*
X169849834Y-129087439D01*
X169760000Y-129069570D01*
X169760000Y-117314801D01*
X170039802Y-117035000D01*
X170101939Y-117035000D01*
X170301898Y-116995226D01*
X170490256Y-116917205D01*
X170659774Y-116803937D01*
X170803937Y-116659774D01*
X170917205Y-116490256D01*
X170995226Y-116301898D01*
X171035000Y-116101939D01*
X171035000Y-116081072D01*
X171037319Y-116080111D01*
X171206837Y-115966843D01*
X171250774Y-115922906D01*
X173474450Y-115922906D01*
X187608776Y-130057233D01*
G36*
X177215000Y-68351939D02*
G01*
X177254774Y-68551898D01*
X177332795Y-68740256D01*
X177446063Y-68909774D01*
X177590226Y-69053937D01*
X177759744Y-69167205D01*
X177915846Y-69231865D01*
X177845506Y-69269463D01*
X177748815Y-69348815D01*
X177669463Y-69445506D01*
X177610498Y-69555820D01*
X177574188Y-69675518D01*
X177561928Y-69800000D01*
X177561928Y-70365001D01*
X176189803Y-70365001D01*
X175613803Y-69789002D01*
X175590001Y-69759999D01*
X175474276Y-69665026D01*
X175412634Y-69632077D01*
X175389502Y-69555820D01*
X175330537Y-69445506D01*
X175251185Y-69348815D01*
X175154494Y-69269463D01*
X175044180Y-69210498D01*
X174924482Y-69174188D01*
X174800000Y-69161928D01*
X173200000Y-69161928D01*
X173075518Y-69174188D01*
X172955820Y-69210498D01*
X172845506Y-69269463D01*
X172748815Y-69348815D01*
X172669463Y-69445506D01*
X172610498Y-69555820D01*
X172574188Y-69675518D01*
X172561928Y-69800000D01*
X172561928Y-70365001D01*
X168938072Y-70365001D01*
X168938072Y-69800000D01*
X168925812Y-69675518D01*
X168889502Y-69555820D01*
X168830537Y-69445506D01*
X168815042Y-69426625D01*
X168854494Y-69405537D01*
X168951185Y-69326185D01*
X169000000Y-69266704D01*
X169048815Y-69326185D01*
X169145506Y-69405537D01*
X169255820Y-69464502D01*
X169375518Y-69500812D01*
X169500000Y-69513072D01*
X169714250Y-69510000D01*
X169873000Y-69351250D01*
X169873000Y-68377000D01*
X170127000Y-68377000D01*
X170127000Y-69351250D01*
X170285750Y-69510000D01*
X170500000Y-69513072D01*
X170624482Y-69500812D01*
X170744180Y-69464502D01*
X170854494Y-69405537D01*
X170951185Y-69326185D01*
X171030537Y-69229494D01*
X171089502Y-69119180D01*
X171125812Y-68999482D01*
X171138072Y-68875000D01*
X171135000Y-68535750D01*
X170976250Y-68377000D01*
X170127000Y-68377000D01*
X169873000Y-68377000D01*
X169853000Y-68377000D01*
X169853000Y-68210000D01*
X177215000Y-68210000D01*
X177215000Y-68351939D01*
X177215000Y-68351939D01*
G37*
X177215000Y-68351939D02*
X177254774Y-68551898D01*
X177332795Y-68740256D01*
X177446063Y-68909774D01*
X177590226Y-69053937D01*
X177759744Y-69167205D01*
X177915846Y-69231865D01*
X177845506Y-69269463D01*
X177748815Y-69348815D01*
X177669463Y-69445506D01*
X177610498Y-69555820D01*
X177574188Y-69675518D01*
X177561928Y-69800000D01*
X177561928Y-70365001D01*
X176189803Y-70365001D01*
X175613803Y-69789002D01*
X175590001Y-69759999D01*
X175474276Y-69665026D01*
X175412634Y-69632077D01*
X175389502Y-69555820D01*
X175330537Y-69445506D01*
X175251185Y-69348815D01*
X175154494Y-69269463D01*
X175044180Y-69210498D01*
X174924482Y-69174188D01*
X174800000Y-69161928D01*
X173200000Y-69161928D01*
X173075518Y-69174188D01*
X172955820Y-69210498D01*
X172845506Y-69269463D01*
X172748815Y-69348815D01*
X172669463Y-69445506D01*
X172610498Y-69555820D01*
X172574188Y-69675518D01*
X172561928Y-69800000D01*
X172561928Y-70365001D01*
X168938072Y-70365001D01*
X168938072Y-69800000D01*
X168925812Y-69675518D01*
X168889502Y-69555820D01*
X168830537Y-69445506D01*
X168815042Y-69426625D01*
X168854494Y-69405537D01*
X168951185Y-69326185D01*
X169000000Y-69266704D01*
X169048815Y-69326185D01*
X169145506Y-69405537D01*
X169255820Y-69464502D01*
X169375518Y-69500812D01*
X169500000Y-69513072D01*
X169714250Y-69510000D01*
X169873000Y-69351250D01*
X169873000Y-68377000D01*
X170127000Y-68377000D01*
X170127000Y-69351250D01*
X170285750Y-69510000D01*
X170500000Y-69513072D01*
X170624482Y-69500812D01*
X170744180Y-69464502D01*
X170854494Y-69405537D01*
X170951185Y-69326185D01*
X171030537Y-69229494D01*
X171089502Y-69119180D01*
X171125812Y-68999482D01*
X171138072Y-68875000D01*
X171135000Y-68535750D01*
X170976250Y-68377000D01*
X170127000Y-68377000D01*
X169873000Y-68377000D01*
X169853000Y-68377000D01*
X169853000Y-68210000D01*
X177215000Y-68210000D01*
X177215000Y-68351939D01*
G36*
X199965000Y-68351939D02*
G01*
X200004774Y-68551898D01*
X200082795Y-68740256D01*
X200196063Y-68909774D01*
X200340226Y-69053937D01*
X200509744Y-69167205D01*
X200698102Y-69245226D01*
X200840520Y-69273555D01*
X200748815Y-69348815D01*
X200669463Y-69445506D01*
X200610498Y-69555820D01*
X200574188Y-69675518D01*
X200561928Y-69800000D01*
X200561928Y-70365001D01*
X199189803Y-70365001D01*
X198613803Y-69789002D01*
X198590001Y-69759999D01*
X198474276Y-69665026D01*
X198412634Y-69632077D01*
X198389502Y-69555820D01*
X198330537Y-69445506D01*
X198251185Y-69348815D01*
X198154494Y-69269463D01*
X198044180Y-69210498D01*
X197924482Y-69174188D01*
X197800000Y-69161928D01*
X196200000Y-69161928D01*
X196075518Y-69174188D01*
X195955820Y-69210498D01*
X195845506Y-69269463D01*
X195748815Y-69348815D01*
X195669463Y-69445506D01*
X195610498Y-69555820D01*
X195574188Y-69675518D01*
X195561928Y-69800000D01*
X195561928Y-70365001D01*
X191938072Y-70365001D01*
X191938072Y-69800000D01*
X191925812Y-69675518D01*
X191889502Y-69555820D01*
X191830537Y-69445506D01*
X191815042Y-69426625D01*
X191854494Y-69405537D01*
X191951185Y-69326185D01*
X192000000Y-69266704D01*
X192048815Y-69326185D01*
X192145506Y-69405537D01*
X192255820Y-69464502D01*
X192375518Y-69500812D01*
X192500000Y-69513072D01*
X192714250Y-69510000D01*
X192873000Y-69351250D01*
X192873000Y-68377000D01*
X193127000Y-68377000D01*
X193127000Y-69351250D01*
X193285750Y-69510000D01*
X193500000Y-69513072D01*
X193624482Y-69500812D01*
X193744180Y-69464502D01*
X193854494Y-69405537D01*
X193951185Y-69326185D01*
X194030537Y-69229494D01*
X194089502Y-69119180D01*
X194125812Y-68999482D01*
X194138072Y-68875000D01*
X194135000Y-68535750D01*
X193976250Y-68377000D01*
X193127000Y-68377000D01*
X192873000Y-68377000D01*
X192853000Y-68377000D01*
X192853000Y-68210000D01*
X199965000Y-68210000D01*
X199965000Y-68351939D01*
X199965000Y-68351939D01*
G37*
X199965000Y-68351939D02*
X200004774Y-68551898D01*
X200082795Y-68740256D01*
X200196063Y-68909774D01*
X200340226Y-69053937D01*
X200509744Y-69167205D01*
X200698102Y-69245226D01*
X200840520Y-69273555D01*
X200748815Y-69348815D01*
X200669463Y-69445506D01*
X200610498Y-69555820D01*
X200574188Y-69675518D01*
X200561928Y-69800000D01*
X200561928Y-70365001D01*
X199189803Y-70365001D01*
X198613803Y-69789002D01*
X198590001Y-69759999D01*
X198474276Y-69665026D01*
X198412634Y-69632077D01*
X198389502Y-69555820D01*
X198330537Y-69445506D01*
X198251185Y-69348815D01*
X198154494Y-69269463D01*
X198044180Y-69210498D01*
X197924482Y-69174188D01*
X197800000Y-69161928D01*
X196200000Y-69161928D01*
X196075518Y-69174188D01*
X195955820Y-69210498D01*
X195845506Y-69269463D01*
X195748815Y-69348815D01*
X195669463Y-69445506D01*
X195610498Y-69555820D01*
X195574188Y-69675518D01*
X195561928Y-69800000D01*
X195561928Y-70365001D01*
X191938072Y-70365001D01*
X191938072Y-69800000D01*
X191925812Y-69675518D01*
X191889502Y-69555820D01*
X191830537Y-69445506D01*
X191815042Y-69426625D01*
X191854494Y-69405537D01*
X191951185Y-69326185D01*
X192000000Y-69266704D01*
X192048815Y-69326185D01*
X192145506Y-69405537D01*
X192255820Y-69464502D01*
X192375518Y-69500812D01*
X192500000Y-69513072D01*
X192714250Y-69510000D01*
X192873000Y-69351250D01*
X192873000Y-68377000D01*
X193127000Y-68377000D01*
X193127000Y-69351250D01*
X193285750Y-69510000D01*
X193500000Y-69513072D01*
X193624482Y-69500812D01*
X193744180Y-69464502D01*
X193854494Y-69405537D01*
X193951185Y-69326185D01*
X194030537Y-69229494D01*
X194089502Y-69119180D01*
X194125812Y-68999482D01*
X194138072Y-68875000D01*
X194135000Y-68535750D01*
X193976250Y-68377000D01*
X193127000Y-68377000D01*
X192873000Y-68377000D01*
X192853000Y-68377000D01*
X192853000Y-68210000D01*
X199965000Y-68210000D01*
X199965000Y-68351939D01*
G36*
X188215000Y-68351939D02*
G01*
X188254774Y-68551898D01*
X188332795Y-68740256D01*
X188446063Y-68909774D01*
X188590226Y-69053937D01*
X188759744Y-69167205D01*
X188948102Y-69245226D01*
X189148061Y-69285000D01*
X189326574Y-69285000D01*
X189248815Y-69348815D01*
X189169463Y-69445506D01*
X189110498Y-69555820D01*
X189074188Y-69675518D01*
X189061928Y-69800000D01*
X189061928Y-70365001D01*
X187689803Y-70365001D01*
X187113803Y-69789002D01*
X187090001Y-69759999D01*
X186974276Y-69665026D01*
X186912634Y-69632077D01*
X186889502Y-69555820D01*
X186830537Y-69445506D01*
X186751185Y-69348815D01*
X186654494Y-69269463D01*
X186544180Y-69210498D01*
X186424482Y-69174188D01*
X186300000Y-69161928D01*
X184700000Y-69161928D01*
X184575518Y-69174188D01*
X184455820Y-69210498D01*
X184345506Y-69269463D01*
X184248815Y-69348815D01*
X184169463Y-69445506D01*
X184110498Y-69555820D01*
X184074188Y-69675518D01*
X184061928Y-69800000D01*
X184061928Y-70365001D01*
X180438072Y-70365001D01*
X180438072Y-69800000D01*
X180425812Y-69675518D01*
X180389502Y-69555820D01*
X180330537Y-69445506D01*
X180315042Y-69426625D01*
X180354494Y-69405537D01*
X180451185Y-69326185D01*
X180500000Y-69266704D01*
X180548815Y-69326185D01*
X180645506Y-69405537D01*
X180755820Y-69464502D01*
X180875518Y-69500812D01*
X181000000Y-69513072D01*
X181214250Y-69510000D01*
X181373000Y-69351250D01*
X181373000Y-68377000D01*
X181627000Y-68377000D01*
X181627000Y-69351250D01*
X181785750Y-69510000D01*
X182000000Y-69513072D01*
X182124482Y-69500812D01*
X182244180Y-69464502D01*
X182354494Y-69405537D01*
X182451185Y-69326185D01*
X182530537Y-69229494D01*
X182589502Y-69119180D01*
X182625812Y-68999482D01*
X182638072Y-68875000D01*
X182635000Y-68535750D01*
X182476250Y-68377000D01*
X181627000Y-68377000D01*
X181373000Y-68377000D01*
X181353000Y-68377000D01*
X181353000Y-68210000D01*
X188215000Y-68210000D01*
X188215000Y-68351939D01*
X188215000Y-68351939D01*
G37*
X188215000Y-68351939D02*
X188254774Y-68551898D01*
X188332795Y-68740256D01*
X188446063Y-68909774D01*
X188590226Y-69053937D01*
X188759744Y-69167205D01*
X188948102Y-69245226D01*
X189148061Y-69285000D01*
X189326574Y-69285000D01*
X189248815Y-69348815D01*
X189169463Y-69445506D01*
X189110498Y-69555820D01*
X189074188Y-69675518D01*
X189061928Y-69800000D01*
X189061928Y-70365001D01*
X187689803Y-70365001D01*
X187113803Y-69789002D01*
X187090001Y-69759999D01*
X186974276Y-69665026D01*
X186912634Y-69632077D01*
X186889502Y-69555820D01*
X186830537Y-69445506D01*
X186751185Y-69348815D01*
X186654494Y-69269463D01*
X186544180Y-69210498D01*
X186424482Y-69174188D01*
X186300000Y-69161928D01*
X184700000Y-69161928D01*
X184575518Y-69174188D01*
X184455820Y-69210498D01*
X184345506Y-69269463D01*
X184248815Y-69348815D01*
X184169463Y-69445506D01*
X184110498Y-69555820D01*
X184074188Y-69675518D01*
X184061928Y-69800000D01*
X184061928Y-70365001D01*
X180438072Y-70365001D01*
X180438072Y-69800000D01*
X180425812Y-69675518D01*
X180389502Y-69555820D01*
X180330537Y-69445506D01*
X180315042Y-69426625D01*
X180354494Y-69405537D01*
X180451185Y-69326185D01*
X180500000Y-69266704D01*
X180548815Y-69326185D01*
X180645506Y-69405537D01*
X180755820Y-69464502D01*
X180875518Y-69500812D01*
X181000000Y-69513072D01*
X181214250Y-69510000D01*
X181373000Y-69351250D01*
X181373000Y-68377000D01*
X181627000Y-68377000D01*
X181627000Y-69351250D01*
X181785750Y-69510000D01*
X182000000Y-69513072D01*
X182124482Y-69500812D01*
X182244180Y-69464502D01*
X182354494Y-69405537D01*
X182451185Y-69326185D01*
X182530537Y-69229494D01*
X182589502Y-69119180D01*
X182625812Y-68999482D01*
X182638072Y-68875000D01*
X182635000Y-68535750D01*
X182476250Y-68377000D01*
X181627000Y-68377000D01*
X181373000Y-68377000D01*
X181353000Y-68377000D01*
X181353000Y-68210000D01*
X188215000Y-68210000D01*
X188215000Y-68351939D01*
M02*
