G04 #@! TF.GenerationSoftware,KiCad,Pcbnew,5.1.0*
G04 #@! TF.CreationDate,2019-04-02T23:30:48-05:00*
G04 #@! TF.ProjectId,Cluster,436c7573-7465-4722-9e6b-696361645f70,rev?*
G04 #@! TF.SameCoordinates,Original*
G04 #@! TF.FileFunction,Soldermask,Top*
G04 #@! TF.FilePolarity,Negative*
%FSLAX46Y46*%
G04 Gerber Fmt 4.6, Leading zero omitted, Abs format (unit mm)*
G04 Created by KiCad (PCBNEW 5.1.0) date 2019-04-02 23:30:48*
%MOMM*%
%LPD*%
G04 APERTURE LIST*
%ADD10C,0.100000*%
G04 APERTURE END LIST*
D10*
G36*
X178467640Y-101780000D02*
G01*
X179080000Y-101780000D01*
X179080000Y-102218797D01*
X178467640Y-102218797D01*
X178467640Y-101780000D01*
G37*
G36*
X178468000Y-102280000D02*
G01*
X179080000Y-102280000D01*
X179080000Y-102719635D01*
X178468000Y-102719635D01*
X178468000Y-102280000D01*
G37*
G36*
X178467830Y-102780000D02*
G01*
X179080000Y-102780000D01*
X179080000Y-103220313D01*
X178467830Y-103220313D01*
X178467830Y-102780000D01*
G37*
G36*
X178468260Y-103280000D02*
G01*
X179080000Y-103280000D01*
X179080000Y-103720817D01*
X178468260Y-103720817D01*
X178468260Y-103280000D01*
G37*
G36*
X178469140Y-103780000D02*
G01*
X179080000Y-103780000D01*
X179080000Y-104220680D01*
X178469140Y-104220680D01*
X178469140Y-103780000D01*
G37*
G36*
X181530000Y-103720259D02*
G01*
X180920331Y-103720259D01*
X180920331Y-103280000D01*
X181530000Y-103280000D01*
X181530000Y-103720259D01*
G37*
G36*
X181530000Y-103220377D02*
G01*
X180921578Y-103220377D01*
X180921578Y-102780000D01*
X181530000Y-102780000D01*
X181530000Y-103220377D01*
G37*
G36*
X181530000Y-102719712D02*
G01*
X180920945Y-102719712D01*
X180920945Y-102280000D01*
X181530000Y-102280000D01*
X181530000Y-102719712D01*
G37*
G36*
X181530000Y-102219927D02*
G01*
X180920086Y-102219927D01*
X180920086Y-101780000D01*
X181530000Y-101780000D01*
X181530000Y-102219927D01*
G37*
G36*
X181530000Y-104221920D02*
G01*
X180921448Y-104221920D01*
X180921448Y-103780000D01*
X181530000Y-103780000D01*
X181530000Y-104221920D01*
G37*
G36*
X180279818Y-104530180D02*
G01*
X180279818Y-103920238D01*
X180720239Y-103920238D01*
X180720239Y-104530180D01*
X180279818Y-104530180D01*
G37*
G36*
X179779291Y-104530710D02*
G01*
X179779291Y-103920461D01*
X180220461Y-103920461D01*
X180220461Y-104530710D01*
X179779291Y-104530710D01*
G37*
G36*
X179279697Y-104530300D02*
G01*
X179279697Y-103920086D01*
X179720086Y-103920086D01*
X179720086Y-104530300D01*
X179279697Y-104530300D01*
G37*
G36*
X180719952Y-101469950D02*
G01*
X180719952Y-102079929D01*
X180280071Y-102079928D01*
X180280072Y-101469950D01*
X180719952Y-101469950D01*
G37*
G36*
X180219609Y-101469610D02*
G01*
X180219608Y-102079792D01*
X179780208Y-102079791D01*
X179780209Y-101469610D01*
X180219609Y-101469610D01*
G37*
G36*
X179719578Y-101469580D02*
G01*
X179719577Y-102079952D01*
X179280048Y-102079952D01*
X179280048Y-101469580D01*
X179719578Y-101469580D01*
G37*
G36*
X241468412Y-135645135D02*
G01*
X241700346Y-135691269D01*
X242137300Y-135872262D01*
X242530548Y-136135022D01*
X242864978Y-136469452D01*
X243127738Y-136862700D01*
X243308731Y-137299654D01*
X243401000Y-137763522D01*
X243401000Y-138236478D01*
X243308731Y-138700346D01*
X243127738Y-139137300D01*
X242864978Y-139530548D01*
X242530548Y-139864978D01*
X242137300Y-140127738D01*
X241700346Y-140308731D01*
X241468412Y-140354866D01*
X241236479Y-140401000D01*
X240763521Y-140401000D01*
X240531588Y-140354866D01*
X240299654Y-140308731D01*
X239862700Y-140127738D01*
X239469452Y-139864978D01*
X239135022Y-139530548D01*
X238872262Y-139137300D01*
X238691269Y-138700346D01*
X238599000Y-138236478D01*
X238599000Y-137763522D01*
X238691269Y-137299654D01*
X238872262Y-136862700D01*
X239135022Y-136469452D01*
X239469452Y-136135022D01*
X239862700Y-135872262D01*
X240299654Y-135691269D01*
X240531588Y-135645135D01*
X240763521Y-135599000D01*
X241236479Y-135599000D01*
X241468412Y-135645135D01*
X241468412Y-135645135D01*
G37*
G36*
X147968412Y-135645135D02*
G01*
X148200346Y-135691269D01*
X148637300Y-135872262D01*
X149030548Y-136135022D01*
X149364978Y-136469452D01*
X149627738Y-136862700D01*
X149808731Y-137299654D01*
X149901000Y-137763522D01*
X149901000Y-138236478D01*
X149808731Y-138700346D01*
X149627738Y-139137300D01*
X149364978Y-139530548D01*
X149030548Y-139864978D01*
X148637300Y-140127738D01*
X148200346Y-140308731D01*
X147968412Y-140354866D01*
X147736479Y-140401000D01*
X147263521Y-140401000D01*
X147031588Y-140354866D01*
X146799654Y-140308731D01*
X146362700Y-140127738D01*
X145969452Y-139864978D01*
X145635022Y-139530548D01*
X145372262Y-139137300D01*
X145191269Y-138700346D01*
X145099000Y-138236478D01*
X145099000Y-137763522D01*
X145191269Y-137299654D01*
X145372262Y-136862700D01*
X145635022Y-136469452D01*
X145969452Y-136135022D01*
X146362700Y-135872262D01*
X146799654Y-135691269D01*
X147031588Y-135645135D01*
X147263521Y-135599000D01*
X147736479Y-135599000D01*
X147968412Y-135645135D01*
X147968412Y-135645135D01*
G37*
G36*
X230551000Y-134551000D02*
G01*
X222449000Y-134551000D01*
X222449000Y-126449000D01*
X230551000Y-126449000D01*
X230551000Y-134551000D01*
X230551000Y-134551000D01*
G37*
G36*
X214251000Y-133301000D02*
G01*
X208149000Y-133301000D01*
X208149000Y-127699000D01*
X214251000Y-127699000D01*
X214251000Y-133301000D01*
X214251000Y-133301000D01*
G37*
G36*
X244851000Y-133301000D02*
G01*
X238749000Y-133301000D01*
X238749000Y-127699000D01*
X244851000Y-127699000D01*
X244851000Y-133301000D01*
X244851000Y-133301000D01*
G37*
G36*
X164350318Y-130845153D02*
G01*
X164568885Y-130935687D01*
X164568887Y-130935688D01*
X164765593Y-131067122D01*
X164932878Y-131234407D01*
X165064312Y-131431113D01*
X165064313Y-131431115D01*
X165154847Y-131649682D01*
X165201000Y-131881710D01*
X165201000Y-132118290D01*
X165154847Y-132350318D01*
X165064313Y-132568885D01*
X165064312Y-132568887D01*
X164932878Y-132765593D01*
X164765593Y-132932878D01*
X164568887Y-133064312D01*
X164568886Y-133064313D01*
X164568885Y-133064313D01*
X164350318Y-133154847D01*
X164118290Y-133201000D01*
X163881710Y-133201000D01*
X163649682Y-133154847D01*
X163431115Y-133064313D01*
X163431114Y-133064313D01*
X163431113Y-133064312D01*
X163234407Y-132932878D01*
X163067122Y-132765593D01*
X162935688Y-132568887D01*
X162935687Y-132568885D01*
X162845153Y-132350318D01*
X162799000Y-132118290D01*
X162799000Y-131881710D01*
X162845153Y-131649682D01*
X162935687Y-131431115D01*
X162935688Y-131431113D01*
X163067122Y-131234407D01*
X163234407Y-131067122D01*
X163431113Y-130935688D01*
X163431115Y-130935687D01*
X163649682Y-130845153D01*
X163881710Y-130799000D01*
X164118290Y-130799000D01*
X164350318Y-130845153D01*
X164350318Y-130845153D01*
G37*
G36*
X205201000Y-133201000D02*
G01*
X202799000Y-133201000D01*
X202799000Y-130799000D01*
X205201000Y-130799000D01*
X205201000Y-133201000D01*
X205201000Y-133201000D01*
G37*
G36*
X149350318Y-130845153D02*
G01*
X149568885Y-130935687D01*
X149568887Y-130935688D01*
X149765593Y-131067122D01*
X149932878Y-131234407D01*
X150064312Y-131431113D01*
X150064313Y-131431115D01*
X150154847Y-131649682D01*
X150201000Y-131881710D01*
X150201000Y-132118290D01*
X150154847Y-132350318D01*
X150064313Y-132568885D01*
X150064312Y-132568887D01*
X149932878Y-132765593D01*
X149765593Y-132932878D01*
X149568887Y-133064312D01*
X149568886Y-133064313D01*
X149568885Y-133064313D01*
X149350318Y-133154847D01*
X149118290Y-133201000D01*
X148881710Y-133201000D01*
X148649682Y-133154847D01*
X148431115Y-133064313D01*
X148431114Y-133064313D01*
X148431113Y-133064312D01*
X148234407Y-132932878D01*
X148067122Y-132765593D01*
X147935688Y-132568887D01*
X147935687Y-132568885D01*
X147845153Y-132350318D01*
X147799000Y-132118290D01*
X147799000Y-131881710D01*
X147845153Y-131649682D01*
X147935687Y-131431115D01*
X147935688Y-131431113D01*
X148067122Y-131234407D01*
X148234407Y-131067122D01*
X148431113Y-130935688D01*
X148431115Y-130935687D01*
X148649682Y-130845153D01*
X148881710Y-130799000D01*
X149118290Y-130799000D01*
X149350318Y-130845153D01*
X149350318Y-130845153D01*
G37*
G36*
X154350318Y-130845153D02*
G01*
X154568885Y-130935687D01*
X154568887Y-130935688D01*
X154765593Y-131067122D01*
X154932878Y-131234407D01*
X155064312Y-131431113D01*
X155064313Y-131431115D01*
X155154847Y-131649682D01*
X155201000Y-131881710D01*
X155201000Y-132118290D01*
X155154847Y-132350318D01*
X155064313Y-132568885D01*
X155064312Y-132568887D01*
X154932878Y-132765593D01*
X154765593Y-132932878D01*
X154568887Y-133064312D01*
X154568886Y-133064313D01*
X154568885Y-133064313D01*
X154350318Y-133154847D01*
X154118290Y-133201000D01*
X153881710Y-133201000D01*
X153649682Y-133154847D01*
X153431115Y-133064313D01*
X153431114Y-133064313D01*
X153431113Y-133064312D01*
X153234407Y-132932878D01*
X153067122Y-132765593D01*
X152935688Y-132568887D01*
X152935687Y-132568885D01*
X152845153Y-132350318D01*
X152799000Y-132118290D01*
X152799000Y-131881710D01*
X152845153Y-131649682D01*
X152935687Y-131431115D01*
X152935688Y-131431113D01*
X153067122Y-131234407D01*
X153234407Y-131067122D01*
X153431113Y-130935688D01*
X153431115Y-130935687D01*
X153649682Y-130845153D01*
X153881710Y-130799000D01*
X154118290Y-130799000D01*
X154350318Y-130845153D01*
X154350318Y-130845153D01*
G37*
G36*
X159350318Y-130845153D02*
G01*
X159568885Y-130935687D01*
X159568887Y-130935688D01*
X159765593Y-131067122D01*
X159932878Y-131234407D01*
X160064312Y-131431113D01*
X160064313Y-131431115D01*
X160154847Y-131649682D01*
X160201000Y-131881710D01*
X160201000Y-132118290D01*
X160154847Y-132350318D01*
X160064313Y-132568885D01*
X160064312Y-132568887D01*
X159932878Y-132765593D01*
X159765593Y-132932878D01*
X159568887Y-133064312D01*
X159568886Y-133064313D01*
X159568885Y-133064313D01*
X159350318Y-133154847D01*
X159118290Y-133201000D01*
X158881710Y-133201000D01*
X158649682Y-133154847D01*
X158431115Y-133064313D01*
X158431114Y-133064313D01*
X158431113Y-133064312D01*
X158234407Y-132932878D01*
X158067122Y-132765593D01*
X157935688Y-132568887D01*
X157935687Y-132568885D01*
X157845153Y-132350318D01*
X157799000Y-132118290D01*
X157799000Y-131881710D01*
X157845153Y-131649682D01*
X157935687Y-131431115D01*
X157935688Y-131431113D01*
X158067122Y-131234407D01*
X158234407Y-131067122D01*
X158431113Y-130935688D01*
X158431115Y-130935687D01*
X158649682Y-130845153D01*
X158881710Y-130799000D01*
X159118290Y-130799000D01*
X159350318Y-130845153D01*
X159350318Y-130845153D01*
G37*
G36*
X199350318Y-130845153D02*
G01*
X199568885Y-130935687D01*
X199568887Y-130935688D01*
X199765593Y-131067122D01*
X199932878Y-131234407D01*
X200064312Y-131431113D01*
X200064313Y-131431115D01*
X200154847Y-131649682D01*
X200201000Y-131881710D01*
X200201000Y-132118290D01*
X200154847Y-132350318D01*
X200064313Y-132568885D01*
X200064312Y-132568887D01*
X199932878Y-132765593D01*
X199765593Y-132932878D01*
X199568887Y-133064312D01*
X199568886Y-133064313D01*
X199568885Y-133064313D01*
X199350318Y-133154847D01*
X199118290Y-133201000D01*
X198881710Y-133201000D01*
X198649682Y-133154847D01*
X198431115Y-133064313D01*
X198431114Y-133064313D01*
X198431113Y-133064312D01*
X198234407Y-132932878D01*
X198067122Y-132765593D01*
X197935688Y-132568887D01*
X197935687Y-132568885D01*
X197845153Y-132350318D01*
X197799000Y-132118290D01*
X197799000Y-131881710D01*
X197845153Y-131649682D01*
X197935687Y-131431115D01*
X197935688Y-131431113D01*
X198067122Y-131234407D01*
X198234407Y-131067122D01*
X198431113Y-130935688D01*
X198431115Y-130935687D01*
X198649682Y-130845153D01*
X198881710Y-130799000D01*
X199118290Y-130799000D01*
X199350318Y-130845153D01*
X199350318Y-130845153D01*
G37*
G36*
X194350318Y-130845153D02*
G01*
X194568885Y-130935687D01*
X194568887Y-130935688D01*
X194765593Y-131067122D01*
X194932878Y-131234407D01*
X195064312Y-131431113D01*
X195064313Y-131431115D01*
X195154847Y-131649682D01*
X195201000Y-131881710D01*
X195201000Y-132118290D01*
X195154847Y-132350318D01*
X195064313Y-132568885D01*
X195064312Y-132568887D01*
X194932878Y-132765593D01*
X194765593Y-132932878D01*
X194568887Y-133064312D01*
X194568886Y-133064313D01*
X194568885Y-133064313D01*
X194350318Y-133154847D01*
X194118290Y-133201000D01*
X193881710Y-133201000D01*
X193649682Y-133154847D01*
X193431115Y-133064313D01*
X193431114Y-133064313D01*
X193431113Y-133064312D01*
X193234407Y-132932878D01*
X193067122Y-132765593D01*
X192935688Y-132568887D01*
X192935687Y-132568885D01*
X192845153Y-132350318D01*
X192799000Y-132118290D01*
X192799000Y-131881710D01*
X192845153Y-131649682D01*
X192935687Y-131431115D01*
X192935688Y-131431113D01*
X193067122Y-131234407D01*
X193234407Y-131067122D01*
X193431113Y-130935688D01*
X193431115Y-130935687D01*
X193649682Y-130845153D01*
X193881710Y-130799000D01*
X194118290Y-130799000D01*
X194350318Y-130845153D01*
X194350318Y-130845153D01*
G37*
G36*
X189350318Y-130845153D02*
G01*
X189568885Y-130935687D01*
X189568887Y-130935688D01*
X189765593Y-131067122D01*
X189932878Y-131234407D01*
X190064312Y-131431113D01*
X190064313Y-131431115D01*
X190154847Y-131649682D01*
X190201000Y-131881710D01*
X190201000Y-132118290D01*
X190154847Y-132350318D01*
X190064313Y-132568885D01*
X190064312Y-132568887D01*
X189932878Y-132765593D01*
X189765593Y-132932878D01*
X189568887Y-133064312D01*
X189568886Y-133064313D01*
X189568885Y-133064313D01*
X189350318Y-133154847D01*
X189118290Y-133201000D01*
X188881710Y-133201000D01*
X188649682Y-133154847D01*
X188431115Y-133064313D01*
X188431114Y-133064313D01*
X188431113Y-133064312D01*
X188234407Y-132932878D01*
X188067122Y-132765593D01*
X187935688Y-132568887D01*
X187935687Y-132568885D01*
X187845153Y-132350318D01*
X187799000Y-132118290D01*
X187799000Y-131881710D01*
X187845153Y-131649682D01*
X187935687Y-131431115D01*
X187935688Y-131431113D01*
X188067122Y-131234407D01*
X188234407Y-131067122D01*
X188431113Y-130935688D01*
X188431115Y-130935687D01*
X188649682Y-130845153D01*
X188881710Y-130799000D01*
X189118290Y-130799000D01*
X189350318Y-130845153D01*
X189350318Y-130845153D01*
G37*
G36*
X184350318Y-130845153D02*
G01*
X184568885Y-130935687D01*
X184568887Y-130935688D01*
X184765593Y-131067122D01*
X184932878Y-131234407D01*
X185064312Y-131431113D01*
X185064313Y-131431115D01*
X185154847Y-131649682D01*
X185201000Y-131881710D01*
X185201000Y-132118290D01*
X185154847Y-132350318D01*
X185064313Y-132568885D01*
X185064312Y-132568887D01*
X184932878Y-132765593D01*
X184765593Y-132932878D01*
X184568887Y-133064312D01*
X184568886Y-133064313D01*
X184568885Y-133064313D01*
X184350318Y-133154847D01*
X184118290Y-133201000D01*
X183881710Y-133201000D01*
X183649682Y-133154847D01*
X183431115Y-133064313D01*
X183431114Y-133064313D01*
X183431113Y-133064312D01*
X183234407Y-132932878D01*
X183067122Y-132765593D01*
X182935688Y-132568887D01*
X182935687Y-132568885D01*
X182845153Y-132350318D01*
X182799000Y-132118290D01*
X182799000Y-131881710D01*
X182845153Y-131649682D01*
X182935687Y-131431115D01*
X182935688Y-131431113D01*
X183067122Y-131234407D01*
X183234407Y-131067122D01*
X183431113Y-130935688D01*
X183431115Y-130935687D01*
X183649682Y-130845153D01*
X183881710Y-130799000D01*
X184118290Y-130799000D01*
X184350318Y-130845153D01*
X184350318Y-130845153D01*
G37*
G36*
X179350318Y-130845153D02*
G01*
X179568885Y-130935687D01*
X179568887Y-130935688D01*
X179765593Y-131067122D01*
X179932878Y-131234407D01*
X180064312Y-131431113D01*
X180064313Y-131431115D01*
X180154847Y-131649682D01*
X180201000Y-131881710D01*
X180201000Y-132118290D01*
X180154847Y-132350318D01*
X180064313Y-132568885D01*
X180064312Y-132568887D01*
X179932878Y-132765593D01*
X179765593Y-132932878D01*
X179568887Y-133064312D01*
X179568886Y-133064313D01*
X179568885Y-133064313D01*
X179350318Y-133154847D01*
X179118290Y-133201000D01*
X178881710Y-133201000D01*
X178649682Y-133154847D01*
X178431115Y-133064313D01*
X178431114Y-133064313D01*
X178431113Y-133064312D01*
X178234407Y-132932878D01*
X178067122Y-132765593D01*
X177935688Y-132568887D01*
X177935687Y-132568885D01*
X177845153Y-132350318D01*
X177799000Y-132118290D01*
X177799000Y-131881710D01*
X177845153Y-131649682D01*
X177935687Y-131431115D01*
X177935688Y-131431113D01*
X178067122Y-131234407D01*
X178234407Y-131067122D01*
X178431113Y-130935688D01*
X178431115Y-130935687D01*
X178649682Y-130845153D01*
X178881710Y-130799000D01*
X179118290Y-130799000D01*
X179350318Y-130845153D01*
X179350318Y-130845153D01*
G37*
G36*
X174350318Y-130845153D02*
G01*
X174568885Y-130935687D01*
X174568887Y-130935688D01*
X174765593Y-131067122D01*
X174932878Y-131234407D01*
X175064312Y-131431113D01*
X175064313Y-131431115D01*
X175154847Y-131649682D01*
X175201000Y-131881710D01*
X175201000Y-132118290D01*
X175154847Y-132350318D01*
X175064313Y-132568885D01*
X175064312Y-132568887D01*
X174932878Y-132765593D01*
X174765593Y-132932878D01*
X174568887Y-133064312D01*
X174568886Y-133064313D01*
X174568885Y-133064313D01*
X174350318Y-133154847D01*
X174118290Y-133201000D01*
X173881710Y-133201000D01*
X173649682Y-133154847D01*
X173431115Y-133064313D01*
X173431114Y-133064313D01*
X173431113Y-133064312D01*
X173234407Y-132932878D01*
X173067122Y-132765593D01*
X172935688Y-132568887D01*
X172935687Y-132568885D01*
X172845153Y-132350318D01*
X172799000Y-132118290D01*
X172799000Y-131881710D01*
X172845153Y-131649682D01*
X172935687Y-131431115D01*
X172935688Y-131431113D01*
X173067122Y-131234407D01*
X173234407Y-131067122D01*
X173431113Y-130935688D01*
X173431115Y-130935687D01*
X173649682Y-130845153D01*
X173881710Y-130799000D01*
X174118290Y-130799000D01*
X174350318Y-130845153D01*
X174350318Y-130845153D01*
G37*
G36*
X169350318Y-130845153D02*
G01*
X169568885Y-130935687D01*
X169568887Y-130935688D01*
X169765593Y-131067122D01*
X169932878Y-131234407D01*
X170064312Y-131431113D01*
X170064313Y-131431115D01*
X170154847Y-131649682D01*
X170201000Y-131881710D01*
X170201000Y-132118290D01*
X170154847Y-132350318D01*
X170064313Y-132568885D01*
X170064312Y-132568887D01*
X169932878Y-132765593D01*
X169765593Y-132932878D01*
X169568887Y-133064312D01*
X169568886Y-133064313D01*
X169568885Y-133064313D01*
X169350318Y-133154847D01*
X169118290Y-133201000D01*
X168881710Y-133201000D01*
X168649682Y-133154847D01*
X168431115Y-133064313D01*
X168431114Y-133064313D01*
X168431113Y-133064312D01*
X168234407Y-132932878D01*
X168067122Y-132765593D01*
X167935688Y-132568887D01*
X167935687Y-132568885D01*
X167845153Y-132350318D01*
X167799000Y-132118290D01*
X167799000Y-131881710D01*
X167845153Y-131649682D01*
X167935687Y-131431115D01*
X167935688Y-131431113D01*
X168067122Y-131234407D01*
X168234407Y-131067122D01*
X168431113Y-130935688D01*
X168431115Y-130935687D01*
X168649682Y-130845153D01*
X168881710Y-130799000D01*
X169118290Y-130799000D01*
X169350318Y-130845153D01*
X169350318Y-130845153D01*
G37*
G36*
X159110443Y-124605519D02*
G01*
X159176627Y-124612037D01*
X159346466Y-124663557D01*
X159502991Y-124747222D01*
X159538729Y-124776552D01*
X159640186Y-124859814D01*
X159723448Y-124961271D01*
X159752778Y-124997009D01*
X159836443Y-125153534D01*
X159887963Y-125323373D01*
X159905359Y-125500000D01*
X159887963Y-125676627D01*
X159836443Y-125846466D01*
X159752778Y-126002991D01*
X159723448Y-126038729D01*
X159640186Y-126140186D01*
X159538729Y-126223448D01*
X159502991Y-126252778D01*
X159346466Y-126336443D01*
X159176627Y-126387963D01*
X159110443Y-126394481D01*
X159044260Y-126401000D01*
X158955740Y-126401000D01*
X158889557Y-126394481D01*
X158823373Y-126387963D01*
X158653534Y-126336443D01*
X158497009Y-126252778D01*
X158461271Y-126223448D01*
X158359814Y-126140186D01*
X158276552Y-126038729D01*
X158247222Y-126002991D01*
X158163557Y-125846466D01*
X158112037Y-125676627D01*
X158094641Y-125500000D01*
X158112037Y-125323373D01*
X158163557Y-125153534D01*
X158247222Y-124997009D01*
X158276552Y-124961271D01*
X158359814Y-124859814D01*
X158461271Y-124776552D01*
X158497009Y-124747222D01*
X158653534Y-124663557D01*
X158823373Y-124612037D01*
X158889557Y-124605519D01*
X158955740Y-124599000D01*
X159044260Y-124599000D01*
X159110443Y-124605519D01*
X159110443Y-124605519D01*
G37*
G36*
X149741000Y-126401000D02*
G01*
X147939000Y-126401000D01*
X147939000Y-124599000D01*
X149741000Y-124599000D01*
X149741000Y-126401000D01*
X149741000Y-126401000D01*
G37*
G36*
X154030443Y-124605519D02*
G01*
X154096627Y-124612037D01*
X154266466Y-124663557D01*
X154422991Y-124747222D01*
X154458729Y-124776552D01*
X154560186Y-124859814D01*
X154643448Y-124961271D01*
X154672778Y-124997009D01*
X154756443Y-125153534D01*
X154807963Y-125323373D01*
X154825359Y-125500000D01*
X154807963Y-125676627D01*
X154756443Y-125846466D01*
X154672778Y-126002991D01*
X154643448Y-126038729D01*
X154560186Y-126140186D01*
X154458729Y-126223448D01*
X154422991Y-126252778D01*
X154266466Y-126336443D01*
X154096627Y-126387963D01*
X154030443Y-126394481D01*
X153964260Y-126401000D01*
X153875740Y-126401000D01*
X153809557Y-126394481D01*
X153743373Y-126387963D01*
X153573534Y-126336443D01*
X153417009Y-126252778D01*
X153381271Y-126223448D01*
X153279814Y-126140186D01*
X153196552Y-126038729D01*
X153167222Y-126002991D01*
X153083557Y-125846466D01*
X153032037Y-125676627D01*
X153014641Y-125500000D01*
X153032037Y-125323373D01*
X153083557Y-125153534D01*
X153167222Y-124997009D01*
X153196552Y-124961271D01*
X153279814Y-124859814D01*
X153381271Y-124776552D01*
X153417009Y-124747222D01*
X153573534Y-124663557D01*
X153743373Y-124612037D01*
X153809557Y-124605519D01*
X153875740Y-124599000D01*
X153964260Y-124599000D01*
X154030443Y-124605519D01*
X154030443Y-124605519D01*
G37*
G36*
X156570443Y-124605519D02*
G01*
X156636627Y-124612037D01*
X156806466Y-124663557D01*
X156962991Y-124747222D01*
X156998729Y-124776552D01*
X157100186Y-124859814D01*
X157183448Y-124961271D01*
X157212778Y-124997009D01*
X157296443Y-125153534D01*
X157347963Y-125323373D01*
X157365359Y-125500000D01*
X157347963Y-125676627D01*
X157296443Y-125846466D01*
X157212778Y-126002991D01*
X157183448Y-126038729D01*
X157100186Y-126140186D01*
X156998729Y-126223448D01*
X156962991Y-126252778D01*
X156806466Y-126336443D01*
X156636627Y-126387963D01*
X156570443Y-126394481D01*
X156504260Y-126401000D01*
X156415740Y-126401000D01*
X156349557Y-126394481D01*
X156283373Y-126387963D01*
X156113534Y-126336443D01*
X155957009Y-126252778D01*
X155921271Y-126223448D01*
X155819814Y-126140186D01*
X155736552Y-126038729D01*
X155707222Y-126002991D01*
X155623557Y-125846466D01*
X155572037Y-125676627D01*
X155554641Y-125500000D01*
X155572037Y-125323373D01*
X155623557Y-125153534D01*
X155707222Y-124997009D01*
X155736552Y-124961271D01*
X155819814Y-124859814D01*
X155921271Y-124776552D01*
X155957009Y-124747222D01*
X156113534Y-124663557D01*
X156283373Y-124612037D01*
X156349557Y-124605519D01*
X156415740Y-124599000D01*
X156504260Y-124599000D01*
X156570443Y-124605519D01*
X156570443Y-124605519D01*
G37*
G36*
X164190443Y-124605519D02*
G01*
X164256627Y-124612037D01*
X164426466Y-124663557D01*
X164582991Y-124747222D01*
X164618729Y-124776552D01*
X164720186Y-124859814D01*
X164803448Y-124961271D01*
X164832778Y-124997009D01*
X164916443Y-125153534D01*
X164967963Y-125323373D01*
X164985359Y-125500000D01*
X164967963Y-125676627D01*
X164916443Y-125846466D01*
X164832778Y-126002991D01*
X164803448Y-126038729D01*
X164720186Y-126140186D01*
X164618729Y-126223448D01*
X164582991Y-126252778D01*
X164426466Y-126336443D01*
X164256627Y-126387963D01*
X164190443Y-126394481D01*
X164124260Y-126401000D01*
X164035740Y-126401000D01*
X163969557Y-126394481D01*
X163903373Y-126387963D01*
X163733534Y-126336443D01*
X163577009Y-126252778D01*
X163541271Y-126223448D01*
X163439814Y-126140186D01*
X163356552Y-126038729D01*
X163327222Y-126002991D01*
X163243557Y-125846466D01*
X163192037Y-125676627D01*
X163174641Y-125500000D01*
X163192037Y-125323373D01*
X163243557Y-125153534D01*
X163327222Y-124997009D01*
X163356552Y-124961271D01*
X163439814Y-124859814D01*
X163541271Y-124776552D01*
X163577009Y-124747222D01*
X163733534Y-124663557D01*
X163903373Y-124612037D01*
X163969557Y-124605519D01*
X164035740Y-124599000D01*
X164124260Y-124599000D01*
X164190443Y-124605519D01*
X164190443Y-124605519D01*
G37*
G36*
X161650443Y-124605519D02*
G01*
X161716627Y-124612037D01*
X161886466Y-124663557D01*
X162042991Y-124747222D01*
X162078729Y-124776552D01*
X162180186Y-124859814D01*
X162263448Y-124961271D01*
X162292778Y-124997009D01*
X162376443Y-125153534D01*
X162427963Y-125323373D01*
X162445359Y-125500000D01*
X162427963Y-125676627D01*
X162376443Y-125846466D01*
X162292778Y-126002991D01*
X162263448Y-126038729D01*
X162180186Y-126140186D01*
X162078729Y-126223448D01*
X162042991Y-126252778D01*
X161886466Y-126336443D01*
X161716627Y-126387963D01*
X161650443Y-126394481D01*
X161584260Y-126401000D01*
X161495740Y-126401000D01*
X161429557Y-126394481D01*
X161363373Y-126387963D01*
X161193534Y-126336443D01*
X161037009Y-126252778D01*
X161001271Y-126223448D01*
X160899814Y-126140186D01*
X160816552Y-126038729D01*
X160787222Y-126002991D01*
X160703557Y-125846466D01*
X160652037Y-125676627D01*
X160634641Y-125500000D01*
X160652037Y-125323373D01*
X160703557Y-125153534D01*
X160787222Y-124997009D01*
X160816552Y-124961271D01*
X160899814Y-124859814D01*
X161001271Y-124776552D01*
X161037009Y-124747222D01*
X161193534Y-124663557D01*
X161363373Y-124612037D01*
X161429557Y-124605519D01*
X161495740Y-124599000D01*
X161584260Y-124599000D01*
X161650443Y-124605519D01*
X161650443Y-124605519D01*
G37*
G36*
X151490443Y-124605519D02*
G01*
X151556627Y-124612037D01*
X151726466Y-124663557D01*
X151882991Y-124747222D01*
X151918729Y-124776552D01*
X152020186Y-124859814D01*
X152103448Y-124961271D01*
X152132778Y-124997009D01*
X152216443Y-125153534D01*
X152267963Y-125323373D01*
X152285359Y-125500000D01*
X152267963Y-125676627D01*
X152216443Y-125846466D01*
X152132778Y-126002991D01*
X152103448Y-126038729D01*
X152020186Y-126140186D01*
X151918729Y-126223448D01*
X151882991Y-126252778D01*
X151726466Y-126336443D01*
X151556627Y-126387963D01*
X151490443Y-126394481D01*
X151424260Y-126401000D01*
X151335740Y-126401000D01*
X151269557Y-126394481D01*
X151203373Y-126387963D01*
X151033534Y-126336443D01*
X150877009Y-126252778D01*
X150841271Y-126223448D01*
X150739814Y-126140186D01*
X150656552Y-126038729D01*
X150627222Y-126002991D01*
X150543557Y-125846466D01*
X150492037Y-125676627D01*
X150474641Y-125500000D01*
X150492037Y-125323373D01*
X150543557Y-125153534D01*
X150627222Y-124997009D01*
X150656552Y-124961271D01*
X150739814Y-124859814D01*
X150841271Y-124776552D01*
X150877009Y-124747222D01*
X151033534Y-124663557D01*
X151203373Y-124612037D01*
X151269557Y-124605519D01*
X151335740Y-124599000D01*
X151424260Y-124599000D01*
X151490443Y-124605519D01*
X151490443Y-124605519D01*
G37*
G36*
X169676000Y-125051000D02*
G01*
X168324000Y-125051000D01*
X168324000Y-123949000D01*
X169676000Y-123949000D01*
X169676000Y-125051000D01*
X169676000Y-125051000D01*
G37*
G36*
X173676000Y-125051000D02*
G01*
X172324000Y-125051000D01*
X172324000Y-123949000D01*
X173676000Y-123949000D01*
X173676000Y-125051000D01*
X173676000Y-125051000D01*
G37*
G36*
X177676000Y-125051000D02*
G01*
X176324000Y-125051000D01*
X176324000Y-123949000D01*
X177676000Y-123949000D01*
X177676000Y-125051000D01*
X177676000Y-125051000D01*
G37*
G36*
X188429487Y-121598996D02*
G01*
X188666253Y-121697068D01*
X188666255Y-121697069D01*
X188879339Y-121839447D01*
X189060553Y-122020661D01*
X189202932Y-122233747D01*
X189301004Y-122470513D01*
X189351000Y-122721861D01*
X189351000Y-122978139D01*
X189301004Y-123229487D01*
X189202932Y-123466253D01*
X189202931Y-123466255D01*
X189060553Y-123679339D01*
X188879339Y-123860553D01*
X188666255Y-124002931D01*
X188666254Y-124002932D01*
X188666253Y-124002932D01*
X188429487Y-124101004D01*
X188178139Y-124151000D01*
X187921861Y-124151000D01*
X187670513Y-124101004D01*
X187433747Y-124002932D01*
X187433746Y-124002932D01*
X187433745Y-124002931D01*
X187220661Y-123860553D01*
X187039447Y-123679339D01*
X186897069Y-123466255D01*
X186897068Y-123466253D01*
X186798996Y-123229487D01*
X186749000Y-122978139D01*
X186749000Y-122721861D01*
X186798996Y-122470513D01*
X186897068Y-122233747D01*
X187039447Y-122020661D01*
X187220661Y-121839447D01*
X187433745Y-121697069D01*
X187433747Y-121697068D01*
X187670513Y-121598996D01*
X187921861Y-121549000D01*
X188178139Y-121549000D01*
X188429487Y-121598996D01*
X188429487Y-121598996D01*
G37*
G36*
X194351000Y-124151000D02*
G01*
X191749000Y-124151000D01*
X191749000Y-121549000D01*
X194351000Y-121549000D01*
X194351000Y-124151000D01*
X194351000Y-124151000D01*
G37*
G36*
X177676000Y-123051000D02*
G01*
X176324000Y-123051000D01*
X176324000Y-121949000D01*
X177676000Y-121949000D01*
X177676000Y-123051000D01*
X177676000Y-123051000D01*
G37*
G36*
X173676000Y-123051000D02*
G01*
X172324000Y-123051000D01*
X172324000Y-121949000D01*
X173676000Y-121949000D01*
X173676000Y-123051000D01*
X173676000Y-123051000D01*
G37*
G36*
X169676000Y-123051000D02*
G01*
X168324000Y-123051000D01*
X168324000Y-121949000D01*
X169676000Y-121949000D01*
X169676000Y-123051000D01*
X169676000Y-123051000D01*
G37*
G36*
X146401000Y-122021000D02*
G01*
X144599000Y-122021000D01*
X144599000Y-120219000D01*
X146401000Y-120219000D01*
X146401000Y-122021000D01*
X146401000Y-122021000D01*
G37*
G36*
X145585288Y-117683041D02*
G01*
X145676627Y-117692037D01*
X145846466Y-117743557D01*
X146002991Y-117827222D01*
X146038729Y-117856552D01*
X146140186Y-117939814D01*
X146223448Y-118041271D01*
X146252778Y-118077009D01*
X146336443Y-118233534D01*
X146387963Y-118403373D01*
X146405359Y-118580000D01*
X146387963Y-118756627D01*
X146336443Y-118926466D01*
X146252778Y-119082991D01*
X146223448Y-119118729D01*
X146140186Y-119220186D01*
X146038729Y-119303448D01*
X146002991Y-119332778D01*
X145846466Y-119416443D01*
X145676627Y-119467963D01*
X145610443Y-119474481D01*
X145544260Y-119481000D01*
X145455740Y-119481000D01*
X145389557Y-119474481D01*
X145323373Y-119467963D01*
X145153534Y-119416443D01*
X144997009Y-119332778D01*
X144961271Y-119303448D01*
X144859814Y-119220186D01*
X144776552Y-119118729D01*
X144747222Y-119082991D01*
X144663557Y-118926466D01*
X144612037Y-118756627D01*
X144594641Y-118580000D01*
X144612037Y-118403373D01*
X144663557Y-118233534D01*
X144747222Y-118077009D01*
X144776552Y-118041271D01*
X144859814Y-117939814D01*
X144961271Y-117856552D01*
X144997009Y-117827222D01*
X145153534Y-117743557D01*
X145323373Y-117692037D01*
X145414712Y-117683041D01*
X145455740Y-117679000D01*
X145544260Y-117679000D01*
X145585288Y-117683041D01*
X145585288Y-117683041D01*
G37*
G36*
X197093312Y-79030887D02*
G01*
X197183039Y-79058106D01*
X197265731Y-79102306D01*
X197338211Y-79161789D01*
X197397694Y-79234269D01*
X197441894Y-79316961D01*
X197469113Y-79406688D01*
X197478303Y-79500000D01*
X197469113Y-79593312D01*
X197441894Y-79683039D01*
X197397694Y-79765731D01*
X197338211Y-79838211D01*
X197265731Y-79897694D01*
X197265726Y-79897697D01*
X197258808Y-79903374D01*
X197241481Y-79920701D01*
X197227867Y-79941075D01*
X197218490Y-79963714D01*
X197213709Y-79987747D01*
X197213709Y-80012251D01*
X197218489Y-80036285D01*
X197227866Y-80058924D01*
X197241480Y-80079298D01*
X197258808Y-80096626D01*
X197265726Y-80102303D01*
X197265731Y-80102306D01*
X197338211Y-80161789D01*
X197397694Y-80234269D01*
X197441894Y-80316961D01*
X197469113Y-80406688D01*
X197478303Y-80500000D01*
X197469113Y-80593312D01*
X197441894Y-80683039D01*
X197397694Y-80765731D01*
X197338211Y-80838211D01*
X197265731Y-80897694D01*
X197265726Y-80897697D01*
X197258808Y-80903374D01*
X197241481Y-80920701D01*
X197227867Y-80941075D01*
X197218490Y-80963714D01*
X197213709Y-80987747D01*
X197213709Y-81012251D01*
X197218489Y-81036285D01*
X197227866Y-81058924D01*
X197241480Y-81079298D01*
X197258808Y-81096626D01*
X197265726Y-81102303D01*
X197265731Y-81102306D01*
X197338211Y-81161789D01*
X197397694Y-81234269D01*
X197441894Y-81316961D01*
X197469113Y-81406688D01*
X197478303Y-81500000D01*
X197469113Y-81593312D01*
X197441894Y-81683039D01*
X197397694Y-81765731D01*
X197338211Y-81838211D01*
X197265731Y-81897694D01*
X197265726Y-81897697D01*
X197258808Y-81903374D01*
X197241481Y-81920701D01*
X197227867Y-81941075D01*
X197218490Y-81963714D01*
X197213709Y-81987747D01*
X197213709Y-82012251D01*
X197218489Y-82036285D01*
X197227866Y-82058924D01*
X197241480Y-82079298D01*
X197258808Y-82096626D01*
X197265726Y-82102303D01*
X197265731Y-82102306D01*
X197338211Y-82161789D01*
X197397694Y-82234269D01*
X197441894Y-82316961D01*
X197469113Y-82406688D01*
X197478303Y-82500000D01*
X197469113Y-82593312D01*
X197441894Y-82683039D01*
X197397694Y-82765731D01*
X197338211Y-82838211D01*
X197265731Y-82897694D01*
X197265726Y-82897697D01*
X197258808Y-82903374D01*
X197241481Y-82920701D01*
X197227867Y-82941075D01*
X197218490Y-82963714D01*
X197213709Y-82987747D01*
X197213709Y-83012251D01*
X197218489Y-83036285D01*
X197227866Y-83058924D01*
X197241480Y-83079298D01*
X197258808Y-83096626D01*
X197265726Y-83102303D01*
X197265731Y-83102306D01*
X197338211Y-83161789D01*
X197397694Y-83234269D01*
X197441894Y-83316961D01*
X197469113Y-83406688D01*
X197478303Y-83500000D01*
X197469113Y-83593312D01*
X197441894Y-83683039D01*
X197397694Y-83765731D01*
X197338211Y-83838211D01*
X197265731Y-83897694D01*
X197265726Y-83897697D01*
X197258808Y-83903374D01*
X197241481Y-83920701D01*
X197227867Y-83941075D01*
X197218490Y-83963714D01*
X197213709Y-83987747D01*
X197213709Y-84012251D01*
X197218489Y-84036285D01*
X197227866Y-84058924D01*
X197241480Y-84079298D01*
X197258808Y-84096626D01*
X197265726Y-84102303D01*
X197265731Y-84102306D01*
X197338211Y-84161789D01*
X197397694Y-84234269D01*
X197441894Y-84316961D01*
X197469113Y-84406688D01*
X197478303Y-84500000D01*
X197469113Y-84593312D01*
X197441894Y-84683039D01*
X197397694Y-84765731D01*
X197338211Y-84838211D01*
X197265731Y-84897694D01*
X197265726Y-84897697D01*
X197258808Y-84903374D01*
X197241481Y-84920701D01*
X197227867Y-84941075D01*
X197218490Y-84963714D01*
X197213709Y-84987747D01*
X197213709Y-85012251D01*
X197218489Y-85036285D01*
X197227866Y-85058924D01*
X197241480Y-85079298D01*
X197258808Y-85096626D01*
X197265726Y-85102303D01*
X197265731Y-85102306D01*
X197338211Y-85161789D01*
X197397694Y-85234269D01*
X197441894Y-85316961D01*
X197469113Y-85406688D01*
X197478303Y-85500000D01*
X197469113Y-85593312D01*
X197441894Y-85683039D01*
X197397694Y-85765731D01*
X197338211Y-85838211D01*
X197265731Y-85897694D01*
X197265726Y-85897697D01*
X197258808Y-85903374D01*
X197241481Y-85920701D01*
X197227867Y-85941075D01*
X197218490Y-85963714D01*
X197213709Y-85987747D01*
X197213709Y-86012251D01*
X197218489Y-86036285D01*
X197227866Y-86058924D01*
X197241480Y-86079298D01*
X197258808Y-86096626D01*
X197265726Y-86102303D01*
X197265731Y-86102306D01*
X197338211Y-86161789D01*
X197397694Y-86234269D01*
X197441894Y-86316961D01*
X197469113Y-86406688D01*
X197478303Y-86500000D01*
X197469113Y-86593312D01*
X197441894Y-86683039D01*
X197397694Y-86765731D01*
X197338211Y-86838211D01*
X197265731Y-86897694D01*
X197265726Y-86897697D01*
X197258808Y-86903374D01*
X197241481Y-86920701D01*
X197227867Y-86941075D01*
X197218490Y-86963714D01*
X197213709Y-86987747D01*
X197213709Y-87012251D01*
X197218489Y-87036285D01*
X197227866Y-87058924D01*
X197241480Y-87079298D01*
X197258808Y-87096626D01*
X197265726Y-87102303D01*
X197265731Y-87102306D01*
X197338211Y-87161789D01*
X197397694Y-87234269D01*
X197441894Y-87316961D01*
X197469113Y-87406688D01*
X197478303Y-87500000D01*
X197469113Y-87593312D01*
X197441894Y-87683039D01*
X197397694Y-87765731D01*
X197338211Y-87838211D01*
X197265731Y-87897694D01*
X197265726Y-87897697D01*
X197258808Y-87903374D01*
X197241481Y-87920701D01*
X197227867Y-87941075D01*
X197218490Y-87963714D01*
X197213709Y-87987747D01*
X197213709Y-88012251D01*
X197218489Y-88036285D01*
X197227866Y-88058924D01*
X197241480Y-88079298D01*
X197258808Y-88096626D01*
X197265726Y-88102303D01*
X197265731Y-88102306D01*
X197338211Y-88161789D01*
X197397694Y-88234269D01*
X197441894Y-88316961D01*
X197469113Y-88406688D01*
X197478303Y-88500000D01*
X197469113Y-88593312D01*
X197441894Y-88683039D01*
X197397694Y-88765731D01*
X197338211Y-88838211D01*
X197265731Y-88897694D01*
X197265726Y-88897697D01*
X197258808Y-88903374D01*
X197241481Y-88920701D01*
X197227867Y-88941075D01*
X197218490Y-88963714D01*
X197213709Y-88987747D01*
X197213709Y-89012251D01*
X197218489Y-89036285D01*
X197227866Y-89058924D01*
X197241480Y-89079298D01*
X197258808Y-89096626D01*
X197265726Y-89102303D01*
X197265731Y-89102306D01*
X197338211Y-89161789D01*
X197397694Y-89234269D01*
X197441894Y-89316961D01*
X197469113Y-89406688D01*
X197478303Y-89500000D01*
X197469113Y-89593312D01*
X197441894Y-89683039D01*
X197397694Y-89765731D01*
X197338211Y-89838211D01*
X197265731Y-89897694D01*
X197265726Y-89897697D01*
X197258808Y-89903374D01*
X197241481Y-89920701D01*
X197227867Y-89941075D01*
X197218490Y-89963714D01*
X197213709Y-89987747D01*
X197213709Y-90012251D01*
X197218489Y-90036285D01*
X197227866Y-90058924D01*
X197241480Y-90079298D01*
X197258808Y-90096626D01*
X197265726Y-90102303D01*
X197265731Y-90102306D01*
X197338211Y-90161789D01*
X197397694Y-90234269D01*
X197441894Y-90316961D01*
X197469113Y-90406688D01*
X197478303Y-90500000D01*
X197469113Y-90593312D01*
X197441894Y-90683039D01*
X197397694Y-90765731D01*
X197338211Y-90838211D01*
X197265731Y-90897694D01*
X197265726Y-90897697D01*
X197258808Y-90903374D01*
X197241481Y-90920701D01*
X197227867Y-90941075D01*
X197218490Y-90963714D01*
X197213709Y-90987747D01*
X197213709Y-91012251D01*
X197218489Y-91036285D01*
X197227866Y-91058924D01*
X197241480Y-91079298D01*
X197258808Y-91096626D01*
X197265726Y-91102303D01*
X197265731Y-91102306D01*
X197338211Y-91161789D01*
X197397694Y-91234269D01*
X197441894Y-91316961D01*
X197469113Y-91406688D01*
X197478303Y-91500000D01*
X197469113Y-91593312D01*
X197441894Y-91683039D01*
X197397694Y-91765731D01*
X197338211Y-91838211D01*
X197265731Y-91897694D01*
X197265726Y-91897697D01*
X197258808Y-91903374D01*
X197241481Y-91920701D01*
X197227867Y-91941075D01*
X197218490Y-91963714D01*
X197213709Y-91987747D01*
X197213709Y-92012251D01*
X197218489Y-92036285D01*
X197227866Y-92058924D01*
X197241480Y-92079298D01*
X197258808Y-92096626D01*
X197265726Y-92102303D01*
X197265731Y-92102306D01*
X197338211Y-92161789D01*
X197397694Y-92234269D01*
X197441894Y-92316961D01*
X197469113Y-92406688D01*
X197478303Y-92500000D01*
X197469113Y-92593312D01*
X197441894Y-92683039D01*
X197397694Y-92765731D01*
X197338211Y-92838211D01*
X197265731Y-92897694D01*
X197265726Y-92897697D01*
X197258808Y-92903374D01*
X197241481Y-92920701D01*
X197227867Y-92941075D01*
X197218490Y-92963714D01*
X197213709Y-92987747D01*
X197213709Y-93012251D01*
X197218489Y-93036285D01*
X197227866Y-93058924D01*
X197241480Y-93079298D01*
X197258808Y-93096626D01*
X197265726Y-93102303D01*
X197265731Y-93102306D01*
X197338211Y-93161789D01*
X197397694Y-93234269D01*
X197441894Y-93316961D01*
X197469113Y-93406688D01*
X197478303Y-93500000D01*
X197469113Y-93593312D01*
X197441894Y-93683039D01*
X197397694Y-93765731D01*
X197338211Y-93838211D01*
X197265731Y-93897694D01*
X197265726Y-93897697D01*
X197258808Y-93903374D01*
X197241481Y-93920701D01*
X197227867Y-93941075D01*
X197218490Y-93963714D01*
X197213709Y-93987747D01*
X197213709Y-94012251D01*
X197218489Y-94036285D01*
X197227866Y-94058924D01*
X197241480Y-94079298D01*
X197258808Y-94096626D01*
X197265726Y-94102303D01*
X197265731Y-94102306D01*
X197338211Y-94161789D01*
X197397694Y-94234269D01*
X197441894Y-94316961D01*
X197469113Y-94406688D01*
X197478303Y-94500000D01*
X197469113Y-94593312D01*
X197441894Y-94683039D01*
X197397694Y-94765731D01*
X197338211Y-94838211D01*
X197265731Y-94897694D01*
X197265726Y-94897697D01*
X197258808Y-94903374D01*
X197241481Y-94920701D01*
X197227867Y-94941075D01*
X197218490Y-94963714D01*
X197213709Y-94987747D01*
X197213709Y-95012251D01*
X197218489Y-95036285D01*
X197227866Y-95058924D01*
X197241480Y-95079298D01*
X197258808Y-95096626D01*
X197265726Y-95102303D01*
X197265731Y-95102306D01*
X197338211Y-95161789D01*
X197397694Y-95234269D01*
X197441894Y-95316961D01*
X197469113Y-95406688D01*
X197478303Y-95500000D01*
X197469113Y-95593312D01*
X197441894Y-95683039D01*
X197397694Y-95765731D01*
X197338211Y-95838211D01*
X197265731Y-95897694D01*
X197265726Y-95897697D01*
X197258808Y-95903374D01*
X197241481Y-95920701D01*
X197227867Y-95941075D01*
X197218490Y-95963714D01*
X197213709Y-95987747D01*
X197213709Y-96012251D01*
X197218489Y-96036285D01*
X197227866Y-96058924D01*
X197241480Y-96079298D01*
X197258808Y-96096626D01*
X197265726Y-96102303D01*
X197265731Y-96102306D01*
X197338211Y-96161789D01*
X197397694Y-96234269D01*
X197441894Y-96316961D01*
X197469113Y-96406688D01*
X197478303Y-96500000D01*
X197469113Y-96593312D01*
X197441894Y-96683039D01*
X197397694Y-96765731D01*
X197338211Y-96838211D01*
X197265731Y-96897694D01*
X197265726Y-96897697D01*
X197258808Y-96903374D01*
X197241481Y-96920701D01*
X197227867Y-96941075D01*
X197218490Y-96963714D01*
X197213709Y-96987747D01*
X197213709Y-97012251D01*
X197218489Y-97036285D01*
X197227866Y-97058924D01*
X197241480Y-97079298D01*
X197258808Y-97096626D01*
X197265726Y-97102303D01*
X197265731Y-97102306D01*
X197338211Y-97161789D01*
X197397694Y-97234269D01*
X197441894Y-97316961D01*
X197469113Y-97406688D01*
X197478303Y-97500000D01*
X197469113Y-97593312D01*
X197441894Y-97683039D01*
X197397694Y-97765731D01*
X197338211Y-97838211D01*
X197265731Y-97897694D01*
X197265726Y-97897697D01*
X197258808Y-97903374D01*
X197241481Y-97920701D01*
X197227867Y-97941075D01*
X197218490Y-97963714D01*
X197213709Y-97987747D01*
X197213709Y-98012251D01*
X197218489Y-98036285D01*
X197227866Y-98058924D01*
X197241480Y-98079298D01*
X197258808Y-98096626D01*
X197265726Y-98102303D01*
X197265731Y-98102306D01*
X197338211Y-98161789D01*
X197397694Y-98234269D01*
X197441894Y-98316961D01*
X197469113Y-98406688D01*
X197478303Y-98500000D01*
X197469113Y-98593312D01*
X197441894Y-98683039D01*
X197397694Y-98765731D01*
X197338211Y-98838211D01*
X197265731Y-98897694D01*
X197265726Y-98897697D01*
X197258808Y-98903374D01*
X197241481Y-98920701D01*
X197227867Y-98941075D01*
X197218490Y-98963714D01*
X197213709Y-98987747D01*
X197213709Y-99012251D01*
X197218489Y-99036285D01*
X197227866Y-99058924D01*
X197241480Y-99079298D01*
X197258808Y-99096626D01*
X197265726Y-99102303D01*
X197265731Y-99102306D01*
X197338211Y-99161789D01*
X197397694Y-99234269D01*
X197441894Y-99316961D01*
X197469113Y-99406688D01*
X197478303Y-99500000D01*
X197469113Y-99593312D01*
X197441894Y-99683039D01*
X197397694Y-99765731D01*
X197338211Y-99838211D01*
X197265731Y-99897694D01*
X197265726Y-99897697D01*
X197258808Y-99903374D01*
X197241481Y-99920701D01*
X197227867Y-99941075D01*
X197218490Y-99963714D01*
X197213709Y-99987747D01*
X197213709Y-100012251D01*
X197218489Y-100036285D01*
X197227866Y-100058924D01*
X197241480Y-100079298D01*
X197258808Y-100096626D01*
X197265726Y-100102303D01*
X197265731Y-100102306D01*
X197338211Y-100161789D01*
X197397694Y-100234269D01*
X197441894Y-100316961D01*
X197469113Y-100406688D01*
X197478303Y-100500000D01*
X197469113Y-100593312D01*
X197441894Y-100683039D01*
X197397694Y-100765731D01*
X197338211Y-100838211D01*
X197265731Y-100897694D01*
X197265726Y-100897697D01*
X197258808Y-100903374D01*
X197241481Y-100920701D01*
X197227867Y-100941075D01*
X197218490Y-100963714D01*
X197213709Y-100987747D01*
X197213709Y-101012251D01*
X197218489Y-101036285D01*
X197227866Y-101058924D01*
X197241480Y-101079298D01*
X197258808Y-101096626D01*
X197265726Y-101102303D01*
X197265731Y-101102306D01*
X197338211Y-101161789D01*
X197397694Y-101234269D01*
X197441894Y-101316961D01*
X197469113Y-101406688D01*
X197478303Y-101500000D01*
X197469113Y-101593312D01*
X197441894Y-101683039D01*
X197397694Y-101765731D01*
X197338211Y-101838211D01*
X197265731Y-101897694D01*
X197265726Y-101897697D01*
X197258808Y-101903374D01*
X197241481Y-101920701D01*
X197227867Y-101941075D01*
X197218490Y-101963714D01*
X197213709Y-101987747D01*
X197213709Y-102012251D01*
X197218489Y-102036285D01*
X197227866Y-102058924D01*
X197241480Y-102079298D01*
X197258808Y-102096626D01*
X197265726Y-102102303D01*
X197265731Y-102102306D01*
X197338211Y-102161789D01*
X197397694Y-102234269D01*
X197441894Y-102316961D01*
X197469113Y-102406688D01*
X197478303Y-102500000D01*
X197469113Y-102593312D01*
X197441894Y-102683039D01*
X197397694Y-102765731D01*
X197338211Y-102838211D01*
X197265731Y-102897694D01*
X197265726Y-102897697D01*
X197258808Y-102903374D01*
X197241481Y-102920701D01*
X197227867Y-102941075D01*
X197218490Y-102963714D01*
X197213709Y-102987747D01*
X197213709Y-103012251D01*
X197218489Y-103036285D01*
X197227866Y-103058924D01*
X197241480Y-103079298D01*
X197258808Y-103096626D01*
X197265726Y-103102303D01*
X197265731Y-103102306D01*
X197338211Y-103161789D01*
X197397694Y-103234269D01*
X197441894Y-103316961D01*
X197469113Y-103406688D01*
X197478303Y-103500000D01*
X197469113Y-103593312D01*
X197441894Y-103683039D01*
X197397694Y-103765731D01*
X197338211Y-103838211D01*
X197265731Y-103897694D01*
X197265726Y-103897697D01*
X197258808Y-103903374D01*
X197241481Y-103920701D01*
X197227867Y-103941075D01*
X197218490Y-103963714D01*
X197213709Y-103987747D01*
X197213709Y-104012251D01*
X197218489Y-104036285D01*
X197227866Y-104058924D01*
X197241480Y-104079298D01*
X197258808Y-104096626D01*
X197265726Y-104102303D01*
X197265731Y-104102306D01*
X197338211Y-104161789D01*
X197397694Y-104234269D01*
X197441894Y-104316961D01*
X197469113Y-104406688D01*
X197478303Y-104500000D01*
X197469113Y-104593312D01*
X197441894Y-104683039D01*
X197397694Y-104765731D01*
X197338211Y-104838211D01*
X197265731Y-104897694D01*
X197265726Y-104897697D01*
X197258808Y-104903374D01*
X197241481Y-104920701D01*
X197227867Y-104941075D01*
X197218490Y-104963714D01*
X197213709Y-104987747D01*
X197213709Y-105012251D01*
X197218489Y-105036285D01*
X197227866Y-105058924D01*
X197241480Y-105079298D01*
X197258808Y-105096626D01*
X197265726Y-105102303D01*
X197265731Y-105102306D01*
X197338211Y-105161789D01*
X197397694Y-105234269D01*
X197441894Y-105316961D01*
X197469113Y-105406688D01*
X197478303Y-105500000D01*
X197469113Y-105593312D01*
X197441894Y-105683039D01*
X197397694Y-105765731D01*
X197338211Y-105838211D01*
X197265731Y-105897694D01*
X197265726Y-105897697D01*
X197258808Y-105903374D01*
X197241481Y-105920701D01*
X197227867Y-105941075D01*
X197218490Y-105963714D01*
X197213709Y-105987747D01*
X197213709Y-106012251D01*
X197218489Y-106036285D01*
X197227866Y-106058924D01*
X197241480Y-106079298D01*
X197258808Y-106096626D01*
X197265726Y-106102303D01*
X197265731Y-106102306D01*
X197338211Y-106161789D01*
X197397694Y-106234269D01*
X197441894Y-106316961D01*
X197469113Y-106406688D01*
X197478303Y-106500000D01*
X197469113Y-106593312D01*
X197441894Y-106683039D01*
X197397694Y-106765731D01*
X197338211Y-106838211D01*
X197265731Y-106897694D01*
X197265726Y-106897697D01*
X197258808Y-106903374D01*
X197241481Y-106920701D01*
X197227867Y-106941075D01*
X197218490Y-106963714D01*
X197213709Y-106987747D01*
X197213709Y-107012251D01*
X197218489Y-107036285D01*
X197227866Y-107058924D01*
X197241480Y-107079298D01*
X197258808Y-107096626D01*
X197265726Y-107102303D01*
X197265731Y-107102306D01*
X197338211Y-107161789D01*
X197397694Y-107234269D01*
X197441894Y-107316961D01*
X197469113Y-107406688D01*
X197478303Y-107500000D01*
X197469113Y-107593312D01*
X197441894Y-107683039D01*
X197397694Y-107765731D01*
X197338211Y-107838211D01*
X197265731Y-107897694D01*
X197265726Y-107897697D01*
X197258808Y-107903374D01*
X197241481Y-107920701D01*
X197227867Y-107941075D01*
X197218490Y-107963714D01*
X197213709Y-107987747D01*
X197213709Y-108012251D01*
X197218489Y-108036285D01*
X197227866Y-108058924D01*
X197241480Y-108079298D01*
X197258808Y-108096626D01*
X197265726Y-108102303D01*
X197265731Y-108102306D01*
X197338211Y-108161789D01*
X197397694Y-108234269D01*
X197441894Y-108316961D01*
X197469113Y-108406688D01*
X197478303Y-108500000D01*
X197469113Y-108593312D01*
X197441894Y-108683039D01*
X197397694Y-108765731D01*
X197338211Y-108838211D01*
X197265731Y-108897694D01*
X197265726Y-108897697D01*
X197258808Y-108903374D01*
X197241481Y-108920701D01*
X197227867Y-108941075D01*
X197218490Y-108963714D01*
X197213709Y-108987747D01*
X197213709Y-109012251D01*
X197218489Y-109036285D01*
X197227866Y-109058924D01*
X197241480Y-109079298D01*
X197258808Y-109096626D01*
X197265726Y-109102303D01*
X197265731Y-109102306D01*
X197338211Y-109161789D01*
X197397694Y-109234269D01*
X197441894Y-109316961D01*
X197469113Y-109406688D01*
X197478303Y-109500000D01*
X197469113Y-109593312D01*
X197441894Y-109683039D01*
X197397694Y-109765731D01*
X197338211Y-109838211D01*
X197265731Y-109897694D01*
X197265726Y-109897697D01*
X197258808Y-109903374D01*
X197241481Y-109920701D01*
X197227867Y-109941075D01*
X197218490Y-109963714D01*
X197213709Y-109987747D01*
X197213709Y-110012251D01*
X197218489Y-110036285D01*
X197227866Y-110058924D01*
X197241480Y-110079298D01*
X197258808Y-110096626D01*
X197265726Y-110102303D01*
X197265731Y-110102306D01*
X197338211Y-110161789D01*
X197397694Y-110234269D01*
X197441894Y-110316961D01*
X197469113Y-110406688D01*
X197478303Y-110500000D01*
X197469113Y-110593312D01*
X197441894Y-110683039D01*
X197397694Y-110765731D01*
X197338211Y-110838211D01*
X197265731Y-110897694D01*
X197265726Y-110897697D01*
X197258808Y-110903374D01*
X197241481Y-110920701D01*
X197227867Y-110941075D01*
X197218490Y-110963714D01*
X197213709Y-110987747D01*
X197213709Y-111012251D01*
X197218489Y-111036285D01*
X197227866Y-111058924D01*
X197241480Y-111079298D01*
X197258808Y-111096626D01*
X197265726Y-111102303D01*
X197265731Y-111102306D01*
X197338211Y-111161789D01*
X197397694Y-111234269D01*
X197441894Y-111316961D01*
X197469113Y-111406688D01*
X197478303Y-111500000D01*
X197469113Y-111593312D01*
X197441894Y-111683039D01*
X197397694Y-111765731D01*
X197338211Y-111838211D01*
X197265731Y-111897694D01*
X197265726Y-111897697D01*
X197258808Y-111903374D01*
X197241481Y-111920701D01*
X197227867Y-111941075D01*
X197218490Y-111963714D01*
X197213709Y-111987747D01*
X197213709Y-112012251D01*
X197218489Y-112036285D01*
X197227866Y-112058924D01*
X197241480Y-112079298D01*
X197258808Y-112096626D01*
X197265726Y-112102303D01*
X197265731Y-112102306D01*
X197338211Y-112161789D01*
X197397694Y-112234269D01*
X197441894Y-112316961D01*
X197469113Y-112406688D01*
X197478303Y-112500000D01*
X197469113Y-112593312D01*
X197441894Y-112683039D01*
X197397694Y-112765731D01*
X197338211Y-112838211D01*
X197265731Y-112897694D01*
X197265726Y-112897697D01*
X197258808Y-112903374D01*
X197241481Y-112920701D01*
X197227867Y-112941075D01*
X197218490Y-112963714D01*
X197213709Y-112987747D01*
X197213709Y-113012251D01*
X197218489Y-113036285D01*
X197227866Y-113058924D01*
X197241480Y-113079298D01*
X197258808Y-113096626D01*
X197265726Y-113102303D01*
X197265731Y-113102306D01*
X197338211Y-113161789D01*
X197397694Y-113234269D01*
X197441894Y-113316961D01*
X197469113Y-113406688D01*
X197478303Y-113500000D01*
X197469113Y-113593312D01*
X197441894Y-113683039D01*
X197397694Y-113765731D01*
X197338211Y-113838211D01*
X197265731Y-113897694D01*
X197265726Y-113897697D01*
X197258808Y-113903374D01*
X197241481Y-113920701D01*
X197227867Y-113941075D01*
X197218490Y-113963714D01*
X197213709Y-113987747D01*
X197213709Y-114012251D01*
X197218489Y-114036285D01*
X197227866Y-114058924D01*
X197241480Y-114079298D01*
X197258808Y-114096626D01*
X197265726Y-114102303D01*
X197265731Y-114102306D01*
X197338211Y-114161789D01*
X197397694Y-114234269D01*
X197441894Y-114316961D01*
X197469113Y-114406688D01*
X197478303Y-114500000D01*
X197469113Y-114593312D01*
X197441894Y-114683039D01*
X197397694Y-114765731D01*
X197338211Y-114838211D01*
X197265731Y-114897694D01*
X197265726Y-114897697D01*
X197258808Y-114903374D01*
X197241481Y-114920701D01*
X197227867Y-114941075D01*
X197218490Y-114963714D01*
X197213709Y-114987747D01*
X197213709Y-115012251D01*
X197218489Y-115036285D01*
X197227866Y-115058924D01*
X197241480Y-115079298D01*
X197258808Y-115096626D01*
X197265726Y-115102303D01*
X197265731Y-115102306D01*
X197338211Y-115161789D01*
X197397694Y-115234269D01*
X197441894Y-115316961D01*
X197469113Y-115406688D01*
X197478303Y-115500000D01*
X197469113Y-115593312D01*
X197441894Y-115683039D01*
X197397694Y-115765731D01*
X197338211Y-115838211D01*
X197265731Y-115897694D01*
X197265726Y-115897697D01*
X197258808Y-115903374D01*
X197241481Y-115920701D01*
X197227867Y-115941075D01*
X197218490Y-115963714D01*
X197213709Y-115987747D01*
X197213709Y-116012251D01*
X197218489Y-116036285D01*
X197227866Y-116058924D01*
X197241480Y-116079298D01*
X197258808Y-116096626D01*
X197265726Y-116102303D01*
X197265731Y-116102306D01*
X197338211Y-116161789D01*
X197397694Y-116234269D01*
X197441894Y-116316961D01*
X197469113Y-116406688D01*
X197478303Y-116500000D01*
X197469113Y-116593312D01*
X197441894Y-116683039D01*
X197397694Y-116765731D01*
X197338211Y-116838211D01*
X197265731Y-116897694D01*
X197265726Y-116897697D01*
X197258808Y-116903374D01*
X197241481Y-116920701D01*
X197227867Y-116941075D01*
X197218490Y-116963714D01*
X197213709Y-116987747D01*
X197213709Y-117012251D01*
X197218489Y-117036285D01*
X197227866Y-117058924D01*
X197241480Y-117079298D01*
X197258808Y-117096626D01*
X197265726Y-117102303D01*
X197265731Y-117102306D01*
X197338211Y-117161789D01*
X197397694Y-117234269D01*
X197441894Y-117316961D01*
X197469113Y-117406688D01*
X197478303Y-117500000D01*
X197469113Y-117593312D01*
X197441894Y-117683039D01*
X197397694Y-117765731D01*
X197353394Y-117819711D01*
X197339786Y-117840077D01*
X197330408Y-117862716D01*
X197325628Y-117886749D01*
X197325628Y-117911253D01*
X197330408Y-117935286D01*
X197339786Y-117957925D01*
X197353400Y-117978300D01*
X197370727Y-117995627D01*
X197391101Y-118009240D01*
X197413740Y-118018618D01*
X197450025Y-118024000D01*
X197476000Y-118024000D01*
X197476000Y-118976000D01*
X196524000Y-118976000D01*
X196524000Y-118024000D01*
X196549975Y-118024000D01*
X196574361Y-118021598D01*
X196597810Y-118014485D01*
X196619421Y-118002934D01*
X196638363Y-117987389D01*
X196653908Y-117968447D01*
X196665459Y-117946836D01*
X196672572Y-117923387D01*
X196674974Y-117899001D01*
X196672572Y-117874615D01*
X196665459Y-117851166D01*
X196646604Y-117819708D01*
X196602306Y-117765731D01*
X196558106Y-117683039D01*
X196530887Y-117593312D01*
X196521697Y-117500000D01*
X196530887Y-117406688D01*
X196558106Y-117316961D01*
X196602306Y-117234269D01*
X196661789Y-117161789D01*
X196734269Y-117102306D01*
X196734274Y-117102303D01*
X196741192Y-117096626D01*
X196758519Y-117079299D01*
X196772133Y-117058925D01*
X196781510Y-117036286D01*
X196786291Y-117012253D01*
X196786291Y-116987749D01*
X196781511Y-116963715D01*
X196772134Y-116941076D01*
X196758520Y-116920702D01*
X196741192Y-116903374D01*
X196734274Y-116897697D01*
X196734269Y-116897694D01*
X196661789Y-116838211D01*
X196602306Y-116765731D01*
X196558106Y-116683039D01*
X196530887Y-116593312D01*
X196521697Y-116500000D01*
X196530887Y-116406688D01*
X196558106Y-116316961D01*
X196602306Y-116234269D01*
X196661789Y-116161789D01*
X196734269Y-116102306D01*
X196734274Y-116102303D01*
X196741192Y-116096626D01*
X196758519Y-116079299D01*
X196772133Y-116058925D01*
X196781510Y-116036286D01*
X196786291Y-116012253D01*
X196786291Y-115987749D01*
X196781511Y-115963715D01*
X196772134Y-115941076D01*
X196758520Y-115920702D01*
X196741192Y-115903374D01*
X196734274Y-115897697D01*
X196734269Y-115897694D01*
X196661789Y-115838211D01*
X196602306Y-115765731D01*
X196558106Y-115683039D01*
X196530887Y-115593312D01*
X196521697Y-115500000D01*
X196530887Y-115406688D01*
X196558106Y-115316961D01*
X196602306Y-115234269D01*
X196661789Y-115161789D01*
X196734269Y-115102306D01*
X196734274Y-115102303D01*
X196741192Y-115096626D01*
X196758519Y-115079299D01*
X196772133Y-115058925D01*
X196781510Y-115036286D01*
X196786291Y-115012253D01*
X196786291Y-114987749D01*
X196781511Y-114963715D01*
X196772134Y-114941076D01*
X196758520Y-114920702D01*
X196741192Y-114903374D01*
X196734274Y-114897697D01*
X196734269Y-114897694D01*
X196661789Y-114838211D01*
X196602306Y-114765731D01*
X196558106Y-114683039D01*
X196530887Y-114593312D01*
X196521697Y-114500000D01*
X196530887Y-114406688D01*
X196558106Y-114316961D01*
X196602306Y-114234269D01*
X196661789Y-114161789D01*
X196734269Y-114102306D01*
X196734274Y-114102303D01*
X196741192Y-114096626D01*
X196758519Y-114079299D01*
X196772133Y-114058925D01*
X196781510Y-114036286D01*
X196786291Y-114012253D01*
X196786291Y-113987749D01*
X196781511Y-113963715D01*
X196772134Y-113941076D01*
X196758520Y-113920702D01*
X196741192Y-113903374D01*
X196734274Y-113897697D01*
X196734269Y-113897694D01*
X196661789Y-113838211D01*
X196602306Y-113765731D01*
X196558106Y-113683039D01*
X196530887Y-113593312D01*
X196521697Y-113500000D01*
X196530887Y-113406688D01*
X196558106Y-113316961D01*
X196602306Y-113234269D01*
X196661789Y-113161789D01*
X196734269Y-113102306D01*
X196734274Y-113102303D01*
X196741192Y-113096626D01*
X196758519Y-113079299D01*
X196772133Y-113058925D01*
X196781510Y-113036286D01*
X196786291Y-113012253D01*
X196786291Y-112987749D01*
X196781511Y-112963715D01*
X196772134Y-112941076D01*
X196758520Y-112920702D01*
X196741192Y-112903374D01*
X196734274Y-112897697D01*
X196734269Y-112897694D01*
X196661789Y-112838211D01*
X196602306Y-112765731D01*
X196558106Y-112683039D01*
X196530887Y-112593312D01*
X196521697Y-112500000D01*
X196530887Y-112406688D01*
X196558106Y-112316961D01*
X196602306Y-112234269D01*
X196661789Y-112161789D01*
X196734269Y-112102306D01*
X196734274Y-112102303D01*
X196741192Y-112096626D01*
X196758519Y-112079299D01*
X196772133Y-112058925D01*
X196781510Y-112036286D01*
X196786291Y-112012253D01*
X196786291Y-111987749D01*
X196781511Y-111963715D01*
X196772134Y-111941076D01*
X196758520Y-111920702D01*
X196741192Y-111903374D01*
X196734274Y-111897697D01*
X196734269Y-111897694D01*
X196661789Y-111838211D01*
X196602306Y-111765731D01*
X196558106Y-111683039D01*
X196530887Y-111593312D01*
X196521697Y-111500000D01*
X196530887Y-111406688D01*
X196558106Y-111316961D01*
X196602306Y-111234269D01*
X196661789Y-111161789D01*
X196734269Y-111102306D01*
X196734274Y-111102303D01*
X196741192Y-111096626D01*
X196758519Y-111079299D01*
X196772133Y-111058925D01*
X196781510Y-111036286D01*
X196786291Y-111012253D01*
X196786291Y-110987749D01*
X196781511Y-110963715D01*
X196772134Y-110941076D01*
X196758520Y-110920702D01*
X196741192Y-110903374D01*
X196734274Y-110897697D01*
X196734269Y-110897694D01*
X196661789Y-110838211D01*
X196602306Y-110765731D01*
X196558106Y-110683039D01*
X196530887Y-110593312D01*
X196521697Y-110500000D01*
X196530887Y-110406688D01*
X196558106Y-110316961D01*
X196602306Y-110234269D01*
X196661789Y-110161789D01*
X196734269Y-110102306D01*
X196734274Y-110102303D01*
X196741192Y-110096626D01*
X196758519Y-110079299D01*
X196772133Y-110058925D01*
X196781510Y-110036286D01*
X196786291Y-110012253D01*
X196786291Y-109987749D01*
X196781511Y-109963715D01*
X196772134Y-109941076D01*
X196758520Y-109920702D01*
X196741192Y-109903374D01*
X196734274Y-109897697D01*
X196734269Y-109897694D01*
X196661789Y-109838211D01*
X196602306Y-109765731D01*
X196558106Y-109683039D01*
X196530887Y-109593312D01*
X196521697Y-109500000D01*
X196530887Y-109406688D01*
X196558106Y-109316961D01*
X196602306Y-109234269D01*
X196661789Y-109161789D01*
X196734269Y-109102306D01*
X196734274Y-109102303D01*
X196741192Y-109096626D01*
X196758519Y-109079299D01*
X196772133Y-109058925D01*
X196781510Y-109036286D01*
X196786291Y-109012253D01*
X196786291Y-108987749D01*
X196781511Y-108963715D01*
X196772134Y-108941076D01*
X196758520Y-108920702D01*
X196741192Y-108903374D01*
X196734274Y-108897697D01*
X196734269Y-108897694D01*
X196661789Y-108838211D01*
X196602306Y-108765731D01*
X196558106Y-108683039D01*
X196530887Y-108593312D01*
X196521697Y-108500000D01*
X196530887Y-108406688D01*
X196558106Y-108316961D01*
X196602306Y-108234269D01*
X196661789Y-108161789D01*
X196734269Y-108102306D01*
X196734274Y-108102303D01*
X196741192Y-108096626D01*
X196758519Y-108079299D01*
X196772133Y-108058925D01*
X196781510Y-108036286D01*
X196786291Y-108012253D01*
X196786291Y-107987749D01*
X196781511Y-107963715D01*
X196772134Y-107941076D01*
X196758520Y-107920702D01*
X196741192Y-107903374D01*
X196734274Y-107897697D01*
X196734269Y-107897694D01*
X196661789Y-107838211D01*
X196602306Y-107765731D01*
X196558106Y-107683039D01*
X196530887Y-107593312D01*
X196521697Y-107500000D01*
X196530887Y-107406688D01*
X196558106Y-107316961D01*
X196602306Y-107234269D01*
X196661789Y-107161789D01*
X196734269Y-107102306D01*
X196734274Y-107102303D01*
X196741192Y-107096626D01*
X196758519Y-107079299D01*
X196772133Y-107058925D01*
X196781510Y-107036286D01*
X196786291Y-107012253D01*
X196786291Y-106987749D01*
X196781511Y-106963715D01*
X196772134Y-106941076D01*
X196758520Y-106920702D01*
X196741192Y-106903374D01*
X196734274Y-106897697D01*
X196734269Y-106897694D01*
X196661789Y-106838211D01*
X196602306Y-106765731D01*
X196558106Y-106683039D01*
X196530887Y-106593312D01*
X196521697Y-106500000D01*
X196530887Y-106406688D01*
X196558106Y-106316961D01*
X196602306Y-106234269D01*
X196661789Y-106161789D01*
X196734269Y-106102306D01*
X196734274Y-106102303D01*
X196741192Y-106096626D01*
X196758519Y-106079299D01*
X196772133Y-106058925D01*
X196781510Y-106036286D01*
X196786291Y-106012253D01*
X196786291Y-105987749D01*
X196781511Y-105963715D01*
X196772134Y-105941076D01*
X196758520Y-105920702D01*
X196741192Y-105903374D01*
X196734274Y-105897697D01*
X196734269Y-105897694D01*
X196661789Y-105838211D01*
X196602306Y-105765731D01*
X196558106Y-105683039D01*
X196530887Y-105593312D01*
X196521697Y-105500000D01*
X196530887Y-105406688D01*
X196558106Y-105316961D01*
X196602306Y-105234269D01*
X196661789Y-105161789D01*
X196734269Y-105102306D01*
X196734274Y-105102303D01*
X196741192Y-105096626D01*
X196758519Y-105079299D01*
X196772133Y-105058925D01*
X196781510Y-105036286D01*
X196786291Y-105012253D01*
X196786291Y-104987749D01*
X196781511Y-104963715D01*
X196772134Y-104941076D01*
X196758520Y-104920702D01*
X196741192Y-104903374D01*
X196734274Y-104897697D01*
X196734269Y-104897694D01*
X196661789Y-104838211D01*
X196602306Y-104765731D01*
X196558106Y-104683039D01*
X196530887Y-104593312D01*
X196521697Y-104500000D01*
X196530887Y-104406688D01*
X196558106Y-104316961D01*
X196602306Y-104234269D01*
X196661789Y-104161789D01*
X196734269Y-104102306D01*
X196734274Y-104102303D01*
X196741192Y-104096626D01*
X196758519Y-104079299D01*
X196772133Y-104058925D01*
X196781510Y-104036286D01*
X196786291Y-104012253D01*
X196786291Y-103987749D01*
X196781511Y-103963715D01*
X196772134Y-103941076D01*
X196758520Y-103920702D01*
X196741192Y-103903374D01*
X196734274Y-103897697D01*
X196734269Y-103897694D01*
X196661789Y-103838211D01*
X196602306Y-103765731D01*
X196558106Y-103683039D01*
X196530887Y-103593312D01*
X196521697Y-103500000D01*
X196530887Y-103406688D01*
X196558106Y-103316961D01*
X196602306Y-103234269D01*
X196661789Y-103161789D01*
X196734269Y-103102306D01*
X196734274Y-103102303D01*
X196741192Y-103096626D01*
X196758519Y-103079299D01*
X196772133Y-103058925D01*
X196781510Y-103036286D01*
X196786291Y-103012253D01*
X196786291Y-102987749D01*
X196781511Y-102963715D01*
X196772134Y-102941076D01*
X196758520Y-102920702D01*
X196741192Y-102903374D01*
X196734274Y-102897697D01*
X196734269Y-102897694D01*
X196661789Y-102838211D01*
X196602306Y-102765731D01*
X196558106Y-102683039D01*
X196530887Y-102593312D01*
X196521697Y-102500000D01*
X196530887Y-102406688D01*
X196558106Y-102316961D01*
X196602306Y-102234269D01*
X196661789Y-102161789D01*
X196734269Y-102102306D01*
X196734274Y-102102303D01*
X196741192Y-102096626D01*
X196758519Y-102079299D01*
X196772133Y-102058925D01*
X196781510Y-102036286D01*
X196786291Y-102012253D01*
X196786291Y-101987749D01*
X196781511Y-101963715D01*
X196772134Y-101941076D01*
X196758520Y-101920702D01*
X196741192Y-101903374D01*
X196734274Y-101897697D01*
X196734269Y-101897694D01*
X196661789Y-101838211D01*
X196602306Y-101765731D01*
X196558106Y-101683039D01*
X196530887Y-101593312D01*
X196521697Y-101500000D01*
X196530887Y-101406688D01*
X196558106Y-101316961D01*
X196602306Y-101234269D01*
X196661789Y-101161789D01*
X196734269Y-101102306D01*
X196734274Y-101102303D01*
X196741192Y-101096626D01*
X196758519Y-101079299D01*
X196772133Y-101058925D01*
X196781510Y-101036286D01*
X196786291Y-101012253D01*
X196786291Y-100987749D01*
X196781511Y-100963715D01*
X196772134Y-100941076D01*
X196758520Y-100920702D01*
X196741192Y-100903374D01*
X196734274Y-100897697D01*
X196734269Y-100897694D01*
X196661789Y-100838211D01*
X196602306Y-100765731D01*
X196558106Y-100683039D01*
X196530887Y-100593312D01*
X196521697Y-100500000D01*
X196530887Y-100406688D01*
X196558106Y-100316961D01*
X196602306Y-100234269D01*
X196661789Y-100161789D01*
X196734269Y-100102306D01*
X196734274Y-100102303D01*
X196741192Y-100096626D01*
X196758519Y-100079299D01*
X196772133Y-100058925D01*
X196781510Y-100036286D01*
X196786291Y-100012253D01*
X196786291Y-99987749D01*
X196781511Y-99963715D01*
X196772134Y-99941076D01*
X196758520Y-99920702D01*
X196741192Y-99903374D01*
X196734274Y-99897697D01*
X196734269Y-99897694D01*
X196661789Y-99838211D01*
X196602306Y-99765731D01*
X196558106Y-99683039D01*
X196530887Y-99593312D01*
X196521697Y-99500000D01*
X196530887Y-99406688D01*
X196558106Y-99316961D01*
X196602306Y-99234269D01*
X196661789Y-99161789D01*
X196734269Y-99102306D01*
X196734274Y-99102303D01*
X196741192Y-99096626D01*
X196758519Y-99079299D01*
X196772133Y-99058925D01*
X196781510Y-99036286D01*
X196786291Y-99012253D01*
X196786291Y-98987749D01*
X196781511Y-98963715D01*
X196772134Y-98941076D01*
X196758520Y-98920702D01*
X196741192Y-98903374D01*
X196734274Y-98897697D01*
X196734269Y-98897694D01*
X196661789Y-98838211D01*
X196602306Y-98765731D01*
X196558106Y-98683039D01*
X196530887Y-98593312D01*
X196521697Y-98500000D01*
X196530887Y-98406688D01*
X196558106Y-98316961D01*
X196602306Y-98234269D01*
X196661789Y-98161789D01*
X196734269Y-98102306D01*
X196734274Y-98102303D01*
X196741192Y-98096626D01*
X196758519Y-98079299D01*
X196772133Y-98058925D01*
X196781510Y-98036286D01*
X196786291Y-98012253D01*
X196786291Y-97987749D01*
X196781511Y-97963715D01*
X196772134Y-97941076D01*
X196758520Y-97920702D01*
X196741192Y-97903374D01*
X196734274Y-97897697D01*
X196734269Y-97897694D01*
X196661789Y-97838211D01*
X196602306Y-97765731D01*
X196558106Y-97683039D01*
X196530887Y-97593312D01*
X196521697Y-97500000D01*
X196530887Y-97406688D01*
X196558106Y-97316961D01*
X196602306Y-97234269D01*
X196661789Y-97161789D01*
X196734269Y-97102306D01*
X196734274Y-97102303D01*
X196741192Y-97096626D01*
X196758519Y-97079299D01*
X196772133Y-97058925D01*
X196781510Y-97036286D01*
X196786291Y-97012253D01*
X196786291Y-96987749D01*
X196781511Y-96963715D01*
X196772134Y-96941076D01*
X196758520Y-96920702D01*
X196741192Y-96903374D01*
X196734274Y-96897697D01*
X196734269Y-96897694D01*
X196661789Y-96838211D01*
X196602306Y-96765731D01*
X196558106Y-96683039D01*
X196530887Y-96593312D01*
X196521697Y-96500000D01*
X196530887Y-96406688D01*
X196558106Y-96316961D01*
X196602306Y-96234269D01*
X196661789Y-96161789D01*
X196734269Y-96102306D01*
X196734274Y-96102303D01*
X196741192Y-96096626D01*
X196758519Y-96079299D01*
X196772133Y-96058925D01*
X196781510Y-96036286D01*
X196786291Y-96012253D01*
X196786291Y-95987749D01*
X196781511Y-95963715D01*
X196772134Y-95941076D01*
X196758520Y-95920702D01*
X196741192Y-95903374D01*
X196734274Y-95897697D01*
X196734269Y-95897694D01*
X196661789Y-95838211D01*
X196602306Y-95765731D01*
X196558106Y-95683039D01*
X196530887Y-95593312D01*
X196521697Y-95500000D01*
X196530887Y-95406688D01*
X196558106Y-95316961D01*
X196602306Y-95234269D01*
X196661789Y-95161789D01*
X196734269Y-95102306D01*
X196734274Y-95102303D01*
X196741192Y-95096626D01*
X196758519Y-95079299D01*
X196772133Y-95058925D01*
X196781510Y-95036286D01*
X196786291Y-95012253D01*
X196786291Y-94987749D01*
X196781511Y-94963715D01*
X196772134Y-94941076D01*
X196758520Y-94920702D01*
X196741192Y-94903374D01*
X196734274Y-94897697D01*
X196734269Y-94897694D01*
X196661789Y-94838211D01*
X196602306Y-94765731D01*
X196558106Y-94683039D01*
X196530887Y-94593312D01*
X196521697Y-94500000D01*
X196530887Y-94406688D01*
X196558106Y-94316961D01*
X196602306Y-94234269D01*
X196661789Y-94161789D01*
X196734269Y-94102306D01*
X196734274Y-94102303D01*
X196741192Y-94096626D01*
X196758519Y-94079299D01*
X196772133Y-94058925D01*
X196781510Y-94036286D01*
X196786291Y-94012253D01*
X196786291Y-93987749D01*
X196781511Y-93963715D01*
X196772134Y-93941076D01*
X196758520Y-93920702D01*
X196741192Y-93903374D01*
X196734274Y-93897697D01*
X196734269Y-93897694D01*
X196661789Y-93838211D01*
X196602306Y-93765731D01*
X196558106Y-93683039D01*
X196530887Y-93593312D01*
X196521697Y-93500000D01*
X196530887Y-93406688D01*
X196558106Y-93316961D01*
X196602306Y-93234269D01*
X196661789Y-93161789D01*
X196734269Y-93102306D01*
X196734274Y-93102303D01*
X196741192Y-93096626D01*
X196758519Y-93079299D01*
X196772133Y-93058925D01*
X196781510Y-93036286D01*
X196786291Y-93012253D01*
X196786291Y-92987749D01*
X196781511Y-92963715D01*
X196772134Y-92941076D01*
X196758520Y-92920702D01*
X196741192Y-92903374D01*
X196734274Y-92897697D01*
X196734269Y-92897694D01*
X196661789Y-92838211D01*
X196602306Y-92765731D01*
X196558106Y-92683039D01*
X196530887Y-92593312D01*
X196521697Y-92500000D01*
X196530887Y-92406688D01*
X196558106Y-92316961D01*
X196602306Y-92234269D01*
X196661789Y-92161789D01*
X196734269Y-92102306D01*
X196734274Y-92102303D01*
X196741192Y-92096626D01*
X196758519Y-92079299D01*
X196772133Y-92058925D01*
X196781510Y-92036286D01*
X196786291Y-92012253D01*
X196786291Y-91987749D01*
X196781511Y-91963715D01*
X196772134Y-91941076D01*
X196758520Y-91920702D01*
X196741192Y-91903374D01*
X196734274Y-91897697D01*
X196734269Y-91897694D01*
X196661789Y-91838211D01*
X196602306Y-91765731D01*
X196558106Y-91683039D01*
X196530887Y-91593312D01*
X196521697Y-91500000D01*
X196530887Y-91406688D01*
X196558106Y-91316961D01*
X196602306Y-91234269D01*
X196661789Y-91161789D01*
X196734269Y-91102306D01*
X196734274Y-91102303D01*
X196741192Y-91096626D01*
X196758519Y-91079299D01*
X196772133Y-91058925D01*
X196781510Y-91036286D01*
X196786291Y-91012253D01*
X196786291Y-90987749D01*
X196781511Y-90963715D01*
X196772134Y-90941076D01*
X196758520Y-90920702D01*
X196741192Y-90903374D01*
X196734274Y-90897697D01*
X196734269Y-90897694D01*
X196661789Y-90838211D01*
X196602306Y-90765731D01*
X196558106Y-90683039D01*
X196530887Y-90593312D01*
X196521697Y-90500000D01*
X196530887Y-90406688D01*
X196558106Y-90316961D01*
X196602306Y-90234269D01*
X196661789Y-90161789D01*
X196734269Y-90102306D01*
X196734274Y-90102303D01*
X196741192Y-90096626D01*
X196758519Y-90079299D01*
X196772133Y-90058925D01*
X196781510Y-90036286D01*
X196786291Y-90012253D01*
X196786291Y-89987749D01*
X196781511Y-89963715D01*
X196772134Y-89941076D01*
X196758520Y-89920702D01*
X196741192Y-89903374D01*
X196734274Y-89897697D01*
X196734269Y-89897694D01*
X196661789Y-89838211D01*
X196602306Y-89765731D01*
X196558106Y-89683039D01*
X196530887Y-89593312D01*
X196521697Y-89500000D01*
X196530887Y-89406688D01*
X196558106Y-89316961D01*
X196602306Y-89234269D01*
X196661789Y-89161789D01*
X196734269Y-89102306D01*
X196734274Y-89102303D01*
X196741192Y-89096626D01*
X196758519Y-89079299D01*
X196772133Y-89058925D01*
X196781510Y-89036286D01*
X196786291Y-89012253D01*
X196786291Y-88987749D01*
X196781511Y-88963715D01*
X196772134Y-88941076D01*
X196758520Y-88920702D01*
X196741192Y-88903374D01*
X196734274Y-88897697D01*
X196734269Y-88897694D01*
X196661789Y-88838211D01*
X196602306Y-88765731D01*
X196558106Y-88683039D01*
X196530887Y-88593312D01*
X196521697Y-88500000D01*
X196530887Y-88406688D01*
X196558106Y-88316961D01*
X196602306Y-88234269D01*
X196661789Y-88161789D01*
X196734269Y-88102306D01*
X196734274Y-88102303D01*
X196741192Y-88096626D01*
X196758519Y-88079299D01*
X196772133Y-88058925D01*
X196781510Y-88036286D01*
X196786291Y-88012253D01*
X196786291Y-87987749D01*
X196781511Y-87963715D01*
X196772134Y-87941076D01*
X196758520Y-87920702D01*
X196741192Y-87903374D01*
X196734274Y-87897697D01*
X196734269Y-87897694D01*
X196661789Y-87838211D01*
X196602306Y-87765731D01*
X196558106Y-87683039D01*
X196530887Y-87593312D01*
X196521697Y-87500000D01*
X196530887Y-87406688D01*
X196558106Y-87316961D01*
X196602306Y-87234269D01*
X196661789Y-87161789D01*
X196734269Y-87102306D01*
X196734274Y-87102303D01*
X196741192Y-87096626D01*
X196758519Y-87079299D01*
X196772133Y-87058925D01*
X196781510Y-87036286D01*
X196786291Y-87012253D01*
X196786291Y-86987749D01*
X196781511Y-86963715D01*
X196772134Y-86941076D01*
X196758520Y-86920702D01*
X196741192Y-86903374D01*
X196734274Y-86897697D01*
X196734269Y-86897694D01*
X196661789Y-86838211D01*
X196602306Y-86765731D01*
X196558106Y-86683039D01*
X196530887Y-86593312D01*
X196521697Y-86500000D01*
X196530887Y-86406688D01*
X196558106Y-86316961D01*
X196602306Y-86234269D01*
X196661789Y-86161789D01*
X196734269Y-86102306D01*
X196734274Y-86102303D01*
X196741192Y-86096626D01*
X196758519Y-86079299D01*
X196772133Y-86058925D01*
X196781510Y-86036286D01*
X196786291Y-86012253D01*
X196786291Y-85987749D01*
X196781511Y-85963715D01*
X196772134Y-85941076D01*
X196758520Y-85920702D01*
X196741192Y-85903374D01*
X196734274Y-85897697D01*
X196734269Y-85897694D01*
X196661789Y-85838211D01*
X196602306Y-85765731D01*
X196558106Y-85683039D01*
X196530887Y-85593312D01*
X196521697Y-85500000D01*
X196530887Y-85406688D01*
X196558106Y-85316961D01*
X196602306Y-85234269D01*
X196661789Y-85161789D01*
X196734269Y-85102306D01*
X196734274Y-85102303D01*
X196741192Y-85096626D01*
X196758519Y-85079299D01*
X196772133Y-85058925D01*
X196781510Y-85036286D01*
X196786291Y-85012253D01*
X196786291Y-84987749D01*
X196781511Y-84963715D01*
X196772134Y-84941076D01*
X196758520Y-84920702D01*
X196741192Y-84903374D01*
X196734274Y-84897697D01*
X196734269Y-84897694D01*
X196661789Y-84838211D01*
X196602306Y-84765731D01*
X196558106Y-84683039D01*
X196530887Y-84593312D01*
X196521697Y-84500000D01*
X196530887Y-84406688D01*
X196558106Y-84316961D01*
X196602306Y-84234269D01*
X196661789Y-84161789D01*
X196734269Y-84102306D01*
X196734274Y-84102303D01*
X196741192Y-84096626D01*
X196758519Y-84079299D01*
X196772133Y-84058925D01*
X196781510Y-84036286D01*
X196786291Y-84012253D01*
X196786291Y-83987749D01*
X196781511Y-83963715D01*
X196772134Y-83941076D01*
X196758520Y-83920702D01*
X196741192Y-83903374D01*
X196734274Y-83897697D01*
X196734269Y-83897694D01*
X196661789Y-83838211D01*
X196602306Y-83765731D01*
X196558106Y-83683039D01*
X196530887Y-83593312D01*
X196521697Y-83500000D01*
X196530887Y-83406688D01*
X196558106Y-83316961D01*
X196602306Y-83234269D01*
X196661789Y-83161789D01*
X196734269Y-83102306D01*
X196734274Y-83102303D01*
X196741192Y-83096626D01*
X196758519Y-83079299D01*
X196772133Y-83058925D01*
X196781510Y-83036286D01*
X196786291Y-83012253D01*
X196786291Y-82987749D01*
X196781511Y-82963715D01*
X196772134Y-82941076D01*
X196758520Y-82920702D01*
X196741192Y-82903374D01*
X196734274Y-82897697D01*
X196734269Y-82897694D01*
X196661789Y-82838211D01*
X196602306Y-82765731D01*
X196558106Y-82683039D01*
X196530887Y-82593312D01*
X196521697Y-82500000D01*
X196530887Y-82406688D01*
X196558106Y-82316961D01*
X196602306Y-82234269D01*
X196661789Y-82161789D01*
X196734269Y-82102306D01*
X196734274Y-82102303D01*
X196741192Y-82096626D01*
X196758519Y-82079299D01*
X196772133Y-82058925D01*
X196781510Y-82036286D01*
X196786291Y-82012253D01*
X196786291Y-81987749D01*
X196781511Y-81963715D01*
X196772134Y-81941076D01*
X196758520Y-81920702D01*
X196741192Y-81903374D01*
X196734274Y-81897697D01*
X196734269Y-81897694D01*
X196661789Y-81838211D01*
X196602306Y-81765731D01*
X196558106Y-81683039D01*
X196530887Y-81593312D01*
X196521697Y-81500000D01*
X196530887Y-81406688D01*
X196558106Y-81316961D01*
X196602306Y-81234269D01*
X196661789Y-81161789D01*
X196734269Y-81102306D01*
X196734274Y-81102303D01*
X196741192Y-81096626D01*
X196758519Y-81079299D01*
X196772133Y-81058925D01*
X196781510Y-81036286D01*
X196786291Y-81012253D01*
X196786291Y-80987749D01*
X196781511Y-80963715D01*
X196772134Y-80941076D01*
X196758520Y-80920702D01*
X196741192Y-80903374D01*
X196734274Y-80897697D01*
X196734269Y-80897694D01*
X196661789Y-80838211D01*
X196602306Y-80765731D01*
X196558106Y-80683039D01*
X196530887Y-80593312D01*
X196521697Y-80500000D01*
X196530887Y-80406688D01*
X196558106Y-80316961D01*
X196602306Y-80234269D01*
X196661789Y-80161789D01*
X196734269Y-80102306D01*
X196734274Y-80102303D01*
X196741192Y-80096626D01*
X196758519Y-80079299D01*
X196772133Y-80058925D01*
X196781510Y-80036286D01*
X196786291Y-80012253D01*
X196786291Y-79987749D01*
X196781511Y-79963715D01*
X196772134Y-79941076D01*
X196758520Y-79920702D01*
X196741192Y-79903374D01*
X196734274Y-79897697D01*
X196734269Y-79897694D01*
X196661789Y-79838211D01*
X196602306Y-79765731D01*
X196558106Y-79683039D01*
X196530887Y-79593312D01*
X196521697Y-79500000D01*
X196530887Y-79406688D01*
X196558106Y-79316961D01*
X196602306Y-79234269D01*
X196661789Y-79161789D01*
X196734269Y-79102306D01*
X196816961Y-79058106D01*
X196906688Y-79030887D01*
X196976616Y-79024000D01*
X197023384Y-79024000D01*
X197093312Y-79030887D01*
X197093312Y-79030887D01*
G37*
G36*
X170176000Y-118951000D02*
G01*
X162324000Y-118951000D01*
X162324000Y-117849000D01*
X170176000Y-117849000D01*
X170176000Y-118951000D01*
X170176000Y-118951000D01*
G37*
G36*
X156551000Y-118176000D02*
G01*
X155449000Y-118176000D01*
X155449000Y-116824000D01*
X156551000Y-116824000D01*
X156551000Y-118176000D01*
X156551000Y-118176000D01*
G37*
G36*
X154551000Y-118176000D02*
G01*
X153449000Y-118176000D01*
X153449000Y-116824000D01*
X154551000Y-116824000D01*
X154551000Y-118176000D01*
X154551000Y-118176000D01*
G37*
G36*
X145610443Y-115145519D02*
G01*
X145676627Y-115152037D01*
X145846466Y-115203557D01*
X146002991Y-115287222D01*
X146038729Y-115316552D01*
X146140186Y-115399814D01*
X146222405Y-115500000D01*
X146252778Y-115537009D01*
X146336443Y-115693534D01*
X146387963Y-115863373D01*
X146405359Y-116040000D01*
X146387963Y-116216627D01*
X146336443Y-116386466D01*
X146252778Y-116542991D01*
X146223448Y-116578729D01*
X146140186Y-116680186D01*
X146038729Y-116763448D01*
X146002991Y-116792778D01*
X146002989Y-116792779D01*
X145917993Y-116838211D01*
X145846466Y-116876443D01*
X145676627Y-116927963D01*
X145610443Y-116934481D01*
X145544260Y-116941000D01*
X145455740Y-116941000D01*
X145389557Y-116934481D01*
X145323373Y-116927963D01*
X145153534Y-116876443D01*
X145082008Y-116838211D01*
X144997011Y-116792779D01*
X144997009Y-116792778D01*
X144961271Y-116763448D01*
X144859814Y-116680186D01*
X144776552Y-116578729D01*
X144747222Y-116542991D01*
X144663557Y-116386466D01*
X144612037Y-116216627D01*
X144594641Y-116040000D01*
X144612037Y-115863373D01*
X144663557Y-115693534D01*
X144747222Y-115537009D01*
X144777595Y-115500000D01*
X144859814Y-115399814D01*
X144961271Y-115316552D01*
X144997009Y-115287222D01*
X145153534Y-115203557D01*
X145323373Y-115152037D01*
X145389557Y-115145519D01*
X145455740Y-115139000D01*
X145544260Y-115139000D01*
X145610443Y-115145519D01*
X145610443Y-115145519D01*
G37*
G36*
X172501000Y-116626000D02*
G01*
X171399000Y-116626000D01*
X171399000Y-108774000D01*
X172501000Y-108774000D01*
X172501000Y-116626000D01*
X172501000Y-116626000D01*
G37*
G36*
X161101000Y-116626000D02*
G01*
X159999000Y-116626000D01*
X159999000Y-108774000D01*
X161101000Y-108774000D01*
X161101000Y-116626000D01*
X161101000Y-116626000D01*
G37*
G36*
X186085288Y-114683041D02*
G01*
X186176627Y-114692037D01*
X186346466Y-114743557D01*
X186502991Y-114827222D01*
X186516381Y-114838211D01*
X186640186Y-114939814D01*
X186719357Y-115036286D01*
X186752778Y-115077009D01*
X186836443Y-115233534D01*
X186887963Y-115403373D01*
X186905359Y-115580000D01*
X186887963Y-115756627D01*
X186838191Y-115920702D01*
X186836442Y-115926468D01*
X186816533Y-115963714D01*
X186752778Y-116082991D01*
X186741588Y-116096626D01*
X186640186Y-116220186D01*
X186574612Y-116274000D01*
X186502991Y-116332778D01*
X186502989Y-116332779D01*
X186364713Y-116406690D01*
X186346466Y-116416443D01*
X186176627Y-116467963D01*
X186110442Y-116474482D01*
X186044260Y-116481000D01*
X185955740Y-116481000D01*
X185889558Y-116474482D01*
X185823373Y-116467963D01*
X185653534Y-116416443D01*
X185635288Y-116406690D01*
X185497011Y-116332779D01*
X185497009Y-116332778D01*
X185425388Y-116274000D01*
X185359814Y-116220186D01*
X185258412Y-116096626D01*
X185247222Y-116082991D01*
X185183467Y-115963714D01*
X185163558Y-115926468D01*
X185161809Y-115920702D01*
X185112037Y-115756627D01*
X185094641Y-115580000D01*
X185112037Y-115403373D01*
X185163557Y-115233534D01*
X185247222Y-115077009D01*
X185280643Y-115036286D01*
X185359814Y-114939814D01*
X185483619Y-114838211D01*
X185497009Y-114827222D01*
X185653534Y-114743557D01*
X185823373Y-114692037D01*
X185914712Y-114683041D01*
X185955740Y-114679000D01*
X186044260Y-114679000D01*
X186085288Y-114683041D01*
X186085288Y-114683041D01*
G37*
G36*
X154551000Y-115176000D02*
G01*
X153449000Y-115176000D01*
X153449000Y-113824000D01*
X154551000Y-113824000D01*
X154551000Y-115176000D01*
X154551000Y-115176000D01*
G37*
G36*
X156551000Y-115176000D02*
G01*
X155449000Y-115176000D01*
X155449000Y-113824000D01*
X156551000Y-113824000D01*
X156551000Y-115176000D01*
X156551000Y-115176000D01*
G37*
G36*
X145610443Y-112605519D02*
G01*
X145676627Y-112612037D01*
X145846466Y-112663557D01*
X146002991Y-112747222D01*
X146025544Y-112765731D01*
X146140186Y-112859814D01*
X146206874Y-112941075D01*
X146252778Y-112997009D01*
X146336443Y-113153534D01*
X146387963Y-113323373D01*
X146405359Y-113500000D01*
X146387963Y-113676627D01*
X146336443Y-113846466D01*
X146252778Y-114002991D01*
X146235536Y-114024000D01*
X146140186Y-114140186D01*
X146038729Y-114223448D01*
X146002991Y-114252778D01*
X145846466Y-114336443D01*
X145676627Y-114387963D01*
X145610443Y-114394481D01*
X145544260Y-114401000D01*
X145455740Y-114401000D01*
X145389557Y-114394481D01*
X145323373Y-114387963D01*
X145153534Y-114336443D01*
X144997009Y-114252778D01*
X144961271Y-114223448D01*
X144859814Y-114140186D01*
X144764464Y-114024000D01*
X144747222Y-114002991D01*
X144663557Y-113846466D01*
X144612037Y-113676627D01*
X144594641Y-113500000D01*
X144612037Y-113323373D01*
X144663557Y-113153534D01*
X144747222Y-112997009D01*
X144793126Y-112941075D01*
X144859814Y-112859814D01*
X144974456Y-112765731D01*
X144997009Y-112747222D01*
X145153534Y-112663557D01*
X145323373Y-112612037D01*
X145389557Y-112605519D01*
X145455740Y-112599000D01*
X145544260Y-112599000D01*
X145610443Y-112605519D01*
X145610443Y-112605519D01*
G37*
G36*
X186110443Y-112145519D02*
G01*
X186176627Y-112152037D01*
X186346466Y-112203557D01*
X186502991Y-112287222D01*
X186538729Y-112316552D01*
X186640186Y-112399814D01*
X186722405Y-112500000D01*
X186752778Y-112537009D01*
X186836443Y-112693534D01*
X186887963Y-112863373D01*
X186905359Y-113040000D01*
X186887963Y-113216627D01*
X186836443Y-113386466D01*
X186752778Y-113542991D01*
X186723448Y-113578729D01*
X186640186Y-113680186D01*
X186538729Y-113763448D01*
X186502991Y-113792778D01*
X186502989Y-113792779D01*
X186417993Y-113838211D01*
X186346466Y-113876443D01*
X186176627Y-113927963D01*
X186110442Y-113934482D01*
X186044260Y-113941000D01*
X185955740Y-113941000D01*
X185889558Y-113934482D01*
X185823373Y-113927963D01*
X185653534Y-113876443D01*
X185582008Y-113838211D01*
X185497011Y-113792779D01*
X185497009Y-113792778D01*
X185461271Y-113763448D01*
X185359814Y-113680186D01*
X185276552Y-113578729D01*
X185247222Y-113542991D01*
X185163557Y-113386466D01*
X185112037Y-113216627D01*
X185094641Y-113040000D01*
X185112037Y-112863373D01*
X185163557Y-112693534D01*
X185247222Y-112537009D01*
X185277595Y-112500000D01*
X185359814Y-112399814D01*
X185461271Y-112316552D01*
X185497009Y-112287222D01*
X185653534Y-112203557D01*
X185823373Y-112152037D01*
X185889557Y-112145519D01*
X185955740Y-112139000D01*
X186044260Y-112139000D01*
X186110443Y-112145519D01*
X186110443Y-112145519D01*
G37*
G36*
X207651000Y-113401000D02*
G01*
X206049000Y-113401000D01*
X206049000Y-111599000D01*
X207651000Y-111599000D01*
X207651000Y-113401000D01*
X207651000Y-113401000D01*
G37*
G36*
X156301000Y-112201000D02*
G01*
X155499000Y-112201000D01*
X155499000Y-110799000D01*
X156301000Y-110799000D01*
X156301000Y-112201000D01*
X156301000Y-112201000D01*
G37*
G36*
X154401000Y-112201000D02*
G01*
X153599000Y-112201000D01*
X153599000Y-110799000D01*
X154401000Y-110799000D01*
X154401000Y-112201000D01*
X154401000Y-112201000D01*
G37*
G36*
X145610442Y-110065518D02*
G01*
X145676627Y-110072037D01*
X145846466Y-110123557D01*
X145846468Y-110123558D01*
X145922129Y-110164000D01*
X146002991Y-110207222D01*
X146035948Y-110234269D01*
X146140186Y-110319814D01*
X146211482Y-110406690D01*
X146252778Y-110457009D01*
X146336443Y-110613534D01*
X146387963Y-110783373D01*
X146405359Y-110960000D01*
X146387963Y-111136627D01*
X146336443Y-111306466D01*
X146252778Y-111462991D01*
X146223448Y-111498729D01*
X146140186Y-111600186D01*
X146039228Y-111683039D01*
X146002991Y-111712778D01*
X145846466Y-111796443D01*
X145676627Y-111847963D01*
X145610443Y-111854481D01*
X145544260Y-111861000D01*
X145455740Y-111861000D01*
X145389557Y-111854481D01*
X145323373Y-111847963D01*
X145153534Y-111796443D01*
X144997009Y-111712778D01*
X144960772Y-111683039D01*
X144859814Y-111600186D01*
X144776552Y-111498729D01*
X144747222Y-111462991D01*
X144663557Y-111306466D01*
X144612037Y-111136627D01*
X144594641Y-110960000D01*
X144612037Y-110783373D01*
X144663557Y-110613534D01*
X144747222Y-110457009D01*
X144788518Y-110406690D01*
X144859814Y-110319814D01*
X144964052Y-110234269D01*
X144997009Y-110207222D01*
X145077871Y-110164000D01*
X145153532Y-110123558D01*
X145153534Y-110123557D01*
X145323373Y-110072037D01*
X145389558Y-110065518D01*
X145455740Y-110059000D01*
X145544260Y-110059000D01*
X145610442Y-110065518D01*
X145610442Y-110065518D01*
G37*
G36*
X186901000Y-111401000D02*
G01*
X185099000Y-111401000D01*
X185099000Y-109599000D01*
X186901000Y-109599000D01*
X186901000Y-111401000D01*
X186901000Y-111401000D01*
G37*
G36*
X203551000Y-111016000D02*
G01*
X202349000Y-111016000D01*
X202349000Y-91164000D01*
X203551000Y-91164000D01*
X203551000Y-111016000D01*
X203551000Y-111016000D01*
G37*
G36*
X182150442Y-107605518D02*
G01*
X182216627Y-107612037D01*
X182386466Y-107663557D01*
X182542991Y-107747222D01*
X182565544Y-107765731D01*
X182680186Y-107859814D01*
X182746874Y-107941075D01*
X182792778Y-107997009D01*
X182876443Y-108153534D01*
X182927963Y-108323373D01*
X182945359Y-108500000D01*
X182927963Y-108676627D01*
X182876443Y-108846466D01*
X182792778Y-109002991D01*
X182775536Y-109024000D01*
X182680186Y-109140186D01*
X182578729Y-109223448D01*
X182542991Y-109252778D01*
X182386466Y-109336443D01*
X182216627Y-109387963D01*
X182150442Y-109394482D01*
X182084260Y-109401000D01*
X181995740Y-109401000D01*
X181929558Y-109394482D01*
X181863373Y-109387963D01*
X181693534Y-109336443D01*
X181537009Y-109252778D01*
X181501271Y-109223448D01*
X181399814Y-109140186D01*
X181304464Y-109024000D01*
X181287222Y-109002991D01*
X181203557Y-108846466D01*
X181152037Y-108676627D01*
X181134641Y-108500000D01*
X181152037Y-108323373D01*
X181203557Y-108153534D01*
X181287222Y-107997009D01*
X181333126Y-107941075D01*
X181399814Y-107859814D01*
X181514456Y-107765731D01*
X181537009Y-107747222D01*
X181693534Y-107663557D01*
X181863373Y-107612037D01*
X181929558Y-107605518D01*
X181995740Y-107599000D01*
X182084260Y-107599000D01*
X182150442Y-107605518D01*
X182150442Y-107605518D01*
G37*
G36*
X180401000Y-109401000D02*
G01*
X178599000Y-109401000D01*
X178599000Y-107599000D01*
X180401000Y-107599000D01*
X180401000Y-109401000D01*
X180401000Y-109401000D01*
G37*
G36*
X145610442Y-107525518D02*
G01*
X145676627Y-107532037D01*
X145846466Y-107583557D01*
X145846468Y-107583558D01*
X145864716Y-107593312D01*
X146002991Y-107667222D01*
X146022264Y-107683039D01*
X146140186Y-107779814D01*
X146188110Y-107838211D01*
X146252778Y-107917009D01*
X146252779Y-107917011D01*
X146328197Y-108058106D01*
X146336443Y-108073534D01*
X146387963Y-108243373D01*
X146405359Y-108420000D01*
X146387963Y-108596627D01*
X146336443Y-108766466D01*
X146252778Y-108922991D01*
X146223448Y-108958729D01*
X146140186Y-109060186D01*
X146059990Y-109126000D01*
X146002991Y-109172778D01*
X145846466Y-109256443D01*
X145676627Y-109307963D01*
X145610442Y-109314482D01*
X145544260Y-109321000D01*
X145455740Y-109321000D01*
X145389558Y-109314482D01*
X145323373Y-109307963D01*
X145153534Y-109256443D01*
X144997009Y-109172778D01*
X144940010Y-109126000D01*
X144859814Y-109060186D01*
X144776552Y-108958729D01*
X144747222Y-108922991D01*
X144663557Y-108766466D01*
X144612037Y-108596627D01*
X144594641Y-108420000D01*
X144612037Y-108243373D01*
X144663557Y-108073534D01*
X144671804Y-108058106D01*
X144747221Y-107917011D01*
X144747222Y-107917009D01*
X144811890Y-107838211D01*
X144859814Y-107779814D01*
X144977736Y-107683039D01*
X144997009Y-107667222D01*
X145135284Y-107593312D01*
X145153532Y-107583558D01*
X145153534Y-107583557D01*
X145323373Y-107532037D01*
X145389558Y-107525518D01*
X145455740Y-107519000D01*
X145544260Y-107519000D01*
X145610442Y-107525518D01*
X145610442Y-107525518D01*
G37*
G36*
X170176000Y-107551000D02*
G01*
X162324000Y-107551000D01*
X162324000Y-106449000D01*
X170176000Y-106449000D01*
X170176000Y-107551000D01*
X170176000Y-107551000D01*
G37*
G36*
X154051000Y-106751000D02*
G01*
X151949000Y-106751000D01*
X151949000Y-104249000D01*
X154051000Y-104249000D01*
X154051000Y-106751000D01*
X154051000Y-106751000D01*
G37*
G36*
X157751000Y-106751000D02*
G01*
X155649000Y-106751000D01*
X155649000Y-104249000D01*
X157751000Y-104249000D01*
X157751000Y-106751000D01*
X157751000Y-106751000D01*
G37*
G36*
X148551000Y-106176000D02*
G01*
X147449000Y-106176000D01*
X147449000Y-104824000D01*
X148551000Y-104824000D01*
X148551000Y-106176000D01*
X148551000Y-106176000D01*
G37*
G36*
X150551000Y-106176000D02*
G01*
X149449000Y-106176000D01*
X149449000Y-104824000D01*
X150551000Y-104824000D01*
X150551000Y-106176000D01*
X150551000Y-106176000D01*
G37*
G36*
X161701000Y-105351000D02*
G01*
X160299000Y-105351000D01*
X160299000Y-104549000D01*
X161701000Y-104549000D01*
X161701000Y-105351000D01*
X161701000Y-105351000D01*
G37*
G36*
X193610443Y-103185519D02*
G01*
X193676627Y-103192037D01*
X193846466Y-103243557D01*
X194002991Y-103327222D01*
X194038729Y-103356552D01*
X194140186Y-103439814D01*
X194202709Y-103516000D01*
X194252778Y-103577009D01*
X194336443Y-103733534D01*
X194387963Y-103903373D01*
X194405359Y-104080000D01*
X194387963Y-104256627D01*
X194336443Y-104426466D01*
X194252778Y-104582991D01*
X194223448Y-104618729D01*
X194140186Y-104720186D01*
X194038729Y-104803448D01*
X194002991Y-104832778D01*
X193846466Y-104916443D01*
X193676627Y-104967963D01*
X193610442Y-104974482D01*
X193544260Y-104981000D01*
X193455740Y-104981000D01*
X193389558Y-104974482D01*
X193323373Y-104967963D01*
X193153534Y-104916443D01*
X192997009Y-104832778D01*
X192961271Y-104803448D01*
X192859814Y-104720186D01*
X192776552Y-104618729D01*
X192747222Y-104582991D01*
X192663557Y-104426466D01*
X192612037Y-104256627D01*
X192594641Y-104080000D01*
X192612037Y-103903373D01*
X192663557Y-103733534D01*
X192747222Y-103577009D01*
X192797291Y-103516000D01*
X192859814Y-103439814D01*
X192961271Y-103356552D01*
X192997009Y-103327222D01*
X193153534Y-103243557D01*
X193323373Y-103192037D01*
X193389558Y-103185518D01*
X193455740Y-103179000D01*
X193544260Y-103179000D01*
X193610443Y-103185519D01*
X193610443Y-103185519D01*
G37*
G36*
X186110443Y-103185519D02*
G01*
X186176627Y-103192037D01*
X186346466Y-103243557D01*
X186502991Y-103327222D01*
X186538729Y-103356552D01*
X186640186Y-103439814D01*
X186702709Y-103516000D01*
X186752778Y-103577009D01*
X186836443Y-103733534D01*
X186887963Y-103903373D01*
X186905359Y-104080000D01*
X186887963Y-104256627D01*
X186836443Y-104426466D01*
X186752778Y-104582991D01*
X186723448Y-104618729D01*
X186640186Y-104720186D01*
X186538729Y-104803448D01*
X186502991Y-104832778D01*
X186346466Y-104916443D01*
X186176627Y-104967963D01*
X186110442Y-104974482D01*
X186044260Y-104981000D01*
X185955740Y-104981000D01*
X185889558Y-104974482D01*
X185823373Y-104967963D01*
X185653534Y-104916443D01*
X185497009Y-104832778D01*
X185461271Y-104803448D01*
X185359814Y-104720186D01*
X185276552Y-104618729D01*
X185247222Y-104582991D01*
X185163557Y-104426466D01*
X185112037Y-104256627D01*
X185094641Y-104080000D01*
X185112037Y-103903373D01*
X185163557Y-103733534D01*
X185247222Y-103577009D01*
X185297291Y-103516000D01*
X185359814Y-103439814D01*
X185461271Y-103356552D01*
X185497009Y-103327222D01*
X185653534Y-103243557D01*
X185823373Y-103192037D01*
X185889558Y-103185518D01*
X185955740Y-103179000D01*
X186044260Y-103179000D01*
X186110443Y-103185519D01*
X186110443Y-103185519D01*
G37*
G36*
X180726000Y-101649001D02*
G01*
X180728402Y-101673387D01*
X180735515Y-101696836D01*
X180747066Y-101718447D01*
X180762611Y-101737389D01*
X180781553Y-101752934D01*
X180803164Y-101764485D01*
X180826613Y-101771598D01*
X180850999Y-101774000D01*
X181536000Y-101774000D01*
X181536000Y-104226000D01*
X180850999Y-104226000D01*
X180826613Y-104228402D01*
X180803164Y-104235515D01*
X180781553Y-104247066D01*
X180762611Y-104262611D01*
X180747066Y-104281553D01*
X180735515Y-104303164D01*
X180728402Y-104326613D01*
X180726000Y-104350999D01*
X180726000Y-104536000D01*
X179274000Y-104536000D01*
X179274000Y-104350999D01*
X179271598Y-104326613D01*
X179264485Y-104303164D01*
X179252934Y-104281553D01*
X179237389Y-104262611D01*
X179218447Y-104247066D01*
X179196836Y-104235515D01*
X179173387Y-104228402D01*
X179149001Y-104226000D01*
X178464000Y-104226000D01*
X178464000Y-102210999D01*
X179086000Y-102210999D01*
X179086000Y-103789001D01*
X179088402Y-103813387D01*
X179095515Y-103836836D01*
X179107066Y-103858447D01*
X179122611Y-103877389D01*
X179141553Y-103892934D01*
X179163164Y-103904485D01*
X179186613Y-103911598D01*
X179210999Y-103914000D01*
X180789001Y-103914000D01*
X180813387Y-103911598D01*
X180836836Y-103904485D01*
X180858447Y-103892934D01*
X180877389Y-103877389D01*
X180892934Y-103858447D01*
X180904485Y-103836836D01*
X180911598Y-103813387D01*
X180914000Y-103789001D01*
X180914000Y-102210999D01*
X180911598Y-102186613D01*
X180904485Y-102163164D01*
X180892934Y-102141553D01*
X180877389Y-102122611D01*
X180858447Y-102107066D01*
X180836836Y-102095515D01*
X180813387Y-102088402D01*
X180789001Y-102086000D01*
X179210999Y-102086000D01*
X179186613Y-102088402D01*
X179163164Y-102095515D01*
X179141553Y-102107066D01*
X179122611Y-102122611D01*
X179107066Y-102141553D01*
X179095515Y-102163164D01*
X179088402Y-102186613D01*
X179086000Y-102210999D01*
X178464000Y-102210999D01*
X178464000Y-101774000D01*
X179149001Y-101774000D01*
X179173387Y-101771598D01*
X179196836Y-101764485D01*
X179218447Y-101752934D01*
X179237389Y-101737389D01*
X179252934Y-101718447D01*
X179264485Y-101696836D01*
X179271598Y-101673387D01*
X179274000Y-101649001D01*
X179274000Y-101464000D01*
X180726000Y-101464000D01*
X180726000Y-101649001D01*
X180726000Y-101649001D01*
G37*
G36*
X145610443Y-102345519D02*
G01*
X145676627Y-102352037D01*
X145846466Y-102403557D01*
X145846468Y-102403558D01*
X145892126Y-102427963D01*
X146002991Y-102487222D01*
X146038057Y-102516000D01*
X146140186Y-102599814D01*
X146223448Y-102701271D01*
X146252778Y-102737009D01*
X146336443Y-102893534D01*
X146387963Y-103063373D01*
X146405359Y-103240000D01*
X146387963Y-103416627D01*
X146336443Y-103586466D01*
X146252778Y-103742991D01*
X146227329Y-103774000D01*
X146140186Y-103880186D01*
X146065991Y-103941075D01*
X146002991Y-103992778D01*
X146002989Y-103992779D01*
X145879242Y-104058924D01*
X145846466Y-104076443D01*
X145676627Y-104127963D01*
X145610442Y-104134482D01*
X145544260Y-104141000D01*
X145455740Y-104141000D01*
X145389557Y-104134481D01*
X145323373Y-104127963D01*
X145153534Y-104076443D01*
X145120759Y-104058924D01*
X144997011Y-103992779D01*
X144997009Y-103992778D01*
X144934009Y-103941075D01*
X144859814Y-103880186D01*
X144772671Y-103774000D01*
X144747222Y-103742991D01*
X144663557Y-103586466D01*
X144612037Y-103416627D01*
X144594641Y-103240000D01*
X144612037Y-103063373D01*
X144663557Y-102893534D01*
X144747222Y-102737009D01*
X144776552Y-102701271D01*
X144859814Y-102599814D01*
X144961943Y-102516000D01*
X144997009Y-102487222D01*
X145107874Y-102427963D01*
X145153532Y-102403558D01*
X145153534Y-102403557D01*
X145323373Y-102352037D01*
X145389558Y-102345518D01*
X145455740Y-102339000D01*
X145544260Y-102339000D01*
X145610443Y-102345519D01*
X145610443Y-102345519D01*
G37*
G36*
X161701000Y-103451000D02*
G01*
X160299000Y-103451000D01*
X160299000Y-102649000D01*
X161701000Y-102649000D01*
X161701000Y-103451000D01*
X161701000Y-103451000D01*
G37*
G36*
X148551000Y-103176000D02*
G01*
X147449000Y-103176000D01*
X147449000Y-101824000D01*
X148551000Y-101824000D01*
X148551000Y-103176000D01*
X148551000Y-103176000D01*
G37*
G36*
X150551000Y-103176000D02*
G01*
X149449000Y-103176000D01*
X149449000Y-101824000D01*
X150551000Y-101824000D01*
X150551000Y-103176000D01*
X150551000Y-103176000D01*
G37*
G36*
X186110443Y-100645519D02*
G01*
X186176627Y-100652037D01*
X186346466Y-100703557D01*
X186502991Y-100787222D01*
X186519779Y-100801000D01*
X186640186Y-100899814D01*
X186712351Y-100987749D01*
X186752778Y-101037009D01*
X186836443Y-101193534D01*
X186887963Y-101363373D01*
X186905359Y-101540000D01*
X186887963Y-101716627D01*
X186851081Y-101838211D01*
X186836442Y-101886468D01*
X186827405Y-101903374D01*
X186752778Y-102042991D01*
X186740373Y-102058106D01*
X186640186Y-102180186D01*
X186538729Y-102263448D01*
X186502991Y-102292778D01*
X186346466Y-102376443D01*
X186176627Y-102427963D01*
X186110443Y-102434481D01*
X186044260Y-102441000D01*
X185955740Y-102441000D01*
X185889558Y-102434482D01*
X185823373Y-102427963D01*
X185653534Y-102376443D01*
X185497009Y-102292778D01*
X185461271Y-102263448D01*
X185359814Y-102180186D01*
X185259627Y-102058106D01*
X185247222Y-102042991D01*
X185172595Y-101903374D01*
X185163558Y-101886468D01*
X185148919Y-101838211D01*
X185112037Y-101716627D01*
X185094641Y-101540000D01*
X185112037Y-101363373D01*
X185163557Y-101193534D01*
X185247222Y-101037009D01*
X185287649Y-100987749D01*
X185359814Y-100899814D01*
X185480221Y-100801000D01*
X185497009Y-100787222D01*
X185653534Y-100703557D01*
X185823373Y-100652037D01*
X185889557Y-100645519D01*
X185955740Y-100639000D01*
X186044260Y-100639000D01*
X186110443Y-100645519D01*
X186110443Y-100645519D01*
G37*
G36*
X193610443Y-100645519D02*
G01*
X193676627Y-100652037D01*
X193846466Y-100703557D01*
X194002991Y-100787222D01*
X194019779Y-100801000D01*
X194140186Y-100899814D01*
X194212351Y-100987749D01*
X194252778Y-101037009D01*
X194336443Y-101193534D01*
X194387963Y-101363373D01*
X194405359Y-101540000D01*
X194387963Y-101716627D01*
X194351081Y-101838211D01*
X194336442Y-101886468D01*
X194327405Y-101903374D01*
X194252778Y-102042991D01*
X194240373Y-102058106D01*
X194140186Y-102180186D01*
X194038729Y-102263448D01*
X194002991Y-102292778D01*
X193846466Y-102376443D01*
X193676627Y-102427963D01*
X193610443Y-102434481D01*
X193544260Y-102441000D01*
X193455740Y-102441000D01*
X193389558Y-102434482D01*
X193323373Y-102427963D01*
X193153534Y-102376443D01*
X192997009Y-102292778D01*
X192961271Y-102263448D01*
X192859814Y-102180186D01*
X192759627Y-102058106D01*
X192747222Y-102042991D01*
X192672595Y-101903374D01*
X192663558Y-101886468D01*
X192648919Y-101838211D01*
X192612037Y-101716627D01*
X192594641Y-101540000D01*
X192612037Y-101363373D01*
X192663557Y-101193534D01*
X192747222Y-101037009D01*
X192787649Y-100987749D01*
X192859814Y-100899814D01*
X192980221Y-100801000D01*
X192997009Y-100787222D01*
X193153534Y-100703557D01*
X193323373Y-100652037D01*
X193389557Y-100645519D01*
X193455740Y-100639000D01*
X193544260Y-100639000D01*
X193610443Y-100645519D01*
X193610443Y-100645519D01*
G37*
G36*
X145610442Y-99805518D02*
G01*
X145676627Y-99812037D01*
X145846466Y-99863557D01*
X146002991Y-99947222D01*
X146029665Y-99969113D01*
X146140186Y-100059814D01*
X146223448Y-100161271D01*
X146252778Y-100197009D01*
X146336443Y-100353534D01*
X146387963Y-100523373D01*
X146405359Y-100700000D01*
X146387963Y-100876627D01*
X146339311Y-101037011D01*
X146336442Y-101046468D01*
X146318894Y-101079298D01*
X146252778Y-101202991D01*
X146227109Y-101234269D01*
X146140186Y-101340186D01*
X146059149Y-101406690D01*
X146002991Y-101452778D01*
X145846466Y-101536443D01*
X145676627Y-101587963D01*
X145610443Y-101594481D01*
X145544260Y-101601000D01*
X145455740Y-101601000D01*
X145389557Y-101594481D01*
X145323373Y-101587963D01*
X145153534Y-101536443D01*
X144997009Y-101452778D01*
X144940851Y-101406690D01*
X144859814Y-101340186D01*
X144772891Y-101234269D01*
X144747222Y-101202991D01*
X144681106Y-101079298D01*
X144663558Y-101046468D01*
X144660689Y-101037011D01*
X144612037Y-100876627D01*
X144594641Y-100700000D01*
X144612037Y-100523373D01*
X144663557Y-100353534D01*
X144747222Y-100197009D01*
X144776552Y-100161271D01*
X144859814Y-100059814D01*
X144970335Y-99969113D01*
X144997009Y-99947222D01*
X145153534Y-99863557D01*
X145323373Y-99812037D01*
X145389558Y-99805518D01*
X145455740Y-99799000D01*
X145544260Y-99799000D01*
X145610442Y-99805518D01*
X145610442Y-99805518D01*
G37*
G36*
X158176000Y-101051000D02*
G01*
X156824000Y-101051000D01*
X156824000Y-99949000D01*
X158176000Y-99949000D01*
X158176000Y-101051000D01*
X158176000Y-101051000D01*
G37*
G36*
X165201000Y-100901000D02*
G01*
X163799000Y-100901000D01*
X163799000Y-100099000D01*
X165201000Y-100099000D01*
X165201000Y-100901000D01*
X165201000Y-100901000D01*
G37*
G36*
X172701000Y-100901000D02*
G01*
X171299000Y-100901000D01*
X171299000Y-100099000D01*
X172701000Y-100099000D01*
X172701000Y-100901000D01*
X172701000Y-100901000D01*
G37*
G36*
X176201000Y-100901000D02*
G01*
X174799000Y-100901000D01*
X174799000Y-100099000D01*
X176201000Y-100099000D01*
X176201000Y-100901000D01*
X176201000Y-100901000D01*
G37*
G36*
X161701000Y-100801000D02*
G01*
X160299000Y-100801000D01*
X160299000Y-99999000D01*
X161701000Y-99999000D01*
X161701000Y-100801000D01*
X161701000Y-100801000D01*
G37*
G36*
X194401000Y-99901000D02*
G01*
X192599000Y-99901000D01*
X192599000Y-98099000D01*
X194401000Y-98099000D01*
X194401000Y-99901000D01*
X194401000Y-99901000D01*
G37*
G36*
X186901000Y-99901000D02*
G01*
X185099000Y-99901000D01*
X185099000Y-98099000D01*
X186901000Y-98099000D01*
X186901000Y-99901000D01*
X186901000Y-99901000D01*
G37*
G36*
X145610443Y-97265519D02*
G01*
X145676627Y-97272037D01*
X145846466Y-97323557D01*
X146002991Y-97407222D01*
X146038729Y-97436552D01*
X146140186Y-97519814D01*
X146200503Y-97593312D01*
X146252778Y-97657009D01*
X146294611Y-97735272D01*
X146310891Y-97765729D01*
X146336443Y-97813534D01*
X146387963Y-97983373D01*
X146405359Y-98160000D01*
X146387963Y-98336627D01*
X146336443Y-98506466D01*
X146252778Y-98662991D01*
X146236325Y-98683039D01*
X146140186Y-98800186D01*
X146038729Y-98883448D01*
X146002991Y-98912778D01*
X145846466Y-98996443D01*
X145676627Y-99047963D01*
X145610442Y-99054482D01*
X145544260Y-99061000D01*
X145455740Y-99061000D01*
X145389557Y-99054481D01*
X145323373Y-99047963D01*
X145153534Y-98996443D01*
X144997009Y-98912778D01*
X144961271Y-98883448D01*
X144859814Y-98800186D01*
X144763675Y-98683039D01*
X144747222Y-98662991D01*
X144663557Y-98506466D01*
X144612037Y-98336627D01*
X144594641Y-98160000D01*
X144612037Y-97983373D01*
X144663557Y-97813534D01*
X144689110Y-97765729D01*
X144705390Y-97735271D01*
X144747222Y-97657009D01*
X144799497Y-97593312D01*
X144859814Y-97519814D01*
X144961271Y-97436552D01*
X144997009Y-97407222D01*
X145153534Y-97323557D01*
X145323373Y-97272037D01*
X145389557Y-97265519D01*
X145455740Y-97259000D01*
X145544260Y-97259000D01*
X145610443Y-97265519D01*
X145610443Y-97265519D01*
G37*
G36*
X158176000Y-99051000D02*
G01*
X156824000Y-99051000D01*
X156824000Y-97949000D01*
X158176000Y-97949000D01*
X158176000Y-99051000D01*
X158176000Y-99051000D01*
G37*
G36*
X165201000Y-99001000D02*
G01*
X163799000Y-99001000D01*
X163799000Y-98199000D01*
X165201000Y-98199000D01*
X165201000Y-99001000D01*
X165201000Y-99001000D01*
G37*
G36*
X176201000Y-99001000D02*
G01*
X174799000Y-99001000D01*
X174799000Y-98199000D01*
X176201000Y-98199000D01*
X176201000Y-99001000D01*
X176201000Y-99001000D01*
G37*
G36*
X172701000Y-99001000D02*
G01*
X171299000Y-99001000D01*
X171299000Y-98199000D01*
X172701000Y-98199000D01*
X172701000Y-99001000D01*
X172701000Y-99001000D01*
G37*
G36*
X161701000Y-98901000D02*
G01*
X160299000Y-98901000D01*
X160299000Y-98099000D01*
X161701000Y-98099000D01*
X161701000Y-98901000D01*
X161701000Y-98901000D01*
G37*
G36*
X145610442Y-94725518D02*
G01*
X145676627Y-94732037D01*
X145846466Y-94783557D01*
X146002991Y-94867222D01*
X146038729Y-94896552D01*
X146140186Y-94979814D01*
X146221829Y-95079298D01*
X146252778Y-95117009D01*
X146336443Y-95273534D01*
X146387963Y-95443373D01*
X146405359Y-95620000D01*
X146387963Y-95796627D01*
X146336443Y-95966466D01*
X146252778Y-96122991D01*
X146223448Y-96158729D01*
X146140186Y-96260186D01*
X146071004Y-96316961D01*
X146002991Y-96372778D01*
X145846466Y-96456443D01*
X145676627Y-96507963D01*
X145610442Y-96514482D01*
X145544260Y-96521000D01*
X145455740Y-96521000D01*
X145389558Y-96514482D01*
X145323373Y-96507963D01*
X145153534Y-96456443D01*
X144997009Y-96372778D01*
X144928996Y-96316961D01*
X144859814Y-96260186D01*
X144776552Y-96158729D01*
X144747222Y-96122991D01*
X144663557Y-95966466D01*
X144612037Y-95796627D01*
X144594641Y-95620000D01*
X144612037Y-95443373D01*
X144663557Y-95273534D01*
X144747222Y-95117009D01*
X144778171Y-95079298D01*
X144859814Y-94979814D01*
X144961271Y-94896552D01*
X144997009Y-94867222D01*
X145153534Y-94783557D01*
X145323373Y-94732037D01*
X145389557Y-94725519D01*
X145455740Y-94719000D01*
X145544260Y-94719000D01*
X145610442Y-94725518D01*
X145610442Y-94725518D01*
G37*
G36*
X157901000Y-94501000D02*
G01*
X156699000Y-94501000D01*
X156699000Y-89799000D01*
X157901000Y-89799000D01*
X157901000Y-94501000D01*
X157901000Y-94501000D01*
G37*
G36*
X159601000Y-94501000D02*
G01*
X158399000Y-94501000D01*
X158399000Y-89799000D01*
X159601000Y-89799000D01*
X159601000Y-94501000D01*
X159601000Y-94501000D01*
G37*
G36*
X156201000Y-94501000D02*
G01*
X154999000Y-94501000D01*
X154999000Y-89799000D01*
X156201000Y-89799000D01*
X156201000Y-94501000D01*
X156201000Y-94501000D01*
G37*
G36*
X161301000Y-94501000D02*
G01*
X160099000Y-94501000D01*
X160099000Y-89799000D01*
X161301000Y-89799000D01*
X161301000Y-94501000D01*
X161301000Y-94501000D01*
G37*
G36*
X163001000Y-94501000D02*
G01*
X161799000Y-94501000D01*
X161799000Y-89799000D01*
X163001000Y-89799000D01*
X163001000Y-94501000D01*
X163001000Y-94501000D01*
G37*
G36*
X167901000Y-94401000D02*
G01*
X166099000Y-94401000D01*
X166099000Y-92599000D01*
X167901000Y-92599000D01*
X167901000Y-94401000D01*
X167901000Y-94401000D01*
G37*
G36*
X145610443Y-92185519D02*
G01*
X145676627Y-92192037D01*
X145846466Y-92243557D01*
X146002991Y-92327222D01*
X146038729Y-92356552D01*
X146140186Y-92439814D01*
X146202709Y-92516000D01*
X146252778Y-92577009D01*
X146336443Y-92733534D01*
X146387963Y-92903373D01*
X146405359Y-93080000D01*
X146387963Y-93256627D01*
X146336443Y-93426466D01*
X146252778Y-93582991D01*
X146223448Y-93618729D01*
X146140186Y-93720186D01*
X146038729Y-93803448D01*
X146002991Y-93832778D01*
X145846466Y-93916443D01*
X145676627Y-93967963D01*
X145610442Y-93974482D01*
X145544260Y-93981000D01*
X145455740Y-93981000D01*
X145389558Y-93974482D01*
X145323373Y-93967963D01*
X145153534Y-93916443D01*
X144997009Y-93832778D01*
X144961271Y-93803448D01*
X144859814Y-93720186D01*
X144776552Y-93618729D01*
X144747222Y-93582991D01*
X144663557Y-93426466D01*
X144612037Y-93256627D01*
X144594641Y-93080000D01*
X144612037Y-92903373D01*
X144663557Y-92733534D01*
X144747222Y-92577009D01*
X144797291Y-92516000D01*
X144859814Y-92439814D01*
X144961271Y-92356552D01*
X144997009Y-92327222D01*
X145153534Y-92243557D01*
X145323373Y-92192037D01*
X145389557Y-92185519D01*
X145455740Y-92179000D01*
X145544260Y-92179000D01*
X145610443Y-92185519D01*
X145610443Y-92185519D01*
G37*
G36*
X185301000Y-92551000D02*
G01*
X182699000Y-92551000D01*
X182699000Y-88449000D01*
X185301000Y-88449000D01*
X185301000Y-92551000D01*
X185301000Y-92551000D01*
G37*
G36*
X145610442Y-89645518D02*
G01*
X145676627Y-89652037D01*
X145846466Y-89703557D01*
X146002991Y-89787222D01*
X146017342Y-89799000D01*
X146140186Y-89899814D01*
X146212351Y-89987749D01*
X146252778Y-90037009D01*
X146336443Y-90193534D01*
X146387963Y-90363373D01*
X146405359Y-90540000D01*
X146387963Y-90716627D01*
X146373068Y-90765729D01*
X146336442Y-90886468D01*
X146327405Y-90903374D01*
X146252778Y-91042991D01*
X146240373Y-91058106D01*
X146140186Y-91180186D01*
X146038729Y-91263448D01*
X146002991Y-91292778D01*
X145846466Y-91376443D01*
X145676627Y-91427963D01*
X145610443Y-91434481D01*
X145544260Y-91441000D01*
X145455740Y-91441000D01*
X145389557Y-91434481D01*
X145323373Y-91427963D01*
X145153534Y-91376443D01*
X144997009Y-91292778D01*
X144961271Y-91263448D01*
X144859814Y-91180186D01*
X144759627Y-91058106D01*
X144747222Y-91042991D01*
X144672595Y-90903374D01*
X144663558Y-90886468D01*
X144626932Y-90765729D01*
X144612037Y-90716627D01*
X144594641Y-90540000D01*
X144612037Y-90363373D01*
X144663557Y-90193534D01*
X144747222Y-90037009D01*
X144787649Y-89987749D01*
X144859814Y-89899814D01*
X144982658Y-89799000D01*
X144997009Y-89787222D01*
X145153534Y-89703557D01*
X145323373Y-89652037D01*
X145389558Y-89645518D01*
X145455740Y-89639000D01*
X145544260Y-89639000D01*
X145610442Y-89645518D01*
X145610442Y-89645518D01*
G37*
G36*
X177301000Y-91251000D02*
G01*
X175699000Y-91251000D01*
X175699000Y-88749000D01*
X177301000Y-88749000D01*
X177301000Y-91251000D01*
X177301000Y-91251000D01*
G37*
G36*
X171801000Y-91251000D02*
G01*
X170199000Y-91251000D01*
X170199000Y-88749000D01*
X171801000Y-88749000D01*
X171801000Y-91251000D01*
X171801000Y-91251000D01*
G37*
G36*
X207651000Y-90601000D02*
G01*
X206049000Y-90601000D01*
X206049000Y-88799000D01*
X207651000Y-88799000D01*
X207651000Y-90601000D01*
X207651000Y-90601000D01*
G37*
G36*
X146401000Y-88901000D02*
G01*
X144599000Y-88901000D01*
X144599000Y-87099000D01*
X146401000Y-87099000D01*
X146401000Y-88901000D01*
X146401000Y-88901000D01*
G37*
G36*
X164451000Y-87751000D02*
G01*
X153549000Y-87751000D01*
X153549000Y-78249000D01*
X164451000Y-78249000D01*
X164451000Y-87751000D01*
X164451000Y-87751000D01*
G37*
G36*
X185301000Y-86451000D02*
G01*
X182699000Y-86451000D01*
X182699000Y-82349000D01*
X185301000Y-82349000D01*
X185301000Y-86451000D01*
X185301000Y-86451000D01*
G37*
G36*
X193610443Y-84185519D02*
G01*
X193676627Y-84192037D01*
X193846466Y-84243557D01*
X194002991Y-84327222D01*
X194038729Y-84356552D01*
X194140186Y-84439814D01*
X194223448Y-84541271D01*
X194252778Y-84577009D01*
X194336443Y-84733534D01*
X194387963Y-84903373D01*
X194405359Y-85080000D01*
X194387963Y-85256627D01*
X194336443Y-85426466D01*
X194252778Y-85582991D01*
X194223448Y-85618729D01*
X194140186Y-85720186D01*
X194038729Y-85803448D01*
X194002991Y-85832778D01*
X193846466Y-85916443D01*
X193676627Y-85967963D01*
X193610443Y-85974481D01*
X193544260Y-85981000D01*
X193455740Y-85981000D01*
X193389557Y-85974481D01*
X193323373Y-85967963D01*
X193153534Y-85916443D01*
X192997009Y-85832778D01*
X192961271Y-85803448D01*
X192859814Y-85720186D01*
X192776552Y-85618729D01*
X192747222Y-85582991D01*
X192663557Y-85426466D01*
X192612037Y-85256627D01*
X192594641Y-85080000D01*
X192612037Y-84903373D01*
X192663557Y-84733534D01*
X192747222Y-84577009D01*
X192776552Y-84541271D01*
X192859814Y-84439814D01*
X192961271Y-84356552D01*
X192997009Y-84327222D01*
X193153534Y-84243557D01*
X193323373Y-84192037D01*
X193389557Y-84185519D01*
X193455740Y-84179000D01*
X193544260Y-84179000D01*
X193610443Y-84185519D01*
X193610443Y-84185519D01*
G37*
G36*
X149301000Y-85551000D02*
G01*
X146699000Y-85551000D01*
X146699000Y-81449000D01*
X149301000Y-81449000D01*
X149301000Y-85551000D01*
X149301000Y-85551000D01*
G37*
G36*
X171951000Y-84801000D02*
G01*
X170049000Y-84801000D01*
X170049000Y-82199000D01*
X171951000Y-82199000D01*
X171951000Y-84801000D01*
X171951000Y-84801000D01*
G37*
G36*
X193610443Y-81645519D02*
G01*
X193676627Y-81652037D01*
X193846466Y-81703557D01*
X194002991Y-81787222D01*
X194038729Y-81816552D01*
X194140186Y-81899814D01*
X194212351Y-81987749D01*
X194252778Y-82037009D01*
X194336443Y-82193534D01*
X194387963Y-82363373D01*
X194405359Y-82540000D01*
X194387963Y-82716627D01*
X194373068Y-82765729D01*
X194336442Y-82886468D01*
X194327405Y-82903374D01*
X194252778Y-83042991D01*
X194240373Y-83058106D01*
X194140186Y-83180186D01*
X194038729Y-83263448D01*
X194002991Y-83292778D01*
X193846466Y-83376443D01*
X193676627Y-83427963D01*
X193610442Y-83434482D01*
X193544260Y-83441000D01*
X193455740Y-83441000D01*
X193389558Y-83434482D01*
X193323373Y-83427963D01*
X193153534Y-83376443D01*
X192997009Y-83292778D01*
X192961271Y-83263448D01*
X192859814Y-83180186D01*
X192759627Y-83058106D01*
X192747222Y-83042991D01*
X192672595Y-82903374D01*
X192663558Y-82886468D01*
X192626932Y-82765729D01*
X192612037Y-82716627D01*
X192594641Y-82540000D01*
X192612037Y-82363373D01*
X192663557Y-82193534D01*
X192747222Y-82037009D01*
X192787649Y-81987749D01*
X192859814Y-81899814D01*
X192961271Y-81816552D01*
X192997009Y-81787222D01*
X193153534Y-81703557D01*
X193323373Y-81652037D01*
X193389557Y-81645519D01*
X193455740Y-81639000D01*
X193544260Y-81639000D01*
X193610443Y-81645519D01*
X193610443Y-81645519D01*
G37*
G36*
X194401000Y-80901000D02*
G01*
X192599000Y-80901000D01*
X192599000Y-79099000D01*
X194401000Y-79099000D01*
X194401000Y-80901000D01*
X194401000Y-80901000D01*
G37*
G36*
X190901000Y-80901000D02*
G01*
X189099000Y-80901000D01*
X189099000Y-79099000D01*
X190901000Y-79099000D01*
X190901000Y-80901000D01*
X190901000Y-80901000D01*
G37*
G36*
X171951000Y-80801000D02*
G01*
X170049000Y-80801000D01*
X170049000Y-78199000D01*
X171951000Y-78199000D01*
X171951000Y-80801000D01*
X171951000Y-80801000D01*
G37*
G36*
X207176000Y-80551000D02*
G01*
X205824000Y-80551000D01*
X205824000Y-79449000D01*
X207176000Y-79449000D01*
X207176000Y-80551000D01*
X207176000Y-80551000D01*
G37*
G36*
X204201000Y-80401000D02*
G01*
X202799000Y-80401000D01*
X202799000Y-79599000D01*
X204201000Y-79599000D01*
X204201000Y-80401000D01*
X204201000Y-80401000D01*
G37*
G36*
X210601000Y-79961000D02*
G01*
X208999000Y-79961000D01*
X208999000Y-79259000D01*
X210601000Y-79259000D01*
X210601000Y-79961000D01*
X210601000Y-79961000D01*
G37*
G36*
X216051000Y-79961000D02*
G01*
X214449000Y-79961000D01*
X214449000Y-79259000D01*
X216051000Y-79259000D01*
X216051000Y-79961000D01*
X216051000Y-79961000D01*
G37*
G36*
X180051000Y-79601000D02*
G01*
X178149000Y-79601000D01*
X178149000Y-78499000D01*
X180051000Y-78499000D01*
X180051000Y-79601000D01*
X180051000Y-79601000D01*
G37*
G36*
X183326000Y-79601000D02*
G01*
X181774000Y-79601000D01*
X181774000Y-77099000D01*
X183326000Y-77099000D01*
X183326000Y-79601000D01*
X183326000Y-79601000D01*
G37*
G36*
X187726000Y-79601000D02*
G01*
X186174000Y-79601000D01*
X186174000Y-77099000D01*
X187726000Y-77099000D01*
X187726000Y-79601000D01*
X187726000Y-79601000D01*
G37*
G36*
X220176000Y-79551000D02*
G01*
X218824000Y-79551000D01*
X218824000Y-78449000D01*
X220176000Y-78449000D01*
X220176000Y-79551000D01*
X220176000Y-79551000D01*
G37*
G36*
X149301000Y-79451000D02*
G01*
X146699000Y-79451000D01*
X146699000Y-75349000D01*
X149301000Y-75349000D01*
X149301000Y-79451000D01*
X149301000Y-79451000D01*
G37*
G36*
X175151000Y-79376000D02*
G01*
X174049000Y-79376000D01*
X174049000Y-78024000D01*
X175151000Y-78024000D01*
X175151000Y-79376000D01*
X175151000Y-79376000D01*
G37*
G36*
X177151000Y-79376000D02*
G01*
X176049000Y-79376000D01*
X176049000Y-78024000D01*
X177151000Y-78024000D01*
X177151000Y-79376000D01*
X177151000Y-79376000D01*
G37*
G36*
X213701000Y-78901000D02*
G01*
X211399000Y-78901000D01*
X211399000Y-76599000D01*
X213701000Y-76599000D01*
X213701000Y-78901000D01*
X213701000Y-78901000D01*
G37*
G36*
X216051000Y-78691000D02*
G01*
X214449000Y-78691000D01*
X214449000Y-77989000D01*
X216051000Y-77989000D01*
X216051000Y-78691000D01*
X216051000Y-78691000D01*
G37*
G36*
X210601000Y-78691000D02*
G01*
X208999000Y-78691000D01*
X208999000Y-77989000D01*
X210601000Y-77989000D01*
X210601000Y-78691000D01*
X210601000Y-78691000D01*
G37*
G36*
X207176000Y-78551000D02*
G01*
X205824000Y-78551000D01*
X205824000Y-77449000D01*
X207176000Y-77449000D01*
X207176000Y-78551000D01*
X207176000Y-78551000D01*
G37*
G36*
X204201000Y-78501000D02*
G01*
X202799000Y-78501000D01*
X202799000Y-77699000D01*
X204201000Y-77699000D01*
X204201000Y-78501000D01*
X204201000Y-78501000D01*
G37*
G36*
X220176000Y-77551000D02*
G01*
X218824000Y-77551000D01*
X218824000Y-76449000D01*
X220176000Y-76449000D01*
X220176000Y-77551000D01*
X220176000Y-77551000D01*
G37*
G36*
X210601000Y-77421000D02*
G01*
X208999000Y-77421000D01*
X208999000Y-76719000D01*
X210601000Y-76719000D01*
X210601000Y-77421000D01*
X210601000Y-77421000D01*
G37*
G36*
X216051000Y-77421000D02*
G01*
X214449000Y-77421000D01*
X214449000Y-76719000D01*
X216051000Y-76719000D01*
X216051000Y-77421000D01*
X216051000Y-77421000D01*
G37*
G36*
X180051000Y-77101000D02*
G01*
X178149000Y-77101000D01*
X178149000Y-75999000D01*
X180051000Y-75999000D01*
X180051000Y-77101000D01*
X180051000Y-77101000D01*
G37*
G36*
X177101000Y-76526000D02*
G01*
X175999000Y-76526000D01*
X175999000Y-75174000D01*
X177101000Y-75174000D01*
X177101000Y-76526000D01*
X177101000Y-76526000D01*
G37*
G36*
X175101000Y-76526000D02*
G01*
X173999000Y-76526000D01*
X173999000Y-75174000D01*
X175101000Y-75174000D01*
X175101000Y-76526000D01*
X175101000Y-76526000D01*
G37*
G36*
X207201000Y-76301000D02*
G01*
X205799000Y-76301000D01*
X205799000Y-75499000D01*
X207201000Y-75499000D01*
X207201000Y-76301000D01*
X207201000Y-76301000D01*
G37*
G36*
X193765999Y-76226001D02*
G01*
X192413999Y-76226001D01*
X192413999Y-75124001D01*
X193765999Y-75124001D01*
X193765999Y-76226001D01*
X193765999Y-76226001D01*
G37*
G36*
X190945999Y-76226001D02*
G01*
X189593999Y-76226001D01*
X189593999Y-75124001D01*
X190945999Y-75124001D01*
X190945999Y-76226001D01*
X190945999Y-76226001D01*
G37*
G36*
X216051000Y-76151000D02*
G01*
X214449000Y-76151000D01*
X214449000Y-75449000D01*
X216051000Y-75449000D01*
X216051000Y-76151000D01*
X216051000Y-76151000D01*
G37*
G36*
X210601000Y-76151000D02*
G01*
X208999000Y-76151000D01*
X208999000Y-75449000D01*
X210601000Y-75449000D01*
X210601000Y-76151000D01*
X210601000Y-76151000D01*
G37*
G36*
X200451000Y-76051000D02*
G01*
X199549000Y-76051000D01*
X199549000Y-75349000D01*
X200451000Y-75349000D01*
X200451000Y-76051000D01*
X200451000Y-76051000D01*
G37*
G36*
X203951000Y-76051000D02*
G01*
X203049000Y-76051000D01*
X203049000Y-75349000D01*
X203951000Y-75349000D01*
X203951000Y-76051000D01*
X203951000Y-76051000D01*
G37*
G36*
X207201000Y-74401000D02*
G01*
X205799000Y-74401000D01*
X205799000Y-73599000D01*
X207201000Y-73599000D01*
X207201000Y-74401000D01*
X207201000Y-74401000D01*
G37*
G36*
X200451000Y-74351000D02*
G01*
X199549000Y-74351000D01*
X199549000Y-73649000D01*
X200451000Y-73649000D01*
X200451000Y-74351000D01*
X200451000Y-74351000D01*
G37*
G36*
X203951000Y-74351000D02*
G01*
X203049000Y-74351000D01*
X203049000Y-73649000D01*
X203951000Y-73649000D01*
X203951000Y-74351000D01*
X203951000Y-74351000D01*
G37*
G36*
X190945999Y-74226001D02*
G01*
X189593999Y-74226001D01*
X189593999Y-73124001D01*
X190945999Y-73124001D01*
X190945999Y-74226001D01*
X190945999Y-74226001D01*
G37*
G36*
X193765999Y-74226001D02*
G01*
X192413999Y-74226001D01*
X192413999Y-73124001D01*
X193765999Y-73124001D01*
X193765999Y-74226001D01*
X193765999Y-74226001D01*
G37*
G36*
X241468412Y-68145134D02*
G01*
X241700346Y-68191269D01*
X242137300Y-68372262D01*
X242530548Y-68635022D01*
X242864978Y-68969452D01*
X243127738Y-69362700D01*
X243308731Y-69799654D01*
X243401000Y-70263522D01*
X243401000Y-70736478D01*
X243308731Y-71200346D01*
X243127738Y-71637300D01*
X242864978Y-72030548D01*
X242530548Y-72364978D01*
X242137300Y-72627738D01*
X241700346Y-72808731D01*
X241468412Y-72854866D01*
X241236479Y-72901000D01*
X240763521Y-72901000D01*
X240531588Y-72854865D01*
X240299654Y-72808731D01*
X239862700Y-72627738D01*
X239469452Y-72364978D01*
X239135022Y-72030548D01*
X238872262Y-71637300D01*
X238691269Y-71200346D01*
X238599000Y-70736478D01*
X238599000Y-70263522D01*
X238691269Y-69799654D01*
X238872262Y-69362700D01*
X239135022Y-68969452D01*
X239469452Y-68635022D01*
X239862700Y-68372262D01*
X240299654Y-68191269D01*
X240531588Y-68145134D01*
X240763521Y-68099000D01*
X241236479Y-68099000D01*
X241468412Y-68145134D01*
X241468412Y-68145134D01*
G37*
G36*
X147968412Y-68145134D02*
G01*
X148200346Y-68191269D01*
X148637300Y-68372262D01*
X149030548Y-68635022D01*
X149364978Y-68969452D01*
X149627738Y-69362700D01*
X149808731Y-69799654D01*
X149901000Y-70263522D01*
X149901000Y-70736478D01*
X149808731Y-71200346D01*
X149627738Y-71637300D01*
X149364978Y-72030548D01*
X149030548Y-72364978D01*
X148637300Y-72627738D01*
X148200346Y-72808731D01*
X147968412Y-72854865D01*
X147736479Y-72901000D01*
X147263521Y-72901000D01*
X147031588Y-72854865D01*
X146799654Y-72808731D01*
X146362700Y-72627738D01*
X145969452Y-72364978D01*
X145635022Y-72030548D01*
X145372262Y-71637300D01*
X145191269Y-71200346D01*
X145099000Y-70736478D01*
X145099000Y-70263522D01*
X145191269Y-69799654D01*
X145372262Y-69362700D01*
X145635022Y-68969452D01*
X145969452Y-68635022D01*
X146362700Y-68372262D01*
X146799654Y-68191269D01*
X147031588Y-68145134D01*
X147263521Y-68099000D01*
X147736479Y-68099000D01*
X147968412Y-68145134D01*
X147968412Y-68145134D01*
G37*
M02*
