G04 #@! TF.GenerationSoftware,KiCad,Pcbnew,5.1.2*
G04 #@! TF.CreationDate,2019-05-24T08:55:17-05:00*
G04 #@! TF.ProjectId,Cluster,436c7573-7465-4722-9e6b-696361645f70,rev?*
G04 #@! TF.SameCoordinates,Original*
G04 #@! TF.FileFunction,Legend,Bot*
G04 #@! TF.FilePolarity,Positive*
%FSLAX46Y46*%
G04 Gerber Fmt 4.6, Leading zero omitted, Abs format (unit mm)*
G04 Created by KiCad (PCBNEW 5.1.2) date 2019-05-24 08:55:17*
%MOMM*%
%LPD*%
G04 APERTURE LIST*
%ADD10C,0.120000*%
%ADD11C,0.150000*%
G04 APERTURE END LIST*
D10*
X198595000Y-117560000D02*
X198294493Y-117560000D01*
X197505507Y-117560000D02*
X197205000Y-117560000D01*
X198595000Y-78685000D02*
X198595000Y-117560000D01*
X197205000Y-78685000D02*
X197205000Y-117560000D01*
X198595000Y-78685000D02*
X198508276Y-78685000D01*
X197291724Y-78685000D02*
X197205000Y-78685000D01*
X198595000Y-78000000D02*
X198595000Y-77315000D01*
X198595000Y-77315000D02*
X197900000Y-77315000D01*
X214500000Y-67400000D02*
X215500000Y-67400000D01*
X215500000Y-69100000D02*
X214500000Y-69100000D01*
X204000000Y-69100000D02*
X203000000Y-69100000D01*
X203000000Y-67400000D02*
X204000000Y-67400000D01*
X191500000Y-67400000D02*
X192500000Y-67400000D01*
X192500000Y-69100000D02*
X191500000Y-69100000D01*
X181000000Y-69100000D02*
X180000000Y-69100000D01*
X180000000Y-67400000D02*
X181000000Y-67400000D01*
X168500000Y-67400000D02*
X169500000Y-67400000D01*
X169500000Y-69100000D02*
X168500000Y-69100000D01*
X207500000Y-74500000D02*
X214500000Y-74500000D01*
X207500000Y-69300000D02*
X214500000Y-69300000D01*
X214500000Y-69300000D02*
X214500000Y-70300000D01*
X203000000Y-69300000D02*
X203000000Y-70300000D01*
X196000000Y-69300000D02*
X203000000Y-69300000D01*
X196000000Y-74500000D02*
X203000000Y-74500000D01*
X184500000Y-74500000D02*
X191500000Y-74500000D01*
X184500000Y-69300000D02*
X191500000Y-69300000D01*
X191500000Y-69300000D02*
X191500000Y-70300000D01*
X180000000Y-69300000D02*
X180000000Y-70300000D01*
X173000000Y-69300000D02*
X180000000Y-69300000D01*
X173000000Y-74500000D02*
X180000000Y-74500000D01*
X161500000Y-74500000D02*
X168500000Y-74500000D01*
X161500000Y-69300000D02*
X168500000Y-69300000D01*
X168500000Y-69300000D02*
X168500000Y-70300000D01*
D11*
X198233333Y-75892380D02*
X198233333Y-76606666D01*
X198280952Y-76749523D01*
X198376190Y-76844761D01*
X198519047Y-76892380D01*
X198614285Y-76892380D01*
X197709523Y-76892380D02*
X197519047Y-76892380D01*
X197423809Y-76844761D01*
X197376190Y-76797142D01*
X197280952Y-76654285D01*
X197233333Y-76463809D01*
X197233333Y-76082857D01*
X197280952Y-75987619D01*
X197328571Y-75940000D01*
X197423809Y-75892380D01*
X197614285Y-75892380D01*
X197709523Y-75940000D01*
X197757142Y-75987619D01*
X197804761Y-76082857D01*
X197804761Y-76320952D01*
X197757142Y-76416190D01*
X197709523Y-76463809D01*
X197614285Y-76511428D01*
X197423809Y-76511428D01*
X197328571Y-76463809D01*
X197280952Y-76416190D01*
X197233333Y-76320952D01*
X215642857Y-67107142D02*
X215690476Y-67154761D01*
X215833333Y-67202380D01*
X215928571Y-67202380D01*
X216071428Y-67154761D01*
X216166666Y-67059523D01*
X216214285Y-66964285D01*
X216261904Y-66773809D01*
X216261904Y-66630952D01*
X216214285Y-66440476D01*
X216166666Y-66345238D01*
X216071428Y-66250000D01*
X215928571Y-66202380D01*
X215833333Y-66202380D01*
X215690476Y-66250000D01*
X215642857Y-66297619D01*
X215261904Y-66297619D02*
X215214285Y-66250000D01*
X215119047Y-66202380D01*
X214880952Y-66202380D01*
X214785714Y-66250000D01*
X214738095Y-66297619D01*
X214690476Y-66392857D01*
X214690476Y-66488095D01*
X214738095Y-66630952D01*
X215309523Y-67202380D01*
X214690476Y-67202380D01*
X214071428Y-66202380D02*
X213976190Y-66202380D01*
X213880952Y-66250000D01*
X213833333Y-66297619D01*
X213785714Y-66392857D01*
X213738095Y-66583333D01*
X213738095Y-66821428D01*
X213785714Y-67011904D01*
X213833333Y-67107142D01*
X213880952Y-67154761D01*
X213976190Y-67202380D01*
X214071428Y-67202380D01*
X214166666Y-67154761D01*
X214214285Y-67107142D01*
X214261904Y-67011904D01*
X214309523Y-66821428D01*
X214309523Y-66583333D01*
X214261904Y-66392857D01*
X214214285Y-66297619D01*
X214166666Y-66250000D01*
X214071428Y-66202380D01*
X204142857Y-67107142D02*
X204190476Y-67154761D01*
X204333333Y-67202380D01*
X204428571Y-67202380D01*
X204571428Y-67154761D01*
X204666666Y-67059523D01*
X204714285Y-66964285D01*
X204761904Y-66773809D01*
X204761904Y-66630952D01*
X204714285Y-66440476D01*
X204666666Y-66345238D01*
X204571428Y-66250000D01*
X204428571Y-66202380D01*
X204333333Y-66202380D01*
X204190476Y-66250000D01*
X204142857Y-66297619D01*
X203761904Y-66297619D02*
X203714285Y-66250000D01*
X203619047Y-66202380D01*
X203380952Y-66202380D01*
X203285714Y-66250000D01*
X203238095Y-66297619D01*
X203190476Y-66392857D01*
X203190476Y-66488095D01*
X203238095Y-66630952D01*
X203809523Y-67202380D01*
X203190476Y-67202380D01*
X202857142Y-66202380D02*
X202190476Y-66202380D01*
X202619047Y-67202380D01*
X192642857Y-67107142D02*
X192690476Y-67154761D01*
X192833333Y-67202380D01*
X192928571Y-67202380D01*
X193071428Y-67154761D01*
X193166666Y-67059523D01*
X193214285Y-66964285D01*
X193261904Y-66773809D01*
X193261904Y-66630952D01*
X193214285Y-66440476D01*
X193166666Y-66345238D01*
X193071428Y-66250000D01*
X192928571Y-66202380D01*
X192833333Y-66202380D01*
X192690476Y-66250000D01*
X192642857Y-66297619D01*
X192261904Y-66297619D02*
X192214285Y-66250000D01*
X192119047Y-66202380D01*
X191880952Y-66202380D01*
X191785714Y-66250000D01*
X191738095Y-66297619D01*
X191690476Y-66392857D01*
X191690476Y-66488095D01*
X191738095Y-66630952D01*
X192309523Y-67202380D01*
X191690476Y-67202380D01*
X191119047Y-66630952D02*
X191214285Y-66583333D01*
X191261904Y-66535714D01*
X191309523Y-66440476D01*
X191309523Y-66392857D01*
X191261904Y-66297619D01*
X191214285Y-66250000D01*
X191119047Y-66202380D01*
X190928571Y-66202380D01*
X190833333Y-66250000D01*
X190785714Y-66297619D01*
X190738095Y-66392857D01*
X190738095Y-66440476D01*
X190785714Y-66535714D01*
X190833333Y-66583333D01*
X190928571Y-66630952D01*
X191119047Y-66630952D01*
X191214285Y-66678571D01*
X191261904Y-66726190D01*
X191309523Y-66821428D01*
X191309523Y-67011904D01*
X191261904Y-67107142D01*
X191214285Y-67154761D01*
X191119047Y-67202380D01*
X190928571Y-67202380D01*
X190833333Y-67154761D01*
X190785714Y-67107142D01*
X190738095Y-67011904D01*
X190738095Y-66821428D01*
X190785714Y-66726190D01*
X190833333Y-66678571D01*
X190928571Y-66630952D01*
X181142857Y-67107142D02*
X181190476Y-67154761D01*
X181333333Y-67202380D01*
X181428571Y-67202380D01*
X181571428Y-67154761D01*
X181666666Y-67059523D01*
X181714285Y-66964285D01*
X181761904Y-66773809D01*
X181761904Y-66630952D01*
X181714285Y-66440476D01*
X181666666Y-66345238D01*
X181571428Y-66250000D01*
X181428571Y-66202380D01*
X181333333Y-66202380D01*
X181190476Y-66250000D01*
X181142857Y-66297619D01*
X180761904Y-66297619D02*
X180714285Y-66250000D01*
X180619047Y-66202380D01*
X180380952Y-66202380D01*
X180285714Y-66250000D01*
X180238095Y-66297619D01*
X180190476Y-66392857D01*
X180190476Y-66488095D01*
X180238095Y-66630952D01*
X180809523Y-67202380D01*
X180190476Y-67202380D01*
X179714285Y-67202380D02*
X179523809Y-67202380D01*
X179428571Y-67154761D01*
X179380952Y-67107142D01*
X179285714Y-66964285D01*
X179238095Y-66773809D01*
X179238095Y-66392857D01*
X179285714Y-66297619D01*
X179333333Y-66250000D01*
X179428571Y-66202380D01*
X179619047Y-66202380D01*
X179714285Y-66250000D01*
X179761904Y-66297619D01*
X179809523Y-66392857D01*
X179809523Y-66630952D01*
X179761904Y-66726190D01*
X179714285Y-66773809D01*
X179619047Y-66821428D01*
X179428571Y-66821428D01*
X179333333Y-66773809D01*
X179285714Y-66726190D01*
X179238095Y-66630952D01*
X169642857Y-67107142D02*
X169690476Y-67154761D01*
X169833333Y-67202380D01*
X169928571Y-67202380D01*
X170071428Y-67154761D01*
X170166666Y-67059523D01*
X170214285Y-66964285D01*
X170261904Y-66773809D01*
X170261904Y-66630952D01*
X170214285Y-66440476D01*
X170166666Y-66345238D01*
X170071428Y-66250000D01*
X169928571Y-66202380D01*
X169833333Y-66202380D01*
X169690476Y-66250000D01*
X169642857Y-66297619D01*
X169309523Y-66202380D02*
X168690476Y-66202380D01*
X169023809Y-66583333D01*
X168880952Y-66583333D01*
X168785714Y-66630952D01*
X168738095Y-66678571D01*
X168690476Y-66773809D01*
X168690476Y-67011904D01*
X168738095Y-67107142D01*
X168785714Y-67154761D01*
X168880952Y-67202380D01*
X169166666Y-67202380D01*
X169261904Y-67154761D01*
X169309523Y-67107142D01*
X168071428Y-66202380D02*
X167976190Y-66202380D01*
X167880952Y-66250000D01*
X167833333Y-66297619D01*
X167785714Y-66392857D01*
X167738095Y-66583333D01*
X167738095Y-66821428D01*
X167785714Y-67011904D01*
X167833333Y-67107142D01*
X167880952Y-67154761D01*
X167976190Y-67202380D01*
X168071428Y-67202380D01*
X168166666Y-67154761D01*
X168214285Y-67107142D01*
X168261904Y-67011904D01*
X168309523Y-66821428D01*
X168309523Y-66583333D01*
X168261904Y-66392857D01*
X168214285Y-66297619D01*
X168166666Y-66250000D01*
X168071428Y-66202380D01*
X211738095Y-75852380D02*
X211738095Y-74852380D01*
X211500000Y-74852380D01*
X211357142Y-74900000D01*
X211261904Y-74995238D01*
X211214285Y-75090476D01*
X211166666Y-75280952D01*
X211166666Y-75423809D01*
X211214285Y-75614285D01*
X211261904Y-75709523D01*
X211357142Y-75804761D01*
X211500000Y-75852380D01*
X211738095Y-75852380D01*
X210261904Y-74852380D02*
X210738095Y-74852380D01*
X210785714Y-75328571D01*
X210738095Y-75280952D01*
X210642857Y-75233333D01*
X210404761Y-75233333D01*
X210309523Y-75280952D01*
X210261904Y-75328571D01*
X210214285Y-75423809D01*
X210214285Y-75661904D01*
X210261904Y-75757142D01*
X210309523Y-75804761D01*
X210404761Y-75852380D01*
X210642857Y-75852380D01*
X210738095Y-75804761D01*
X210785714Y-75757142D01*
X200238095Y-75852380D02*
X200238095Y-74852380D01*
X200000000Y-74852380D01*
X199857142Y-74900000D01*
X199761904Y-74995238D01*
X199714285Y-75090476D01*
X199666666Y-75280952D01*
X199666666Y-75423809D01*
X199714285Y-75614285D01*
X199761904Y-75709523D01*
X199857142Y-75804761D01*
X200000000Y-75852380D01*
X200238095Y-75852380D01*
X198809523Y-74852380D02*
X199000000Y-74852380D01*
X199095238Y-74900000D01*
X199142857Y-74947619D01*
X199238095Y-75090476D01*
X199285714Y-75280952D01*
X199285714Y-75661904D01*
X199238095Y-75757142D01*
X199190476Y-75804761D01*
X199095238Y-75852380D01*
X198904761Y-75852380D01*
X198809523Y-75804761D01*
X198761904Y-75757142D01*
X198714285Y-75661904D01*
X198714285Y-75423809D01*
X198761904Y-75328571D01*
X198809523Y-75280952D01*
X198904761Y-75233333D01*
X199095238Y-75233333D01*
X199190476Y-75280952D01*
X199238095Y-75328571D01*
X199285714Y-75423809D01*
X188738095Y-75852380D02*
X188738095Y-74852380D01*
X188500000Y-74852380D01*
X188357142Y-74900000D01*
X188261904Y-74995238D01*
X188214285Y-75090476D01*
X188166666Y-75280952D01*
X188166666Y-75423809D01*
X188214285Y-75614285D01*
X188261904Y-75709523D01*
X188357142Y-75804761D01*
X188500000Y-75852380D01*
X188738095Y-75852380D01*
X187833333Y-74852380D02*
X187166666Y-74852380D01*
X187595238Y-75852380D01*
X177238095Y-75852380D02*
X177238095Y-74852380D01*
X177000000Y-74852380D01*
X176857142Y-74900000D01*
X176761904Y-74995238D01*
X176714285Y-75090476D01*
X176666666Y-75280952D01*
X176666666Y-75423809D01*
X176714285Y-75614285D01*
X176761904Y-75709523D01*
X176857142Y-75804761D01*
X177000000Y-75852380D01*
X177238095Y-75852380D01*
X176095238Y-75280952D02*
X176190476Y-75233333D01*
X176238095Y-75185714D01*
X176285714Y-75090476D01*
X176285714Y-75042857D01*
X176238095Y-74947619D01*
X176190476Y-74900000D01*
X176095238Y-74852380D01*
X175904761Y-74852380D01*
X175809523Y-74900000D01*
X175761904Y-74947619D01*
X175714285Y-75042857D01*
X175714285Y-75090476D01*
X175761904Y-75185714D01*
X175809523Y-75233333D01*
X175904761Y-75280952D01*
X176095238Y-75280952D01*
X176190476Y-75328571D01*
X176238095Y-75376190D01*
X176285714Y-75471428D01*
X176285714Y-75661904D01*
X176238095Y-75757142D01*
X176190476Y-75804761D01*
X176095238Y-75852380D01*
X175904761Y-75852380D01*
X175809523Y-75804761D01*
X175761904Y-75757142D01*
X175714285Y-75661904D01*
X175714285Y-75471428D01*
X175761904Y-75376190D01*
X175809523Y-75328571D01*
X175904761Y-75280952D01*
X165738095Y-75852380D02*
X165738095Y-74852380D01*
X165500000Y-74852380D01*
X165357142Y-74900000D01*
X165261904Y-74995238D01*
X165214285Y-75090476D01*
X165166666Y-75280952D01*
X165166666Y-75423809D01*
X165214285Y-75614285D01*
X165261904Y-75709523D01*
X165357142Y-75804761D01*
X165500000Y-75852380D01*
X165738095Y-75852380D01*
X164690476Y-75852380D02*
X164500000Y-75852380D01*
X164404761Y-75804761D01*
X164357142Y-75757142D01*
X164261904Y-75614285D01*
X164214285Y-75423809D01*
X164214285Y-75042857D01*
X164261904Y-74947619D01*
X164309523Y-74900000D01*
X164404761Y-74852380D01*
X164595238Y-74852380D01*
X164690476Y-74900000D01*
X164738095Y-74947619D01*
X164785714Y-75042857D01*
X164785714Y-75280952D01*
X164738095Y-75376190D01*
X164690476Y-75423809D01*
X164595238Y-75471428D01*
X164404761Y-75471428D01*
X164309523Y-75423809D01*
X164261904Y-75376190D01*
X164214285Y-75280952D01*
M02*
