G04 #@! TF.GenerationSoftware,KiCad,Pcbnew,5.1.2*
G04 #@! TF.CreationDate,2019-05-24T08:55:17-05:00*
G04 #@! TF.ProjectId,Cluster,436c7573-7465-4722-9e6b-696361645f70,rev?*
G04 #@! TF.SameCoordinates,Original*
G04 #@! TF.FileFunction,Paste,Top*
G04 #@! TF.FilePolarity,Positive*
%FSLAX46Y46*%
G04 Gerber Fmt 4.6, Leading zero omitted, Abs format (unit mm)*
G04 Created by KiCad (PCBNEW 5.1.2) date 2019-05-24 08:55:17*
%MOMM*%
%LPD*%
G04 APERTURE LIST*
%ADD10R,2.500000X4.000000*%
%ADD11R,1.250000X1.000000*%
%ADD12R,1.000000X1.250000*%
%ADD13R,1.500000X2.400000*%
%ADD14R,1.300000X0.700000*%
%ADD15R,2.000000X2.400000*%
%ADD16R,1.800000X2.500000*%
%ADD17R,0.350000X0.520000*%
%ADD18R,0.520000X0.350000*%
%ADD19R,4.600000X1.100000*%
%ADD20R,4.550000X5.250000*%
%ADD21R,1.000000X0.250000*%
%ADD22R,0.250000X1.000000*%
%ADD23R,6.000000X5.500000*%
%ADD24R,0.800000X0.600000*%
%ADD25R,1.450000X0.450000*%
%ADD26R,1.500000X0.600000*%
%ADD27R,2.200000X2.200000*%
%ADD28R,1.800000X1.000000*%
%ADD29C,0.100000*%
%ADD30C,0.975000*%
%ADD31C,0.875000*%
%ADD32R,1.100000X0.250000*%
%ADD33R,1.500000X1.700000*%
%ADD34R,0.600000X1.100000*%
G04 APERTURE END LIST*
D10*
X148000000Y-83500000D03*
X148000000Y-77400000D03*
X184000000Y-90500000D03*
X184000000Y-84400000D03*
D11*
X159700000Y-93200000D03*
X159700000Y-91200000D03*
D12*
X150000000Y-102500000D03*
X148000000Y-102500000D03*
X148000000Y-105500000D03*
X150000000Y-105500000D03*
X155900000Y-113700000D03*
X153900000Y-113700000D03*
D11*
X169000000Y-124500000D03*
X169000000Y-122500000D03*
D13*
X171000000Y-90000000D03*
X176500000Y-90000000D03*
D14*
X166700000Y-93200000D03*
X166700000Y-91300000D03*
X163200000Y-93100000D03*
X163200000Y-91200000D03*
X175500000Y-98600000D03*
X175500000Y-100500000D03*
X172000000Y-98600000D03*
X172000000Y-100500000D03*
D15*
X156700000Y-105500000D03*
X153000000Y-105500000D03*
D16*
X171000000Y-83500000D03*
X171000000Y-79500000D03*
D17*
X179500000Y-104225000D03*
X180000000Y-104225000D03*
X180500000Y-104225000D03*
D18*
X181225000Y-104000000D03*
X181225000Y-103500000D03*
X181225000Y-103000000D03*
X181225000Y-102500000D03*
X181225000Y-102000000D03*
D17*
X180500000Y-101775000D03*
X180000000Y-101775000D03*
X179500000Y-101775000D03*
D18*
X178775000Y-102000000D03*
X178775000Y-102500000D03*
X178775000Y-103000000D03*
X178775000Y-103500000D03*
X178775000Y-104000000D03*
D19*
X155050001Y-78400000D03*
X155050001Y-80100000D03*
X155050001Y-81800000D03*
X155050001Y-83500000D03*
X155050001Y-85200000D03*
D20*
X166625001Y-84575000D03*
X161775001Y-79025000D03*
X166625001Y-79025000D03*
X161775001Y-84575000D03*
D21*
X160550000Y-108950000D03*
X160550000Y-109450000D03*
X160550000Y-109950000D03*
X160550000Y-110450000D03*
X160550000Y-110950000D03*
X160550000Y-111450000D03*
X160550000Y-111950000D03*
X160550000Y-112450000D03*
X160550000Y-112950000D03*
X160550000Y-113450000D03*
X160550000Y-113950000D03*
X160550000Y-114450000D03*
X160550000Y-114950000D03*
X160550000Y-115450000D03*
X160550000Y-115950000D03*
X160550000Y-116450000D03*
D22*
X162500000Y-118400000D03*
X163000000Y-118400000D03*
X163500000Y-118400000D03*
X164000000Y-118400000D03*
X164500000Y-118400000D03*
X165000000Y-118400000D03*
X165500000Y-118400000D03*
X166000000Y-118400000D03*
X166500000Y-118400000D03*
X167000000Y-118400000D03*
X167500000Y-118400000D03*
X168000000Y-118400000D03*
X168500000Y-118400000D03*
X169000000Y-118400000D03*
X169500000Y-118400000D03*
X170000000Y-118400000D03*
D21*
X171950000Y-116450000D03*
X171950000Y-115950000D03*
X171950000Y-115450000D03*
X171950000Y-114950000D03*
X171950000Y-114450000D03*
X171950000Y-113950000D03*
X171950000Y-113450000D03*
X171950000Y-112950000D03*
X171950000Y-112450000D03*
X171950000Y-111950000D03*
X171950000Y-111450000D03*
X171950000Y-110950000D03*
X171950000Y-110450000D03*
X171950000Y-109950000D03*
X171950000Y-109450000D03*
X171950000Y-108950000D03*
D22*
X170000000Y-107000000D03*
X169500000Y-107000000D03*
X169000000Y-107000000D03*
X168500000Y-107000000D03*
X168000000Y-107000000D03*
X167500000Y-107000000D03*
X167000000Y-107000000D03*
X166500000Y-107000000D03*
X166000000Y-107000000D03*
X165500000Y-107000000D03*
X165000000Y-107000000D03*
X164500000Y-107000000D03*
X164000000Y-107000000D03*
X163500000Y-107000000D03*
X163000000Y-107000000D03*
X162500000Y-107000000D03*
D12*
X174550000Y-75850000D03*
X176550000Y-75850000D03*
X176600000Y-78700000D03*
X174600000Y-78700000D03*
D11*
X206500000Y-78000000D03*
X206500000Y-80000000D03*
X193089999Y-75675001D03*
X193089999Y-73675001D03*
X219500000Y-79000000D03*
X219500000Y-77000000D03*
X190269999Y-73675001D03*
X190269999Y-75675001D03*
D14*
X206500000Y-75900000D03*
X206500000Y-74000000D03*
D23*
X207500000Y-131800000D03*
X238100000Y-131800000D03*
D24*
X200000000Y-75700000D03*
X200000000Y-74000000D03*
X203500000Y-74000000D03*
X203500000Y-75700000D03*
D14*
X203500000Y-78100000D03*
X203500000Y-80000000D03*
D25*
X182550000Y-77375000D03*
X182550000Y-78025000D03*
X182550000Y-78675000D03*
X182550000Y-79325000D03*
X186950000Y-79325000D03*
X186950000Y-78675000D03*
X186950000Y-78025000D03*
X186950000Y-77375000D03*
D26*
X209800000Y-75800000D03*
X209800000Y-77070000D03*
X209800000Y-78340000D03*
X209800000Y-79610000D03*
X215250000Y-78340000D03*
X215250000Y-79610000D03*
X215250000Y-75800000D03*
X215250000Y-77070000D03*
D27*
X212550000Y-77750000D03*
D28*
X179100000Y-76550000D03*
X179100000Y-79050000D03*
D29*
G36*
X160192642Y-104501174D02*
G01*
X160216303Y-104504684D01*
X160239507Y-104510496D01*
X160262029Y-104518554D01*
X160283653Y-104528782D01*
X160304170Y-104541079D01*
X160323383Y-104555329D01*
X160341107Y-104571393D01*
X160357171Y-104589117D01*
X160371421Y-104608330D01*
X160383718Y-104628847D01*
X160393946Y-104650471D01*
X160402004Y-104672993D01*
X160407816Y-104696197D01*
X160411326Y-104719858D01*
X160412500Y-104743750D01*
X160412500Y-105656250D01*
X160411326Y-105680142D01*
X160407816Y-105703803D01*
X160402004Y-105727007D01*
X160393946Y-105749529D01*
X160383718Y-105771153D01*
X160371421Y-105791670D01*
X160357171Y-105810883D01*
X160341107Y-105828607D01*
X160323383Y-105844671D01*
X160304170Y-105858921D01*
X160283653Y-105871218D01*
X160262029Y-105881446D01*
X160239507Y-105889504D01*
X160216303Y-105895316D01*
X160192642Y-105898826D01*
X160168750Y-105900000D01*
X159681250Y-105900000D01*
X159657358Y-105898826D01*
X159633697Y-105895316D01*
X159610493Y-105889504D01*
X159587971Y-105881446D01*
X159566347Y-105871218D01*
X159545830Y-105858921D01*
X159526617Y-105844671D01*
X159508893Y-105828607D01*
X159492829Y-105810883D01*
X159478579Y-105791670D01*
X159466282Y-105771153D01*
X159456054Y-105749529D01*
X159447996Y-105727007D01*
X159442184Y-105703803D01*
X159438674Y-105680142D01*
X159437500Y-105656250D01*
X159437500Y-104743750D01*
X159438674Y-104719858D01*
X159442184Y-104696197D01*
X159447996Y-104672993D01*
X159456054Y-104650471D01*
X159466282Y-104628847D01*
X159478579Y-104608330D01*
X159492829Y-104589117D01*
X159508893Y-104571393D01*
X159526617Y-104555329D01*
X159545830Y-104541079D01*
X159566347Y-104528782D01*
X159587971Y-104518554D01*
X159610493Y-104510496D01*
X159633697Y-104504684D01*
X159657358Y-104501174D01*
X159681250Y-104500000D01*
X160168750Y-104500000D01*
X160192642Y-104501174D01*
X160192642Y-104501174D01*
G37*
D30*
X159925000Y-105200000D03*
D29*
G36*
X162067642Y-104501174D02*
G01*
X162091303Y-104504684D01*
X162114507Y-104510496D01*
X162137029Y-104518554D01*
X162158653Y-104528782D01*
X162179170Y-104541079D01*
X162198383Y-104555329D01*
X162216107Y-104571393D01*
X162232171Y-104589117D01*
X162246421Y-104608330D01*
X162258718Y-104628847D01*
X162268946Y-104650471D01*
X162277004Y-104672993D01*
X162282816Y-104696197D01*
X162286326Y-104719858D01*
X162287500Y-104743750D01*
X162287500Y-105656250D01*
X162286326Y-105680142D01*
X162282816Y-105703803D01*
X162277004Y-105727007D01*
X162268946Y-105749529D01*
X162258718Y-105771153D01*
X162246421Y-105791670D01*
X162232171Y-105810883D01*
X162216107Y-105828607D01*
X162198383Y-105844671D01*
X162179170Y-105858921D01*
X162158653Y-105871218D01*
X162137029Y-105881446D01*
X162114507Y-105889504D01*
X162091303Y-105895316D01*
X162067642Y-105898826D01*
X162043750Y-105900000D01*
X161556250Y-105900000D01*
X161532358Y-105898826D01*
X161508697Y-105895316D01*
X161485493Y-105889504D01*
X161462971Y-105881446D01*
X161441347Y-105871218D01*
X161420830Y-105858921D01*
X161401617Y-105844671D01*
X161383893Y-105828607D01*
X161367829Y-105810883D01*
X161353579Y-105791670D01*
X161341282Y-105771153D01*
X161331054Y-105749529D01*
X161322996Y-105727007D01*
X161317184Y-105703803D01*
X161313674Y-105680142D01*
X161312500Y-105656250D01*
X161312500Y-104743750D01*
X161313674Y-104719858D01*
X161317184Y-104696197D01*
X161322996Y-104672993D01*
X161331054Y-104650471D01*
X161341282Y-104628847D01*
X161353579Y-104608330D01*
X161367829Y-104589117D01*
X161383893Y-104571393D01*
X161401617Y-104555329D01*
X161420830Y-104541079D01*
X161441347Y-104528782D01*
X161462971Y-104518554D01*
X161485493Y-104510496D01*
X161508697Y-104504684D01*
X161532358Y-104501174D01*
X161556250Y-104500000D01*
X162043750Y-104500000D01*
X162067642Y-104501174D01*
X162067642Y-104501174D01*
G37*
D30*
X161800000Y-105200000D03*
D29*
G36*
X156067642Y-118501174D02*
G01*
X156091303Y-118504684D01*
X156114507Y-118510496D01*
X156137029Y-118518554D01*
X156158653Y-118528782D01*
X156179170Y-118541079D01*
X156198383Y-118555329D01*
X156216107Y-118571393D01*
X156232171Y-118589117D01*
X156246421Y-118608330D01*
X156258718Y-118628847D01*
X156268946Y-118650471D01*
X156277004Y-118672993D01*
X156282816Y-118696197D01*
X156286326Y-118719858D01*
X156287500Y-118743750D01*
X156287500Y-119656250D01*
X156286326Y-119680142D01*
X156282816Y-119703803D01*
X156277004Y-119727007D01*
X156268946Y-119749529D01*
X156258718Y-119771153D01*
X156246421Y-119791670D01*
X156232171Y-119810883D01*
X156216107Y-119828607D01*
X156198383Y-119844671D01*
X156179170Y-119858921D01*
X156158653Y-119871218D01*
X156137029Y-119881446D01*
X156114507Y-119889504D01*
X156091303Y-119895316D01*
X156067642Y-119898826D01*
X156043750Y-119900000D01*
X155556250Y-119900000D01*
X155532358Y-119898826D01*
X155508697Y-119895316D01*
X155485493Y-119889504D01*
X155462971Y-119881446D01*
X155441347Y-119871218D01*
X155420830Y-119858921D01*
X155401617Y-119844671D01*
X155383893Y-119828607D01*
X155367829Y-119810883D01*
X155353579Y-119791670D01*
X155341282Y-119771153D01*
X155331054Y-119749529D01*
X155322996Y-119727007D01*
X155317184Y-119703803D01*
X155313674Y-119680142D01*
X155312500Y-119656250D01*
X155312500Y-118743750D01*
X155313674Y-118719858D01*
X155317184Y-118696197D01*
X155322996Y-118672993D01*
X155331054Y-118650471D01*
X155341282Y-118628847D01*
X155353579Y-118608330D01*
X155367829Y-118589117D01*
X155383893Y-118571393D01*
X155401617Y-118555329D01*
X155420830Y-118541079D01*
X155441347Y-118528782D01*
X155462971Y-118518554D01*
X155485493Y-118510496D01*
X155508697Y-118504684D01*
X155532358Y-118501174D01*
X155556250Y-118500000D01*
X156043750Y-118500000D01*
X156067642Y-118501174D01*
X156067642Y-118501174D01*
G37*
D30*
X155800000Y-119200000D03*
D29*
G36*
X154192642Y-118501174D02*
G01*
X154216303Y-118504684D01*
X154239507Y-118510496D01*
X154262029Y-118518554D01*
X154283653Y-118528782D01*
X154304170Y-118541079D01*
X154323383Y-118555329D01*
X154341107Y-118571393D01*
X154357171Y-118589117D01*
X154371421Y-118608330D01*
X154383718Y-118628847D01*
X154393946Y-118650471D01*
X154402004Y-118672993D01*
X154407816Y-118696197D01*
X154411326Y-118719858D01*
X154412500Y-118743750D01*
X154412500Y-119656250D01*
X154411326Y-119680142D01*
X154407816Y-119703803D01*
X154402004Y-119727007D01*
X154393946Y-119749529D01*
X154383718Y-119771153D01*
X154371421Y-119791670D01*
X154357171Y-119810883D01*
X154341107Y-119828607D01*
X154323383Y-119844671D01*
X154304170Y-119858921D01*
X154283653Y-119871218D01*
X154262029Y-119881446D01*
X154239507Y-119889504D01*
X154216303Y-119895316D01*
X154192642Y-119898826D01*
X154168750Y-119900000D01*
X153681250Y-119900000D01*
X153657358Y-119898826D01*
X153633697Y-119895316D01*
X153610493Y-119889504D01*
X153587971Y-119881446D01*
X153566347Y-119871218D01*
X153545830Y-119858921D01*
X153526617Y-119844671D01*
X153508893Y-119828607D01*
X153492829Y-119810883D01*
X153478579Y-119791670D01*
X153466282Y-119771153D01*
X153456054Y-119749529D01*
X153447996Y-119727007D01*
X153442184Y-119703803D01*
X153438674Y-119680142D01*
X153437500Y-119656250D01*
X153437500Y-118743750D01*
X153438674Y-118719858D01*
X153442184Y-118696197D01*
X153447996Y-118672993D01*
X153456054Y-118650471D01*
X153466282Y-118628847D01*
X153478579Y-118608330D01*
X153492829Y-118589117D01*
X153508893Y-118571393D01*
X153526617Y-118555329D01*
X153545830Y-118541079D01*
X153566347Y-118528782D01*
X153587971Y-118518554D01*
X153610493Y-118510496D01*
X153633697Y-118504684D01*
X153657358Y-118501174D01*
X153681250Y-118500000D01*
X154168750Y-118500000D01*
X154192642Y-118501174D01*
X154192642Y-118501174D01*
G37*
D30*
X153925000Y-119200000D03*
D29*
G36*
X163980142Y-102913674D02*
G01*
X164003803Y-102917184D01*
X164027007Y-102922996D01*
X164049529Y-102931054D01*
X164071153Y-102941282D01*
X164091670Y-102953579D01*
X164110883Y-102967829D01*
X164128607Y-102983893D01*
X164144671Y-103001617D01*
X164158921Y-103020830D01*
X164171218Y-103041347D01*
X164181446Y-103062971D01*
X164189504Y-103085493D01*
X164195316Y-103108697D01*
X164198826Y-103132358D01*
X164200000Y-103156250D01*
X164200000Y-103643750D01*
X164198826Y-103667642D01*
X164195316Y-103691303D01*
X164189504Y-103714507D01*
X164181446Y-103737029D01*
X164171218Y-103758653D01*
X164158921Y-103779170D01*
X164144671Y-103798383D01*
X164128607Y-103816107D01*
X164110883Y-103832171D01*
X164091670Y-103846421D01*
X164071153Y-103858718D01*
X164049529Y-103868946D01*
X164027007Y-103877004D01*
X164003803Y-103882816D01*
X163980142Y-103886326D01*
X163956250Y-103887500D01*
X163043750Y-103887500D01*
X163019858Y-103886326D01*
X162996197Y-103882816D01*
X162972993Y-103877004D01*
X162950471Y-103868946D01*
X162928847Y-103858718D01*
X162908330Y-103846421D01*
X162889117Y-103832171D01*
X162871393Y-103816107D01*
X162855329Y-103798383D01*
X162841079Y-103779170D01*
X162828782Y-103758653D01*
X162818554Y-103737029D01*
X162810496Y-103714507D01*
X162804684Y-103691303D01*
X162801174Y-103667642D01*
X162800000Y-103643750D01*
X162800000Y-103156250D01*
X162801174Y-103132358D01*
X162804684Y-103108697D01*
X162810496Y-103085493D01*
X162818554Y-103062971D01*
X162828782Y-103041347D01*
X162841079Y-103020830D01*
X162855329Y-103001617D01*
X162871393Y-102983893D01*
X162889117Y-102967829D01*
X162908330Y-102953579D01*
X162928847Y-102941282D01*
X162950471Y-102931054D01*
X162972993Y-102922996D01*
X162996197Y-102917184D01*
X163019858Y-102913674D01*
X163043750Y-102912500D01*
X163956250Y-102912500D01*
X163980142Y-102913674D01*
X163980142Y-102913674D01*
G37*
D30*
X163500000Y-103400000D03*
D29*
G36*
X163980142Y-104788674D02*
G01*
X164003803Y-104792184D01*
X164027007Y-104797996D01*
X164049529Y-104806054D01*
X164071153Y-104816282D01*
X164091670Y-104828579D01*
X164110883Y-104842829D01*
X164128607Y-104858893D01*
X164144671Y-104876617D01*
X164158921Y-104895830D01*
X164171218Y-104916347D01*
X164181446Y-104937971D01*
X164189504Y-104960493D01*
X164195316Y-104983697D01*
X164198826Y-105007358D01*
X164200000Y-105031250D01*
X164200000Y-105518750D01*
X164198826Y-105542642D01*
X164195316Y-105566303D01*
X164189504Y-105589507D01*
X164181446Y-105612029D01*
X164171218Y-105633653D01*
X164158921Y-105654170D01*
X164144671Y-105673383D01*
X164128607Y-105691107D01*
X164110883Y-105707171D01*
X164091670Y-105721421D01*
X164071153Y-105733718D01*
X164049529Y-105743946D01*
X164027007Y-105752004D01*
X164003803Y-105757816D01*
X163980142Y-105761326D01*
X163956250Y-105762500D01*
X163043750Y-105762500D01*
X163019858Y-105761326D01*
X162996197Y-105757816D01*
X162972993Y-105752004D01*
X162950471Y-105743946D01*
X162928847Y-105733718D01*
X162908330Y-105721421D01*
X162889117Y-105707171D01*
X162871393Y-105691107D01*
X162855329Y-105673383D01*
X162841079Y-105654170D01*
X162828782Y-105633653D01*
X162818554Y-105612029D01*
X162810496Y-105589507D01*
X162804684Y-105566303D01*
X162801174Y-105542642D01*
X162800000Y-105518750D01*
X162800000Y-105031250D01*
X162801174Y-105007358D01*
X162804684Y-104983697D01*
X162810496Y-104960493D01*
X162818554Y-104937971D01*
X162828782Y-104916347D01*
X162841079Y-104895830D01*
X162855329Y-104876617D01*
X162871393Y-104858893D01*
X162889117Y-104842829D01*
X162908330Y-104828579D01*
X162928847Y-104816282D01*
X162950471Y-104806054D01*
X162972993Y-104797996D01*
X162996197Y-104792184D01*
X163019858Y-104788674D01*
X163043750Y-104787500D01*
X163956250Y-104787500D01*
X163980142Y-104788674D01*
X163980142Y-104788674D01*
G37*
D30*
X163500000Y-105275000D03*
D29*
G36*
X154192641Y-116501174D02*
G01*
X154216302Y-116504684D01*
X154239506Y-116510496D01*
X154262028Y-116518554D01*
X154283652Y-116528782D01*
X154304169Y-116541079D01*
X154323382Y-116555329D01*
X154341106Y-116571393D01*
X154357170Y-116589117D01*
X154371420Y-116608330D01*
X154383717Y-116628847D01*
X154393945Y-116650471D01*
X154402003Y-116672993D01*
X154407815Y-116696197D01*
X154411325Y-116719858D01*
X154412499Y-116743750D01*
X154412499Y-117656250D01*
X154411325Y-117680142D01*
X154407815Y-117703803D01*
X154402003Y-117727007D01*
X154393945Y-117749529D01*
X154383717Y-117771153D01*
X154371420Y-117791670D01*
X154357170Y-117810883D01*
X154341106Y-117828607D01*
X154323382Y-117844671D01*
X154304169Y-117858921D01*
X154283652Y-117871218D01*
X154262028Y-117881446D01*
X154239506Y-117889504D01*
X154216302Y-117895316D01*
X154192641Y-117898826D01*
X154168749Y-117900000D01*
X153681249Y-117900000D01*
X153657357Y-117898826D01*
X153633696Y-117895316D01*
X153610492Y-117889504D01*
X153587970Y-117881446D01*
X153566346Y-117871218D01*
X153545829Y-117858921D01*
X153526616Y-117844671D01*
X153508892Y-117828607D01*
X153492828Y-117810883D01*
X153478578Y-117791670D01*
X153466281Y-117771153D01*
X153456053Y-117749529D01*
X153447995Y-117727007D01*
X153442183Y-117703803D01*
X153438673Y-117680142D01*
X153437499Y-117656250D01*
X153437499Y-116743750D01*
X153438673Y-116719858D01*
X153442183Y-116696197D01*
X153447995Y-116672993D01*
X153456053Y-116650471D01*
X153466281Y-116628847D01*
X153478578Y-116608330D01*
X153492828Y-116589117D01*
X153508892Y-116571393D01*
X153526616Y-116555329D01*
X153545829Y-116541079D01*
X153566346Y-116528782D01*
X153587970Y-116518554D01*
X153610492Y-116510496D01*
X153633696Y-116504684D01*
X153657357Y-116501174D01*
X153681249Y-116500000D01*
X154168749Y-116500000D01*
X154192641Y-116501174D01*
X154192641Y-116501174D01*
G37*
D30*
X153924999Y-117200000D03*
D29*
G36*
X156067641Y-116501174D02*
G01*
X156091302Y-116504684D01*
X156114506Y-116510496D01*
X156137028Y-116518554D01*
X156158652Y-116528782D01*
X156179169Y-116541079D01*
X156198382Y-116555329D01*
X156216106Y-116571393D01*
X156232170Y-116589117D01*
X156246420Y-116608330D01*
X156258717Y-116628847D01*
X156268945Y-116650471D01*
X156277003Y-116672993D01*
X156282815Y-116696197D01*
X156286325Y-116719858D01*
X156287499Y-116743750D01*
X156287499Y-117656250D01*
X156286325Y-117680142D01*
X156282815Y-117703803D01*
X156277003Y-117727007D01*
X156268945Y-117749529D01*
X156258717Y-117771153D01*
X156246420Y-117791670D01*
X156232170Y-117810883D01*
X156216106Y-117828607D01*
X156198382Y-117844671D01*
X156179169Y-117858921D01*
X156158652Y-117871218D01*
X156137028Y-117881446D01*
X156114506Y-117889504D01*
X156091302Y-117895316D01*
X156067641Y-117898826D01*
X156043749Y-117900000D01*
X155556249Y-117900000D01*
X155532357Y-117898826D01*
X155508696Y-117895316D01*
X155485492Y-117889504D01*
X155462970Y-117881446D01*
X155441346Y-117871218D01*
X155420829Y-117858921D01*
X155401616Y-117844671D01*
X155383892Y-117828607D01*
X155367828Y-117810883D01*
X155353578Y-117791670D01*
X155341281Y-117771153D01*
X155331053Y-117749529D01*
X155322995Y-117727007D01*
X155317183Y-117703803D01*
X155313673Y-117680142D01*
X155312499Y-117656250D01*
X155312499Y-116743750D01*
X155313673Y-116719858D01*
X155317183Y-116696197D01*
X155322995Y-116672993D01*
X155331053Y-116650471D01*
X155341281Y-116628847D01*
X155353578Y-116608330D01*
X155367828Y-116589117D01*
X155383892Y-116571393D01*
X155401616Y-116555329D01*
X155420829Y-116541079D01*
X155441346Y-116528782D01*
X155462970Y-116518554D01*
X155485492Y-116510496D01*
X155508696Y-116504684D01*
X155532357Y-116501174D01*
X155556249Y-116500000D01*
X156043749Y-116500000D01*
X156067641Y-116501174D01*
X156067641Y-116501174D01*
G37*
D30*
X155799999Y-117200000D03*
D29*
G36*
X171667642Y-105601174D02*
G01*
X171691303Y-105604684D01*
X171714507Y-105610496D01*
X171737029Y-105618554D01*
X171758653Y-105628782D01*
X171779170Y-105641079D01*
X171798383Y-105655329D01*
X171816107Y-105671393D01*
X171832171Y-105689117D01*
X171846421Y-105708330D01*
X171858718Y-105728847D01*
X171868946Y-105750471D01*
X171877004Y-105772993D01*
X171882816Y-105796197D01*
X171886326Y-105819858D01*
X171887500Y-105843750D01*
X171887500Y-106756250D01*
X171886326Y-106780142D01*
X171882816Y-106803803D01*
X171877004Y-106827007D01*
X171868946Y-106849529D01*
X171858718Y-106871153D01*
X171846421Y-106891670D01*
X171832171Y-106910883D01*
X171816107Y-106928607D01*
X171798383Y-106944671D01*
X171779170Y-106958921D01*
X171758653Y-106971218D01*
X171737029Y-106981446D01*
X171714507Y-106989504D01*
X171691303Y-106995316D01*
X171667642Y-106998826D01*
X171643750Y-107000000D01*
X171156250Y-107000000D01*
X171132358Y-106998826D01*
X171108697Y-106995316D01*
X171085493Y-106989504D01*
X171062971Y-106981446D01*
X171041347Y-106971218D01*
X171020830Y-106958921D01*
X171001617Y-106944671D01*
X170983893Y-106928607D01*
X170967829Y-106910883D01*
X170953579Y-106891670D01*
X170941282Y-106871153D01*
X170931054Y-106849529D01*
X170922996Y-106827007D01*
X170917184Y-106803803D01*
X170913674Y-106780142D01*
X170912500Y-106756250D01*
X170912500Y-105843750D01*
X170913674Y-105819858D01*
X170917184Y-105796197D01*
X170922996Y-105772993D01*
X170931054Y-105750471D01*
X170941282Y-105728847D01*
X170953579Y-105708330D01*
X170967829Y-105689117D01*
X170983893Y-105671393D01*
X171001617Y-105655329D01*
X171020830Y-105641079D01*
X171041347Y-105628782D01*
X171062971Y-105618554D01*
X171085493Y-105610496D01*
X171108697Y-105604684D01*
X171132358Y-105601174D01*
X171156250Y-105600000D01*
X171643750Y-105600000D01*
X171667642Y-105601174D01*
X171667642Y-105601174D01*
G37*
D30*
X171400000Y-106300000D03*
D29*
G36*
X173542642Y-105601174D02*
G01*
X173566303Y-105604684D01*
X173589507Y-105610496D01*
X173612029Y-105618554D01*
X173633653Y-105628782D01*
X173654170Y-105641079D01*
X173673383Y-105655329D01*
X173691107Y-105671393D01*
X173707171Y-105689117D01*
X173721421Y-105708330D01*
X173733718Y-105728847D01*
X173743946Y-105750471D01*
X173752004Y-105772993D01*
X173757816Y-105796197D01*
X173761326Y-105819858D01*
X173762500Y-105843750D01*
X173762500Y-106756250D01*
X173761326Y-106780142D01*
X173757816Y-106803803D01*
X173752004Y-106827007D01*
X173743946Y-106849529D01*
X173733718Y-106871153D01*
X173721421Y-106891670D01*
X173707171Y-106910883D01*
X173691107Y-106928607D01*
X173673383Y-106944671D01*
X173654170Y-106958921D01*
X173633653Y-106971218D01*
X173612029Y-106981446D01*
X173589507Y-106989504D01*
X173566303Y-106995316D01*
X173542642Y-106998826D01*
X173518750Y-107000000D01*
X173031250Y-107000000D01*
X173007358Y-106998826D01*
X172983697Y-106995316D01*
X172960493Y-106989504D01*
X172937971Y-106981446D01*
X172916347Y-106971218D01*
X172895830Y-106958921D01*
X172876617Y-106944671D01*
X172858893Y-106928607D01*
X172842829Y-106910883D01*
X172828579Y-106891670D01*
X172816282Y-106871153D01*
X172806054Y-106849529D01*
X172797996Y-106827007D01*
X172792184Y-106803803D01*
X172788674Y-106780142D01*
X172787500Y-106756250D01*
X172787500Y-105843750D01*
X172788674Y-105819858D01*
X172792184Y-105796197D01*
X172797996Y-105772993D01*
X172806054Y-105750471D01*
X172816282Y-105728847D01*
X172828579Y-105708330D01*
X172842829Y-105689117D01*
X172858893Y-105671393D01*
X172876617Y-105655329D01*
X172895830Y-105641079D01*
X172916347Y-105628782D01*
X172937971Y-105618554D01*
X172960493Y-105610496D01*
X172983697Y-105604684D01*
X173007358Y-105601174D01*
X173031250Y-105600000D01*
X173518750Y-105600000D01*
X173542642Y-105601174D01*
X173542642Y-105601174D01*
G37*
D30*
X173275000Y-106300000D03*
D29*
G36*
X172980142Y-124013674D02*
G01*
X173003803Y-124017184D01*
X173027007Y-124022996D01*
X173049529Y-124031054D01*
X173071153Y-124041282D01*
X173091670Y-124053579D01*
X173110883Y-124067829D01*
X173128607Y-124083893D01*
X173144671Y-124101617D01*
X173158921Y-124120830D01*
X173171218Y-124141347D01*
X173181446Y-124162971D01*
X173189504Y-124185493D01*
X173195316Y-124208697D01*
X173198826Y-124232358D01*
X173200000Y-124256250D01*
X173200000Y-124743750D01*
X173198826Y-124767642D01*
X173195316Y-124791303D01*
X173189504Y-124814507D01*
X173181446Y-124837029D01*
X173171218Y-124858653D01*
X173158921Y-124879170D01*
X173144671Y-124898383D01*
X173128607Y-124916107D01*
X173110883Y-124932171D01*
X173091670Y-124946421D01*
X173071153Y-124958718D01*
X173049529Y-124968946D01*
X173027007Y-124977004D01*
X173003803Y-124982816D01*
X172980142Y-124986326D01*
X172956250Y-124987500D01*
X172043750Y-124987500D01*
X172019858Y-124986326D01*
X171996197Y-124982816D01*
X171972993Y-124977004D01*
X171950471Y-124968946D01*
X171928847Y-124958718D01*
X171908330Y-124946421D01*
X171889117Y-124932171D01*
X171871393Y-124916107D01*
X171855329Y-124898383D01*
X171841079Y-124879170D01*
X171828782Y-124858653D01*
X171818554Y-124837029D01*
X171810496Y-124814507D01*
X171804684Y-124791303D01*
X171801174Y-124767642D01*
X171800000Y-124743750D01*
X171800000Y-124256250D01*
X171801174Y-124232358D01*
X171804684Y-124208697D01*
X171810496Y-124185493D01*
X171818554Y-124162971D01*
X171828782Y-124141347D01*
X171841079Y-124120830D01*
X171855329Y-124101617D01*
X171871393Y-124083893D01*
X171889117Y-124067829D01*
X171908330Y-124053579D01*
X171928847Y-124041282D01*
X171950471Y-124031054D01*
X171972993Y-124022996D01*
X171996197Y-124017184D01*
X172019858Y-124013674D01*
X172043750Y-124012500D01*
X172956250Y-124012500D01*
X172980142Y-124013674D01*
X172980142Y-124013674D01*
G37*
D30*
X172500000Y-124500000D03*
D29*
G36*
X172980142Y-122138674D02*
G01*
X173003803Y-122142184D01*
X173027007Y-122147996D01*
X173049529Y-122156054D01*
X173071153Y-122166282D01*
X173091670Y-122178579D01*
X173110883Y-122192829D01*
X173128607Y-122208893D01*
X173144671Y-122226617D01*
X173158921Y-122245830D01*
X173171218Y-122266347D01*
X173181446Y-122287971D01*
X173189504Y-122310493D01*
X173195316Y-122333697D01*
X173198826Y-122357358D01*
X173200000Y-122381250D01*
X173200000Y-122868750D01*
X173198826Y-122892642D01*
X173195316Y-122916303D01*
X173189504Y-122939507D01*
X173181446Y-122962029D01*
X173171218Y-122983653D01*
X173158921Y-123004170D01*
X173144671Y-123023383D01*
X173128607Y-123041107D01*
X173110883Y-123057171D01*
X173091670Y-123071421D01*
X173071153Y-123083718D01*
X173049529Y-123093946D01*
X173027007Y-123102004D01*
X173003803Y-123107816D01*
X172980142Y-123111326D01*
X172956250Y-123112500D01*
X172043750Y-123112500D01*
X172019858Y-123111326D01*
X171996197Y-123107816D01*
X171972993Y-123102004D01*
X171950471Y-123093946D01*
X171928847Y-123083718D01*
X171908330Y-123071421D01*
X171889117Y-123057171D01*
X171871393Y-123041107D01*
X171855329Y-123023383D01*
X171841079Y-123004170D01*
X171828782Y-122983653D01*
X171818554Y-122962029D01*
X171810496Y-122939507D01*
X171804684Y-122916303D01*
X171801174Y-122892642D01*
X171800000Y-122868750D01*
X171800000Y-122381250D01*
X171801174Y-122357358D01*
X171804684Y-122333697D01*
X171810496Y-122310493D01*
X171818554Y-122287971D01*
X171828782Y-122266347D01*
X171841079Y-122245830D01*
X171855329Y-122226617D01*
X171871393Y-122208893D01*
X171889117Y-122192829D01*
X171908330Y-122178579D01*
X171928847Y-122166282D01*
X171950471Y-122156054D01*
X171972993Y-122147996D01*
X171996197Y-122142184D01*
X172019858Y-122138674D01*
X172043750Y-122137500D01*
X172956250Y-122137500D01*
X172980142Y-122138674D01*
X172980142Y-122138674D01*
G37*
D30*
X172500000Y-122625000D03*
D29*
G36*
X163680142Y-119938673D02*
G01*
X163703803Y-119942183D01*
X163727007Y-119947995D01*
X163749529Y-119956053D01*
X163771153Y-119966281D01*
X163791670Y-119978578D01*
X163810883Y-119992828D01*
X163828607Y-120008892D01*
X163844671Y-120026616D01*
X163858921Y-120045829D01*
X163871218Y-120066346D01*
X163881446Y-120087970D01*
X163889504Y-120110492D01*
X163895316Y-120133696D01*
X163898826Y-120157357D01*
X163900000Y-120181249D01*
X163900000Y-120668749D01*
X163898826Y-120692641D01*
X163895316Y-120716302D01*
X163889504Y-120739506D01*
X163881446Y-120762028D01*
X163871218Y-120783652D01*
X163858921Y-120804169D01*
X163844671Y-120823382D01*
X163828607Y-120841106D01*
X163810883Y-120857170D01*
X163791670Y-120871420D01*
X163771153Y-120883717D01*
X163749529Y-120893945D01*
X163727007Y-120902003D01*
X163703803Y-120907815D01*
X163680142Y-120911325D01*
X163656250Y-120912499D01*
X162743750Y-120912499D01*
X162719858Y-120911325D01*
X162696197Y-120907815D01*
X162672993Y-120902003D01*
X162650471Y-120893945D01*
X162628847Y-120883717D01*
X162608330Y-120871420D01*
X162589117Y-120857170D01*
X162571393Y-120841106D01*
X162555329Y-120823382D01*
X162541079Y-120804169D01*
X162528782Y-120783652D01*
X162518554Y-120762028D01*
X162510496Y-120739506D01*
X162504684Y-120716302D01*
X162501174Y-120692641D01*
X162500000Y-120668749D01*
X162500000Y-120181249D01*
X162501174Y-120157357D01*
X162504684Y-120133696D01*
X162510496Y-120110492D01*
X162518554Y-120087970D01*
X162528782Y-120066346D01*
X162541079Y-120045829D01*
X162555329Y-120026616D01*
X162571393Y-120008892D01*
X162589117Y-119992828D01*
X162608330Y-119978578D01*
X162628847Y-119966281D01*
X162650471Y-119956053D01*
X162672993Y-119947995D01*
X162696197Y-119942183D01*
X162719858Y-119938673D01*
X162743750Y-119937499D01*
X163656250Y-119937499D01*
X163680142Y-119938673D01*
X163680142Y-119938673D01*
G37*
D30*
X163200000Y-120424999D03*
D29*
G36*
X163680142Y-121813673D02*
G01*
X163703803Y-121817183D01*
X163727007Y-121822995D01*
X163749529Y-121831053D01*
X163771153Y-121841281D01*
X163791670Y-121853578D01*
X163810883Y-121867828D01*
X163828607Y-121883892D01*
X163844671Y-121901616D01*
X163858921Y-121920829D01*
X163871218Y-121941346D01*
X163881446Y-121962970D01*
X163889504Y-121985492D01*
X163895316Y-122008696D01*
X163898826Y-122032357D01*
X163900000Y-122056249D01*
X163900000Y-122543749D01*
X163898826Y-122567641D01*
X163895316Y-122591302D01*
X163889504Y-122614506D01*
X163881446Y-122637028D01*
X163871218Y-122658652D01*
X163858921Y-122679169D01*
X163844671Y-122698382D01*
X163828607Y-122716106D01*
X163810883Y-122732170D01*
X163791670Y-122746420D01*
X163771153Y-122758717D01*
X163749529Y-122768945D01*
X163727007Y-122777003D01*
X163703803Y-122782815D01*
X163680142Y-122786325D01*
X163656250Y-122787499D01*
X162743750Y-122787499D01*
X162719858Y-122786325D01*
X162696197Y-122782815D01*
X162672993Y-122777003D01*
X162650471Y-122768945D01*
X162628847Y-122758717D01*
X162608330Y-122746420D01*
X162589117Y-122732170D01*
X162571393Y-122716106D01*
X162555329Y-122698382D01*
X162541079Y-122679169D01*
X162528782Y-122658652D01*
X162518554Y-122637028D01*
X162510496Y-122614506D01*
X162504684Y-122591302D01*
X162501174Y-122567641D01*
X162500000Y-122543749D01*
X162500000Y-122056249D01*
X162501174Y-122032357D01*
X162504684Y-122008696D01*
X162510496Y-121985492D01*
X162518554Y-121962970D01*
X162528782Y-121941346D01*
X162541079Y-121920829D01*
X162555329Y-121901616D01*
X162571393Y-121883892D01*
X162589117Y-121867828D01*
X162608330Y-121853578D01*
X162628847Y-121841281D01*
X162650471Y-121831053D01*
X162672993Y-121822995D01*
X162696197Y-121817183D01*
X162719858Y-121813673D01*
X162743750Y-121812499D01*
X163656250Y-121812499D01*
X163680142Y-121813673D01*
X163680142Y-121813673D01*
G37*
D30*
X163200000Y-122299999D03*
D29*
G36*
X173542642Y-102601174D02*
G01*
X173566303Y-102604684D01*
X173589507Y-102610496D01*
X173612029Y-102618554D01*
X173633653Y-102628782D01*
X173654170Y-102641079D01*
X173673383Y-102655329D01*
X173691107Y-102671393D01*
X173707171Y-102689117D01*
X173721421Y-102708330D01*
X173733718Y-102728847D01*
X173743946Y-102750471D01*
X173752004Y-102772993D01*
X173757816Y-102796197D01*
X173761326Y-102819858D01*
X173762500Y-102843750D01*
X173762500Y-103756250D01*
X173761326Y-103780142D01*
X173757816Y-103803803D01*
X173752004Y-103827007D01*
X173743946Y-103849529D01*
X173733718Y-103871153D01*
X173721421Y-103891670D01*
X173707171Y-103910883D01*
X173691107Y-103928607D01*
X173673383Y-103944671D01*
X173654170Y-103958921D01*
X173633653Y-103971218D01*
X173612029Y-103981446D01*
X173589507Y-103989504D01*
X173566303Y-103995316D01*
X173542642Y-103998826D01*
X173518750Y-104000000D01*
X173031250Y-104000000D01*
X173007358Y-103998826D01*
X172983697Y-103995316D01*
X172960493Y-103989504D01*
X172937971Y-103981446D01*
X172916347Y-103971218D01*
X172895830Y-103958921D01*
X172876617Y-103944671D01*
X172858893Y-103928607D01*
X172842829Y-103910883D01*
X172828579Y-103891670D01*
X172816282Y-103871153D01*
X172806054Y-103849529D01*
X172797996Y-103827007D01*
X172792184Y-103803803D01*
X172788674Y-103780142D01*
X172787500Y-103756250D01*
X172787500Y-102843750D01*
X172788674Y-102819858D01*
X172792184Y-102796197D01*
X172797996Y-102772993D01*
X172806054Y-102750471D01*
X172816282Y-102728847D01*
X172828579Y-102708330D01*
X172842829Y-102689117D01*
X172858893Y-102671393D01*
X172876617Y-102655329D01*
X172895830Y-102641079D01*
X172916347Y-102628782D01*
X172937971Y-102618554D01*
X172960493Y-102610496D01*
X172983697Y-102604684D01*
X173007358Y-102601174D01*
X173031250Y-102600000D01*
X173518750Y-102600000D01*
X173542642Y-102601174D01*
X173542642Y-102601174D01*
G37*
D30*
X173275000Y-103300000D03*
D29*
G36*
X171667642Y-102601174D02*
G01*
X171691303Y-102604684D01*
X171714507Y-102610496D01*
X171737029Y-102618554D01*
X171758653Y-102628782D01*
X171779170Y-102641079D01*
X171798383Y-102655329D01*
X171816107Y-102671393D01*
X171832171Y-102689117D01*
X171846421Y-102708330D01*
X171858718Y-102728847D01*
X171868946Y-102750471D01*
X171877004Y-102772993D01*
X171882816Y-102796197D01*
X171886326Y-102819858D01*
X171887500Y-102843750D01*
X171887500Y-103756250D01*
X171886326Y-103780142D01*
X171882816Y-103803803D01*
X171877004Y-103827007D01*
X171868946Y-103849529D01*
X171858718Y-103871153D01*
X171846421Y-103891670D01*
X171832171Y-103910883D01*
X171816107Y-103928607D01*
X171798383Y-103944671D01*
X171779170Y-103958921D01*
X171758653Y-103971218D01*
X171737029Y-103981446D01*
X171714507Y-103989504D01*
X171691303Y-103995316D01*
X171667642Y-103998826D01*
X171643750Y-104000000D01*
X171156250Y-104000000D01*
X171132358Y-103998826D01*
X171108697Y-103995316D01*
X171085493Y-103989504D01*
X171062971Y-103981446D01*
X171041347Y-103971218D01*
X171020830Y-103958921D01*
X171001617Y-103944671D01*
X170983893Y-103928607D01*
X170967829Y-103910883D01*
X170953579Y-103891670D01*
X170941282Y-103871153D01*
X170931054Y-103849529D01*
X170922996Y-103827007D01*
X170917184Y-103803803D01*
X170913674Y-103780142D01*
X170912500Y-103756250D01*
X170912500Y-102843750D01*
X170913674Y-102819858D01*
X170917184Y-102796197D01*
X170922996Y-102772993D01*
X170931054Y-102750471D01*
X170941282Y-102728847D01*
X170953579Y-102708330D01*
X170967829Y-102689117D01*
X170983893Y-102671393D01*
X171001617Y-102655329D01*
X171020830Y-102641079D01*
X171041347Y-102628782D01*
X171062971Y-102618554D01*
X171085493Y-102610496D01*
X171108697Y-102604684D01*
X171132358Y-102601174D01*
X171156250Y-102600000D01*
X171643750Y-102600000D01*
X171667642Y-102601174D01*
X171667642Y-102601174D01*
G37*
D30*
X171400000Y-103300000D03*
D29*
G36*
X160167642Y-102501174D02*
G01*
X160191303Y-102504684D01*
X160214507Y-102510496D01*
X160237029Y-102518554D01*
X160258653Y-102528782D01*
X160279170Y-102541079D01*
X160298383Y-102555329D01*
X160316107Y-102571393D01*
X160332171Y-102589117D01*
X160346421Y-102608330D01*
X160358718Y-102628847D01*
X160368946Y-102650471D01*
X160377004Y-102672993D01*
X160382816Y-102696197D01*
X160386326Y-102719858D01*
X160387500Y-102743750D01*
X160387500Y-103656250D01*
X160386326Y-103680142D01*
X160382816Y-103703803D01*
X160377004Y-103727007D01*
X160368946Y-103749529D01*
X160358718Y-103771153D01*
X160346421Y-103791670D01*
X160332171Y-103810883D01*
X160316107Y-103828607D01*
X160298383Y-103844671D01*
X160279170Y-103858921D01*
X160258653Y-103871218D01*
X160237029Y-103881446D01*
X160214507Y-103889504D01*
X160191303Y-103895316D01*
X160167642Y-103898826D01*
X160143750Y-103900000D01*
X159656250Y-103900000D01*
X159632358Y-103898826D01*
X159608697Y-103895316D01*
X159585493Y-103889504D01*
X159562971Y-103881446D01*
X159541347Y-103871218D01*
X159520830Y-103858921D01*
X159501617Y-103844671D01*
X159483893Y-103828607D01*
X159467829Y-103810883D01*
X159453579Y-103791670D01*
X159441282Y-103771153D01*
X159431054Y-103749529D01*
X159422996Y-103727007D01*
X159417184Y-103703803D01*
X159413674Y-103680142D01*
X159412500Y-103656250D01*
X159412500Y-102743750D01*
X159413674Y-102719858D01*
X159417184Y-102696197D01*
X159422996Y-102672993D01*
X159431054Y-102650471D01*
X159441282Y-102628847D01*
X159453579Y-102608330D01*
X159467829Y-102589117D01*
X159483893Y-102571393D01*
X159501617Y-102555329D01*
X159520830Y-102541079D01*
X159541347Y-102528782D01*
X159562971Y-102518554D01*
X159585493Y-102510496D01*
X159608697Y-102504684D01*
X159632358Y-102501174D01*
X159656250Y-102500000D01*
X160143750Y-102500000D01*
X160167642Y-102501174D01*
X160167642Y-102501174D01*
G37*
D30*
X159900000Y-103200000D03*
D29*
G36*
X162042642Y-102501174D02*
G01*
X162066303Y-102504684D01*
X162089507Y-102510496D01*
X162112029Y-102518554D01*
X162133653Y-102528782D01*
X162154170Y-102541079D01*
X162173383Y-102555329D01*
X162191107Y-102571393D01*
X162207171Y-102589117D01*
X162221421Y-102608330D01*
X162233718Y-102628847D01*
X162243946Y-102650471D01*
X162252004Y-102672993D01*
X162257816Y-102696197D01*
X162261326Y-102719858D01*
X162262500Y-102743750D01*
X162262500Y-103656250D01*
X162261326Y-103680142D01*
X162257816Y-103703803D01*
X162252004Y-103727007D01*
X162243946Y-103749529D01*
X162233718Y-103771153D01*
X162221421Y-103791670D01*
X162207171Y-103810883D01*
X162191107Y-103828607D01*
X162173383Y-103844671D01*
X162154170Y-103858921D01*
X162133653Y-103871218D01*
X162112029Y-103881446D01*
X162089507Y-103889504D01*
X162066303Y-103895316D01*
X162042642Y-103898826D01*
X162018750Y-103900000D01*
X161531250Y-103900000D01*
X161507358Y-103898826D01*
X161483697Y-103895316D01*
X161460493Y-103889504D01*
X161437971Y-103881446D01*
X161416347Y-103871218D01*
X161395830Y-103858921D01*
X161376617Y-103844671D01*
X161358893Y-103828607D01*
X161342829Y-103810883D01*
X161328579Y-103791670D01*
X161316282Y-103771153D01*
X161306054Y-103749529D01*
X161297996Y-103727007D01*
X161292184Y-103703803D01*
X161288674Y-103680142D01*
X161287500Y-103656250D01*
X161287500Y-102743750D01*
X161288674Y-102719858D01*
X161292184Y-102696197D01*
X161297996Y-102672993D01*
X161306054Y-102650471D01*
X161316282Y-102628847D01*
X161328579Y-102608330D01*
X161342829Y-102589117D01*
X161358893Y-102571393D01*
X161376617Y-102555329D01*
X161395830Y-102541079D01*
X161416347Y-102528782D01*
X161437971Y-102518554D01*
X161460493Y-102510496D01*
X161483697Y-102504684D01*
X161507358Y-102501174D01*
X161531250Y-102500000D01*
X162018750Y-102500000D01*
X162042642Y-102501174D01*
X162042642Y-102501174D01*
G37*
D30*
X161775000Y-103200000D03*
D29*
G36*
X162242642Y-100501174D02*
G01*
X162266303Y-100504684D01*
X162289507Y-100510496D01*
X162312029Y-100518554D01*
X162333653Y-100528782D01*
X162354170Y-100541079D01*
X162373383Y-100555329D01*
X162391107Y-100571393D01*
X162407171Y-100589117D01*
X162421421Y-100608330D01*
X162433718Y-100628847D01*
X162443946Y-100650471D01*
X162452004Y-100672993D01*
X162457816Y-100696197D01*
X162461326Y-100719858D01*
X162462500Y-100743750D01*
X162462500Y-101656250D01*
X162461326Y-101680142D01*
X162457816Y-101703803D01*
X162452004Y-101727007D01*
X162443946Y-101749529D01*
X162433718Y-101771153D01*
X162421421Y-101791670D01*
X162407171Y-101810883D01*
X162391107Y-101828607D01*
X162373383Y-101844671D01*
X162354170Y-101858921D01*
X162333653Y-101871218D01*
X162312029Y-101881446D01*
X162289507Y-101889504D01*
X162266303Y-101895316D01*
X162242642Y-101898826D01*
X162218750Y-101900000D01*
X161731250Y-101900000D01*
X161707358Y-101898826D01*
X161683697Y-101895316D01*
X161660493Y-101889504D01*
X161637971Y-101881446D01*
X161616347Y-101871218D01*
X161595830Y-101858921D01*
X161576617Y-101844671D01*
X161558893Y-101828607D01*
X161542829Y-101810883D01*
X161528579Y-101791670D01*
X161516282Y-101771153D01*
X161506054Y-101749529D01*
X161497996Y-101727007D01*
X161492184Y-101703803D01*
X161488674Y-101680142D01*
X161487500Y-101656250D01*
X161487500Y-100743750D01*
X161488674Y-100719858D01*
X161492184Y-100696197D01*
X161497996Y-100672993D01*
X161506054Y-100650471D01*
X161516282Y-100628847D01*
X161528579Y-100608330D01*
X161542829Y-100589117D01*
X161558893Y-100571393D01*
X161576617Y-100555329D01*
X161595830Y-100541079D01*
X161616347Y-100528782D01*
X161637971Y-100518554D01*
X161660493Y-100510496D01*
X161683697Y-100504684D01*
X161707358Y-100501174D01*
X161731250Y-100500000D01*
X162218750Y-100500000D01*
X162242642Y-100501174D01*
X162242642Y-100501174D01*
G37*
D30*
X161975000Y-101200000D03*
D29*
G36*
X160367642Y-100501174D02*
G01*
X160391303Y-100504684D01*
X160414507Y-100510496D01*
X160437029Y-100518554D01*
X160458653Y-100528782D01*
X160479170Y-100541079D01*
X160498383Y-100555329D01*
X160516107Y-100571393D01*
X160532171Y-100589117D01*
X160546421Y-100608330D01*
X160558718Y-100628847D01*
X160568946Y-100650471D01*
X160577004Y-100672993D01*
X160582816Y-100696197D01*
X160586326Y-100719858D01*
X160587500Y-100743750D01*
X160587500Y-101656250D01*
X160586326Y-101680142D01*
X160582816Y-101703803D01*
X160577004Y-101727007D01*
X160568946Y-101749529D01*
X160558718Y-101771153D01*
X160546421Y-101791670D01*
X160532171Y-101810883D01*
X160516107Y-101828607D01*
X160498383Y-101844671D01*
X160479170Y-101858921D01*
X160458653Y-101871218D01*
X160437029Y-101881446D01*
X160414507Y-101889504D01*
X160391303Y-101895316D01*
X160367642Y-101898826D01*
X160343750Y-101900000D01*
X159856250Y-101900000D01*
X159832358Y-101898826D01*
X159808697Y-101895316D01*
X159785493Y-101889504D01*
X159762971Y-101881446D01*
X159741347Y-101871218D01*
X159720830Y-101858921D01*
X159701617Y-101844671D01*
X159683893Y-101828607D01*
X159667829Y-101810883D01*
X159653579Y-101791670D01*
X159641282Y-101771153D01*
X159631054Y-101749529D01*
X159622996Y-101727007D01*
X159617184Y-101703803D01*
X159613674Y-101680142D01*
X159612500Y-101656250D01*
X159612500Y-100743750D01*
X159613674Y-100719858D01*
X159617184Y-100696197D01*
X159622996Y-100672993D01*
X159631054Y-100650471D01*
X159641282Y-100628847D01*
X159653579Y-100608330D01*
X159667829Y-100589117D01*
X159683893Y-100571393D01*
X159701617Y-100555329D01*
X159720830Y-100541079D01*
X159741347Y-100528782D01*
X159762971Y-100518554D01*
X159785493Y-100510496D01*
X159808697Y-100504684D01*
X159832358Y-100501174D01*
X159856250Y-100500000D01*
X160343750Y-100500000D01*
X160367642Y-100501174D01*
X160367642Y-100501174D01*
G37*
D30*
X160100000Y-101200000D03*
D29*
G36*
X192277691Y-84263554D02*
G01*
X192298926Y-84266704D01*
X192319750Y-84271920D01*
X192339962Y-84279152D01*
X192359368Y-84288331D01*
X192377781Y-84299367D01*
X192395024Y-84312155D01*
X192410930Y-84326571D01*
X192425346Y-84342477D01*
X192438134Y-84359720D01*
X192449170Y-84378133D01*
X192458349Y-84397539D01*
X192465581Y-84417751D01*
X192470797Y-84438575D01*
X192473947Y-84459810D01*
X192475000Y-84481251D01*
X192475000Y-84918751D01*
X192473947Y-84940192D01*
X192470797Y-84961427D01*
X192465581Y-84982251D01*
X192458349Y-85002463D01*
X192449170Y-85021869D01*
X192438134Y-85040282D01*
X192425346Y-85057525D01*
X192410930Y-85073431D01*
X192395024Y-85087847D01*
X192377781Y-85100635D01*
X192359368Y-85111671D01*
X192339962Y-85120850D01*
X192319750Y-85128082D01*
X192298926Y-85133298D01*
X192277691Y-85136448D01*
X192256250Y-85137501D01*
X191743750Y-85137501D01*
X191722309Y-85136448D01*
X191701074Y-85133298D01*
X191680250Y-85128082D01*
X191660038Y-85120850D01*
X191640632Y-85111671D01*
X191622219Y-85100635D01*
X191604976Y-85087847D01*
X191589070Y-85073431D01*
X191574654Y-85057525D01*
X191561866Y-85040282D01*
X191550830Y-85021869D01*
X191541651Y-85002463D01*
X191534419Y-84982251D01*
X191529203Y-84961427D01*
X191526053Y-84940192D01*
X191525000Y-84918751D01*
X191525000Y-84481251D01*
X191526053Y-84459810D01*
X191529203Y-84438575D01*
X191534419Y-84417751D01*
X191541651Y-84397539D01*
X191550830Y-84378133D01*
X191561866Y-84359720D01*
X191574654Y-84342477D01*
X191589070Y-84326571D01*
X191604976Y-84312155D01*
X191622219Y-84299367D01*
X191640632Y-84288331D01*
X191660038Y-84279152D01*
X191680250Y-84271920D01*
X191701074Y-84266704D01*
X191722309Y-84263554D01*
X191743750Y-84262501D01*
X192256250Y-84262501D01*
X192277691Y-84263554D01*
X192277691Y-84263554D01*
G37*
D31*
X192000000Y-84700001D03*
D29*
G36*
X192277691Y-85838554D02*
G01*
X192298926Y-85841704D01*
X192319750Y-85846920D01*
X192339962Y-85854152D01*
X192359368Y-85863331D01*
X192377781Y-85874367D01*
X192395024Y-85887155D01*
X192410930Y-85901571D01*
X192425346Y-85917477D01*
X192438134Y-85934720D01*
X192449170Y-85953133D01*
X192458349Y-85972539D01*
X192465581Y-85992751D01*
X192470797Y-86013575D01*
X192473947Y-86034810D01*
X192475000Y-86056251D01*
X192475000Y-86493751D01*
X192473947Y-86515192D01*
X192470797Y-86536427D01*
X192465581Y-86557251D01*
X192458349Y-86577463D01*
X192449170Y-86596869D01*
X192438134Y-86615282D01*
X192425346Y-86632525D01*
X192410930Y-86648431D01*
X192395024Y-86662847D01*
X192377781Y-86675635D01*
X192359368Y-86686671D01*
X192339962Y-86695850D01*
X192319750Y-86703082D01*
X192298926Y-86708298D01*
X192277691Y-86711448D01*
X192256250Y-86712501D01*
X191743750Y-86712501D01*
X191722309Y-86711448D01*
X191701074Y-86708298D01*
X191680250Y-86703082D01*
X191660038Y-86695850D01*
X191640632Y-86686671D01*
X191622219Y-86675635D01*
X191604976Y-86662847D01*
X191589070Y-86648431D01*
X191574654Y-86632525D01*
X191561866Y-86615282D01*
X191550830Y-86596869D01*
X191541651Y-86577463D01*
X191534419Y-86557251D01*
X191529203Y-86536427D01*
X191526053Y-86515192D01*
X191525000Y-86493751D01*
X191525000Y-86056251D01*
X191526053Y-86034810D01*
X191529203Y-86013575D01*
X191534419Y-85992751D01*
X191541651Y-85972539D01*
X191550830Y-85953133D01*
X191561866Y-85934720D01*
X191574654Y-85917477D01*
X191589070Y-85901571D01*
X191604976Y-85887155D01*
X191622219Y-85874367D01*
X191640632Y-85863331D01*
X191660038Y-85854152D01*
X191680250Y-85846920D01*
X191701074Y-85841704D01*
X191722309Y-85838554D01*
X191743750Y-85837501D01*
X192256250Y-85837501D01*
X192277691Y-85838554D01*
X192277691Y-85838554D01*
G37*
D31*
X192000000Y-86275001D03*
D32*
X202950000Y-91350000D03*
X202950000Y-91850000D03*
X202950000Y-92350000D03*
X202950000Y-92850000D03*
X202950000Y-93350000D03*
X202950000Y-93850000D03*
X202950000Y-94350000D03*
X202950000Y-94850000D03*
X202950000Y-95350000D03*
X202950000Y-95850000D03*
X202950000Y-96350000D03*
X202950000Y-96850000D03*
X202950000Y-97350000D03*
X202950000Y-97850000D03*
X202950000Y-98350000D03*
X202950000Y-98850000D03*
X202950000Y-99350000D03*
X202950000Y-99850000D03*
X202950000Y-100350000D03*
X202950000Y-100850000D03*
X202950000Y-101350000D03*
X202950000Y-101850000D03*
X202950000Y-102350000D03*
X202950000Y-102850000D03*
X202950000Y-103350000D03*
X202950000Y-103850000D03*
X202950000Y-104350000D03*
X202950000Y-104850000D03*
X202950000Y-105350000D03*
X202950000Y-105850000D03*
X202950000Y-106350000D03*
X202950000Y-106850000D03*
X202950000Y-107350000D03*
X202950000Y-107850000D03*
X202950000Y-108350000D03*
X202950000Y-108850000D03*
X202950000Y-109350000D03*
X202950000Y-109850000D03*
X202950000Y-110350000D03*
X202950000Y-110850000D03*
D33*
X206850000Y-112500000D03*
X206850000Y-89700000D03*
D29*
G36*
X155840191Y-114926053D02*
G01*
X155861426Y-114929203D01*
X155882250Y-114934419D01*
X155902462Y-114941651D01*
X155921868Y-114950830D01*
X155940281Y-114961866D01*
X155957524Y-114974654D01*
X155973430Y-114989070D01*
X155987846Y-115004976D01*
X156000634Y-115022219D01*
X156011670Y-115040632D01*
X156020849Y-115060038D01*
X156028081Y-115080250D01*
X156033297Y-115101074D01*
X156036447Y-115122309D01*
X156037500Y-115143750D01*
X156037500Y-115656250D01*
X156036447Y-115677691D01*
X156033297Y-115698926D01*
X156028081Y-115719750D01*
X156020849Y-115739962D01*
X156011670Y-115759368D01*
X156000634Y-115777781D01*
X155987846Y-115795024D01*
X155973430Y-115810930D01*
X155957524Y-115825346D01*
X155940281Y-115838134D01*
X155921868Y-115849170D01*
X155902462Y-115858349D01*
X155882250Y-115865581D01*
X155861426Y-115870797D01*
X155840191Y-115873947D01*
X155818750Y-115875000D01*
X155381250Y-115875000D01*
X155359809Y-115873947D01*
X155338574Y-115870797D01*
X155317750Y-115865581D01*
X155297538Y-115858349D01*
X155278132Y-115849170D01*
X155259719Y-115838134D01*
X155242476Y-115825346D01*
X155226570Y-115810930D01*
X155212154Y-115795024D01*
X155199366Y-115777781D01*
X155188330Y-115759368D01*
X155179151Y-115739962D01*
X155171919Y-115719750D01*
X155166703Y-115698926D01*
X155163553Y-115677691D01*
X155162500Y-115656250D01*
X155162500Y-115143750D01*
X155163553Y-115122309D01*
X155166703Y-115101074D01*
X155171919Y-115080250D01*
X155179151Y-115060038D01*
X155188330Y-115040632D01*
X155199366Y-115022219D01*
X155212154Y-115004976D01*
X155226570Y-114989070D01*
X155242476Y-114974654D01*
X155259719Y-114961866D01*
X155278132Y-114950830D01*
X155297538Y-114941651D01*
X155317750Y-114934419D01*
X155338574Y-114929203D01*
X155359809Y-114926053D01*
X155381250Y-114925000D01*
X155818750Y-114925000D01*
X155840191Y-114926053D01*
X155840191Y-114926053D01*
G37*
D31*
X155600000Y-115400000D03*
D29*
G36*
X154265191Y-114926053D02*
G01*
X154286426Y-114929203D01*
X154307250Y-114934419D01*
X154327462Y-114941651D01*
X154346868Y-114950830D01*
X154365281Y-114961866D01*
X154382524Y-114974654D01*
X154398430Y-114989070D01*
X154412846Y-115004976D01*
X154425634Y-115022219D01*
X154436670Y-115040632D01*
X154445849Y-115060038D01*
X154453081Y-115080250D01*
X154458297Y-115101074D01*
X154461447Y-115122309D01*
X154462500Y-115143750D01*
X154462500Y-115656250D01*
X154461447Y-115677691D01*
X154458297Y-115698926D01*
X154453081Y-115719750D01*
X154445849Y-115739962D01*
X154436670Y-115759368D01*
X154425634Y-115777781D01*
X154412846Y-115795024D01*
X154398430Y-115810930D01*
X154382524Y-115825346D01*
X154365281Y-115838134D01*
X154346868Y-115849170D01*
X154327462Y-115858349D01*
X154307250Y-115865581D01*
X154286426Y-115870797D01*
X154265191Y-115873947D01*
X154243750Y-115875000D01*
X153806250Y-115875000D01*
X153784809Y-115873947D01*
X153763574Y-115870797D01*
X153742750Y-115865581D01*
X153722538Y-115858349D01*
X153703132Y-115849170D01*
X153684719Y-115838134D01*
X153667476Y-115825346D01*
X153651570Y-115810930D01*
X153637154Y-115795024D01*
X153624366Y-115777781D01*
X153613330Y-115759368D01*
X153604151Y-115739962D01*
X153596919Y-115719750D01*
X153591703Y-115698926D01*
X153588553Y-115677691D01*
X153587500Y-115656250D01*
X153587500Y-115143750D01*
X153588553Y-115122309D01*
X153591703Y-115101074D01*
X153596919Y-115080250D01*
X153604151Y-115060038D01*
X153613330Y-115040632D01*
X153624366Y-115022219D01*
X153637154Y-115004976D01*
X153651570Y-114989070D01*
X153667476Y-114974654D01*
X153684719Y-114961866D01*
X153703132Y-114950830D01*
X153722538Y-114941651D01*
X153742750Y-114934419D01*
X153763574Y-114929203D01*
X153784809Y-114926053D01*
X153806250Y-114925000D01*
X154243750Y-114925000D01*
X154265191Y-114926053D01*
X154265191Y-114926053D01*
G37*
D31*
X154025000Y-115400000D03*
D29*
G36*
X192277691Y-89438554D02*
G01*
X192298926Y-89441704D01*
X192319750Y-89446920D01*
X192339962Y-89454152D01*
X192359368Y-89463331D01*
X192377781Y-89474367D01*
X192395024Y-89487155D01*
X192410930Y-89501571D01*
X192425346Y-89517477D01*
X192438134Y-89534720D01*
X192449170Y-89553133D01*
X192458349Y-89572539D01*
X192465581Y-89592751D01*
X192470797Y-89613575D01*
X192473947Y-89634810D01*
X192475000Y-89656251D01*
X192475000Y-90093751D01*
X192473947Y-90115192D01*
X192470797Y-90136427D01*
X192465581Y-90157251D01*
X192458349Y-90177463D01*
X192449170Y-90196869D01*
X192438134Y-90215282D01*
X192425346Y-90232525D01*
X192410930Y-90248431D01*
X192395024Y-90262847D01*
X192377781Y-90275635D01*
X192359368Y-90286671D01*
X192339962Y-90295850D01*
X192319750Y-90303082D01*
X192298926Y-90308298D01*
X192277691Y-90311448D01*
X192256250Y-90312501D01*
X191743750Y-90312501D01*
X191722309Y-90311448D01*
X191701074Y-90308298D01*
X191680250Y-90303082D01*
X191660038Y-90295850D01*
X191640632Y-90286671D01*
X191622219Y-90275635D01*
X191604976Y-90262847D01*
X191589070Y-90248431D01*
X191574654Y-90232525D01*
X191561866Y-90215282D01*
X191550830Y-90196869D01*
X191541651Y-90177463D01*
X191534419Y-90157251D01*
X191529203Y-90136427D01*
X191526053Y-90115192D01*
X191525000Y-90093751D01*
X191525000Y-89656251D01*
X191526053Y-89634810D01*
X191529203Y-89613575D01*
X191534419Y-89592751D01*
X191541651Y-89572539D01*
X191550830Y-89553133D01*
X191561866Y-89534720D01*
X191574654Y-89517477D01*
X191589070Y-89501571D01*
X191604976Y-89487155D01*
X191622219Y-89474367D01*
X191640632Y-89463331D01*
X191660038Y-89454152D01*
X191680250Y-89446920D01*
X191701074Y-89441704D01*
X191722309Y-89438554D01*
X191743750Y-89437501D01*
X192256250Y-89437501D01*
X192277691Y-89438554D01*
X192277691Y-89438554D01*
G37*
D31*
X192000000Y-89875001D03*
D29*
G36*
X192277691Y-87863554D02*
G01*
X192298926Y-87866704D01*
X192319750Y-87871920D01*
X192339962Y-87879152D01*
X192359368Y-87888331D01*
X192377781Y-87899367D01*
X192395024Y-87912155D01*
X192410930Y-87926571D01*
X192425346Y-87942477D01*
X192438134Y-87959720D01*
X192449170Y-87978133D01*
X192458349Y-87997539D01*
X192465581Y-88017751D01*
X192470797Y-88038575D01*
X192473947Y-88059810D01*
X192475000Y-88081251D01*
X192475000Y-88518751D01*
X192473947Y-88540192D01*
X192470797Y-88561427D01*
X192465581Y-88582251D01*
X192458349Y-88602463D01*
X192449170Y-88621869D01*
X192438134Y-88640282D01*
X192425346Y-88657525D01*
X192410930Y-88673431D01*
X192395024Y-88687847D01*
X192377781Y-88700635D01*
X192359368Y-88711671D01*
X192339962Y-88720850D01*
X192319750Y-88728082D01*
X192298926Y-88733298D01*
X192277691Y-88736448D01*
X192256250Y-88737501D01*
X191743750Y-88737501D01*
X191722309Y-88736448D01*
X191701074Y-88733298D01*
X191680250Y-88728082D01*
X191660038Y-88720850D01*
X191640632Y-88711671D01*
X191622219Y-88700635D01*
X191604976Y-88687847D01*
X191589070Y-88673431D01*
X191574654Y-88657525D01*
X191561866Y-88640282D01*
X191550830Y-88621869D01*
X191541651Y-88602463D01*
X191534419Y-88582251D01*
X191529203Y-88561427D01*
X191526053Y-88540192D01*
X191525000Y-88518751D01*
X191525000Y-88081251D01*
X191526053Y-88059810D01*
X191529203Y-88038575D01*
X191534419Y-88017751D01*
X191541651Y-87997539D01*
X191550830Y-87978133D01*
X191561866Y-87959720D01*
X191574654Y-87942477D01*
X191589070Y-87926571D01*
X191604976Y-87912155D01*
X191622219Y-87899367D01*
X191640632Y-87888331D01*
X191660038Y-87879152D01*
X191680250Y-87871920D01*
X191701074Y-87866704D01*
X191722309Y-87863554D01*
X191743750Y-87862501D01*
X192256250Y-87862501D01*
X192277691Y-87863554D01*
X192277691Y-87863554D01*
G37*
D31*
X192000000Y-88300001D03*
D34*
X158500000Y-102100000D03*
X157100000Y-102100000D03*
D29*
G36*
X178492642Y-94101174D02*
G01*
X178516303Y-94104684D01*
X178539507Y-94110496D01*
X178562029Y-94118554D01*
X178583653Y-94128782D01*
X178604170Y-94141079D01*
X178623383Y-94155329D01*
X178641107Y-94171393D01*
X178657171Y-94189117D01*
X178671421Y-94208330D01*
X178683718Y-94228847D01*
X178693946Y-94250471D01*
X178702004Y-94272993D01*
X178707816Y-94296197D01*
X178711326Y-94319858D01*
X178712500Y-94343750D01*
X178712500Y-95256250D01*
X178711326Y-95280142D01*
X178707816Y-95303803D01*
X178702004Y-95327007D01*
X178693946Y-95349529D01*
X178683718Y-95371153D01*
X178671421Y-95391670D01*
X178657171Y-95410883D01*
X178641107Y-95428607D01*
X178623383Y-95444671D01*
X178604170Y-95458921D01*
X178583653Y-95471218D01*
X178562029Y-95481446D01*
X178539507Y-95489504D01*
X178516303Y-95495316D01*
X178492642Y-95498826D01*
X178468750Y-95500000D01*
X177981250Y-95500000D01*
X177957358Y-95498826D01*
X177933697Y-95495316D01*
X177910493Y-95489504D01*
X177887971Y-95481446D01*
X177866347Y-95471218D01*
X177845830Y-95458921D01*
X177826617Y-95444671D01*
X177808893Y-95428607D01*
X177792829Y-95410883D01*
X177778579Y-95391670D01*
X177766282Y-95371153D01*
X177756054Y-95349529D01*
X177747996Y-95327007D01*
X177742184Y-95303803D01*
X177738674Y-95280142D01*
X177737500Y-95256250D01*
X177737500Y-94343750D01*
X177738674Y-94319858D01*
X177742184Y-94296197D01*
X177747996Y-94272993D01*
X177756054Y-94250471D01*
X177766282Y-94228847D01*
X177778579Y-94208330D01*
X177792829Y-94189117D01*
X177808893Y-94171393D01*
X177826617Y-94155329D01*
X177845830Y-94141079D01*
X177866347Y-94128782D01*
X177887971Y-94118554D01*
X177910493Y-94110496D01*
X177933697Y-94104684D01*
X177957358Y-94101174D01*
X177981250Y-94100000D01*
X178468750Y-94100000D01*
X178492642Y-94101174D01*
X178492642Y-94101174D01*
G37*
D30*
X178225000Y-94800000D03*
D29*
G36*
X180367642Y-94101174D02*
G01*
X180391303Y-94104684D01*
X180414507Y-94110496D01*
X180437029Y-94118554D01*
X180458653Y-94128782D01*
X180479170Y-94141079D01*
X180498383Y-94155329D01*
X180516107Y-94171393D01*
X180532171Y-94189117D01*
X180546421Y-94208330D01*
X180558718Y-94228847D01*
X180568946Y-94250471D01*
X180577004Y-94272993D01*
X180582816Y-94296197D01*
X180586326Y-94319858D01*
X180587500Y-94343750D01*
X180587500Y-95256250D01*
X180586326Y-95280142D01*
X180582816Y-95303803D01*
X180577004Y-95327007D01*
X180568946Y-95349529D01*
X180558718Y-95371153D01*
X180546421Y-95391670D01*
X180532171Y-95410883D01*
X180516107Y-95428607D01*
X180498383Y-95444671D01*
X180479170Y-95458921D01*
X180458653Y-95471218D01*
X180437029Y-95481446D01*
X180414507Y-95489504D01*
X180391303Y-95495316D01*
X180367642Y-95498826D01*
X180343750Y-95500000D01*
X179856250Y-95500000D01*
X179832358Y-95498826D01*
X179808697Y-95495316D01*
X179785493Y-95489504D01*
X179762971Y-95481446D01*
X179741347Y-95471218D01*
X179720830Y-95458921D01*
X179701617Y-95444671D01*
X179683893Y-95428607D01*
X179667829Y-95410883D01*
X179653579Y-95391670D01*
X179641282Y-95371153D01*
X179631054Y-95349529D01*
X179622996Y-95327007D01*
X179617184Y-95303803D01*
X179613674Y-95280142D01*
X179612500Y-95256250D01*
X179612500Y-94343750D01*
X179613674Y-94319858D01*
X179617184Y-94296197D01*
X179622996Y-94272993D01*
X179631054Y-94250471D01*
X179641282Y-94228847D01*
X179653579Y-94208330D01*
X179667829Y-94189117D01*
X179683893Y-94171393D01*
X179701617Y-94155329D01*
X179720830Y-94141079D01*
X179741347Y-94128782D01*
X179762971Y-94118554D01*
X179785493Y-94110496D01*
X179808697Y-94104684D01*
X179832358Y-94101174D01*
X179856250Y-94100000D01*
X180343750Y-94100000D01*
X180367642Y-94101174D01*
X180367642Y-94101174D01*
G37*
D30*
X180100000Y-94800000D03*
D29*
G36*
X180342642Y-97101174D02*
G01*
X180366303Y-97104684D01*
X180389507Y-97110496D01*
X180412029Y-97118554D01*
X180433653Y-97128782D01*
X180454170Y-97141079D01*
X180473383Y-97155329D01*
X180491107Y-97171393D01*
X180507171Y-97189117D01*
X180521421Y-97208330D01*
X180533718Y-97228847D01*
X180543946Y-97250471D01*
X180552004Y-97272993D01*
X180557816Y-97296197D01*
X180561326Y-97319858D01*
X180562500Y-97343750D01*
X180562500Y-98256250D01*
X180561326Y-98280142D01*
X180557816Y-98303803D01*
X180552004Y-98327007D01*
X180543946Y-98349529D01*
X180533718Y-98371153D01*
X180521421Y-98391670D01*
X180507171Y-98410883D01*
X180491107Y-98428607D01*
X180473383Y-98444671D01*
X180454170Y-98458921D01*
X180433653Y-98471218D01*
X180412029Y-98481446D01*
X180389507Y-98489504D01*
X180366303Y-98495316D01*
X180342642Y-98498826D01*
X180318750Y-98500000D01*
X179831250Y-98500000D01*
X179807358Y-98498826D01*
X179783697Y-98495316D01*
X179760493Y-98489504D01*
X179737971Y-98481446D01*
X179716347Y-98471218D01*
X179695830Y-98458921D01*
X179676617Y-98444671D01*
X179658893Y-98428607D01*
X179642829Y-98410883D01*
X179628579Y-98391670D01*
X179616282Y-98371153D01*
X179606054Y-98349529D01*
X179597996Y-98327007D01*
X179592184Y-98303803D01*
X179588674Y-98280142D01*
X179587500Y-98256250D01*
X179587500Y-97343750D01*
X179588674Y-97319858D01*
X179592184Y-97296197D01*
X179597996Y-97272993D01*
X179606054Y-97250471D01*
X179616282Y-97228847D01*
X179628579Y-97208330D01*
X179642829Y-97189117D01*
X179658893Y-97171393D01*
X179676617Y-97155329D01*
X179695830Y-97141079D01*
X179716347Y-97128782D01*
X179737971Y-97118554D01*
X179760493Y-97110496D01*
X179783697Y-97104684D01*
X179807358Y-97101174D01*
X179831250Y-97100000D01*
X180318750Y-97100000D01*
X180342642Y-97101174D01*
X180342642Y-97101174D01*
G37*
D30*
X180075000Y-97800000D03*
D29*
G36*
X178467642Y-97101174D02*
G01*
X178491303Y-97104684D01*
X178514507Y-97110496D01*
X178537029Y-97118554D01*
X178558653Y-97128782D01*
X178579170Y-97141079D01*
X178598383Y-97155329D01*
X178616107Y-97171393D01*
X178632171Y-97189117D01*
X178646421Y-97208330D01*
X178658718Y-97228847D01*
X178668946Y-97250471D01*
X178677004Y-97272993D01*
X178682816Y-97296197D01*
X178686326Y-97319858D01*
X178687500Y-97343750D01*
X178687500Y-98256250D01*
X178686326Y-98280142D01*
X178682816Y-98303803D01*
X178677004Y-98327007D01*
X178668946Y-98349529D01*
X178658718Y-98371153D01*
X178646421Y-98391670D01*
X178632171Y-98410883D01*
X178616107Y-98428607D01*
X178598383Y-98444671D01*
X178579170Y-98458921D01*
X178558653Y-98471218D01*
X178537029Y-98481446D01*
X178514507Y-98489504D01*
X178491303Y-98495316D01*
X178467642Y-98498826D01*
X178443750Y-98500000D01*
X177956250Y-98500000D01*
X177932358Y-98498826D01*
X177908697Y-98495316D01*
X177885493Y-98489504D01*
X177862971Y-98481446D01*
X177841347Y-98471218D01*
X177820830Y-98458921D01*
X177801617Y-98444671D01*
X177783893Y-98428607D01*
X177767829Y-98410883D01*
X177753579Y-98391670D01*
X177741282Y-98371153D01*
X177731054Y-98349529D01*
X177722996Y-98327007D01*
X177717184Y-98303803D01*
X177713674Y-98280142D01*
X177712500Y-98256250D01*
X177712500Y-97343750D01*
X177713674Y-97319858D01*
X177717184Y-97296197D01*
X177722996Y-97272993D01*
X177731054Y-97250471D01*
X177741282Y-97228847D01*
X177753579Y-97208330D01*
X177767829Y-97189117D01*
X177783893Y-97171393D01*
X177801617Y-97155329D01*
X177820830Y-97141079D01*
X177841347Y-97128782D01*
X177862971Y-97118554D01*
X177885493Y-97110496D01*
X177908697Y-97104684D01*
X177932358Y-97101174D01*
X177956250Y-97100000D01*
X178443750Y-97100000D01*
X178467642Y-97101174D01*
X178467642Y-97101174D01*
G37*
D30*
X178200000Y-97800000D03*
M02*
