G04 #@! TF.GenerationSoftware,KiCad,Pcbnew,5.1.0*
G04 #@! TF.CreationDate,2019-04-11T23:39:49-05:00*
G04 #@! TF.ProjectId,Strips,53747269-7073-42e6-9b69-6361645f7063,rev?*
G04 #@! TF.SameCoordinates,Original*
G04 #@! TF.FileFunction,Profile,NP*
%FSLAX46Y46*%
G04 Gerber Fmt 4.6, Leading zero omitted, Abs format (unit mm)*
G04 Created by KiCad (PCBNEW 5.1.0) date 2019-04-11 23:39:49*
%MOMM*%
%LPD*%
G04 APERTURE LIST*
%ADD10C,0.050000*%
G04 APERTURE END LIST*
D10*
X193000000Y-46000000D02*
X193000000Y-142500000D01*
X214000000Y-142500000D02*
X214000000Y-46000000D01*
X173500000Y-144000000D02*
G75*
G02X172000000Y-142500000I0J1500000D01*
G01*
X193000000Y-142500000D02*
G75*
G02X191500000Y-144000000I-1500000J0D01*
G01*
X173500000Y-144000000D02*
X191500000Y-144000000D01*
X212500000Y-44500000D02*
X194500000Y-44500000D01*
X191500000Y-44500000D02*
G75*
G02X193000000Y-46000000I0J-1500000D01*
G01*
X172000000Y-46000000D02*
G75*
G02X173500000Y-44500000I1500000J0D01*
G01*
X194500000Y-144000000D02*
G75*
G02X193000000Y-142500000I0J1500000D01*
G01*
X214000000Y-142500000D02*
G75*
G02X212500000Y-144000000I-1500000J0D01*
G01*
X194500000Y-144000000D02*
X212500000Y-144000000D01*
X193000000Y-46000000D02*
G75*
G02X194500000Y-44500000I1500000J0D01*
G01*
X212500000Y-44500000D02*
G75*
G02X214000000Y-46000000I0J-1500000D01*
G01*
X193000000Y-142500000D02*
X193000000Y-46000000D01*
X191500000Y-44500000D02*
X173500000Y-44500000D01*
X172000000Y-46000000D02*
X172000000Y-142500000D01*
X152500000Y-144000000D02*
G75*
G02X151000000Y-142500000I0J1500000D01*
G01*
X172000000Y-142500000D02*
G75*
G02X170500000Y-144000000I-1500000J0D01*
G01*
X152500000Y-144000000D02*
X170500000Y-144000000D01*
X170500000Y-44500000D02*
G75*
G02X172000000Y-46000000I0J-1500000D01*
G01*
X151000000Y-46000000D02*
G75*
G02X152500000Y-44500000I1500000J0D01*
G01*
X172000000Y-142500000D02*
X172000000Y-46000000D01*
X170500000Y-44500000D02*
X152500000Y-44500000D01*
X151000000Y-46000000D02*
X151000000Y-142500000D01*
X130000000Y-46000000D02*
X130000000Y-142500000D01*
X149500000Y-44500000D02*
X131500000Y-44500000D01*
X151000000Y-142500000D02*
X151000000Y-46000000D01*
X131500000Y-144000000D02*
X149500000Y-144000000D01*
X151000000Y-142500000D02*
G75*
G02X149500000Y-144000000I-1500000J0D01*
G01*
X131500000Y-144000000D02*
G75*
G02X130000000Y-142500000I0J1500000D01*
G01*
X130000000Y-46000000D02*
G75*
G02X131500000Y-44500000I1500000J0D01*
G01*
X149500000Y-44500000D02*
G75*
G02X151000000Y-46000000I0J-1500000D01*
G01*
M02*
