G04 #@! TF.GenerationSoftware,KiCad,Pcbnew,5.1.0*
G04 #@! TF.CreationDate,2019-04-11T23:39:49-05:00*
G04 #@! TF.ProjectId,Strips,53747269-7073-42e6-9b69-6361645f7063,rev?*
G04 #@! TF.SameCoordinates,Original*
G04 #@! TF.FileFunction,Legend,Top*
G04 #@! TF.FilePolarity,Positive*
%FSLAX46Y46*%
G04 Gerber Fmt 4.6, Leading zero omitted, Abs format (unit mm)*
G04 Created by KiCad (PCBNEW 5.1.0) date 2019-04-11 23:39:49*
%MOMM*%
%LPD*%
G04 APERTURE LIST*
%ADD10C,0.150000*%
%ADD11C,0.120000*%
G04 APERTURE END LIST*
D10*
X173766666Y-57952380D02*
X172366666Y-58428571D01*
X173366666Y-58809523D01*
X172366666Y-59190476D01*
X173766666Y-59666666D01*
X172433333Y-60333333D02*
X172366666Y-60619047D01*
X172366666Y-61095238D01*
X172433333Y-61285714D01*
X172500000Y-61380952D01*
X172633333Y-61476190D01*
X172766666Y-61476190D01*
X172900000Y-61380952D01*
X172966666Y-61285714D01*
X173033333Y-61095238D01*
X173100000Y-60714285D01*
X173166666Y-60523809D01*
X173233333Y-60428571D01*
X173366666Y-60333333D01*
X173500000Y-60333333D01*
X173633333Y-60428571D01*
X173700000Y-60523809D01*
X173766666Y-60714285D01*
X173766666Y-61190476D01*
X173700000Y-61476190D01*
X173633333Y-62238095D02*
X173700000Y-62333333D01*
X173766666Y-62523809D01*
X173766666Y-63000000D01*
X173700000Y-63190476D01*
X173633333Y-63285714D01*
X173500000Y-63380952D01*
X173366666Y-63380952D01*
X173166666Y-63285714D01*
X172366666Y-62142857D01*
X172366666Y-63380952D01*
X173166666Y-64523809D02*
X173233333Y-64333333D01*
X173300000Y-64238095D01*
X173433333Y-64142857D01*
X173500000Y-64142857D01*
X173633333Y-64238095D01*
X173700000Y-64333333D01*
X173766666Y-64523809D01*
X173766666Y-64904761D01*
X173700000Y-65095238D01*
X173633333Y-65190476D01*
X173500000Y-65285714D01*
X173433333Y-65285714D01*
X173300000Y-65190476D01*
X173233333Y-65095238D01*
X173166666Y-64904761D01*
X173166666Y-64523809D01*
X173100000Y-64333333D01*
X173033333Y-64238095D01*
X172900000Y-64142857D01*
X172633333Y-64142857D01*
X172500000Y-64238095D01*
X172433333Y-64333333D01*
X172366666Y-64523809D01*
X172366666Y-64904761D01*
X172433333Y-65095238D01*
X172500000Y-65190476D01*
X172633333Y-65285714D01*
X172900000Y-65285714D01*
X173033333Y-65190476D01*
X173100000Y-65095238D01*
X173166666Y-64904761D01*
X172366666Y-67190476D02*
X172366666Y-66047619D01*
X172366666Y-66619047D02*
X173766666Y-66619047D01*
X173566666Y-66428571D01*
X173433333Y-66238095D01*
X173366666Y-66047619D01*
X173766666Y-69000000D02*
X173766666Y-68047619D01*
X173100000Y-67952380D01*
X173166666Y-68047619D01*
X173233333Y-68238095D01*
X173233333Y-68714285D01*
X173166666Y-68904761D01*
X173100000Y-69000000D01*
X172966666Y-69095238D01*
X172633333Y-69095238D01*
X172500000Y-69000000D01*
X172433333Y-68904761D01*
X172366666Y-68714285D01*
X172366666Y-68238095D01*
X172433333Y-68047619D01*
X172500000Y-67952380D01*
X172366666Y-72428571D02*
X172366666Y-71476190D01*
X173766666Y-71476190D01*
X173100000Y-73095238D02*
X173100000Y-73761904D01*
X172366666Y-74047619D02*
X172366666Y-73095238D01*
X173766666Y-73095238D01*
X173766666Y-74047619D01*
X172366666Y-74904761D02*
X173766666Y-74904761D01*
X173766666Y-75380952D01*
X173700000Y-75666666D01*
X173566666Y-75857142D01*
X173433333Y-75952380D01*
X173166666Y-76047619D01*
X172966666Y-76047619D01*
X172700000Y-75952380D01*
X172566666Y-75857142D01*
X172433333Y-75666666D01*
X172366666Y-75380952D01*
X172366666Y-74904761D01*
X172433333Y-78333333D02*
X172366666Y-78619047D01*
X172366666Y-79095238D01*
X172433333Y-79285714D01*
X172500000Y-79380952D01*
X172633333Y-79476190D01*
X172766666Y-79476190D01*
X172900000Y-79380952D01*
X172966666Y-79285714D01*
X173033333Y-79095238D01*
X173100000Y-78714285D01*
X173166666Y-78523809D01*
X173233333Y-78428571D01*
X173366666Y-78333333D01*
X173500000Y-78333333D01*
X173633333Y-78428571D01*
X173700000Y-78523809D01*
X173766666Y-78714285D01*
X173766666Y-79190476D01*
X173700000Y-79476190D01*
X173766666Y-80047619D02*
X173766666Y-81190476D01*
X172366666Y-80619047D02*
X173766666Y-80619047D01*
X172366666Y-83000000D02*
X173033333Y-82333333D01*
X172366666Y-81857142D02*
X173766666Y-81857142D01*
X173766666Y-82619047D01*
X173700000Y-82809523D01*
X173633333Y-82904761D01*
X173500000Y-83000000D01*
X173300000Y-83000000D01*
X173166666Y-82904761D01*
X173100000Y-82809523D01*
X173033333Y-82619047D01*
X173033333Y-81857142D01*
X172366666Y-83857142D02*
X173766666Y-83857142D01*
X172366666Y-84809523D02*
X173766666Y-84809523D01*
X173766666Y-85571428D01*
X173700000Y-85761904D01*
X173633333Y-85857142D01*
X173500000Y-85952380D01*
X173300000Y-85952380D01*
X173166666Y-85857142D01*
X173100000Y-85761904D01*
X173033333Y-85571428D01*
X173033333Y-84809523D01*
X194766666Y-57952380D02*
X193366666Y-58428571D01*
X194366666Y-58809523D01*
X193366666Y-59190476D01*
X194766666Y-59666666D01*
X193433333Y-60333333D02*
X193366666Y-60619047D01*
X193366666Y-61095238D01*
X193433333Y-61285714D01*
X193500000Y-61380952D01*
X193633333Y-61476190D01*
X193766666Y-61476190D01*
X193900000Y-61380952D01*
X193966666Y-61285714D01*
X194033333Y-61095238D01*
X194100000Y-60714285D01*
X194166666Y-60523809D01*
X194233333Y-60428571D01*
X194366666Y-60333333D01*
X194500000Y-60333333D01*
X194633333Y-60428571D01*
X194700000Y-60523809D01*
X194766666Y-60714285D01*
X194766666Y-61190476D01*
X194700000Y-61476190D01*
X194633333Y-62238095D02*
X194700000Y-62333333D01*
X194766666Y-62523809D01*
X194766666Y-63000000D01*
X194700000Y-63190476D01*
X194633333Y-63285714D01*
X194500000Y-63380952D01*
X194366666Y-63380952D01*
X194166666Y-63285714D01*
X193366666Y-62142857D01*
X193366666Y-63380952D01*
X194166666Y-64523809D02*
X194233333Y-64333333D01*
X194300000Y-64238095D01*
X194433333Y-64142857D01*
X194500000Y-64142857D01*
X194633333Y-64238095D01*
X194700000Y-64333333D01*
X194766666Y-64523809D01*
X194766666Y-64904761D01*
X194700000Y-65095238D01*
X194633333Y-65190476D01*
X194500000Y-65285714D01*
X194433333Y-65285714D01*
X194300000Y-65190476D01*
X194233333Y-65095238D01*
X194166666Y-64904761D01*
X194166666Y-64523809D01*
X194100000Y-64333333D01*
X194033333Y-64238095D01*
X193900000Y-64142857D01*
X193633333Y-64142857D01*
X193500000Y-64238095D01*
X193433333Y-64333333D01*
X193366666Y-64523809D01*
X193366666Y-64904761D01*
X193433333Y-65095238D01*
X193500000Y-65190476D01*
X193633333Y-65285714D01*
X193900000Y-65285714D01*
X194033333Y-65190476D01*
X194100000Y-65095238D01*
X194166666Y-64904761D01*
X193366666Y-67190476D02*
X193366666Y-66047619D01*
X193366666Y-66619047D02*
X194766666Y-66619047D01*
X194566666Y-66428571D01*
X194433333Y-66238095D01*
X194366666Y-66047619D01*
X194766666Y-69000000D02*
X194766666Y-68047619D01*
X194100000Y-67952380D01*
X194166666Y-68047619D01*
X194233333Y-68238095D01*
X194233333Y-68714285D01*
X194166666Y-68904761D01*
X194100000Y-69000000D01*
X193966666Y-69095238D01*
X193633333Y-69095238D01*
X193500000Y-69000000D01*
X193433333Y-68904761D01*
X193366666Y-68714285D01*
X193366666Y-68238095D01*
X193433333Y-68047619D01*
X193500000Y-67952380D01*
X193366666Y-72428571D02*
X193366666Y-71476190D01*
X194766666Y-71476190D01*
X194100000Y-73095238D02*
X194100000Y-73761904D01*
X193366666Y-74047619D02*
X193366666Y-73095238D01*
X194766666Y-73095238D01*
X194766666Y-74047619D01*
X193366666Y-74904761D02*
X194766666Y-74904761D01*
X194766666Y-75380952D01*
X194700000Y-75666666D01*
X194566666Y-75857142D01*
X194433333Y-75952380D01*
X194166666Y-76047619D01*
X193966666Y-76047619D01*
X193700000Y-75952380D01*
X193566666Y-75857142D01*
X193433333Y-75666666D01*
X193366666Y-75380952D01*
X193366666Y-74904761D01*
X193433333Y-78333333D02*
X193366666Y-78619047D01*
X193366666Y-79095238D01*
X193433333Y-79285714D01*
X193500000Y-79380952D01*
X193633333Y-79476190D01*
X193766666Y-79476190D01*
X193900000Y-79380952D01*
X193966666Y-79285714D01*
X194033333Y-79095238D01*
X194100000Y-78714285D01*
X194166666Y-78523809D01*
X194233333Y-78428571D01*
X194366666Y-78333333D01*
X194500000Y-78333333D01*
X194633333Y-78428571D01*
X194700000Y-78523809D01*
X194766666Y-78714285D01*
X194766666Y-79190476D01*
X194700000Y-79476190D01*
X194766666Y-80047619D02*
X194766666Y-81190476D01*
X193366666Y-80619047D02*
X194766666Y-80619047D01*
X193366666Y-83000000D02*
X194033333Y-82333333D01*
X193366666Y-81857142D02*
X194766666Y-81857142D01*
X194766666Y-82619047D01*
X194700000Y-82809523D01*
X194633333Y-82904761D01*
X194500000Y-83000000D01*
X194300000Y-83000000D01*
X194166666Y-82904761D01*
X194100000Y-82809523D01*
X194033333Y-82619047D01*
X194033333Y-81857142D01*
X193366666Y-83857142D02*
X194766666Y-83857142D01*
X193366666Y-84809523D02*
X194766666Y-84809523D01*
X194766666Y-85571428D01*
X194700000Y-85761904D01*
X194633333Y-85857142D01*
X194500000Y-85952380D01*
X194300000Y-85952380D01*
X194166666Y-85857142D01*
X194100000Y-85761904D01*
X194033333Y-85571428D01*
X194033333Y-84809523D01*
X152766666Y-57952380D02*
X151366666Y-58428571D01*
X152366666Y-58809523D01*
X151366666Y-59190476D01*
X152766666Y-59666666D01*
X151433333Y-60333333D02*
X151366666Y-60619047D01*
X151366666Y-61095238D01*
X151433333Y-61285714D01*
X151500000Y-61380952D01*
X151633333Y-61476190D01*
X151766666Y-61476190D01*
X151900000Y-61380952D01*
X151966666Y-61285714D01*
X152033333Y-61095238D01*
X152100000Y-60714285D01*
X152166666Y-60523809D01*
X152233333Y-60428571D01*
X152366666Y-60333333D01*
X152500000Y-60333333D01*
X152633333Y-60428571D01*
X152700000Y-60523809D01*
X152766666Y-60714285D01*
X152766666Y-61190476D01*
X152700000Y-61476190D01*
X152633333Y-62238095D02*
X152700000Y-62333333D01*
X152766666Y-62523809D01*
X152766666Y-63000000D01*
X152700000Y-63190476D01*
X152633333Y-63285714D01*
X152500000Y-63380952D01*
X152366666Y-63380952D01*
X152166666Y-63285714D01*
X151366666Y-62142857D01*
X151366666Y-63380952D01*
X152166666Y-64523809D02*
X152233333Y-64333333D01*
X152300000Y-64238095D01*
X152433333Y-64142857D01*
X152500000Y-64142857D01*
X152633333Y-64238095D01*
X152700000Y-64333333D01*
X152766666Y-64523809D01*
X152766666Y-64904761D01*
X152700000Y-65095238D01*
X152633333Y-65190476D01*
X152500000Y-65285714D01*
X152433333Y-65285714D01*
X152300000Y-65190476D01*
X152233333Y-65095238D01*
X152166666Y-64904761D01*
X152166666Y-64523809D01*
X152100000Y-64333333D01*
X152033333Y-64238095D01*
X151900000Y-64142857D01*
X151633333Y-64142857D01*
X151500000Y-64238095D01*
X151433333Y-64333333D01*
X151366666Y-64523809D01*
X151366666Y-64904761D01*
X151433333Y-65095238D01*
X151500000Y-65190476D01*
X151633333Y-65285714D01*
X151900000Y-65285714D01*
X152033333Y-65190476D01*
X152100000Y-65095238D01*
X152166666Y-64904761D01*
X151366666Y-67190476D02*
X151366666Y-66047619D01*
X151366666Y-66619047D02*
X152766666Y-66619047D01*
X152566666Y-66428571D01*
X152433333Y-66238095D01*
X152366666Y-66047619D01*
X152766666Y-69000000D02*
X152766666Y-68047619D01*
X152100000Y-67952380D01*
X152166666Y-68047619D01*
X152233333Y-68238095D01*
X152233333Y-68714285D01*
X152166666Y-68904761D01*
X152100000Y-69000000D01*
X151966666Y-69095238D01*
X151633333Y-69095238D01*
X151500000Y-69000000D01*
X151433333Y-68904761D01*
X151366666Y-68714285D01*
X151366666Y-68238095D01*
X151433333Y-68047619D01*
X151500000Y-67952380D01*
X151366666Y-72428571D02*
X151366666Y-71476190D01*
X152766666Y-71476190D01*
X152100000Y-73095238D02*
X152100000Y-73761904D01*
X151366666Y-74047619D02*
X151366666Y-73095238D01*
X152766666Y-73095238D01*
X152766666Y-74047619D01*
X151366666Y-74904761D02*
X152766666Y-74904761D01*
X152766666Y-75380952D01*
X152700000Y-75666666D01*
X152566666Y-75857142D01*
X152433333Y-75952380D01*
X152166666Y-76047619D01*
X151966666Y-76047619D01*
X151700000Y-75952380D01*
X151566666Y-75857142D01*
X151433333Y-75666666D01*
X151366666Y-75380952D01*
X151366666Y-74904761D01*
X151433333Y-78333333D02*
X151366666Y-78619047D01*
X151366666Y-79095238D01*
X151433333Y-79285714D01*
X151500000Y-79380952D01*
X151633333Y-79476190D01*
X151766666Y-79476190D01*
X151900000Y-79380952D01*
X151966666Y-79285714D01*
X152033333Y-79095238D01*
X152100000Y-78714285D01*
X152166666Y-78523809D01*
X152233333Y-78428571D01*
X152366666Y-78333333D01*
X152500000Y-78333333D01*
X152633333Y-78428571D01*
X152700000Y-78523809D01*
X152766666Y-78714285D01*
X152766666Y-79190476D01*
X152700000Y-79476190D01*
X152766666Y-80047619D02*
X152766666Y-81190476D01*
X151366666Y-80619047D02*
X152766666Y-80619047D01*
X151366666Y-83000000D02*
X152033333Y-82333333D01*
X151366666Y-81857142D02*
X152766666Y-81857142D01*
X152766666Y-82619047D01*
X152700000Y-82809523D01*
X152633333Y-82904761D01*
X152500000Y-83000000D01*
X152300000Y-83000000D01*
X152166666Y-82904761D01*
X152100000Y-82809523D01*
X152033333Y-82619047D01*
X152033333Y-81857142D01*
X151366666Y-83857142D02*
X152766666Y-83857142D01*
X151366666Y-84809523D02*
X152766666Y-84809523D01*
X152766666Y-85571428D01*
X152700000Y-85761904D01*
X152633333Y-85857142D01*
X152500000Y-85952380D01*
X152300000Y-85952380D01*
X152166666Y-85857142D01*
X152100000Y-85761904D01*
X152033333Y-85571428D01*
X152033333Y-84809523D01*
X131766666Y-57952380D02*
X130366666Y-58428571D01*
X131366666Y-58809523D01*
X130366666Y-59190476D01*
X131766666Y-59666666D01*
X130433333Y-60333333D02*
X130366666Y-60619047D01*
X130366666Y-61095238D01*
X130433333Y-61285714D01*
X130500000Y-61380952D01*
X130633333Y-61476190D01*
X130766666Y-61476190D01*
X130900000Y-61380952D01*
X130966666Y-61285714D01*
X131033333Y-61095238D01*
X131100000Y-60714285D01*
X131166666Y-60523809D01*
X131233333Y-60428571D01*
X131366666Y-60333333D01*
X131500000Y-60333333D01*
X131633333Y-60428571D01*
X131700000Y-60523809D01*
X131766666Y-60714285D01*
X131766666Y-61190476D01*
X131700000Y-61476190D01*
X131633333Y-62238095D02*
X131700000Y-62333333D01*
X131766666Y-62523809D01*
X131766666Y-63000000D01*
X131700000Y-63190476D01*
X131633333Y-63285714D01*
X131500000Y-63380952D01*
X131366666Y-63380952D01*
X131166666Y-63285714D01*
X130366666Y-62142857D01*
X130366666Y-63380952D01*
X131166666Y-64523809D02*
X131233333Y-64333333D01*
X131300000Y-64238095D01*
X131433333Y-64142857D01*
X131500000Y-64142857D01*
X131633333Y-64238095D01*
X131700000Y-64333333D01*
X131766666Y-64523809D01*
X131766666Y-64904761D01*
X131700000Y-65095238D01*
X131633333Y-65190476D01*
X131500000Y-65285714D01*
X131433333Y-65285714D01*
X131300000Y-65190476D01*
X131233333Y-65095238D01*
X131166666Y-64904761D01*
X131166666Y-64523809D01*
X131100000Y-64333333D01*
X131033333Y-64238095D01*
X130900000Y-64142857D01*
X130633333Y-64142857D01*
X130500000Y-64238095D01*
X130433333Y-64333333D01*
X130366666Y-64523809D01*
X130366666Y-64904761D01*
X130433333Y-65095238D01*
X130500000Y-65190476D01*
X130633333Y-65285714D01*
X130900000Y-65285714D01*
X131033333Y-65190476D01*
X131100000Y-65095238D01*
X131166666Y-64904761D01*
X130366666Y-67190476D02*
X130366666Y-66047619D01*
X130366666Y-66619047D02*
X131766666Y-66619047D01*
X131566666Y-66428571D01*
X131433333Y-66238095D01*
X131366666Y-66047619D01*
X131766666Y-69000000D02*
X131766666Y-68047619D01*
X131100000Y-67952380D01*
X131166666Y-68047619D01*
X131233333Y-68238095D01*
X131233333Y-68714285D01*
X131166666Y-68904761D01*
X131100000Y-69000000D01*
X130966666Y-69095238D01*
X130633333Y-69095238D01*
X130500000Y-69000000D01*
X130433333Y-68904761D01*
X130366666Y-68714285D01*
X130366666Y-68238095D01*
X130433333Y-68047619D01*
X130500000Y-67952380D01*
X130366666Y-72428571D02*
X130366666Y-71476190D01*
X131766666Y-71476190D01*
X131100000Y-73095238D02*
X131100000Y-73761904D01*
X130366666Y-74047619D02*
X130366666Y-73095238D01*
X131766666Y-73095238D01*
X131766666Y-74047619D01*
X130366666Y-74904761D02*
X131766666Y-74904761D01*
X131766666Y-75380952D01*
X131700000Y-75666666D01*
X131566666Y-75857142D01*
X131433333Y-75952380D01*
X131166666Y-76047619D01*
X130966666Y-76047619D01*
X130700000Y-75952380D01*
X130566666Y-75857142D01*
X130433333Y-75666666D01*
X130366666Y-75380952D01*
X130366666Y-74904761D01*
X130433333Y-78333333D02*
X130366666Y-78619047D01*
X130366666Y-79095238D01*
X130433333Y-79285714D01*
X130500000Y-79380952D01*
X130633333Y-79476190D01*
X130766666Y-79476190D01*
X130900000Y-79380952D01*
X130966666Y-79285714D01*
X131033333Y-79095238D01*
X131100000Y-78714285D01*
X131166666Y-78523809D01*
X131233333Y-78428571D01*
X131366666Y-78333333D01*
X131500000Y-78333333D01*
X131633333Y-78428571D01*
X131700000Y-78523809D01*
X131766666Y-78714285D01*
X131766666Y-79190476D01*
X131700000Y-79476190D01*
X131766666Y-80047619D02*
X131766666Y-81190476D01*
X130366666Y-80619047D02*
X131766666Y-80619047D01*
X130366666Y-83000000D02*
X131033333Y-82333333D01*
X130366666Y-81857142D02*
X131766666Y-81857142D01*
X131766666Y-82619047D01*
X131700000Y-82809523D01*
X131633333Y-82904761D01*
X131500000Y-83000000D01*
X131300000Y-83000000D01*
X131166666Y-82904761D01*
X131100000Y-82809523D01*
X131033333Y-82619047D01*
X131033333Y-81857142D01*
X130366666Y-83857142D02*
X131766666Y-83857142D01*
X130366666Y-84809523D02*
X131766666Y-84809523D01*
X131766666Y-85571428D01*
X131700000Y-85761904D01*
X131633333Y-85857142D01*
X131500000Y-85952380D01*
X131300000Y-85952380D01*
X131166666Y-85857142D01*
X131100000Y-85761904D01*
X131033333Y-85571428D01*
X131033333Y-84809523D01*
D11*
X175786000Y-54000000D02*
G75*
G03X175786000Y-54000000I-2286000J0D01*
G01*
X193786000Y-54000000D02*
G75*
G03X193786000Y-54000000I-2286000J0D01*
G01*
X175786000Y-140000000D02*
G75*
G03X175786000Y-140000000I-2286000J0D01*
G01*
X179625000Y-127500000D02*
X179625000Y-134500000D01*
X178625000Y-127500000D02*
X179625000Y-127500000D01*
X174475000Y-127500000D02*
X174475000Y-134500000D01*
X185200000Y-80500000D02*
X185200000Y-73500000D01*
X186200000Y-80500000D02*
X185200000Y-80500000D01*
X190350000Y-80500000D02*
X190350000Y-73500000D01*
X181850000Y-101500000D02*
X181850000Y-100500000D01*
X180150000Y-100500000D02*
X180150000Y-101500000D01*
X180150000Y-118500000D02*
X180150000Y-119500000D01*
X181850000Y-119500000D02*
X181850000Y-118500000D01*
X179625000Y-136500000D02*
X179625000Y-143500000D01*
X178625000Y-136500000D02*
X179625000Y-136500000D01*
X174475000Y-136500000D02*
X174475000Y-143500000D01*
X185200000Y-98500000D02*
X185200000Y-91500000D01*
X186200000Y-98500000D02*
X185200000Y-98500000D01*
X190350000Y-98500000D02*
X190350000Y-91500000D01*
X174475000Y-100500000D02*
X174475000Y-107500000D01*
X178625000Y-100500000D02*
X179625000Y-100500000D01*
X179625000Y-100500000D02*
X179625000Y-107500000D01*
X185200000Y-62500000D02*
X185200000Y-55500000D01*
X186200000Y-62500000D02*
X185200000Y-62500000D01*
X190350000Y-62500000D02*
X190350000Y-55500000D01*
X184350000Y-142000000D02*
X184350000Y-141000000D01*
X182650000Y-141000000D02*
X182650000Y-142000000D01*
X190350000Y-71500000D02*
X190350000Y-64500000D01*
X186200000Y-71500000D02*
X185200000Y-71500000D01*
X185200000Y-71500000D02*
X185200000Y-64500000D01*
X184350000Y-72000000D02*
X184350000Y-71000000D01*
X182650000Y-71000000D02*
X182650000Y-72000000D01*
X190350000Y-89500000D02*
X190350000Y-82500000D01*
X186200000Y-89500000D02*
X185200000Y-89500000D01*
X185200000Y-89500000D02*
X185200000Y-82500000D01*
X179625000Y-109500000D02*
X179625000Y-116500000D01*
X178625000Y-109500000D02*
X179625000Y-109500000D01*
X174475000Y-109500000D02*
X174475000Y-116500000D01*
X181850000Y-56500000D02*
X181850000Y-55500000D01*
X180150000Y-55500000D02*
X180150000Y-56500000D01*
X184350000Y-108000000D02*
X184350000Y-107000000D01*
X182650000Y-107000000D02*
X182650000Y-108000000D01*
X174475000Y-118500000D02*
X174475000Y-125500000D01*
X178625000Y-118500000D02*
X179625000Y-118500000D01*
X179625000Y-118500000D02*
X179625000Y-125500000D01*
X180150000Y-64500000D02*
X180150000Y-65500000D01*
X181850000Y-65500000D02*
X181850000Y-64500000D01*
X181850000Y-74500000D02*
X181850000Y-73500000D01*
X180150000Y-73500000D02*
X180150000Y-74500000D01*
X185200000Y-134500000D02*
X185200000Y-127500000D01*
X186200000Y-134500000D02*
X185200000Y-134500000D01*
X190350000Y-134500000D02*
X190350000Y-127500000D01*
X174500000Y-55500000D02*
X174500000Y-62500000D01*
X178650000Y-55500000D02*
X179650000Y-55500000D01*
X179650000Y-55500000D02*
X179650000Y-62500000D01*
X180150000Y-109500000D02*
X180150000Y-110500000D01*
X181850000Y-110500000D02*
X181850000Y-109500000D01*
X190350000Y-125500000D02*
X190350000Y-118500000D01*
X186200000Y-125500000D02*
X185200000Y-125500000D01*
X185200000Y-125500000D02*
X185200000Y-118500000D01*
X182650000Y-80000000D02*
X182650000Y-81000000D01*
X184350000Y-81000000D02*
X184350000Y-80000000D01*
X211350000Y-134500000D02*
X211350000Y-127500000D01*
X207200000Y-134500000D02*
X206200000Y-134500000D01*
X206200000Y-134500000D02*
X206200000Y-127500000D01*
X200650000Y-55500000D02*
X200650000Y-62500000D01*
X199650000Y-55500000D02*
X200650000Y-55500000D01*
X195500000Y-55500000D02*
X195500000Y-62500000D01*
X206200000Y-71500000D02*
X206200000Y-64500000D01*
X207200000Y-71500000D02*
X206200000Y-71500000D01*
X211350000Y-71500000D02*
X211350000Y-64500000D01*
X206200000Y-125500000D02*
X206200000Y-118500000D01*
X207200000Y-125500000D02*
X206200000Y-125500000D01*
X211350000Y-125500000D02*
X211350000Y-118500000D01*
X205350000Y-81000000D02*
X205350000Y-80000000D01*
X203650000Y-80000000D02*
X203650000Y-81000000D01*
X200625000Y-91500000D02*
X200625000Y-98500000D01*
X199625000Y-91500000D02*
X200625000Y-91500000D01*
X195475000Y-91500000D02*
X195475000Y-98500000D01*
X195475000Y-64500000D02*
X195475000Y-71500000D01*
X199625000Y-64500000D02*
X200625000Y-64500000D01*
X200625000Y-64500000D02*
X200625000Y-71500000D01*
X203650000Y-89000000D02*
X203650000Y-90000000D01*
X205350000Y-90000000D02*
X205350000Y-89000000D01*
X203650000Y-125000000D02*
X203650000Y-126000000D01*
X205350000Y-126000000D02*
X205350000Y-125000000D01*
X196788712Y-50983352D02*
G75*
G02X196000000Y-51180000I-788712J1483352D01*
G01*
X197483953Y-48710912D02*
G75*
G02X197484000Y-50289000I-1483953J-789088D01*
G01*
X195210912Y-48016047D02*
G75*
G02X196789000Y-48016000I789088J-1483953D01*
G01*
X194516047Y-50289088D02*
G75*
G02X194516000Y-48711000I1483953J789088D01*
G01*
X196029383Y-51180450D02*
G75*
G02X195211000Y-50984000I-29383J1680450D01*
G01*
X196900000Y-46500000D02*
G75*
G03X196900000Y-46500000I-900000J0D01*
G01*
X202680000Y-49500000D02*
G75*
G03X202680000Y-49500000I-1680000J0D01*
G01*
X201900000Y-46500000D02*
G75*
G03X201900000Y-46500000I-900000J0D01*
G01*
X207680000Y-49500000D02*
G75*
G03X207680000Y-49500000I-1680000J0D01*
G01*
X206900000Y-46500000D02*
G75*
G03X206900000Y-46500000I-900000J0D01*
G01*
X212680000Y-49500000D02*
G75*
G03X212680000Y-49500000I-1680000J0D01*
G01*
X211900000Y-46500000D02*
G75*
G03X211900000Y-46500000I-900000J0D01*
G01*
X193440000Y-52000000D02*
X213560000Y-52000000D01*
X193440000Y-44440000D02*
X193440000Y-53560000D01*
X193440000Y-53560000D02*
X213560000Y-53560000D01*
X213560000Y-53560000D02*
X213560000Y-44440000D01*
X213560000Y-44440000D02*
X193440000Y-44440000D01*
X202275000Y-48431000D02*
X202181000Y-48524000D01*
X199990000Y-50716000D02*
X199931000Y-50774000D01*
X202070000Y-48225000D02*
X202011000Y-48284000D01*
X199820000Y-50476000D02*
X199726000Y-50569000D01*
X207275000Y-48431000D02*
X207181000Y-48524000D01*
X204990000Y-50716000D02*
X204931000Y-50774000D01*
X207070000Y-48225000D02*
X207011000Y-48284000D01*
X204820000Y-50476000D02*
X204726000Y-50569000D01*
X212275000Y-48431000D02*
X212181000Y-48524000D01*
X209990000Y-50716000D02*
X209931000Y-50774000D01*
X212070000Y-48225000D02*
X212011000Y-48284000D01*
X209820000Y-50476000D02*
X209726000Y-50569000D01*
X193200000Y-52060000D02*
X193200000Y-53800000D01*
X193200000Y-53800000D02*
X194700000Y-53800000D01*
X195475000Y-82500000D02*
X195475000Y-89500000D01*
X199625000Y-82500000D02*
X200625000Y-82500000D01*
X200625000Y-82500000D02*
X200625000Y-89500000D01*
X206200000Y-107500000D02*
X206200000Y-100500000D01*
X207200000Y-107500000D02*
X206200000Y-107500000D01*
X211350000Y-107500000D02*
X211350000Y-100500000D01*
X211350000Y-116500000D02*
X211350000Y-109500000D01*
X207200000Y-116500000D02*
X206200000Y-116500000D01*
X206200000Y-116500000D02*
X206200000Y-109500000D01*
X202850000Y-128500000D02*
X202850000Y-127500000D01*
X201150000Y-127500000D02*
X201150000Y-128500000D01*
X200625000Y-73500000D02*
X200625000Y-80500000D01*
X199625000Y-73500000D02*
X200625000Y-73500000D01*
X195475000Y-73500000D02*
X195475000Y-80500000D01*
X202850000Y-92500000D02*
X202850000Y-91500000D01*
X201150000Y-91500000D02*
X201150000Y-92500000D01*
X202850000Y-110500000D02*
X202850000Y-109500000D01*
X201150000Y-109500000D02*
X201150000Y-110500000D01*
X201150000Y-82500000D02*
X201150000Y-83500000D01*
X202850000Y-83500000D02*
X202850000Y-82500000D01*
X174475000Y-91500000D02*
X174475000Y-98500000D01*
X178625000Y-91500000D02*
X179625000Y-91500000D01*
X179625000Y-91500000D02*
X179625000Y-98500000D01*
X179625000Y-64500000D02*
X179625000Y-71500000D01*
X178625000Y-64500000D02*
X179625000Y-64500000D01*
X174475000Y-64500000D02*
X174475000Y-71500000D01*
X196786000Y-54000000D02*
G75*
G03X196786000Y-54000000I-2286000J0D01*
G01*
X184350000Y-90000000D02*
X184350000Y-89000000D01*
X182650000Y-89000000D02*
X182650000Y-90000000D01*
X184350000Y-126000000D02*
X184350000Y-125000000D01*
X182650000Y-125000000D02*
X182650000Y-126000000D01*
X172200000Y-53800000D02*
X173700000Y-53800000D01*
X172200000Y-52060000D02*
X172200000Y-53800000D01*
X188820000Y-50476000D02*
X188726000Y-50569000D01*
X191070000Y-48225000D02*
X191011000Y-48284000D01*
X188990000Y-50716000D02*
X188931000Y-50774000D01*
X191275000Y-48431000D02*
X191181000Y-48524000D01*
X183820000Y-50476000D02*
X183726000Y-50569000D01*
X186070000Y-48225000D02*
X186011000Y-48284000D01*
X183990000Y-50716000D02*
X183931000Y-50774000D01*
X186275000Y-48431000D02*
X186181000Y-48524000D01*
X178820000Y-50476000D02*
X178726000Y-50569000D01*
X181070000Y-48225000D02*
X181011000Y-48284000D01*
X178990000Y-50716000D02*
X178931000Y-50774000D01*
X181275000Y-48431000D02*
X181181000Y-48524000D01*
X192560000Y-44440000D02*
X172440000Y-44440000D01*
X192560000Y-53560000D02*
X192560000Y-44440000D01*
X172440000Y-53560000D02*
X192560000Y-53560000D01*
X172440000Y-44440000D02*
X172440000Y-53560000D01*
X172440000Y-52000000D02*
X192560000Y-52000000D01*
X190900000Y-46500000D02*
G75*
G03X190900000Y-46500000I-900000J0D01*
G01*
X191680000Y-49500000D02*
G75*
G03X191680000Y-49500000I-1680000J0D01*
G01*
X185900000Y-46500000D02*
G75*
G03X185900000Y-46500000I-900000J0D01*
G01*
X186680000Y-49500000D02*
G75*
G03X186680000Y-49500000I-1680000J0D01*
G01*
X180900000Y-46500000D02*
G75*
G03X180900000Y-46500000I-900000J0D01*
G01*
X181680000Y-49500000D02*
G75*
G03X181680000Y-49500000I-1680000J0D01*
G01*
X175900000Y-46500000D02*
G75*
G03X175900000Y-46500000I-900000J0D01*
G01*
X175029383Y-51180450D02*
G75*
G02X174211000Y-50984000I-29383J1680450D01*
G01*
X173516047Y-50289088D02*
G75*
G02X173516000Y-48711000I1483953J789088D01*
G01*
X174210912Y-48016047D02*
G75*
G02X175789000Y-48016000I789088J-1483953D01*
G01*
X176483953Y-48710912D02*
G75*
G02X176484000Y-50289000I-1483953J-789088D01*
G01*
X175788712Y-50983352D02*
G75*
G02X175000000Y-51180000I-788712J1483352D01*
G01*
X179625000Y-82500000D02*
X179625000Y-89500000D01*
X178625000Y-82500000D02*
X179625000Y-82500000D01*
X174475000Y-82500000D02*
X174475000Y-89500000D01*
X190350000Y-107500000D02*
X190350000Y-100500000D01*
X186200000Y-107500000D02*
X185200000Y-107500000D01*
X185200000Y-107500000D02*
X185200000Y-100500000D01*
X185200000Y-116500000D02*
X185200000Y-109500000D01*
X186200000Y-116500000D02*
X185200000Y-116500000D01*
X190350000Y-116500000D02*
X190350000Y-109500000D01*
X180150000Y-127500000D02*
X180150000Y-128500000D01*
X181850000Y-128500000D02*
X181850000Y-127500000D01*
X174475000Y-73500000D02*
X174475000Y-80500000D01*
X178625000Y-73500000D02*
X179625000Y-73500000D01*
X179625000Y-73500000D02*
X179625000Y-80500000D01*
X195475000Y-127500000D02*
X195475000Y-134500000D01*
X199625000Y-127500000D02*
X200625000Y-127500000D01*
X200625000Y-127500000D02*
X200625000Y-134500000D01*
X211350000Y-80500000D02*
X211350000Y-73500000D01*
X207200000Y-80500000D02*
X206200000Y-80500000D01*
X206200000Y-80500000D02*
X206200000Y-73500000D01*
X201150000Y-100500000D02*
X201150000Y-101500000D01*
X202850000Y-101500000D02*
X202850000Y-100500000D01*
X202850000Y-119500000D02*
X202850000Y-118500000D01*
X201150000Y-118500000D02*
X201150000Y-119500000D01*
X195475000Y-136500000D02*
X195475000Y-143500000D01*
X199625000Y-136500000D02*
X200625000Y-136500000D01*
X200625000Y-136500000D02*
X200625000Y-143500000D01*
X211350000Y-98500000D02*
X211350000Y-91500000D01*
X207200000Y-98500000D02*
X206200000Y-98500000D01*
X206200000Y-98500000D02*
X206200000Y-91500000D01*
X200625000Y-100500000D02*
X200625000Y-107500000D01*
X199625000Y-100500000D02*
X200625000Y-100500000D01*
X195475000Y-100500000D02*
X195475000Y-107500000D01*
X211350000Y-62500000D02*
X211350000Y-55500000D01*
X207200000Y-62500000D02*
X206200000Y-62500000D01*
X206200000Y-62500000D02*
X206200000Y-55500000D01*
X203650000Y-141000000D02*
X203650000Y-142000000D01*
X205350000Y-142000000D02*
X205350000Y-141000000D01*
X214786000Y-54000000D02*
G75*
G03X214786000Y-54000000I-2286000J0D01*
G01*
X196786000Y-140000000D02*
G75*
G03X196786000Y-140000000I-2286000J0D01*
G01*
X203650000Y-71000000D02*
X203650000Y-72000000D01*
X205350000Y-72000000D02*
X205350000Y-71000000D01*
X206200000Y-89500000D02*
X206200000Y-82500000D01*
X207200000Y-89500000D02*
X206200000Y-89500000D01*
X211350000Y-89500000D02*
X211350000Y-82500000D01*
X195475000Y-109500000D02*
X195475000Y-116500000D01*
X199625000Y-109500000D02*
X200625000Y-109500000D01*
X200625000Y-109500000D02*
X200625000Y-116500000D01*
X201150000Y-55500000D02*
X201150000Y-56500000D01*
X202850000Y-56500000D02*
X202850000Y-55500000D01*
X203650000Y-107000000D02*
X203650000Y-108000000D01*
X205350000Y-108000000D02*
X205350000Y-107000000D01*
X200625000Y-118500000D02*
X200625000Y-125500000D01*
X199625000Y-118500000D02*
X200625000Y-118500000D01*
X195475000Y-118500000D02*
X195475000Y-125500000D01*
X202850000Y-65500000D02*
X202850000Y-64500000D01*
X201150000Y-64500000D02*
X201150000Y-65500000D01*
X201150000Y-73500000D02*
X201150000Y-74500000D01*
X202850000Y-74500000D02*
X202850000Y-73500000D01*
X180150000Y-91500000D02*
X180150000Y-92500000D01*
X181850000Y-92500000D02*
X181850000Y-91500000D01*
X205350000Y-99000000D02*
X205350000Y-98000000D01*
X203650000Y-98000000D02*
X203650000Y-99000000D01*
X181850000Y-83500000D02*
X181850000Y-82500000D01*
X180150000Y-82500000D02*
X180150000Y-83500000D01*
X190350000Y-143500000D02*
X190350000Y-136500000D01*
X186200000Y-143500000D02*
X185200000Y-143500000D01*
X185200000Y-143500000D02*
X185200000Y-136500000D01*
X182650000Y-98000000D02*
X182650000Y-99000000D01*
X184350000Y-99000000D02*
X184350000Y-98000000D01*
X206200000Y-143500000D02*
X206200000Y-136500000D01*
X207200000Y-143500000D02*
X206200000Y-143500000D01*
X211350000Y-143500000D02*
X211350000Y-136500000D01*
X182650000Y-116000000D02*
X182650000Y-117000000D01*
X184350000Y-117000000D02*
X184350000Y-116000000D01*
X182650000Y-134000000D02*
X182650000Y-135000000D01*
X184350000Y-135000000D02*
X184350000Y-134000000D01*
X181850000Y-137500000D02*
X181850000Y-136500000D01*
X180150000Y-136500000D02*
X180150000Y-137500000D01*
X205350000Y-63000000D02*
X205350000Y-62000000D01*
X203650000Y-62000000D02*
X203650000Y-63000000D01*
X201150000Y-136500000D02*
X201150000Y-137500000D01*
X202850000Y-137500000D02*
X202850000Y-136500000D01*
X214786000Y-140000000D02*
G75*
G03X214786000Y-140000000I-2286000J0D01*
G01*
X205350000Y-135000000D02*
X205350000Y-134000000D01*
X203650000Y-134000000D02*
X203650000Y-135000000D01*
X205350000Y-117000000D02*
X205350000Y-116000000D01*
X203650000Y-116000000D02*
X203650000Y-117000000D01*
X193786000Y-140000000D02*
G75*
G03X193786000Y-140000000I-2286000J0D01*
G01*
X182650000Y-62000000D02*
X182650000Y-63000000D01*
X184350000Y-63000000D02*
X184350000Y-62000000D01*
X154786000Y-54000000D02*
G75*
G03X154786000Y-54000000I-2286000J0D01*
G01*
X172786000Y-54000000D02*
G75*
G03X172786000Y-54000000I-2286000J0D01*
G01*
X154786000Y-140000000D02*
G75*
G03X154786000Y-140000000I-2286000J0D01*
G01*
X158625000Y-127500000D02*
X158625000Y-134500000D01*
X157625000Y-127500000D02*
X158625000Y-127500000D01*
X153475000Y-127500000D02*
X153475000Y-134500000D01*
X164200000Y-80500000D02*
X164200000Y-73500000D01*
X165200000Y-80500000D02*
X164200000Y-80500000D01*
X169350000Y-80500000D02*
X169350000Y-73500000D01*
X160850000Y-101500000D02*
X160850000Y-100500000D01*
X159150000Y-100500000D02*
X159150000Y-101500000D01*
X159150000Y-118500000D02*
X159150000Y-119500000D01*
X160850000Y-119500000D02*
X160850000Y-118500000D01*
X158625000Y-136500000D02*
X158625000Y-143500000D01*
X157625000Y-136500000D02*
X158625000Y-136500000D01*
X153475000Y-136500000D02*
X153475000Y-143500000D01*
X164200000Y-98500000D02*
X164200000Y-91500000D01*
X165200000Y-98500000D02*
X164200000Y-98500000D01*
X169350000Y-98500000D02*
X169350000Y-91500000D01*
X153475000Y-100500000D02*
X153475000Y-107500000D01*
X157625000Y-100500000D02*
X158625000Y-100500000D01*
X158625000Y-100500000D02*
X158625000Y-107500000D01*
X164200000Y-62500000D02*
X164200000Y-55500000D01*
X165200000Y-62500000D02*
X164200000Y-62500000D01*
X169350000Y-62500000D02*
X169350000Y-55500000D01*
X163350000Y-142000000D02*
X163350000Y-141000000D01*
X161650000Y-141000000D02*
X161650000Y-142000000D01*
X169350000Y-71500000D02*
X169350000Y-64500000D01*
X165200000Y-71500000D02*
X164200000Y-71500000D01*
X164200000Y-71500000D02*
X164200000Y-64500000D01*
X163350000Y-72000000D02*
X163350000Y-71000000D01*
X161650000Y-71000000D02*
X161650000Y-72000000D01*
X169350000Y-89500000D02*
X169350000Y-82500000D01*
X165200000Y-89500000D02*
X164200000Y-89500000D01*
X164200000Y-89500000D02*
X164200000Y-82500000D01*
X158625000Y-109500000D02*
X158625000Y-116500000D01*
X157625000Y-109500000D02*
X158625000Y-109500000D01*
X153475000Y-109500000D02*
X153475000Y-116500000D01*
X160850000Y-56500000D02*
X160850000Y-55500000D01*
X159150000Y-55500000D02*
X159150000Y-56500000D01*
X163350000Y-108000000D02*
X163350000Y-107000000D01*
X161650000Y-107000000D02*
X161650000Y-108000000D01*
X153475000Y-118500000D02*
X153475000Y-125500000D01*
X157625000Y-118500000D02*
X158625000Y-118500000D01*
X158625000Y-118500000D02*
X158625000Y-125500000D01*
X159150000Y-64500000D02*
X159150000Y-65500000D01*
X160850000Y-65500000D02*
X160850000Y-64500000D01*
X160850000Y-74500000D02*
X160850000Y-73500000D01*
X159150000Y-73500000D02*
X159150000Y-74500000D01*
X164200000Y-134500000D02*
X164200000Y-127500000D01*
X165200000Y-134500000D02*
X164200000Y-134500000D01*
X169350000Y-134500000D02*
X169350000Y-127500000D01*
X153500000Y-55500000D02*
X153500000Y-62500000D01*
X157650000Y-55500000D02*
X158650000Y-55500000D01*
X158650000Y-55500000D02*
X158650000Y-62500000D01*
X159150000Y-109500000D02*
X159150000Y-110500000D01*
X160850000Y-110500000D02*
X160850000Y-109500000D01*
X169350000Y-125500000D02*
X169350000Y-118500000D01*
X165200000Y-125500000D02*
X164200000Y-125500000D01*
X164200000Y-125500000D02*
X164200000Y-118500000D01*
X161650000Y-80000000D02*
X161650000Y-81000000D01*
X163350000Y-81000000D02*
X163350000Y-80000000D01*
X153475000Y-91500000D02*
X153475000Y-98500000D01*
X157625000Y-91500000D02*
X158625000Y-91500000D01*
X158625000Y-91500000D02*
X158625000Y-98500000D01*
X158625000Y-64500000D02*
X158625000Y-71500000D01*
X157625000Y-64500000D02*
X158625000Y-64500000D01*
X153475000Y-64500000D02*
X153475000Y-71500000D01*
X163350000Y-90000000D02*
X163350000Y-89000000D01*
X161650000Y-89000000D02*
X161650000Y-90000000D01*
X163350000Y-126000000D02*
X163350000Y-125000000D01*
X161650000Y-125000000D02*
X161650000Y-126000000D01*
X151200000Y-53800000D02*
X152700000Y-53800000D01*
X151200000Y-52060000D02*
X151200000Y-53800000D01*
X167820000Y-50476000D02*
X167726000Y-50569000D01*
X170070000Y-48225000D02*
X170011000Y-48284000D01*
X167990000Y-50716000D02*
X167931000Y-50774000D01*
X170275000Y-48431000D02*
X170181000Y-48524000D01*
X162820000Y-50476000D02*
X162726000Y-50569000D01*
X165070000Y-48225000D02*
X165011000Y-48284000D01*
X162990000Y-50716000D02*
X162931000Y-50774000D01*
X165275000Y-48431000D02*
X165181000Y-48524000D01*
X157820000Y-50476000D02*
X157726000Y-50569000D01*
X160070000Y-48225000D02*
X160011000Y-48284000D01*
X157990000Y-50716000D02*
X157931000Y-50774000D01*
X160275000Y-48431000D02*
X160181000Y-48524000D01*
X171560000Y-44440000D02*
X151440000Y-44440000D01*
X171560000Y-53560000D02*
X171560000Y-44440000D01*
X151440000Y-53560000D02*
X171560000Y-53560000D01*
X151440000Y-44440000D02*
X151440000Y-53560000D01*
X151440000Y-52000000D02*
X171560000Y-52000000D01*
X169900000Y-46500000D02*
G75*
G03X169900000Y-46500000I-900000J0D01*
G01*
X170680000Y-49500000D02*
G75*
G03X170680000Y-49500000I-1680000J0D01*
G01*
X164900000Y-46500000D02*
G75*
G03X164900000Y-46500000I-900000J0D01*
G01*
X165680000Y-49500000D02*
G75*
G03X165680000Y-49500000I-1680000J0D01*
G01*
X159900000Y-46500000D02*
G75*
G03X159900000Y-46500000I-900000J0D01*
G01*
X160680000Y-49500000D02*
G75*
G03X160680000Y-49500000I-1680000J0D01*
G01*
X154900000Y-46500000D02*
G75*
G03X154900000Y-46500000I-900000J0D01*
G01*
X154029383Y-51180450D02*
G75*
G02X153211000Y-50984000I-29383J1680450D01*
G01*
X152516047Y-50289088D02*
G75*
G02X152516000Y-48711000I1483953J789088D01*
G01*
X153210912Y-48016047D02*
G75*
G02X154789000Y-48016000I789088J-1483953D01*
G01*
X155483953Y-48710912D02*
G75*
G02X155484000Y-50289000I-1483953J-789088D01*
G01*
X154788712Y-50983352D02*
G75*
G02X154000000Y-51180000I-788712J1483352D01*
G01*
X158625000Y-82500000D02*
X158625000Y-89500000D01*
X157625000Y-82500000D02*
X158625000Y-82500000D01*
X153475000Y-82500000D02*
X153475000Y-89500000D01*
X169350000Y-107500000D02*
X169350000Y-100500000D01*
X165200000Y-107500000D02*
X164200000Y-107500000D01*
X164200000Y-107500000D02*
X164200000Y-100500000D01*
X164200000Y-116500000D02*
X164200000Y-109500000D01*
X165200000Y-116500000D02*
X164200000Y-116500000D01*
X169350000Y-116500000D02*
X169350000Y-109500000D01*
X159150000Y-127500000D02*
X159150000Y-128500000D01*
X160850000Y-128500000D02*
X160850000Y-127500000D01*
X153475000Y-73500000D02*
X153475000Y-80500000D01*
X157625000Y-73500000D02*
X158625000Y-73500000D01*
X158625000Y-73500000D02*
X158625000Y-80500000D01*
X159150000Y-91500000D02*
X159150000Y-92500000D01*
X160850000Y-92500000D02*
X160850000Y-91500000D01*
X160850000Y-83500000D02*
X160850000Y-82500000D01*
X159150000Y-82500000D02*
X159150000Y-83500000D01*
X169350000Y-143500000D02*
X169350000Y-136500000D01*
X165200000Y-143500000D02*
X164200000Y-143500000D01*
X164200000Y-143500000D02*
X164200000Y-136500000D01*
X161650000Y-98000000D02*
X161650000Y-99000000D01*
X163350000Y-99000000D02*
X163350000Y-98000000D01*
X161650000Y-116000000D02*
X161650000Y-117000000D01*
X163350000Y-117000000D02*
X163350000Y-116000000D01*
X161650000Y-134000000D02*
X161650000Y-135000000D01*
X163350000Y-135000000D02*
X163350000Y-134000000D01*
X160850000Y-137500000D02*
X160850000Y-136500000D01*
X159150000Y-136500000D02*
X159150000Y-137500000D01*
X172786000Y-140000000D02*
G75*
G03X172786000Y-140000000I-2286000J0D01*
G01*
X161650000Y-62000000D02*
X161650000Y-63000000D01*
X163350000Y-63000000D02*
X163350000Y-62000000D01*
X133786000Y-54000000D02*
G75*
G03X133786000Y-54000000I-2286000J0D01*
G01*
X151786000Y-54000000D02*
G75*
G03X151786000Y-54000000I-2286000J0D01*
G01*
X133786000Y-140000000D02*
G75*
G03X133786000Y-140000000I-2286000J0D01*
G01*
X151786000Y-140000000D02*
G75*
G03X151786000Y-140000000I-2286000J0D01*
G01*
X142350000Y-63000000D02*
X142350000Y-62000000D01*
X140650000Y-62000000D02*
X140650000Y-63000000D01*
X138150000Y-136500000D02*
X138150000Y-137500000D01*
X139850000Y-137500000D02*
X139850000Y-136500000D01*
X140650000Y-71000000D02*
X140650000Y-72000000D01*
X142350000Y-72000000D02*
X142350000Y-71000000D01*
X139850000Y-128500000D02*
X139850000Y-127500000D01*
X138150000Y-127500000D02*
X138150000Y-128500000D01*
X142350000Y-81000000D02*
X142350000Y-80000000D01*
X140650000Y-80000000D02*
X140650000Y-81000000D01*
X139850000Y-119500000D02*
X139850000Y-118500000D01*
X138150000Y-118500000D02*
X138150000Y-119500000D01*
X140650000Y-89000000D02*
X140650000Y-90000000D01*
X142350000Y-90000000D02*
X142350000Y-89000000D01*
X139850000Y-110500000D02*
X139850000Y-109500000D01*
X138150000Y-109500000D02*
X138150000Y-110500000D01*
X142350000Y-99000000D02*
X142350000Y-98000000D01*
X140650000Y-98000000D02*
X140650000Y-99000000D01*
X138150000Y-100500000D02*
X138150000Y-101500000D01*
X139850000Y-101500000D02*
X139850000Y-100500000D01*
X140650000Y-107000000D02*
X140650000Y-108000000D01*
X142350000Y-108000000D02*
X142350000Y-107000000D01*
X139850000Y-92500000D02*
X139850000Y-91500000D01*
X138150000Y-91500000D02*
X138150000Y-92500000D01*
X142350000Y-117000000D02*
X142350000Y-116000000D01*
X140650000Y-116000000D02*
X140650000Y-117000000D01*
X138150000Y-82500000D02*
X138150000Y-83500000D01*
X139850000Y-83500000D02*
X139850000Y-82500000D01*
X140650000Y-125000000D02*
X140650000Y-126000000D01*
X142350000Y-126000000D02*
X142350000Y-125000000D01*
X138150000Y-73500000D02*
X138150000Y-74500000D01*
X139850000Y-74500000D02*
X139850000Y-73500000D01*
X142350000Y-135000000D02*
X142350000Y-134000000D01*
X140650000Y-134000000D02*
X140650000Y-135000000D01*
X139850000Y-65500000D02*
X139850000Y-64500000D01*
X138150000Y-64500000D02*
X138150000Y-65500000D01*
X140650000Y-141000000D02*
X140650000Y-142000000D01*
X142350000Y-142000000D02*
X142350000Y-141000000D01*
X138150000Y-55500000D02*
X138150000Y-56500000D01*
X139850000Y-56500000D02*
X139850000Y-55500000D01*
X148350000Y-62500000D02*
X148350000Y-55500000D01*
X144200000Y-62500000D02*
X143200000Y-62500000D01*
X143200000Y-62500000D02*
X143200000Y-55500000D01*
X132475000Y-136500000D02*
X132475000Y-143500000D01*
X136625000Y-136500000D02*
X137625000Y-136500000D01*
X137625000Y-136500000D02*
X137625000Y-143500000D01*
X143200000Y-71500000D02*
X143200000Y-64500000D01*
X144200000Y-71500000D02*
X143200000Y-71500000D01*
X148350000Y-71500000D02*
X148350000Y-64500000D01*
X132475000Y-127500000D02*
X132475000Y-134500000D01*
X136625000Y-127500000D02*
X137625000Y-127500000D01*
X137625000Y-127500000D02*
X137625000Y-134500000D01*
X148350000Y-80500000D02*
X148350000Y-73500000D01*
X144200000Y-80500000D02*
X143200000Y-80500000D01*
X143200000Y-80500000D02*
X143200000Y-73500000D01*
X137625000Y-118500000D02*
X137625000Y-125500000D01*
X136625000Y-118500000D02*
X137625000Y-118500000D01*
X132475000Y-118500000D02*
X132475000Y-125500000D01*
X143200000Y-89500000D02*
X143200000Y-82500000D01*
X144200000Y-89500000D02*
X143200000Y-89500000D01*
X148350000Y-89500000D02*
X148350000Y-82500000D01*
X132475000Y-109500000D02*
X132475000Y-116500000D01*
X136625000Y-109500000D02*
X137625000Y-109500000D01*
X137625000Y-109500000D02*
X137625000Y-116500000D01*
X148350000Y-98500000D02*
X148350000Y-91500000D01*
X144200000Y-98500000D02*
X143200000Y-98500000D01*
X143200000Y-98500000D02*
X143200000Y-91500000D01*
X137625000Y-100500000D02*
X137625000Y-107500000D01*
X136625000Y-100500000D02*
X137625000Y-100500000D01*
X132475000Y-100500000D02*
X132475000Y-107500000D01*
X143200000Y-107500000D02*
X143200000Y-100500000D01*
X144200000Y-107500000D02*
X143200000Y-107500000D01*
X148350000Y-107500000D02*
X148350000Y-100500000D01*
X137625000Y-91500000D02*
X137625000Y-98500000D01*
X136625000Y-91500000D02*
X137625000Y-91500000D01*
X132475000Y-91500000D02*
X132475000Y-98500000D01*
X148350000Y-116500000D02*
X148350000Y-109500000D01*
X144200000Y-116500000D02*
X143200000Y-116500000D01*
X143200000Y-116500000D02*
X143200000Y-109500000D01*
X132475000Y-82500000D02*
X132475000Y-89500000D01*
X136625000Y-82500000D02*
X137625000Y-82500000D01*
X137625000Y-82500000D02*
X137625000Y-89500000D01*
X143200000Y-125500000D02*
X143200000Y-118500000D01*
X144200000Y-125500000D02*
X143200000Y-125500000D01*
X148350000Y-125500000D02*
X148350000Y-118500000D01*
X137625000Y-73500000D02*
X137625000Y-80500000D01*
X136625000Y-73500000D02*
X137625000Y-73500000D01*
X132475000Y-73500000D02*
X132475000Y-80500000D01*
X148350000Y-134500000D02*
X148350000Y-127500000D01*
X144200000Y-134500000D02*
X143200000Y-134500000D01*
X143200000Y-134500000D02*
X143200000Y-127500000D01*
X132475000Y-64500000D02*
X132475000Y-71500000D01*
X136625000Y-64500000D02*
X137625000Y-64500000D01*
X137625000Y-64500000D02*
X137625000Y-71500000D01*
X143200000Y-143500000D02*
X143200000Y-136500000D01*
X144200000Y-143500000D02*
X143200000Y-143500000D01*
X148350000Y-143500000D02*
X148350000Y-136500000D01*
X137650000Y-55500000D02*
X137650000Y-62500000D01*
X136650000Y-55500000D02*
X137650000Y-55500000D01*
X132500000Y-55500000D02*
X132500000Y-62500000D01*
X133788712Y-50983352D02*
G75*
G02X133000000Y-51180000I-788712J1483352D01*
G01*
X134483953Y-48710912D02*
G75*
G02X134484000Y-50289000I-1483953J-789088D01*
G01*
X132210912Y-48016047D02*
G75*
G02X133789000Y-48016000I789088J-1483953D01*
G01*
X131516047Y-50289088D02*
G75*
G02X131516000Y-48711000I1483953J789088D01*
G01*
X133029383Y-51180450D02*
G75*
G02X132211000Y-50984000I-29383J1680450D01*
G01*
X133900000Y-46500000D02*
G75*
G03X133900000Y-46500000I-900000J0D01*
G01*
X139680000Y-49500000D02*
G75*
G03X139680000Y-49500000I-1680000J0D01*
G01*
X138900000Y-46500000D02*
G75*
G03X138900000Y-46500000I-900000J0D01*
G01*
X144680000Y-49500000D02*
G75*
G03X144680000Y-49500000I-1680000J0D01*
G01*
X143900000Y-46500000D02*
G75*
G03X143900000Y-46500000I-900000J0D01*
G01*
X149680000Y-49500000D02*
G75*
G03X149680000Y-49500000I-1680000J0D01*
G01*
X148900000Y-46500000D02*
G75*
G03X148900000Y-46500000I-900000J0D01*
G01*
X130440000Y-52000000D02*
X150560000Y-52000000D01*
X130440000Y-44440000D02*
X130440000Y-53560000D01*
X130440000Y-53560000D02*
X150560000Y-53560000D01*
X150560000Y-53560000D02*
X150560000Y-44440000D01*
X150560000Y-44440000D02*
X130440000Y-44440000D01*
X139275000Y-48431000D02*
X139181000Y-48524000D01*
X136990000Y-50716000D02*
X136931000Y-50774000D01*
X139070000Y-48225000D02*
X139011000Y-48284000D01*
X136820000Y-50476000D02*
X136726000Y-50569000D01*
X144275000Y-48431000D02*
X144181000Y-48524000D01*
X141990000Y-50716000D02*
X141931000Y-50774000D01*
X144070000Y-48225000D02*
X144011000Y-48284000D01*
X141820000Y-50476000D02*
X141726000Y-50569000D01*
X149275000Y-48431000D02*
X149181000Y-48524000D01*
X146990000Y-50716000D02*
X146931000Y-50774000D01*
X149070000Y-48225000D02*
X149011000Y-48284000D01*
X146820000Y-50476000D02*
X146726000Y-50569000D01*
X130200000Y-52060000D02*
X130200000Y-53800000D01*
X130200000Y-53800000D02*
X131700000Y-53800000D01*
D10*
X181027380Y-132214285D02*
X180027380Y-132214285D01*
X180027380Y-131976190D01*
X180075000Y-131833333D01*
X180170238Y-131738095D01*
X180265476Y-131690476D01*
X180455952Y-131642857D01*
X180598809Y-131642857D01*
X180789285Y-131690476D01*
X180884523Y-131738095D01*
X180979761Y-131833333D01*
X181027380Y-131976190D01*
X181027380Y-132214285D01*
X181027380Y-130690476D02*
X181027380Y-131261904D01*
X181027380Y-130976190D02*
X180027380Y-130976190D01*
X180170238Y-131071428D01*
X180265476Y-131166666D01*
X180313095Y-131261904D01*
X180122619Y-130309523D02*
X180075000Y-130261904D01*
X180027380Y-130166666D01*
X180027380Y-129928571D01*
X180075000Y-129833333D01*
X180122619Y-129785714D01*
X180217857Y-129738095D01*
X180313095Y-129738095D01*
X180455952Y-129785714D01*
X181027380Y-130357142D01*
X181027380Y-129738095D01*
X184702380Y-77738095D02*
X183702380Y-77738095D01*
X183702380Y-77500000D01*
X183750000Y-77357142D01*
X183845238Y-77261904D01*
X183940476Y-77214285D01*
X184130952Y-77166666D01*
X184273809Y-77166666D01*
X184464285Y-77214285D01*
X184559523Y-77261904D01*
X184654761Y-77357142D01*
X184702380Y-77500000D01*
X184702380Y-77738095D01*
X183702380Y-76833333D02*
X183702380Y-76214285D01*
X184083333Y-76547619D01*
X184083333Y-76404761D01*
X184130952Y-76309523D01*
X184178571Y-76261904D01*
X184273809Y-76214285D01*
X184511904Y-76214285D01*
X184607142Y-76261904D01*
X184654761Y-76309523D01*
X184702380Y-76404761D01*
X184702380Y-76690476D01*
X184654761Y-76785714D01*
X184607142Y-76833333D01*
X182857142Y-102142857D02*
X182904761Y-102190476D01*
X182952380Y-102333333D01*
X182952380Y-102428571D01*
X182904761Y-102571428D01*
X182809523Y-102666666D01*
X182714285Y-102714285D01*
X182523809Y-102761904D01*
X182380952Y-102761904D01*
X182190476Y-102714285D01*
X182095238Y-102666666D01*
X182000000Y-102571428D01*
X181952380Y-102428571D01*
X181952380Y-102333333D01*
X182000000Y-102190476D01*
X182047619Y-102142857D01*
X182952380Y-101190476D02*
X182952380Y-101761904D01*
X182952380Y-101476190D02*
X181952380Y-101476190D01*
X182095238Y-101571428D01*
X182190476Y-101666666D01*
X182238095Y-101761904D01*
X181952380Y-100285714D02*
X181952380Y-100761904D01*
X182428571Y-100809523D01*
X182380952Y-100761904D01*
X182333333Y-100666666D01*
X182333333Y-100428571D01*
X182380952Y-100333333D01*
X182428571Y-100285714D01*
X182523809Y-100238095D01*
X182761904Y-100238095D01*
X182857142Y-100285714D01*
X182904761Y-100333333D01*
X182952380Y-100428571D01*
X182952380Y-100666666D01*
X182904761Y-100761904D01*
X182857142Y-100809523D01*
X182857142Y-121142857D02*
X182904761Y-121190476D01*
X182952380Y-121333333D01*
X182952380Y-121428571D01*
X182904761Y-121571428D01*
X182809523Y-121666666D01*
X182714285Y-121714285D01*
X182523809Y-121761904D01*
X182380952Y-121761904D01*
X182190476Y-121714285D01*
X182095238Y-121666666D01*
X182000000Y-121571428D01*
X181952380Y-121428571D01*
X181952380Y-121333333D01*
X182000000Y-121190476D01*
X182047619Y-121142857D01*
X182952380Y-120190476D02*
X182952380Y-120761904D01*
X182952380Y-120476190D02*
X181952380Y-120476190D01*
X182095238Y-120571428D01*
X182190476Y-120666666D01*
X182238095Y-120761904D01*
X181952380Y-119857142D02*
X181952380Y-119238095D01*
X182333333Y-119571428D01*
X182333333Y-119428571D01*
X182380952Y-119333333D01*
X182428571Y-119285714D01*
X182523809Y-119238095D01*
X182761904Y-119238095D01*
X182857142Y-119285714D01*
X182904761Y-119333333D01*
X182952380Y-119428571D01*
X182952380Y-119714285D01*
X182904761Y-119809523D01*
X182857142Y-119857142D01*
X181027380Y-141214285D02*
X180027380Y-141214285D01*
X180027380Y-140976190D01*
X180075000Y-140833333D01*
X180170238Y-140738095D01*
X180265476Y-140690476D01*
X180455952Y-140642857D01*
X180598809Y-140642857D01*
X180789285Y-140690476D01*
X180884523Y-140738095D01*
X180979761Y-140833333D01*
X181027380Y-140976190D01*
X181027380Y-141214285D01*
X181027380Y-139690476D02*
X181027380Y-140261904D01*
X181027380Y-139976190D02*
X180027380Y-139976190D01*
X180170238Y-140071428D01*
X180265476Y-140166666D01*
X180313095Y-140261904D01*
X181027380Y-138738095D02*
X181027380Y-139309523D01*
X181027380Y-139023809D02*
X180027380Y-139023809D01*
X180170238Y-139119047D01*
X180265476Y-139214285D01*
X180313095Y-139309523D01*
X184702380Y-95738095D02*
X183702380Y-95738095D01*
X183702380Y-95500000D01*
X183750000Y-95357142D01*
X183845238Y-95261904D01*
X183940476Y-95214285D01*
X184130952Y-95166666D01*
X184273809Y-95166666D01*
X184464285Y-95214285D01*
X184559523Y-95261904D01*
X184654761Y-95357142D01*
X184702380Y-95500000D01*
X184702380Y-95738095D01*
X183702380Y-94261904D02*
X183702380Y-94738095D01*
X184178571Y-94785714D01*
X184130952Y-94738095D01*
X184083333Y-94642857D01*
X184083333Y-94404761D01*
X184130952Y-94309523D01*
X184178571Y-94261904D01*
X184273809Y-94214285D01*
X184511904Y-94214285D01*
X184607142Y-94261904D01*
X184654761Y-94309523D01*
X184702380Y-94404761D01*
X184702380Y-94642857D01*
X184654761Y-94738095D01*
X184607142Y-94785714D01*
X181027380Y-105214285D02*
X180027380Y-105214285D01*
X180027380Y-104976190D01*
X180075000Y-104833333D01*
X180170238Y-104738095D01*
X180265476Y-104690476D01*
X180455952Y-104642857D01*
X180598809Y-104642857D01*
X180789285Y-104690476D01*
X180884523Y-104738095D01*
X180979761Y-104833333D01*
X181027380Y-104976190D01*
X181027380Y-105214285D01*
X181027380Y-103690476D02*
X181027380Y-104261904D01*
X181027380Y-103976190D02*
X180027380Y-103976190D01*
X180170238Y-104071428D01*
X180265476Y-104166666D01*
X180313095Y-104261904D01*
X180027380Y-102785714D02*
X180027380Y-103261904D01*
X180503571Y-103309523D01*
X180455952Y-103261904D01*
X180408333Y-103166666D01*
X180408333Y-102928571D01*
X180455952Y-102833333D01*
X180503571Y-102785714D01*
X180598809Y-102738095D01*
X180836904Y-102738095D01*
X180932142Y-102785714D01*
X180979761Y-102833333D01*
X181027380Y-102928571D01*
X181027380Y-103166666D01*
X180979761Y-103261904D01*
X180932142Y-103309523D01*
X184702380Y-59738095D02*
X183702380Y-59738095D01*
X183702380Y-59500000D01*
X183750000Y-59357142D01*
X183845238Y-59261904D01*
X183940476Y-59214285D01*
X184130952Y-59166666D01*
X184273809Y-59166666D01*
X184464285Y-59214285D01*
X184559523Y-59261904D01*
X184654761Y-59357142D01*
X184702380Y-59500000D01*
X184702380Y-59738095D01*
X184702380Y-58214285D02*
X184702380Y-58785714D01*
X184702380Y-58500000D02*
X183702380Y-58500000D01*
X183845238Y-58595238D01*
X183940476Y-58690476D01*
X183988095Y-58785714D01*
X182357142Y-142142857D02*
X182404761Y-142190476D01*
X182452380Y-142333333D01*
X182452380Y-142428571D01*
X182404761Y-142571428D01*
X182309523Y-142666666D01*
X182214285Y-142714285D01*
X182023809Y-142761904D01*
X181880952Y-142761904D01*
X181690476Y-142714285D01*
X181595238Y-142666666D01*
X181500000Y-142571428D01*
X181452380Y-142428571D01*
X181452380Y-142333333D01*
X181500000Y-142190476D01*
X181547619Y-142142857D01*
X182452380Y-141190476D02*
X182452380Y-141761904D01*
X182452380Y-141476190D02*
X181452380Y-141476190D01*
X181595238Y-141571428D01*
X181690476Y-141666666D01*
X181738095Y-141761904D01*
X181452380Y-140571428D02*
X181452380Y-140476190D01*
X181500000Y-140380952D01*
X181547619Y-140333333D01*
X181642857Y-140285714D01*
X181833333Y-140238095D01*
X182071428Y-140238095D01*
X182261904Y-140285714D01*
X182357142Y-140333333D01*
X182404761Y-140380952D01*
X182452380Y-140476190D01*
X182452380Y-140571428D01*
X182404761Y-140666666D01*
X182357142Y-140714285D01*
X182261904Y-140761904D01*
X182071428Y-140809523D01*
X181833333Y-140809523D01*
X181642857Y-140761904D01*
X181547619Y-140714285D01*
X181500000Y-140666666D01*
X181452380Y-140571428D01*
X184702380Y-68738095D02*
X183702380Y-68738095D01*
X183702380Y-68500000D01*
X183750000Y-68357142D01*
X183845238Y-68261904D01*
X183940476Y-68214285D01*
X184130952Y-68166666D01*
X184273809Y-68166666D01*
X184464285Y-68214285D01*
X184559523Y-68261904D01*
X184654761Y-68357142D01*
X184702380Y-68500000D01*
X184702380Y-68738095D01*
X183797619Y-67785714D02*
X183750000Y-67738095D01*
X183702380Y-67642857D01*
X183702380Y-67404761D01*
X183750000Y-67309523D01*
X183797619Y-67261904D01*
X183892857Y-67214285D01*
X183988095Y-67214285D01*
X184130952Y-67261904D01*
X184702380Y-67833333D01*
X184702380Y-67214285D01*
X182357142Y-71666666D02*
X182404761Y-71714285D01*
X182452380Y-71857142D01*
X182452380Y-71952380D01*
X182404761Y-72095238D01*
X182309523Y-72190476D01*
X182214285Y-72238095D01*
X182023809Y-72285714D01*
X181880952Y-72285714D01*
X181690476Y-72238095D01*
X181595238Y-72190476D01*
X181500000Y-72095238D01*
X181452380Y-71952380D01*
X181452380Y-71857142D01*
X181500000Y-71714285D01*
X181547619Y-71666666D01*
X181547619Y-71285714D02*
X181500000Y-71238095D01*
X181452380Y-71142857D01*
X181452380Y-70904761D01*
X181500000Y-70809523D01*
X181547619Y-70761904D01*
X181642857Y-70714285D01*
X181738095Y-70714285D01*
X181880952Y-70761904D01*
X182452380Y-71333333D01*
X182452380Y-70714285D01*
X184702380Y-86738095D02*
X183702380Y-86738095D01*
X183702380Y-86500000D01*
X183750000Y-86357142D01*
X183845238Y-86261904D01*
X183940476Y-86214285D01*
X184130952Y-86166666D01*
X184273809Y-86166666D01*
X184464285Y-86214285D01*
X184559523Y-86261904D01*
X184654761Y-86357142D01*
X184702380Y-86500000D01*
X184702380Y-86738095D01*
X184035714Y-85309523D02*
X184702380Y-85309523D01*
X183654761Y-85547619D02*
X184369047Y-85785714D01*
X184369047Y-85166666D01*
X181027380Y-114214285D02*
X180027380Y-114214285D01*
X180027380Y-113976190D01*
X180075000Y-113833333D01*
X180170238Y-113738095D01*
X180265476Y-113690476D01*
X180455952Y-113642857D01*
X180598809Y-113642857D01*
X180789285Y-113690476D01*
X180884523Y-113738095D01*
X180979761Y-113833333D01*
X181027380Y-113976190D01*
X181027380Y-114214285D01*
X181027380Y-112690476D02*
X181027380Y-113261904D01*
X181027380Y-112976190D02*
X180027380Y-112976190D01*
X180170238Y-113071428D01*
X180265476Y-113166666D01*
X180313095Y-113261904D01*
X180360714Y-111833333D02*
X181027380Y-111833333D01*
X179979761Y-112071428D02*
X180694047Y-112309523D01*
X180694047Y-111690476D01*
X182857142Y-56642857D02*
X182904761Y-56690476D01*
X182952380Y-56833333D01*
X182952380Y-56928571D01*
X182904761Y-57071428D01*
X182809523Y-57166666D01*
X182714285Y-57214285D01*
X182523809Y-57261904D01*
X182380952Y-57261904D01*
X182190476Y-57214285D01*
X182095238Y-57166666D01*
X182000000Y-57071428D01*
X181952380Y-56928571D01*
X181952380Y-56833333D01*
X182000000Y-56690476D01*
X182047619Y-56642857D01*
X182047619Y-56261904D02*
X182000000Y-56214285D01*
X181952380Y-56119047D01*
X181952380Y-55880952D01*
X182000000Y-55785714D01*
X182047619Y-55738095D01*
X182142857Y-55690476D01*
X182238095Y-55690476D01*
X182380952Y-55738095D01*
X182952380Y-56309523D01*
X182952380Y-55690476D01*
X181952380Y-55071428D02*
X181952380Y-54976190D01*
X182000000Y-54880952D01*
X182047619Y-54833333D01*
X182142857Y-54785714D01*
X182333333Y-54738095D01*
X182571428Y-54738095D01*
X182761904Y-54785714D01*
X182857142Y-54833333D01*
X182904761Y-54880952D01*
X182952380Y-54976190D01*
X182952380Y-55071428D01*
X182904761Y-55166666D01*
X182857142Y-55214285D01*
X182761904Y-55261904D01*
X182571428Y-55309523D01*
X182333333Y-55309523D01*
X182142857Y-55261904D01*
X182047619Y-55214285D01*
X182000000Y-55166666D01*
X181952380Y-55071428D01*
X182357142Y-107666666D02*
X182404761Y-107714285D01*
X182452380Y-107857142D01*
X182452380Y-107952380D01*
X182404761Y-108095238D01*
X182309523Y-108190476D01*
X182214285Y-108238095D01*
X182023809Y-108285714D01*
X181880952Y-108285714D01*
X181690476Y-108238095D01*
X181595238Y-108190476D01*
X181500000Y-108095238D01*
X181452380Y-107952380D01*
X181452380Y-107857142D01*
X181500000Y-107714285D01*
X181547619Y-107666666D01*
X181452380Y-106809523D02*
X181452380Y-107000000D01*
X181500000Y-107095238D01*
X181547619Y-107142857D01*
X181690476Y-107238095D01*
X181880952Y-107285714D01*
X182261904Y-107285714D01*
X182357142Y-107238095D01*
X182404761Y-107190476D01*
X182452380Y-107095238D01*
X182452380Y-106904761D01*
X182404761Y-106809523D01*
X182357142Y-106761904D01*
X182261904Y-106714285D01*
X182023809Y-106714285D01*
X181928571Y-106761904D01*
X181880952Y-106809523D01*
X181833333Y-106904761D01*
X181833333Y-107095238D01*
X181880952Y-107190476D01*
X181928571Y-107238095D01*
X182023809Y-107285714D01*
X181027380Y-123214285D02*
X180027380Y-123214285D01*
X180027380Y-122976190D01*
X180075000Y-122833333D01*
X180170238Y-122738095D01*
X180265476Y-122690476D01*
X180455952Y-122642857D01*
X180598809Y-122642857D01*
X180789285Y-122690476D01*
X180884523Y-122738095D01*
X180979761Y-122833333D01*
X181027380Y-122976190D01*
X181027380Y-123214285D01*
X181027380Y-121690476D02*
X181027380Y-122261904D01*
X181027380Y-121976190D02*
X180027380Y-121976190D01*
X180170238Y-122071428D01*
X180265476Y-122166666D01*
X180313095Y-122261904D01*
X180027380Y-121357142D02*
X180027380Y-120738095D01*
X180408333Y-121071428D01*
X180408333Y-120928571D01*
X180455952Y-120833333D01*
X180503571Y-120785714D01*
X180598809Y-120738095D01*
X180836904Y-120738095D01*
X180932142Y-120785714D01*
X180979761Y-120833333D01*
X181027380Y-120928571D01*
X181027380Y-121214285D01*
X180979761Y-121309523D01*
X180932142Y-121357142D01*
X182857142Y-66142857D02*
X182904761Y-66190476D01*
X182952380Y-66333333D01*
X182952380Y-66428571D01*
X182904761Y-66571428D01*
X182809523Y-66666666D01*
X182714285Y-66714285D01*
X182523809Y-66761904D01*
X182380952Y-66761904D01*
X182190476Y-66714285D01*
X182095238Y-66666666D01*
X182000000Y-66571428D01*
X181952380Y-66428571D01*
X181952380Y-66333333D01*
X182000000Y-66190476D01*
X182047619Y-66142857D01*
X182952380Y-65190476D02*
X182952380Y-65761904D01*
X182952380Y-65476190D02*
X181952380Y-65476190D01*
X182095238Y-65571428D01*
X182190476Y-65666666D01*
X182238095Y-65761904D01*
X182952380Y-64714285D02*
X182952380Y-64523809D01*
X182904761Y-64428571D01*
X182857142Y-64380952D01*
X182714285Y-64285714D01*
X182523809Y-64238095D01*
X182142857Y-64238095D01*
X182047619Y-64285714D01*
X182000000Y-64333333D01*
X181952380Y-64428571D01*
X181952380Y-64619047D01*
X182000000Y-64714285D01*
X182047619Y-64761904D01*
X182142857Y-64809523D01*
X182380952Y-64809523D01*
X182476190Y-64761904D01*
X182523809Y-64714285D01*
X182571428Y-64619047D01*
X182571428Y-64428571D01*
X182523809Y-64333333D01*
X182476190Y-64285714D01*
X182380952Y-64238095D01*
X182857142Y-75142857D02*
X182904761Y-75190476D01*
X182952380Y-75333333D01*
X182952380Y-75428571D01*
X182904761Y-75571428D01*
X182809523Y-75666666D01*
X182714285Y-75714285D01*
X182523809Y-75761904D01*
X182380952Y-75761904D01*
X182190476Y-75714285D01*
X182095238Y-75666666D01*
X182000000Y-75571428D01*
X181952380Y-75428571D01*
X181952380Y-75333333D01*
X182000000Y-75190476D01*
X182047619Y-75142857D01*
X182952380Y-74190476D02*
X182952380Y-74761904D01*
X182952380Y-74476190D02*
X181952380Y-74476190D01*
X182095238Y-74571428D01*
X182190476Y-74666666D01*
X182238095Y-74761904D01*
X182380952Y-73619047D02*
X182333333Y-73714285D01*
X182285714Y-73761904D01*
X182190476Y-73809523D01*
X182142857Y-73809523D01*
X182047619Y-73761904D01*
X182000000Y-73714285D01*
X181952380Y-73619047D01*
X181952380Y-73428571D01*
X182000000Y-73333333D01*
X182047619Y-73285714D01*
X182142857Y-73238095D01*
X182190476Y-73238095D01*
X182285714Y-73285714D01*
X182333333Y-73333333D01*
X182380952Y-73428571D01*
X182380952Y-73619047D01*
X182428571Y-73714285D01*
X182476190Y-73761904D01*
X182571428Y-73809523D01*
X182761904Y-73809523D01*
X182857142Y-73761904D01*
X182904761Y-73714285D01*
X182952380Y-73619047D01*
X182952380Y-73428571D01*
X182904761Y-73333333D01*
X182857142Y-73285714D01*
X182761904Y-73238095D01*
X182571428Y-73238095D01*
X182476190Y-73285714D01*
X182428571Y-73333333D01*
X182380952Y-73428571D01*
X184702380Y-131738095D02*
X183702380Y-131738095D01*
X183702380Y-131500000D01*
X183750000Y-131357142D01*
X183845238Y-131261904D01*
X183940476Y-131214285D01*
X184130952Y-131166666D01*
X184273809Y-131166666D01*
X184464285Y-131214285D01*
X184559523Y-131261904D01*
X184654761Y-131357142D01*
X184702380Y-131500000D01*
X184702380Y-131738095D01*
X184702380Y-130690476D02*
X184702380Y-130500000D01*
X184654761Y-130404761D01*
X184607142Y-130357142D01*
X184464285Y-130261904D01*
X184273809Y-130214285D01*
X183892857Y-130214285D01*
X183797619Y-130261904D01*
X183750000Y-130309523D01*
X183702380Y-130404761D01*
X183702380Y-130595238D01*
X183750000Y-130690476D01*
X183797619Y-130738095D01*
X183892857Y-130785714D01*
X184130952Y-130785714D01*
X184226190Y-130738095D01*
X184273809Y-130690476D01*
X184321428Y-130595238D01*
X184321428Y-130404761D01*
X184273809Y-130309523D01*
X184226190Y-130261904D01*
X184130952Y-130214285D01*
X181052380Y-60214285D02*
X180052380Y-60214285D01*
X180052380Y-59976190D01*
X180100000Y-59833333D01*
X180195238Y-59738095D01*
X180290476Y-59690476D01*
X180480952Y-59642857D01*
X180623809Y-59642857D01*
X180814285Y-59690476D01*
X180909523Y-59738095D01*
X181004761Y-59833333D01*
X181052380Y-59976190D01*
X181052380Y-60214285D01*
X180147619Y-59261904D02*
X180100000Y-59214285D01*
X180052380Y-59119047D01*
X180052380Y-58880952D01*
X180100000Y-58785714D01*
X180147619Y-58738095D01*
X180242857Y-58690476D01*
X180338095Y-58690476D01*
X180480952Y-58738095D01*
X181052380Y-59309523D01*
X181052380Y-58690476D01*
X180052380Y-58071428D02*
X180052380Y-57976190D01*
X180100000Y-57880952D01*
X180147619Y-57833333D01*
X180242857Y-57785714D01*
X180433333Y-57738095D01*
X180671428Y-57738095D01*
X180861904Y-57785714D01*
X180957142Y-57833333D01*
X181004761Y-57880952D01*
X181052380Y-57976190D01*
X181052380Y-58071428D01*
X181004761Y-58166666D01*
X180957142Y-58214285D01*
X180861904Y-58261904D01*
X180671428Y-58309523D01*
X180433333Y-58309523D01*
X180242857Y-58261904D01*
X180147619Y-58214285D01*
X180100000Y-58166666D01*
X180052380Y-58071428D01*
X182857142Y-111142857D02*
X182904761Y-111190476D01*
X182952380Y-111333333D01*
X182952380Y-111428571D01*
X182904761Y-111571428D01*
X182809523Y-111666666D01*
X182714285Y-111714285D01*
X182523809Y-111761904D01*
X182380952Y-111761904D01*
X182190476Y-111714285D01*
X182095238Y-111666666D01*
X182000000Y-111571428D01*
X181952380Y-111428571D01*
X181952380Y-111333333D01*
X182000000Y-111190476D01*
X182047619Y-111142857D01*
X182952380Y-110190476D02*
X182952380Y-110761904D01*
X182952380Y-110476190D02*
X181952380Y-110476190D01*
X182095238Y-110571428D01*
X182190476Y-110666666D01*
X182238095Y-110761904D01*
X182285714Y-109333333D02*
X182952380Y-109333333D01*
X181904761Y-109571428D02*
X182619047Y-109809523D01*
X182619047Y-109190476D01*
X184702380Y-122738095D02*
X183702380Y-122738095D01*
X183702380Y-122500000D01*
X183750000Y-122357142D01*
X183845238Y-122261904D01*
X183940476Y-122214285D01*
X184130952Y-122166666D01*
X184273809Y-122166666D01*
X184464285Y-122214285D01*
X184559523Y-122261904D01*
X184654761Y-122357142D01*
X184702380Y-122500000D01*
X184702380Y-122738095D01*
X184130952Y-121595238D02*
X184083333Y-121690476D01*
X184035714Y-121738095D01*
X183940476Y-121785714D01*
X183892857Y-121785714D01*
X183797619Y-121738095D01*
X183750000Y-121690476D01*
X183702380Y-121595238D01*
X183702380Y-121404761D01*
X183750000Y-121309523D01*
X183797619Y-121261904D01*
X183892857Y-121214285D01*
X183940476Y-121214285D01*
X184035714Y-121261904D01*
X184083333Y-121309523D01*
X184130952Y-121404761D01*
X184130952Y-121595238D01*
X184178571Y-121690476D01*
X184226190Y-121738095D01*
X184321428Y-121785714D01*
X184511904Y-121785714D01*
X184607142Y-121738095D01*
X184654761Y-121690476D01*
X184702380Y-121595238D01*
X184702380Y-121404761D01*
X184654761Y-121309523D01*
X184607142Y-121261904D01*
X184511904Y-121214285D01*
X184321428Y-121214285D01*
X184226190Y-121261904D01*
X184178571Y-121309523D01*
X184130952Y-121404761D01*
X182357142Y-80666666D02*
X182404761Y-80714285D01*
X182452380Y-80857142D01*
X182452380Y-80952380D01*
X182404761Y-81095238D01*
X182309523Y-81190476D01*
X182214285Y-81238095D01*
X182023809Y-81285714D01*
X181880952Y-81285714D01*
X181690476Y-81238095D01*
X181595238Y-81190476D01*
X181500000Y-81095238D01*
X181452380Y-80952380D01*
X181452380Y-80857142D01*
X181500000Y-80714285D01*
X181547619Y-80666666D01*
X181452380Y-80333333D02*
X181452380Y-79714285D01*
X181833333Y-80047619D01*
X181833333Y-79904761D01*
X181880952Y-79809523D01*
X181928571Y-79761904D01*
X182023809Y-79714285D01*
X182261904Y-79714285D01*
X182357142Y-79761904D01*
X182404761Y-79809523D01*
X182452380Y-79904761D01*
X182452380Y-80190476D01*
X182404761Y-80285714D01*
X182357142Y-80333333D01*
X205702380Y-131738095D02*
X204702380Y-131738095D01*
X204702380Y-131500000D01*
X204750000Y-131357142D01*
X204845238Y-131261904D01*
X204940476Y-131214285D01*
X205130952Y-131166666D01*
X205273809Y-131166666D01*
X205464285Y-131214285D01*
X205559523Y-131261904D01*
X205654761Y-131357142D01*
X205702380Y-131500000D01*
X205702380Y-131738095D01*
X205702380Y-130690476D02*
X205702380Y-130500000D01*
X205654761Y-130404761D01*
X205607142Y-130357142D01*
X205464285Y-130261904D01*
X205273809Y-130214285D01*
X204892857Y-130214285D01*
X204797619Y-130261904D01*
X204750000Y-130309523D01*
X204702380Y-130404761D01*
X204702380Y-130595238D01*
X204750000Y-130690476D01*
X204797619Y-130738095D01*
X204892857Y-130785714D01*
X205130952Y-130785714D01*
X205226190Y-130738095D01*
X205273809Y-130690476D01*
X205321428Y-130595238D01*
X205321428Y-130404761D01*
X205273809Y-130309523D01*
X205226190Y-130261904D01*
X205130952Y-130214285D01*
X202052380Y-60214285D02*
X201052380Y-60214285D01*
X201052380Y-59976190D01*
X201100000Y-59833333D01*
X201195238Y-59738095D01*
X201290476Y-59690476D01*
X201480952Y-59642857D01*
X201623809Y-59642857D01*
X201814285Y-59690476D01*
X201909523Y-59738095D01*
X202004761Y-59833333D01*
X202052380Y-59976190D01*
X202052380Y-60214285D01*
X201147619Y-59261904D02*
X201100000Y-59214285D01*
X201052380Y-59119047D01*
X201052380Y-58880952D01*
X201100000Y-58785714D01*
X201147619Y-58738095D01*
X201242857Y-58690476D01*
X201338095Y-58690476D01*
X201480952Y-58738095D01*
X202052380Y-59309523D01*
X202052380Y-58690476D01*
X201052380Y-58071428D02*
X201052380Y-57976190D01*
X201100000Y-57880952D01*
X201147619Y-57833333D01*
X201242857Y-57785714D01*
X201433333Y-57738095D01*
X201671428Y-57738095D01*
X201861904Y-57785714D01*
X201957142Y-57833333D01*
X202004761Y-57880952D01*
X202052380Y-57976190D01*
X202052380Y-58071428D01*
X202004761Y-58166666D01*
X201957142Y-58214285D01*
X201861904Y-58261904D01*
X201671428Y-58309523D01*
X201433333Y-58309523D01*
X201242857Y-58261904D01*
X201147619Y-58214285D01*
X201100000Y-58166666D01*
X201052380Y-58071428D01*
X205702380Y-68738095D02*
X204702380Y-68738095D01*
X204702380Y-68500000D01*
X204750000Y-68357142D01*
X204845238Y-68261904D01*
X204940476Y-68214285D01*
X205130952Y-68166666D01*
X205273809Y-68166666D01*
X205464285Y-68214285D01*
X205559523Y-68261904D01*
X205654761Y-68357142D01*
X205702380Y-68500000D01*
X205702380Y-68738095D01*
X204797619Y-67785714D02*
X204750000Y-67738095D01*
X204702380Y-67642857D01*
X204702380Y-67404761D01*
X204750000Y-67309523D01*
X204797619Y-67261904D01*
X204892857Y-67214285D01*
X204988095Y-67214285D01*
X205130952Y-67261904D01*
X205702380Y-67833333D01*
X205702380Y-67214285D01*
X205702380Y-122738095D02*
X204702380Y-122738095D01*
X204702380Y-122500000D01*
X204750000Y-122357142D01*
X204845238Y-122261904D01*
X204940476Y-122214285D01*
X205130952Y-122166666D01*
X205273809Y-122166666D01*
X205464285Y-122214285D01*
X205559523Y-122261904D01*
X205654761Y-122357142D01*
X205702380Y-122500000D01*
X205702380Y-122738095D01*
X205130952Y-121595238D02*
X205083333Y-121690476D01*
X205035714Y-121738095D01*
X204940476Y-121785714D01*
X204892857Y-121785714D01*
X204797619Y-121738095D01*
X204750000Y-121690476D01*
X204702380Y-121595238D01*
X204702380Y-121404761D01*
X204750000Y-121309523D01*
X204797619Y-121261904D01*
X204892857Y-121214285D01*
X204940476Y-121214285D01*
X205035714Y-121261904D01*
X205083333Y-121309523D01*
X205130952Y-121404761D01*
X205130952Y-121595238D01*
X205178571Y-121690476D01*
X205226190Y-121738095D01*
X205321428Y-121785714D01*
X205511904Y-121785714D01*
X205607142Y-121738095D01*
X205654761Y-121690476D01*
X205702380Y-121595238D01*
X205702380Y-121404761D01*
X205654761Y-121309523D01*
X205607142Y-121261904D01*
X205511904Y-121214285D01*
X205321428Y-121214285D01*
X205226190Y-121261904D01*
X205178571Y-121309523D01*
X205130952Y-121404761D01*
X203357142Y-80666666D02*
X203404761Y-80714285D01*
X203452380Y-80857142D01*
X203452380Y-80952380D01*
X203404761Y-81095238D01*
X203309523Y-81190476D01*
X203214285Y-81238095D01*
X203023809Y-81285714D01*
X202880952Y-81285714D01*
X202690476Y-81238095D01*
X202595238Y-81190476D01*
X202500000Y-81095238D01*
X202452380Y-80952380D01*
X202452380Y-80857142D01*
X202500000Y-80714285D01*
X202547619Y-80666666D01*
X202452380Y-80333333D02*
X202452380Y-79714285D01*
X202833333Y-80047619D01*
X202833333Y-79904761D01*
X202880952Y-79809523D01*
X202928571Y-79761904D01*
X203023809Y-79714285D01*
X203261904Y-79714285D01*
X203357142Y-79761904D01*
X203404761Y-79809523D01*
X203452380Y-79904761D01*
X203452380Y-80190476D01*
X203404761Y-80285714D01*
X203357142Y-80333333D01*
X202027380Y-96214285D02*
X201027380Y-96214285D01*
X201027380Y-95976190D01*
X201075000Y-95833333D01*
X201170238Y-95738095D01*
X201265476Y-95690476D01*
X201455952Y-95642857D01*
X201598809Y-95642857D01*
X201789285Y-95690476D01*
X201884523Y-95738095D01*
X201979761Y-95833333D01*
X202027380Y-95976190D01*
X202027380Y-96214285D01*
X202027380Y-94690476D02*
X202027380Y-95261904D01*
X202027380Y-94976190D02*
X201027380Y-94976190D01*
X201170238Y-95071428D01*
X201265476Y-95166666D01*
X201313095Y-95261904D01*
X201027380Y-93833333D02*
X201027380Y-94023809D01*
X201075000Y-94119047D01*
X201122619Y-94166666D01*
X201265476Y-94261904D01*
X201455952Y-94309523D01*
X201836904Y-94309523D01*
X201932142Y-94261904D01*
X201979761Y-94214285D01*
X202027380Y-94119047D01*
X202027380Y-93928571D01*
X201979761Y-93833333D01*
X201932142Y-93785714D01*
X201836904Y-93738095D01*
X201598809Y-93738095D01*
X201503571Y-93785714D01*
X201455952Y-93833333D01*
X201408333Y-93928571D01*
X201408333Y-94119047D01*
X201455952Y-94214285D01*
X201503571Y-94261904D01*
X201598809Y-94309523D01*
X202027380Y-69214285D02*
X201027380Y-69214285D01*
X201027380Y-68976190D01*
X201075000Y-68833333D01*
X201170238Y-68738095D01*
X201265476Y-68690476D01*
X201455952Y-68642857D01*
X201598809Y-68642857D01*
X201789285Y-68690476D01*
X201884523Y-68738095D01*
X201979761Y-68833333D01*
X202027380Y-68976190D01*
X202027380Y-69214285D01*
X202027380Y-67690476D02*
X202027380Y-68261904D01*
X202027380Y-67976190D02*
X201027380Y-67976190D01*
X201170238Y-68071428D01*
X201265476Y-68166666D01*
X201313095Y-68261904D01*
X202027380Y-67214285D02*
X202027380Y-67023809D01*
X201979761Y-66928571D01*
X201932142Y-66880952D01*
X201789285Y-66785714D01*
X201598809Y-66738095D01*
X201217857Y-66738095D01*
X201122619Y-66785714D01*
X201075000Y-66833333D01*
X201027380Y-66928571D01*
X201027380Y-67119047D01*
X201075000Y-67214285D01*
X201122619Y-67261904D01*
X201217857Y-67309523D01*
X201455952Y-67309523D01*
X201551190Y-67261904D01*
X201598809Y-67214285D01*
X201646428Y-67119047D01*
X201646428Y-66928571D01*
X201598809Y-66833333D01*
X201551190Y-66785714D01*
X201455952Y-66738095D01*
X203357142Y-89666666D02*
X203404761Y-89714285D01*
X203452380Y-89857142D01*
X203452380Y-89952380D01*
X203404761Y-90095238D01*
X203309523Y-90190476D01*
X203214285Y-90238095D01*
X203023809Y-90285714D01*
X202880952Y-90285714D01*
X202690476Y-90238095D01*
X202595238Y-90190476D01*
X202500000Y-90095238D01*
X202452380Y-89952380D01*
X202452380Y-89857142D01*
X202500000Y-89714285D01*
X202547619Y-89666666D01*
X202785714Y-88809523D02*
X203452380Y-88809523D01*
X202404761Y-89047619D02*
X203119047Y-89285714D01*
X203119047Y-88666666D01*
X203357142Y-125666666D02*
X203404761Y-125714285D01*
X203452380Y-125857142D01*
X203452380Y-125952380D01*
X203404761Y-126095238D01*
X203309523Y-126190476D01*
X203214285Y-126238095D01*
X203023809Y-126285714D01*
X202880952Y-126285714D01*
X202690476Y-126238095D01*
X202595238Y-126190476D01*
X202500000Y-126095238D01*
X202452380Y-125952380D01*
X202452380Y-125857142D01*
X202500000Y-125714285D01*
X202547619Y-125666666D01*
X202880952Y-125095238D02*
X202833333Y-125190476D01*
X202785714Y-125238095D01*
X202690476Y-125285714D01*
X202642857Y-125285714D01*
X202547619Y-125238095D01*
X202500000Y-125190476D01*
X202452380Y-125095238D01*
X202452380Y-124904761D01*
X202500000Y-124809523D01*
X202547619Y-124761904D01*
X202642857Y-124714285D01*
X202690476Y-124714285D01*
X202785714Y-124761904D01*
X202833333Y-124809523D01*
X202880952Y-124904761D01*
X202880952Y-125095238D01*
X202928571Y-125190476D01*
X202976190Y-125238095D01*
X203071428Y-125285714D01*
X203261904Y-125285714D01*
X203357142Y-125238095D01*
X203404761Y-125190476D01*
X203452380Y-125095238D01*
X203452380Y-124904761D01*
X203404761Y-124809523D01*
X203357142Y-124761904D01*
X203261904Y-124714285D01*
X203071428Y-124714285D01*
X202976190Y-124761904D01*
X202928571Y-124809523D01*
X202880952Y-124904761D01*
X203166666Y-42892380D02*
X203166666Y-43606666D01*
X203119047Y-43749523D01*
X203023809Y-43844761D01*
X202880952Y-43892380D01*
X202785714Y-43892380D01*
X204166666Y-43892380D02*
X203595238Y-43892380D01*
X203880952Y-43892380D02*
X203880952Y-42892380D01*
X203785714Y-43035238D01*
X203690476Y-43130476D01*
X203595238Y-43178095D01*
X202027380Y-87214285D02*
X201027380Y-87214285D01*
X201027380Y-86976190D01*
X201075000Y-86833333D01*
X201170238Y-86738095D01*
X201265476Y-86690476D01*
X201455952Y-86642857D01*
X201598809Y-86642857D01*
X201789285Y-86690476D01*
X201884523Y-86738095D01*
X201979761Y-86833333D01*
X202027380Y-86976190D01*
X202027380Y-87214285D01*
X202027380Y-85690476D02*
X202027380Y-86261904D01*
X202027380Y-85976190D02*
X201027380Y-85976190D01*
X201170238Y-86071428D01*
X201265476Y-86166666D01*
X201313095Y-86261904D01*
X201027380Y-85357142D02*
X201027380Y-84690476D01*
X202027380Y-85119047D01*
X205702380Y-104738095D02*
X204702380Y-104738095D01*
X204702380Y-104500000D01*
X204750000Y-104357142D01*
X204845238Y-104261904D01*
X204940476Y-104214285D01*
X205130952Y-104166666D01*
X205273809Y-104166666D01*
X205464285Y-104214285D01*
X205559523Y-104261904D01*
X205654761Y-104357142D01*
X205702380Y-104500000D01*
X205702380Y-104738095D01*
X204702380Y-103309523D02*
X204702380Y-103500000D01*
X204750000Y-103595238D01*
X204797619Y-103642857D01*
X204940476Y-103738095D01*
X205130952Y-103785714D01*
X205511904Y-103785714D01*
X205607142Y-103738095D01*
X205654761Y-103690476D01*
X205702380Y-103595238D01*
X205702380Y-103404761D01*
X205654761Y-103309523D01*
X205607142Y-103261904D01*
X205511904Y-103214285D01*
X205273809Y-103214285D01*
X205178571Y-103261904D01*
X205130952Y-103309523D01*
X205083333Y-103404761D01*
X205083333Y-103595238D01*
X205130952Y-103690476D01*
X205178571Y-103738095D01*
X205273809Y-103785714D01*
X205702380Y-113738095D02*
X204702380Y-113738095D01*
X204702380Y-113500000D01*
X204750000Y-113357142D01*
X204845238Y-113261904D01*
X204940476Y-113214285D01*
X205130952Y-113166666D01*
X205273809Y-113166666D01*
X205464285Y-113214285D01*
X205559523Y-113261904D01*
X205654761Y-113357142D01*
X205702380Y-113500000D01*
X205702380Y-113738095D01*
X204702380Y-112833333D02*
X204702380Y-112166666D01*
X205702380Y-112595238D01*
X203857142Y-129642857D02*
X203904761Y-129690476D01*
X203952380Y-129833333D01*
X203952380Y-129928571D01*
X203904761Y-130071428D01*
X203809523Y-130166666D01*
X203714285Y-130214285D01*
X203523809Y-130261904D01*
X203380952Y-130261904D01*
X203190476Y-130214285D01*
X203095238Y-130166666D01*
X203000000Y-130071428D01*
X202952380Y-129928571D01*
X202952380Y-129833333D01*
X203000000Y-129690476D01*
X203047619Y-129642857D01*
X203952380Y-128690476D02*
X203952380Y-129261904D01*
X203952380Y-128976190D02*
X202952380Y-128976190D01*
X203095238Y-129071428D01*
X203190476Y-129166666D01*
X203238095Y-129261904D01*
X203047619Y-128309523D02*
X203000000Y-128261904D01*
X202952380Y-128166666D01*
X202952380Y-127928571D01*
X203000000Y-127833333D01*
X203047619Y-127785714D01*
X203142857Y-127738095D01*
X203238095Y-127738095D01*
X203380952Y-127785714D01*
X203952380Y-128357142D01*
X203952380Y-127738095D01*
X202027380Y-78214285D02*
X201027380Y-78214285D01*
X201027380Y-77976190D01*
X201075000Y-77833333D01*
X201170238Y-77738095D01*
X201265476Y-77690476D01*
X201455952Y-77642857D01*
X201598809Y-77642857D01*
X201789285Y-77690476D01*
X201884523Y-77738095D01*
X201979761Y-77833333D01*
X202027380Y-77976190D01*
X202027380Y-78214285D01*
X202027380Y-76690476D02*
X202027380Y-77261904D01*
X202027380Y-76976190D02*
X201027380Y-76976190D01*
X201170238Y-77071428D01*
X201265476Y-77166666D01*
X201313095Y-77261904D01*
X201455952Y-76119047D02*
X201408333Y-76214285D01*
X201360714Y-76261904D01*
X201265476Y-76309523D01*
X201217857Y-76309523D01*
X201122619Y-76261904D01*
X201075000Y-76214285D01*
X201027380Y-76119047D01*
X201027380Y-75928571D01*
X201075000Y-75833333D01*
X201122619Y-75785714D01*
X201217857Y-75738095D01*
X201265476Y-75738095D01*
X201360714Y-75785714D01*
X201408333Y-75833333D01*
X201455952Y-75928571D01*
X201455952Y-76119047D01*
X201503571Y-76214285D01*
X201551190Y-76261904D01*
X201646428Y-76309523D01*
X201836904Y-76309523D01*
X201932142Y-76261904D01*
X201979761Y-76214285D01*
X202027380Y-76119047D01*
X202027380Y-75928571D01*
X201979761Y-75833333D01*
X201932142Y-75785714D01*
X201836904Y-75738095D01*
X201646428Y-75738095D01*
X201551190Y-75785714D01*
X201503571Y-75833333D01*
X201455952Y-75928571D01*
X203857142Y-93142857D02*
X203904761Y-93190476D01*
X203952380Y-93333333D01*
X203952380Y-93428571D01*
X203904761Y-93571428D01*
X203809523Y-93666666D01*
X203714285Y-93714285D01*
X203523809Y-93761904D01*
X203380952Y-93761904D01*
X203190476Y-93714285D01*
X203095238Y-93666666D01*
X203000000Y-93571428D01*
X202952380Y-93428571D01*
X202952380Y-93333333D01*
X203000000Y-93190476D01*
X203047619Y-93142857D01*
X203952380Y-92190476D02*
X203952380Y-92761904D01*
X203952380Y-92476190D02*
X202952380Y-92476190D01*
X203095238Y-92571428D01*
X203190476Y-92666666D01*
X203238095Y-92761904D01*
X202952380Y-91333333D02*
X202952380Y-91523809D01*
X203000000Y-91619047D01*
X203047619Y-91666666D01*
X203190476Y-91761904D01*
X203380952Y-91809523D01*
X203761904Y-91809523D01*
X203857142Y-91761904D01*
X203904761Y-91714285D01*
X203952380Y-91619047D01*
X203952380Y-91428571D01*
X203904761Y-91333333D01*
X203857142Y-91285714D01*
X203761904Y-91238095D01*
X203523809Y-91238095D01*
X203428571Y-91285714D01*
X203380952Y-91333333D01*
X203333333Y-91428571D01*
X203333333Y-91619047D01*
X203380952Y-91714285D01*
X203428571Y-91761904D01*
X203523809Y-91809523D01*
X203857142Y-111142857D02*
X203904761Y-111190476D01*
X203952380Y-111333333D01*
X203952380Y-111428571D01*
X203904761Y-111571428D01*
X203809523Y-111666666D01*
X203714285Y-111714285D01*
X203523809Y-111761904D01*
X203380952Y-111761904D01*
X203190476Y-111714285D01*
X203095238Y-111666666D01*
X203000000Y-111571428D01*
X202952380Y-111428571D01*
X202952380Y-111333333D01*
X203000000Y-111190476D01*
X203047619Y-111142857D01*
X203952380Y-110190476D02*
X203952380Y-110761904D01*
X203952380Y-110476190D02*
X202952380Y-110476190D01*
X203095238Y-110571428D01*
X203190476Y-110666666D01*
X203238095Y-110761904D01*
X203285714Y-109333333D02*
X203952380Y-109333333D01*
X202904761Y-109571428D02*
X203619047Y-109809523D01*
X203619047Y-109190476D01*
X203857142Y-84142857D02*
X203904761Y-84190476D01*
X203952380Y-84333333D01*
X203952380Y-84428571D01*
X203904761Y-84571428D01*
X203809523Y-84666666D01*
X203714285Y-84714285D01*
X203523809Y-84761904D01*
X203380952Y-84761904D01*
X203190476Y-84714285D01*
X203095238Y-84666666D01*
X203000000Y-84571428D01*
X202952380Y-84428571D01*
X202952380Y-84333333D01*
X203000000Y-84190476D01*
X203047619Y-84142857D01*
X203952380Y-83190476D02*
X203952380Y-83761904D01*
X203952380Y-83476190D02*
X202952380Y-83476190D01*
X203095238Y-83571428D01*
X203190476Y-83666666D01*
X203238095Y-83761904D01*
X202952380Y-82857142D02*
X202952380Y-82190476D01*
X203952380Y-82619047D01*
X181027380Y-96214285D02*
X180027380Y-96214285D01*
X180027380Y-95976190D01*
X180075000Y-95833333D01*
X180170238Y-95738095D01*
X180265476Y-95690476D01*
X180455952Y-95642857D01*
X180598809Y-95642857D01*
X180789285Y-95690476D01*
X180884523Y-95738095D01*
X180979761Y-95833333D01*
X181027380Y-95976190D01*
X181027380Y-96214285D01*
X181027380Y-94690476D02*
X181027380Y-95261904D01*
X181027380Y-94976190D02*
X180027380Y-94976190D01*
X180170238Y-95071428D01*
X180265476Y-95166666D01*
X180313095Y-95261904D01*
X180027380Y-93833333D02*
X180027380Y-94023809D01*
X180075000Y-94119047D01*
X180122619Y-94166666D01*
X180265476Y-94261904D01*
X180455952Y-94309523D01*
X180836904Y-94309523D01*
X180932142Y-94261904D01*
X180979761Y-94214285D01*
X181027380Y-94119047D01*
X181027380Y-93928571D01*
X180979761Y-93833333D01*
X180932142Y-93785714D01*
X180836904Y-93738095D01*
X180598809Y-93738095D01*
X180503571Y-93785714D01*
X180455952Y-93833333D01*
X180408333Y-93928571D01*
X180408333Y-94119047D01*
X180455952Y-94214285D01*
X180503571Y-94261904D01*
X180598809Y-94309523D01*
X181027380Y-69214285D02*
X180027380Y-69214285D01*
X180027380Y-68976190D01*
X180075000Y-68833333D01*
X180170238Y-68738095D01*
X180265476Y-68690476D01*
X180455952Y-68642857D01*
X180598809Y-68642857D01*
X180789285Y-68690476D01*
X180884523Y-68738095D01*
X180979761Y-68833333D01*
X181027380Y-68976190D01*
X181027380Y-69214285D01*
X181027380Y-67690476D02*
X181027380Y-68261904D01*
X181027380Y-67976190D02*
X180027380Y-67976190D01*
X180170238Y-68071428D01*
X180265476Y-68166666D01*
X180313095Y-68261904D01*
X181027380Y-67214285D02*
X181027380Y-67023809D01*
X180979761Y-66928571D01*
X180932142Y-66880952D01*
X180789285Y-66785714D01*
X180598809Y-66738095D01*
X180217857Y-66738095D01*
X180122619Y-66785714D01*
X180075000Y-66833333D01*
X180027380Y-66928571D01*
X180027380Y-67119047D01*
X180075000Y-67214285D01*
X180122619Y-67261904D01*
X180217857Y-67309523D01*
X180455952Y-67309523D01*
X180551190Y-67261904D01*
X180598809Y-67214285D01*
X180646428Y-67119047D01*
X180646428Y-66928571D01*
X180598809Y-66833333D01*
X180551190Y-66785714D01*
X180455952Y-66738095D01*
X182357142Y-89666666D02*
X182404761Y-89714285D01*
X182452380Y-89857142D01*
X182452380Y-89952380D01*
X182404761Y-90095238D01*
X182309523Y-90190476D01*
X182214285Y-90238095D01*
X182023809Y-90285714D01*
X181880952Y-90285714D01*
X181690476Y-90238095D01*
X181595238Y-90190476D01*
X181500000Y-90095238D01*
X181452380Y-89952380D01*
X181452380Y-89857142D01*
X181500000Y-89714285D01*
X181547619Y-89666666D01*
X181785714Y-88809523D02*
X182452380Y-88809523D01*
X181404761Y-89047619D02*
X182119047Y-89285714D01*
X182119047Y-88666666D01*
X182357142Y-125666666D02*
X182404761Y-125714285D01*
X182452380Y-125857142D01*
X182452380Y-125952380D01*
X182404761Y-126095238D01*
X182309523Y-126190476D01*
X182214285Y-126238095D01*
X182023809Y-126285714D01*
X181880952Y-126285714D01*
X181690476Y-126238095D01*
X181595238Y-126190476D01*
X181500000Y-126095238D01*
X181452380Y-125952380D01*
X181452380Y-125857142D01*
X181500000Y-125714285D01*
X181547619Y-125666666D01*
X181880952Y-125095238D02*
X181833333Y-125190476D01*
X181785714Y-125238095D01*
X181690476Y-125285714D01*
X181642857Y-125285714D01*
X181547619Y-125238095D01*
X181500000Y-125190476D01*
X181452380Y-125095238D01*
X181452380Y-124904761D01*
X181500000Y-124809523D01*
X181547619Y-124761904D01*
X181642857Y-124714285D01*
X181690476Y-124714285D01*
X181785714Y-124761904D01*
X181833333Y-124809523D01*
X181880952Y-124904761D01*
X181880952Y-125095238D01*
X181928571Y-125190476D01*
X181976190Y-125238095D01*
X182071428Y-125285714D01*
X182261904Y-125285714D01*
X182357142Y-125238095D01*
X182404761Y-125190476D01*
X182452380Y-125095238D01*
X182452380Y-124904761D01*
X182404761Y-124809523D01*
X182357142Y-124761904D01*
X182261904Y-124714285D01*
X182071428Y-124714285D01*
X181976190Y-124761904D01*
X181928571Y-124809523D01*
X181880952Y-124904761D01*
X182166666Y-42892380D02*
X182166666Y-43606666D01*
X182119047Y-43749523D01*
X182023809Y-43844761D01*
X181880952Y-43892380D01*
X181785714Y-43892380D01*
X183166666Y-43892380D02*
X182595238Y-43892380D01*
X182880952Y-43892380D02*
X182880952Y-42892380D01*
X182785714Y-43035238D01*
X182690476Y-43130476D01*
X182595238Y-43178095D01*
X181027380Y-87214285D02*
X180027380Y-87214285D01*
X180027380Y-86976190D01*
X180075000Y-86833333D01*
X180170238Y-86738095D01*
X180265476Y-86690476D01*
X180455952Y-86642857D01*
X180598809Y-86642857D01*
X180789285Y-86690476D01*
X180884523Y-86738095D01*
X180979761Y-86833333D01*
X181027380Y-86976190D01*
X181027380Y-87214285D01*
X181027380Y-85690476D02*
X181027380Y-86261904D01*
X181027380Y-85976190D02*
X180027380Y-85976190D01*
X180170238Y-86071428D01*
X180265476Y-86166666D01*
X180313095Y-86261904D01*
X180027380Y-85357142D02*
X180027380Y-84690476D01*
X181027380Y-85119047D01*
X184702380Y-104738095D02*
X183702380Y-104738095D01*
X183702380Y-104500000D01*
X183750000Y-104357142D01*
X183845238Y-104261904D01*
X183940476Y-104214285D01*
X184130952Y-104166666D01*
X184273809Y-104166666D01*
X184464285Y-104214285D01*
X184559523Y-104261904D01*
X184654761Y-104357142D01*
X184702380Y-104500000D01*
X184702380Y-104738095D01*
X183702380Y-103309523D02*
X183702380Y-103500000D01*
X183750000Y-103595238D01*
X183797619Y-103642857D01*
X183940476Y-103738095D01*
X184130952Y-103785714D01*
X184511904Y-103785714D01*
X184607142Y-103738095D01*
X184654761Y-103690476D01*
X184702380Y-103595238D01*
X184702380Y-103404761D01*
X184654761Y-103309523D01*
X184607142Y-103261904D01*
X184511904Y-103214285D01*
X184273809Y-103214285D01*
X184178571Y-103261904D01*
X184130952Y-103309523D01*
X184083333Y-103404761D01*
X184083333Y-103595238D01*
X184130952Y-103690476D01*
X184178571Y-103738095D01*
X184273809Y-103785714D01*
X184702380Y-113738095D02*
X183702380Y-113738095D01*
X183702380Y-113500000D01*
X183750000Y-113357142D01*
X183845238Y-113261904D01*
X183940476Y-113214285D01*
X184130952Y-113166666D01*
X184273809Y-113166666D01*
X184464285Y-113214285D01*
X184559523Y-113261904D01*
X184654761Y-113357142D01*
X184702380Y-113500000D01*
X184702380Y-113738095D01*
X183702380Y-112833333D02*
X183702380Y-112166666D01*
X184702380Y-112595238D01*
X182857142Y-129642857D02*
X182904761Y-129690476D01*
X182952380Y-129833333D01*
X182952380Y-129928571D01*
X182904761Y-130071428D01*
X182809523Y-130166666D01*
X182714285Y-130214285D01*
X182523809Y-130261904D01*
X182380952Y-130261904D01*
X182190476Y-130214285D01*
X182095238Y-130166666D01*
X182000000Y-130071428D01*
X181952380Y-129928571D01*
X181952380Y-129833333D01*
X182000000Y-129690476D01*
X182047619Y-129642857D01*
X182952380Y-128690476D02*
X182952380Y-129261904D01*
X182952380Y-128976190D02*
X181952380Y-128976190D01*
X182095238Y-129071428D01*
X182190476Y-129166666D01*
X182238095Y-129261904D01*
X182047619Y-128309523D02*
X182000000Y-128261904D01*
X181952380Y-128166666D01*
X181952380Y-127928571D01*
X182000000Y-127833333D01*
X182047619Y-127785714D01*
X182142857Y-127738095D01*
X182238095Y-127738095D01*
X182380952Y-127785714D01*
X182952380Y-128357142D01*
X182952380Y-127738095D01*
X181027380Y-78214285D02*
X180027380Y-78214285D01*
X180027380Y-77976190D01*
X180075000Y-77833333D01*
X180170238Y-77738095D01*
X180265476Y-77690476D01*
X180455952Y-77642857D01*
X180598809Y-77642857D01*
X180789285Y-77690476D01*
X180884523Y-77738095D01*
X180979761Y-77833333D01*
X181027380Y-77976190D01*
X181027380Y-78214285D01*
X181027380Y-76690476D02*
X181027380Y-77261904D01*
X181027380Y-76976190D02*
X180027380Y-76976190D01*
X180170238Y-77071428D01*
X180265476Y-77166666D01*
X180313095Y-77261904D01*
X180455952Y-76119047D02*
X180408333Y-76214285D01*
X180360714Y-76261904D01*
X180265476Y-76309523D01*
X180217857Y-76309523D01*
X180122619Y-76261904D01*
X180075000Y-76214285D01*
X180027380Y-76119047D01*
X180027380Y-75928571D01*
X180075000Y-75833333D01*
X180122619Y-75785714D01*
X180217857Y-75738095D01*
X180265476Y-75738095D01*
X180360714Y-75785714D01*
X180408333Y-75833333D01*
X180455952Y-75928571D01*
X180455952Y-76119047D01*
X180503571Y-76214285D01*
X180551190Y-76261904D01*
X180646428Y-76309523D01*
X180836904Y-76309523D01*
X180932142Y-76261904D01*
X180979761Y-76214285D01*
X181027380Y-76119047D01*
X181027380Y-75928571D01*
X180979761Y-75833333D01*
X180932142Y-75785714D01*
X180836904Y-75738095D01*
X180646428Y-75738095D01*
X180551190Y-75785714D01*
X180503571Y-75833333D01*
X180455952Y-75928571D01*
X202027380Y-132214285D02*
X201027380Y-132214285D01*
X201027380Y-131976190D01*
X201075000Y-131833333D01*
X201170238Y-131738095D01*
X201265476Y-131690476D01*
X201455952Y-131642857D01*
X201598809Y-131642857D01*
X201789285Y-131690476D01*
X201884523Y-131738095D01*
X201979761Y-131833333D01*
X202027380Y-131976190D01*
X202027380Y-132214285D01*
X202027380Y-130690476D02*
X202027380Y-131261904D01*
X202027380Y-130976190D02*
X201027380Y-130976190D01*
X201170238Y-131071428D01*
X201265476Y-131166666D01*
X201313095Y-131261904D01*
X201122619Y-130309523D02*
X201075000Y-130261904D01*
X201027380Y-130166666D01*
X201027380Y-129928571D01*
X201075000Y-129833333D01*
X201122619Y-129785714D01*
X201217857Y-129738095D01*
X201313095Y-129738095D01*
X201455952Y-129785714D01*
X202027380Y-130357142D01*
X202027380Y-129738095D01*
X205702380Y-77738095D02*
X204702380Y-77738095D01*
X204702380Y-77500000D01*
X204750000Y-77357142D01*
X204845238Y-77261904D01*
X204940476Y-77214285D01*
X205130952Y-77166666D01*
X205273809Y-77166666D01*
X205464285Y-77214285D01*
X205559523Y-77261904D01*
X205654761Y-77357142D01*
X205702380Y-77500000D01*
X205702380Y-77738095D01*
X204702380Y-76833333D02*
X204702380Y-76214285D01*
X205083333Y-76547619D01*
X205083333Y-76404761D01*
X205130952Y-76309523D01*
X205178571Y-76261904D01*
X205273809Y-76214285D01*
X205511904Y-76214285D01*
X205607142Y-76261904D01*
X205654761Y-76309523D01*
X205702380Y-76404761D01*
X205702380Y-76690476D01*
X205654761Y-76785714D01*
X205607142Y-76833333D01*
X203857142Y-102142857D02*
X203904761Y-102190476D01*
X203952380Y-102333333D01*
X203952380Y-102428571D01*
X203904761Y-102571428D01*
X203809523Y-102666666D01*
X203714285Y-102714285D01*
X203523809Y-102761904D01*
X203380952Y-102761904D01*
X203190476Y-102714285D01*
X203095238Y-102666666D01*
X203000000Y-102571428D01*
X202952380Y-102428571D01*
X202952380Y-102333333D01*
X203000000Y-102190476D01*
X203047619Y-102142857D01*
X203952380Y-101190476D02*
X203952380Y-101761904D01*
X203952380Y-101476190D02*
X202952380Y-101476190D01*
X203095238Y-101571428D01*
X203190476Y-101666666D01*
X203238095Y-101761904D01*
X202952380Y-100285714D02*
X202952380Y-100761904D01*
X203428571Y-100809523D01*
X203380952Y-100761904D01*
X203333333Y-100666666D01*
X203333333Y-100428571D01*
X203380952Y-100333333D01*
X203428571Y-100285714D01*
X203523809Y-100238095D01*
X203761904Y-100238095D01*
X203857142Y-100285714D01*
X203904761Y-100333333D01*
X203952380Y-100428571D01*
X203952380Y-100666666D01*
X203904761Y-100761904D01*
X203857142Y-100809523D01*
X203857142Y-121142857D02*
X203904761Y-121190476D01*
X203952380Y-121333333D01*
X203952380Y-121428571D01*
X203904761Y-121571428D01*
X203809523Y-121666666D01*
X203714285Y-121714285D01*
X203523809Y-121761904D01*
X203380952Y-121761904D01*
X203190476Y-121714285D01*
X203095238Y-121666666D01*
X203000000Y-121571428D01*
X202952380Y-121428571D01*
X202952380Y-121333333D01*
X203000000Y-121190476D01*
X203047619Y-121142857D01*
X203952380Y-120190476D02*
X203952380Y-120761904D01*
X203952380Y-120476190D02*
X202952380Y-120476190D01*
X203095238Y-120571428D01*
X203190476Y-120666666D01*
X203238095Y-120761904D01*
X202952380Y-119857142D02*
X202952380Y-119238095D01*
X203333333Y-119571428D01*
X203333333Y-119428571D01*
X203380952Y-119333333D01*
X203428571Y-119285714D01*
X203523809Y-119238095D01*
X203761904Y-119238095D01*
X203857142Y-119285714D01*
X203904761Y-119333333D01*
X203952380Y-119428571D01*
X203952380Y-119714285D01*
X203904761Y-119809523D01*
X203857142Y-119857142D01*
X202027380Y-141214285D02*
X201027380Y-141214285D01*
X201027380Y-140976190D01*
X201075000Y-140833333D01*
X201170238Y-140738095D01*
X201265476Y-140690476D01*
X201455952Y-140642857D01*
X201598809Y-140642857D01*
X201789285Y-140690476D01*
X201884523Y-140738095D01*
X201979761Y-140833333D01*
X202027380Y-140976190D01*
X202027380Y-141214285D01*
X202027380Y-139690476D02*
X202027380Y-140261904D01*
X202027380Y-139976190D02*
X201027380Y-139976190D01*
X201170238Y-140071428D01*
X201265476Y-140166666D01*
X201313095Y-140261904D01*
X202027380Y-138738095D02*
X202027380Y-139309523D01*
X202027380Y-139023809D02*
X201027380Y-139023809D01*
X201170238Y-139119047D01*
X201265476Y-139214285D01*
X201313095Y-139309523D01*
X205702380Y-95738095D02*
X204702380Y-95738095D01*
X204702380Y-95500000D01*
X204750000Y-95357142D01*
X204845238Y-95261904D01*
X204940476Y-95214285D01*
X205130952Y-95166666D01*
X205273809Y-95166666D01*
X205464285Y-95214285D01*
X205559523Y-95261904D01*
X205654761Y-95357142D01*
X205702380Y-95500000D01*
X205702380Y-95738095D01*
X204702380Y-94261904D02*
X204702380Y-94738095D01*
X205178571Y-94785714D01*
X205130952Y-94738095D01*
X205083333Y-94642857D01*
X205083333Y-94404761D01*
X205130952Y-94309523D01*
X205178571Y-94261904D01*
X205273809Y-94214285D01*
X205511904Y-94214285D01*
X205607142Y-94261904D01*
X205654761Y-94309523D01*
X205702380Y-94404761D01*
X205702380Y-94642857D01*
X205654761Y-94738095D01*
X205607142Y-94785714D01*
X202027380Y-105214285D02*
X201027380Y-105214285D01*
X201027380Y-104976190D01*
X201075000Y-104833333D01*
X201170238Y-104738095D01*
X201265476Y-104690476D01*
X201455952Y-104642857D01*
X201598809Y-104642857D01*
X201789285Y-104690476D01*
X201884523Y-104738095D01*
X201979761Y-104833333D01*
X202027380Y-104976190D01*
X202027380Y-105214285D01*
X202027380Y-103690476D02*
X202027380Y-104261904D01*
X202027380Y-103976190D02*
X201027380Y-103976190D01*
X201170238Y-104071428D01*
X201265476Y-104166666D01*
X201313095Y-104261904D01*
X201027380Y-102785714D02*
X201027380Y-103261904D01*
X201503571Y-103309523D01*
X201455952Y-103261904D01*
X201408333Y-103166666D01*
X201408333Y-102928571D01*
X201455952Y-102833333D01*
X201503571Y-102785714D01*
X201598809Y-102738095D01*
X201836904Y-102738095D01*
X201932142Y-102785714D01*
X201979761Y-102833333D01*
X202027380Y-102928571D01*
X202027380Y-103166666D01*
X201979761Y-103261904D01*
X201932142Y-103309523D01*
X205702380Y-59738095D02*
X204702380Y-59738095D01*
X204702380Y-59500000D01*
X204750000Y-59357142D01*
X204845238Y-59261904D01*
X204940476Y-59214285D01*
X205130952Y-59166666D01*
X205273809Y-59166666D01*
X205464285Y-59214285D01*
X205559523Y-59261904D01*
X205654761Y-59357142D01*
X205702380Y-59500000D01*
X205702380Y-59738095D01*
X205702380Y-58214285D02*
X205702380Y-58785714D01*
X205702380Y-58500000D02*
X204702380Y-58500000D01*
X204845238Y-58595238D01*
X204940476Y-58690476D01*
X204988095Y-58785714D01*
X203357142Y-142142857D02*
X203404761Y-142190476D01*
X203452380Y-142333333D01*
X203452380Y-142428571D01*
X203404761Y-142571428D01*
X203309523Y-142666666D01*
X203214285Y-142714285D01*
X203023809Y-142761904D01*
X202880952Y-142761904D01*
X202690476Y-142714285D01*
X202595238Y-142666666D01*
X202500000Y-142571428D01*
X202452380Y-142428571D01*
X202452380Y-142333333D01*
X202500000Y-142190476D01*
X202547619Y-142142857D01*
X203452380Y-141190476D02*
X203452380Y-141761904D01*
X203452380Y-141476190D02*
X202452380Y-141476190D01*
X202595238Y-141571428D01*
X202690476Y-141666666D01*
X202738095Y-141761904D01*
X202452380Y-140571428D02*
X202452380Y-140476190D01*
X202500000Y-140380952D01*
X202547619Y-140333333D01*
X202642857Y-140285714D01*
X202833333Y-140238095D01*
X203071428Y-140238095D01*
X203261904Y-140285714D01*
X203357142Y-140333333D01*
X203404761Y-140380952D01*
X203452380Y-140476190D01*
X203452380Y-140571428D01*
X203404761Y-140666666D01*
X203357142Y-140714285D01*
X203261904Y-140761904D01*
X203071428Y-140809523D01*
X202833333Y-140809523D01*
X202642857Y-140761904D01*
X202547619Y-140714285D01*
X202500000Y-140666666D01*
X202452380Y-140571428D01*
X203357142Y-71666666D02*
X203404761Y-71714285D01*
X203452380Y-71857142D01*
X203452380Y-71952380D01*
X203404761Y-72095238D01*
X203309523Y-72190476D01*
X203214285Y-72238095D01*
X203023809Y-72285714D01*
X202880952Y-72285714D01*
X202690476Y-72238095D01*
X202595238Y-72190476D01*
X202500000Y-72095238D01*
X202452380Y-71952380D01*
X202452380Y-71857142D01*
X202500000Y-71714285D01*
X202547619Y-71666666D01*
X202547619Y-71285714D02*
X202500000Y-71238095D01*
X202452380Y-71142857D01*
X202452380Y-70904761D01*
X202500000Y-70809523D01*
X202547619Y-70761904D01*
X202642857Y-70714285D01*
X202738095Y-70714285D01*
X202880952Y-70761904D01*
X203452380Y-71333333D01*
X203452380Y-70714285D01*
X205702380Y-86738095D02*
X204702380Y-86738095D01*
X204702380Y-86500000D01*
X204750000Y-86357142D01*
X204845238Y-86261904D01*
X204940476Y-86214285D01*
X205130952Y-86166666D01*
X205273809Y-86166666D01*
X205464285Y-86214285D01*
X205559523Y-86261904D01*
X205654761Y-86357142D01*
X205702380Y-86500000D01*
X205702380Y-86738095D01*
X205035714Y-85309523D02*
X205702380Y-85309523D01*
X204654761Y-85547619D02*
X205369047Y-85785714D01*
X205369047Y-85166666D01*
X202027380Y-114214285D02*
X201027380Y-114214285D01*
X201027380Y-113976190D01*
X201075000Y-113833333D01*
X201170238Y-113738095D01*
X201265476Y-113690476D01*
X201455952Y-113642857D01*
X201598809Y-113642857D01*
X201789285Y-113690476D01*
X201884523Y-113738095D01*
X201979761Y-113833333D01*
X202027380Y-113976190D01*
X202027380Y-114214285D01*
X202027380Y-112690476D02*
X202027380Y-113261904D01*
X202027380Y-112976190D02*
X201027380Y-112976190D01*
X201170238Y-113071428D01*
X201265476Y-113166666D01*
X201313095Y-113261904D01*
X201360714Y-111833333D02*
X202027380Y-111833333D01*
X200979761Y-112071428D02*
X201694047Y-112309523D01*
X201694047Y-111690476D01*
X203857142Y-56642857D02*
X203904761Y-56690476D01*
X203952380Y-56833333D01*
X203952380Y-56928571D01*
X203904761Y-57071428D01*
X203809523Y-57166666D01*
X203714285Y-57214285D01*
X203523809Y-57261904D01*
X203380952Y-57261904D01*
X203190476Y-57214285D01*
X203095238Y-57166666D01*
X203000000Y-57071428D01*
X202952380Y-56928571D01*
X202952380Y-56833333D01*
X203000000Y-56690476D01*
X203047619Y-56642857D01*
X203047619Y-56261904D02*
X203000000Y-56214285D01*
X202952380Y-56119047D01*
X202952380Y-55880952D01*
X203000000Y-55785714D01*
X203047619Y-55738095D01*
X203142857Y-55690476D01*
X203238095Y-55690476D01*
X203380952Y-55738095D01*
X203952380Y-56309523D01*
X203952380Y-55690476D01*
X202952380Y-55071428D02*
X202952380Y-54976190D01*
X203000000Y-54880952D01*
X203047619Y-54833333D01*
X203142857Y-54785714D01*
X203333333Y-54738095D01*
X203571428Y-54738095D01*
X203761904Y-54785714D01*
X203857142Y-54833333D01*
X203904761Y-54880952D01*
X203952380Y-54976190D01*
X203952380Y-55071428D01*
X203904761Y-55166666D01*
X203857142Y-55214285D01*
X203761904Y-55261904D01*
X203571428Y-55309523D01*
X203333333Y-55309523D01*
X203142857Y-55261904D01*
X203047619Y-55214285D01*
X203000000Y-55166666D01*
X202952380Y-55071428D01*
X203357142Y-107666666D02*
X203404761Y-107714285D01*
X203452380Y-107857142D01*
X203452380Y-107952380D01*
X203404761Y-108095238D01*
X203309523Y-108190476D01*
X203214285Y-108238095D01*
X203023809Y-108285714D01*
X202880952Y-108285714D01*
X202690476Y-108238095D01*
X202595238Y-108190476D01*
X202500000Y-108095238D01*
X202452380Y-107952380D01*
X202452380Y-107857142D01*
X202500000Y-107714285D01*
X202547619Y-107666666D01*
X202452380Y-106809523D02*
X202452380Y-107000000D01*
X202500000Y-107095238D01*
X202547619Y-107142857D01*
X202690476Y-107238095D01*
X202880952Y-107285714D01*
X203261904Y-107285714D01*
X203357142Y-107238095D01*
X203404761Y-107190476D01*
X203452380Y-107095238D01*
X203452380Y-106904761D01*
X203404761Y-106809523D01*
X203357142Y-106761904D01*
X203261904Y-106714285D01*
X203023809Y-106714285D01*
X202928571Y-106761904D01*
X202880952Y-106809523D01*
X202833333Y-106904761D01*
X202833333Y-107095238D01*
X202880952Y-107190476D01*
X202928571Y-107238095D01*
X203023809Y-107285714D01*
X202027380Y-123214285D02*
X201027380Y-123214285D01*
X201027380Y-122976190D01*
X201075000Y-122833333D01*
X201170238Y-122738095D01*
X201265476Y-122690476D01*
X201455952Y-122642857D01*
X201598809Y-122642857D01*
X201789285Y-122690476D01*
X201884523Y-122738095D01*
X201979761Y-122833333D01*
X202027380Y-122976190D01*
X202027380Y-123214285D01*
X202027380Y-121690476D02*
X202027380Y-122261904D01*
X202027380Y-121976190D02*
X201027380Y-121976190D01*
X201170238Y-122071428D01*
X201265476Y-122166666D01*
X201313095Y-122261904D01*
X201027380Y-121357142D02*
X201027380Y-120738095D01*
X201408333Y-121071428D01*
X201408333Y-120928571D01*
X201455952Y-120833333D01*
X201503571Y-120785714D01*
X201598809Y-120738095D01*
X201836904Y-120738095D01*
X201932142Y-120785714D01*
X201979761Y-120833333D01*
X202027380Y-120928571D01*
X202027380Y-121214285D01*
X201979761Y-121309523D01*
X201932142Y-121357142D01*
X203857142Y-66142857D02*
X203904761Y-66190476D01*
X203952380Y-66333333D01*
X203952380Y-66428571D01*
X203904761Y-66571428D01*
X203809523Y-66666666D01*
X203714285Y-66714285D01*
X203523809Y-66761904D01*
X203380952Y-66761904D01*
X203190476Y-66714285D01*
X203095238Y-66666666D01*
X203000000Y-66571428D01*
X202952380Y-66428571D01*
X202952380Y-66333333D01*
X203000000Y-66190476D01*
X203047619Y-66142857D01*
X203952380Y-65190476D02*
X203952380Y-65761904D01*
X203952380Y-65476190D02*
X202952380Y-65476190D01*
X203095238Y-65571428D01*
X203190476Y-65666666D01*
X203238095Y-65761904D01*
X203952380Y-64714285D02*
X203952380Y-64523809D01*
X203904761Y-64428571D01*
X203857142Y-64380952D01*
X203714285Y-64285714D01*
X203523809Y-64238095D01*
X203142857Y-64238095D01*
X203047619Y-64285714D01*
X203000000Y-64333333D01*
X202952380Y-64428571D01*
X202952380Y-64619047D01*
X203000000Y-64714285D01*
X203047619Y-64761904D01*
X203142857Y-64809523D01*
X203380952Y-64809523D01*
X203476190Y-64761904D01*
X203523809Y-64714285D01*
X203571428Y-64619047D01*
X203571428Y-64428571D01*
X203523809Y-64333333D01*
X203476190Y-64285714D01*
X203380952Y-64238095D01*
X203857142Y-75142857D02*
X203904761Y-75190476D01*
X203952380Y-75333333D01*
X203952380Y-75428571D01*
X203904761Y-75571428D01*
X203809523Y-75666666D01*
X203714285Y-75714285D01*
X203523809Y-75761904D01*
X203380952Y-75761904D01*
X203190476Y-75714285D01*
X203095238Y-75666666D01*
X203000000Y-75571428D01*
X202952380Y-75428571D01*
X202952380Y-75333333D01*
X203000000Y-75190476D01*
X203047619Y-75142857D01*
X203952380Y-74190476D02*
X203952380Y-74761904D01*
X203952380Y-74476190D02*
X202952380Y-74476190D01*
X203095238Y-74571428D01*
X203190476Y-74666666D01*
X203238095Y-74761904D01*
X203380952Y-73619047D02*
X203333333Y-73714285D01*
X203285714Y-73761904D01*
X203190476Y-73809523D01*
X203142857Y-73809523D01*
X203047619Y-73761904D01*
X203000000Y-73714285D01*
X202952380Y-73619047D01*
X202952380Y-73428571D01*
X203000000Y-73333333D01*
X203047619Y-73285714D01*
X203142857Y-73238095D01*
X203190476Y-73238095D01*
X203285714Y-73285714D01*
X203333333Y-73333333D01*
X203380952Y-73428571D01*
X203380952Y-73619047D01*
X203428571Y-73714285D01*
X203476190Y-73761904D01*
X203571428Y-73809523D01*
X203761904Y-73809523D01*
X203857142Y-73761904D01*
X203904761Y-73714285D01*
X203952380Y-73619047D01*
X203952380Y-73428571D01*
X203904761Y-73333333D01*
X203857142Y-73285714D01*
X203761904Y-73238095D01*
X203571428Y-73238095D01*
X203476190Y-73285714D01*
X203428571Y-73333333D01*
X203380952Y-73428571D01*
X182857142Y-93142857D02*
X182904761Y-93190476D01*
X182952380Y-93333333D01*
X182952380Y-93428571D01*
X182904761Y-93571428D01*
X182809523Y-93666666D01*
X182714285Y-93714285D01*
X182523809Y-93761904D01*
X182380952Y-93761904D01*
X182190476Y-93714285D01*
X182095238Y-93666666D01*
X182000000Y-93571428D01*
X181952380Y-93428571D01*
X181952380Y-93333333D01*
X182000000Y-93190476D01*
X182047619Y-93142857D01*
X182952380Y-92190476D02*
X182952380Y-92761904D01*
X182952380Y-92476190D02*
X181952380Y-92476190D01*
X182095238Y-92571428D01*
X182190476Y-92666666D01*
X182238095Y-92761904D01*
X181952380Y-91333333D02*
X181952380Y-91523809D01*
X182000000Y-91619047D01*
X182047619Y-91666666D01*
X182190476Y-91761904D01*
X182380952Y-91809523D01*
X182761904Y-91809523D01*
X182857142Y-91761904D01*
X182904761Y-91714285D01*
X182952380Y-91619047D01*
X182952380Y-91428571D01*
X182904761Y-91333333D01*
X182857142Y-91285714D01*
X182761904Y-91238095D01*
X182523809Y-91238095D01*
X182428571Y-91285714D01*
X182380952Y-91333333D01*
X182333333Y-91428571D01*
X182333333Y-91619047D01*
X182380952Y-91714285D01*
X182428571Y-91761904D01*
X182523809Y-91809523D01*
X203357142Y-98666666D02*
X203404761Y-98714285D01*
X203452380Y-98857142D01*
X203452380Y-98952380D01*
X203404761Y-99095238D01*
X203309523Y-99190476D01*
X203214285Y-99238095D01*
X203023809Y-99285714D01*
X202880952Y-99285714D01*
X202690476Y-99238095D01*
X202595238Y-99190476D01*
X202500000Y-99095238D01*
X202452380Y-98952380D01*
X202452380Y-98857142D01*
X202500000Y-98714285D01*
X202547619Y-98666666D01*
X202452380Y-97761904D02*
X202452380Y-98238095D01*
X202928571Y-98285714D01*
X202880952Y-98238095D01*
X202833333Y-98142857D01*
X202833333Y-97904761D01*
X202880952Y-97809523D01*
X202928571Y-97761904D01*
X203023809Y-97714285D01*
X203261904Y-97714285D01*
X203357142Y-97761904D01*
X203404761Y-97809523D01*
X203452380Y-97904761D01*
X203452380Y-98142857D01*
X203404761Y-98238095D01*
X203357142Y-98285714D01*
X182857142Y-84142857D02*
X182904761Y-84190476D01*
X182952380Y-84333333D01*
X182952380Y-84428571D01*
X182904761Y-84571428D01*
X182809523Y-84666666D01*
X182714285Y-84714285D01*
X182523809Y-84761904D01*
X182380952Y-84761904D01*
X182190476Y-84714285D01*
X182095238Y-84666666D01*
X182000000Y-84571428D01*
X181952380Y-84428571D01*
X181952380Y-84333333D01*
X182000000Y-84190476D01*
X182047619Y-84142857D01*
X182952380Y-83190476D02*
X182952380Y-83761904D01*
X182952380Y-83476190D02*
X181952380Y-83476190D01*
X182095238Y-83571428D01*
X182190476Y-83666666D01*
X182238095Y-83761904D01*
X181952380Y-82857142D02*
X181952380Y-82190476D01*
X182952380Y-82619047D01*
X184702380Y-141214285D02*
X183702380Y-141214285D01*
X183702380Y-140976190D01*
X183750000Y-140833333D01*
X183845238Y-140738095D01*
X183940476Y-140690476D01*
X184130952Y-140642857D01*
X184273809Y-140642857D01*
X184464285Y-140690476D01*
X184559523Y-140738095D01*
X184654761Y-140833333D01*
X184702380Y-140976190D01*
X184702380Y-141214285D01*
X184702380Y-139690476D02*
X184702380Y-140261904D01*
X184702380Y-139976190D02*
X183702380Y-139976190D01*
X183845238Y-140071428D01*
X183940476Y-140166666D01*
X183988095Y-140261904D01*
X183702380Y-139071428D02*
X183702380Y-138976190D01*
X183750000Y-138880952D01*
X183797619Y-138833333D01*
X183892857Y-138785714D01*
X184083333Y-138738095D01*
X184321428Y-138738095D01*
X184511904Y-138785714D01*
X184607142Y-138833333D01*
X184654761Y-138880952D01*
X184702380Y-138976190D01*
X184702380Y-139071428D01*
X184654761Y-139166666D01*
X184607142Y-139214285D01*
X184511904Y-139261904D01*
X184321428Y-139309523D01*
X184083333Y-139309523D01*
X183892857Y-139261904D01*
X183797619Y-139214285D01*
X183750000Y-139166666D01*
X183702380Y-139071428D01*
X182357142Y-98666666D02*
X182404761Y-98714285D01*
X182452380Y-98857142D01*
X182452380Y-98952380D01*
X182404761Y-99095238D01*
X182309523Y-99190476D01*
X182214285Y-99238095D01*
X182023809Y-99285714D01*
X181880952Y-99285714D01*
X181690476Y-99238095D01*
X181595238Y-99190476D01*
X181500000Y-99095238D01*
X181452380Y-98952380D01*
X181452380Y-98857142D01*
X181500000Y-98714285D01*
X181547619Y-98666666D01*
X181452380Y-97761904D02*
X181452380Y-98238095D01*
X181928571Y-98285714D01*
X181880952Y-98238095D01*
X181833333Y-98142857D01*
X181833333Y-97904761D01*
X181880952Y-97809523D01*
X181928571Y-97761904D01*
X182023809Y-97714285D01*
X182261904Y-97714285D01*
X182357142Y-97761904D01*
X182404761Y-97809523D01*
X182452380Y-97904761D01*
X182452380Y-98142857D01*
X182404761Y-98238095D01*
X182357142Y-98285714D01*
X205702380Y-141214285D02*
X204702380Y-141214285D01*
X204702380Y-140976190D01*
X204750000Y-140833333D01*
X204845238Y-140738095D01*
X204940476Y-140690476D01*
X205130952Y-140642857D01*
X205273809Y-140642857D01*
X205464285Y-140690476D01*
X205559523Y-140738095D01*
X205654761Y-140833333D01*
X205702380Y-140976190D01*
X205702380Y-141214285D01*
X205702380Y-139690476D02*
X205702380Y-140261904D01*
X205702380Y-139976190D02*
X204702380Y-139976190D01*
X204845238Y-140071428D01*
X204940476Y-140166666D01*
X204988095Y-140261904D01*
X204702380Y-139071428D02*
X204702380Y-138976190D01*
X204750000Y-138880952D01*
X204797619Y-138833333D01*
X204892857Y-138785714D01*
X205083333Y-138738095D01*
X205321428Y-138738095D01*
X205511904Y-138785714D01*
X205607142Y-138833333D01*
X205654761Y-138880952D01*
X205702380Y-138976190D01*
X205702380Y-139071428D01*
X205654761Y-139166666D01*
X205607142Y-139214285D01*
X205511904Y-139261904D01*
X205321428Y-139309523D01*
X205083333Y-139309523D01*
X204892857Y-139261904D01*
X204797619Y-139214285D01*
X204750000Y-139166666D01*
X204702380Y-139071428D01*
X182357142Y-116666666D02*
X182404761Y-116714285D01*
X182452380Y-116857142D01*
X182452380Y-116952380D01*
X182404761Y-117095238D01*
X182309523Y-117190476D01*
X182214285Y-117238095D01*
X182023809Y-117285714D01*
X181880952Y-117285714D01*
X181690476Y-117238095D01*
X181595238Y-117190476D01*
X181500000Y-117095238D01*
X181452380Y-116952380D01*
X181452380Y-116857142D01*
X181500000Y-116714285D01*
X181547619Y-116666666D01*
X181452380Y-116333333D02*
X181452380Y-115666666D01*
X182452380Y-116095238D01*
X182357142Y-134666666D02*
X182404761Y-134714285D01*
X182452380Y-134857142D01*
X182452380Y-134952380D01*
X182404761Y-135095238D01*
X182309523Y-135190476D01*
X182214285Y-135238095D01*
X182023809Y-135285714D01*
X181880952Y-135285714D01*
X181690476Y-135238095D01*
X181595238Y-135190476D01*
X181500000Y-135095238D01*
X181452380Y-134952380D01*
X181452380Y-134857142D01*
X181500000Y-134714285D01*
X181547619Y-134666666D01*
X182452380Y-134190476D02*
X182452380Y-134000000D01*
X182404761Y-133904761D01*
X182357142Y-133857142D01*
X182214285Y-133761904D01*
X182023809Y-133714285D01*
X181642857Y-133714285D01*
X181547619Y-133761904D01*
X181500000Y-133809523D01*
X181452380Y-133904761D01*
X181452380Y-134095238D01*
X181500000Y-134190476D01*
X181547619Y-134238095D01*
X181642857Y-134285714D01*
X181880952Y-134285714D01*
X181976190Y-134238095D01*
X182023809Y-134190476D01*
X182071428Y-134095238D01*
X182071428Y-133904761D01*
X182023809Y-133809523D01*
X181976190Y-133761904D01*
X181880952Y-133714285D01*
X182857142Y-137642857D02*
X182904761Y-137690476D01*
X182952380Y-137833333D01*
X182952380Y-137928571D01*
X182904761Y-138071428D01*
X182809523Y-138166666D01*
X182714285Y-138214285D01*
X182523809Y-138261904D01*
X182380952Y-138261904D01*
X182190476Y-138214285D01*
X182095238Y-138166666D01*
X182000000Y-138071428D01*
X181952380Y-137928571D01*
X181952380Y-137833333D01*
X182000000Y-137690476D01*
X182047619Y-137642857D01*
X182952380Y-136690476D02*
X182952380Y-137261904D01*
X182952380Y-136976190D02*
X181952380Y-136976190D01*
X182095238Y-137071428D01*
X182190476Y-137166666D01*
X182238095Y-137261904D01*
X182952380Y-135738095D02*
X182952380Y-136309523D01*
X182952380Y-136023809D02*
X181952380Y-136023809D01*
X182095238Y-136119047D01*
X182190476Y-136214285D01*
X182238095Y-136309523D01*
X203357142Y-62666666D02*
X203404761Y-62714285D01*
X203452380Y-62857142D01*
X203452380Y-62952380D01*
X203404761Y-63095238D01*
X203309523Y-63190476D01*
X203214285Y-63238095D01*
X203023809Y-63285714D01*
X202880952Y-63285714D01*
X202690476Y-63238095D01*
X202595238Y-63190476D01*
X202500000Y-63095238D01*
X202452380Y-62952380D01*
X202452380Y-62857142D01*
X202500000Y-62714285D01*
X202547619Y-62666666D01*
X203452380Y-61714285D02*
X203452380Y-62285714D01*
X203452380Y-62000000D02*
X202452380Y-62000000D01*
X202595238Y-62095238D01*
X202690476Y-62190476D01*
X202738095Y-62285714D01*
X203857142Y-137642857D02*
X203904761Y-137690476D01*
X203952380Y-137833333D01*
X203952380Y-137928571D01*
X203904761Y-138071428D01*
X203809523Y-138166666D01*
X203714285Y-138214285D01*
X203523809Y-138261904D01*
X203380952Y-138261904D01*
X203190476Y-138214285D01*
X203095238Y-138166666D01*
X203000000Y-138071428D01*
X202952380Y-137928571D01*
X202952380Y-137833333D01*
X203000000Y-137690476D01*
X203047619Y-137642857D01*
X203952380Y-136690476D02*
X203952380Y-137261904D01*
X203952380Y-136976190D02*
X202952380Y-136976190D01*
X203095238Y-137071428D01*
X203190476Y-137166666D01*
X203238095Y-137261904D01*
X203952380Y-135738095D02*
X203952380Y-136309523D01*
X203952380Y-136023809D02*
X202952380Y-136023809D01*
X203095238Y-136119047D01*
X203190476Y-136214285D01*
X203238095Y-136309523D01*
X203357142Y-134666666D02*
X203404761Y-134714285D01*
X203452380Y-134857142D01*
X203452380Y-134952380D01*
X203404761Y-135095238D01*
X203309523Y-135190476D01*
X203214285Y-135238095D01*
X203023809Y-135285714D01*
X202880952Y-135285714D01*
X202690476Y-135238095D01*
X202595238Y-135190476D01*
X202500000Y-135095238D01*
X202452380Y-134952380D01*
X202452380Y-134857142D01*
X202500000Y-134714285D01*
X202547619Y-134666666D01*
X203452380Y-134190476D02*
X203452380Y-134000000D01*
X203404761Y-133904761D01*
X203357142Y-133857142D01*
X203214285Y-133761904D01*
X203023809Y-133714285D01*
X202642857Y-133714285D01*
X202547619Y-133761904D01*
X202500000Y-133809523D01*
X202452380Y-133904761D01*
X202452380Y-134095238D01*
X202500000Y-134190476D01*
X202547619Y-134238095D01*
X202642857Y-134285714D01*
X202880952Y-134285714D01*
X202976190Y-134238095D01*
X203023809Y-134190476D01*
X203071428Y-134095238D01*
X203071428Y-133904761D01*
X203023809Y-133809523D01*
X202976190Y-133761904D01*
X202880952Y-133714285D01*
X203357142Y-116666666D02*
X203404761Y-116714285D01*
X203452380Y-116857142D01*
X203452380Y-116952380D01*
X203404761Y-117095238D01*
X203309523Y-117190476D01*
X203214285Y-117238095D01*
X203023809Y-117285714D01*
X202880952Y-117285714D01*
X202690476Y-117238095D01*
X202595238Y-117190476D01*
X202500000Y-117095238D01*
X202452380Y-116952380D01*
X202452380Y-116857142D01*
X202500000Y-116714285D01*
X202547619Y-116666666D01*
X202452380Y-116333333D02*
X202452380Y-115666666D01*
X203452380Y-116095238D01*
X182357142Y-62666666D02*
X182404761Y-62714285D01*
X182452380Y-62857142D01*
X182452380Y-62952380D01*
X182404761Y-63095238D01*
X182309523Y-63190476D01*
X182214285Y-63238095D01*
X182023809Y-63285714D01*
X181880952Y-63285714D01*
X181690476Y-63238095D01*
X181595238Y-63190476D01*
X181500000Y-63095238D01*
X181452380Y-62952380D01*
X181452380Y-62857142D01*
X181500000Y-62714285D01*
X181547619Y-62666666D01*
X182452380Y-61714285D02*
X182452380Y-62285714D01*
X182452380Y-62000000D02*
X181452380Y-62000000D01*
X181595238Y-62095238D01*
X181690476Y-62190476D01*
X181738095Y-62285714D01*
X160027380Y-132214285D02*
X159027380Y-132214285D01*
X159027380Y-131976190D01*
X159075000Y-131833333D01*
X159170238Y-131738095D01*
X159265476Y-131690476D01*
X159455952Y-131642857D01*
X159598809Y-131642857D01*
X159789285Y-131690476D01*
X159884523Y-131738095D01*
X159979761Y-131833333D01*
X160027380Y-131976190D01*
X160027380Y-132214285D01*
X160027380Y-130690476D02*
X160027380Y-131261904D01*
X160027380Y-130976190D02*
X159027380Y-130976190D01*
X159170238Y-131071428D01*
X159265476Y-131166666D01*
X159313095Y-131261904D01*
X159122619Y-130309523D02*
X159075000Y-130261904D01*
X159027380Y-130166666D01*
X159027380Y-129928571D01*
X159075000Y-129833333D01*
X159122619Y-129785714D01*
X159217857Y-129738095D01*
X159313095Y-129738095D01*
X159455952Y-129785714D01*
X160027380Y-130357142D01*
X160027380Y-129738095D01*
X163702380Y-77738095D02*
X162702380Y-77738095D01*
X162702380Y-77500000D01*
X162750000Y-77357142D01*
X162845238Y-77261904D01*
X162940476Y-77214285D01*
X163130952Y-77166666D01*
X163273809Y-77166666D01*
X163464285Y-77214285D01*
X163559523Y-77261904D01*
X163654761Y-77357142D01*
X163702380Y-77500000D01*
X163702380Y-77738095D01*
X162702380Y-76833333D02*
X162702380Y-76214285D01*
X163083333Y-76547619D01*
X163083333Y-76404761D01*
X163130952Y-76309523D01*
X163178571Y-76261904D01*
X163273809Y-76214285D01*
X163511904Y-76214285D01*
X163607142Y-76261904D01*
X163654761Y-76309523D01*
X163702380Y-76404761D01*
X163702380Y-76690476D01*
X163654761Y-76785714D01*
X163607142Y-76833333D01*
X161857142Y-102142857D02*
X161904761Y-102190476D01*
X161952380Y-102333333D01*
X161952380Y-102428571D01*
X161904761Y-102571428D01*
X161809523Y-102666666D01*
X161714285Y-102714285D01*
X161523809Y-102761904D01*
X161380952Y-102761904D01*
X161190476Y-102714285D01*
X161095238Y-102666666D01*
X161000000Y-102571428D01*
X160952380Y-102428571D01*
X160952380Y-102333333D01*
X161000000Y-102190476D01*
X161047619Y-102142857D01*
X161952380Y-101190476D02*
X161952380Y-101761904D01*
X161952380Y-101476190D02*
X160952380Y-101476190D01*
X161095238Y-101571428D01*
X161190476Y-101666666D01*
X161238095Y-101761904D01*
X160952380Y-100285714D02*
X160952380Y-100761904D01*
X161428571Y-100809523D01*
X161380952Y-100761904D01*
X161333333Y-100666666D01*
X161333333Y-100428571D01*
X161380952Y-100333333D01*
X161428571Y-100285714D01*
X161523809Y-100238095D01*
X161761904Y-100238095D01*
X161857142Y-100285714D01*
X161904761Y-100333333D01*
X161952380Y-100428571D01*
X161952380Y-100666666D01*
X161904761Y-100761904D01*
X161857142Y-100809523D01*
X161857142Y-121142857D02*
X161904761Y-121190476D01*
X161952380Y-121333333D01*
X161952380Y-121428571D01*
X161904761Y-121571428D01*
X161809523Y-121666666D01*
X161714285Y-121714285D01*
X161523809Y-121761904D01*
X161380952Y-121761904D01*
X161190476Y-121714285D01*
X161095238Y-121666666D01*
X161000000Y-121571428D01*
X160952380Y-121428571D01*
X160952380Y-121333333D01*
X161000000Y-121190476D01*
X161047619Y-121142857D01*
X161952380Y-120190476D02*
X161952380Y-120761904D01*
X161952380Y-120476190D02*
X160952380Y-120476190D01*
X161095238Y-120571428D01*
X161190476Y-120666666D01*
X161238095Y-120761904D01*
X160952380Y-119857142D02*
X160952380Y-119238095D01*
X161333333Y-119571428D01*
X161333333Y-119428571D01*
X161380952Y-119333333D01*
X161428571Y-119285714D01*
X161523809Y-119238095D01*
X161761904Y-119238095D01*
X161857142Y-119285714D01*
X161904761Y-119333333D01*
X161952380Y-119428571D01*
X161952380Y-119714285D01*
X161904761Y-119809523D01*
X161857142Y-119857142D01*
X160027380Y-141214285D02*
X159027380Y-141214285D01*
X159027380Y-140976190D01*
X159075000Y-140833333D01*
X159170238Y-140738095D01*
X159265476Y-140690476D01*
X159455952Y-140642857D01*
X159598809Y-140642857D01*
X159789285Y-140690476D01*
X159884523Y-140738095D01*
X159979761Y-140833333D01*
X160027380Y-140976190D01*
X160027380Y-141214285D01*
X160027380Y-139690476D02*
X160027380Y-140261904D01*
X160027380Y-139976190D02*
X159027380Y-139976190D01*
X159170238Y-140071428D01*
X159265476Y-140166666D01*
X159313095Y-140261904D01*
X160027380Y-138738095D02*
X160027380Y-139309523D01*
X160027380Y-139023809D02*
X159027380Y-139023809D01*
X159170238Y-139119047D01*
X159265476Y-139214285D01*
X159313095Y-139309523D01*
X163702380Y-95738095D02*
X162702380Y-95738095D01*
X162702380Y-95500000D01*
X162750000Y-95357142D01*
X162845238Y-95261904D01*
X162940476Y-95214285D01*
X163130952Y-95166666D01*
X163273809Y-95166666D01*
X163464285Y-95214285D01*
X163559523Y-95261904D01*
X163654761Y-95357142D01*
X163702380Y-95500000D01*
X163702380Y-95738095D01*
X162702380Y-94261904D02*
X162702380Y-94738095D01*
X163178571Y-94785714D01*
X163130952Y-94738095D01*
X163083333Y-94642857D01*
X163083333Y-94404761D01*
X163130952Y-94309523D01*
X163178571Y-94261904D01*
X163273809Y-94214285D01*
X163511904Y-94214285D01*
X163607142Y-94261904D01*
X163654761Y-94309523D01*
X163702380Y-94404761D01*
X163702380Y-94642857D01*
X163654761Y-94738095D01*
X163607142Y-94785714D01*
X160027380Y-105214285D02*
X159027380Y-105214285D01*
X159027380Y-104976190D01*
X159075000Y-104833333D01*
X159170238Y-104738095D01*
X159265476Y-104690476D01*
X159455952Y-104642857D01*
X159598809Y-104642857D01*
X159789285Y-104690476D01*
X159884523Y-104738095D01*
X159979761Y-104833333D01*
X160027380Y-104976190D01*
X160027380Y-105214285D01*
X160027380Y-103690476D02*
X160027380Y-104261904D01*
X160027380Y-103976190D02*
X159027380Y-103976190D01*
X159170238Y-104071428D01*
X159265476Y-104166666D01*
X159313095Y-104261904D01*
X159027380Y-102785714D02*
X159027380Y-103261904D01*
X159503571Y-103309523D01*
X159455952Y-103261904D01*
X159408333Y-103166666D01*
X159408333Y-102928571D01*
X159455952Y-102833333D01*
X159503571Y-102785714D01*
X159598809Y-102738095D01*
X159836904Y-102738095D01*
X159932142Y-102785714D01*
X159979761Y-102833333D01*
X160027380Y-102928571D01*
X160027380Y-103166666D01*
X159979761Y-103261904D01*
X159932142Y-103309523D01*
X163702380Y-59738095D02*
X162702380Y-59738095D01*
X162702380Y-59500000D01*
X162750000Y-59357142D01*
X162845238Y-59261904D01*
X162940476Y-59214285D01*
X163130952Y-59166666D01*
X163273809Y-59166666D01*
X163464285Y-59214285D01*
X163559523Y-59261904D01*
X163654761Y-59357142D01*
X163702380Y-59500000D01*
X163702380Y-59738095D01*
X163702380Y-58214285D02*
X163702380Y-58785714D01*
X163702380Y-58500000D02*
X162702380Y-58500000D01*
X162845238Y-58595238D01*
X162940476Y-58690476D01*
X162988095Y-58785714D01*
X161357142Y-142142857D02*
X161404761Y-142190476D01*
X161452380Y-142333333D01*
X161452380Y-142428571D01*
X161404761Y-142571428D01*
X161309523Y-142666666D01*
X161214285Y-142714285D01*
X161023809Y-142761904D01*
X160880952Y-142761904D01*
X160690476Y-142714285D01*
X160595238Y-142666666D01*
X160500000Y-142571428D01*
X160452380Y-142428571D01*
X160452380Y-142333333D01*
X160500000Y-142190476D01*
X160547619Y-142142857D01*
X161452380Y-141190476D02*
X161452380Y-141761904D01*
X161452380Y-141476190D02*
X160452380Y-141476190D01*
X160595238Y-141571428D01*
X160690476Y-141666666D01*
X160738095Y-141761904D01*
X160452380Y-140571428D02*
X160452380Y-140476190D01*
X160500000Y-140380952D01*
X160547619Y-140333333D01*
X160642857Y-140285714D01*
X160833333Y-140238095D01*
X161071428Y-140238095D01*
X161261904Y-140285714D01*
X161357142Y-140333333D01*
X161404761Y-140380952D01*
X161452380Y-140476190D01*
X161452380Y-140571428D01*
X161404761Y-140666666D01*
X161357142Y-140714285D01*
X161261904Y-140761904D01*
X161071428Y-140809523D01*
X160833333Y-140809523D01*
X160642857Y-140761904D01*
X160547619Y-140714285D01*
X160500000Y-140666666D01*
X160452380Y-140571428D01*
X163702380Y-68738095D02*
X162702380Y-68738095D01*
X162702380Y-68500000D01*
X162750000Y-68357142D01*
X162845238Y-68261904D01*
X162940476Y-68214285D01*
X163130952Y-68166666D01*
X163273809Y-68166666D01*
X163464285Y-68214285D01*
X163559523Y-68261904D01*
X163654761Y-68357142D01*
X163702380Y-68500000D01*
X163702380Y-68738095D01*
X162797619Y-67785714D02*
X162750000Y-67738095D01*
X162702380Y-67642857D01*
X162702380Y-67404761D01*
X162750000Y-67309523D01*
X162797619Y-67261904D01*
X162892857Y-67214285D01*
X162988095Y-67214285D01*
X163130952Y-67261904D01*
X163702380Y-67833333D01*
X163702380Y-67214285D01*
X161357142Y-71666666D02*
X161404761Y-71714285D01*
X161452380Y-71857142D01*
X161452380Y-71952380D01*
X161404761Y-72095238D01*
X161309523Y-72190476D01*
X161214285Y-72238095D01*
X161023809Y-72285714D01*
X160880952Y-72285714D01*
X160690476Y-72238095D01*
X160595238Y-72190476D01*
X160500000Y-72095238D01*
X160452380Y-71952380D01*
X160452380Y-71857142D01*
X160500000Y-71714285D01*
X160547619Y-71666666D01*
X160547619Y-71285714D02*
X160500000Y-71238095D01*
X160452380Y-71142857D01*
X160452380Y-70904761D01*
X160500000Y-70809523D01*
X160547619Y-70761904D01*
X160642857Y-70714285D01*
X160738095Y-70714285D01*
X160880952Y-70761904D01*
X161452380Y-71333333D01*
X161452380Y-70714285D01*
X163702380Y-86738095D02*
X162702380Y-86738095D01*
X162702380Y-86500000D01*
X162750000Y-86357142D01*
X162845238Y-86261904D01*
X162940476Y-86214285D01*
X163130952Y-86166666D01*
X163273809Y-86166666D01*
X163464285Y-86214285D01*
X163559523Y-86261904D01*
X163654761Y-86357142D01*
X163702380Y-86500000D01*
X163702380Y-86738095D01*
X163035714Y-85309523D02*
X163702380Y-85309523D01*
X162654761Y-85547619D02*
X163369047Y-85785714D01*
X163369047Y-85166666D01*
X160027380Y-114214285D02*
X159027380Y-114214285D01*
X159027380Y-113976190D01*
X159075000Y-113833333D01*
X159170238Y-113738095D01*
X159265476Y-113690476D01*
X159455952Y-113642857D01*
X159598809Y-113642857D01*
X159789285Y-113690476D01*
X159884523Y-113738095D01*
X159979761Y-113833333D01*
X160027380Y-113976190D01*
X160027380Y-114214285D01*
X160027380Y-112690476D02*
X160027380Y-113261904D01*
X160027380Y-112976190D02*
X159027380Y-112976190D01*
X159170238Y-113071428D01*
X159265476Y-113166666D01*
X159313095Y-113261904D01*
X159360714Y-111833333D02*
X160027380Y-111833333D01*
X158979761Y-112071428D02*
X159694047Y-112309523D01*
X159694047Y-111690476D01*
X161857142Y-56642857D02*
X161904761Y-56690476D01*
X161952380Y-56833333D01*
X161952380Y-56928571D01*
X161904761Y-57071428D01*
X161809523Y-57166666D01*
X161714285Y-57214285D01*
X161523809Y-57261904D01*
X161380952Y-57261904D01*
X161190476Y-57214285D01*
X161095238Y-57166666D01*
X161000000Y-57071428D01*
X160952380Y-56928571D01*
X160952380Y-56833333D01*
X161000000Y-56690476D01*
X161047619Y-56642857D01*
X161047619Y-56261904D02*
X161000000Y-56214285D01*
X160952380Y-56119047D01*
X160952380Y-55880952D01*
X161000000Y-55785714D01*
X161047619Y-55738095D01*
X161142857Y-55690476D01*
X161238095Y-55690476D01*
X161380952Y-55738095D01*
X161952380Y-56309523D01*
X161952380Y-55690476D01*
X160952380Y-55071428D02*
X160952380Y-54976190D01*
X161000000Y-54880952D01*
X161047619Y-54833333D01*
X161142857Y-54785714D01*
X161333333Y-54738095D01*
X161571428Y-54738095D01*
X161761904Y-54785714D01*
X161857142Y-54833333D01*
X161904761Y-54880952D01*
X161952380Y-54976190D01*
X161952380Y-55071428D01*
X161904761Y-55166666D01*
X161857142Y-55214285D01*
X161761904Y-55261904D01*
X161571428Y-55309523D01*
X161333333Y-55309523D01*
X161142857Y-55261904D01*
X161047619Y-55214285D01*
X161000000Y-55166666D01*
X160952380Y-55071428D01*
X161357142Y-107666666D02*
X161404761Y-107714285D01*
X161452380Y-107857142D01*
X161452380Y-107952380D01*
X161404761Y-108095238D01*
X161309523Y-108190476D01*
X161214285Y-108238095D01*
X161023809Y-108285714D01*
X160880952Y-108285714D01*
X160690476Y-108238095D01*
X160595238Y-108190476D01*
X160500000Y-108095238D01*
X160452380Y-107952380D01*
X160452380Y-107857142D01*
X160500000Y-107714285D01*
X160547619Y-107666666D01*
X160452380Y-106809523D02*
X160452380Y-107000000D01*
X160500000Y-107095238D01*
X160547619Y-107142857D01*
X160690476Y-107238095D01*
X160880952Y-107285714D01*
X161261904Y-107285714D01*
X161357142Y-107238095D01*
X161404761Y-107190476D01*
X161452380Y-107095238D01*
X161452380Y-106904761D01*
X161404761Y-106809523D01*
X161357142Y-106761904D01*
X161261904Y-106714285D01*
X161023809Y-106714285D01*
X160928571Y-106761904D01*
X160880952Y-106809523D01*
X160833333Y-106904761D01*
X160833333Y-107095238D01*
X160880952Y-107190476D01*
X160928571Y-107238095D01*
X161023809Y-107285714D01*
X160027380Y-123214285D02*
X159027380Y-123214285D01*
X159027380Y-122976190D01*
X159075000Y-122833333D01*
X159170238Y-122738095D01*
X159265476Y-122690476D01*
X159455952Y-122642857D01*
X159598809Y-122642857D01*
X159789285Y-122690476D01*
X159884523Y-122738095D01*
X159979761Y-122833333D01*
X160027380Y-122976190D01*
X160027380Y-123214285D01*
X160027380Y-121690476D02*
X160027380Y-122261904D01*
X160027380Y-121976190D02*
X159027380Y-121976190D01*
X159170238Y-122071428D01*
X159265476Y-122166666D01*
X159313095Y-122261904D01*
X159027380Y-121357142D02*
X159027380Y-120738095D01*
X159408333Y-121071428D01*
X159408333Y-120928571D01*
X159455952Y-120833333D01*
X159503571Y-120785714D01*
X159598809Y-120738095D01*
X159836904Y-120738095D01*
X159932142Y-120785714D01*
X159979761Y-120833333D01*
X160027380Y-120928571D01*
X160027380Y-121214285D01*
X159979761Y-121309523D01*
X159932142Y-121357142D01*
X161857142Y-66142857D02*
X161904761Y-66190476D01*
X161952380Y-66333333D01*
X161952380Y-66428571D01*
X161904761Y-66571428D01*
X161809523Y-66666666D01*
X161714285Y-66714285D01*
X161523809Y-66761904D01*
X161380952Y-66761904D01*
X161190476Y-66714285D01*
X161095238Y-66666666D01*
X161000000Y-66571428D01*
X160952380Y-66428571D01*
X160952380Y-66333333D01*
X161000000Y-66190476D01*
X161047619Y-66142857D01*
X161952380Y-65190476D02*
X161952380Y-65761904D01*
X161952380Y-65476190D02*
X160952380Y-65476190D01*
X161095238Y-65571428D01*
X161190476Y-65666666D01*
X161238095Y-65761904D01*
X161952380Y-64714285D02*
X161952380Y-64523809D01*
X161904761Y-64428571D01*
X161857142Y-64380952D01*
X161714285Y-64285714D01*
X161523809Y-64238095D01*
X161142857Y-64238095D01*
X161047619Y-64285714D01*
X161000000Y-64333333D01*
X160952380Y-64428571D01*
X160952380Y-64619047D01*
X161000000Y-64714285D01*
X161047619Y-64761904D01*
X161142857Y-64809523D01*
X161380952Y-64809523D01*
X161476190Y-64761904D01*
X161523809Y-64714285D01*
X161571428Y-64619047D01*
X161571428Y-64428571D01*
X161523809Y-64333333D01*
X161476190Y-64285714D01*
X161380952Y-64238095D01*
X161857142Y-75142857D02*
X161904761Y-75190476D01*
X161952380Y-75333333D01*
X161952380Y-75428571D01*
X161904761Y-75571428D01*
X161809523Y-75666666D01*
X161714285Y-75714285D01*
X161523809Y-75761904D01*
X161380952Y-75761904D01*
X161190476Y-75714285D01*
X161095238Y-75666666D01*
X161000000Y-75571428D01*
X160952380Y-75428571D01*
X160952380Y-75333333D01*
X161000000Y-75190476D01*
X161047619Y-75142857D01*
X161952380Y-74190476D02*
X161952380Y-74761904D01*
X161952380Y-74476190D02*
X160952380Y-74476190D01*
X161095238Y-74571428D01*
X161190476Y-74666666D01*
X161238095Y-74761904D01*
X161380952Y-73619047D02*
X161333333Y-73714285D01*
X161285714Y-73761904D01*
X161190476Y-73809523D01*
X161142857Y-73809523D01*
X161047619Y-73761904D01*
X161000000Y-73714285D01*
X160952380Y-73619047D01*
X160952380Y-73428571D01*
X161000000Y-73333333D01*
X161047619Y-73285714D01*
X161142857Y-73238095D01*
X161190476Y-73238095D01*
X161285714Y-73285714D01*
X161333333Y-73333333D01*
X161380952Y-73428571D01*
X161380952Y-73619047D01*
X161428571Y-73714285D01*
X161476190Y-73761904D01*
X161571428Y-73809523D01*
X161761904Y-73809523D01*
X161857142Y-73761904D01*
X161904761Y-73714285D01*
X161952380Y-73619047D01*
X161952380Y-73428571D01*
X161904761Y-73333333D01*
X161857142Y-73285714D01*
X161761904Y-73238095D01*
X161571428Y-73238095D01*
X161476190Y-73285714D01*
X161428571Y-73333333D01*
X161380952Y-73428571D01*
X163702380Y-131738095D02*
X162702380Y-131738095D01*
X162702380Y-131500000D01*
X162750000Y-131357142D01*
X162845238Y-131261904D01*
X162940476Y-131214285D01*
X163130952Y-131166666D01*
X163273809Y-131166666D01*
X163464285Y-131214285D01*
X163559523Y-131261904D01*
X163654761Y-131357142D01*
X163702380Y-131500000D01*
X163702380Y-131738095D01*
X163702380Y-130690476D02*
X163702380Y-130500000D01*
X163654761Y-130404761D01*
X163607142Y-130357142D01*
X163464285Y-130261904D01*
X163273809Y-130214285D01*
X162892857Y-130214285D01*
X162797619Y-130261904D01*
X162750000Y-130309523D01*
X162702380Y-130404761D01*
X162702380Y-130595238D01*
X162750000Y-130690476D01*
X162797619Y-130738095D01*
X162892857Y-130785714D01*
X163130952Y-130785714D01*
X163226190Y-130738095D01*
X163273809Y-130690476D01*
X163321428Y-130595238D01*
X163321428Y-130404761D01*
X163273809Y-130309523D01*
X163226190Y-130261904D01*
X163130952Y-130214285D01*
X160052380Y-60214285D02*
X159052380Y-60214285D01*
X159052380Y-59976190D01*
X159100000Y-59833333D01*
X159195238Y-59738095D01*
X159290476Y-59690476D01*
X159480952Y-59642857D01*
X159623809Y-59642857D01*
X159814285Y-59690476D01*
X159909523Y-59738095D01*
X160004761Y-59833333D01*
X160052380Y-59976190D01*
X160052380Y-60214285D01*
X159147619Y-59261904D02*
X159100000Y-59214285D01*
X159052380Y-59119047D01*
X159052380Y-58880952D01*
X159100000Y-58785714D01*
X159147619Y-58738095D01*
X159242857Y-58690476D01*
X159338095Y-58690476D01*
X159480952Y-58738095D01*
X160052380Y-59309523D01*
X160052380Y-58690476D01*
X159052380Y-58071428D02*
X159052380Y-57976190D01*
X159100000Y-57880952D01*
X159147619Y-57833333D01*
X159242857Y-57785714D01*
X159433333Y-57738095D01*
X159671428Y-57738095D01*
X159861904Y-57785714D01*
X159957142Y-57833333D01*
X160004761Y-57880952D01*
X160052380Y-57976190D01*
X160052380Y-58071428D01*
X160004761Y-58166666D01*
X159957142Y-58214285D01*
X159861904Y-58261904D01*
X159671428Y-58309523D01*
X159433333Y-58309523D01*
X159242857Y-58261904D01*
X159147619Y-58214285D01*
X159100000Y-58166666D01*
X159052380Y-58071428D01*
X161857142Y-111142857D02*
X161904761Y-111190476D01*
X161952380Y-111333333D01*
X161952380Y-111428571D01*
X161904761Y-111571428D01*
X161809523Y-111666666D01*
X161714285Y-111714285D01*
X161523809Y-111761904D01*
X161380952Y-111761904D01*
X161190476Y-111714285D01*
X161095238Y-111666666D01*
X161000000Y-111571428D01*
X160952380Y-111428571D01*
X160952380Y-111333333D01*
X161000000Y-111190476D01*
X161047619Y-111142857D01*
X161952380Y-110190476D02*
X161952380Y-110761904D01*
X161952380Y-110476190D02*
X160952380Y-110476190D01*
X161095238Y-110571428D01*
X161190476Y-110666666D01*
X161238095Y-110761904D01*
X161285714Y-109333333D02*
X161952380Y-109333333D01*
X160904761Y-109571428D02*
X161619047Y-109809523D01*
X161619047Y-109190476D01*
X163702380Y-122738095D02*
X162702380Y-122738095D01*
X162702380Y-122500000D01*
X162750000Y-122357142D01*
X162845238Y-122261904D01*
X162940476Y-122214285D01*
X163130952Y-122166666D01*
X163273809Y-122166666D01*
X163464285Y-122214285D01*
X163559523Y-122261904D01*
X163654761Y-122357142D01*
X163702380Y-122500000D01*
X163702380Y-122738095D01*
X163130952Y-121595238D02*
X163083333Y-121690476D01*
X163035714Y-121738095D01*
X162940476Y-121785714D01*
X162892857Y-121785714D01*
X162797619Y-121738095D01*
X162750000Y-121690476D01*
X162702380Y-121595238D01*
X162702380Y-121404761D01*
X162750000Y-121309523D01*
X162797619Y-121261904D01*
X162892857Y-121214285D01*
X162940476Y-121214285D01*
X163035714Y-121261904D01*
X163083333Y-121309523D01*
X163130952Y-121404761D01*
X163130952Y-121595238D01*
X163178571Y-121690476D01*
X163226190Y-121738095D01*
X163321428Y-121785714D01*
X163511904Y-121785714D01*
X163607142Y-121738095D01*
X163654761Y-121690476D01*
X163702380Y-121595238D01*
X163702380Y-121404761D01*
X163654761Y-121309523D01*
X163607142Y-121261904D01*
X163511904Y-121214285D01*
X163321428Y-121214285D01*
X163226190Y-121261904D01*
X163178571Y-121309523D01*
X163130952Y-121404761D01*
X161357142Y-80666666D02*
X161404761Y-80714285D01*
X161452380Y-80857142D01*
X161452380Y-80952380D01*
X161404761Y-81095238D01*
X161309523Y-81190476D01*
X161214285Y-81238095D01*
X161023809Y-81285714D01*
X160880952Y-81285714D01*
X160690476Y-81238095D01*
X160595238Y-81190476D01*
X160500000Y-81095238D01*
X160452380Y-80952380D01*
X160452380Y-80857142D01*
X160500000Y-80714285D01*
X160547619Y-80666666D01*
X160452380Y-80333333D02*
X160452380Y-79714285D01*
X160833333Y-80047619D01*
X160833333Y-79904761D01*
X160880952Y-79809523D01*
X160928571Y-79761904D01*
X161023809Y-79714285D01*
X161261904Y-79714285D01*
X161357142Y-79761904D01*
X161404761Y-79809523D01*
X161452380Y-79904761D01*
X161452380Y-80190476D01*
X161404761Y-80285714D01*
X161357142Y-80333333D01*
X160027380Y-96214285D02*
X159027380Y-96214285D01*
X159027380Y-95976190D01*
X159075000Y-95833333D01*
X159170238Y-95738095D01*
X159265476Y-95690476D01*
X159455952Y-95642857D01*
X159598809Y-95642857D01*
X159789285Y-95690476D01*
X159884523Y-95738095D01*
X159979761Y-95833333D01*
X160027380Y-95976190D01*
X160027380Y-96214285D01*
X160027380Y-94690476D02*
X160027380Y-95261904D01*
X160027380Y-94976190D02*
X159027380Y-94976190D01*
X159170238Y-95071428D01*
X159265476Y-95166666D01*
X159313095Y-95261904D01*
X159027380Y-93833333D02*
X159027380Y-94023809D01*
X159075000Y-94119047D01*
X159122619Y-94166666D01*
X159265476Y-94261904D01*
X159455952Y-94309523D01*
X159836904Y-94309523D01*
X159932142Y-94261904D01*
X159979761Y-94214285D01*
X160027380Y-94119047D01*
X160027380Y-93928571D01*
X159979761Y-93833333D01*
X159932142Y-93785714D01*
X159836904Y-93738095D01*
X159598809Y-93738095D01*
X159503571Y-93785714D01*
X159455952Y-93833333D01*
X159408333Y-93928571D01*
X159408333Y-94119047D01*
X159455952Y-94214285D01*
X159503571Y-94261904D01*
X159598809Y-94309523D01*
X160027380Y-69214285D02*
X159027380Y-69214285D01*
X159027380Y-68976190D01*
X159075000Y-68833333D01*
X159170238Y-68738095D01*
X159265476Y-68690476D01*
X159455952Y-68642857D01*
X159598809Y-68642857D01*
X159789285Y-68690476D01*
X159884523Y-68738095D01*
X159979761Y-68833333D01*
X160027380Y-68976190D01*
X160027380Y-69214285D01*
X160027380Y-67690476D02*
X160027380Y-68261904D01*
X160027380Y-67976190D02*
X159027380Y-67976190D01*
X159170238Y-68071428D01*
X159265476Y-68166666D01*
X159313095Y-68261904D01*
X160027380Y-67214285D02*
X160027380Y-67023809D01*
X159979761Y-66928571D01*
X159932142Y-66880952D01*
X159789285Y-66785714D01*
X159598809Y-66738095D01*
X159217857Y-66738095D01*
X159122619Y-66785714D01*
X159075000Y-66833333D01*
X159027380Y-66928571D01*
X159027380Y-67119047D01*
X159075000Y-67214285D01*
X159122619Y-67261904D01*
X159217857Y-67309523D01*
X159455952Y-67309523D01*
X159551190Y-67261904D01*
X159598809Y-67214285D01*
X159646428Y-67119047D01*
X159646428Y-66928571D01*
X159598809Y-66833333D01*
X159551190Y-66785714D01*
X159455952Y-66738095D01*
X161357142Y-89666666D02*
X161404761Y-89714285D01*
X161452380Y-89857142D01*
X161452380Y-89952380D01*
X161404761Y-90095238D01*
X161309523Y-90190476D01*
X161214285Y-90238095D01*
X161023809Y-90285714D01*
X160880952Y-90285714D01*
X160690476Y-90238095D01*
X160595238Y-90190476D01*
X160500000Y-90095238D01*
X160452380Y-89952380D01*
X160452380Y-89857142D01*
X160500000Y-89714285D01*
X160547619Y-89666666D01*
X160785714Y-88809523D02*
X161452380Y-88809523D01*
X160404761Y-89047619D02*
X161119047Y-89285714D01*
X161119047Y-88666666D01*
X161357142Y-125666666D02*
X161404761Y-125714285D01*
X161452380Y-125857142D01*
X161452380Y-125952380D01*
X161404761Y-126095238D01*
X161309523Y-126190476D01*
X161214285Y-126238095D01*
X161023809Y-126285714D01*
X160880952Y-126285714D01*
X160690476Y-126238095D01*
X160595238Y-126190476D01*
X160500000Y-126095238D01*
X160452380Y-125952380D01*
X160452380Y-125857142D01*
X160500000Y-125714285D01*
X160547619Y-125666666D01*
X160880952Y-125095238D02*
X160833333Y-125190476D01*
X160785714Y-125238095D01*
X160690476Y-125285714D01*
X160642857Y-125285714D01*
X160547619Y-125238095D01*
X160500000Y-125190476D01*
X160452380Y-125095238D01*
X160452380Y-124904761D01*
X160500000Y-124809523D01*
X160547619Y-124761904D01*
X160642857Y-124714285D01*
X160690476Y-124714285D01*
X160785714Y-124761904D01*
X160833333Y-124809523D01*
X160880952Y-124904761D01*
X160880952Y-125095238D01*
X160928571Y-125190476D01*
X160976190Y-125238095D01*
X161071428Y-125285714D01*
X161261904Y-125285714D01*
X161357142Y-125238095D01*
X161404761Y-125190476D01*
X161452380Y-125095238D01*
X161452380Y-124904761D01*
X161404761Y-124809523D01*
X161357142Y-124761904D01*
X161261904Y-124714285D01*
X161071428Y-124714285D01*
X160976190Y-124761904D01*
X160928571Y-124809523D01*
X160880952Y-124904761D01*
X161166666Y-42892380D02*
X161166666Y-43606666D01*
X161119047Y-43749523D01*
X161023809Y-43844761D01*
X160880952Y-43892380D01*
X160785714Y-43892380D01*
X162166666Y-43892380D02*
X161595238Y-43892380D01*
X161880952Y-43892380D02*
X161880952Y-42892380D01*
X161785714Y-43035238D01*
X161690476Y-43130476D01*
X161595238Y-43178095D01*
X160027380Y-87214285D02*
X159027380Y-87214285D01*
X159027380Y-86976190D01*
X159075000Y-86833333D01*
X159170238Y-86738095D01*
X159265476Y-86690476D01*
X159455952Y-86642857D01*
X159598809Y-86642857D01*
X159789285Y-86690476D01*
X159884523Y-86738095D01*
X159979761Y-86833333D01*
X160027380Y-86976190D01*
X160027380Y-87214285D01*
X160027380Y-85690476D02*
X160027380Y-86261904D01*
X160027380Y-85976190D02*
X159027380Y-85976190D01*
X159170238Y-86071428D01*
X159265476Y-86166666D01*
X159313095Y-86261904D01*
X159027380Y-85357142D02*
X159027380Y-84690476D01*
X160027380Y-85119047D01*
X163702380Y-104738095D02*
X162702380Y-104738095D01*
X162702380Y-104500000D01*
X162750000Y-104357142D01*
X162845238Y-104261904D01*
X162940476Y-104214285D01*
X163130952Y-104166666D01*
X163273809Y-104166666D01*
X163464285Y-104214285D01*
X163559523Y-104261904D01*
X163654761Y-104357142D01*
X163702380Y-104500000D01*
X163702380Y-104738095D01*
X162702380Y-103309523D02*
X162702380Y-103500000D01*
X162750000Y-103595238D01*
X162797619Y-103642857D01*
X162940476Y-103738095D01*
X163130952Y-103785714D01*
X163511904Y-103785714D01*
X163607142Y-103738095D01*
X163654761Y-103690476D01*
X163702380Y-103595238D01*
X163702380Y-103404761D01*
X163654761Y-103309523D01*
X163607142Y-103261904D01*
X163511904Y-103214285D01*
X163273809Y-103214285D01*
X163178571Y-103261904D01*
X163130952Y-103309523D01*
X163083333Y-103404761D01*
X163083333Y-103595238D01*
X163130952Y-103690476D01*
X163178571Y-103738095D01*
X163273809Y-103785714D01*
X163702380Y-113738095D02*
X162702380Y-113738095D01*
X162702380Y-113500000D01*
X162750000Y-113357142D01*
X162845238Y-113261904D01*
X162940476Y-113214285D01*
X163130952Y-113166666D01*
X163273809Y-113166666D01*
X163464285Y-113214285D01*
X163559523Y-113261904D01*
X163654761Y-113357142D01*
X163702380Y-113500000D01*
X163702380Y-113738095D01*
X162702380Y-112833333D02*
X162702380Y-112166666D01*
X163702380Y-112595238D01*
X161857142Y-129642857D02*
X161904761Y-129690476D01*
X161952380Y-129833333D01*
X161952380Y-129928571D01*
X161904761Y-130071428D01*
X161809523Y-130166666D01*
X161714285Y-130214285D01*
X161523809Y-130261904D01*
X161380952Y-130261904D01*
X161190476Y-130214285D01*
X161095238Y-130166666D01*
X161000000Y-130071428D01*
X160952380Y-129928571D01*
X160952380Y-129833333D01*
X161000000Y-129690476D01*
X161047619Y-129642857D01*
X161952380Y-128690476D02*
X161952380Y-129261904D01*
X161952380Y-128976190D02*
X160952380Y-128976190D01*
X161095238Y-129071428D01*
X161190476Y-129166666D01*
X161238095Y-129261904D01*
X161047619Y-128309523D02*
X161000000Y-128261904D01*
X160952380Y-128166666D01*
X160952380Y-127928571D01*
X161000000Y-127833333D01*
X161047619Y-127785714D01*
X161142857Y-127738095D01*
X161238095Y-127738095D01*
X161380952Y-127785714D01*
X161952380Y-128357142D01*
X161952380Y-127738095D01*
X160027380Y-78214285D02*
X159027380Y-78214285D01*
X159027380Y-77976190D01*
X159075000Y-77833333D01*
X159170238Y-77738095D01*
X159265476Y-77690476D01*
X159455952Y-77642857D01*
X159598809Y-77642857D01*
X159789285Y-77690476D01*
X159884523Y-77738095D01*
X159979761Y-77833333D01*
X160027380Y-77976190D01*
X160027380Y-78214285D01*
X160027380Y-76690476D02*
X160027380Y-77261904D01*
X160027380Y-76976190D02*
X159027380Y-76976190D01*
X159170238Y-77071428D01*
X159265476Y-77166666D01*
X159313095Y-77261904D01*
X159455952Y-76119047D02*
X159408333Y-76214285D01*
X159360714Y-76261904D01*
X159265476Y-76309523D01*
X159217857Y-76309523D01*
X159122619Y-76261904D01*
X159075000Y-76214285D01*
X159027380Y-76119047D01*
X159027380Y-75928571D01*
X159075000Y-75833333D01*
X159122619Y-75785714D01*
X159217857Y-75738095D01*
X159265476Y-75738095D01*
X159360714Y-75785714D01*
X159408333Y-75833333D01*
X159455952Y-75928571D01*
X159455952Y-76119047D01*
X159503571Y-76214285D01*
X159551190Y-76261904D01*
X159646428Y-76309523D01*
X159836904Y-76309523D01*
X159932142Y-76261904D01*
X159979761Y-76214285D01*
X160027380Y-76119047D01*
X160027380Y-75928571D01*
X159979761Y-75833333D01*
X159932142Y-75785714D01*
X159836904Y-75738095D01*
X159646428Y-75738095D01*
X159551190Y-75785714D01*
X159503571Y-75833333D01*
X159455952Y-75928571D01*
X161857142Y-93142857D02*
X161904761Y-93190476D01*
X161952380Y-93333333D01*
X161952380Y-93428571D01*
X161904761Y-93571428D01*
X161809523Y-93666666D01*
X161714285Y-93714285D01*
X161523809Y-93761904D01*
X161380952Y-93761904D01*
X161190476Y-93714285D01*
X161095238Y-93666666D01*
X161000000Y-93571428D01*
X160952380Y-93428571D01*
X160952380Y-93333333D01*
X161000000Y-93190476D01*
X161047619Y-93142857D01*
X161952380Y-92190476D02*
X161952380Y-92761904D01*
X161952380Y-92476190D02*
X160952380Y-92476190D01*
X161095238Y-92571428D01*
X161190476Y-92666666D01*
X161238095Y-92761904D01*
X160952380Y-91333333D02*
X160952380Y-91523809D01*
X161000000Y-91619047D01*
X161047619Y-91666666D01*
X161190476Y-91761904D01*
X161380952Y-91809523D01*
X161761904Y-91809523D01*
X161857142Y-91761904D01*
X161904761Y-91714285D01*
X161952380Y-91619047D01*
X161952380Y-91428571D01*
X161904761Y-91333333D01*
X161857142Y-91285714D01*
X161761904Y-91238095D01*
X161523809Y-91238095D01*
X161428571Y-91285714D01*
X161380952Y-91333333D01*
X161333333Y-91428571D01*
X161333333Y-91619047D01*
X161380952Y-91714285D01*
X161428571Y-91761904D01*
X161523809Y-91809523D01*
X161857142Y-84142857D02*
X161904761Y-84190476D01*
X161952380Y-84333333D01*
X161952380Y-84428571D01*
X161904761Y-84571428D01*
X161809523Y-84666666D01*
X161714285Y-84714285D01*
X161523809Y-84761904D01*
X161380952Y-84761904D01*
X161190476Y-84714285D01*
X161095238Y-84666666D01*
X161000000Y-84571428D01*
X160952380Y-84428571D01*
X160952380Y-84333333D01*
X161000000Y-84190476D01*
X161047619Y-84142857D01*
X161952380Y-83190476D02*
X161952380Y-83761904D01*
X161952380Y-83476190D02*
X160952380Y-83476190D01*
X161095238Y-83571428D01*
X161190476Y-83666666D01*
X161238095Y-83761904D01*
X160952380Y-82857142D02*
X160952380Y-82190476D01*
X161952380Y-82619047D01*
X163702380Y-141214285D02*
X162702380Y-141214285D01*
X162702380Y-140976190D01*
X162750000Y-140833333D01*
X162845238Y-140738095D01*
X162940476Y-140690476D01*
X163130952Y-140642857D01*
X163273809Y-140642857D01*
X163464285Y-140690476D01*
X163559523Y-140738095D01*
X163654761Y-140833333D01*
X163702380Y-140976190D01*
X163702380Y-141214285D01*
X163702380Y-139690476D02*
X163702380Y-140261904D01*
X163702380Y-139976190D02*
X162702380Y-139976190D01*
X162845238Y-140071428D01*
X162940476Y-140166666D01*
X162988095Y-140261904D01*
X162702380Y-139071428D02*
X162702380Y-138976190D01*
X162750000Y-138880952D01*
X162797619Y-138833333D01*
X162892857Y-138785714D01*
X163083333Y-138738095D01*
X163321428Y-138738095D01*
X163511904Y-138785714D01*
X163607142Y-138833333D01*
X163654761Y-138880952D01*
X163702380Y-138976190D01*
X163702380Y-139071428D01*
X163654761Y-139166666D01*
X163607142Y-139214285D01*
X163511904Y-139261904D01*
X163321428Y-139309523D01*
X163083333Y-139309523D01*
X162892857Y-139261904D01*
X162797619Y-139214285D01*
X162750000Y-139166666D01*
X162702380Y-139071428D01*
X161357142Y-98666666D02*
X161404761Y-98714285D01*
X161452380Y-98857142D01*
X161452380Y-98952380D01*
X161404761Y-99095238D01*
X161309523Y-99190476D01*
X161214285Y-99238095D01*
X161023809Y-99285714D01*
X160880952Y-99285714D01*
X160690476Y-99238095D01*
X160595238Y-99190476D01*
X160500000Y-99095238D01*
X160452380Y-98952380D01*
X160452380Y-98857142D01*
X160500000Y-98714285D01*
X160547619Y-98666666D01*
X160452380Y-97761904D02*
X160452380Y-98238095D01*
X160928571Y-98285714D01*
X160880952Y-98238095D01*
X160833333Y-98142857D01*
X160833333Y-97904761D01*
X160880952Y-97809523D01*
X160928571Y-97761904D01*
X161023809Y-97714285D01*
X161261904Y-97714285D01*
X161357142Y-97761904D01*
X161404761Y-97809523D01*
X161452380Y-97904761D01*
X161452380Y-98142857D01*
X161404761Y-98238095D01*
X161357142Y-98285714D01*
X161357142Y-116666666D02*
X161404761Y-116714285D01*
X161452380Y-116857142D01*
X161452380Y-116952380D01*
X161404761Y-117095238D01*
X161309523Y-117190476D01*
X161214285Y-117238095D01*
X161023809Y-117285714D01*
X160880952Y-117285714D01*
X160690476Y-117238095D01*
X160595238Y-117190476D01*
X160500000Y-117095238D01*
X160452380Y-116952380D01*
X160452380Y-116857142D01*
X160500000Y-116714285D01*
X160547619Y-116666666D01*
X160452380Y-116333333D02*
X160452380Y-115666666D01*
X161452380Y-116095238D01*
X161357142Y-134666666D02*
X161404761Y-134714285D01*
X161452380Y-134857142D01*
X161452380Y-134952380D01*
X161404761Y-135095238D01*
X161309523Y-135190476D01*
X161214285Y-135238095D01*
X161023809Y-135285714D01*
X160880952Y-135285714D01*
X160690476Y-135238095D01*
X160595238Y-135190476D01*
X160500000Y-135095238D01*
X160452380Y-134952380D01*
X160452380Y-134857142D01*
X160500000Y-134714285D01*
X160547619Y-134666666D01*
X161452380Y-134190476D02*
X161452380Y-134000000D01*
X161404761Y-133904761D01*
X161357142Y-133857142D01*
X161214285Y-133761904D01*
X161023809Y-133714285D01*
X160642857Y-133714285D01*
X160547619Y-133761904D01*
X160500000Y-133809523D01*
X160452380Y-133904761D01*
X160452380Y-134095238D01*
X160500000Y-134190476D01*
X160547619Y-134238095D01*
X160642857Y-134285714D01*
X160880952Y-134285714D01*
X160976190Y-134238095D01*
X161023809Y-134190476D01*
X161071428Y-134095238D01*
X161071428Y-133904761D01*
X161023809Y-133809523D01*
X160976190Y-133761904D01*
X160880952Y-133714285D01*
X161857142Y-137642857D02*
X161904761Y-137690476D01*
X161952380Y-137833333D01*
X161952380Y-137928571D01*
X161904761Y-138071428D01*
X161809523Y-138166666D01*
X161714285Y-138214285D01*
X161523809Y-138261904D01*
X161380952Y-138261904D01*
X161190476Y-138214285D01*
X161095238Y-138166666D01*
X161000000Y-138071428D01*
X160952380Y-137928571D01*
X160952380Y-137833333D01*
X161000000Y-137690476D01*
X161047619Y-137642857D01*
X161952380Y-136690476D02*
X161952380Y-137261904D01*
X161952380Y-136976190D02*
X160952380Y-136976190D01*
X161095238Y-137071428D01*
X161190476Y-137166666D01*
X161238095Y-137261904D01*
X161952380Y-135738095D02*
X161952380Y-136309523D01*
X161952380Y-136023809D02*
X160952380Y-136023809D01*
X161095238Y-136119047D01*
X161190476Y-136214285D01*
X161238095Y-136309523D01*
X161357142Y-62666666D02*
X161404761Y-62714285D01*
X161452380Y-62857142D01*
X161452380Y-62952380D01*
X161404761Y-63095238D01*
X161309523Y-63190476D01*
X161214285Y-63238095D01*
X161023809Y-63285714D01*
X160880952Y-63285714D01*
X160690476Y-63238095D01*
X160595238Y-63190476D01*
X160500000Y-63095238D01*
X160452380Y-62952380D01*
X160452380Y-62857142D01*
X160500000Y-62714285D01*
X160547619Y-62666666D01*
X161452380Y-61714285D02*
X161452380Y-62285714D01*
X161452380Y-62000000D02*
X160452380Y-62000000D01*
X160595238Y-62095238D01*
X160690476Y-62190476D01*
X160738095Y-62285714D01*
X140357142Y-62666666D02*
X140404761Y-62714285D01*
X140452380Y-62857142D01*
X140452380Y-62952380D01*
X140404761Y-63095238D01*
X140309523Y-63190476D01*
X140214285Y-63238095D01*
X140023809Y-63285714D01*
X139880952Y-63285714D01*
X139690476Y-63238095D01*
X139595238Y-63190476D01*
X139500000Y-63095238D01*
X139452380Y-62952380D01*
X139452380Y-62857142D01*
X139500000Y-62714285D01*
X139547619Y-62666666D01*
X140452380Y-61714285D02*
X140452380Y-62285714D01*
X140452380Y-62000000D02*
X139452380Y-62000000D01*
X139595238Y-62095238D01*
X139690476Y-62190476D01*
X139738095Y-62285714D01*
X140857142Y-137642857D02*
X140904761Y-137690476D01*
X140952380Y-137833333D01*
X140952380Y-137928571D01*
X140904761Y-138071428D01*
X140809523Y-138166666D01*
X140714285Y-138214285D01*
X140523809Y-138261904D01*
X140380952Y-138261904D01*
X140190476Y-138214285D01*
X140095238Y-138166666D01*
X140000000Y-138071428D01*
X139952380Y-137928571D01*
X139952380Y-137833333D01*
X140000000Y-137690476D01*
X140047619Y-137642857D01*
X140952380Y-136690476D02*
X140952380Y-137261904D01*
X140952380Y-136976190D02*
X139952380Y-136976190D01*
X140095238Y-137071428D01*
X140190476Y-137166666D01*
X140238095Y-137261904D01*
X140952380Y-135738095D02*
X140952380Y-136309523D01*
X140952380Y-136023809D02*
X139952380Y-136023809D01*
X140095238Y-136119047D01*
X140190476Y-136214285D01*
X140238095Y-136309523D01*
X140357142Y-71666666D02*
X140404761Y-71714285D01*
X140452380Y-71857142D01*
X140452380Y-71952380D01*
X140404761Y-72095238D01*
X140309523Y-72190476D01*
X140214285Y-72238095D01*
X140023809Y-72285714D01*
X139880952Y-72285714D01*
X139690476Y-72238095D01*
X139595238Y-72190476D01*
X139500000Y-72095238D01*
X139452380Y-71952380D01*
X139452380Y-71857142D01*
X139500000Y-71714285D01*
X139547619Y-71666666D01*
X139547619Y-71285714D02*
X139500000Y-71238095D01*
X139452380Y-71142857D01*
X139452380Y-70904761D01*
X139500000Y-70809523D01*
X139547619Y-70761904D01*
X139642857Y-70714285D01*
X139738095Y-70714285D01*
X139880952Y-70761904D01*
X140452380Y-71333333D01*
X140452380Y-70714285D01*
X140857142Y-129642857D02*
X140904761Y-129690476D01*
X140952380Y-129833333D01*
X140952380Y-129928571D01*
X140904761Y-130071428D01*
X140809523Y-130166666D01*
X140714285Y-130214285D01*
X140523809Y-130261904D01*
X140380952Y-130261904D01*
X140190476Y-130214285D01*
X140095238Y-130166666D01*
X140000000Y-130071428D01*
X139952380Y-129928571D01*
X139952380Y-129833333D01*
X140000000Y-129690476D01*
X140047619Y-129642857D01*
X140952380Y-128690476D02*
X140952380Y-129261904D01*
X140952380Y-128976190D02*
X139952380Y-128976190D01*
X140095238Y-129071428D01*
X140190476Y-129166666D01*
X140238095Y-129261904D01*
X140047619Y-128309523D02*
X140000000Y-128261904D01*
X139952380Y-128166666D01*
X139952380Y-127928571D01*
X140000000Y-127833333D01*
X140047619Y-127785714D01*
X140142857Y-127738095D01*
X140238095Y-127738095D01*
X140380952Y-127785714D01*
X140952380Y-128357142D01*
X140952380Y-127738095D01*
X140357142Y-80666666D02*
X140404761Y-80714285D01*
X140452380Y-80857142D01*
X140452380Y-80952380D01*
X140404761Y-81095238D01*
X140309523Y-81190476D01*
X140214285Y-81238095D01*
X140023809Y-81285714D01*
X139880952Y-81285714D01*
X139690476Y-81238095D01*
X139595238Y-81190476D01*
X139500000Y-81095238D01*
X139452380Y-80952380D01*
X139452380Y-80857142D01*
X139500000Y-80714285D01*
X139547619Y-80666666D01*
X139452380Y-80333333D02*
X139452380Y-79714285D01*
X139833333Y-80047619D01*
X139833333Y-79904761D01*
X139880952Y-79809523D01*
X139928571Y-79761904D01*
X140023809Y-79714285D01*
X140261904Y-79714285D01*
X140357142Y-79761904D01*
X140404761Y-79809523D01*
X140452380Y-79904761D01*
X140452380Y-80190476D01*
X140404761Y-80285714D01*
X140357142Y-80333333D01*
X140857142Y-121142857D02*
X140904761Y-121190476D01*
X140952380Y-121333333D01*
X140952380Y-121428571D01*
X140904761Y-121571428D01*
X140809523Y-121666666D01*
X140714285Y-121714285D01*
X140523809Y-121761904D01*
X140380952Y-121761904D01*
X140190476Y-121714285D01*
X140095238Y-121666666D01*
X140000000Y-121571428D01*
X139952380Y-121428571D01*
X139952380Y-121333333D01*
X140000000Y-121190476D01*
X140047619Y-121142857D01*
X140952380Y-120190476D02*
X140952380Y-120761904D01*
X140952380Y-120476190D02*
X139952380Y-120476190D01*
X140095238Y-120571428D01*
X140190476Y-120666666D01*
X140238095Y-120761904D01*
X139952380Y-119857142D02*
X139952380Y-119238095D01*
X140333333Y-119571428D01*
X140333333Y-119428571D01*
X140380952Y-119333333D01*
X140428571Y-119285714D01*
X140523809Y-119238095D01*
X140761904Y-119238095D01*
X140857142Y-119285714D01*
X140904761Y-119333333D01*
X140952380Y-119428571D01*
X140952380Y-119714285D01*
X140904761Y-119809523D01*
X140857142Y-119857142D01*
X140357142Y-89666666D02*
X140404761Y-89714285D01*
X140452380Y-89857142D01*
X140452380Y-89952380D01*
X140404761Y-90095238D01*
X140309523Y-90190476D01*
X140214285Y-90238095D01*
X140023809Y-90285714D01*
X139880952Y-90285714D01*
X139690476Y-90238095D01*
X139595238Y-90190476D01*
X139500000Y-90095238D01*
X139452380Y-89952380D01*
X139452380Y-89857142D01*
X139500000Y-89714285D01*
X139547619Y-89666666D01*
X139785714Y-88809523D02*
X140452380Y-88809523D01*
X139404761Y-89047619D02*
X140119047Y-89285714D01*
X140119047Y-88666666D01*
X140857142Y-111142857D02*
X140904761Y-111190476D01*
X140952380Y-111333333D01*
X140952380Y-111428571D01*
X140904761Y-111571428D01*
X140809523Y-111666666D01*
X140714285Y-111714285D01*
X140523809Y-111761904D01*
X140380952Y-111761904D01*
X140190476Y-111714285D01*
X140095238Y-111666666D01*
X140000000Y-111571428D01*
X139952380Y-111428571D01*
X139952380Y-111333333D01*
X140000000Y-111190476D01*
X140047619Y-111142857D01*
X140952380Y-110190476D02*
X140952380Y-110761904D01*
X140952380Y-110476190D02*
X139952380Y-110476190D01*
X140095238Y-110571428D01*
X140190476Y-110666666D01*
X140238095Y-110761904D01*
X140285714Y-109333333D02*
X140952380Y-109333333D01*
X139904761Y-109571428D02*
X140619047Y-109809523D01*
X140619047Y-109190476D01*
X140357142Y-98666666D02*
X140404761Y-98714285D01*
X140452380Y-98857142D01*
X140452380Y-98952380D01*
X140404761Y-99095238D01*
X140309523Y-99190476D01*
X140214285Y-99238095D01*
X140023809Y-99285714D01*
X139880952Y-99285714D01*
X139690476Y-99238095D01*
X139595238Y-99190476D01*
X139500000Y-99095238D01*
X139452380Y-98952380D01*
X139452380Y-98857142D01*
X139500000Y-98714285D01*
X139547619Y-98666666D01*
X139452380Y-97761904D02*
X139452380Y-98238095D01*
X139928571Y-98285714D01*
X139880952Y-98238095D01*
X139833333Y-98142857D01*
X139833333Y-97904761D01*
X139880952Y-97809523D01*
X139928571Y-97761904D01*
X140023809Y-97714285D01*
X140261904Y-97714285D01*
X140357142Y-97761904D01*
X140404761Y-97809523D01*
X140452380Y-97904761D01*
X140452380Y-98142857D01*
X140404761Y-98238095D01*
X140357142Y-98285714D01*
X140857142Y-102142857D02*
X140904761Y-102190476D01*
X140952380Y-102333333D01*
X140952380Y-102428571D01*
X140904761Y-102571428D01*
X140809523Y-102666666D01*
X140714285Y-102714285D01*
X140523809Y-102761904D01*
X140380952Y-102761904D01*
X140190476Y-102714285D01*
X140095238Y-102666666D01*
X140000000Y-102571428D01*
X139952380Y-102428571D01*
X139952380Y-102333333D01*
X140000000Y-102190476D01*
X140047619Y-102142857D01*
X140952380Y-101190476D02*
X140952380Y-101761904D01*
X140952380Y-101476190D02*
X139952380Y-101476190D01*
X140095238Y-101571428D01*
X140190476Y-101666666D01*
X140238095Y-101761904D01*
X139952380Y-100285714D02*
X139952380Y-100761904D01*
X140428571Y-100809523D01*
X140380952Y-100761904D01*
X140333333Y-100666666D01*
X140333333Y-100428571D01*
X140380952Y-100333333D01*
X140428571Y-100285714D01*
X140523809Y-100238095D01*
X140761904Y-100238095D01*
X140857142Y-100285714D01*
X140904761Y-100333333D01*
X140952380Y-100428571D01*
X140952380Y-100666666D01*
X140904761Y-100761904D01*
X140857142Y-100809523D01*
X140357142Y-107666666D02*
X140404761Y-107714285D01*
X140452380Y-107857142D01*
X140452380Y-107952380D01*
X140404761Y-108095238D01*
X140309523Y-108190476D01*
X140214285Y-108238095D01*
X140023809Y-108285714D01*
X139880952Y-108285714D01*
X139690476Y-108238095D01*
X139595238Y-108190476D01*
X139500000Y-108095238D01*
X139452380Y-107952380D01*
X139452380Y-107857142D01*
X139500000Y-107714285D01*
X139547619Y-107666666D01*
X139452380Y-106809523D02*
X139452380Y-107000000D01*
X139500000Y-107095238D01*
X139547619Y-107142857D01*
X139690476Y-107238095D01*
X139880952Y-107285714D01*
X140261904Y-107285714D01*
X140357142Y-107238095D01*
X140404761Y-107190476D01*
X140452380Y-107095238D01*
X140452380Y-106904761D01*
X140404761Y-106809523D01*
X140357142Y-106761904D01*
X140261904Y-106714285D01*
X140023809Y-106714285D01*
X139928571Y-106761904D01*
X139880952Y-106809523D01*
X139833333Y-106904761D01*
X139833333Y-107095238D01*
X139880952Y-107190476D01*
X139928571Y-107238095D01*
X140023809Y-107285714D01*
X140857142Y-93142857D02*
X140904761Y-93190476D01*
X140952380Y-93333333D01*
X140952380Y-93428571D01*
X140904761Y-93571428D01*
X140809523Y-93666666D01*
X140714285Y-93714285D01*
X140523809Y-93761904D01*
X140380952Y-93761904D01*
X140190476Y-93714285D01*
X140095238Y-93666666D01*
X140000000Y-93571428D01*
X139952380Y-93428571D01*
X139952380Y-93333333D01*
X140000000Y-93190476D01*
X140047619Y-93142857D01*
X140952380Y-92190476D02*
X140952380Y-92761904D01*
X140952380Y-92476190D02*
X139952380Y-92476190D01*
X140095238Y-92571428D01*
X140190476Y-92666666D01*
X140238095Y-92761904D01*
X139952380Y-91333333D02*
X139952380Y-91523809D01*
X140000000Y-91619047D01*
X140047619Y-91666666D01*
X140190476Y-91761904D01*
X140380952Y-91809523D01*
X140761904Y-91809523D01*
X140857142Y-91761904D01*
X140904761Y-91714285D01*
X140952380Y-91619047D01*
X140952380Y-91428571D01*
X140904761Y-91333333D01*
X140857142Y-91285714D01*
X140761904Y-91238095D01*
X140523809Y-91238095D01*
X140428571Y-91285714D01*
X140380952Y-91333333D01*
X140333333Y-91428571D01*
X140333333Y-91619047D01*
X140380952Y-91714285D01*
X140428571Y-91761904D01*
X140523809Y-91809523D01*
X140357142Y-116666666D02*
X140404761Y-116714285D01*
X140452380Y-116857142D01*
X140452380Y-116952380D01*
X140404761Y-117095238D01*
X140309523Y-117190476D01*
X140214285Y-117238095D01*
X140023809Y-117285714D01*
X139880952Y-117285714D01*
X139690476Y-117238095D01*
X139595238Y-117190476D01*
X139500000Y-117095238D01*
X139452380Y-116952380D01*
X139452380Y-116857142D01*
X139500000Y-116714285D01*
X139547619Y-116666666D01*
X139452380Y-116333333D02*
X139452380Y-115666666D01*
X140452380Y-116095238D01*
X140857142Y-84142857D02*
X140904761Y-84190476D01*
X140952380Y-84333333D01*
X140952380Y-84428571D01*
X140904761Y-84571428D01*
X140809523Y-84666666D01*
X140714285Y-84714285D01*
X140523809Y-84761904D01*
X140380952Y-84761904D01*
X140190476Y-84714285D01*
X140095238Y-84666666D01*
X140000000Y-84571428D01*
X139952380Y-84428571D01*
X139952380Y-84333333D01*
X140000000Y-84190476D01*
X140047619Y-84142857D01*
X140952380Y-83190476D02*
X140952380Y-83761904D01*
X140952380Y-83476190D02*
X139952380Y-83476190D01*
X140095238Y-83571428D01*
X140190476Y-83666666D01*
X140238095Y-83761904D01*
X139952380Y-82857142D02*
X139952380Y-82190476D01*
X140952380Y-82619047D01*
X140357142Y-125666666D02*
X140404761Y-125714285D01*
X140452380Y-125857142D01*
X140452380Y-125952380D01*
X140404761Y-126095238D01*
X140309523Y-126190476D01*
X140214285Y-126238095D01*
X140023809Y-126285714D01*
X139880952Y-126285714D01*
X139690476Y-126238095D01*
X139595238Y-126190476D01*
X139500000Y-126095238D01*
X139452380Y-125952380D01*
X139452380Y-125857142D01*
X139500000Y-125714285D01*
X139547619Y-125666666D01*
X139880952Y-125095238D02*
X139833333Y-125190476D01*
X139785714Y-125238095D01*
X139690476Y-125285714D01*
X139642857Y-125285714D01*
X139547619Y-125238095D01*
X139500000Y-125190476D01*
X139452380Y-125095238D01*
X139452380Y-124904761D01*
X139500000Y-124809523D01*
X139547619Y-124761904D01*
X139642857Y-124714285D01*
X139690476Y-124714285D01*
X139785714Y-124761904D01*
X139833333Y-124809523D01*
X139880952Y-124904761D01*
X139880952Y-125095238D01*
X139928571Y-125190476D01*
X139976190Y-125238095D01*
X140071428Y-125285714D01*
X140261904Y-125285714D01*
X140357142Y-125238095D01*
X140404761Y-125190476D01*
X140452380Y-125095238D01*
X140452380Y-124904761D01*
X140404761Y-124809523D01*
X140357142Y-124761904D01*
X140261904Y-124714285D01*
X140071428Y-124714285D01*
X139976190Y-124761904D01*
X139928571Y-124809523D01*
X139880952Y-124904761D01*
X140857142Y-75142857D02*
X140904761Y-75190476D01*
X140952380Y-75333333D01*
X140952380Y-75428571D01*
X140904761Y-75571428D01*
X140809523Y-75666666D01*
X140714285Y-75714285D01*
X140523809Y-75761904D01*
X140380952Y-75761904D01*
X140190476Y-75714285D01*
X140095238Y-75666666D01*
X140000000Y-75571428D01*
X139952380Y-75428571D01*
X139952380Y-75333333D01*
X140000000Y-75190476D01*
X140047619Y-75142857D01*
X140952380Y-74190476D02*
X140952380Y-74761904D01*
X140952380Y-74476190D02*
X139952380Y-74476190D01*
X140095238Y-74571428D01*
X140190476Y-74666666D01*
X140238095Y-74761904D01*
X140380952Y-73619047D02*
X140333333Y-73714285D01*
X140285714Y-73761904D01*
X140190476Y-73809523D01*
X140142857Y-73809523D01*
X140047619Y-73761904D01*
X140000000Y-73714285D01*
X139952380Y-73619047D01*
X139952380Y-73428571D01*
X140000000Y-73333333D01*
X140047619Y-73285714D01*
X140142857Y-73238095D01*
X140190476Y-73238095D01*
X140285714Y-73285714D01*
X140333333Y-73333333D01*
X140380952Y-73428571D01*
X140380952Y-73619047D01*
X140428571Y-73714285D01*
X140476190Y-73761904D01*
X140571428Y-73809523D01*
X140761904Y-73809523D01*
X140857142Y-73761904D01*
X140904761Y-73714285D01*
X140952380Y-73619047D01*
X140952380Y-73428571D01*
X140904761Y-73333333D01*
X140857142Y-73285714D01*
X140761904Y-73238095D01*
X140571428Y-73238095D01*
X140476190Y-73285714D01*
X140428571Y-73333333D01*
X140380952Y-73428571D01*
X140357142Y-134666666D02*
X140404761Y-134714285D01*
X140452380Y-134857142D01*
X140452380Y-134952380D01*
X140404761Y-135095238D01*
X140309523Y-135190476D01*
X140214285Y-135238095D01*
X140023809Y-135285714D01*
X139880952Y-135285714D01*
X139690476Y-135238095D01*
X139595238Y-135190476D01*
X139500000Y-135095238D01*
X139452380Y-134952380D01*
X139452380Y-134857142D01*
X139500000Y-134714285D01*
X139547619Y-134666666D01*
X140452380Y-134190476D02*
X140452380Y-134000000D01*
X140404761Y-133904761D01*
X140357142Y-133857142D01*
X140214285Y-133761904D01*
X140023809Y-133714285D01*
X139642857Y-133714285D01*
X139547619Y-133761904D01*
X139500000Y-133809523D01*
X139452380Y-133904761D01*
X139452380Y-134095238D01*
X139500000Y-134190476D01*
X139547619Y-134238095D01*
X139642857Y-134285714D01*
X139880952Y-134285714D01*
X139976190Y-134238095D01*
X140023809Y-134190476D01*
X140071428Y-134095238D01*
X140071428Y-133904761D01*
X140023809Y-133809523D01*
X139976190Y-133761904D01*
X139880952Y-133714285D01*
X140857142Y-66142857D02*
X140904761Y-66190476D01*
X140952380Y-66333333D01*
X140952380Y-66428571D01*
X140904761Y-66571428D01*
X140809523Y-66666666D01*
X140714285Y-66714285D01*
X140523809Y-66761904D01*
X140380952Y-66761904D01*
X140190476Y-66714285D01*
X140095238Y-66666666D01*
X140000000Y-66571428D01*
X139952380Y-66428571D01*
X139952380Y-66333333D01*
X140000000Y-66190476D01*
X140047619Y-66142857D01*
X140952380Y-65190476D02*
X140952380Y-65761904D01*
X140952380Y-65476190D02*
X139952380Y-65476190D01*
X140095238Y-65571428D01*
X140190476Y-65666666D01*
X140238095Y-65761904D01*
X140952380Y-64714285D02*
X140952380Y-64523809D01*
X140904761Y-64428571D01*
X140857142Y-64380952D01*
X140714285Y-64285714D01*
X140523809Y-64238095D01*
X140142857Y-64238095D01*
X140047619Y-64285714D01*
X140000000Y-64333333D01*
X139952380Y-64428571D01*
X139952380Y-64619047D01*
X140000000Y-64714285D01*
X140047619Y-64761904D01*
X140142857Y-64809523D01*
X140380952Y-64809523D01*
X140476190Y-64761904D01*
X140523809Y-64714285D01*
X140571428Y-64619047D01*
X140571428Y-64428571D01*
X140523809Y-64333333D01*
X140476190Y-64285714D01*
X140380952Y-64238095D01*
X140357142Y-142142857D02*
X140404761Y-142190476D01*
X140452380Y-142333333D01*
X140452380Y-142428571D01*
X140404761Y-142571428D01*
X140309523Y-142666666D01*
X140214285Y-142714285D01*
X140023809Y-142761904D01*
X139880952Y-142761904D01*
X139690476Y-142714285D01*
X139595238Y-142666666D01*
X139500000Y-142571428D01*
X139452380Y-142428571D01*
X139452380Y-142333333D01*
X139500000Y-142190476D01*
X139547619Y-142142857D01*
X140452380Y-141190476D02*
X140452380Y-141761904D01*
X140452380Y-141476190D02*
X139452380Y-141476190D01*
X139595238Y-141571428D01*
X139690476Y-141666666D01*
X139738095Y-141761904D01*
X139452380Y-140571428D02*
X139452380Y-140476190D01*
X139500000Y-140380952D01*
X139547619Y-140333333D01*
X139642857Y-140285714D01*
X139833333Y-140238095D01*
X140071428Y-140238095D01*
X140261904Y-140285714D01*
X140357142Y-140333333D01*
X140404761Y-140380952D01*
X140452380Y-140476190D01*
X140452380Y-140571428D01*
X140404761Y-140666666D01*
X140357142Y-140714285D01*
X140261904Y-140761904D01*
X140071428Y-140809523D01*
X139833333Y-140809523D01*
X139642857Y-140761904D01*
X139547619Y-140714285D01*
X139500000Y-140666666D01*
X139452380Y-140571428D01*
X140857142Y-56642857D02*
X140904761Y-56690476D01*
X140952380Y-56833333D01*
X140952380Y-56928571D01*
X140904761Y-57071428D01*
X140809523Y-57166666D01*
X140714285Y-57214285D01*
X140523809Y-57261904D01*
X140380952Y-57261904D01*
X140190476Y-57214285D01*
X140095238Y-57166666D01*
X140000000Y-57071428D01*
X139952380Y-56928571D01*
X139952380Y-56833333D01*
X140000000Y-56690476D01*
X140047619Y-56642857D01*
X140047619Y-56261904D02*
X140000000Y-56214285D01*
X139952380Y-56119047D01*
X139952380Y-55880952D01*
X140000000Y-55785714D01*
X140047619Y-55738095D01*
X140142857Y-55690476D01*
X140238095Y-55690476D01*
X140380952Y-55738095D01*
X140952380Y-56309523D01*
X140952380Y-55690476D01*
X139952380Y-55071428D02*
X139952380Y-54976190D01*
X140000000Y-54880952D01*
X140047619Y-54833333D01*
X140142857Y-54785714D01*
X140333333Y-54738095D01*
X140571428Y-54738095D01*
X140761904Y-54785714D01*
X140857142Y-54833333D01*
X140904761Y-54880952D01*
X140952380Y-54976190D01*
X140952380Y-55071428D01*
X140904761Y-55166666D01*
X140857142Y-55214285D01*
X140761904Y-55261904D01*
X140571428Y-55309523D01*
X140333333Y-55309523D01*
X140142857Y-55261904D01*
X140047619Y-55214285D01*
X140000000Y-55166666D01*
X139952380Y-55071428D01*
X142702380Y-59738095D02*
X141702380Y-59738095D01*
X141702380Y-59500000D01*
X141750000Y-59357142D01*
X141845238Y-59261904D01*
X141940476Y-59214285D01*
X142130952Y-59166666D01*
X142273809Y-59166666D01*
X142464285Y-59214285D01*
X142559523Y-59261904D01*
X142654761Y-59357142D01*
X142702380Y-59500000D01*
X142702380Y-59738095D01*
X142702380Y-58214285D02*
X142702380Y-58785714D01*
X142702380Y-58500000D02*
X141702380Y-58500000D01*
X141845238Y-58595238D01*
X141940476Y-58690476D01*
X141988095Y-58785714D01*
X139027380Y-141214285D02*
X138027380Y-141214285D01*
X138027380Y-140976190D01*
X138075000Y-140833333D01*
X138170238Y-140738095D01*
X138265476Y-140690476D01*
X138455952Y-140642857D01*
X138598809Y-140642857D01*
X138789285Y-140690476D01*
X138884523Y-140738095D01*
X138979761Y-140833333D01*
X139027380Y-140976190D01*
X139027380Y-141214285D01*
X139027380Y-139690476D02*
X139027380Y-140261904D01*
X139027380Y-139976190D02*
X138027380Y-139976190D01*
X138170238Y-140071428D01*
X138265476Y-140166666D01*
X138313095Y-140261904D01*
X139027380Y-138738095D02*
X139027380Y-139309523D01*
X139027380Y-139023809D02*
X138027380Y-139023809D01*
X138170238Y-139119047D01*
X138265476Y-139214285D01*
X138313095Y-139309523D01*
X142702380Y-68738095D02*
X141702380Y-68738095D01*
X141702380Y-68500000D01*
X141750000Y-68357142D01*
X141845238Y-68261904D01*
X141940476Y-68214285D01*
X142130952Y-68166666D01*
X142273809Y-68166666D01*
X142464285Y-68214285D01*
X142559523Y-68261904D01*
X142654761Y-68357142D01*
X142702380Y-68500000D01*
X142702380Y-68738095D01*
X141797619Y-67785714D02*
X141750000Y-67738095D01*
X141702380Y-67642857D01*
X141702380Y-67404761D01*
X141750000Y-67309523D01*
X141797619Y-67261904D01*
X141892857Y-67214285D01*
X141988095Y-67214285D01*
X142130952Y-67261904D01*
X142702380Y-67833333D01*
X142702380Y-67214285D01*
X139027380Y-132214285D02*
X138027380Y-132214285D01*
X138027380Y-131976190D01*
X138075000Y-131833333D01*
X138170238Y-131738095D01*
X138265476Y-131690476D01*
X138455952Y-131642857D01*
X138598809Y-131642857D01*
X138789285Y-131690476D01*
X138884523Y-131738095D01*
X138979761Y-131833333D01*
X139027380Y-131976190D01*
X139027380Y-132214285D01*
X139027380Y-130690476D02*
X139027380Y-131261904D01*
X139027380Y-130976190D02*
X138027380Y-130976190D01*
X138170238Y-131071428D01*
X138265476Y-131166666D01*
X138313095Y-131261904D01*
X138122619Y-130309523D02*
X138075000Y-130261904D01*
X138027380Y-130166666D01*
X138027380Y-129928571D01*
X138075000Y-129833333D01*
X138122619Y-129785714D01*
X138217857Y-129738095D01*
X138313095Y-129738095D01*
X138455952Y-129785714D01*
X139027380Y-130357142D01*
X139027380Y-129738095D01*
X142702380Y-77738095D02*
X141702380Y-77738095D01*
X141702380Y-77500000D01*
X141750000Y-77357142D01*
X141845238Y-77261904D01*
X141940476Y-77214285D01*
X142130952Y-77166666D01*
X142273809Y-77166666D01*
X142464285Y-77214285D01*
X142559523Y-77261904D01*
X142654761Y-77357142D01*
X142702380Y-77500000D01*
X142702380Y-77738095D01*
X141702380Y-76833333D02*
X141702380Y-76214285D01*
X142083333Y-76547619D01*
X142083333Y-76404761D01*
X142130952Y-76309523D01*
X142178571Y-76261904D01*
X142273809Y-76214285D01*
X142511904Y-76214285D01*
X142607142Y-76261904D01*
X142654761Y-76309523D01*
X142702380Y-76404761D01*
X142702380Y-76690476D01*
X142654761Y-76785714D01*
X142607142Y-76833333D01*
X139027380Y-123214285D02*
X138027380Y-123214285D01*
X138027380Y-122976190D01*
X138075000Y-122833333D01*
X138170238Y-122738095D01*
X138265476Y-122690476D01*
X138455952Y-122642857D01*
X138598809Y-122642857D01*
X138789285Y-122690476D01*
X138884523Y-122738095D01*
X138979761Y-122833333D01*
X139027380Y-122976190D01*
X139027380Y-123214285D01*
X139027380Y-121690476D02*
X139027380Y-122261904D01*
X139027380Y-121976190D02*
X138027380Y-121976190D01*
X138170238Y-122071428D01*
X138265476Y-122166666D01*
X138313095Y-122261904D01*
X138027380Y-121357142D02*
X138027380Y-120738095D01*
X138408333Y-121071428D01*
X138408333Y-120928571D01*
X138455952Y-120833333D01*
X138503571Y-120785714D01*
X138598809Y-120738095D01*
X138836904Y-120738095D01*
X138932142Y-120785714D01*
X138979761Y-120833333D01*
X139027380Y-120928571D01*
X139027380Y-121214285D01*
X138979761Y-121309523D01*
X138932142Y-121357142D01*
X142702380Y-86738095D02*
X141702380Y-86738095D01*
X141702380Y-86500000D01*
X141750000Y-86357142D01*
X141845238Y-86261904D01*
X141940476Y-86214285D01*
X142130952Y-86166666D01*
X142273809Y-86166666D01*
X142464285Y-86214285D01*
X142559523Y-86261904D01*
X142654761Y-86357142D01*
X142702380Y-86500000D01*
X142702380Y-86738095D01*
X142035714Y-85309523D02*
X142702380Y-85309523D01*
X141654761Y-85547619D02*
X142369047Y-85785714D01*
X142369047Y-85166666D01*
X139027380Y-114214285D02*
X138027380Y-114214285D01*
X138027380Y-113976190D01*
X138075000Y-113833333D01*
X138170238Y-113738095D01*
X138265476Y-113690476D01*
X138455952Y-113642857D01*
X138598809Y-113642857D01*
X138789285Y-113690476D01*
X138884523Y-113738095D01*
X138979761Y-113833333D01*
X139027380Y-113976190D01*
X139027380Y-114214285D01*
X139027380Y-112690476D02*
X139027380Y-113261904D01*
X139027380Y-112976190D02*
X138027380Y-112976190D01*
X138170238Y-113071428D01*
X138265476Y-113166666D01*
X138313095Y-113261904D01*
X138360714Y-111833333D02*
X139027380Y-111833333D01*
X137979761Y-112071428D02*
X138694047Y-112309523D01*
X138694047Y-111690476D01*
X142702380Y-95738095D02*
X141702380Y-95738095D01*
X141702380Y-95500000D01*
X141750000Y-95357142D01*
X141845238Y-95261904D01*
X141940476Y-95214285D01*
X142130952Y-95166666D01*
X142273809Y-95166666D01*
X142464285Y-95214285D01*
X142559523Y-95261904D01*
X142654761Y-95357142D01*
X142702380Y-95500000D01*
X142702380Y-95738095D01*
X141702380Y-94261904D02*
X141702380Y-94738095D01*
X142178571Y-94785714D01*
X142130952Y-94738095D01*
X142083333Y-94642857D01*
X142083333Y-94404761D01*
X142130952Y-94309523D01*
X142178571Y-94261904D01*
X142273809Y-94214285D01*
X142511904Y-94214285D01*
X142607142Y-94261904D01*
X142654761Y-94309523D01*
X142702380Y-94404761D01*
X142702380Y-94642857D01*
X142654761Y-94738095D01*
X142607142Y-94785714D01*
X139027380Y-105214285D02*
X138027380Y-105214285D01*
X138027380Y-104976190D01*
X138075000Y-104833333D01*
X138170238Y-104738095D01*
X138265476Y-104690476D01*
X138455952Y-104642857D01*
X138598809Y-104642857D01*
X138789285Y-104690476D01*
X138884523Y-104738095D01*
X138979761Y-104833333D01*
X139027380Y-104976190D01*
X139027380Y-105214285D01*
X139027380Y-103690476D02*
X139027380Y-104261904D01*
X139027380Y-103976190D02*
X138027380Y-103976190D01*
X138170238Y-104071428D01*
X138265476Y-104166666D01*
X138313095Y-104261904D01*
X138027380Y-102785714D02*
X138027380Y-103261904D01*
X138503571Y-103309523D01*
X138455952Y-103261904D01*
X138408333Y-103166666D01*
X138408333Y-102928571D01*
X138455952Y-102833333D01*
X138503571Y-102785714D01*
X138598809Y-102738095D01*
X138836904Y-102738095D01*
X138932142Y-102785714D01*
X138979761Y-102833333D01*
X139027380Y-102928571D01*
X139027380Y-103166666D01*
X138979761Y-103261904D01*
X138932142Y-103309523D01*
X142702380Y-104738095D02*
X141702380Y-104738095D01*
X141702380Y-104500000D01*
X141750000Y-104357142D01*
X141845238Y-104261904D01*
X141940476Y-104214285D01*
X142130952Y-104166666D01*
X142273809Y-104166666D01*
X142464285Y-104214285D01*
X142559523Y-104261904D01*
X142654761Y-104357142D01*
X142702380Y-104500000D01*
X142702380Y-104738095D01*
X141702380Y-103309523D02*
X141702380Y-103500000D01*
X141750000Y-103595238D01*
X141797619Y-103642857D01*
X141940476Y-103738095D01*
X142130952Y-103785714D01*
X142511904Y-103785714D01*
X142607142Y-103738095D01*
X142654761Y-103690476D01*
X142702380Y-103595238D01*
X142702380Y-103404761D01*
X142654761Y-103309523D01*
X142607142Y-103261904D01*
X142511904Y-103214285D01*
X142273809Y-103214285D01*
X142178571Y-103261904D01*
X142130952Y-103309523D01*
X142083333Y-103404761D01*
X142083333Y-103595238D01*
X142130952Y-103690476D01*
X142178571Y-103738095D01*
X142273809Y-103785714D01*
X139027380Y-96214285D02*
X138027380Y-96214285D01*
X138027380Y-95976190D01*
X138075000Y-95833333D01*
X138170238Y-95738095D01*
X138265476Y-95690476D01*
X138455952Y-95642857D01*
X138598809Y-95642857D01*
X138789285Y-95690476D01*
X138884523Y-95738095D01*
X138979761Y-95833333D01*
X139027380Y-95976190D01*
X139027380Y-96214285D01*
X139027380Y-94690476D02*
X139027380Y-95261904D01*
X139027380Y-94976190D02*
X138027380Y-94976190D01*
X138170238Y-95071428D01*
X138265476Y-95166666D01*
X138313095Y-95261904D01*
X138027380Y-93833333D02*
X138027380Y-94023809D01*
X138075000Y-94119047D01*
X138122619Y-94166666D01*
X138265476Y-94261904D01*
X138455952Y-94309523D01*
X138836904Y-94309523D01*
X138932142Y-94261904D01*
X138979761Y-94214285D01*
X139027380Y-94119047D01*
X139027380Y-93928571D01*
X138979761Y-93833333D01*
X138932142Y-93785714D01*
X138836904Y-93738095D01*
X138598809Y-93738095D01*
X138503571Y-93785714D01*
X138455952Y-93833333D01*
X138408333Y-93928571D01*
X138408333Y-94119047D01*
X138455952Y-94214285D01*
X138503571Y-94261904D01*
X138598809Y-94309523D01*
X142702380Y-113738095D02*
X141702380Y-113738095D01*
X141702380Y-113500000D01*
X141750000Y-113357142D01*
X141845238Y-113261904D01*
X141940476Y-113214285D01*
X142130952Y-113166666D01*
X142273809Y-113166666D01*
X142464285Y-113214285D01*
X142559523Y-113261904D01*
X142654761Y-113357142D01*
X142702380Y-113500000D01*
X142702380Y-113738095D01*
X141702380Y-112833333D02*
X141702380Y-112166666D01*
X142702380Y-112595238D01*
X139027380Y-87214285D02*
X138027380Y-87214285D01*
X138027380Y-86976190D01*
X138075000Y-86833333D01*
X138170238Y-86738095D01*
X138265476Y-86690476D01*
X138455952Y-86642857D01*
X138598809Y-86642857D01*
X138789285Y-86690476D01*
X138884523Y-86738095D01*
X138979761Y-86833333D01*
X139027380Y-86976190D01*
X139027380Y-87214285D01*
X139027380Y-85690476D02*
X139027380Y-86261904D01*
X139027380Y-85976190D02*
X138027380Y-85976190D01*
X138170238Y-86071428D01*
X138265476Y-86166666D01*
X138313095Y-86261904D01*
X138027380Y-85357142D02*
X138027380Y-84690476D01*
X139027380Y-85119047D01*
X142702380Y-122738095D02*
X141702380Y-122738095D01*
X141702380Y-122500000D01*
X141750000Y-122357142D01*
X141845238Y-122261904D01*
X141940476Y-122214285D01*
X142130952Y-122166666D01*
X142273809Y-122166666D01*
X142464285Y-122214285D01*
X142559523Y-122261904D01*
X142654761Y-122357142D01*
X142702380Y-122500000D01*
X142702380Y-122738095D01*
X142130952Y-121595238D02*
X142083333Y-121690476D01*
X142035714Y-121738095D01*
X141940476Y-121785714D01*
X141892857Y-121785714D01*
X141797619Y-121738095D01*
X141750000Y-121690476D01*
X141702380Y-121595238D01*
X141702380Y-121404761D01*
X141750000Y-121309523D01*
X141797619Y-121261904D01*
X141892857Y-121214285D01*
X141940476Y-121214285D01*
X142035714Y-121261904D01*
X142083333Y-121309523D01*
X142130952Y-121404761D01*
X142130952Y-121595238D01*
X142178571Y-121690476D01*
X142226190Y-121738095D01*
X142321428Y-121785714D01*
X142511904Y-121785714D01*
X142607142Y-121738095D01*
X142654761Y-121690476D01*
X142702380Y-121595238D01*
X142702380Y-121404761D01*
X142654761Y-121309523D01*
X142607142Y-121261904D01*
X142511904Y-121214285D01*
X142321428Y-121214285D01*
X142226190Y-121261904D01*
X142178571Y-121309523D01*
X142130952Y-121404761D01*
X139027380Y-78214285D02*
X138027380Y-78214285D01*
X138027380Y-77976190D01*
X138075000Y-77833333D01*
X138170238Y-77738095D01*
X138265476Y-77690476D01*
X138455952Y-77642857D01*
X138598809Y-77642857D01*
X138789285Y-77690476D01*
X138884523Y-77738095D01*
X138979761Y-77833333D01*
X139027380Y-77976190D01*
X139027380Y-78214285D01*
X139027380Y-76690476D02*
X139027380Y-77261904D01*
X139027380Y-76976190D02*
X138027380Y-76976190D01*
X138170238Y-77071428D01*
X138265476Y-77166666D01*
X138313095Y-77261904D01*
X138455952Y-76119047D02*
X138408333Y-76214285D01*
X138360714Y-76261904D01*
X138265476Y-76309523D01*
X138217857Y-76309523D01*
X138122619Y-76261904D01*
X138075000Y-76214285D01*
X138027380Y-76119047D01*
X138027380Y-75928571D01*
X138075000Y-75833333D01*
X138122619Y-75785714D01*
X138217857Y-75738095D01*
X138265476Y-75738095D01*
X138360714Y-75785714D01*
X138408333Y-75833333D01*
X138455952Y-75928571D01*
X138455952Y-76119047D01*
X138503571Y-76214285D01*
X138551190Y-76261904D01*
X138646428Y-76309523D01*
X138836904Y-76309523D01*
X138932142Y-76261904D01*
X138979761Y-76214285D01*
X139027380Y-76119047D01*
X139027380Y-75928571D01*
X138979761Y-75833333D01*
X138932142Y-75785714D01*
X138836904Y-75738095D01*
X138646428Y-75738095D01*
X138551190Y-75785714D01*
X138503571Y-75833333D01*
X138455952Y-75928571D01*
X142702380Y-131738095D02*
X141702380Y-131738095D01*
X141702380Y-131500000D01*
X141750000Y-131357142D01*
X141845238Y-131261904D01*
X141940476Y-131214285D01*
X142130952Y-131166666D01*
X142273809Y-131166666D01*
X142464285Y-131214285D01*
X142559523Y-131261904D01*
X142654761Y-131357142D01*
X142702380Y-131500000D01*
X142702380Y-131738095D01*
X142702380Y-130690476D02*
X142702380Y-130500000D01*
X142654761Y-130404761D01*
X142607142Y-130357142D01*
X142464285Y-130261904D01*
X142273809Y-130214285D01*
X141892857Y-130214285D01*
X141797619Y-130261904D01*
X141750000Y-130309523D01*
X141702380Y-130404761D01*
X141702380Y-130595238D01*
X141750000Y-130690476D01*
X141797619Y-130738095D01*
X141892857Y-130785714D01*
X142130952Y-130785714D01*
X142226190Y-130738095D01*
X142273809Y-130690476D01*
X142321428Y-130595238D01*
X142321428Y-130404761D01*
X142273809Y-130309523D01*
X142226190Y-130261904D01*
X142130952Y-130214285D01*
X139027380Y-69214285D02*
X138027380Y-69214285D01*
X138027380Y-68976190D01*
X138075000Y-68833333D01*
X138170238Y-68738095D01*
X138265476Y-68690476D01*
X138455952Y-68642857D01*
X138598809Y-68642857D01*
X138789285Y-68690476D01*
X138884523Y-68738095D01*
X138979761Y-68833333D01*
X139027380Y-68976190D01*
X139027380Y-69214285D01*
X139027380Y-67690476D02*
X139027380Y-68261904D01*
X139027380Y-67976190D02*
X138027380Y-67976190D01*
X138170238Y-68071428D01*
X138265476Y-68166666D01*
X138313095Y-68261904D01*
X139027380Y-67214285D02*
X139027380Y-67023809D01*
X138979761Y-66928571D01*
X138932142Y-66880952D01*
X138789285Y-66785714D01*
X138598809Y-66738095D01*
X138217857Y-66738095D01*
X138122619Y-66785714D01*
X138075000Y-66833333D01*
X138027380Y-66928571D01*
X138027380Y-67119047D01*
X138075000Y-67214285D01*
X138122619Y-67261904D01*
X138217857Y-67309523D01*
X138455952Y-67309523D01*
X138551190Y-67261904D01*
X138598809Y-67214285D01*
X138646428Y-67119047D01*
X138646428Y-66928571D01*
X138598809Y-66833333D01*
X138551190Y-66785714D01*
X138455952Y-66738095D01*
X142702380Y-141214285D02*
X141702380Y-141214285D01*
X141702380Y-140976190D01*
X141750000Y-140833333D01*
X141845238Y-140738095D01*
X141940476Y-140690476D01*
X142130952Y-140642857D01*
X142273809Y-140642857D01*
X142464285Y-140690476D01*
X142559523Y-140738095D01*
X142654761Y-140833333D01*
X142702380Y-140976190D01*
X142702380Y-141214285D01*
X142702380Y-139690476D02*
X142702380Y-140261904D01*
X142702380Y-139976190D02*
X141702380Y-139976190D01*
X141845238Y-140071428D01*
X141940476Y-140166666D01*
X141988095Y-140261904D01*
X141702380Y-139071428D02*
X141702380Y-138976190D01*
X141750000Y-138880952D01*
X141797619Y-138833333D01*
X141892857Y-138785714D01*
X142083333Y-138738095D01*
X142321428Y-138738095D01*
X142511904Y-138785714D01*
X142607142Y-138833333D01*
X142654761Y-138880952D01*
X142702380Y-138976190D01*
X142702380Y-139071428D01*
X142654761Y-139166666D01*
X142607142Y-139214285D01*
X142511904Y-139261904D01*
X142321428Y-139309523D01*
X142083333Y-139309523D01*
X141892857Y-139261904D01*
X141797619Y-139214285D01*
X141750000Y-139166666D01*
X141702380Y-139071428D01*
X139052380Y-60214285D02*
X138052380Y-60214285D01*
X138052380Y-59976190D01*
X138100000Y-59833333D01*
X138195238Y-59738095D01*
X138290476Y-59690476D01*
X138480952Y-59642857D01*
X138623809Y-59642857D01*
X138814285Y-59690476D01*
X138909523Y-59738095D01*
X139004761Y-59833333D01*
X139052380Y-59976190D01*
X139052380Y-60214285D01*
X138147619Y-59261904D02*
X138100000Y-59214285D01*
X138052380Y-59119047D01*
X138052380Y-58880952D01*
X138100000Y-58785714D01*
X138147619Y-58738095D01*
X138242857Y-58690476D01*
X138338095Y-58690476D01*
X138480952Y-58738095D01*
X139052380Y-59309523D01*
X139052380Y-58690476D01*
X138052380Y-58071428D02*
X138052380Y-57976190D01*
X138100000Y-57880952D01*
X138147619Y-57833333D01*
X138242857Y-57785714D01*
X138433333Y-57738095D01*
X138671428Y-57738095D01*
X138861904Y-57785714D01*
X138957142Y-57833333D01*
X139004761Y-57880952D01*
X139052380Y-57976190D01*
X139052380Y-58071428D01*
X139004761Y-58166666D01*
X138957142Y-58214285D01*
X138861904Y-58261904D01*
X138671428Y-58309523D01*
X138433333Y-58309523D01*
X138242857Y-58261904D01*
X138147619Y-58214285D01*
X138100000Y-58166666D01*
X138052380Y-58071428D01*
X140166666Y-42892380D02*
X140166666Y-43606666D01*
X140119047Y-43749523D01*
X140023809Y-43844761D01*
X139880952Y-43892380D01*
X139785714Y-43892380D01*
X141166666Y-43892380D02*
X140595238Y-43892380D01*
X140880952Y-43892380D02*
X140880952Y-42892380D01*
X140785714Y-43035238D01*
X140690476Y-43130476D01*
X140595238Y-43178095D01*
M02*
