M48
; DRILL file {KiCad 5.1.0} date Thu 11 Apr 2019 11:39:52 PM CDT
; FORMAT={-:-/ absolute / inch / decimal}
; #@! TF.CreationDate,2019-04-11T23:39:52-05:00
; #@! TF.GenerationSoftware,Kicad,Pcbnew,5.1.0
; #@! TF.FileFunction,Plated,1,2,PTH
FMAT,2
INCH
T1C0.0157
T2C0.0512
T3C0.0787
%
G90
G05
T1
X5.2756Y-2.6575
X5.2756Y-3.0118
X5.2756Y-3.0118
X5.2756Y-3.3661
X5.2756Y-3.7205
X5.2756Y-4.0748
X5.2756Y-4.4291
X5.2756Y-4.7835
X5.2756Y-5.1378
X5.2756Y-5.4921
X5.2756Y-5.5512
X5.315Y-2.3031
X5.5512Y-2.126
X5.7087Y-5.5118
X5.748Y-2.5
X5.748Y-2.8543
X5.748Y-3.2283
X5.748Y-3.563
X5.748Y-3.9173
X5.748Y-4.626
X5.748Y-4.9803
X5.748Y-5.3346
X5.7677Y-2.3425
X5.7677Y-2.6969
X5.7677Y-3.0512
X5.7677Y-3.4055
X5.7677Y-3.7598
X5.7677Y-4.1142
X5.7677Y-4.2717
X5.7677Y-4.4685
X5.7677Y-4.8228
X5.7677Y-5.1772
X5.7677Y-5.5512
X5.8858Y-2.5
X5.8858Y-2.8543
X5.8858Y-3.2283
X5.8858Y-3.563
X5.8858Y-3.8976
X5.8858Y-4.2717
X5.8858Y-4.626
X5.8858Y-4.9803
X5.8858Y-5.3346
X6.1024Y-2.6575
X6.1024Y-3.0118
X6.1024Y-3.0118
X6.1024Y-3.3661
X6.1024Y-3.7205
X6.1024Y-4.0748
X6.1024Y-4.4291
X6.1024Y-4.7835
X6.1024Y-5.1378
X6.1024Y-5.4921
X6.1024Y-5.5512
X6.1417Y-2.3031
X6.378Y-2.126
X6.5354Y-5.5118
X6.5748Y-2.5
X6.5748Y-2.8543
X6.5748Y-3.2283
X6.5748Y-3.563
X6.5748Y-3.9173
X6.5748Y-4.626
X6.5748Y-4.9803
X6.5748Y-5.3346
X6.5945Y-2.3425
X6.5945Y-2.6969
X6.5945Y-3.0512
X6.5945Y-3.4055
X6.5945Y-3.7598
X6.5945Y-4.1142
X6.5945Y-4.2717
X6.5945Y-4.4685
X6.5945Y-4.8228
X6.5945Y-5.1772
X6.5945Y-5.5512
X6.7126Y-2.5
X6.7126Y-2.8543
X6.7126Y-3.2283
X6.7126Y-3.563
X6.7126Y-3.8976
X6.7126Y-4.2717
X6.7126Y-4.626
X6.7126Y-4.9803
X6.7126Y-5.3346
X6.9291Y-2.6575
X6.9291Y-3.0118
X6.9291Y-3.0118
X6.9291Y-3.3661
X6.9291Y-3.7205
X6.9291Y-4.0748
X6.9291Y-4.4291
X6.9291Y-4.7835
X6.9291Y-5.1378
X6.9291Y-5.4921
X6.9291Y-5.5512
X6.9685Y-2.3031
X7.2047Y-2.126
X7.3622Y-5.5118
X7.4016Y-2.5
X7.4016Y-2.8543
X7.4016Y-3.2283
X7.4016Y-3.563
X7.4016Y-3.9173
X7.4016Y-4.626
X7.4016Y-4.9803
X7.4016Y-5.3346
X7.4213Y-2.3425
X7.4213Y-2.6969
X7.4213Y-3.0512
X7.4213Y-3.4055
X7.4213Y-3.7598
X7.4213Y-4.1142
X7.4213Y-4.2717
X7.4213Y-4.4685
X7.4213Y-4.8228
X7.4213Y-5.1772
X7.4213Y-5.5512
X7.5394Y-2.5
X7.5394Y-2.8543
X7.5394Y-3.2283
X7.5394Y-3.563
X7.5394Y-3.8976
X7.5394Y-4.2717
X7.5394Y-4.626
X7.5394Y-4.9803
X7.5394Y-5.3346
X7.7559Y-2.6575
X7.7559Y-3.0118
X7.7559Y-3.0118
X7.7559Y-3.3661
X7.7559Y-3.7205
X7.7559Y-4.0748
X7.7559Y-4.4291
X7.7559Y-4.7835
X7.7559Y-5.1378
X7.7559Y-5.4921
X7.7559Y-5.5512
X7.7953Y-2.3031
X8.0315Y-2.126
X8.189Y-5.5118
X8.2283Y-2.5
X8.2283Y-2.8543
X8.2283Y-3.2283
X8.2283Y-3.563
X8.2283Y-3.9173
X8.2283Y-4.626
X8.2283Y-4.9803
X8.2283Y-5.3346
X8.248Y-2.3425
X8.248Y-2.6969
X8.248Y-3.0512
X8.248Y-3.4055
X8.248Y-3.7598
X8.248Y-4.1142
X8.248Y-4.2717
X8.248Y-4.4685
X8.248Y-4.8228
X8.248Y-5.1772
X8.248Y-5.5512
X8.3661Y-2.5
X8.3661Y-2.8543
X8.3661Y-3.2283
X8.3661Y-3.563
X8.3661Y-3.8976
X8.3661Y-4.2717
X8.3661Y-4.626
X8.3661Y-4.9803
X8.3661Y-5.3346
T2
X5.2362Y-1.9488
X5.4331Y-1.9488
X5.6299Y-1.9488
X5.8268Y-1.9488
X7.7165Y-1.9488
X7.9134Y-1.9488
X8.1102Y-1.9488
X8.3071Y-1.9488
X6.8898Y-1.9488
X7.0866Y-1.9488
X7.2835Y-1.9488
X7.4803Y-1.9488
X6.063Y-1.9488
X6.2598Y-1.9488
X6.4567Y-1.9488
X6.6535Y-1.9488
T3
X6.7126Y-2.126
X5.1772Y-2.126
X8.3661Y-5.5118
X7.5394Y-2.126
X5.8858Y-5.5118
X5.1772Y-5.5118
X6.7126Y-5.5118
X5.8858Y-2.126
X7.6575Y-2.126
X6.0039Y-5.5118
X6.8307Y-5.5118
X6.0039Y-2.126
X7.6575Y-5.5118
X8.3661Y-2.126
X7.5394Y-5.5118
X6.8307Y-2.126
T0
M30
