G04 #@! TF.GenerationSoftware,KiCad,Pcbnew,5.1.0*
G04 #@! TF.CreationDate,2019-04-11T23:39:49-05:00*
G04 #@! TF.ProjectId,Strips,53747269-7073-42e6-9b69-6361645f7063,rev?*
G04 #@! TF.SameCoordinates,Original*
G04 #@! TF.FileFunction,Paste,Top*
G04 #@! TF.FilePolarity,Positive*
%FSLAX46Y46*%
G04 Gerber Fmt 4.6, Leading zero omitted, Abs format (unit mm)*
G04 Created by KiCad (PCBNEW 5.1.0) date 2019-04-11 23:39:49*
%MOMM*%
%LPD*%
G04 APERTURE LIST*
%ADD10R,1.000000X1.600000*%
%ADD11R,1.250000X1.000000*%
G04 APERTURE END LIST*
D10*
X178675000Y-128500000D03*
X177075000Y-128500000D03*
X175475000Y-128500000D03*
X178675000Y-133500000D03*
X177075000Y-133500000D03*
X175475000Y-133500000D03*
X186150000Y-79500000D03*
X187750000Y-79500000D03*
X189350000Y-79500000D03*
X186150000Y-74500000D03*
X187750000Y-74500000D03*
X189350000Y-74500000D03*
D11*
X181000000Y-100000000D03*
X181000000Y-102000000D03*
X181000000Y-120000000D03*
X181000000Y-118000000D03*
D10*
X178675000Y-137500000D03*
X177075000Y-137500000D03*
X175475000Y-137500000D03*
X178675000Y-142500000D03*
X177075000Y-142500000D03*
X175475000Y-142500000D03*
X186150000Y-97500000D03*
X187750000Y-97500000D03*
X189350000Y-97500000D03*
X186150000Y-92500000D03*
X187750000Y-92500000D03*
X189350000Y-92500000D03*
X175475000Y-106500000D03*
X177075000Y-106500000D03*
X178675000Y-106500000D03*
X175475000Y-101500000D03*
X177075000Y-101500000D03*
X178675000Y-101500000D03*
X186150000Y-61500000D03*
X187750000Y-61500000D03*
X189350000Y-61500000D03*
X186150000Y-56500000D03*
X187750000Y-56500000D03*
X189350000Y-56500000D03*
D11*
X183500000Y-140500000D03*
X183500000Y-142500000D03*
D10*
X189350000Y-65500000D03*
X187750000Y-65500000D03*
X186150000Y-65500000D03*
X189350000Y-70500000D03*
X187750000Y-70500000D03*
X186150000Y-70500000D03*
D11*
X183500000Y-70500000D03*
X183500000Y-72500000D03*
D10*
X189350000Y-83500000D03*
X187750000Y-83500000D03*
X186150000Y-83500000D03*
X189350000Y-88500000D03*
X187750000Y-88500000D03*
X186150000Y-88500000D03*
X178675000Y-110500000D03*
X177075000Y-110500000D03*
X175475000Y-110500000D03*
X178675000Y-115500000D03*
X177075000Y-115500000D03*
X175475000Y-115500000D03*
D11*
X181000000Y-55000000D03*
X181000000Y-57000000D03*
X183500000Y-106500000D03*
X183500000Y-108500000D03*
D10*
X175475000Y-124500000D03*
X177075000Y-124500000D03*
X178675000Y-124500000D03*
X175475000Y-119500000D03*
X177075000Y-119500000D03*
X178675000Y-119500000D03*
D11*
X181000000Y-66000000D03*
X181000000Y-64000000D03*
X181000000Y-73000000D03*
X181000000Y-75000000D03*
D10*
X186150000Y-133500000D03*
X187750000Y-133500000D03*
X189350000Y-133500000D03*
X186150000Y-128500000D03*
X187750000Y-128500000D03*
X189350000Y-128500000D03*
X175500000Y-61500000D03*
X177100000Y-61500000D03*
X178700000Y-61500000D03*
X175500000Y-56500000D03*
X177100000Y-56500000D03*
X178700000Y-56500000D03*
D11*
X181000000Y-111000000D03*
X181000000Y-109000000D03*
D10*
X189350000Y-119500000D03*
X187750000Y-119500000D03*
X186150000Y-119500000D03*
X189350000Y-124500000D03*
X187750000Y-124500000D03*
X186150000Y-124500000D03*
D11*
X183500000Y-81500000D03*
X183500000Y-79500000D03*
D10*
X210350000Y-128500000D03*
X208750000Y-128500000D03*
X207150000Y-128500000D03*
X210350000Y-133500000D03*
X208750000Y-133500000D03*
X207150000Y-133500000D03*
X199700000Y-56500000D03*
X198100000Y-56500000D03*
X196500000Y-56500000D03*
X199700000Y-61500000D03*
X198100000Y-61500000D03*
X196500000Y-61500000D03*
X207150000Y-70500000D03*
X208750000Y-70500000D03*
X210350000Y-70500000D03*
X207150000Y-65500000D03*
X208750000Y-65500000D03*
X210350000Y-65500000D03*
X207150000Y-124500000D03*
X208750000Y-124500000D03*
X210350000Y-124500000D03*
X207150000Y-119500000D03*
X208750000Y-119500000D03*
X210350000Y-119500000D03*
D11*
X204500000Y-79500000D03*
X204500000Y-81500000D03*
D10*
X199675000Y-92500000D03*
X198075000Y-92500000D03*
X196475000Y-92500000D03*
X199675000Y-97500000D03*
X198075000Y-97500000D03*
X196475000Y-97500000D03*
X196475000Y-70500000D03*
X198075000Y-70500000D03*
X199675000Y-70500000D03*
X196475000Y-65500000D03*
X198075000Y-65500000D03*
X199675000Y-65500000D03*
D11*
X204500000Y-90500000D03*
X204500000Y-88500000D03*
X204500000Y-126500000D03*
X204500000Y-124500000D03*
D10*
X196475000Y-88500000D03*
X198075000Y-88500000D03*
X199675000Y-88500000D03*
X196475000Y-83500000D03*
X198075000Y-83500000D03*
X199675000Y-83500000D03*
X207150000Y-106500000D03*
X208750000Y-106500000D03*
X210350000Y-106500000D03*
X207150000Y-101500000D03*
X208750000Y-101500000D03*
X210350000Y-101500000D03*
X210350000Y-110500000D03*
X208750000Y-110500000D03*
X207150000Y-110500000D03*
X210350000Y-115500000D03*
X208750000Y-115500000D03*
X207150000Y-115500000D03*
D11*
X202000000Y-127000000D03*
X202000000Y-129000000D03*
D10*
X199675000Y-74500000D03*
X198075000Y-74500000D03*
X196475000Y-74500000D03*
X199675000Y-79500000D03*
X198075000Y-79500000D03*
X196475000Y-79500000D03*
D11*
X202000000Y-91000000D03*
X202000000Y-93000000D03*
X202000000Y-109000000D03*
X202000000Y-111000000D03*
X202000000Y-84000000D03*
X202000000Y-82000000D03*
D10*
X175475000Y-97500000D03*
X177075000Y-97500000D03*
X178675000Y-97500000D03*
X175475000Y-92500000D03*
X177075000Y-92500000D03*
X178675000Y-92500000D03*
X178675000Y-65500000D03*
X177075000Y-65500000D03*
X175475000Y-65500000D03*
X178675000Y-70500000D03*
X177075000Y-70500000D03*
X175475000Y-70500000D03*
D11*
X183500000Y-88500000D03*
X183500000Y-90500000D03*
X183500000Y-124500000D03*
X183500000Y-126500000D03*
D10*
X178675000Y-83500000D03*
X177075000Y-83500000D03*
X175475000Y-83500000D03*
X178675000Y-88500000D03*
X177075000Y-88500000D03*
X175475000Y-88500000D03*
X189350000Y-101500000D03*
X187750000Y-101500000D03*
X186150000Y-101500000D03*
X189350000Y-106500000D03*
X187750000Y-106500000D03*
X186150000Y-106500000D03*
X186150000Y-115500000D03*
X187750000Y-115500000D03*
X189350000Y-115500000D03*
X186150000Y-110500000D03*
X187750000Y-110500000D03*
X189350000Y-110500000D03*
D11*
X181000000Y-129000000D03*
X181000000Y-127000000D03*
D10*
X175475000Y-79500000D03*
X177075000Y-79500000D03*
X178675000Y-79500000D03*
X175475000Y-74500000D03*
X177075000Y-74500000D03*
X178675000Y-74500000D03*
X196475000Y-133500000D03*
X198075000Y-133500000D03*
X199675000Y-133500000D03*
X196475000Y-128500000D03*
X198075000Y-128500000D03*
X199675000Y-128500000D03*
X210350000Y-74500000D03*
X208750000Y-74500000D03*
X207150000Y-74500000D03*
X210350000Y-79500000D03*
X208750000Y-79500000D03*
X207150000Y-79500000D03*
D11*
X202000000Y-102000000D03*
X202000000Y-100000000D03*
X202000000Y-118000000D03*
X202000000Y-120000000D03*
D10*
X196475000Y-142500000D03*
X198075000Y-142500000D03*
X199675000Y-142500000D03*
X196475000Y-137500000D03*
X198075000Y-137500000D03*
X199675000Y-137500000D03*
X210350000Y-92500000D03*
X208750000Y-92500000D03*
X207150000Y-92500000D03*
X210350000Y-97500000D03*
X208750000Y-97500000D03*
X207150000Y-97500000D03*
X199675000Y-101500000D03*
X198075000Y-101500000D03*
X196475000Y-101500000D03*
X199675000Y-106500000D03*
X198075000Y-106500000D03*
X196475000Y-106500000D03*
X210350000Y-56500000D03*
X208750000Y-56500000D03*
X207150000Y-56500000D03*
X210350000Y-61500000D03*
X208750000Y-61500000D03*
X207150000Y-61500000D03*
D11*
X204500000Y-142500000D03*
X204500000Y-140500000D03*
X204500000Y-72500000D03*
X204500000Y-70500000D03*
D10*
X207150000Y-88500000D03*
X208750000Y-88500000D03*
X210350000Y-88500000D03*
X207150000Y-83500000D03*
X208750000Y-83500000D03*
X210350000Y-83500000D03*
X196475000Y-115500000D03*
X198075000Y-115500000D03*
X199675000Y-115500000D03*
X196475000Y-110500000D03*
X198075000Y-110500000D03*
X199675000Y-110500000D03*
D11*
X202000000Y-57000000D03*
X202000000Y-55000000D03*
X204500000Y-108500000D03*
X204500000Y-106500000D03*
D10*
X199675000Y-119500000D03*
X198075000Y-119500000D03*
X196475000Y-119500000D03*
X199675000Y-124500000D03*
X198075000Y-124500000D03*
X196475000Y-124500000D03*
D11*
X202000000Y-64000000D03*
X202000000Y-66000000D03*
X202000000Y-75000000D03*
X202000000Y-73000000D03*
X181000000Y-93000000D03*
X181000000Y-91000000D03*
X204500000Y-97500000D03*
X204500000Y-99500000D03*
X181000000Y-82000000D03*
X181000000Y-84000000D03*
D10*
X189350000Y-137500000D03*
X187750000Y-137500000D03*
X186150000Y-137500000D03*
X189350000Y-142500000D03*
X187750000Y-142500000D03*
X186150000Y-142500000D03*
D11*
X183500000Y-99500000D03*
X183500000Y-97500000D03*
D10*
X207150000Y-142500000D03*
X208750000Y-142500000D03*
X210350000Y-142500000D03*
X207150000Y-137500000D03*
X208750000Y-137500000D03*
X210350000Y-137500000D03*
D11*
X183500000Y-117500000D03*
X183500000Y-115500000D03*
X183500000Y-135500000D03*
X183500000Y-133500000D03*
X181000000Y-136000000D03*
X181000000Y-138000000D03*
X204500000Y-61500000D03*
X204500000Y-63500000D03*
X202000000Y-138000000D03*
X202000000Y-136000000D03*
X204500000Y-133500000D03*
X204500000Y-135500000D03*
X204500000Y-115500000D03*
X204500000Y-117500000D03*
X183500000Y-63500000D03*
X183500000Y-61500000D03*
D10*
X157675000Y-128500000D03*
X156075000Y-128500000D03*
X154475000Y-128500000D03*
X157675000Y-133500000D03*
X156075000Y-133500000D03*
X154475000Y-133500000D03*
X165150000Y-79500000D03*
X166750000Y-79500000D03*
X168350000Y-79500000D03*
X165150000Y-74500000D03*
X166750000Y-74500000D03*
X168350000Y-74500000D03*
D11*
X160000000Y-100000000D03*
X160000000Y-102000000D03*
X160000000Y-120000000D03*
X160000000Y-118000000D03*
D10*
X157675000Y-137500000D03*
X156075000Y-137500000D03*
X154475000Y-137500000D03*
X157675000Y-142500000D03*
X156075000Y-142500000D03*
X154475000Y-142500000D03*
X165150000Y-97500000D03*
X166750000Y-97500000D03*
X168350000Y-97500000D03*
X165150000Y-92500000D03*
X166750000Y-92500000D03*
X168350000Y-92500000D03*
X154475000Y-106500000D03*
X156075000Y-106500000D03*
X157675000Y-106500000D03*
X154475000Y-101500000D03*
X156075000Y-101500000D03*
X157675000Y-101500000D03*
X165150000Y-61500000D03*
X166750000Y-61500000D03*
X168350000Y-61500000D03*
X165150000Y-56500000D03*
X166750000Y-56500000D03*
X168350000Y-56500000D03*
D11*
X162500000Y-140500000D03*
X162500000Y-142500000D03*
D10*
X168350000Y-65500000D03*
X166750000Y-65500000D03*
X165150000Y-65500000D03*
X168350000Y-70500000D03*
X166750000Y-70500000D03*
X165150000Y-70500000D03*
D11*
X162500000Y-70500000D03*
X162500000Y-72500000D03*
D10*
X168350000Y-83500000D03*
X166750000Y-83500000D03*
X165150000Y-83500000D03*
X168350000Y-88500000D03*
X166750000Y-88500000D03*
X165150000Y-88500000D03*
X157675000Y-110500000D03*
X156075000Y-110500000D03*
X154475000Y-110500000D03*
X157675000Y-115500000D03*
X156075000Y-115500000D03*
X154475000Y-115500000D03*
D11*
X160000000Y-55000000D03*
X160000000Y-57000000D03*
X162500000Y-106500000D03*
X162500000Y-108500000D03*
D10*
X154475000Y-124500000D03*
X156075000Y-124500000D03*
X157675000Y-124500000D03*
X154475000Y-119500000D03*
X156075000Y-119500000D03*
X157675000Y-119500000D03*
D11*
X160000000Y-66000000D03*
X160000000Y-64000000D03*
X160000000Y-73000000D03*
X160000000Y-75000000D03*
D10*
X165150000Y-133500000D03*
X166750000Y-133500000D03*
X168350000Y-133500000D03*
X165150000Y-128500000D03*
X166750000Y-128500000D03*
X168350000Y-128500000D03*
X154500000Y-61500000D03*
X156100000Y-61500000D03*
X157700000Y-61500000D03*
X154500000Y-56500000D03*
X156100000Y-56500000D03*
X157700000Y-56500000D03*
D11*
X160000000Y-111000000D03*
X160000000Y-109000000D03*
D10*
X168350000Y-119500000D03*
X166750000Y-119500000D03*
X165150000Y-119500000D03*
X168350000Y-124500000D03*
X166750000Y-124500000D03*
X165150000Y-124500000D03*
D11*
X162500000Y-81500000D03*
X162500000Y-79500000D03*
D10*
X154475000Y-97500000D03*
X156075000Y-97500000D03*
X157675000Y-97500000D03*
X154475000Y-92500000D03*
X156075000Y-92500000D03*
X157675000Y-92500000D03*
X157675000Y-65500000D03*
X156075000Y-65500000D03*
X154475000Y-65500000D03*
X157675000Y-70500000D03*
X156075000Y-70500000D03*
X154475000Y-70500000D03*
D11*
X162500000Y-88500000D03*
X162500000Y-90500000D03*
X162500000Y-124500000D03*
X162500000Y-126500000D03*
D10*
X157675000Y-83500000D03*
X156075000Y-83500000D03*
X154475000Y-83500000D03*
X157675000Y-88500000D03*
X156075000Y-88500000D03*
X154475000Y-88500000D03*
X168350000Y-101500000D03*
X166750000Y-101500000D03*
X165150000Y-101500000D03*
X168350000Y-106500000D03*
X166750000Y-106500000D03*
X165150000Y-106500000D03*
X165150000Y-115500000D03*
X166750000Y-115500000D03*
X168350000Y-115500000D03*
X165150000Y-110500000D03*
X166750000Y-110500000D03*
X168350000Y-110500000D03*
D11*
X160000000Y-129000000D03*
X160000000Y-127000000D03*
D10*
X154475000Y-79500000D03*
X156075000Y-79500000D03*
X157675000Y-79500000D03*
X154475000Y-74500000D03*
X156075000Y-74500000D03*
X157675000Y-74500000D03*
D11*
X160000000Y-93000000D03*
X160000000Y-91000000D03*
X160000000Y-82000000D03*
X160000000Y-84000000D03*
D10*
X168350000Y-137500000D03*
X166750000Y-137500000D03*
X165150000Y-137500000D03*
X168350000Y-142500000D03*
X166750000Y-142500000D03*
X165150000Y-142500000D03*
D11*
X162500000Y-99500000D03*
X162500000Y-97500000D03*
X162500000Y-117500000D03*
X162500000Y-115500000D03*
X162500000Y-135500000D03*
X162500000Y-133500000D03*
X160000000Y-136000000D03*
X160000000Y-138000000D03*
X162500000Y-63500000D03*
X162500000Y-61500000D03*
X141500000Y-61500000D03*
X141500000Y-63500000D03*
X139000000Y-138000000D03*
X139000000Y-136000000D03*
X141500000Y-72500000D03*
X141500000Y-70500000D03*
X139000000Y-127000000D03*
X139000000Y-129000000D03*
X141500000Y-79500000D03*
X141500000Y-81500000D03*
X139000000Y-118000000D03*
X139000000Y-120000000D03*
X141500000Y-90500000D03*
X141500000Y-88500000D03*
X139000000Y-109000000D03*
X139000000Y-111000000D03*
X141500000Y-97500000D03*
X141500000Y-99500000D03*
X139000000Y-102000000D03*
X139000000Y-100000000D03*
X141500000Y-108500000D03*
X141500000Y-106500000D03*
X139000000Y-91000000D03*
X139000000Y-93000000D03*
X141500000Y-115500000D03*
X141500000Y-117500000D03*
X139000000Y-84000000D03*
X139000000Y-82000000D03*
X141500000Y-126500000D03*
X141500000Y-124500000D03*
X139000000Y-75000000D03*
X139000000Y-73000000D03*
X141500000Y-133500000D03*
X141500000Y-135500000D03*
X139000000Y-64000000D03*
X139000000Y-66000000D03*
X141500000Y-142500000D03*
X141500000Y-140500000D03*
X139000000Y-57000000D03*
X139000000Y-55000000D03*
D10*
X147350000Y-56500000D03*
X145750000Y-56500000D03*
X144150000Y-56500000D03*
X147350000Y-61500000D03*
X145750000Y-61500000D03*
X144150000Y-61500000D03*
X133475000Y-142500000D03*
X135075000Y-142500000D03*
X136675000Y-142500000D03*
X133475000Y-137500000D03*
X135075000Y-137500000D03*
X136675000Y-137500000D03*
X144150000Y-70500000D03*
X145750000Y-70500000D03*
X147350000Y-70500000D03*
X144150000Y-65500000D03*
X145750000Y-65500000D03*
X147350000Y-65500000D03*
X133475000Y-133500000D03*
X135075000Y-133500000D03*
X136675000Y-133500000D03*
X133475000Y-128500000D03*
X135075000Y-128500000D03*
X136675000Y-128500000D03*
X147350000Y-74500000D03*
X145750000Y-74500000D03*
X144150000Y-74500000D03*
X147350000Y-79500000D03*
X145750000Y-79500000D03*
X144150000Y-79500000D03*
X136675000Y-119500000D03*
X135075000Y-119500000D03*
X133475000Y-119500000D03*
X136675000Y-124500000D03*
X135075000Y-124500000D03*
X133475000Y-124500000D03*
X144150000Y-88500000D03*
X145750000Y-88500000D03*
X147350000Y-88500000D03*
X144150000Y-83500000D03*
X145750000Y-83500000D03*
X147350000Y-83500000D03*
X133475000Y-115500000D03*
X135075000Y-115500000D03*
X136675000Y-115500000D03*
X133475000Y-110500000D03*
X135075000Y-110500000D03*
X136675000Y-110500000D03*
X147350000Y-92500000D03*
X145750000Y-92500000D03*
X144150000Y-92500000D03*
X147350000Y-97500000D03*
X145750000Y-97500000D03*
X144150000Y-97500000D03*
X136675000Y-101500000D03*
X135075000Y-101500000D03*
X133475000Y-101500000D03*
X136675000Y-106500000D03*
X135075000Y-106500000D03*
X133475000Y-106500000D03*
X144150000Y-106500000D03*
X145750000Y-106500000D03*
X147350000Y-106500000D03*
X144150000Y-101500000D03*
X145750000Y-101500000D03*
X147350000Y-101500000D03*
X136675000Y-92500000D03*
X135075000Y-92500000D03*
X133475000Y-92500000D03*
X136675000Y-97500000D03*
X135075000Y-97500000D03*
X133475000Y-97500000D03*
X147350000Y-110500000D03*
X145750000Y-110500000D03*
X144150000Y-110500000D03*
X147350000Y-115500000D03*
X145750000Y-115500000D03*
X144150000Y-115500000D03*
X133475000Y-88500000D03*
X135075000Y-88500000D03*
X136675000Y-88500000D03*
X133475000Y-83500000D03*
X135075000Y-83500000D03*
X136675000Y-83500000D03*
X144150000Y-124500000D03*
X145750000Y-124500000D03*
X147350000Y-124500000D03*
X144150000Y-119500000D03*
X145750000Y-119500000D03*
X147350000Y-119500000D03*
X136675000Y-74500000D03*
X135075000Y-74500000D03*
X133475000Y-74500000D03*
X136675000Y-79500000D03*
X135075000Y-79500000D03*
X133475000Y-79500000D03*
X147350000Y-128500000D03*
X145750000Y-128500000D03*
X144150000Y-128500000D03*
X147350000Y-133500000D03*
X145750000Y-133500000D03*
X144150000Y-133500000D03*
X133475000Y-70500000D03*
X135075000Y-70500000D03*
X136675000Y-70500000D03*
X133475000Y-65500000D03*
X135075000Y-65500000D03*
X136675000Y-65500000D03*
X144150000Y-142500000D03*
X145750000Y-142500000D03*
X147350000Y-142500000D03*
X144150000Y-137500000D03*
X145750000Y-137500000D03*
X147350000Y-137500000D03*
X136700000Y-56500000D03*
X135100000Y-56500000D03*
X133500000Y-56500000D03*
X136700000Y-61500000D03*
X135100000Y-61500000D03*
X133500000Y-61500000D03*
M02*
