G04 #@! TF.GenerationSoftware,KiCad,Pcbnew,5.1.0*
G04 #@! TF.CreationDate,2019-04-04T22:18:19-05:00*
G04 #@! TF.ProjectId,Strips,53747269-7073-42e6-9b69-6361645f7063,rev?*
G04 #@! TF.SameCoordinates,Original*
G04 #@! TF.FileFunction,Copper,L2,Bot*
G04 #@! TF.FilePolarity,Positive*
%FSLAX46Y46*%
G04 Gerber Fmt 4.6, Leading zero omitted, Abs format (unit mm)*
G04 Created by KiCad (PCBNEW 5.1.0) date 2019-04-04 22:18:19*
%MOMM*%
%LPD*%
G04 APERTURE LIST*
%ADD10C,2.200000*%
%ADD11R,2.500000X2.500000*%
%ADD12C,2.500000*%
%ADD13C,0.800000*%
%ADD14C,0.250000*%
%ADD15C,0.254000*%
G04 APERTURE END LIST*
D10*
X131500000Y-54000000D03*
X149500000Y-54000000D03*
X131500000Y-140000000D03*
X149500000Y-140000000D03*
D11*
X133000000Y-49500000D03*
D12*
X138000000Y-49500000D03*
X143000000Y-49500000D03*
X148000000Y-49500000D03*
D13*
X146000000Y-135500000D03*
X149500000Y-135500000D03*
X146000000Y-126500000D03*
X149500000Y-126500000D03*
X146000000Y-117500000D03*
X149500000Y-117500000D03*
X146500000Y-108500000D03*
X149500000Y-108500000D03*
X146000000Y-99500000D03*
X149500000Y-99000000D03*
X146000000Y-90500000D03*
X149500000Y-90500000D03*
X146000000Y-82000000D03*
X149500000Y-82000000D03*
X146000000Y-72500000D03*
X149500000Y-72500000D03*
X146000000Y-63500000D03*
X149500000Y-63500000D03*
X141000000Y-54000000D03*
X135000000Y-58500000D03*
X134000000Y-67500000D03*
X134000000Y-76500000D03*
X134000000Y-76500000D03*
X134000000Y-85500000D03*
X134000000Y-94500000D03*
X134000000Y-103500000D03*
X134000000Y-112500000D03*
X134000000Y-121500000D03*
X134000000Y-130500000D03*
X134000000Y-139500000D03*
X145000000Y-140000000D03*
X146500000Y-131500000D03*
X146500000Y-122500000D03*
X146500000Y-113500000D03*
X146500000Y-104500000D03*
X146500000Y-95500000D03*
X146500000Y-86500000D03*
X146500000Y-77500000D03*
X146500000Y-68500000D03*
X146500000Y-59500000D03*
X146500000Y-141000000D03*
X134000000Y-141000000D03*
D14*
X146000000Y-135500000D02*
X149500000Y-135500000D01*
X146000000Y-126500000D02*
X149500000Y-126500000D01*
X146000000Y-117500000D02*
X149500000Y-117500000D01*
X146500000Y-108500000D02*
X149500000Y-108500000D01*
X146000000Y-99500000D02*
X146500000Y-99000000D01*
X146500000Y-99000000D02*
X149500000Y-99000000D01*
X146000000Y-90500000D02*
X149500000Y-90500000D01*
X146000000Y-82000000D02*
X149500000Y-82000000D01*
X146000000Y-72500000D02*
X149500000Y-72500000D01*
X146000000Y-63500000D02*
X149500000Y-63500000D01*
X141000000Y-52500000D02*
X138000000Y-49500000D01*
X141000000Y-54000000D02*
X141000000Y-52500000D01*
X146500000Y-141000000D02*
X134000000Y-141000000D01*
D15*
G36*
X149662540Y-45179102D02*
G01*
X149818894Y-45226308D01*
X149963096Y-45302982D01*
X150089663Y-45406207D01*
X150193769Y-45532051D01*
X150271447Y-45675711D01*
X150319742Y-45831729D01*
X150340001Y-46024482D01*
X150340001Y-52474604D01*
X150321831Y-52462463D01*
X150006081Y-52331675D01*
X149670883Y-52265000D01*
X149329117Y-52265000D01*
X148993919Y-52331675D01*
X148678169Y-52462463D01*
X148394002Y-52652337D01*
X148152337Y-52894002D01*
X147962463Y-53178169D01*
X147831675Y-53493919D01*
X147765000Y-53829117D01*
X147765000Y-54170883D01*
X147831675Y-54506081D01*
X147962463Y-54821831D01*
X148152337Y-55105998D01*
X148394002Y-55347663D01*
X148678169Y-55537537D01*
X148993919Y-55668325D01*
X149329117Y-55735000D01*
X149670883Y-55735000D01*
X150006081Y-55668325D01*
X150321831Y-55537537D01*
X150340001Y-55525396D01*
X150340001Y-62894199D01*
X150303937Y-62840226D01*
X150159774Y-62696063D01*
X149990256Y-62582795D01*
X149801898Y-62504774D01*
X149601939Y-62465000D01*
X149398061Y-62465000D01*
X149198102Y-62504774D01*
X149009744Y-62582795D01*
X148840226Y-62696063D01*
X148796289Y-62740000D01*
X146703711Y-62740000D01*
X146659774Y-62696063D01*
X146490256Y-62582795D01*
X146301898Y-62504774D01*
X146101939Y-62465000D01*
X145898061Y-62465000D01*
X145698102Y-62504774D01*
X145509744Y-62582795D01*
X145340226Y-62696063D01*
X145196063Y-62840226D01*
X145082795Y-63009744D01*
X145004774Y-63198102D01*
X144965000Y-63398061D01*
X144965000Y-63601939D01*
X145004774Y-63801898D01*
X145082795Y-63990256D01*
X145196063Y-64159774D01*
X145340226Y-64303937D01*
X145509744Y-64417205D01*
X145698102Y-64495226D01*
X145898061Y-64535000D01*
X146101939Y-64535000D01*
X146301898Y-64495226D01*
X146490256Y-64417205D01*
X146659774Y-64303937D01*
X146703711Y-64260000D01*
X148796289Y-64260000D01*
X148840226Y-64303937D01*
X149009744Y-64417205D01*
X149198102Y-64495226D01*
X149398061Y-64535000D01*
X149601939Y-64535000D01*
X149801898Y-64495226D01*
X149990256Y-64417205D01*
X150159774Y-64303937D01*
X150303937Y-64159774D01*
X150340001Y-64105801D01*
X150340001Y-71894199D01*
X150303937Y-71840226D01*
X150159774Y-71696063D01*
X149990256Y-71582795D01*
X149801898Y-71504774D01*
X149601939Y-71465000D01*
X149398061Y-71465000D01*
X149198102Y-71504774D01*
X149009744Y-71582795D01*
X148840226Y-71696063D01*
X148796289Y-71740000D01*
X146703711Y-71740000D01*
X146659774Y-71696063D01*
X146490256Y-71582795D01*
X146301898Y-71504774D01*
X146101939Y-71465000D01*
X145898061Y-71465000D01*
X145698102Y-71504774D01*
X145509744Y-71582795D01*
X145340226Y-71696063D01*
X145196063Y-71840226D01*
X145082795Y-72009744D01*
X145004774Y-72198102D01*
X144965000Y-72398061D01*
X144965000Y-72601939D01*
X145004774Y-72801898D01*
X145082795Y-72990256D01*
X145196063Y-73159774D01*
X145340226Y-73303937D01*
X145509744Y-73417205D01*
X145698102Y-73495226D01*
X145898061Y-73535000D01*
X146101939Y-73535000D01*
X146301898Y-73495226D01*
X146490256Y-73417205D01*
X146659774Y-73303937D01*
X146703711Y-73260000D01*
X148796289Y-73260000D01*
X148840226Y-73303937D01*
X149009744Y-73417205D01*
X149198102Y-73495226D01*
X149398061Y-73535000D01*
X149601939Y-73535000D01*
X149801898Y-73495226D01*
X149990256Y-73417205D01*
X150159774Y-73303937D01*
X150303937Y-73159774D01*
X150340001Y-73105801D01*
X150340001Y-81394199D01*
X150303937Y-81340226D01*
X150159774Y-81196063D01*
X149990256Y-81082795D01*
X149801898Y-81004774D01*
X149601939Y-80965000D01*
X149398061Y-80965000D01*
X149198102Y-81004774D01*
X149009744Y-81082795D01*
X148840226Y-81196063D01*
X148796289Y-81240000D01*
X146703711Y-81240000D01*
X146659774Y-81196063D01*
X146490256Y-81082795D01*
X146301898Y-81004774D01*
X146101939Y-80965000D01*
X145898061Y-80965000D01*
X145698102Y-81004774D01*
X145509744Y-81082795D01*
X145340226Y-81196063D01*
X145196063Y-81340226D01*
X145082795Y-81509744D01*
X145004774Y-81698102D01*
X144965000Y-81898061D01*
X144965000Y-82101939D01*
X145004774Y-82301898D01*
X145082795Y-82490256D01*
X145196063Y-82659774D01*
X145340226Y-82803937D01*
X145509744Y-82917205D01*
X145698102Y-82995226D01*
X145898061Y-83035000D01*
X146101939Y-83035000D01*
X146301898Y-82995226D01*
X146490256Y-82917205D01*
X146659774Y-82803937D01*
X146703711Y-82760000D01*
X148796289Y-82760000D01*
X148840226Y-82803937D01*
X149009744Y-82917205D01*
X149198102Y-82995226D01*
X149398061Y-83035000D01*
X149601939Y-83035000D01*
X149801898Y-82995226D01*
X149990256Y-82917205D01*
X150159774Y-82803937D01*
X150303937Y-82659774D01*
X150340001Y-82605801D01*
X150340001Y-89894199D01*
X150303937Y-89840226D01*
X150159774Y-89696063D01*
X149990256Y-89582795D01*
X149801898Y-89504774D01*
X149601939Y-89465000D01*
X149398061Y-89465000D01*
X149198102Y-89504774D01*
X149009744Y-89582795D01*
X148840226Y-89696063D01*
X148796289Y-89740000D01*
X146703711Y-89740000D01*
X146659774Y-89696063D01*
X146490256Y-89582795D01*
X146301898Y-89504774D01*
X146101939Y-89465000D01*
X145898061Y-89465000D01*
X145698102Y-89504774D01*
X145509744Y-89582795D01*
X145340226Y-89696063D01*
X145196063Y-89840226D01*
X145082795Y-90009744D01*
X145004774Y-90198102D01*
X144965000Y-90398061D01*
X144965000Y-90601939D01*
X145004774Y-90801898D01*
X145082795Y-90990256D01*
X145196063Y-91159774D01*
X145340226Y-91303937D01*
X145509744Y-91417205D01*
X145698102Y-91495226D01*
X145898061Y-91535000D01*
X146101939Y-91535000D01*
X146301898Y-91495226D01*
X146490256Y-91417205D01*
X146659774Y-91303937D01*
X146703711Y-91260000D01*
X148796289Y-91260000D01*
X148840226Y-91303937D01*
X149009744Y-91417205D01*
X149198102Y-91495226D01*
X149398061Y-91535000D01*
X149601939Y-91535000D01*
X149801898Y-91495226D01*
X149990256Y-91417205D01*
X150159774Y-91303937D01*
X150303937Y-91159774D01*
X150340001Y-91105801D01*
X150340000Y-98394199D01*
X150303937Y-98340226D01*
X150159774Y-98196063D01*
X149990256Y-98082795D01*
X149801898Y-98004774D01*
X149601939Y-97965000D01*
X149398061Y-97965000D01*
X149198102Y-98004774D01*
X149009744Y-98082795D01*
X148840226Y-98196063D01*
X148796289Y-98240000D01*
X146537325Y-98240000D01*
X146500000Y-98236324D01*
X146462675Y-98240000D01*
X146462667Y-98240000D01*
X146351014Y-98250997D01*
X146207753Y-98294454D01*
X146075724Y-98365026D01*
X145959999Y-98459999D01*
X145955895Y-98465000D01*
X145898061Y-98465000D01*
X145698102Y-98504774D01*
X145509744Y-98582795D01*
X145340226Y-98696063D01*
X145196063Y-98840226D01*
X145082795Y-99009744D01*
X145004774Y-99198102D01*
X144965000Y-99398061D01*
X144965000Y-99601939D01*
X145004774Y-99801898D01*
X145082795Y-99990256D01*
X145196063Y-100159774D01*
X145340226Y-100303937D01*
X145509744Y-100417205D01*
X145698102Y-100495226D01*
X145898061Y-100535000D01*
X146101939Y-100535000D01*
X146301898Y-100495226D01*
X146490256Y-100417205D01*
X146659774Y-100303937D01*
X146803937Y-100159774D01*
X146917205Y-99990256D01*
X146995226Y-99801898D01*
X147003560Y-99760000D01*
X148796289Y-99760000D01*
X148840226Y-99803937D01*
X149009744Y-99917205D01*
X149198102Y-99995226D01*
X149398061Y-100035000D01*
X149601939Y-100035000D01*
X149801898Y-99995226D01*
X149990256Y-99917205D01*
X150159774Y-99803937D01*
X150303937Y-99659774D01*
X150340000Y-99605801D01*
X150340000Y-107894199D01*
X150303937Y-107840226D01*
X150159774Y-107696063D01*
X149990256Y-107582795D01*
X149801898Y-107504774D01*
X149601939Y-107465000D01*
X149398061Y-107465000D01*
X149198102Y-107504774D01*
X149009744Y-107582795D01*
X148840226Y-107696063D01*
X148796289Y-107740000D01*
X147203711Y-107740000D01*
X147159774Y-107696063D01*
X146990256Y-107582795D01*
X146801898Y-107504774D01*
X146601939Y-107465000D01*
X146398061Y-107465000D01*
X146198102Y-107504774D01*
X146009744Y-107582795D01*
X145840226Y-107696063D01*
X145696063Y-107840226D01*
X145582795Y-108009744D01*
X145504774Y-108198102D01*
X145465000Y-108398061D01*
X145465000Y-108601939D01*
X145504774Y-108801898D01*
X145582795Y-108990256D01*
X145696063Y-109159774D01*
X145840226Y-109303937D01*
X146009744Y-109417205D01*
X146198102Y-109495226D01*
X146398061Y-109535000D01*
X146601939Y-109535000D01*
X146801898Y-109495226D01*
X146990256Y-109417205D01*
X147159774Y-109303937D01*
X147203711Y-109260000D01*
X148796289Y-109260000D01*
X148840226Y-109303937D01*
X149009744Y-109417205D01*
X149198102Y-109495226D01*
X149398061Y-109535000D01*
X149601939Y-109535000D01*
X149801898Y-109495226D01*
X149990256Y-109417205D01*
X150159774Y-109303937D01*
X150303937Y-109159774D01*
X150340000Y-109105801D01*
X150340000Y-116894199D01*
X150303937Y-116840226D01*
X150159774Y-116696063D01*
X149990256Y-116582795D01*
X149801898Y-116504774D01*
X149601939Y-116465000D01*
X149398061Y-116465000D01*
X149198102Y-116504774D01*
X149009744Y-116582795D01*
X148840226Y-116696063D01*
X148796289Y-116740000D01*
X146703711Y-116740000D01*
X146659774Y-116696063D01*
X146490256Y-116582795D01*
X146301898Y-116504774D01*
X146101939Y-116465000D01*
X145898061Y-116465000D01*
X145698102Y-116504774D01*
X145509744Y-116582795D01*
X145340226Y-116696063D01*
X145196063Y-116840226D01*
X145082795Y-117009744D01*
X145004774Y-117198102D01*
X144965000Y-117398061D01*
X144965000Y-117601939D01*
X145004774Y-117801898D01*
X145082795Y-117990256D01*
X145196063Y-118159774D01*
X145340226Y-118303937D01*
X145509744Y-118417205D01*
X145698102Y-118495226D01*
X145898061Y-118535000D01*
X146101939Y-118535000D01*
X146301898Y-118495226D01*
X146490256Y-118417205D01*
X146659774Y-118303937D01*
X146703711Y-118260000D01*
X148796289Y-118260000D01*
X148840226Y-118303937D01*
X149009744Y-118417205D01*
X149198102Y-118495226D01*
X149398061Y-118535000D01*
X149601939Y-118535000D01*
X149801898Y-118495226D01*
X149990256Y-118417205D01*
X150159774Y-118303937D01*
X150303937Y-118159774D01*
X150340000Y-118105801D01*
X150340000Y-125894198D01*
X150303937Y-125840226D01*
X150159774Y-125696063D01*
X149990256Y-125582795D01*
X149801898Y-125504774D01*
X149601939Y-125465000D01*
X149398061Y-125465000D01*
X149198102Y-125504774D01*
X149009744Y-125582795D01*
X148840226Y-125696063D01*
X148796289Y-125740000D01*
X146703711Y-125740000D01*
X146659774Y-125696063D01*
X146490256Y-125582795D01*
X146301898Y-125504774D01*
X146101939Y-125465000D01*
X145898061Y-125465000D01*
X145698102Y-125504774D01*
X145509744Y-125582795D01*
X145340226Y-125696063D01*
X145196063Y-125840226D01*
X145082795Y-126009744D01*
X145004774Y-126198102D01*
X144965000Y-126398061D01*
X144965000Y-126601939D01*
X145004774Y-126801898D01*
X145082795Y-126990256D01*
X145196063Y-127159774D01*
X145340226Y-127303937D01*
X145509744Y-127417205D01*
X145698102Y-127495226D01*
X145898061Y-127535000D01*
X146101939Y-127535000D01*
X146301898Y-127495226D01*
X146490256Y-127417205D01*
X146659774Y-127303937D01*
X146703711Y-127260000D01*
X148796289Y-127260000D01*
X148840226Y-127303937D01*
X149009744Y-127417205D01*
X149198102Y-127495226D01*
X149398061Y-127535000D01*
X149601939Y-127535000D01*
X149801898Y-127495226D01*
X149990256Y-127417205D01*
X150159774Y-127303937D01*
X150303937Y-127159774D01*
X150340000Y-127105802D01*
X150340000Y-134894198D01*
X150303937Y-134840226D01*
X150159774Y-134696063D01*
X149990256Y-134582795D01*
X149801898Y-134504774D01*
X149601939Y-134465000D01*
X149398061Y-134465000D01*
X149198102Y-134504774D01*
X149009744Y-134582795D01*
X148840226Y-134696063D01*
X148796289Y-134740000D01*
X146703711Y-134740000D01*
X146659774Y-134696063D01*
X146490256Y-134582795D01*
X146301898Y-134504774D01*
X146101939Y-134465000D01*
X145898061Y-134465000D01*
X145698102Y-134504774D01*
X145509744Y-134582795D01*
X145340226Y-134696063D01*
X145196063Y-134840226D01*
X145082795Y-135009744D01*
X145004774Y-135198102D01*
X144965000Y-135398061D01*
X144965000Y-135601939D01*
X145004774Y-135801898D01*
X145082795Y-135990256D01*
X145196063Y-136159774D01*
X145340226Y-136303937D01*
X145509744Y-136417205D01*
X145698102Y-136495226D01*
X145898061Y-136535000D01*
X146101939Y-136535000D01*
X146301898Y-136495226D01*
X146490256Y-136417205D01*
X146659774Y-136303937D01*
X146703711Y-136260000D01*
X148796289Y-136260000D01*
X148840226Y-136303937D01*
X149009744Y-136417205D01*
X149198102Y-136495226D01*
X149398061Y-136535000D01*
X149601939Y-136535000D01*
X149801898Y-136495226D01*
X149990256Y-136417205D01*
X150159774Y-136303937D01*
X150303937Y-136159774D01*
X150340000Y-136105802D01*
X150340000Y-138474603D01*
X150321831Y-138462463D01*
X150006081Y-138331675D01*
X149670883Y-138265000D01*
X149329117Y-138265000D01*
X148993919Y-138331675D01*
X148678169Y-138462463D01*
X148394002Y-138652337D01*
X148152337Y-138894002D01*
X147962463Y-139178169D01*
X147831675Y-139493919D01*
X147765000Y-139829117D01*
X147765000Y-140170883D01*
X147831675Y-140506081D01*
X147962463Y-140821831D01*
X148152337Y-141105998D01*
X148394002Y-141347663D01*
X148678169Y-141537537D01*
X148993919Y-141668325D01*
X149329117Y-141735000D01*
X149670883Y-141735000D01*
X150006081Y-141668325D01*
X150321831Y-141537537D01*
X150340000Y-141525397D01*
X150340000Y-142467723D01*
X150320898Y-142662540D01*
X150273692Y-142818895D01*
X150197018Y-142963096D01*
X150093792Y-143089664D01*
X149967951Y-143193768D01*
X149824289Y-143271447D01*
X149668271Y-143319742D01*
X149475527Y-143340000D01*
X131532277Y-143340000D01*
X131337460Y-143320898D01*
X131181105Y-143273692D01*
X131036904Y-143197018D01*
X130910336Y-143093792D01*
X130806232Y-142967951D01*
X130728553Y-142824289D01*
X130680258Y-142668271D01*
X130660000Y-142475527D01*
X130660000Y-141525397D01*
X130678169Y-141537537D01*
X130993919Y-141668325D01*
X131329117Y-141735000D01*
X131670883Y-141735000D01*
X132006081Y-141668325D01*
X132321831Y-141537537D01*
X132605998Y-141347663D01*
X132847663Y-141105998D01*
X132965000Y-140930390D01*
X132965000Y-141101939D01*
X133004774Y-141301898D01*
X133082795Y-141490256D01*
X133196063Y-141659774D01*
X133340226Y-141803937D01*
X133509744Y-141917205D01*
X133698102Y-141995226D01*
X133898061Y-142035000D01*
X134101939Y-142035000D01*
X134301898Y-141995226D01*
X134490256Y-141917205D01*
X134659774Y-141803937D01*
X134703711Y-141760000D01*
X145796289Y-141760000D01*
X145840226Y-141803937D01*
X146009744Y-141917205D01*
X146198102Y-141995226D01*
X146398061Y-142035000D01*
X146601939Y-142035000D01*
X146801898Y-141995226D01*
X146990256Y-141917205D01*
X147159774Y-141803937D01*
X147303937Y-141659774D01*
X147417205Y-141490256D01*
X147495226Y-141301898D01*
X147535000Y-141101939D01*
X147535000Y-140898061D01*
X147495226Y-140698102D01*
X147417205Y-140509744D01*
X147303937Y-140340226D01*
X147159774Y-140196063D01*
X146990256Y-140082795D01*
X146801898Y-140004774D01*
X146601939Y-139965000D01*
X146398061Y-139965000D01*
X146198102Y-140004774D01*
X146009744Y-140082795D01*
X145840226Y-140196063D01*
X145796289Y-140240000D01*
X134703711Y-140240000D01*
X134659774Y-140196063D01*
X134490256Y-140082795D01*
X134301898Y-140004774D01*
X134101939Y-139965000D01*
X133898061Y-139965000D01*
X133698102Y-140004774D01*
X133509744Y-140082795D01*
X133340226Y-140196063D01*
X133202620Y-140333669D01*
X133235000Y-140170883D01*
X133235000Y-139829117D01*
X133168325Y-139493919D01*
X133037537Y-139178169D01*
X132847663Y-138894002D01*
X132605998Y-138652337D01*
X132321831Y-138462463D01*
X132006081Y-138331675D01*
X131670883Y-138265000D01*
X131329117Y-138265000D01*
X130993919Y-138331675D01*
X130678169Y-138462463D01*
X130660000Y-138474603D01*
X130660000Y-55525397D01*
X130678169Y-55537537D01*
X130993919Y-55668325D01*
X131329117Y-55735000D01*
X131670883Y-55735000D01*
X132006081Y-55668325D01*
X132321831Y-55537537D01*
X132605998Y-55347663D01*
X132847663Y-55105998D01*
X133037537Y-54821831D01*
X133168325Y-54506081D01*
X133235000Y-54170883D01*
X133235000Y-53829117D01*
X133168325Y-53493919D01*
X133037537Y-53178169D01*
X132847663Y-52894002D01*
X132605998Y-52652337D01*
X132321831Y-52462463D01*
X132006081Y-52331675D01*
X131670883Y-52265000D01*
X131329117Y-52265000D01*
X130993919Y-52331675D01*
X130678169Y-52462463D01*
X130660000Y-52474603D01*
X130660000Y-50750000D01*
X131111928Y-50750000D01*
X131124188Y-50874482D01*
X131160498Y-50994180D01*
X131219463Y-51104494D01*
X131298815Y-51201185D01*
X131395506Y-51280537D01*
X131505820Y-51339502D01*
X131625518Y-51375812D01*
X131750000Y-51388072D01*
X132714250Y-51385000D01*
X132873000Y-51226250D01*
X132873000Y-49627000D01*
X133127000Y-49627000D01*
X133127000Y-51226250D01*
X133285750Y-51385000D01*
X134250000Y-51388072D01*
X134374482Y-51375812D01*
X134494180Y-51339502D01*
X134604494Y-51280537D01*
X134701185Y-51201185D01*
X134780537Y-51104494D01*
X134839502Y-50994180D01*
X134875812Y-50874482D01*
X134888072Y-50750000D01*
X134885000Y-49785750D01*
X134726250Y-49627000D01*
X133127000Y-49627000D01*
X132873000Y-49627000D01*
X131273750Y-49627000D01*
X131115000Y-49785750D01*
X131111928Y-50750000D01*
X130660000Y-50750000D01*
X130660000Y-48250000D01*
X131111928Y-48250000D01*
X131115000Y-49214250D01*
X131273750Y-49373000D01*
X132873000Y-49373000D01*
X132873000Y-47773750D01*
X133127000Y-47773750D01*
X133127000Y-49373000D01*
X134726250Y-49373000D01*
X134784906Y-49314344D01*
X136115000Y-49314344D01*
X136115000Y-49685656D01*
X136187439Y-50049834D01*
X136329534Y-50392882D01*
X136535825Y-50701618D01*
X136798382Y-50964175D01*
X137107118Y-51170466D01*
X137450166Y-51312561D01*
X137814344Y-51385000D01*
X138185656Y-51385000D01*
X138549834Y-51312561D01*
X138682717Y-51257519D01*
X140240001Y-52814803D01*
X140240000Y-53296289D01*
X140196063Y-53340226D01*
X140082795Y-53509744D01*
X140004774Y-53698102D01*
X139965000Y-53898061D01*
X139965000Y-54101939D01*
X140004774Y-54301898D01*
X140082795Y-54490256D01*
X140196063Y-54659774D01*
X140340226Y-54803937D01*
X140509744Y-54917205D01*
X140698102Y-54995226D01*
X140898061Y-55035000D01*
X141101939Y-55035000D01*
X141301898Y-54995226D01*
X141490256Y-54917205D01*
X141659774Y-54803937D01*
X141803937Y-54659774D01*
X141917205Y-54490256D01*
X141995226Y-54301898D01*
X142035000Y-54101939D01*
X142035000Y-53898061D01*
X141995226Y-53698102D01*
X141917205Y-53509744D01*
X141803937Y-53340226D01*
X141760000Y-53296289D01*
X141760000Y-52537325D01*
X141763676Y-52500000D01*
X141760000Y-52462675D01*
X141760000Y-52462667D01*
X141749003Y-52351014D01*
X141705546Y-52207753D01*
X141634974Y-52075724D01*
X141540001Y-51959999D01*
X141511003Y-51936201D01*
X139757519Y-50182717D01*
X139812561Y-50049834D01*
X139885000Y-49685656D01*
X139885000Y-49314344D01*
X141115000Y-49314344D01*
X141115000Y-49685656D01*
X141187439Y-50049834D01*
X141329534Y-50392882D01*
X141535825Y-50701618D01*
X141798382Y-50964175D01*
X142107118Y-51170466D01*
X142450166Y-51312561D01*
X142814344Y-51385000D01*
X143185656Y-51385000D01*
X143549834Y-51312561D01*
X143892882Y-51170466D01*
X144201618Y-50964175D01*
X144464175Y-50701618D01*
X144670466Y-50392882D01*
X144812561Y-50049834D01*
X144885000Y-49685656D01*
X144885000Y-49314344D01*
X146115000Y-49314344D01*
X146115000Y-49685656D01*
X146187439Y-50049834D01*
X146329534Y-50392882D01*
X146535825Y-50701618D01*
X146798382Y-50964175D01*
X147107118Y-51170466D01*
X147450166Y-51312561D01*
X147814344Y-51385000D01*
X148185656Y-51385000D01*
X148549834Y-51312561D01*
X148892882Y-51170466D01*
X149201618Y-50964175D01*
X149464175Y-50701618D01*
X149670466Y-50392882D01*
X149812561Y-50049834D01*
X149885000Y-49685656D01*
X149885000Y-49314344D01*
X149812561Y-48950166D01*
X149670466Y-48607118D01*
X149464175Y-48298382D01*
X149201618Y-48035825D01*
X148892882Y-47829534D01*
X148549834Y-47687439D01*
X148185656Y-47615000D01*
X147814344Y-47615000D01*
X147450166Y-47687439D01*
X147107118Y-47829534D01*
X146798382Y-48035825D01*
X146535825Y-48298382D01*
X146329534Y-48607118D01*
X146187439Y-48950166D01*
X146115000Y-49314344D01*
X144885000Y-49314344D01*
X144812561Y-48950166D01*
X144670466Y-48607118D01*
X144464175Y-48298382D01*
X144201618Y-48035825D01*
X143892882Y-47829534D01*
X143549834Y-47687439D01*
X143185656Y-47615000D01*
X142814344Y-47615000D01*
X142450166Y-47687439D01*
X142107118Y-47829534D01*
X141798382Y-48035825D01*
X141535825Y-48298382D01*
X141329534Y-48607118D01*
X141187439Y-48950166D01*
X141115000Y-49314344D01*
X139885000Y-49314344D01*
X139812561Y-48950166D01*
X139670466Y-48607118D01*
X139464175Y-48298382D01*
X139201618Y-48035825D01*
X138892882Y-47829534D01*
X138549834Y-47687439D01*
X138185656Y-47615000D01*
X137814344Y-47615000D01*
X137450166Y-47687439D01*
X137107118Y-47829534D01*
X136798382Y-48035825D01*
X136535825Y-48298382D01*
X136329534Y-48607118D01*
X136187439Y-48950166D01*
X136115000Y-49314344D01*
X134784906Y-49314344D01*
X134885000Y-49214250D01*
X134888072Y-48250000D01*
X134875812Y-48125518D01*
X134839502Y-48005820D01*
X134780537Y-47895506D01*
X134701185Y-47798815D01*
X134604494Y-47719463D01*
X134494180Y-47660498D01*
X134374482Y-47624188D01*
X134250000Y-47611928D01*
X133285750Y-47615000D01*
X133127000Y-47773750D01*
X132873000Y-47773750D01*
X132714250Y-47615000D01*
X131750000Y-47611928D01*
X131625518Y-47624188D01*
X131505820Y-47660498D01*
X131395506Y-47719463D01*
X131298815Y-47798815D01*
X131219463Y-47895506D01*
X131160498Y-48005820D01*
X131124188Y-48125518D01*
X131111928Y-48250000D01*
X130660000Y-48250000D01*
X130660000Y-46032277D01*
X130679102Y-45837460D01*
X130726308Y-45681106D01*
X130802982Y-45536904D01*
X130906207Y-45410337D01*
X131032051Y-45306231D01*
X131175711Y-45228553D01*
X131331729Y-45180258D01*
X131524473Y-45160000D01*
X149467723Y-45160000D01*
X149662540Y-45179102D01*
X149662540Y-45179102D01*
G37*
X149662540Y-45179102D02*
X149818894Y-45226308D01*
X149963096Y-45302982D01*
X150089663Y-45406207D01*
X150193769Y-45532051D01*
X150271447Y-45675711D01*
X150319742Y-45831729D01*
X150340001Y-46024482D01*
X150340001Y-52474604D01*
X150321831Y-52462463D01*
X150006081Y-52331675D01*
X149670883Y-52265000D01*
X149329117Y-52265000D01*
X148993919Y-52331675D01*
X148678169Y-52462463D01*
X148394002Y-52652337D01*
X148152337Y-52894002D01*
X147962463Y-53178169D01*
X147831675Y-53493919D01*
X147765000Y-53829117D01*
X147765000Y-54170883D01*
X147831675Y-54506081D01*
X147962463Y-54821831D01*
X148152337Y-55105998D01*
X148394002Y-55347663D01*
X148678169Y-55537537D01*
X148993919Y-55668325D01*
X149329117Y-55735000D01*
X149670883Y-55735000D01*
X150006081Y-55668325D01*
X150321831Y-55537537D01*
X150340001Y-55525396D01*
X150340001Y-62894199D01*
X150303937Y-62840226D01*
X150159774Y-62696063D01*
X149990256Y-62582795D01*
X149801898Y-62504774D01*
X149601939Y-62465000D01*
X149398061Y-62465000D01*
X149198102Y-62504774D01*
X149009744Y-62582795D01*
X148840226Y-62696063D01*
X148796289Y-62740000D01*
X146703711Y-62740000D01*
X146659774Y-62696063D01*
X146490256Y-62582795D01*
X146301898Y-62504774D01*
X146101939Y-62465000D01*
X145898061Y-62465000D01*
X145698102Y-62504774D01*
X145509744Y-62582795D01*
X145340226Y-62696063D01*
X145196063Y-62840226D01*
X145082795Y-63009744D01*
X145004774Y-63198102D01*
X144965000Y-63398061D01*
X144965000Y-63601939D01*
X145004774Y-63801898D01*
X145082795Y-63990256D01*
X145196063Y-64159774D01*
X145340226Y-64303937D01*
X145509744Y-64417205D01*
X145698102Y-64495226D01*
X145898061Y-64535000D01*
X146101939Y-64535000D01*
X146301898Y-64495226D01*
X146490256Y-64417205D01*
X146659774Y-64303937D01*
X146703711Y-64260000D01*
X148796289Y-64260000D01*
X148840226Y-64303937D01*
X149009744Y-64417205D01*
X149198102Y-64495226D01*
X149398061Y-64535000D01*
X149601939Y-64535000D01*
X149801898Y-64495226D01*
X149990256Y-64417205D01*
X150159774Y-64303937D01*
X150303937Y-64159774D01*
X150340001Y-64105801D01*
X150340001Y-71894199D01*
X150303937Y-71840226D01*
X150159774Y-71696063D01*
X149990256Y-71582795D01*
X149801898Y-71504774D01*
X149601939Y-71465000D01*
X149398061Y-71465000D01*
X149198102Y-71504774D01*
X149009744Y-71582795D01*
X148840226Y-71696063D01*
X148796289Y-71740000D01*
X146703711Y-71740000D01*
X146659774Y-71696063D01*
X146490256Y-71582795D01*
X146301898Y-71504774D01*
X146101939Y-71465000D01*
X145898061Y-71465000D01*
X145698102Y-71504774D01*
X145509744Y-71582795D01*
X145340226Y-71696063D01*
X145196063Y-71840226D01*
X145082795Y-72009744D01*
X145004774Y-72198102D01*
X144965000Y-72398061D01*
X144965000Y-72601939D01*
X145004774Y-72801898D01*
X145082795Y-72990256D01*
X145196063Y-73159774D01*
X145340226Y-73303937D01*
X145509744Y-73417205D01*
X145698102Y-73495226D01*
X145898061Y-73535000D01*
X146101939Y-73535000D01*
X146301898Y-73495226D01*
X146490256Y-73417205D01*
X146659774Y-73303937D01*
X146703711Y-73260000D01*
X148796289Y-73260000D01*
X148840226Y-73303937D01*
X149009744Y-73417205D01*
X149198102Y-73495226D01*
X149398061Y-73535000D01*
X149601939Y-73535000D01*
X149801898Y-73495226D01*
X149990256Y-73417205D01*
X150159774Y-73303937D01*
X150303937Y-73159774D01*
X150340001Y-73105801D01*
X150340001Y-81394199D01*
X150303937Y-81340226D01*
X150159774Y-81196063D01*
X149990256Y-81082795D01*
X149801898Y-81004774D01*
X149601939Y-80965000D01*
X149398061Y-80965000D01*
X149198102Y-81004774D01*
X149009744Y-81082795D01*
X148840226Y-81196063D01*
X148796289Y-81240000D01*
X146703711Y-81240000D01*
X146659774Y-81196063D01*
X146490256Y-81082795D01*
X146301898Y-81004774D01*
X146101939Y-80965000D01*
X145898061Y-80965000D01*
X145698102Y-81004774D01*
X145509744Y-81082795D01*
X145340226Y-81196063D01*
X145196063Y-81340226D01*
X145082795Y-81509744D01*
X145004774Y-81698102D01*
X144965000Y-81898061D01*
X144965000Y-82101939D01*
X145004774Y-82301898D01*
X145082795Y-82490256D01*
X145196063Y-82659774D01*
X145340226Y-82803937D01*
X145509744Y-82917205D01*
X145698102Y-82995226D01*
X145898061Y-83035000D01*
X146101939Y-83035000D01*
X146301898Y-82995226D01*
X146490256Y-82917205D01*
X146659774Y-82803937D01*
X146703711Y-82760000D01*
X148796289Y-82760000D01*
X148840226Y-82803937D01*
X149009744Y-82917205D01*
X149198102Y-82995226D01*
X149398061Y-83035000D01*
X149601939Y-83035000D01*
X149801898Y-82995226D01*
X149990256Y-82917205D01*
X150159774Y-82803937D01*
X150303937Y-82659774D01*
X150340001Y-82605801D01*
X150340001Y-89894199D01*
X150303937Y-89840226D01*
X150159774Y-89696063D01*
X149990256Y-89582795D01*
X149801898Y-89504774D01*
X149601939Y-89465000D01*
X149398061Y-89465000D01*
X149198102Y-89504774D01*
X149009744Y-89582795D01*
X148840226Y-89696063D01*
X148796289Y-89740000D01*
X146703711Y-89740000D01*
X146659774Y-89696063D01*
X146490256Y-89582795D01*
X146301898Y-89504774D01*
X146101939Y-89465000D01*
X145898061Y-89465000D01*
X145698102Y-89504774D01*
X145509744Y-89582795D01*
X145340226Y-89696063D01*
X145196063Y-89840226D01*
X145082795Y-90009744D01*
X145004774Y-90198102D01*
X144965000Y-90398061D01*
X144965000Y-90601939D01*
X145004774Y-90801898D01*
X145082795Y-90990256D01*
X145196063Y-91159774D01*
X145340226Y-91303937D01*
X145509744Y-91417205D01*
X145698102Y-91495226D01*
X145898061Y-91535000D01*
X146101939Y-91535000D01*
X146301898Y-91495226D01*
X146490256Y-91417205D01*
X146659774Y-91303937D01*
X146703711Y-91260000D01*
X148796289Y-91260000D01*
X148840226Y-91303937D01*
X149009744Y-91417205D01*
X149198102Y-91495226D01*
X149398061Y-91535000D01*
X149601939Y-91535000D01*
X149801898Y-91495226D01*
X149990256Y-91417205D01*
X150159774Y-91303937D01*
X150303937Y-91159774D01*
X150340001Y-91105801D01*
X150340000Y-98394199D01*
X150303937Y-98340226D01*
X150159774Y-98196063D01*
X149990256Y-98082795D01*
X149801898Y-98004774D01*
X149601939Y-97965000D01*
X149398061Y-97965000D01*
X149198102Y-98004774D01*
X149009744Y-98082795D01*
X148840226Y-98196063D01*
X148796289Y-98240000D01*
X146537325Y-98240000D01*
X146500000Y-98236324D01*
X146462675Y-98240000D01*
X146462667Y-98240000D01*
X146351014Y-98250997D01*
X146207753Y-98294454D01*
X146075724Y-98365026D01*
X145959999Y-98459999D01*
X145955895Y-98465000D01*
X145898061Y-98465000D01*
X145698102Y-98504774D01*
X145509744Y-98582795D01*
X145340226Y-98696063D01*
X145196063Y-98840226D01*
X145082795Y-99009744D01*
X145004774Y-99198102D01*
X144965000Y-99398061D01*
X144965000Y-99601939D01*
X145004774Y-99801898D01*
X145082795Y-99990256D01*
X145196063Y-100159774D01*
X145340226Y-100303937D01*
X145509744Y-100417205D01*
X145698102Y-100495226D01*
X145898061Y-100535000D01*
X146101939Y-100535000D01*
X146301898Y-100495226D01*
X146490256Y-100417205D01*
X146659774Y-100303937D01*
X146803937Y-100159774D01*
X146917205Y-99990256D01*
X146995226Y-99801898D01*
X147003560Y-99760000D01*
X148796289Y-99760000D01*
X148840226Y-99803937D01*
X149009744Y-99917205D01*
X149198102Y-99995226D01*
X149398061Y-100035000D01*
X149601939Y-100035000D01*
X149801898Y-99995226D01*
X149990256Y-99917205D01*
X150159774Y-99803937D01*
X150303937Y-99659774D01*
X150340000Y-99605801D01*
X150340000Y-107894199D01*
X150303937Y-107840226D01*
X150159774Y-107696063D01*
X149990256Y-107582795D01*
X149801898Y-107504774D01*
X149601939Y-107465000D01*
X149398061Y-107465000D01*
X149198102Y-107504774D01*
X149009744Y-107582795D01*
X148840226Y-107696063D01*
X148796289Y-107740000D01*
X147203711Y-107740000D01*
X147159774Y-107696063D01*
X146990256Y-107582795D01*
X146801898Y-107504774D01*
X146601939Y-107465000D01*
X146398061Y-107465000D01*
X146198102Y-107504774D01*
X146009744Y-107582795D01*
X145840226Y-107696063D01*
X145696063Y-107840226D01*
X145582795Y-108009744D01*
X145504774Y-108198102D01*
X145465000Y-108398061D01*
X145465000Y-108601939D01*
X145504774Y-108801898D01*
X145582795Y-108990256D01*
X145696063Y-109159774D01*
X145840226Y-109303937D01*
X146009744Y-109417205D01*
X146198102Y-109495226D01*
X146398061Y-109535000D01*
X146601939Y-109535000D01*
X146801898Y-109495226D01*
X146990256Y-109417205D01*
X147159774Y-109303937D01*
X147203711Y-109260000D01*
X148796289Y-109260000D01*
X148840226Y-109303937D01*
X149009744Y-109417205D01*
X149198102Y-109495226D01*
X149398061Y-109535000D01*
X149601939Y-109535000D01*
X149801898Y-109495226D01*
X149990256Y-109417205D01*
X150159774Y-109303937D01*
X150303937Y-109159774D01*
X150340000Y-109105801D01*
X150340000Y-116894199D01*
X150303937Y-116840226D01*
X150159774Y-116696063D01*
X149990256Y-116582795D01*
X149801898Y-116504774D01*
X149601939Y-116465000D01*
X149398061Y-116465000D01*
X149198102Y-116504774D01*
X149009744Y-116582795D01*
X148840226Y-116696063D01*
X148796289Y-116740000D01*
X146703711Y-116740000D01*
X146659774Y-116696063D01*
X146490256Y-116582795D01*
X146301898Y-116504774D01*
X146101939Y-116465000D01*
X145898061Y-116465000D01*
X145698102Y-116504774D01*
X145509744Y-116582795D01*
X145340226Y-116696063D01*
X145196063Y-116840226D01*
X145082795Y-117009744D01*
X145004774Y-117198102D01*
X144965000Y-117398061D01*
X144965000Y-117601939D01*
X145004774Y-117801898D01*
X145082795Y-117990256D01*
X145196063Y-118159774D01*
X145340226Y-118303937D01*
X145509744Y-118417205D01*
X145698102Y-118495226D01*
X145898061Y-118535000D01*
X146101939Y-118535000D01*
X146301898Y-118495226D01*
X146490256Y-118417205D01*
X146659774Y-118303937D01*
X146703711Y-118260000D01*
X148796289Y-118260000D01*
X148840226Y-118303937D01*
X149009744Y-118417205D01*
X149198102Y-118495226D01*
X149398061Y-118535000D01*
X149601939Y-118535000D01*
X149801898Y-118495226D01*
X149990256Y-118417205D01*
X150159774Y-118303937D01*
X150303937Y-118159774D01*
X150340000Y-118105801D01*
X150340000Y-125894198D01*
X150303937Y-125840226D01*
X150159774Y-125696063D01*
X149990256Y-125582795D01*
X149801898Y-125504774D01*
X149601939Y-125465000D01*
X149398061Y-125465000D01*
X149198102Y-125504774D01*
X149009744Y-125582795D01*
X148840226Y-125696063D01*
X148796289Y-125740000D01*
X146703711Y-125740000D01*
X146659774Y-125696063D01*
X146490256Y-125582795D01*
X146301898Y-125504774D01*
X146101939Y-125465000D01*
X145898061Y-125465000D01*
X145698102Y-125504774D01*
X145509744Y-125582795D01*
X145340226Y-125696063D01*
X145196063Y-125840226D01*
X145082795Y-126009744D01*
X145004774Y-126198102D01*
X144965000Y-126398061D01*
X144965000Y-126601939D01*
X145004774Y-126801898D01*
X145082795Y-126990256D01*
X145196063Y-127159774D01*
X145340226Y-127303937D01*
X145509744Y-127417205D01*
X145698102Y-127495226D01*
X145898061Y-127535000D01*
X146101939Y-127535000D01*
X146301898Y-127495226D01*
X146490256Y-127417205D01*
X146659774Y-127303937D01*
X146703711Y-127260000D01*
X148796289Y-127260000D01*
X148840226Y-127303937D01*
X149009744Y-127417205D01*
X149198102Y-127495226D01*
X149398061Y-127535000D01*
X149601939Y-127535000D01*
X149801898Y-127495226D01*
X149990256Y-127417205D01*
X150159774Y-127303937D01*
X150303937Y-127159774D01*
X150340000Y-127105802D01*
X150340000Y-134894198D01*
X150303937Y-134840226D01*
X150159774Y-134696063D01*
X149990256Y-134582795D01*
X149801898Y-134504774D01*
X149601939Y-134465000D01*
X149398061Y-134465000D01*
X149198102Y-134504774D01*
X149009744Y-134582795D01*
X148840226Y-134696063D01*
X148796289Y-134740000D01*
X146703711Y-134740000D01*
X146659774Y-134696063D01*
X146490256Y-134582795D01*
X146301898Y-134504774D01*
X146101939Y-134465000D01*
X145898061Y-134465000D01*
X145698102Y-134504774D01*
X145509744Y-134582795D01*
X145340226Y-134696063D01*
X145196063Y-134840226D01*
X145082795Y-135009744D01*
X145004774Y-135198102D01*
X144965000Y-135398061D01*
X144965000Y-135601939D01*
X145004774Y-135801898D01*
X145082795Y-135990256D01*
X145196063Y-136159774D01*
X145340226Y-136303937D01*
X145509744Y-136417205D01*
X145698102Y-136495226D01*
X145898061Y-136535000D01*
X146101939Y-136535000D01*
X146301898Y-136495226D01*
X146490256Y-136417205D01*
X146659774Y-136303937D01*
X146703711Y-136260000D01*
X148796289Y-136260000D01*
X148840226Y-136303937D01*
X149009744Y-136417205D01*
X149198102Y-136495226D01*
X149398061Y-136535000D01*
X149601939Y-136535000D01*
X149801898Y-136495226D01*
X149990256Y-136417205D01*
X150159774Y-136303937D01*
X150303937Y-136159774D01*
X150340000Y-136105802D01*
X150340000Y-138474603D01*
X150321831Y-138462463D01*
X150006081Y-138331675D01*
X149670883Y-138265000D01*
X149329117Y-138265000D01*
X148993919Y-138331675D01*
X148678169Y-138462463D01*
X148394002Y-138652337D01*
X148152337Y-138894002D01*
X147962463Y-139178169D01*
X147831675Y-139493919D01*
X147765000Y-139829117D01*
X147765000Y-140170883D01*
X147831675Y-140506081D01*
X147962463Y-140821831D01*
X148152337Y-141105998D01*
X148394002Y-141347663D01*
X148678169Y-141537537D01*
X148993919Y-141668325D01*
X149329117Y-141735000D01*
X149670883Y-141735000D01*
X150006081Y-141668325D01*
X150321831Y-141537537D01*
X150340000Y-141525397D01*
X150340000Y-142467723D01*
X150320898Y-142662540D01*
X150273692Y-142818895D01*
X150197018Y-142963096D01*
X150093792Y-143089664D01*
X149967951Y-143193768D01*
X149824289Y-143271447D01*
X149668271Y-143319742D01*
X149475527Y-143340000D01*
X131532277Y-143340000D01*
X131337460Y-143320898D01*
X131181105Y-143273692D01*
X131036904Y-143197018D01*
X130910336Y-143093792D01*
X130806232Y-142967951D01*
X130728553Y-142824289D01*
X130680258Y-142668271D01*
X130660000Y-142475527D01*
X130660000Y-141525397D01*
X130678169Y-141537537D01*
X130993919Y-141668325D01*
X131329117Y-141735000D01*
X131670883Y-141735000D01*
X132006081Y-141668325D01*
X132321831Y-141537537D01*
X132605998Y-141347663D01*
X132847663Y-141105998D01*
X132965000Y-140930390D01*
X132965000Y-141101939D01*
X133004774Y-141301898D01*
X133082795Y-141490256D01*
X133196063Y-141659774D01*
X133340226Y-141803937D01*
X133509744Y-141917205D01*
X133698102Y-141995226D01*
X133898061Y-142035000D01*
X134101939Y-142035000D01*
X134301898Y-141995226D01*
X134490256Y-141917205D01*
X134659774Y-141803937D01*
X134703711Y-141760000D01*
X145796289Y-141760000D01*
X145840226Y-141803937D01*
X146009744Y-141917205D01*
X146198102Y-141995226D01*
X146398061Y-142035000D01*
X146601939Y-142035000D01*
X146801898Y-141995226D01*
X146990256Y-141917205D01*
X147159774Y-141803937D01*
X147303937Y-141659774D01*
X147417205Y-141490256D01*
X147495226Y-141301898D01*
X147535000Y-141101939D01*
X147535000Y-140898061D01*
X147495226Y-140698102D01*
X147417205Y-140509744D01*
X147303937Y-140340226D01*
X147159774Y-140196063D01*
X146990256Y-140082795D01*
X146801898Y-140004774D01*
X146601939Y-139965000D01*
X146398061Y-139965000D01*
X146198102Y-140004774D01*
X146009744Y-140082795D01*
X145840226Y-140196063D01*
X145796289Y-140240000D01*
X134703711Y-140240000D01*
X134659774Y-140196063D01*
X134490256Y-140082795D01*
X134301898Y-140004774D01*
X134101939Y-139965000D01*
X133898061Y-139965000D01*
X133698102Y-140004774D01*
X133509744Y-140082795D01*
X133340226Y-140196063D01*
X133202620Y-140333669D01*
X133235000Y-140170883D01*
X133235000Y-139829117D01*
X133168325Y-139493919D01*
X133037537Y-139178169D01*
X132847663Y-138894002D01*
X132605998Y-138652337D01*
X132321831Y-138462463D01*
X132006081Y-138331675D01*
X131670883Y-138265000D01*
X131329117Y-138265000D01*
X130993919Y-138331675D01*
X130678169Y-138462463D01*
X130660000Y-138474603D01*
X130660000Y-55525397D01*
X130678169Y-55537537D01*
X130993919Y-55668325D01*
X131329117Y-55735000D01*
X131670883Y-55735000D01*
X132006081Y-55668325D01*
X132321831Y-55537537D01*
X132605998Y-55347663D01*
X132847663Y-55105998D01*
X133037537Y-54821831D01*
X133168325Y-54506081D01*
X133235000Y-54170883D01*
X133235000Y-53829117D01*
X133168325Y-53493919D01*
X133037537Y-53178169D01*
X132847663Y-52894002D01*
X132605998Y-52652337D01*
X132321831Y-52462463D01*
X132006081Y-52331675D01*
X131670883Y-52265000D01*
X131329117Y-52265000D01*
X130993919Y-52331675D01*
X130678169Y-52462463D01*
X130660000Y-52474603D01*
X130660000Y-50750000D01*
X131111928Y-50750000D01*
X131124188Y-50874482D01*
X131160498Y-50994180D01*
X131219463Y-51104494D01*
X131298815Y-51201185D01*
X131395506Y-51280537D01*
X131505820Y-51339502D01*
X131625518Y-51375812D01*
X131750000Y-51388072D01*
X132714250Y-51385000D01*
X132873000Y-51226250D01*
X132873000Y-49627000D01*
X133127000Y-49627000D01*
X133127000Y-51226250D01*
X133285750Y-51385000D01*
X134250000Y-51388072D01*
X134374482Y-51375812D01*
X134494180Y-51339502D01*
X134604494Y-51280537D01*
X134701185Y-51201185D01*
X134780537Y-51104494D01*
X134839502Y-50994180D01*
X134875812Y-50874482D01*
X134888072Y-50750000D01*
X134885000Y-49785750D01*
X134726250Y-49627000D01*
X133127000Y-49627000D01*
X132873000Y-49627000D01*
X131273750Y-49627000D01*
X131115000Y-49785750D01*
X131111928Y-50750000D01*
X130660000Y-50750000D01*
X130660000Y-48250000D01*
X131111928Y-48250000D01*
X131115000Y-49214250D01*
X131273750Y-49373000D01*
X132873000Y-49373000D01*
X132873000Y-47773750D01*
X133127000Y-47773750D01*
X133127000Y-49373000D01*
X134726250Y-49373000D01*
X134784906Y-49314344D01*
X136115000Y-49314344D01*
X136115000Y-49685656D01*
X136187439Y-50049834D01*
X136329534Y-50392882D01*
X136535825Y-50701618D01*
X136798382Y-50964175D01*
X137107118Y-51170466D01*
X137450166Y-51312561D01*
X137814344Y-51385000D01*
X138185656Y-51385000D01*
X138549834Y-51312561D01*
X138682717Y-51257519D01*
X140240001Y-52814803D01*
X140240000Y-53296289D01*
X140196063Y-53340226D01*
X140082795Y-53509744D01*
X140004774Y-53698102D01*
X139965000Y-53898061D01*
X139965000Y-54101939D01*
X140004774Y-54301898D01*
X140082795Y-54490256D01*
X140196063Y-54659774D01*
X140340226Y-54803937D01*
X140509744Y-54917205D01*
X140698102Y-54995226D01*
X140898061Y-55035000D01*
X141101939Y-55035000D01*
X141301898Y-54995226D01*
X141490256Y-54917205D01*
X141659774Y-54803937D01*
X141803937Y-54659774D01*
X141917205Y-54490256D01*
X141995226Y-54301898D01*
X142035000Y-54101939D01*
X142035000Y-53898061D01*
X141995226Y-53698102D01*
X141917205Y-53509744D01*
X141803937Y-53340226D01*
X141760000Y-53296289D01*
X141760000Y-52537325D01*
X141763676Y-52500000D01*
X141760000Y-52462675D01*
X141760000Y-52462667D01*
X141749003Y-52351014D01*
X141705546Y-52207753D01*
X141634974Y-52075724D01*
X141540001Y-51959999D01*
X141511003Y-51936201D01*
X139757519Y-50182717D01*
X139812561Y-50049834D01*
X139885000Y-49685656D01*
X139885000Y-49314344D01*
X141115000Y-49314344D01*
X141115000Y-49685656D01*
X141187439Y-50049834D01*
X141329534Y-50392882D01*
X141535825Y-50701618D01*
X141798382Y-50964175D01*
X142107118Y-51170466D01*
X142450166Y-51312561D01*
X142814344Y-51385000D01*
X143185656Y-51385000D01*
X143549834Y-51312561D01*
X143892882Y-51170466D01*
X144201618Y-50964175D01*
X144464175Y-50701618D01*
X144670466Y-50392882D01*
X144812561Y-50049834D01*
X144885000Y-49685656D01*
X144885000Y-49314344D01*
X146115000Y-49314344D01*
X146115000Y-49685656D01*
X146187439Y-50049834D01*
X146329534Y-50392882D01*
X146535825Y-50701618D01*
X146798382Y-50964175D01*
X147107118Y-51170466D01*
X147450166Y-51312561D01*
X147814344Y-51385000D01*
X148185656Y-51385000D01*
X148549834Y-51312561D01*
X148892882Y-51170466D01*
X149201618Y-50964175D01*
X149464175Y-50701618D01*
X149670466Y-50392882D01*
X149812561Y-50049834D01*
X149885000Y-49685656D01*
X149885000Y-49314344D01*
X149812561Y-48950166D01*
X149670466Y-48607118D01*
X149464175Y-48298382D01*
X149201618Y-48035825D01*
X148892882Y-47829534D01*
X148549834Y-47687439D01*
X148185656Y-47615000D01*
X147814344Y-47615000D01*
X147450166Y-47687439D01*
X147107118Y-47829534D01*
X146798382Y-48035825D01*
X146535825Y-48298382D01*
X146329534Y-48607118D01*
X146187439Y-48950166D01*
X146115000Y-49314344D01*
X144885000Y-49314344D01*
X144812561Y-48950166D01*
X144670466Y-48607118D01*
X144464175Y-48298382D01*
X144201618Y-48035825D01*
X143892882Y-47829534D01*
X143549834Y-47687439D01*
X143185656Y-47615000D01*
X142814344Y-47615000D01*
X142450166Y-47687439D01*
X142107118Y-47829534D01*
X141798382Y-48035825D01*
X141535825Y-48298382D01*
X141329534Y-48607118D01*
X141187439Y-48950166D01*
X141115000Y-49314344D01*
X139885000Y-49314344D01*
X139812561Y-48950166D01*
X139670466Y-48607118D01*
X139464175Y-48298382D01*
X139201618Y-48035825D01*
X138892882Y-47829534D01*
X138549834Y-47687439D01*
X138185656Y-47615000D01*
X137814344Y-47615000D01*
X137450166Y-47687439D01*
X137107118Y-47829534D01*
X136798382Y-48035825D01*
X136535825Y-48298382D01*
X136329534Y-48607118D01*
X136187439Y-48950166D01*
X136115000Y-49314344D01*
X134784906Y-49314344D01*
X134885000Y-49214250D01*
X134888072Y-48250000D01*
X134875812Y-48125518D01*
X134839502Y-48005820D01*
X134780537Y-47895506D01*
X134701185Y-47798815D01*
X134604494Y-47719463D01*
X134494180Y-47660498D01*
X134374482Y-47624188D01*
X134250000Y-47611928D01*
X133285750Y-47615000D01*
X133127000Y-47773750D01*
X132873000Y-47773750D01*
X132714250Y-47615000D01*
X131750000Y-47611928D01*
X131625518Y-47624188D01*
X131505820Y-47660498D01*
X131395506Y-47719463D01*
X131298815Y-47798815D01*
X131219463Y-47895506D01*
X131160498Y-48005820D01*
X131124188Y-48125518D01*
X131111928Y-48250000D01*
X130660000Y-48250000D01*
X130660000Y-46032277D01*
X130679102Y-45837460D01*
X130726308Y-45681106D01*
X130802982Y-45536904D01*
X130906207Y-45410337D01*
X131032051Y-45306231D01*
X131175711Y-45228553D01*
X131331729Y-45180258D01*
X131524473Y-45160000D01*
X149467723Y-45160000D01*
X149662540Y-45179102D01*
M02*
