M48
; DRILL file {KiCad 5.1.0} date Thu 04 Apr 2019 10:18:16 PM CDT
; FORMAT={-:-/ absolute / inch / decimal}
; #@! TF.CreationDate,2019-04-04T22:18:16-05:00
; #@! TF.GenerationSoftware,Kicad,Pcbnew,5.1.0
; #@! TF.FileFunction,Plated,1,2,PTH
FMAT,2
INCH
T1C0.0157
T2C0.0512
T3C0.0787
%
G90
G05
T1
X5.2756Y-2.6575
X5.2756Y-3.0118
X5.2756Y-3.0118
X5.2756Y-3.3661
X5.2756Y-3.7205
X5.2756Y-4.0748
X5.2756Y-4.4291
X5.2756Y-4.7835
X5.2756Y-5.1378
X5.2756Y-5.4921
X5.2756Y-5.5512
X5.315Y-2.3031
X5.5512Y-2.126
X5.7087Y-5.5118
X5.748Y-2.5
X5.748Y-2.8543
X5.748Y-3.2283
X5.748Y-3.563
X5.748Y-3.9173
X5.748Y-4.626
X5.748Y-4.9803
X5.748Y-5.3346
X5.7677Y-2.3425
X5.7677Y-2.6969
X5.7677Y-3.0512
X5.7677Y-3.4055
X5.7677Y-3.7598
X5.7677Y-4.1142
X5.7677Y-4.2717
X5.7677Y-4.4685
X5.7677Y-4.8228
X5.7677Y-5.1772
X5.7677Y-5.5512
X5.8858Y-2.5
X5.8858Y-2.8543
X5.8858Y-3.2283
X5.8858Y-3.563
X5.8858Y-3.8976
X5.8858Y-4.2717
X5.8858Y-4.626
X5.8858Y-4.9803
X5.8858Y-5.3346
T2
X5.2362Y-1.9488
X5.4331Y-1.9488
X5.6299Y-1.9488
X5.8268Y-1.9488
T3
X5.1772Y-5.5118
X5.8858Y-2.126
X5.1772Y-2.126
X5.8858Y-5.5118
T0
M30
