G04 #@! TF.GenerationSoftware,KiCad,Pcbnew,5.1.0*
G04 #@! TF.CreationDate,2019-04-04T22:18:19-05:00*
G04 #@! TF.ProjectId,Strips,53747269-7073-42e6-9b69-6361645f7063,rev?*
G04 #@! TF.SameCoordinates,Original*
G04 #@! TF.FileFunction,Soldermask,Top*
G04 #@! TF.FilePolarity,Negative*
%FSLAX46Y46*%
G04 Gerber Fmt 4.6, Leading zero omitted, Abs format (unit mm)*
G04 Created by KiCad (PCBNEW 5.1.0) date 2019-04-04 22:18:19*
%MOMM*%
%LPD*%
G04 APERTURE LIST*
%ADD10C,0.100000*%
G04 APERTURE END LIST*
D10*
G36*
X147901000Y-143351000D02*
G01*
X146799000Y-143351000D01*
X146799000Y-141649000D01*
X147901000Y-141649000D01*
X147901000Y-143351000D01*
X147901000Y-143351000D01*
G37*
G36*
X134026000Y-143351000D02*
G01*
X132924000Y-143351000D01*
X132924000Y-141649000D01*
X134026000Y-141649000D01*
X134026000Y-143351000D01*
X134026000Y-143351000D01*
G37*
G36*
X135626000Y-143351000D02*
G01*
X134524000Y-143351000D01*
X134524000Y-141649000D01*
X135626000Y-141649000D01*
X135626000Y-143351000D01*
X135626000Y-143351000D01*
G37*
G36*
X137226000Y-143351000D02*
G01*
X136124000Y-143351000D01*
X136124000Y-141649000D01*
X137226000Y-141649000D01*
X137226000Y-143351000D01*
X137226000Y-143351000D01*
G37*
G36*
X146301000Y-143351000D02*
G01*
X145199000Y-143351000D01*
X145199000Y-141649000D01*
X146301000Y-141649000D01*
X146301000Y-143351000D01*
X146301000Y-143351000D01*
G37*
G36*
X144701000Y-143351000D02*
G01*
X143599000Y-143351000D01*
X143599000Y-141649000D01*
X144701000Y-141649000D01*
X144701000Y-143351000D01*
X144701000Y-143351000D01*
G37*
G36*
X142176000Y-143051000D02*
G01*
X140824000Y-143051000D01*
X140824000Y-141949000D01*
X142176000Y-141949000D01*
X142176000Y-143051000D01*
X142176000Y-143051000D01*
G37*
G36*
X131724549Y-138871116D02*
G01*
X131835734Y-138893232D01*
X132045203Y-138979997D01*
X132233720Y-139105960D01*
X132394040Y-139266280D01*
X132520003Y-139454797D01*
X132606768Y-139664266D01*
X132651000Y-139886636D01*
X132651000Y-140113364D01*
X132606768Y-140335734D01*
X132520003Y-140545203D01*
X132394040Y-140733720D01*
X132233720Y-140894040D01*
X132045203Y-141020003D01*
X131835734Y-141106768D01*
X131724549Y-141128884D01*
X131613365Y-141151000D01*
X131386635Y-141151000D01*
X131275451Y-141128884D01*
X131164266Y-141106768D01*
X130954797Y-141020003D01*
X130766280Y-140894040D01*
X130605960Y-140733720D01*
X130479997Y-140545203D01*
X130393232Y-140335734D01*
X130349000Y-140113364D01*
X130349000Y-139886636D01*
X130393232Y-139664266D01*
X130479997Y-139454797D01*
X130605960Y-139266280D01*
X130766280Y-139105960D01*
X130954797Y-138979997D01*
X131164266Y-138893232D01*
X131275451Y-138871116D01*
X131386635Y-138849000D01*
X131613365Y-138849000D01*
X131724549Y-138871116D01*
X131724549Y-138871116D01*
G37*
G36*
X149724549Y-138871116D02*
G01*
X149835734Y-138893232D01*
X150045203Y-138979997D01*
X150233720Y-139105960D01*
X150394040Y-139266280D01*
X150520003Y-139454797D01*
X150606768Y-139664266D01*
X150651000Y-139886636D01*
X150651000Y-140113364D01*
X150606768Y-140335734D01*
X150520003Y-140545203D01*
X150394040Y-140733720D01*
X150233720Y-140894040D01*
X150045203Y-141020003D01*
X149835734Y-141106768D01*
X149724549Y-141128884D01*
X149613365Y-141151000D01*
X149386635Y-141151000D01*
X149275451Y-141128884D01*
X149164266Y-141106768D01*
X148954797Y-141020003D01*
X148766280Y-140894040D01*
X148605960Y-140733720D01*
X148479997Y-140545203D01*
X148393232Y-140335734D01*
X148349000Y-140113364D01*
X148349000Y-139886636D01*
X148393232Y-139664266D01*
X148479997Y-139454797D01*
X148605960Y-139266280D01*
X148766280Y-139105960D01*
X148954797Y-138979997D01*
X149164266Y-138893232D01*
X149275451Y-138871116D01*
X149386635Y-138849000D01*
X149613365Y-138849000D01*
X149724549Y-138871116D01*
X149724549Y-138871116D01*
G37*
G36*
X142176000Y-141051000D02*
G01*
X140824000Y-141051000D01*
X140824000Y-139949000D01*
X142176000Y-139949000D01*
X142176000Y-141051000D01*
X142176000Y-141051000D01*
G37*
G36*
X139676000Y-138551000D02*
G01*
X138324000Y-138551000D01*
X138324000Y-137449000D01*
X139676000Y-137449000D01*
X139676000Y-138551000D01*
X139676000Y-138551000D01*
G37*
G36*
X134026000Y-138351000D02*
G01*
X132924000Y-138351000D01*
X132924000Y-136649000D01*
X134026000Y-136649000D01*
X134026000Y-138351000D01*
X134026000Y-138351000D01*
G37*
G36*
X147901000Y-138351000D02*
G01*
X146799000Y-138351000D01*
X146799000Y-136649000D01*
X147901000Y-136649000D01*
X147901000Y-138351000D01*
X147901000Y-138351000D01*
G37*
G36*
X144701000Y-138351000D02*
G01*
X143599000Y-138351000D01*
X143599000Y-136649000D01*
X144701000Y-136649000D01*
X144701000Y-138351000D01*
X144701000Y-138351000D01*
G37*
G36*
X146301000Y-138351000D02*
G01*
X145199000Y-138351000D01*
X145199000Y-136649000D01*
X146301000Y-136649000D01*
X146301000Y-138351000D01*
X146301000Y-138351000D01*
G37*
G36*
X137226000Y-138351000D02*
G01*
X136124000Y-138351000D01*
X136124000Y-136649000D01*
X137226000Y-136649000D01*
X137226000Y-138351000D01*
X137226000Y-138351000D01*
G37*
G36*
X135626000Y-138351000D02*
G01*
X134524000Y-138351000D01*
X134524000Y-136649000D01*
X135626000Y-136649000D01*
X135626000Y-138351000D01*
X135626000Y-138351000D01*
G37*
G36*
X139676000Y-136551000D02*
G01*
X138324000Y-136551000D01*
X138324000Y-135449000D01*
X139676000Y-135449000D01*
X139676000Y-136551000D01*
X139676000Y-136551000D01*
G37*
G36*
X142176000Y-136051000D02*
G01*
X140824000Y-136051000D01*
X140824000Y-134949000D01*
X142176000Y-134949000D01*
X142176000Y-136051000D01*
X142176000Y-136051000D01*
G37*
G36*
X134026000Y-134351000D02*
G01*
X132924000Y-134351000D01*
X132924000Y-132649000D01*
X134026000Y-132649000D01*
X134026000Y-134351000D01*
X134026000Y-134351000D01*
G37*
G36*
X135626000Y-134351000D02*
G01*
X134524000Y-134351000D01*
X134524000Y-132649000D01*
X135626000Y-132649000D01*
X135626000Y-134351000D01*
X135626000Y-134351000D01*
G37*
G36*
X137226000Y-134351000D02*
G01*
X136124000Y-134351000D01*
X136124000Y-132649000D01*
X137226000Y-132649000D01*
X137226000Y-134351000D01*
X137226000Y-134351000D01*
G37*
G36*
X144701000Y-134351000D02*
G01*
X143599000Y-134351000D01*
X143599000Y-132649000D01*
X144701000Y-132649000D01*
X144701000Y-134351000D01*
X144701000Y-134351000D01*
G37*
G36*
X147901000Y-134351000D02*
G01*
X146799000Y-134351000D01*
X146799000Y-132649000D01*
X147901000Y-132649000D01*
X147901000Y-134351000D01*
X147901000Y-134351000D01*
G37*
G36*
X146301000Y-134351000D02*
G01*
X145199000Y-134351000D01*
X145199000Y-132649000D01*
X146301000Y-132649000D01*
X146301000Y-134351000D01*
X146301000Y-134351000D01*
G37*
G36*
X142176000Y-134051000D02*
G01*
X140824000Y-134051000D01*
X140824000Y-132949000D01*
X142176000Y-132949000D01*
X142176000Y-134051000D01*
X142176000Y-134051000D01*
G37*
G36*
X139676000Y-129551000D02*
G01*
X138324000Y-129551000D01*
X138324000Y-128449000D01*
X139676000Y-128449000D01*
X139676000Y-129551000D01*
X139676000Y-129551000D01*
G37*
G36*
X144701000Y-129351000D02*
G01*
X143599000Y-129351000D01*
X143599000Y-127649000D01*
X144701000Y-127649000D01*
X144701000Y-129351000D01*
X144701000Y-129351000D01*
G37*
G36*
X146301000Y-129351000D02*
G01*
X145199000Y-129351000D01*
X145199000Y-127649000D01*
X146301000Y-127649000D01*
X146301000Y-129351000D01*
X146301000Y-129351000D01*
G37*
G36*
X147901000Y-129351000D02*
G01*
X146799000Y-129351000D01*
X146799000Y-127649000D01*
X147901000Y-127649000D01*
X147901000Y-129351000D01*
X147901000Y-129351000D01*
G37*
G36*
X134026000Y-129351000D02*
G01*
X132924000Y-129351000D01*
X132924000Y-127649000D01*
X134026000Y-127649000D01*
X134026000Y-129351000D01*
X134026000Y-129351000D01*
G37*
G36*
X135626000Y-129351000D02*
G01*
X134524000Y-129351000D01*
X134524000Y-127649000D01*
X135626000Y-127649000D01*
X135626000Y-129351000D01*
X135626000Y-129351000D01*
G37*
G36*
X137226000Y-129351000D02*
G01*
X136124000Y-129351000D01*
X136124000Y-127649000D01*
X137226000Y-127649000D01*
X137226000Y-129351000D01*
X137226000Y-129351000D01*
G37*
G36*
X139676000Y-127551000D02*
G01*
X138324000Y-127551000D01*
X138324000Y-126449000D01*
X139676000Y-126449000D01*
X139676000Y-127551000D01*
X139676000Y-127551000D01*
G37*
G36*
X142176000Y-127051000D02*
G01*
X140824000Y-127051000D01*
X140824000Y-125949000D01*
X142176000Y-125949000D01*
X142176000Y-127051000D01*
X142176000Y-127051000D01*
G37*
G36*
X135626000Y-125351000D02*
G01*
X134524000Y-125351000D01*
X134524000Y-123649000D01*
X135626000Y-123649000D01*
X135626000Y-125351000D01*
X135626000Y-125351000D01*
G37*
G36*
X134026000Y-125351000D02*
G01*
X132924000Y-125351000D01*
X132924000Y-123649000D01*
X134026000Y-123649000D01*
X134026000Y-125351000D01*
X134026000Y-125351000D01*
G37*
G36*
X137226000Y-125351000D02*
G01*
X136124000Y-125351000D01*
X136124000Y-123649000D01*
X137226000Y-123649000D01*
X137226000Y-125351000D01*
X137226000Y-125351000D01*
G37*
G36*
X144701000Y-125351000D02*
G01*
X143599000Y-125351000D01*
X143599000Y-123649000D01*
X144701000Y-123649000D01*
X144701000Y-125351000D01*
X144701000Y-125351000D01*
G37*
G36*
X146301000Y-125351000D02*
G01*
X145199000Y-125351000D01*
X145199000Y-123649000D01*
X146301000Y-123649000D01*
X146301000Y-125351000D01*
X146301000Y-125351000D01*
G37*
G36*
X147901000Y-125351000D02*
G01*
X146799000Y-125351000D01*
X146799000Y-123649000D01*
X147901000Y-123649000D01*
X147901000Y-125351000D01*
X147901000Y-125351000D01*
G37*
G36*
X142176000Y-125051000D02*
G01*
X140824000Y-125051000D01*
X140824000Y-123949000D01*
X142176000Y-123949000D01*
X142176000Y-125051000D01*
X142176000Y-125051000D01*
G37*
G36*
X139676000Y-120551000D02*
G01*
X138324000Y-120551000D01*
X138324000Y-119449000D01*
X139676000Y-119449000D01*
X139676000Y-120551000D01*
X139676000Y-120551000D01*
G37*
G36*
X147901000Y-120351000D02*
G01*
X146799000Y-120351000D01*
X146799000Y-118649000D01*
X147901000Y-118649000D01*
X147901000Y-120351000D01*
X147901000Y-120351000D01*
G37*
G36*
X146301000Y-120351000D02*
G01*
X145199000Y-120351000D01*
X145199000Y-118649000D01*
X146301000Y-118649000D01*
X146301000Y-120351000D01*
X146301000Y-120351000D01*
G37*
G36*
X144701000Y-120351000D02*
G01*
X143599000Y-120351000D01*
X143599000Y-118649000D01*
X144701000Y-118649000D01*
X144701000Y-120351000D01*
X144701000Y-120351000D01*
G37*
G36*
X135626000Y-120351000D02*
G01*
X134524000Y-120351000D01*
X134524000Y-118649000D01*
X135626000Y-118649000D01*
X135626000Y-120351000D01*
X135626000Y-120351000D01*
G37*
G36*
X137226000Y-120351000D02*
G01*
X136124000Y-120351000D01*
X136124000Y-118649000D01*
X137226000Y-118649000D01*
X137226000Y-120351000D01*
X137226000Y-120351000D01*
G37*
G36*
X134026000Y-120351000D02*
G01*
X132924000Y-120351000D01*
X132924000Y-118649000D01*
X134026000Y-118649000D01*
X134026000Y-120351000D01*
X134026000Y-120351000D01*
G37*
G36*
X139676000Y-118551000D02*
G01*
X138324000Y-118551000D01*
X138324000Y-117449000D01*
X139676000Y-117449000D01*
X139676000Y-118551000D01*
X139676000Y-118551000D01*
G37*
G36*
X142176000Y-118051000D02*
G01*
X140824000Y-118051000D01*
X140824000Y-116949000D01*
X142176000Y-116949000D01*
X142176000Y-118051000D01*
X142176000Y-118051000D01*
G37*
G36*
X135626000Y-116351000D02*
G01*
X134524000Y-116351000D01*
X134524000Y-114649000D01*
X135626000Y-114649000D01*
X135626000Y-116351000D01*
X135626000Y-116351000D01*
G37*
G36*
X147901000Y-116351000D02*
G01*
X146799000Y-116351000D01*
X146799000Y-114649000D01*
X147901000Y-114649000D01*
X147901000Y-116351000D01*
X147901000Y-116351000D01*
G37*
G36*
X146301000Y-116351000D02*
G01*
X145199000Y-116351000D01*
X145199000Y-114649000D01*
X146301000Y-114649000D01*
X146301000Y-116351000D01*
X146301000Y-116351000D01*
G37*
G36*
X144701000Y-116351000D02*
G01*
X143599000Y-116351000D01*
X143599000Y-114649000D01*
X144701000Y-114649000D01*
X144701000Y-116351000D01*
X144701000Y-116351000D01*
G37*
G36*
X137226000Y-116351000D02*
G01*
X136124000Y-116351000D01*
X136124000Y-114649000D01*
X137226000Y-114649000D01*
X137226000Y-116351000D01*
X137226000Y-116351000D01*
G37*
G36*
X134026000Y-116351000D02*
G01*
X132924000Y-116351000D01*
X132924000Y-114649000D01*
X134026000Y-114649000D01*
X134026000Y-116351000D01*
X134026000Y-116351000D01*
G37*
G36*
X142176000Y-116051000D02*
G01*
X140824000Y-116051000D01*
X140824000Y-114949000D01*
X142176000Y-114949000D01*
X142176000Y-116051000D01*
X142176000Y-116051000D01*
G37*
G36*
X139676000Y-111551000D02*
G01*
X138324000Y-111551000D01*
X138324000Y-110449000D01*
X139676000Y-110449000D01*
X139676000Y-111551000D01*
X139676000Y-111551000D01*
G37*
G36*
X137226000Y-111351000D02*
G01*
X136124000Y-111351000D01*
X136124000Y-109649000D01*
X137226000Y-109649000D01*
X137226000Y-111351000D01*
X137226000Y-111351000D01*
G37*
G36*
X134026000Y-111351000D02*
G01*
X132924000Y-111351000D01*
X132924000Y-109649000D01*
X134026000Y-109649000D01*
X134026000Y-111351000D01*
X134026000Y-111351000D01*
G37*
G36*
X135626000Y-111351000D02*
G01*
X134524000Y-111351000D01*
X134524000Y-109649000D01*
X135626000Y-109649000D01*
X135626000Y-111351000D01*
X135626000Y-111351000D01*
G37*
G36*
X147901000Y-111351000D02*
G01*
X146799000Y-111351000D01*
X146799000Y-109649000D01*
X147901000Y-109649000D01*
X147901000Y-111351000D01*
X147901000Y-111351000D01*
G37*
G36*
X146301000Y-111351000D02*
G01*
X145199000Y-111351000D01*
X145199000Y-109649000D01*
X146301000Y-109649000D01*
X146301000Y-111351000D01*
X146301000Y-111351000D01*
G37*
G36*
X144701000Y-111351000D02*
G01*
X143599000Y-111351000D01*
X143599000Y-109649000D01*
X144701000Y-109649000D01*
X144701000Y-111351000D01*
X144701000Y-111351000D01*
G37*
G36*
X139676000Y-109551000D02*
G01*
X138324000Y-109551000D01*
X138324000Y-108449000D01*
X139676000Y-108449000D01*
X139676000Y-109551000D01*
X139676000Y-109551000D01*
G37*
G36*
X142176000Y-109051000D02*
G01*
X140824000Y-109051000D01*
X140824000Y-107949000D01*
X142176000Y-107949000D01*
X142176000Y-109051000D01*
X142176000Y-109051000D01*
G37*
G36*
X147901000Y-107351000D02*
G01*
X146799000Y-107351000D01*
X146799000Y-105649000D01*
X147901000Y-105649000D01*
X147901000Y-107351000D01*
X147901000Y-107351000D01*
G37*
G36*
X144701000Y-107351000D02*
G01*
X143599000Y-107351000D01*
X143599000Y-105649000D01*
X144701000Y-105649000D01*
X144701000Y-107351000D01*
X144701000Y-107351000D01*
G37*
G36*
X137226000Y-107351000D02*
G01*
X136124000Y-107351000D01*
X136124000Y-105649000D01*
X137226000Y-105649000D01*
X137226000Y-107351000D01*
X137226000Y-107351000D01*
G37*
G36*
X135626000Y-107351000D02*
G01*
X134524000Y-107351000D01*
X134524000Y-105649000D01*
X135626000Y-105649000D01*
X135626000Y-107351000D01*
X135626000Y-107351000D01*
G37*
G36*
X134026000Y-107351000D02*
G01*
X132924000Y-107351000D01*
X132924000Y-105649000D01*
X134026000Y-105649000D01*
X134026000Y-107351000D01*
X134026000Y-107351000D01*
G37*
G36*
X146301000Y-107351000D02*
G01*
X145199000Y-107351000D01*
X145199000Y-105649000D01*
X146301000Y-105649000D01*
X146301000Y-107351000D01*
X146301000Y-107351000D01*
G37*
G36*
X142176000Y-107051000D02*
G01*
X140824000Y-107051000D01*
X140824000Y-105949000D01*
X142176000Y-105949000D01*
X142176000Y-107051000D01*
X142176000Y-107051000D01*
G37*
G36*
X139676000Y-102551000D02*
G01*
X138324000Y-102551000D01*
X138324000Y-101449000D01*
X139676000Y-101449000D01*
X139676000Y-102551000D01*
X139676000Y-102551000D01*
G37*
G36*
X144701000Y-102351000D02*
G01*
X143599000Y-102351000D01*
X143599000Y-100649000D01*
X144701000Y-100649000D01*
X144701000Y-102351000D01*
X144701000Y-102351000D01*
G37*
G36*
X134026000Y-102351000D02*
G01*
X132924000Y-102351000D01*
X132924000Y-100649000D01*
X134026000Y-100649000D01*
X134026000Y-102351000D01*
X134026000Y-102351000D01*
G37*
G36*
X147901000Y-102351000D02*
G01*
X146799000Y-102351000D01*
X146799000Y-100649000D01*
X147901000Y-100649000D01*
X147901000Y-102351000D01*
X147901000Y-102351000D01*
G37*
G36*
X146301000Y-102351000D02*
G01*
X145199000Y-102351000D01*
X145199000Y-100649000D01*
X146301000Y-100649000D01*
X146301000Y-102351000D01*
X146301000Y-102351000D01*
G37*
G36*
X137226000Y-102351000D02*
G01*
X136124000Y-102351000D01*
X136124000Y-100649000D01*
X137226000Y-100649000D01*
X137226000Y-102351000D01*
X137226000Y-102351000D01*
G37*
G36*
X135626000Y-102351000D02*
G01*
X134524000Y-102351000D01*
X134524000Y-100649000D01*
X135626000Y-100649000D01*
X135626000Y-102351000D01*
X135626000Y-102351000D01*
G37*
G36*
X139676000Y-100551000D02*
G01*
X138324000Y-100551000D01*
X138324000Y-99449000D01*
X139676000Y-99449000D01*
X139676000Y-100551000D01*
X139676000Y-100551000D01*
G37*
G36*
X142176000Y-100051000D02*
G01*
X140824000Y-100051000D01*
X140824000Y-98949000D01*
X142176000Y-98949000D01*
X142176000Y-100051000D01*
X142176000Y-100051000D01*
G37*
G36*
X144701000Y-98351000D02*
G01*
X143599000Y-98351000D01*
X143599000Y-96649000D01*
X144701000Y-96649000D01*
X144701000Y-98351000D01*
X144701000Y-98351000D01*
G37*
G36*
X146301000Y-98351000D02*
G01*
X145199000Y-98351000D01*
X145199000Y-96649000D01*
X146301000Y-96649000D01*
X146301000Y-98351000D01*
X146301000Y-98351000D01*
G37*
G36*
X137226000Y-98351000D02*
G01*
X136124000Y-98351000D01*
X136124000Y-96649000D01*
X137226000Y-96649000D01*
X137226000Y-98351000D01*
X137226000Y-98351000D01*
G37*
G36*
X147901000Y-98351000D02*
G01*
X146799000Y-98351000D01*
X146799000Y-96649000D01*
X147901000Y-96649000D01*
X147901000Y-98351000D01*
X147901000Y-98351000D01*
G37*
G36*
X134026000Y-98351000D02*
G01*
X132924000Y-98351000D01*
X132924000Y-96649000D01*
X134026000Y-96649000D01*
X134026000Y-98351000D01*
X134026000Y-98351000D01*
G37*
G36*
X135626000Y-98351000D02*
G01*
X134524000Y-98351000D01*
X134524000Y-96649000D01*
X135626000Y-96649000D01*
X135626000Y-98351000D01*
X135626000Y-98351000D01*
G37*
G36*
X142176000Y-98051000D02*
G01*
X140824000Y-98051000D01*
X140824000Y-96949000D01*
X142176000Y-96949000D01*
X142176000Y-98051000D01*
X142176000Y-98051000D01*
G37*
G36*
X139676000Y-93551000D02*
G01*
X138324000Y-93551000D01*
X138324000Y-92449000D01*
X139676000Y-92449000D01*
X139676000Y-93551000D01*
X139676000Y-93551000D01*
G37*
G36*
X146301000Y-93351000D02*
G01*
X145199000Y-93351000D01*
X145199000Y-91649000D01*
X146301000Y-91649000D01*
X146301000Y-93351000D01*
X146301000Y-93351000D01*
G37*
G36*
X147901000Y-93351000D02*
G01*
X146799000Y-93351000D01*
X146799000Y-91649000D01*
X147901000Y-91649000D01*
X147901000Y-93351000D01*
X147901000Y-93351000D01*
G37*
G36*
X144701000Y-93351000D02*
G01*
X143599000Y-93351000D01*
X143599000Y-91649000D01*
X144701000Y-91649000D01*
X144701000Y-93351000D01*
X144701000Y-93351000D01*
G37*
G36*
X137226000Y-93351000D02*
G01*
X136124000Y-93351000D01*
X136124000Y-91649000D01*
X137226000Y-91649000D01*
X137226000Y-93351000D01*
X137226000Y-93351000D01*
G37*
G36*
X135626000Y-93351000D02*
G01*
X134524000Y-93351000D01*
X134524000Y-91649000D01*
X135626000Y-91649000D01*
X135626000Y-93351000D01*
X135626000Y-93351000D01*
G37*
G36*
X134026000Y-93351000D02*
G01*
X132924000Y-93351000D01*
X132924000Y-91649000D01*
X134026000Y-91649000D01*
X134026000Y-93351000D01*
X134026000Y-93351000D01*
G37*
G36*
X139676000Y-91551000D02*
G01*
X138324000Y-91551000D01*
X138324000Y-90449000D01*
X139676000Y-90449000D01*
X139676000Y-91551000D01*
X139676000Y-91551000D01*
G37*
G36*
X142176000Y-91051000D02*
G01*
X140824000Y-91051000D01*
X140824000Y-89949000D01*
X142176000Y-89949000D01*
X142176000Y-91051000D01*
X142176000Y-91051000D01*
G37*
G36*
X146301000Y-89351000D02*
G01*
X145199000Y-89351000D01*
X145199000Y-87649000D01*
X146301000Y-87649000D01*
X146301000Y-89351000D01*
X146301000Y-89351000D01*
G37*
G36*
X147901000Y-89351000D02*
G01*
X146799000Y-89351000D01*
X146799000Y-87649000D01*
X147901000Y-87649000D01*
X147901000Y-89351000D01*
X147901000Y-89351000D01*
G37*
G36*
X144701000Y-89351000D02*
G01*
X143599000Y-89351000D01*
X143599000Y-87649000D01*
X144701000Y-87649000D01*
X144701000Y-89351000D01*
X144701000Y-89351000D01*
G37*
G36*
X137226000Y-89351000D02*
G01*
X136124000Y-89351000D01*
X136124000Y-87649000D01*
X137226000Y-87649000D01*
X137226000Y-89351000D01*
X137226000Y-89351000D01*
G37*
G36*
X135626000Y-89351000D02*
G01*
X134524000Y-89351000D01*
X134524000Y-87649000D01*
X135626000Y-87649000D01*
X135626000Y-89351000D01*
X135626000Y-89351000D01*
G37*
G36*
X134026000Y-89351000D02*
G01*
X132924000Y-89351000D01*
X132924000Y-87649000D01*
X134026000Y-87649000D01*
X134026000Y-89351000D01*
X134026000Y-89351000D01*
G37*
G36*
X142176000Y-89051000D02*
G01*
X140824000Y-89051000D01*
X140824000Y-87949000D01*
X142176000Y-87949000D01*
X142176000Y-89051000D01*
X142176000Y-89051000D01*
G37*
G36*
X139676000Y-84551000D02*
G01*
X138324000Y-84551000D01*
X138324000Y-83449000D01*
X139676000Y-83449000D01*
X139676000Y-84551000D01*
X139676000Y-84551000D01*
G37*
G36*
X147901000Y-84351000D02*
G01*
X146799000Y-84351000D01*
X146799000Y-82649000D01*
X147901000Y-82649000D01*
X147901000Y-84351000D01*
X147901000Y-84351000D01*
G37*
G36*
X146301000Y-84351000D02*
G01*
X145199000Y-84351000D01*
X145199000Y-82649000D01*
X146301000Y-82649000D01*
X146301000Y-84351000D01*
X146301000Y-84351000D01*
G37*
G36*
X137226000Y-84351000D02*
G01*
X136124000Y-84351000D01*
X136124000Y-82649000D01*
X137226000Y-82649000D01*
X137226000Y-84351000D01*
X137226000Y-84351000D01*
G37*
G36*
X135626000Y-84351000D02*
G01*
X134524000Y-84351000D01*
X134524000Y-82649000D01*
X135626000Y-82649000D01*
X135626000Y-84351000D01*
X135626000Y-84351000D01*
G37*
G36*
X134026000Y-84351000D02*
G01*
X132924000Y-84351000D01*
X132924000Y-82649000D01*
X134026000Y-82649000D01*
X134026000Y-84351000D01*
X134026000Y-84351000D01*
G37*
G36*
X144701000Y-84351000D02*
G01*
X143599000Y-84351000D01*
X143599000Y-82649000D01*
X144701000Y-82649000D01*
X144701000Y-84351000D01*
X144701000Y-84351000D01*
G37*
G36*
X139676000Y-82551000D02*
G01*
X138324000Y-82551000D01*
X138324000Y-81449000D01*
X139676000Y-81449000D01*
X139676000Y-82551000D01*
X139676000Y-82551000D01*
G37*
G36*
X142176000Y-82051000D02*
G01*
X140824000Y-82051000D01*
X140824000Y-80949000D01*
X142176000Y-80949000D01*
X142176000Y-82051000D01*
X142176000Y-82051000D01*
G37*
G36*
X146301000Y-80351000D02*
G01*
X145199000Y-80351000D01*
X145199000Y-78649000D01*
X146301000Y-78649000D01*
X146301000Y-80351000D01*
X146301000Y-80351000D01*
G37*
G36*
X134026000Y-80351000D02*
G01*
X132924000Y-80351000D01*
X132924000Y-78649000D01*
X134026000Y-78649000D01*
X134026000Y-80351000D01*
X134026000Y-80351000D01*
G37*
G36*
X135626000Y-80351000D02*
G01*
X134524000Y-80351000D01*
X134524000Y-78649000D01*
X135626000Y-78649000D01*
X135626000Y-80351000D01*
X135626000Y-80351000D01*
G37*
G36*
X137226000Y-80351000D02*
G01*
X136124000Y-80351000D01*
X136124000Y-78649000D01*
X137226000Y-78649000D01*
X137226000Y-80351000D01*
X137226000Y-80351000D01*
G37*
G36*
X144701000Y-80351000D02*
G01*
X143599000Y-80351000D01*
X143599000Y-78649000D01*
X144701000Y-78649000D01*
X144701000Y-80351000D01*
X144701000Y-80351000D01*
G37*
G36*
X147901000Y-80351000D02*
G01*
X146799000Y-80351000D01*
X146799000Y-78649000D01*
X147901000Y-78649000D01*
X147901000Y-80351000D01*
X147901000Y-80351000D01*
G37*
G36*
X142176000Y-80051000D02*
G01*
X140824000Y-80051000D01*
X140824000Y-78949000D01*
X142176000Y-78949000D01*
X142176000Y-80051000D01*
X142176000Y-80051000D01*
G37*
G36*
X139676000Y-75551000D02*
G01*
X138324000Y-75551000D01*
X138324000Y-74449000D01*
X139676000Y-74449000D01*
X139676000Y-75551000D01*
X139676000Y-75551000D01*
G37*
G36*
X147901000Y-75351000D02*
G01*
X146799000Y-75351000D01*
X146799000Y-73649000D01*
X147901000Y-73649000D01*
X147901000Y-75351000D01*
X147901000Y-75351000D01*
G37*
G36*
X146301000Y-75351000D02*
G01*
X145199000Y-75351000D01*
X145199000Y-73649000D01*
X146301000Y-73649000D01*
X146301000Y-75351000D01*
X146301000Y-75351000D01*
G37*
G36*
X144701000Y-75351000D02*
G01*
X143599000Y-75351000D01*
X143599000Y-73649000D01*
X144701000Y-73649000D01*
X144701000Y-75351000D01*
X144701000Y-75351000D01*
G37*
G36*
X135626000Y-75351000D02*
G01*
X134524000Y-75351000D01*
X134524000Y-73649000D01*
X135626000Y-73649000D01*
X135626000Y-75351000D01*
X135626000Y-75351000D01*
G37*
G36*
X137226000Y-75351000D02*
G01*
X136124000Y-75351000D01*
X136124000Y-73649000D01*
X137226000Y-73649000D01*
X137226000Y-75351000D01*
X137226000Y-75351000D01*
G37*
G36*
X134026000Y-75351000D02*
G01*
X132924000Y-75351000D01*
X132924000Y-73649000D01*
X134026000Y-73649000D01*
X134026000Y-75351000D01*
X134026000Y-75351000D01*
G37*
G36*
X139676000Y-73551000D02*
G01*
X138324000Y-73551000D01*
X138324000Y-72449000D01*
X139676000Y-72449000D01*
X139676000Y-73551000D01*
X139676000Y-73551000D01*
G37*
G36*
X142176000Y-73051000D02*
G01*
X140824000Y-73051000D01*
X140824000Y-71949000D01*
X142176000Y-71949000D01*
X142176000Y-73051000D01*
X142176000Y-73051000D01*
G37*
G36*
X144701000Y-71351000D02*
G01*
X143599000Y-71351000D01*
X143599000Y-69649000D01*
X144701000Y-69649000D01*
X144701000Y-71351000D01*
X144701000Y-71351000D01*
G37*
G36*
X135626000Y-71351000D02*
G01*
X134524000Y-71351000D01*
X134524000Y-69649000D01*
X135626000Y-69649000D01*
X135626000Y-71351000D01*
X135626000Y-71351000D01*
G37*
G36*
X134026000Y-71351000D02*
G01*
X132924000Y-71351000D01*
X132924000Y-69649000D01*
X134026000Y-69649000D01*
X134026000Y-71351000D01*
X134026000Y-71351000D01*
G37*
G36*
X137226000Y-71351000D02*
G01*
X136124000Y-71351000D01*
X136124000Y-69649000D01*
X137226000Y-69649000D01*
X137226000Y-71351000D01*
X137226000Y-71351000D01*
G37*
G36*
X146301000Y-71351000D02*
G01*
X145199000Y-71351000D01*
X145199000Y-69649000D01*
X146301000Y-69649000D01*
X146301000Y-71351000D01*
X146301000Y-71351000D01*
G37*
G36*
X147901000Y-71351000D02*
G01*
X146799000Y-71351000D01*
X146799000Y-69649000D01*
X147901000Y-69649000D01*
X147901000Y-71351000D01*
X147901000Y-71351000D01*
G37*
G36*
X142176000Y-71051000D02*
G01*
X140824000Y-71051000D01*
X140824000Y-69949000D01*
X142176000Y-69949000D01*
X142176000Y-71051000D01*
X142176000Y-71051000D01*
G37*
G36*
X139676000Y-66551000D02*
G01*
X138324000Y-66551000D01*
X138324000Y-65449000D01*
X139676000Y-65449000D01*
X139676000Y-66551000D01*
X139676000Y-66551000D01*
G37*
G36*
X135626000Y-66351000D02*
G01*
X134524000Y-66351000D01*
X134524000Y-64649000D01*
X135626000Y-64649000D01*
X135626000Y-66351000D01*
X135626000Y-66351000D01*
G37*
G36*
X137226000Y-66351000D02*
G01*
X136124000Y-66351000D01*
X136124000Y-64649000D01*
X137226000Y-64649000D01*
X137226000Y-66351000D01*
X137226000Y-66351000D01*
G37*
G36*
X146301000Y-66351000D02*
G01*
X145199000Y-66351000D01*
X145199000Y-64649000D01*
X146301000Y-64649000D01*
X146301000Y-66351000D01*
X146301000Y-66351000D01*
G37*
G36*
X134026000Y-66351000D02*
G01*
X132924000Y-66351000D01*
X132924000Y-64649000D01*
X134026000Y-64649000D01*
X134026000Y-66351000D01*
X134026000Y-66351000D01*
G37*
G36*
X147901000Y-66351000D02*
G01*
X146799000Y-66351000D01*
X146799000Y-64649000D01*
X147901000Y-64649000D01*
X147901000Y-66351000D01*
X147901000Y-66351000D01*
G37*
G36*
X144701000Y-66351000D02*
G01*
X143599000Y-66351000D01*
X143599000Y-64649000D01*
X144701000Y-64649000D01*
X144701000Y-66351000D01*
X144701000Y-66351000D01*
G37*
G36*
X139676000Y-64551000D02*
G01*
X138324000Y-64551000D01*
X138324000Y-63449000D01*
X139676000Y-63449000D01*
X139676000Y-64551000D01*
X139676000Y-64551000D01*
G37*
G36*
X142176000Y-64051000D02*
G01*
X140824000Y-64051000D01*
X140824000Y-62949000D01*
X142176000Y-62949000D01*
X142176000Y-64051000D01*
X142176000Y-64051000D01*
G37*
G36*
X135651000Y-62351000D02*
G01*
X134549000Y-62351000D01*
X134549000Y-60649000D01*
X135651000Y-60649000D01*
X135651000Y-62351000D01*
X135651000Y-62351000D01*
G37*
G36*
X134051000Y-62351000D02*
G01*
X132949000Y-62351000D01*
X132949000Y-60649000D01*
X134051000Y-60649000D01*
X134051000Y-62351000D01*
X134051000Y-62351000D01*
G37*
G36*
X137251000Y-62351000D02*
G01*
X136149000Y-62351000D01*
X136149000Y-60649000D01*
X137251000Y-60649000D01*
X137251000Y-62351000D01*
X137251000Y-62351000D01*
G37*
G36*
X146301000Y-62351000D02*
G01*
X145199000Y-62351000D01*
X145199000Y-60649000D01*
X146301000Y-60649000D01*
X146301000Y-62351000D01*
X146301000Y-62351000D01*
G37*
G36*
X144701000Y-62351000D02*
G01*
X143599000Y-62351000D01*
X143599000Y-60649000D01*
X144701000Y-60649000D01*
X144701000Y-62351000D01*
X144701000Y-62351000D01*
G37*
G36*
X147901000Y-62351000D02*
G01*
X146799000Y-62351000D01*
X146799000Y-60649000D01*
X147901000Y-60649000D01*
X147901000Y-62351000D01*
X147901000Y-62351000D01*
G37*
G36*
X142176000Y-62051000D02*
G01*
X140824000Y-62051000D01*
X140824000Y-60949000D01*
X142176000Y-60949000D01*
X142176000Y-62051000D01*
X142176000Y-62051000D01*
G37*
G36*
X139676000Y-57551000D02*
G01*
X138324000Y-57551000D01*
X138324000Y-56449000D01*
X139676000Y-56449000D01*
X139676000Y-57551000D01*
X139676000Y-57551000D01*
G37*
G36*
X135651000Y-57351000D02*
G01*
X134549000Y-57351000D01*
X134549000Y-55649000D01*
X135651000Y-55649000D01*
X135651000Y-57351000D01*
X135651000Y-57351000D01*
G37*
G36*
X134051000Y-57351000D02*
G01*
X132949000Y-57351000D01*
X132949000Y-55649000D01*
X134051000Y-55649000D01*
X134051000Y-57351000D01*
X134051000Y-57351000D01*
G37*
G36*
X137251000Y-57351000D02*
G01*
X136149000Y-57351000D01*
X136149000Y-55649000D01*
X137251000Y-55649000D01*
X137251000Y-57351000D01*
X137251000Y-57351000D01*
G37*
G36*
X144701000Y-57351000D02*
G01*
X143599000Y-57351000D01*
X143599000Y-55649000D01*
X144701000Y-55649000D01*
X144701000Y-57351000D01*
X144701000Y-57351000D01*
G37*
G36*
X146301000Y-57351000D02*
G01*
X145199000Y-57351000D01*
X145199000Y-55649000D01*
X146301000Y-55649000D01*
X146301000Y-57351000D01*
X146301000Y-57351000D01*
G37*
G36*
X147901000Y-57351000D02*
G01*
X146799000Y-57351000D01*
X146799000Y-55649000D01*
X147901000Y-55649000D01*
X147901000Y-57351000D01*
X147901000Y-57351000D01*
G37*
G36*
X139676000Y-55551000D02*
G01*
X138324000Y-55551000D01*
X138324000Y-54449000D01*
X139676000Y-54449000D01*
X139676000Y-55551000D01*
X139676000Y-55551000D01*
G37*
G36*
X131724549Y-52871116D02*
G01*
X131835734Y-52893232D01*
X132045203Y-52979997D01*
X132233720Y-53105960D01*
X132394040Y-53266280D01*
X132520003Y-53454797D01*
X132606768Y-53664266D01*
X132651000Y-53886636D01*
X132651000Y-54113364D01*
X132606768Y-54335734D01*
X132520003Y-54545203D01*
X132394040Y-54733720D01*
X132233720Y-54894040D01*
X132045203Y-55020003D01*
X131835734Y-55106768D01*
X131724549Y-55128884D01*
X131613365Y-55151000D01*
X131386635Y-55151000D01*
X131275451Y-55128884D01*
X131164266Y-55106768D01*
X130954797Y-55020003D01*
X130766280Y-54894040D01*
X130605960Y-54733720D01*
X130479997Y-54545203D01*
X130393232Y-54335734D01*
X130349000Y-54113364D01*
X130349000Y-53886636D01*
X130393232Y-53664266D01*
X130479997Y-53454797D01*
X130605960Y-53266280D01*
X130766280Y-53105960D01*
X130954797Y-52979997D01*
X131164266Y-52893232D01*
X131275451Y-52871116D01*
X131386635Y-52849000D01*
X131613365Y-52849000D01*
X131724549Y-52871116D01*
X131724549Y-52871116D01*
G37*
G36*
X149724549Y-52871116D02*
G01*
X149835734Y-52893232D01*
X150045203Y-52979997D01*
X150233720Y-53105960D01*
X150394040Y-53266280D01*
X150520003Y-53454797D01*
X150606768Y-53664266D01*
X150651000Y-53886636D01*
X150651000Y-54113364D01*
X150606768Y-54335734D01*
X150520003Y-54545203D01*
X150394040Y-54733720D01*
X150233720Y-54894040D01*
X150045203Y-55020003D01*
X149835734Y-55106768D01*
X149724549Y-55128884D01*
X149613365Y-55151000D01*
X149386635Y-55151000D01*
X149275451Y-55128884D01*
X149164266Y-55106768D01*
X148954797Y-55020003D01*
X148766280Y-54894040D01*
X148605960Y-54733720D01*
X148479997Y-54545203D01*
X148393232Y-54335734D01*
X148349000Y-54113364D01*
X148349000Y-53886636D01*
X148393232Y-53664266D01*
X148479997Y-53454797D01*
X148605960Y-53266280D01*
X148766280Y-53105960D01*
X148954797Y-52979997D01*
X149164266Y-52893232D01*
X149275451Y-52871116D01*
X149386635Y-52849000D01*
X149613365Y-52849000D01*
X149724549Y-52871116D01*
X149724549Y-52871116D01*
G37*
G36*
X134301000Y-50801000D02*
G01*
X131699000Y-50801000D01*
X131699000Y-48199000D01*
X134301000Y-48199000D01*
X134301000Y-50801000D01*
X134301000Y-50801000D01*
G37*
G36*
X138379487Y-48248996D02*
G01*
X138616253Y-48347068D01*
X138616255Y-48347069D01*
X138829339Y-48489447D01*
X139010553Y-48670661D01*
X139152932Y-48883747D01*
X139251004Y-49120513D01*
X139301000Y-49371861D01*
X139301000Y-49628139D01*
X139251004Y-49879487D01*
X139152932Y-50116253D01*
X139152931Y-50116255D01*
X139010553Y-50329339D01*
X138829339Y-50510553D01*
X138616255Y-50652931D01*
X138616254Y-50652932D01*
X138616253Y-50652932D01*
X138379487Y-50751004D01*
X138128139Y-50801000D01*
X137871861Y-50801000D01*
X137620513Y-50751004D01*
X137383747Y-50652932D01*
X137383746Y-50652932D01*
X137383745Y-50652931D01*
X137170661Y-50510553D01*
X136989447Y-50329339D01*
X136847069Y-50116255D01*
X136847068Y-50116253D01*
X136748996Y-49879487D01*
X136699000Y-49628139D01*
X136699000Y-49371861D01*
X136748996Y-49120513D01*
X136847068Y-48883747D01*
X136989447Y-48670661D01*
X137170661Y-48489447D01*
X137383745Y-48347069D01*
X137383747Y-48347068D01*
X137620513Y-48248996D01*
X137871861Y-48199000D01*
X138128139Y-48199000D01*
X138379487Y-48248996D01*
X138379487Y-48248996D01*
G37*
G36*
X143379487Y-48248996D02*
G01*
X143616253Y-48347068D01*
X143616255Y-48347069D01*
X143829339Y-48489447D01*
X144010553Y-48670661D01*
X144152932Y-48883747D01*
X144251004Y-49120513D01*
X144301000Y-49371861D01*
X144301000Y-49628139D01*
X144251004Y-49879487D01*
X144152932Y-50116253D01*
X144152931Y-50116255D01*
X144010553Y-50329339D01*
X143829339Y-50510553D01*
X143616255Y-50652931D01*
X143616254Y-50652932D01*
X143616253Y-50652932D01*
X143379487Y-50751004D01*
X143128139Y-50801000D01*
X142871861Y-50801000D01*
X142620513Y-50751004D01*
X142383747Y-50652932D01*
X142383746Y-50652932D01*
X142383745Y-50652931D01*
X142170661Y-50510553D01*
X141989447Y-50329339D01*
X141847069Y-50116255D01*
X141847068Y-50116253D01*
X141748996Y-49879487D01*
X141699000Y-49628139D01*
X141699000Y-49371861D01*
X141748996Y-49120513D01*
X141847068Y-48883747D01*
X141989447Y-48670661D01*
X142170661Y-48489447D01*
X142383745Y-48347069D01*
X142383747Y-48347068D01*
X142620513Y-48248996D01*
X142871861Y-48199000D01*
X143128139Y-48199000D01*
X143379487Y-48248996D01*
X143379487Y-48248996D01*
G37*
G36*
X148379487Y-48248996D02*
G01*
X148616253Y-48347068D01*
X148616255Y-48347069D01*
X148829339Y-48489447D01*
X149010553Y-48670661D01*
X149152932Y-48883747D01*
X149251004Y-49120513D01*
X149301000Y-49371861D01*
X149301000Y-49628139D01*
X149251004Y-49879487D01*
X149152932Y-50116253D01*
X149152931Y-50116255D01*
X149010553Y-50329339D01*
X148829339Y-50510553D01*
X148616255Y-50652931D01*
X148616254Y-50652932D01*
X148616253Y-50652932D01*
X148379487Y-50751004D01*
X148128139Y-50801000D01*
X147871861Y-50801000D01*
X147620513Y-50751004D01*
X147383747Y-50652932D01*
X147383746Y-50652932D01*
X147383745Y-50652931D01*
X147170661Y-50510553D01*
X146989447Y-50329339D01*
X146847069Y-50116255D01*
X146847068Y-50116253D01*
X146748996Y-49879487D01*
X146699000Y-49628139D01*
X146699000Y-49371861D01*
X146748996Y-49120513D01*
X146847068Y-48883747D01*
X146989447Y-48670661D01*
X147170661Y-48489447D01*
X147383745Y-48347069D01*
X147383747Y-48347068D01*
X147620513Y-48248996D01*
X147871861Y-48199000D01*
X148128139Y-48199000D01*
X148379487Y-48248996D01*
X148379487Y-48248996D01*
G37*
M02*
