G04 #@! TF.GenerationSoftware,KiCad,Pcbnew,5.1.0*
G04 #@! TF.CreationDate,2019-04-02T01:21:10-05:00*
G04 #@! TF.ProjectId,Cluster,436c7573-7465-4722-9e6b-696361645f70,rev?*
G04 #@! TF.SameCoordinates,Original*
G04 #@! TF.FileFunction,Paste,Top*
G04 #@! TF.FilePolarity,Positive*
%FSLAX46Y46*%
G04 Gerber Fmt 4.6, Leading zero omitted, Abs format (unit mm)*
G04 Created by KiCad (PCBNEW 5.1.0) date 2019-04-02 01:21:10*
%MOMM*%
%LPD*%
G04 APERTURE LIST*
%ADD10R,2.500000X4.000000*%
%ADD11R,1.250000X1.000000*%
%ADD12R,1.000000X1.250000*%
%ADD13R,1.100000X0.250000*%
%ADD14R,1.500000X1.700000*%
%ADD15R,1.500000X2.400000*%
%ADD16R,1.300000X0.700000*%
%ADD17R,0.700000X1.300000*%
%ADD18R,2.000000X2.400000*%
%ADD19R,1.800000X2.500000*%
%ADD20R,0.350000X0.520000*%
%ADD21R,0.520000X0.350000*%
%ADD22R,1.100000X4.600000*%
%ADD23R,5.250000X4.550000*%
%ADD24R,1.000000X0.250000*%
%ADD25R,0.250000X1.000000*%
G04 APERTURE END LIST*
D10*
X148000000Y-83500000D03*
X148000000Y-77400000D03*
D11*
X177000000Y-124500000D03*
X177000000Y-122500000D03*
X173000000Y-122500000D03*
X173000000Y-124500000D03*
D10*
X184000000Y-90500000D03*
X184000000Y-84400000D03*
D11*
X157500000Y-100500000D03*
X157500000Y-98500000D03*
D12*
X150000000Y-102500000D03*
X148000000Y-102500000D03*
X148000000Y-105500000D03*
X150000000Y-105500000D03*
X156000000Y-114500000D03*
X154000000Y-114500000D03*
D11*
X169000000Y-124500000D03*
X169000000Y-122500000D03*
D12*
X154000000Y-117500000D03*
X156000000Y-117500000D03*
D13*
X202950000Y-110840000D03*
X202950000Y-110340000D03*
X202950000Y-109840000D03*
X202950000Y-109340000D03*
X202950000Y-108840000D03*
X202950000Y-108340000D03*
X202950000Y-107840000D03*
X202950000Y-107340000D03*
X202950000Y-106840000D03*
X202950000Y-106340000D03*
X202950000Y-105840000D03*
X202950000Y-105340000D03*
X202950000Y-104840000D03*
X202950000Y-104340000D03*
X202950000Y-103840000D03*
X202950000Y-103340000D03*
X202950000Y-102840000D03*
X202950000Y-102340000D03*
X202950000Y-101840000D03*
X202950000Y-101340000D03*
X202950000Y-100840000D03*
X202950000Y-100340000D03*
X202950000Y-99840000D03*
X202950000Y-99340000D03*
X202950000Y-98840000D03*
X202950000Y-98340000D03*
X202950000Y-97840000D03*
X202950000Y-97340000D03*
X202950000Y-96840000D03*
X202950000Y-96340000D03*
X202950000Y-95840000D03*
X202950000Y-95340000D03*
X202950000Y-94840000D03*
X202950000Y-94340000D03*
X202950000Y-93840000D03*
X202950000Y-93340000D03*
X202950000Y-92840000D03*
X202950000Y-92340000D03*
X202950000Y-91840000D03*
X202950000Y-91340000D03*
D14*
X206850000Y-112500000D03*
X206850000Y-89700000D03*
D15*
X171000000Y-90000000D03*
X176500000Y-90000000D03*
D16*
X164500000Y-100500000D03*
X164500000Y-98600000D03*
X161000000Y-100400000D03*
X161000000Y-98500000D03*
X175500000Y-98600000D03*
X175500000Y-100500000D03*
X172000000Y-98600000D03*
X172000000Y-100500000D03*
X161000000Y-104950000D03*
X161000000Y-103050000D03*
D17*
X154000000Y-111500000D03*
X155900000Y-111500000D03*
D18*
X156700000Y-105500000D03*
X153000000Y-105500000D03*
D19*
X171000000Y-83500000D03*
X171000000Y-79500000D03*
D20*
X179500000Y-104225000D03*
X180000000Y-104225000D03*
X180500000Y-104225000D03*
D21*
X181225000Y-104000000D03*
X181225000Y-103500000D03*
X181225000Y-103000000D03*
X181225000Y-102500000D03*
X181225000Y-102000000D03*
D20*
X180500000Y-101775000D03*
X180000000Y-101775000D03*
X179500000Y-101775000D03*
D21*
X178775000Y-102000000D03*
X178775000Y-102500000D03*
X178775000Y-103000000D03*
X178775000Y-103500000D03*
X178775000Y-104000000D03*
D22*
X155600000Y-92150000D03*
X157300000Y-92150000D03*
X159000000Y-92150000D03*
X160700000Y-92150000D03*
X162400000Y-92150000D03*
D23*
X161775000Y-80575000D03*
X156225000Y-85425000D03*
X156225000Y-80575000D03*
X161775000Y-85425000D03*
D24*
X160550000Y-108950000D03*
X160550000Y-109450000D03*
X160550000Y-109950000D03*
X160550000Y-110450000D03*
X160550000Y-110950000D03*
X160550000Y-111450000D03*
X160550000Y-111950000D03*
X160550000Y-112450000D03*
X160550000Y-112950000D03*
X160550000Y-113450000D03*
X160550000Y-113950000D03*
X160550000Y-114450000D03*
X160550000Y-114950000D03*
X160550000Y-115450000D03*
X160550000Y-115950000D03*
X160550000Y-116450000D03*
D25*
X162500000Y-118400000D03*
X163000000Y-118400000D03*
X163500000Y-118400000D03*
X164000000Y-118400000D03*
X164500000Y-118400000D03*
X165000000Y-118400000D03*
X165500000Y-118400000D03*
X166000000Y-118400000D03*
X166500000Y-118400000D03*
X167000000Y-118400000D03*
X167500000Y-118400000D03*
X168000000Y-118400000D03*
X168500000Y-118400000D03*
X169000000Y-118400000D03*
X169500000Y-118400000D03*
X170000000Y-118400000D03*
D24*
X171950000Y-116450000D03*
X171950000Y-115950000D03*
X171950000Y-115450000D03*
X171950000Y-114950000D03*
X171950000Y-114450000D03*
X171950000Y-113950000D03*
X171950000Y-113450000D03*
X171950000Y-112950000D03*
X171950000Y-112450000D03*
X171950000Y-111950000D03*
X171950000Y-111450000D03*
X171950000Y-110950000D03*
X171950000Y-110450000D03*
X171950000Y-109950000D03*
X171950000Y-109450000D03*
X171950000Y-108950000D03*
D25*
X170000000Y-107000000D03*
X169500000Y-107000000D03*
X169000000Y-107000000D03*
X168500000Y-107000000D03*
X168000000Y-107000000D03*
X167500000Y-107000000D03*
X167000000Y-107000000D03*
X166500000Y-107000000D03*
X166000000Y-107000000D03*
X165500000Y-107000000D03*
X165000000Y-107000000D03*
X164500000Y-107000000D03*
X164000000Y-107000000D03*
X163500000Y-107000000D03*
X163000000Y-107000000D03*
X162500000Y-107000000D03*
M02*
