M48
; DRILL file {KiCad 5.1.0} date Tue 02 Apr 2019 01:21:08 AM CDT
; FORMAT={-:-/ absolute / inch / decimal}
; #@! TF.CreationDate,2019-04-02T01:21:08-05:00
; #@! TF.GenerationSoftware,Kicad,Pcbnew,5.1.0
; #@! TF.FileFunction,Plated,1,2,PTH
FMAT,2
INCH
T1C0.0157
T2C0.0197
T3C0.0394
T4C0.0472
T5C0.1772
%
G90
G05
T1
X5.7087Y-2.9331
X5.7087Y-3.3858
X5.9055Y-4.3307
X5.9449Y-4.6063
X5.9843Y-3.7598
X6.0236Y-4.6161
X6.0433Y-4.3898
X6.2402Y-4.5669
X6.2593Y-4.6058
X6.2598Y-4.4882
X6.3386Y-4.1535
X6.3976Y-4.4488
X6.3976Y-4.5079
X6.4085Y-4.6189
X6.4567Y-4.1535
X6.4764Y-4.0354
X6.5551Y-4.0945
X6.5748Y-3.7992
X6.5945Y-4.1339
X6.6107Y-4.5901
X6.6535Y-4.1535
X6.654Y-4.4493
X6.6929Y-4.5669
X6.7145Y-4.534
X6.7323Y-4.8228
X6.8307Y-4.626
X6.8504Y-4.2913
X6.9094Y-3.9961
X6.9094Y-4.1142
X6.9094Y-4.1929
X6.9685Y-3.9173
X7.0866Y-4.0551
X7.1654Y-4.1535
X8.0512Y-3.7795
X8.0517Y-3.8194
X8.0795Y-3.8472
X8.1102Y-3.878
X8.2087Y-4.2323
X8.2283Y-3.937
T2
X7.7559Y-3.1299
X7.7559Y-3.1693
X7.7559Y-3.2087
X7.7559Y-3.248
X7.7559Y-3.2874
X7.7559Y-3.3268
X7.7559Y-3.3661
X7.7559Y-3.4055
X7.7559Y-3.4449
X7.7559Y-3.4843
X7.7559Y-3.5236
X7.7559Y-3.563
X7.7559Y-3.6024
X7.7559Y-3.6417
X7.7559Y-3.6811
X7.7559Y-3.7205
X7.7559Y-3.7598
X7.7559Y-3.7992
X7.7559Y-3.8386
X7.7559Y-3.878
X7.7559Y-3.9173
X7.7559Y-3.9567
X7.7559Y-3.9961
X7.7559Y-4.0354
X7.7559Y-4.0748
X7.7559Y-4.1142
X7.7559Y-4.1535
X7.7559Y-4.1929
X7.7559Y-4.2323
X7.7559Y-4.2717
X7.7559Y-4.311
X7.7559Y-4.3504
X7.7559Y-4.3898
X7.7559Y-4.4291
X7.7559Y-4.4685
X7.7559Y-4.5079
X7.7559Y-4.5472
X7.7559Y-4.5866
X7.7559Y-4.626
X7.7559Y-4.6654
T3
X6.5748Y-3.6811
X7.6181Y-3.1496
X7.6181Y-3.2496
X7.6181Y-3.3496
X7.0669Y-4.2717
X7.1669Y-4.2717
X7.3228Y-3.8976
X7.3228Y-3.9976
X7.3228Y-4.0976
X7.6181Y-3.8976
X7.6181Y-3.9976
X7.6181Y-4.0976
X5.7283Y-3.4646
X5.7283Y-3.5646
X5.7283Y-3.6646
X5.7283Y-3.7646
X5.7283Y-3.8646
X5.7283Y-3.9646
X5.7283Y-4.0646
X5.8598Y-4.9409
X5.9598Y-4.9409
X6.0598Y-4.9409
X6.1598Y-4.9409
X6.2598Y-4.9409
X6.3598Y-4.9409
X6.4598Y-4.9409
X7.3228Y-4.3504
X7.3228Y-4.4504
X7.3228Y-4.5504
X5.7283Y-4.2685
X5.7283Y-4.3685
X5.7283Y-4.4685
X5.7283Y-4.5685
X5.7283Y-4.6685
X5.7283Y-4.7685
T4
X5.8661Y-5.1969
X6.063Y-5.1969
X6.2598Y-5.1969
X6.4567Y-5.1969
X6.6535Y-5.1969
X6.8504Y-5.1969
X7.0472Y-5.1969
X7.2441Y-5.1969
X7.4409Y-5.1969
X7.6378Y-5.1969
X7.8346Y-5.1969
X8.0315Y-5.1969
T5
X9.4882Y-2.7756
X5.8071Y-2.7756
X9.4882Y-5.4331
X5.8071Y-5.4331
T0
M30
